<svg width="34" height="34" viewBox="0 0 34 34" fill="none" xmlns="http://www.w3.org/2000/svg">
<path fillRule="evenodd" clipRule="evenodd" d="M2.07466 21.9082C3.40304 20.5798 5.20472 19.8335 7.08333 19.8335H18.4167C20.2953 19.8335 22.097 20.5798 23.4253 21.9082C24.7537 23.2365 25.5 25.0382 25.5 26.9168V29.7502C25.5 30.5326 24.8657 31.1668 24.0833 31.1668C23.3009 31.1668 22.6667 30.5326 22.6667 29.7502V26.9168C22.6667 25.7897 22.2189 24.7087 21.4219 23.9116C20.6248 23.1146 19.5438 22.6668 18.4167 22.6668H7.08333C5.95616 22.6668 4.87516 23.1146 4.07813 23.9116C3.2811 24.7087 2.83333 25.7897 2.83333 26.9168V29.7502C2.83333 30.5326 2.19907 31.1668 1.41667 31.1668C0.634263 31.1668 0 30.5326 0 29.7502V26.9168C0 25.0382 0.746278 23.2365 2.07466 21.9082Z" fill="#333333"/>
<path fillRule="evenodd" clipRule="evenodd" d="M12.75 5.66683C10.4028 5.66683 8.5 7.56962 8.5 9.91683C8.5 12.264 10.4028 14.1668 12.75 14.1668C15.0972 14.1668 17 12.264 17 9.91683C17 7.56962 15.0972 5.66683 12.75 5.66683ZM5.66667 9.91683C5.66667 6.00481 8.83799 2.8335 12.75 2.8335C16.662 2.8335 19.8333 6.00481 19.8333 9.91683C19.8333 13.8288 16.662 17.0002 12.75 17.0002C8.83799 17.0002 5.66667 13.8288 5.66667 9.91683Z" fill="#333333"/>
<path fillRule="evenodd" clipRule="evenodd" d="M26.9616 21.0799C27.1572 20.3224 27.9299 19.8668 28.6875 20.0624C30.2071 20.4548 31.5534 21.3407 32.5149 22.5811C33.4765 23.8215 33.9988 25.3461 34 26.9155L34 29.7499C34 30.5323 33.3657 31.1666 32.5833 31.1666C31.8009 31.1666 31.1667 30.5323 31.1667 29.7499L31.1667 26.9177C31.1667 26.9175 31.1667 26.9178 31.1667 26.9177C31.1659 25.9761 30.8525 25.0611 30.2756 24.317C29.6987 23.5728 28.8909 23.0412 27.9792 22.8058C27.2216 22.6102 26.766 21.8375 26.9616 21.0799Z" fill="#333333"/>
<path fillRule="evenodd" clipRule="evenodd" d="M21.2943 4.08271C21.4883 3.32476 22.2601 2.86763 23.0181 3.0617C24.5417 3.45182 25.8922 4.33794 26.8566 5.58038C27.821 6.82281 28.3444 8.35088 28.3444 9.92368C28.3444 11.4965 27.821 13.0246 26.8566 14.267C25.8922 15.5094 24.5417 16.3955 23.0181 16.7857C22.2601 16.9797 21.4883 16.5226 21.2943 15.7647C21.1002 15.0067 21.5573 14.2349 22.3153 14.0409C23.2295 13.8068 24.0398 13.2751 24.6184 12.5297C25.197 11.7842 25.5111 10.8674 25.5111 9.92368C25.5111 8.98 25.197 8.06316 24.6184 7.3177C24.0398 6.57224 23.2295 6.04056 22.3153 5.80649C21.5573 5.61243 21.1002 4.84066 21.2943 4.08271Z" fill="#333333"/>
</svg>
