<svg width="34" height="34" viewBox="0 0 34 34" fill="none" xmlns="http://www.w3.org/2000/svg">
<path fillRule="evenodd" clipRule="evenodd" d="M17 4.24984C9.95839 4.24984 4.25002 9.95821 4.25002 16.9998C4.25002 24.0415 9.95839 29.7498 17 29.7498C24.0417 29.7498 29.75 24.0415 29.75 16.9998C29.75 9.95821 24.0417 4.24984 17 4.24984ZM1.41669 16.9998C1.41669 8.3934 8.39358 1.4165 17 1.4165C25.6065 1.4165 32.5834 8.3934 32.5834 16.9998C32.5834 25.6063 25.6065 32.5832 17 32.5832C8.39358 32.5832 1.41669 25.6063 1.41669 16.9998Z" fill="#333333"/>
<path d="M11.3334 19.8332C11.3334 19.8332 13.4584 22.6665 17 22.6665C20.5417 22.6665 22.6667 19.8332 22.6667 19.8332" stroke="#333333" strokeWidth="3" strokeLinecap="round" strokeLinejoin="round"/>
<path fillRule="evenodd" clipRule="evenodd" d="M11.3333 12.7502C11.3333 11.9678 11.9676 11.3335 12.75 11.3335H12.7641C13.5465 11.3335 14.1808 11.9678 14.1808 12.7502C14.1808 13.5326 13.5465 14.1668 12.7641 14.1668H12.75C11.9676 14.1668 11.3333 13.5326 11.3333 12.7502Z" fill="#333333"/>
<path fillRule="evenodd" clipRule="evenodd" d="M19.8333 12.7502C19.8333 11.9678 20.4676 11.3335 21.25 11.3335H21.2641C22.0466 11.3335 22.6808 11.9678 22.6808 12.7502C22.6808 13.5326 22.0466 14.1668 21.2641 14.1668H21.25C20.4676 14.1668 19.8333 13.5326 19.8333 12.7502Z" fill="#333333"/>
</svg>
