<svg width="34" height="34" viewBox="0 0 34 34" fill="none" xmlns="http://www.w3.org/2000/svg">
<path fillRule="evenodd" clipRule="evenodd" d="M16.3665 1.56607C16.7653 1.36665 17.2347 1.36665 17.6336 1.56607L31.8002 8.6494C32.2802 8.88937 32.5833 9.37991 32.5833 9.9165C32.5833 10.4531 32.2802 10.9436 31.8002 11.1836L17.6336 18.2669C17.2347 18.4664 16.7653 18.4664 16.3665 18.2669L2.19979 11.1836C1.71984 10.9436 1.41667 10.4531 1.41667 9.9165C1.41667 9.37991 1.71984 8.88937 2.19979 8.6494L16.3665 1.56607ZM6.0011 9.9165L17 15.416L27.9989 9.9165L17 4.41705L6.0011 9.9165Z" fill="#333333"/>
<path fillRule="evenodd" clipRule="evenodd" d="M1.56622 23.4499C1.91612 22.7501 2.76708 22.4665 3.46688 22.8164L17 29.5829L30.5331 22.8164C31.2329 22.4665 32.0839 22.7501 32.4338 23.4499C32.7837 24.1497 32.5 25.0007 31.8002 25.3506L17.6335 32.4339C17.2347 32.6333 16.7653 32.6333 16.3664 32.4339L2.19978 25.3506C1.49997 25.0007 1.21632 24.1497 1.56622 23.4499Z" fill="#333333"/>
<path fillRule="evenodd" clipRule="evenodd" d="M1.56622 16.3664C1.91612 15.6666 2.76708 15.383 3.46688 15.7329L17 22.4994L30.5331 15.7329C31.2329 15.383 32.0839 15.6666 32.4338 16.3664C32.7837 17.0662 32.5 17.9172 31.8002 18.2671L17.6335 25.3504C17.2347 25.5498 16.7653 25.5498 16.3664 25.3504L2.19978 18.2671C1.49997 17.9172 1.21632 17.0662 1.56622 16.3664Z" fill="#333333"/>
</svg>
