<svg width="34" height="34" viewBox="0 0 34 34" fill="none" xmlns="http://www.w3.org/2000/svg">
<path fillRule="evenodd" clipRule="evenodd" d="M2.83331 4.25016C2.83331 3.46776 3.46758 2.8335 4.24998 2.8335H14.1666C14.949 2.8335 15.5833 3.46776 15.5833 4.25016V14.1668C15.5833 14.9492 14.949 15.5835 14.1666 15.5835H4.24998C3.46758 15.5835 2.83331 14.9492 2.83331 14.1668V4.25016ZM5.66665 5.66683V12.7502H12.75V5.66683H5.66665Z" fill="#333333"/>
<path fillRule="evenodd" clipRule="evenodd" d="M18.4167 4.25016C18.4167 3.46776 19.051 2.8335 19.8334 2.8335H29.75C30.5324 2.8335 31.1667 3.46776 31.1667 4.25016V14.1668C31.1667 14.9492 30.5324 15.5835 29.75 15.5835H19.8334C19.051 15.5835 18.4167 14.9492 18.4167 14.1668V4.25016ZM21.25 5.66683V12.7502H28.3334V5.66683H21.25Z" fill="#333333"/>
<path fillRule="evenodd" clipRule="evenodd" d="M18.4167 19.8332C18.4167 19.0508 19.051 18.4165 19.8334 18.4165H29.75C30.5324 18.4165 31.1667 19.0508 31.1667 19.8332V29.7498C31.1667 30.5322 30.5324 31.1665 29.75 31.1665H19.8334C19.051 31.1665 18.4167 30.5322 18.4167 29.7498V19.8332ZM21.25 21.2498V28.3332H28.3334V21.2498H21.25Z" fill="#333333"/>
<path fillRule="evenodd" clipRule="evenodd" d="M2.83331 19.8332C2.83331 19.0508 3.46758 18.4165 4.24998 18.4165H14.1666C14.949 18.4165 15.5833 19.0508 15.5833 19.8332V29.7498C15.5833 30.5322 14.949 31.1665 14.1666 31.1665H4.24998C3.46758 31.1665 2.83331 30.5322 2.83331 29.7498V19.8332ZM5.66665 21.2498V28.3332H12.75V21.2498H5.66665Z" fill="#333333"/>
</svg>
