<svg width="35" height="34" viewBox="0 0 35 34" fill="none" xmlns="http://www.w3.org/2000/svg">
<path fillRule="evenodd" clipRule="evenodd" d="M4.99306 4.49322C6.05576 3.43052 7.4971 2.8335 9 2.8335C10.5029 2.8335 11.9442 3.43052 13.0069 4.49322C14.0696 5.55593 14.6667 6.99727 14.6667 8.50016V11.3335H20.3333V8.50016C20.3333 6.99727 20.9304 5.55593 21.9931 4.49322C23.0558 3.43052 24.4971 2.8335 26 2.8335C27.5029 2.8335 28.9442 3.43052 30.0069 4.49322C31.0696 5.55593 31.6667 6.99727 31.6667 8.50016C31.6667 10.0031 31.0696 11.4444 30.0069 12.5071C28.9442 13.5698 27.5029 14.1668 26 14.1668H23.1667V19.8335H26C27.5029 19.8335 28.9442 20.4305 30.0069 21.4932C31.0696 22.5559 31.6667 23.9973 31.6667 25.5002C31.6667 27.0031 31.0696 28.4444 30.0069 29.5071C28.9442 30.5698 27.5029 31.1668 26 31.1668C24.4971 31.1668 23.0558 30.5698 21.9931 29.5071C20.9304 28.4444 20.3333 27.0031 20.3333 25.5002V22.6668H14.6667V25.5002C14.6667 27.0031 14.0696 28.4444 13.0069 29.5071C11.9442 30.5698 10.5029 31.1668 9 31.1668C7.4971 31.1668 6.05576 30.5698 4.99306 29.5071C3.93035 28.4444 3.33333 27.0031 3.33333 25.5002C3.33333 23.9973 3.93035 22.5559 4.99306 21.4932C6.05576 20.4305 7.4971 19.8335 9 19.8335H11.8333V14.1668H9C7.4971 14.1668 6.05576 13.5698 4.99306 12.5071C3.93035 11.4444 3.33333 10.0031 3.33333 8.50016C3.33333 6.99727 3.93035 5.55593 4.99306 4.49322ZM11.8333 11.3335V8.50016C11.8333 7.74872 11.5348 7.02805 11.0035 6.49669C10.4721 5.96534 9.75144 5.66683 9 5.66683C8.24855 5.66683 7.52788 5.96534 6.99653 6.49669C6.46517 7.02805 6.16666 7.74872 6.16666 8.50016C6.16666 9.25161 6.46517 9.97228 6.99653 10.5036C7.52788 11.035 8.24855 11.3335 9 11.3335H11.8333ZM14.6667 14.1668V19.8335H20.3333V14.1668H14.6667ZM11.8333 22.6668H9C8.24855 22.6668 7.52788 22.9653 6.99653 23.4967C6.46517 24.028 6.16666 24.7487 6.16666 25.5002C6.16666 26.2516 6.46517 26.9723 6.99653 27.5036C7.52788 28.035 8.24855 28.3335 9 28.3335C9.75144 28.3335 10.4721 28.035 11.0035 27.5036C11.5348 26.9723 11.8333 26.2516 11.8333 25.5002V22.6668ZM23.1667 22.6668V25.5002C23.1667 26.2516 23.4652 26.9723 23.9965 27.5036C24.5279 28.035 25.2485 28.3335 26 28.3335C26.7514 28.3335 27.4721 28.035 28.0035 27.5036C28.5348 26.9723 28.8333 26.2516 28.8333 25.5002C28.8333 24.7487 28.5348 24.028 28.0035 23.4967C27.4721 22.9653 26.7514 22.6668 26 22.6668H23.1667ZM23.1667 11.3335H26C26.7514 11.3335 27.4721 11.035 28.0035 10.5036C28.5348 9.97228 28.8333 9.25161 28.8333 8.50016C28.8333 7.74872 28.5348 7.02805 28.0035 6.49669C27.4721 5.96534 26.7514 5.66683 26 5.66683C25.2486 5.66683 24.5279 5.96534 23.9965 6.49669C23.4652 7.02805 23.1667 7.74872 23.1667 8.50016V11.3335Z" fill="#333333"/>
</svg>
