<svg width="80" height="80" viewBox="0 0 80 80" fill="none" xmlns="http://www.w3.org/2000/svg">
    <path d="M79.999 40.0271C79.999 62.0905 62.091 79.9887 40.0159 80C17.7241 80.0135 -0.170339 61.8016 0.00122339 39.6772C0.166014 18.0698 17.6857 0.00451604 40.0114 8.53129e-07C62.1294 -0.00451433 79.9967 17.914 79.999 40.0271ZM48.4202 50.8026C48.6143 50.8206 48.6866 50.8319 48.7566 50.8342C50.8537 50.9019 52.8696 51.3467 54.7974 52.1729C58.5198 53.7668 61.2174 56.4511 63.1001 60C63.2107 60.2077 63.31 60.4222 63.441 60.6141C64.3078 61.8806 66.0934 61.9551 67.0641 60.7653C67.2244 60.5689 67.3711 60.3635 67.5156 60.158C72.8769 52.5274 74.8679 44.0885 73.4029 34.8866C72.2132 27.4162 68.7978 21.0611 63.3191 15.8573C57.6688 10.491 50.9282 7.43876 43.1627 6.68247C39.3364 6.30997 35.553 6.58765 31.8283 7.53584C24.8078 9.32385 18.9363 12.9879 14.2387 18.4897C9.55003 23.9801 6.89533 30.3533 6.24068 37.546C5.92013 41.0611 6.18876 44.5423 6.97659 47.9828C8.03531 52.6041 9.98345 56.8168 12.8165 60.6163C13.9091 62.0792 15.8708 61.9167 16.7353 60.3116C16.9498 59.9142 17.153 59.5101 17.3877 59.1263C20.5594 53.9271 25.1825 51.157 31.2662 50.8319C31.343 50.8274 31.4197 50.8026 31.5349 50.78C25.3586 45.6508 25.0877 36.5481 30.4829 31.0599C35.4921 25.9623 43.6594 25.6936 48.9439 30.5001C51.6189 32.9337 53.1111 35.9792 53.312 39.5846C53.5648 44.075 51.8695 47.7797 48.4202 50.8026Z"
          fill="#F7CD2A"/>
</svg>
