<svg width="1037" height="200" viewBox="0 0 1037 200" fill="none" xmlns="http://www.w3.org/2000/svg"
>
    <g clipPath="url(#clip0)">
        <rect width="1037" height="200" fill="#1E2226" fill-opacity="0.73"/>
        <g opacity="0.46">
            <path d="M1047.55 132.395C1037.25 126.685 1026.57 121.233 1015.62 116.115C959.187 89.7147 896.701 72.2662 834.919 65.6497C763.397 58 694.376 64.6021 629.764 85.2713C425.444 150.647 393.305 139.261 286.804 101.523C268.848 95.1642 248.499 87.954 224.933 80.2598C174.77 63.8926 133.698 56.3515 99.3548 57.2176C68.7937 57.9892 46.4518 65.1798 24.8387 72.1331C20.2844 73.5985 15.5676 75.1155 10.8615 76.5469C-38.7522 91.6193 -107.69 86.3675 -152.356 26.4141L-152.652 26.5083C-142.271 40.4451 -130.06 52.0902 -116.366 61.1257C-103.662 69.5048 -89.6262 75.6993 -74.6413 79.5214C-47.3234 86.4958 -17.6753 85.5681 11.0929 76.8333C15.7989 75.4019 20.5158 73.885 25.0701 72.4195C68.3747 58.4815 113.153 44.0612 224.902 80.5345C248.46 88.2235 268.809 95.4337 286.755 101.788C339.965 120.642 375.122 133.093 421.979 132.456C468.126 131.826 526.443 118.669 629.98 85.541C750.634 46.9321 891.152 58.1669 1015.51 116.348C1090.85 151.604 1148.8 199.355 1170.53 244.106C1197.98 300.616 1223.45 332.561 1239.97 349.402C1257.91 367.682 1269.5 372.649 1269.62 372.699L1269.69 372.438C1269.58 372.394 1258.05 367.445 1240.19 349.231C1223.7 332.411 1198.29 300.52 1170.88 244.092C1160.43 222.569 1140.85 199.507 1114.26 177.398C1095.02 161.41 1072.35 146.135 1047.55 132.395Z"
                  fill="url(#paint0_linear)"/>
            <path d="M1037.21 127.135C994.021 103.21 945.707 84.6944 895.924 73.3176C853.443 63.613 810.582 59.2357 768.513 60.2936C722.72 61.4526 677.951 69.1001 635.45 83.0172C432.351 149.028 402.474 139.17 291.315 102.49C274.95 97.0876 256.41 90.9706 235.406 84.4802C123.155 49.7937 77.0065 61.5816 32.3751 72.9858C27.2595 74.2985 21.9661 75.6459 16.6941 76.8887C-47.6873 92.0814 -109.41 71.1666 -148.412 20.9463L-148.728 21.0544C-137.972 34.9077 -125.49 46.6362 -111.625 55.9335C-98.7452 64.568 -84.5703 71.1723 -69.5151 75.5497C-42.124 83.514 -12.2376 84.0923 16.9265 77.2173C22.1985 75.9745 27.4919 74.6271 32.6075 73.3144C77.1804 61.9278 123.274 50.1511 235.39 84.7959C256.384 91.2811 274.925 97.3981 291.289 102.801C402.571 139.523 432.479 149.39 635.705 83.3497C810.712 26.041 995.839 85.781 1101.67 170.411C1134.61 196.745 1158.21 223.212 1169.94 246.947C1197.35 302.778 1222.92 334.683 1239.54 351.612C1257.58 369.984 1269.3 375.211 1269.41 375.255L1269.51 374.975C1269.39 374.925 1257.75 369.727 1239.78 351.413C1223.2 334.506 1197.68 302.656 1170.31 246.912C1158.55 223.119 1134.89 196.598 1101.9 170.208C1082.21 154.46 1060.45 140.013 1037.21 127.135Z"
                  fill="url(#paint1_linear)"/>
            <path d="M1027.34 121.91C1021.39 118.613 1015.35 115.427 1009.21 112.335C973.408 94.321 935.58 80.5078 896.791 71.2669C855.235 61.367 813.166 56.9035 771.751 57.9907C727.035 59.1636 683.093 66.8364 641.144 80.7924C439.512 147.874 411.844 139.373 295.4 103.63C280.773 99.1397 264.197 94.053 245.888 88.7057C195.754 74.0696 153.909 66.5828 117.965 65.8046C86.239 65.1147 63.0314 69.5774 40.5861 73.8962C34.6895 75.0343 28.5836 76.1981 22.539 77.2292C-41.9078 88.2055 -104.34 65.1159 -144.465 15.472L-144.805 15.6005C-123.137 42.4106 -96.0839 61.2378 -64.3953 71.5665C-36.9087 80.5246 -6.77114 82.6077 22.7445 77.5845C28.7891 76.5534 34.8985 75.3832 40.7951 74.2451C86.5415 65.4488 133.855 56.3548 245.861 89.0405C264.174 94.3814 280.746 99.4745 295.364 103.959C353.832 121.905 389.118 132.736 436.005 130.992C481.574 129.292 537.238 115.773 641.389 81.1199C826.621 19.4829 1005.13 92.1537 1101.7 173.102C1135.17 201.157 1157.91 226.936 1169.3 249.743C1196.84 304.879 1222.5 336.74 1239.19 353.765C1257.3 372.233 1269.06 377.728 1269.17 377.779L1269.28 377.472C1269.17 377.428 1257.49 371.962 1239.44 353.548C1222.8 336.555 1197.18 304.744 1169.69 249.7C1158.27 226.836 1135.49 200.988 1101.95 172.885C1079.41 153.985 1054.38 136.89 1027.34 121.91Z"
                  fill="url(#paint2_linear)"/>
            <path d="M1017.62 116.428C1014.66 114.785 1011.67 113.173 1008.67 111.582C973.225 92.8702 935.847 78.5738 897.568 69.0738C856.911 58.9809 815.643 54.4365 774.901 55.5634C731.267 56.7617 688.17 64.4944 646.805 78.5407C445.917 146.742 417.522 138.655 298.023 104.641C284.977 100.927 271.49 97.0853 256.34 92.9222C144.977 62.3086 94.3308 69.0145 49.6425 74.9329C42.3538 75.8993 35.4742 76.8093 28.3628 77.5659C-37.002 84.5445 -98.5668 59.9118 -140.53 9.99905L-140.89 10.1414C-118.463 36.8141 -91.0007 56.1346 -59.2522 67.5872C-31.6259 77.5472 -1.24996 81.1363 28.5763 77.9506C35.6877 77.1941 42.5708 76.2777 49.8688 75.3164C94.5057 69.4029 145.101 62.7018 256.347 93.284C271.497 97.4471 284.984 101.289 298.02 104.997C358.755 122.284 395.418 132.72 442.486 130.427C487.46 128.239 542.911 114.269 647.106 78.8991C829.929 16.8353 1001.84 88.2573 1101.76 175.797C1136.17 205.95 1157.45 230.344 1168.69 252.554C1196.26 306.999 1222.03 338.82 1238.8 355.933C1257 374.502 1268.85 380.255 1268.96 380.311L1269.09 379.991C1268.99 379.941 1257.21 374.205 1239.09 355.707C1222.36 338.626 1196.64 306.86 1169.12 252.508C1157.85 230.234 1136.53 205.789 1102.05 175.576C1076.5 153.201 1048.13 133.331 1017.62 116.428Z"
                  fill="url(#paint3_linear)"/>
            <path d="M1008.49 110.928C973.526 91.5555 936.486 76.6717 898.359 66.8313C858.604 56.5634 818.129 51.9506 778.069 53.1224C735.521 54.3641 693.274 62.1682 652.496 76.2984C451.859 145.83 425.572 138.91 299.222 105.622C288.967 102.922 278.362 100.127 266.823 97.148C157.081 68.8232 105.437 72.7531 59.8745 76.2222C51.0657 76.896 42.7419 77.5305 34.2042 77.9132C-31.0304 80.8503 -93.2786 54.107 -136.584 4.52516L-136.966 4.68786C-113.779 31.2409 -85.8977 51.0599 -54.1138 63.6147C-26.2974 74.5958 4.30749 79.6858 34.3872 78.331C42.9249 77.9483 51.2522 77.3075 60.0703 76.6388C105.584 73.1682 157.177 69.2431 266.812 97.5417C278.342 100.516 288.947 103.31 299.211 106.016C362.769 122.76 401.126 132.869 448.52 130.031C493.465 127.345 546.923 113.386 652.802 76.6927C833.212 14.1662 1003.04 88.2965 1101.8 178.512C1125.3 199.985 1154.08 228.129 1168.07 255.38C1195.67 309.133 1221.54 340.92 1238.39 358.117C1256.67 376.775 1268.61 382.803 1268.72 382.859L1268.87 382.519C1268.77 382.468 1256.91 376.474 1238.7 357.882C1221.89 340.718 1196.07 308.992 1168.53 255.337C1154.49 227.999 1125.67 199.805 1102.12 178.3C1073.43 152.069 1041.91 129.45 1008.49 110.928Z"
                  fill="url(#paint4_linear)"/>
            <path d="M999.818 105.531C967.49 87.6202 933.683 73.8111 899.144 64.5347C860.264 54.0942 820.598 49.4298 781.227 50.658C739.766 51.961 698.373 59.83 658.179 74.0506C457.228 145.182 433.008 139.283 298.592 106.539C291.782 104.881 284.694 103.152 277.287 101.363C170.323 75.5269 115.632 76.8364 71.6991 77.8936C60.7911 78.1539 50.4978 78.405 40.0401 78.2486C1.86512 77.6914 -71.3337 66.6648 -132.649 -0.947864L-133.046 -0.759685C-109.066 25.6829 -80.7827 46.0078 -48.9434 59.6509C-20.8869 71.6727 9.94699 78.2636 40.2148 78.7034C50.676 78.8534 60.9787 78.6076 71.8866 78.3473C115.781 77.2936 170.424 75.9826 277.299 101.803C284.707 103.592 291.794 105.321 298.604 106.979C365.676 123.321 406.16 133.176 454.061 129.82C504.536 126.284 564.856 107.642 658.521 74.4898C809.562 21.0321 975.292 60.932 1101.86 181.224C1128.11 206.179 1154.23 232.772 1167.47 258.203C1195.08 311.266 1221.06 343.012 1238 360.303C1256.37 379.056 1268.39 385.342 1268.53 385.408L1268.69 385.042C1268.57 384.981 1256.63 378.724 1238.34 360.048C1221.45 342.795 1195.52 311.11 1167.96 258.151C1154.68 232.64 1128.52 205.996 1102.21 180.998C1070.75 151.076 1036.23 125.704 999.818 105.531Z"
                  fill="url(#paint5_linear)"/>
            <path d="M991.776 100.134C962.023 83.65 931.205 70.9141 899.941 62.1949C861.93 51.5945 823.06 46.8798 784.391 48.1811C744.018 49.5453 703.459 57.4934 663.867 71.8146C461.942 144.837 443.007 140.576 295.67 107.368L287.76 105.584C185.154 82.4867 130.071 81.2052 85.8023 80.1615C71.985 79.8424 58.9318 79.5304 45.8857 78.5894C-19.5959 73.8536 -81.604 43.6626 -128.702 -6.42185L-129.122 -6.21335C-81.8695 44.0318 -19.6678 74.3134 46.024 79.0657C59.0795 80.0119 72.1491 80.3164 85.9757 80.6406C130.213 81.6752 185.258 82.9603 287.788 106.04L295.698 107.825C369.636 124.491 410.364 133.665 459.001 129.793C509.046 125.801 567.379 107.291 664.237 72.2693C815.2 17.6772 974.725 58.3696 1101.91 183.92C1128.6 210.266 1153.65 235.986 1166.86 261.015C1194.49 313.387 1220.58 345.093 1237.61 362.473C1256.08 381.325 1268.18 387.863 1268.32 387.941L1268.52 387.566C1268.39 387.499 1256.35 380.973 1237.97 362.209C1220.99 344.873 1194.97 313.234 1167.39 260.959C1154.14 235.849 1129.06 210.084 1102.32 183.694C1072.66 154.424 1040.62 129.293 1007.08 108.995C1002 105.924 996.906 102.976 991.776 100.134Z"
                  fill="url(#paint6_linear)"/>
            <path d="M984.282 94.8251C957.066 79.7464 929.065 67.9972 900.752 59.8051C824.551 37.739 746.76 41.0305 669.542 69.5795C471.62 142.747 451.757 141.876 298.217 109.812C202.189 89.7594 147.329 86.2037 103.251 83.3419C84.4936 82.1263 68.3026 81.075 51.7326 78.9478C-13.1133 70.6005 -75.7946 38.3461 -124.765 -11.9013L-125.199 -11.6673C-76.0765 38.7228 -13.2087 71.0806 51.8382 79.4393C68.4304 81.5705 84.6342 82.6205 103.401 83.8414C147.457 86.6992 202.291 90.2573 298.261 110.303C375.114 126.352 417.477 134.509 465.891 129.788C514.921 125.009 570.754 106.721 669.936 70.0561C820.657 14.3389 974.087 55.7348 1101.96 186.621C1126.94 212.191 1152.76 238.624 1166.24 263.827C1193.87 315.511 1220.08 347.182 1237.19 364.639C1255.68 383.512 1267.86 390.345 1268.08 390.464L1268.3 390.069C1268.08 389.95 1255.98 383.164 1237.57 364.361C1220.51 346.936 1194.37 315.337 1166.79 263.757C1153.27 238.462 1127.4 211.991 1102.39 186.382C1072.2 155.483 1039.96 129.119 1006.57 108.022C999.197 103.372 991.772 98.9746 984.282 94.8251Z"
                  fill="url(#paint7_linear)"/>
            <path d="M977.318 89.5513C952.583 75.8472 927.316 65.1045 901.608 57.3813C827.625 35.1619 751.459 38.5126 675.225 67.3319C483.146 139.964 459.161 143.014 308.694 114.026C222.273 97.3811 168.771 92.0793 125.782 87.8228C100.659 85.3366 78.9562 83.1886 57.5852 79.2758C-6.35742 67.5818 -69.7176 33.2525 -120.83 -17.3742L-121.275 -17.1211C-94.6895 9.21645 -65.1313 31.047 -33.408 47.7818C-3.8267 63.3881 26.8121 74.1593 57.6474 79.8016C79.0534 83.7171 100.765 85.8703 125.911 88.3604C168.877 92.613 222.361 97.9045 308.747 114.547C385.536 129.345 427.002 135.647 475.372 129.595C522.561 123.696 575.291 105.771 675.643 67.8303C825.979 10.9834 973.414 52.989 1102 189.318L1106.45 194.018C1130.36 219.325 1152.94 243.235 1165.63 266.645C1193.27 317.64 1219.57 349.265 1236.77 366.816C1255.44 385.861 1267.75 392.936 1267.87 393.003L1268.11 392.594C1267.98 392.527 1255.76 385.498 1237.18 366.524C1220.03 349.011 1193.79 317.452 1166.21 266.573C1153.48 243.082 1130.85 219.14 1106.9 193.788L1102.46 189.088C1062.73 146.946 1020.84 113.663 977.318 89.5513Z"
                  fill="url(#paint8_linear)"/>
            <path d="M970.69 84.33C948.259 71.9022 925.512 62.0894 902.484 54.9187C830.674 32.5623 756.126 35.985 680.904 65.0902C493.775 137.5 468.222 144.569 319.154 118.247C246.348 105.39 196.334 99.2057 156.137 94.2225C118.492 89.5623 91.2968 86.1948 63.4364 79.6276C0.74556 64.8383 -63.3006 28.4468 -116.892 -22.8538L-117.352 -22.5752C-89.7495 3.84231 -59.7668 26.1829 -28.2166 43.846C1.86577 60.7041 32.7397 72.9213 63.4472 80.1582C91.3578 86.7449 118.579 90.1099 156.246 94.7741C196.424 99.7469 246.435 105.937 319.219 118.791C468.486 145.148 494.055 138.072 681.338 65.6053C829.05 8.45428 974.523 52.1539 1102.04 192.002C1104.92 195.163 1107.79 198.295 1110.66 201.416C1132.4 225.102 1152.93 247.476 1165 269.446C1192.64 319.746 1219.06 351.337 1236.34 368.976C1255.11 388.115 1267.51 395.453 1267.64 395.525L1267.9 395.096C1267.78 395.029 1255.46 387.737 1236.78 368.669C1219.54 351.074 1193.19 319.555 1165.62 269.364C1153.52 247.318 1132.95 224.906 1111.17 201.181C1108.31 198.066 1105.43 194.929 1102.56 191.772C1060.35 145.495 1016.2 109.542 970.69 84.33Z"
                  fill="url(#paint9_linear)"/>
            <path d="M964.939 79.3533C944.606 68.0882 924.025 59.0754 903.404 52.4223C868.718 41.2326 832.969 36.4068 797.132 38.0773C761.005 39.7627 723.817 48.0959 686.586 62.8425C504.535 134.977 476.546 146.067 329.618 122.463C275.35 113.747 232.793 107.897 198.595 103.198C142.671 95.5137 105.719 90.4382 69.2816 79.9683C7.42368 62.2013 -55.5984 24.7535 -112.955 -28.3331L-113.419 -28.0239C-55.94 25.1721 7.22774 62.709 69.2654 80.5256C105.766 91.0137 142.749 96.0984 198.712 103.779C232.901 108.473 275.458 114.323 329.713 123.04C476.853 146.678 504.859 135.581 687.059 63.3962C834.172 5.10521 973.818 49.2901 1102.1 194.709C1106.06 199.189 1110.07 203.688 1113.97 208.035C1133.96 230.387 1152.84 251.508 1164.39 272.264C1192.02 321.876 1218.54 353.427 1235.93 371.16C1254.79 390.397 1267.3 397.992 1267.42 398.065L1267.71 397.627C1267.58 397.548 1255.16 390.001 1236.38 370.839C1219.05 353.15 1192.6 321.683 1165.04 272.179C1153.44 251.337 1134.52 230.19 1114.49 207.793C1110.61 203.451 1106.59 198.952 1102.64 194.471C1070.96 158.57 1038.21 128.431 1005.28 104.899C991.983 95.4026 978.519 86.8772 964.939 79.3533Z"
                  fill="url(#paint10_linear)"/>
            <path d="M959.387 74.237C874.101 26.9856 785.741 22.6645 692.275 60.6063L676.982 66.8226C513.818 133.117 479.858 146.911 340.079 126.684C309.665 122.283 282.876 118.558 259.243 115.273C171.014 103.014 122.411 96.2632 75.1329 80.3205C15.6429 60.2597 -48.0291 20.7947 -109.02 -33.8061L-109.498 -33.4714C-48.3977 21.24 15.4271 60.7813 75.0618 80.8889C122.43 96.8654 171.069 103.619 259.364 115.89C282.997 119.174 309.787 122.9 340.191 127.296C414.05 137.989 455.758 138.705 499.569 130.035C545.8 120.891 595.354 100.756 677.461 67.3879L692.754 61.1715C839.167 1.74386 973.075 46.2969 1102.13 197.4C1106.94 203.027 1111.85 208.644 1116.6 214.083C1135.13 235.298 1152.63 255.339 1163.77 275.065C1216.62 368.715 1266.69 400.278 1267.18 400.582L1267.49 400.124C1266.99 399.814 1217.15 368.369 1164.44 274.96C1153.26 255.153 1135.72 235.079 1117.16 213.826C1112.42 208.392 1107.5 202.769 1102.7 197.147C1055.71 142.142 1008.05 101.196 959.387 74.237Z"
                  fill="url(#paint11_linear)"/>
            <path d="M954.595 69.509C936.584 59.5306 918.469 51.5676 900.383 45.6859C868.042 35.1707 834.61 30.9375 801.008 33.1054C767.749 35.2472 733.076 43.7496 697.953 58.3652C686.802 63.0038 676.234 67.4246 666.189 71.6272C522.21 131.854 483.509 148.043 350.552 130.905L345.98 130.312C201.2 111.653 141.277 103.927 80.9966 80.6717C23.9899 58.6809 -38.6118 18.3183 -105.079 -39.2915L-105.571 -38.9313C-39.0062 18.766 23.7262 59.201 80.8647 81.2398C141.273 104.549 201.235 112.272 346.104 130.947L350.676 131.54C419.385 140.395 460.95 140.291 504.056 131.156C548.216 121.789 592.815 103.139 666.711 72.2247C676.756 68.022 687.324 63.6012 698.475 58.9626C769.561 29.381 835.579 25.2288 900.311 46.2787C968.968 68.604 1035 118.921 1102.19 200.113C1107.69 206.757 1113.36 213.385 1118.83 219.789C1136.09 239.998 1152.41 259.087 1163.16 277.901C1215.97 370.231 1266.46 402.818 1266.97 403.139L1267.31 402.672C1266.82 402.356 1216.54 369.888 1163.86 277.799C1153.06 258.917 1136.72 239.794 1119.43 219.546C1113.95 213.141 1108.3 206.518 1102.81 199.88C1069.45 159.576 1035.62 126.239 1002.22 100.799C986.492 88.8129 970.581 78.3661 954.595 69.509Z"
                  fill="url(#paint12_linear)"/>
            <path d="M950.262 64.7437C933.595 55.5094 916.869 48.1412 900.039 42.5889C837.491 21.9749 773.251 26.3956 703.632 56.1238C687.279 63.11 672.469 69.5108 658.14 75.7033C527.129 132.348 487.588 149.437 361.016 135.12C211.937 118.26 148.106 107.552 86.8476 81.0238C32.3429 57.4215 -25.6288 18.6248 -101.145 -44.7645L-101.642 -44.3736C-26.0279 19.1032 32.0464 57.9567 86.67 81.6083C148.066 108.196 211.963 118.916 361.167 135.795C425.174 143.036 466.594 142.094 508.885 132.449C551.209 122.789 593.97 104.311 658.684 76.329C673.012 70.1364 687.826 63.7294 704.175 56.7495C773.614 27.1046 837.649 22.6789 899.958 43.2187C967.896 65.6115 1034.06 117.813 1102.23 202.816C1108.31 210.389 1114.61 217.925 1120.71 225.212C1136.87 244.516 1152.12 262.751 1162.55 280.725C1215.31 371.737 1266.23 405.346 1266.74 405.679L1267.11 405.192C1266.61 404.864 1215.9 371.374 1163.27 280.603C1152.81 262.559 1137.53 244.297 1121.34 224.954C1115.25 217.672 1108.95 210.143 1102.88 202.574C1051.44 138.434 1001.09 92.9064 950.262 64.7437Z"
                  fill="url(#paint13_linear)"/>
            <path d="M946.107 60.01C930.699 51.4733 915.285 44.6407 899.814 39.4748C839.603 19.3728 777.286 24.0846 709.315 53.876C688.51 63.0007 669.407 71.5614 652.567 79.1188C535.81 131.486 492.125 151.084 371.477 139.342C219.73 124.567 154.591 111.028 92.708 81.3811C29.533 51.1181 -33.172 1.85485 -97.2073 -50.2439L-97.709 -49.8224C-33.612 2.31891 29.1699 51.6414 92.4697 81.9652C154.515 111.694 219.739 125.255 371.648 140.045C492.515 151.809 536.259 132.193 653.144 79.7715C669.984 72.2141 689.077 63.6483 709.888 54.5352C777.67 24.8219 839.766 20.1126 899.722 40.1236C966.919 62.5556 1033.18 116.651 1102.28 205.506C1108.85 213.951 1115.72 222.333 1122.37 230.439C1137.52 248.896 1151.82 266.331 1161.93 283.531C1214.63 373.226 1266.01 407.862 1266.52 408.201L1266.91 407.705C1266.41 407.366 1215.25 372.861 1162.69 283.412C1152.55 266.154 1138.22 248.685 1123.05 230.195C1116.4 222.089 1109.53 213.719 1102.96 205.278C1049.6 136.649 997.881 88.6947 946.107 60.01Z"
                  fill="url(#paint14_linear)"/>
            <path d="M942.39 55.3685C928.138 47.4726 913.923 41.1378 899.69 36.3331C841.732 16.7632 781.313 21.7685 714.994 51.6347C690.482 62.6773 668.547 72.9166 649.196 81.9475C544.792 130.7 497.136 152.953 381.941 143.557C233.673 131.459 164.821 116.437 98.5634 81.727C43.2944 52.7715 -10.4371 10.062 -67.3416 -35.1715C-75.813 -41.9052 -84.5734 -48.8655 -93.2781 -55.7283L-93.7846 -55.2762C-85.0892 -48.4185 -76.3289 -41.4582 -67.8574 -34.7245C-10.9005 10.5464 42.9079 53.3151 98.2737 82.3159C164.712 117.118 233.686 132.183 382.134 144.288C497.574 153.703 545.278 131.427 649.811 82.6209C669.152 73.5849 691.087 63.3456 715.596 52.3093C781.718 22.534 841.907 17.5261 899.597 37.0062C966.049 59.4416 1032.36 115.441 1102.32 208.196C1109.32 217.477 1116.72 226.673 1123.88 235.571C1138.09 253.221 1151.52 269.9 1161.3 286.339C1213.93 374.718 1265.76 410.381 1266.28 410.725L1266.7 410.22C1266.19 409.869 1214.57 374.343 1162.09 286.21C1152.26 269.703 1138.81 253.003 1124.58 235.319C1117.43 226.426 1110.03 217.236 1103.04 207.971C1047.89 134.846 994.947 84.4872 942.39 55.3685Z"
                  fill="url(#paint15_linear)"/>
            <path d="M939.606 51.0199C926.352 43.6769 913.088 37.7605 899.691 33.1856C870.72 23.2972 841.869 19.9701 811.498 22.9953C782.506 25.8853 752.793 34.5213 720.67 49.3996C693.175 62.129 669.053 73.8961 647.77 84.2798C551.15 131.391 502.661 155.039 392.398 147.785C246.737 138.198 174.039 121.603 104.42 82.0906C57.994 55.7444 13.2202 20.0129 -34.1953 -17.815C-52.1095 -32.1036 -70.6189 -46.88 -89.3438 -61.2014L-89.8551 -60.7186C-71.1488 -46.4076 -52.6266 -31.6323 -34.7218 -17.3489C12.7334 20.5176 57.5538 56.2749 104.079 82.6844C173.952 122.354 246.746 138.952 392.63 148.555C503.128 155.823 551.683 132.144 648.421 84.9739C669.701 74.5966 693.832 62.8346 721.314 50.1064C785.774 20.2512 844.091 14.9474 899.603 33.8947C965.306 56.3154 1031.64 114.216 1102.38 210.909C1109.77 221.006 1117.68 231.018 1125.32 240.692C1138.65 257.549 1151.22 273.461 1160.71 289.173C1213.26 376.237 1265.55 412.919 1266.07 413.275L1266.53 412.755C1266.01 412.399 1213.93 375.853 1161.53 289.03C1152.01 273.266 1139.41 257.321 1126.07 240.441C1118.44 230.771 1110.53 220.771 1103.15 210.685C1066.95 161.2 1032.84 122.802 998.899 93.3053C978.885 75.9211 959.258 61.9078 939.606 51.0199Z"
                  fill="url(#paint16_linear)"/>
            <path d="M936.893 46.6526C924.562 39.8212 912.237 34.3001 899.819 30.0263C845.36 11.2705 790.243 16.7156 726.354 47.1698C696.572 61.3637 670.785 74.5313 648.023 86.1529C558.168 132.032 508.667 157.31 402.864 152.018C240.175 143.88 172.38 120.351 110.273 82.4607C69.8397 57.7944 31.146 26.3142 -9.81532 -7.01355C-34.1995 -26.8519 -59.4153 -47.3674 -85.4139 -66.6679L-85.93 -66.1545C-59.9558 -46.8758 -34.7587 -26.3706 -10.3838 -6.53746C30.6206 26.8225 69.3481 58.3298 109.862 83.049C172.161 121.054 240.118 144.665 403.095 152.812C509.146 158.116 558.713 132.809 648.687 86.87C671.435 75.2496 697.232 62.0873 727 47.8946C790.67 17.5515 845.543 12.105 899.695 30.7567C965.535 53.4365 1029.96 111.546 1102.4 213.612C1110.16 224.539 1118.56 235.351 1126.68 245.815C1139.14 261.87 1150.93 277.035 1160.08 291.999C1212.53 377.742 1265.3 415.449 1265.83 415.816L1266.31 415.282C1265.78 414.915 1213.23 377.345 1160.92 291.841C1151.74 276.826 1139.94 261.632 1127.46 245.554C1119.35 235.108 1110.95 224.302 1103.22 213.397C1066.52 161.687 1032.19 121.758 998.253 91.3239C977.5 72.698 957.198 57.9022 936.893 46.6526Z"
                  fill="url(#paint17_linear)"/>
            <path d="M934.528 42.3617C923.056 36.0057 911.588 30.8514 900.058 26.8447C847.627 8.62993 794.235 14.3727 732.027 44.9172C700.594 60.3531 673.568 74.8327 649.72 87.6011C565.785 132.564 515.132 159.701 413.322 156.222C250.451 150.657 181.028 125.093 116.128 82.8068C79.9862 59.2609 45.6434 30.5326 9.29636 0.119419C-19.7801 -24.2089 -49.8594 -49.3675 -81.4726 -72.1534L-81.9806 -71.6105C-50.4012 -48.8516 -20.3592 -23.7137 8.70212 0.597914C45.0923 31.0434 79.4689 59.7986 115.681 83.3922C180.795 125.821 250.425 151.475 413.605 157.053C515.667 160.539 566.403 133.364 650.443 88.3429C674.281 75.5693 701.304 61.0961 732.729 45.6729C794.714 15.246 847.851 9.50305 899.955 27.6035C932.278 38.8332 964.051 59.1514 997.079 89.7244C1030.9 121.02 1065.37 162.423 1102.46 216.301C1110.57 228.071 1119.46 239.719 1128.06 250.984C1139.68 266.217 1150.67 280.605 1159.48 294.804C1211.84 379.239 1265.09 417.964 1265.62 418.338L1266.13 417.795C1265.59 417.416 1212.55 378.834 1160.34 294.633C1151.51 280.388 1140.5 265.972 1128.85 250.716C1120.26 239.463 1111.38 227.832 1103.29 216.079C1066.14 162.121 1031.61 120.646 997.713 89.2845C976.306 69.4634 955.402 53.9265 934.528 42.3617Z"
                  fill="url(#paint18_linear)"/>
            <path d="M932.624 38.2087C921.87 32.2506 911.154 27.4125 900.432 23.6624C849.943 5.99061 798.237 12.0346 737.706 42.6757C705.177 59.1446 677.278 74.8477 652.67 88.7021C574 132.985 522.04 162.237 423.783 160.444C261.171 157.47 187.742 128.662 121.988 83.164C89.0235 60.3537 57.9146 33.4671 24.9717 5.00651C-7.6499 -23.1761 -41.3824 -52.324 -77.5436 -77.638L-78.0564 -77.0644C-41.9569 -51.7929 -8.25473 -22.6785 24.3295 5.48346C57.3027 33.9775 88.4489 60.8847 121.485 83.7428C159.763 110.23 195.742 127.315 238.145 139.141C287.254 152.835 346.34 159.873 424.091 161.297C522.609 163.102 574.646 133.8 653.424 89.4531C678.032 75.5986 705.928 59.9019 738.44 43.4406C798.735 12.9183 850.169 6.88166 900.312 24.4287C964.635 46.9425 1028.89 108.765 1102.51 218.985C1110.98 231.651 1120.37 244.17 1129.47 256.276C1140.26 270.64 1150.44 284.209 1158.86 297.61C1211.11 380.733 1264.85 420.469 1265.39 420.86L1265.93 420.302C1265.39 419.911 1211.86 380.318 1159.75 297.43C1151.3 283.989 1141.1 270.398 1130.29 256.012C1121.21 243.917 1111.82 231.41 1103.38 218.776C1041.83 126.624 986.739 68.1904 932.624 38.2087Z"
                  fill="url(#paint19_linear)"/>
            <path d="M930.829 34.0331C920.821 28.4884 910.862 23.9782 900.917 20.4754C852.288 3.34236 802.232 9.68481 743.381 40.4405C710.268 57.7434 681.8 74.6052 656.675 89.4806C582.747 133.259 529.336 164.888 434.24 164.672C270.949 164.286 195.94 133.337 127.839 83.516C97.2968 61.1735 68.6273 35.5385 38.2836 8.39303C2.91807 -23.2417 -33.6584 -55.9471 -73.6155 -83.1227L-74.1238 -82.5133C-34.2529 -55.4022 2.27695 -22.7226 37.6122 8.87877C67.9897 36.0513 96.6837 61.7081 127.284 84.0995C195.647 134.108 270.897 165.173 434.578 165.558C529.938 165.78 583.439 134.1 657.476 90.2574C682.588 75.3831 711.053 58.5277 744.149 41.2324C802.744 10.6095 852.527 4.27441 900.798 21.2839C964.379 43.686 1028.49 107.37 1102.56 221.693C1111.38 235.316 1121.33 248.774 1130.95 261.779C1140.88 275.208 1150.26 287.898 1158.26 300.439C1210.38 382.256 1264.64 423.008 1265.18 423.405L1265.75 422.838C1265.2 422.436 1211.15 381.834 1159.18 300.25C1151.16 287.675 1141.77 274.968 1131.83 261.516C1122.22 248.515 1112.28 235.075 1103.48 221.486C1040.78 124.717 985.121 64.113 930.829 34.0331Z"
                  fill="url(#paint20_linear)"/>
            <path d="M929.379 29.9407C920.052 24.7732 910.786 20.5725 901.524 17.2898C854.675 0.684768 806.219 7.33053 749.057 38.2059C715.797 56.1688 687.007 74.118 661.596 89.9505C591.986 133.348 537.001 167.62 444.691 168.888C280.573 171.142 204.006 138.031 133.683 83.8813C105.008 61.7989 76.992 35.843 49.9036 10.7426C12.3515 -24.0522 -26.4824 -60.0318 -69.7033 -88.5992L-70.2164 -87.9592C-27.1097 -59.4717 11.6753 -23.5358 49.1785 11.2152C76.2913 36.3375 104.332 62.3153 133.065 84.4466C203.671 138.812 280.493 172.055 445.041 169.798C537.619 168.529 592.697 134.2 662.416 90.7376C687.814 74.9063 716.591 56.9584 749.831 39.0094C806.729 8.27946 854.887 1.64357 901.364 18.1083C964.203 40.3744 1028.15 105.922 1102.57 224.38C1111.79 239.048 1122.33 253.525 1132.53 267.527C1141.57 279.935 1150.1 291.652 1157.6 303.25C1209.59 383.757 1264.37 425.523 1264.91 425.931L1265.5 425.35C1264.96 424.942 1210.39 383.326 1158.54 303.047C1151.04 291.42 1142.48 279.686 1133.43 267.268C1123.25 253.282 1112.71 238.823 1103.52 224.189C1039.87 122.815 983.764 60.0723 929.379 29.9407Z"
                  fill="url(#paint21_linear)"/>
            <path d="M928.229 25.9223C919.526 21.101 910.871 17.1634 902.248 14.0927C856.463 -2.21337 810.964 4.53002 754.73 35.9529C721.707 54.4131 694.048 72.5644 667.307 90.1163C598.971 134.978 545 170.411 455.146 173.098C290.07 178.027 211.997 142.75 139.538 84.2269C112.32 62.2437 85.8669 36.8542 60.2918 12.3008C20.9647 -25.4509 -19.6905 -64.4798 -65.7711 -94.0903L-66.2796 -93.4144C-20.3448 -63.8929 20.2558 -24.9194 59.5188 12.7719C85.1184 37.3472 111.601 62.7701 138.872 84.7907C179.846 117.876 217.688 138.858 261.576 152.823C313.796 169.438 377.24 176.376 455.539 174.04C545.674 171.351 599.728 135.855 668.177 90.9229C694.905 73.3722 722.551 55.2221 755.551 36.7822C811.505 5.51241 856.706 -1.22121 902.095 14.9407C964.222 37.062 1027.94 104.467 1102.63 227.069C1112.28 242.916 1123.51 258.538 1134.37 273.643C1142.46 284.895 1150.11 295.524 1157 306.066C1208.86 385.269 1264.16 428.037 1264.71 428.457L1265.33 427.861C1264.78 427.441 1209.69 384.817 1157.98 305.842C1151.07 295.283 1143.41 284.637 1135.32 273.374C1124.47 258.29 1113.25 242.687 1103.62 226.879C1039.1 120.93 982.633 56.0642 928.229 25.9223Z"
                  fill="url(#paint22_linear)"/>
            <path d="M927.378 21.9788C919.235 17.4676 911.146 13.7851 903.088 10.903C858.931 -4.88483 814.926 2.15355 760.415 33.7231C727.95 52.5178 700.381 71.5849 673.718 90.0296C609.114 134.71 553.317 173.287 465.622 177.337C300.053 184.957 217.866 145.776 145.404 84.5959C119.345 62.5887 94.1351 37.5299 69.7493 13.2939C28.9679 -27.2454 -13.2031 -69.1708 -61.8277 -99.558L-62.3282 -98.8526C-13.8773 -68.57 28.224 -26.7166 68.9413 13.7623C93.3387 38.0213 118.573 63.102 144.69 85.1581C186.499 120.454 224.967 142.749 269.43 157.458C322.849 175.121 387.164 181.941 466.048 178.306C554.038 174.253 609.925 135.601 674.628 90.8504C701.285 72.4185 728.837 53.3589 761.282 34.5783C815.516 3.17964 859.2 -3.85286 902.94 11.7868C964.375 33.7495 1027.85 103.015 1102.69 229.782C1112.84 246.972 1124.86 263.891 1136.48 280.248C1143.54 290.189 1150.2 299.568 1156.4 308.895C1208.1 386.796 1263.94 430.571 1264.49 431.002L1265.14 430.398C1264.59 429.966 1208.96 386.341 1157.4 308.657C1151.19 299.307 1144.52 289.916 1137.45 279.97C1125.84 263.629 1113.84 246.739 1103.72 229.595C1038.47 119.067 981.736 52.0949 927.378 21.9788Z"
                  fill="url(#paint23_linear)"/>
            <path d="M926.805 18.1061C919.166 13.874 911.586 10.4156 904.028 7.71024C861.414 -7.56371 818.873 -0.23943 766.084 31.4769C734.456 50.4771 707.132 70.3791 680.701 89.6356C616.95 136.079 561.892 176.181 476.063 181.548C309.409 191.965 225.688 150.469 151.251 84.9547C126.095 62.8147 101.884 37.9099 78.4666 13.819C36.4583 -29.3903 -6.96739 -74.0677 -57.9032 -105.036L-58.3991 -104.295C-7.665 -73.4466 35.6851 -28.8528 77.6142 14.2793C101.056 38.3922 125.288 63.3252 150.493 85.509C225.266 151.318 309.323 193 476.532 182.55C562.65 177.168 617.807 136.996 681.662 90.4759C708.082 71.2385 735.393 51.3377 766.988 32.3527C819.483 0.814898 861.695 -6.50871 903.878 8.61832C964.644 30.402 1027.83 101.531 1102.73 232.472C1113.48 251.261 1126.45 269.698 1139 287.515C1144.9 295.897 1150.47 303.814 1155.79 311.714C1207.33 388.318 1263.7 433.088 1264.27 433.536L1264.95 432.923C1264.39 432.48 1208.22 387.854 1156.81 311.466C1151.49 303.556 1145.91 295.633 1140.02 287.245C1127.48 269.444 1114.53 251.042 1103.81 232.304C1037.98 117.223 981.069 48.1705 926.805 18.1061Z"
                  fill="url(#paint24_linear)"/>
            <path d="M926.497 14.3046C919.316 10.3257 912.182 7.07311 905.086 4.52385C863.931 -10.2584 822.819 -2.6331 771.769 29.2467C741.222 48.3209 714.289 68.9896 688.237 88.9719C627.8 135.329 570.724 179.117 486.524 185.77C318.72 199.03 233.464 155.201 157.099 85.3129C132.664 62.9482 109.253 38.0532 86.6121 13.968C43.5763 -31.8091 -0.92685 -79.1402 -53.984 -110.526L-54.4754 -109.749C-1.65144 -78.4924 42.7609 -31.2615 85.706 14.4153C108.371 38.5224 131.803 63.4457 156.287 85.8541C199.698 125.585 239.439 150.534 285.147 166.757C340.95 186.565 406.973 193.116 487.005 186.794C571.51 180.119 628.676 136.255 689.207 89.8174C715.243 69.8427 742.168 49.1867 772.682 30.1277C823.432 -1.56084 864.207 -9.17275 904.904 5.44712C965.03 27.043 1027.9 100.038 1102.75 235.158C1114.23 255.872 1128.39 276.113 1142.08 295.684C1146.64 302.198 1150.94 308.355 1155.16 314.527C1206.54 389.836 1263.45 435.606 1264.02 436.066L1264.74 435.443C1264.17 434.989 1207.45 389.364 1156.21 314.271C1151.99 308.088 1147.69 301.937 1143.13 295.416C1129.46 275.874 1115.32 255.661 1103.89 235.01C1037.63 115.395 980.622 44.2915 926.497 14.3046Z"
                  fill="url(#paint25_linear)"/>
            <path d="M926.427 10.5602C919.646 6.8034 912.922 3.73606 906.234 1.32978C866.468 -12.9663 826.742 -5.04795 777.448 27.0057C748.179 46.0387 721.769 67.3713 696.232 88.006C636.35 136.377 579.796 182.062 496.984 189.992C327.997 206.16 241.238 159.983 162.96 85.6706C139.099 63.0165 116.334 38.0127 94.3126 13.8211C50.4007 -34.4232 4.97518 -84.3138 -50.046 -116.005L-50.5293 -115.198C4.22488 -83.6636 49.5503 -33.8784 93.3715 14.2657C115.408 38.4739 138.194 63.506 162.104 86.2038C206.285 128.152 246.672 154.442 293.057 171.447C350.037 192.341 416.919 198.752 497.516 191.035C580.632 183.083 637.283 137.31 697.26 88.8582C722.785 68.2427 749.179 46.9176 778.415 27.8997C827.401 -3.94987 866.768 -11.8588 906.067 2.26968C965.574 23.6639 1028.11 98.5204 1102.83 237.839C1115.24 260.968 1130.93 283.433 1146.09 305.161C1148.96 309.266 1151.8 313.325 1154.57 317.336C1205.79 391.35 1263.25 438.12 1263.82 438.586L1264.56 437.955C1263.99 437.495 1206.71 390.871 1155.64 317.061C1152.87 313.05 1150.02 308.985 1147.17 304.879C1132.02 283.191 1116.35 260.761 1103.99 237.7C1037.42 113.596 980.383 40.454 926.427 10.5602Z"
                  fill="url(#paint26_linear)"/>
            <path d="M926.58 6.87297C920.163 3.31775 913.802 0.409717 907.469 -1.86667C869.002 -15.6925 830.649 -7.47982 783.114 24.7655C755.283 43.6457 729.534 65.5448 704.635 86.7238C645.215 137.274 589.091 185.021 507.439 194.202C327.203 214.48 238.177 154.198 168.811 86.0228C145.395 63.0069 123.155 37.8029 101.642 13.4187C54.897 -39.5681 10.7491 -89.6086 -46.1174 -121.489L-46.5962 -120.647C9.9718 -88.9318 54.0232 -39.0031 100.648 13.8501C122.184 38.2562 144.445 63.4885 167.907 86.5544C212.846 130.722 253.886 158.364 300.974 176.166C359.135 198.164 426.86 204.417 508.006 195.29C589.973 186.068 646.191 138.24 705.718 87.6071C730.601 66.4356 756.33 44.5505 784.134 25.6969C831.341 -6.33042 869.328 -14.5209 907.299 -0.878145C966.232 20.2979 1028.39 97.0264 1102.86 240.548C1116.51 266.842 1134.27 292.138 1151.45 316.602L1153.95 320.162C1204.97 392.888 1263.01 440.649 1263.59 441.121L1264.36 440.475C1263.78 440.003 1205.93 392.388 1155.05 319.865L1152.55 316.3C1135.4 291.875 1117.67 266.618 1104.07 240.406C1037.34 111.828 980.351 36.6635 926.58 6.87297Z"
                  fill="url(#paint27_linear)"/>
            <path d="M926.945 3.24458C920.855 -0.129787 914.803 -2.89156 908.783 -5.05233C871.537 -18.4186 834.531 -9.90924 788.786 22.5369C762.526 41.1552 737.572 63.5114 713.428 85.1333C656.962 135.697 598.587 187.992 517.889 198.443C336.362 221.953 245.64 158.483 174.661 86.3992C151.592 62.9763 129.77 37.4794 108.666 12.8215C61.6267 -42.1434 17.1684 -94.0879 -40.7243 -126.162C-41.2093 -126.431 -41.6943 -126.7 -42.1922 -126.967L-42.6665 -126.089C-42.1815 -125.821 -41.6929 -125.558 -41.2172 -125.295C16.349 -93.4011 60.6899 -41.5966 107.63 13.2386C128.759 37.9184 150.596 63.432 173.71 86.9051C219.401 133.303 261.096 162.292 308.903 180.909C368.251 204.022 436.809 210.113 518.492 199.534C599.504 189.042 657.987 136.664 714.553 86.0066C738.678 64.3986 763.621 42.0616 789.845 23.4648C835.264 -8.74549 871.891 -17.2315 908.607 -4.05118C967.019 16.9199 1028.76 95.4932 1102.9 243.233C1116.85 271.031 1135.46 297.869 1153.32 322.981C1204.16 394.42 1262.77 443.173 1263.36 443.656L1264.16 443.001C1263.57 442.518 1205.14 393.917 1154.46 322.676C1136.62 297.615 1118.05 270.829 1104.15 243.123C1037.38 110.09 980.52 32.9266 926.945 3.24458Z"
                  fill="url(#paint28_linear)"/>
            <path d="M927.506 -0.342088C921.695 -3.56143 915.924 -6.1925 910.187 -8.24685C874.095 -21.1654 838.401 -12.362 794.465 20.2953C769.891 38.5565 746.914 60.2261 722.589 83.1637C666.394 136.143 608.295 190.931 528.354 202.658C345.506 229.475 253.121 162.803 180.522 86.7563C157.711 62.8683 136.23 37.0193 115.456 12.0283C67.3977 -45.783 22.0069 -100.401 -38.2543 -132.447L-38.7205 -131.539C21.1827 -99.6834 66.4409 -45.2223 114.376 12.4375C135.171 37.4567 156.68 63.3213 179.527 87.2543C225.945 135.88 268.312 166.231 316.879 185.677C377.418 209.917 446.801 215.84 528.999 203.781C609.26 192.007 667.469 137.129 723.755 84.0513C748.069 61.1328 771.03 39.4707 795.564 21.2374C839.168 -11.1713 874.466 -19.9436 910.009 -7.22133C967.932 13.5117 1029.24 93.9502 1102.96 245.922C1117.27 275.415 1137.08 304.102 1152.73 325.797C1203.36 395.962 1262.55 445.689 1263.14 446.183L1263.97 445.519C1263.38 445.025 1204.37 395.445 1153.87 325.473C1138.25 303.829 1118.5 275.215 1104.24 245.82C1037.57 108.387 980.875 29.2262 927.506 -0.342088Z"
                  fill="url(#paint29_linear)"/>
            <path d="M928.246 -3.87883C922.678 -6.96382 917.156 -9.47331 911.651 -11.4406C876.624 -23.9273 842.23 -14.8288 800.131 18.0553C777.332 35.8601 755.339 57.6914 732.06 80.8089C676.073 136.384 618.183 193.853 538.813 206.879C353.973 237.206 256.924 163.353 186.372 87.1086C163.637 62.6215 142.321 36.2556 121.717 10.7594C73.2104 -49.2572 27.3557 -105.964 -34.3265 -137.931L-34.7753 -136.989C26.5233 -105.209 72.2302 -48.6761 120.602 11.1659C141.23 36.684 162.558 63.0729 185.338 87.6102C231.751 137.765 276.075 170.457 324.839 190.496C386.579 215.867 456.797 221.603 539.502 208.035C619.203 194.96 677.197 137.39 733.289 81.7147C756.557 58.6163 778.531 36.799 801.289 19.022C843.045 -13.5943 877.031 -22.6606 911.491 -10.3805C968.972 10.116 1029.83 92.4146 1103.01 248.617C1114.45 273.021 1130.52 299.195 1152.13 328.62C1202.42 397.549 1262.33 448.216 1262.93 448.715L1263.79 448.043C1263.19 447.537 1203.46 397.016 1153.3 328.281C1131.75 298.935 1115.73 272.852 1104.34 248.535C1037.88 106.715 981.41 25.5758 928.246 -3.87883Z"
                  fill="url(#paint30_linear)"/>
            <path d="M929.107 -7.39075C922.858 -10.853 916.665 -13.5594 910.496 -15.5369C849.937 -34.9659 799.845 17.4054 741.839 78.0326C688.614 133.681 628.268 196.751 549.261 211.102C446.414 229.782 360.728 216.433 287.336 170.309C222.415 129.511 174.638 68.7497 128.42 9.99277C81.4553 -49.7272 36.9776 -106.279 -22.2396 -139.087C-24.9351 -140.581 -27.6495 -142.018 -30.4108 -143.415L-30.8551 -142.437C32.0581 -110.645 78.2973 -51.86 127.251 10.3861C173.565 69.2791 221.463 130.174 286.696 171.179C360.571 217.596 446.678 231.044 549.974 212.28C629.32 197.867 689.765 134.685 743.093 78.936C800.846 18.5681 850.724 -33.5717 910.375 -14.4382C968.222 4.12117 1029.43 88.5553 1103.03 251.309C1149.57 354.219 1261.55 450.294 1262.68 451.251L1263.57 450.57C1262.44 449.613 1150.79 353.809 1104.4 251.242C1038.37 105.207 982.094 21.9657 929.107 -7.39075Z"
                  fill="url(#paint31_linear)"/>
        </g>
        <g opacity="0.6" filter="url(#filter0_d)">
            <path d="M562 71.8438C546.647 71.8438 534.156 59.3532 534.156 44C534.156 28.6468 546.647 16.1562 562 16.1562C577.353 16.1562 589.844 28.6468 589.844 44C589.844 59.3532 577.353 71.8438 562 71.8438ZM562 17.1875C547.215 17.1875 535.188 29.215 535.188 44C535.188 58.785 547.215 70.8125 562 70.8125C576.785 70.8125 588.812 58.785 588.812 44C588.812 29.215 576.785 17.1875 562 17.1875Z"
                  fill="white"/>
            <path d="M562 67.7188C548.921 67.7188 538.281 57.0793 538.281 44C538.281 30.9207 548.921 20.2812 562 20.2812C575.079 20.2812 585.719 30.9207 585.719 44C585.719 57.0793 575.079 67.7188 562 67.7188ZM562 21.3125C549.49 21.3125 539.312 31.4899 539.312 44C539.312 56.5101 549.49 66.6875 562 66.6875C574.51 66.6875 584.688 56.5101 584.688 44C584.688 31.4899 574.51 21.3125 562 21.3125Z"
                  fill="white"/>
            <path d="M561.91 61.7632L557.861 60.7536L559.107 55.7664C558.637 55.6479 558.161 55.5251 557.676 55.3962L556.429 60.3968L552.385 59.3872L553.646 54.3196C552.107 53.9308 548.005 52.8965 548.005 52.8965L547.416 52.748L549.348 48.294L549.777 48.4074C550.442 48.5848 551.168 48.7725 551.583 48.8746L551.588 48.8633L551.981 48.9592C552.067 48.9798 552.146 48.9901 552.218 48.9901C552.311 48.9901 552.596 48.9901 552.776 48.5394L556.174 34.8919C556.199 34.3247 555.872 33.9297 555.13 33.7462L554.788 33.641C554.388 33.5379 553.623 33.3564 552.926 33.1965L552.413 33.08L553.476 28.8116L553.976 28.9364C553.976 28.9364 558.098 29.9677 559.621 30.3399L560.872 25.3291L564.917 26.3397L563.696 31.2361C564.177 31.3454 564.659 31.4578 565.134 31.5723L566.35 26.6955L570.401 27.7051L569.142 32.7593C572.165 33.8586 575.798 35.8303 575.149 40.175C574.816 42.4231 573.753 43.9442 571.985 44.7125C574.508 46.4336 575.177 48.8725 574.033 52.1375C572.865 55.4787 570.56 57.0349 566.78 57.0349C565.739 57.0349 564.557 56.9173 563.179 56.676L561.91 61.7632ZM559.111 60.0018L561.159 60.5123L562.413 55.4859L562.892 55.5767C564.415 55.8644 565.687 56.0047 566.781 56.0047C570.107 56.0047 572.043 54.7074 573.06 51.7982C574.175 48.6178 573.387 46.5326 570.509 45.0332L569.269 44.3887L570.63 44.0731C572.651 43.607 573.795 42.2818 574.13 40.0224C574.568 37.0884 572.79 35.1012 568.362 33.576L567.914 33.4224L569.153 28.4579L567.105 27.9485L565.889 32.8242L565.389 32.6994C564.591 32.5014 563.772 32.3127 562.958 32.1271L562.443 32.0116L563.671 27.0936L561.626 26.5821L560.379 31.5785L559.886 31.4661C559.346 31.3423 555.6 30.408 554.231 30.0656L553.672 32.3117C554.609 32.5272 555.112 32.6479 555.39 32.75C556.604 33.0552 557.261 33.8926 557.193 35.0497L553.758 48.8602C553.396 49.778 552.671 50.1699 551.794 49.976C551.673 49.9605 551.325 49.8852 549.942 49.5212L548.846 52.0478C550.272 52.4066 553.832 53.3038 554.399 53.4482L554.896 53.575L553.635 58.6374L555.678 59.1479L556.931 54.1257L557.44 54.2649C558.268 54.4908 559.072 54.696 559.859 54.893L560.359 55.0188L559.111 60.0018ZM563.924 52.6191C562.066 52.6191 559.987 52.0694 558.745 51.7394L557.668 51.4641L559.591 43.7534L560.091 43.8782C560.295 43.9298 560.545 43.9854 560.828 44.0494C562.956 44.5258 566.516 45.324 567.812 47.4247C568.285 48.1919 568.408 49.054 568.176 49.9873C567.876 51.1898 566.896 52.6191 563.924 52.6191ZM558.915 50.7195L559.008 50.7432C560.201 51.0598 562.199 51.5878 563.924 51.5878C565.801 51.5878 566.865 50.9835 567.175 49.7398C567.34 49.0767 567.261 48.4972 566.934 47.9681C565.866 46.2367 562.442 45.4684 560.603 45.0569C560.513 45.0363 560.426 45.0167 560.344 44.9981L558.915 50.7195ZM565.29 42.65C563.768 42.65 562.165 42.223 561.105 41.9405L560.106 41.6868L561.873 34.598L562.373 34.7228C562.545 34.7661 562.755 34.8125 562.994 34.8651C564.737 35.2518 567.655 35.8984 568.782 37.7196C569.23 38.4414 569.342 39.2664 569.118 40.1698C568.834 41.3011 567.941 42.65 565.29 42.65ZM561.354 40.9402L561.37 40.9453C562.378 41.2134 563.903 41.6187 565.29 41.6187C567.443 41.6187 567.934 40.6494 568.116 39.9203C568.273 39.2881 568.204 38.7457 567.905 38.263C567.007 36.8131 564.251 36.2016 562.77 35.8736C562.722 35.8623 562.673 35.852 562.626 35.8417L561.354 40.9402Z"
                  fill="white"/>
        </g>
        <g opacity="0.6" filter="url(#filter1_d)">
            <path d="M952 169.531C935.716 169.531 922.469 156.284 922.469 140C922.469 123.716 935.716 110.469 952 110.469C968.284 110.469 981.531 123.716 981.531 140C981.531 156.284 968.284 169.531 952 169.531ZM952 111.562C936.319 111.562 923.562 124.319 923.562 140C923.562 155.681 936.319 168.438 952 168.438C967.681 168.438 980.438 155.681 980.438 140C980.438 124.319 967.681 111.562 952 111.562Z"
                  fill="white"/>
            <path d="M952 165.156C938.128 165.156 926.844 153.872 926.844 140C926.844 126.128 938.128 114.844 952 114.844C965.872 114.844 977.156 126.128 977.156 140C977.156 153.872 965.872 165.156 952 165.156ZM952 115.938C938.732 115.938 927.938 126.732 927.938 140C927.938 153.268 938.732 164.062 952 164.062C965.268 164.062 976.062 153.268 976.062 140C976.062 126.732 965.268 115.938 952 115.938Z"
                  fill="white"/>
            <path d="M951.997 121.975L962.857 139.995L951.997 146.414L941.136 139.995L951.997 121.975ZM951.997 119.855L939.63 140.374L951.997 147.684L964.363 140.374L951.997 119.855Z"
                  fill="white"/>
            <path d="M951.997 136.355L961.935 140.538L951.997 146.413L942.058 140.538L951.997 136.355ZM951.997 135.168L939.63 140.374L951.997 147.684L964.363 140.374L951.997 135.168Z"
                  fill="white"/>
            <path d="M960.507 146.27L951.998 158.254L943.493 146.27L951.441 150.966L951.998 151.294L952.553 150.966L960.507 146.27ZM964.371 142.718L951.998 150.025L939.632 142.718L952 160.143V160.145L964.371 142.718Z"
                  fill="white"/>
            <path d="M952.547 121.911H951.453V146.839H952.547V121.911Z" fill="white"/>
            <path d="M952.547 150.212H951.453V158.825H952.547V150.212Z" fill="white"/>
        </g>
        <g opacity="0.6" filter="url(#filter2_d)">
            <path d="M390 187C378.42 187 369 177.58 369 166C369 154.42 378.42 145 390 145C401.58 145 411 154.42 411 166C411 177.58 401.58 187 390 187ZM390 145.778C378.849 145.778 369.778 154.849 369.778 166C369.778 177.151 378.849 186.222 390 186.222C401.151 186.222 410.222 177.151 410.222 166C410.222 154.849 401.151 145.778 390 145.778Z"
                  fill="white"/>
            <path d="M390 183.889C380.136 183.889 372.111 175.864 372.111 166C372.111 156.135 380.136 148.111 390 148.111C399.865 148.111 407.889 156.135 407.889 166C407.889 175.864 399.865 183.889 390 183.889ZM390 148.889C380.565 148.889 372.889 156.565 372.889 166C372.889 175.435 380.565 183.111 390 183.111C399.435 183.111 407.111 175.435 407.111 166C407.111 156.565 399.435 148.889 390 148.889Z"
                  fill="white"/>
            <path d="M394.431 178.201C393.508 178.201 392.587 177.946 391.765 177.463C390.123 176.503 389.102 174.729 389.102 172.834C389.102 171.895 389.373 170.913 389.884 169.994C390.255 169.247 389.993 168.286 389.291 167.866C389.024 167.714 388.754 167.634 388.494 167.634C387.827 167.634 387.353 168.152 387.178 168.458C386.656 169.408 385.94 170.156 385.111 170.616C383.484 171.571 381.432 171.575 379.79 170.612C378.149 169.646 377.129 167.871 377.129 165.978C377.129 164.082 378.149 162.307 379.79 161.343C381.431 160.379 383.476 160.378 385.121 161.344C386.097 161.989 386.799 162.858 387.245 163.457C387.711 164.229 388.686 164.505 389.384 164.088C389.861 163.847 390.12 163.513 390.182 163.077C390.252 162.58 390.056 162.12 389.968 161.945C389.388 160.907 389.103 159.979 389.103 159.121C389.103 157.229 390.124 155.455 391.767 154.49C392.477 154.047 393.415 153.801 394.401 153.801C395.436 153.801 396.387 154.049 397.107 154.5C398.739 155.456 399.76 157.231 399.76 159.125C399.76 161.016 398.739 162.79 397.097 163.754C396.289 164.204 395.247 164.449 394.157 164.449C393.27 164.449 392.627 165.092 392.627 165.978C392.627 167.188 393.627 167.508 394.157 167.508C395.296 167.508 396.255 167.733 397.09 168.197C398.74 169.167 399.761 170.941 399.761 172.835C399.761 174.726 398.739 176.5 397.097 177.465C396.275 177.945 395.353 178.201 394.431 178.201ZM388.494 166.856C388.892 166.856 389.292 166.969 389.684 167.195C390.75 167.832 391.137 169.219 390.572 170.356C390.116 171.176 389.88 172.026 389.88 172.834C389.88 174.454 390.753 175.971 392.159 176.793C393.566 177.619 395.299 177.618 396.701 176.793C398.108 175.967 398.981 174.45 398.981 172.834C398.981 171.216 398.108 169.698 396.702 168.871C395.995 168.478 395.159 168.285 394.156 168.285C393.009 168.285 391.848 167.491 391.848 165.977C391.848 164.662 392.84 163.67 394.156 163.67C395.117 163.67 396.023 163.459 396.71 163.078C398.108 162.258 398.981 160.74 398.981 159.124C398.981 157.505 398.109 155.987 396.702 155.164C396.095 154.784 395.292 154.577 394.43 154.577C394.43 154.577 394.43 154.577 394.429 154.577C393.57 154.577 392.757 154.788 392.17 155.153C390.754 155.985 389.881 157.503 389.881 159.119C389.881 159.84 390.134 160.645 390.656 161.579C390.918 162.102 391.023 162.681 390.952 163.184C390.885 163.668 390.622 164.335 389.758 164.767C389.444 164.957 389.052 165.065 388.652 165.065C387.82 165.065 387.034 164.614 386.599 163.888C385.959 163.031 385.369 162.44 384.708 162.002C383.338 161.197 381.586 161.188 380.184 162.013C378.779 162.838 377.907 164.357 377.907 165.977C377.907 167.595 378.779 169.114 380.184 169.94C381.589 170.764 383.322 170.764 384.725 169.94C385.434 169.545 386.045 168.903 386.5 168.077C386.824 167.51 387.537 166.856 388.494 166.856Z"
                  fill="white"/>
        </g>
    </g>
    <defs>
        <filter id="filter0_d" x="525" y="11" width="74" height="74" filterUnits="userSpaceOnUse"
                color-interpolation-filters="sRGB">
            <feFlood flood-opacity="0" result="BackgroundImageFix"/>
            <feColorMatrix in="SourceAlpha" type="matrix" values="0 0 0 0 0 0 0 0 0 0 0 0 0 0 0 0 0 0 127 0"/>
            <feOffset dy="4"/>
            <feGaussianBlur stdDeviation="2"/>
            <feColorMatrix type="matrix" values="0 0 0 0 1 0 0 0 0 1 0 0 0 0 1 0 0 0 0.25 0"/>
            <feBlend mode="normal" in2="BackgroundImageFix" result="effect1_dropShadow"/>
            <feBlend mode="normal" in="SourceGraphic" in2="effect1_dropShadow" result="shape"/>
        </filter>
        <filter id="filter1_d" x="913" y="105" width="78" height="78" filterUnits="userSpaceOnUse"
                color-interpolation-filters="sRGB">
            <feFlood flood-opacity="0" result="BackgroundImageFix"/>
            <feColorMatrix in="SourceAlpha" type="matrix" values="0 0 0 0 0 0 0 0 0 0 0 0 0 0 0 0 0 0 127 0"/>
            <feOffset dy="4"/>
            <feGaussianBlur stdDeviation="2"/>
            <feColorMatrix type="matrix" values="0 0 0 0 1 0 0 0 0 1 0 0 0 0 1 0 0 0 0.25 0"/>
            <feBlend mode="normal" in2="BackgroundImageFix" result="effect1_dropShadow"/>
            <feBlend mode="normal" in="SourceGraphic" in2="effect1_dropShadow" result="shape"/>
        </filter>
        <filter id="filter2_d" x="365" y="145" width="50" height="50" filterUnits="userSpaceOnUse"
                color-interpolation-filters="sRGB">
            <feFlood flood-opacity="0" result="BackgroundImageFix"/>
            <feColorMatrix in="SourceAlpha" type="matrix" values="0 0 0 0 0 0 0 0 0 0 0 0 0 0 0 0 0 0 127 0"/>
            <feOffset dy="4"/>
            <feGaussianBlur stdDeviation="2"/>
            <feColorMatrix type="matrix" values="0 0 0 0 1 0 0 0 0 1 0 0 0 0 1 0 0 0 0.25 0"/>
            <feBlend mode="normal" in2="BackgroundImageFix" result="effect1_dropShadow"/>
            <feBlend mode="normal" in="SourceGraphic" in2="effect1_dropShadow" result="shape"/>
        </filter>
        <linearGradient id="paint0_linear" x1="458.494" y1="380.08" x2="701.839" y2="-59.1433"
                        gradientUnits="userSpaceOnUse">
            <stop stopColor="white" stop-opacity="0.04"/>
            <stop offset="1" stopColor="white"/>
        </linearGradient>
        <linearGradient id="paint1_linear" x1="462.551" y1="374.661" x2="702.445" y2="-58.3332"
                        gradientUnits="userSpaceOnUse">
            <stop stopColor="white" stop-opacity="0.04"/>
            <stop offset="1" stopColor="white"/>
        </linearGradient>
        <linearGradient id="paint2_linear" x1="466.563" y1="369.279" x2="703.13" y2="-57.7119"
                        gradientUnits="userSpaceOnUse">
            <stop stopColor="white" stop-opacity="0.04"/>
            <stop offset="1" stopColor="white"/>
        </linearGradient>
        <linearGradient id="paint3_linear" x1="470.587" y1="363.897" x2="703.971" y2="-57.3465"
                        gradientUnits="userSpaceOnUse">
            <stop stopColor="white" stop-opacity="0.04"/>
            <stop offset="1" stopColor="white"/>
        </linearGradient>
        <linearGradient id="paint4_linear" x1="474.579" y1="358.563" x2="704.95" y2="-57.2447"
                        gradientUnits="userSpaceOnUse">
            <stop stopColor="white" stop-opacity="0.04"/>
            <stop offset="1" stopColor="white"/>
        </linearGradient>
        <linearGradient id="paint5_linear" x1="478.559" y1="353.292" x2="706.012" y2="-57.2476"
                        gradientUnits="userSpaceOnUse">
            <stop stopColor="white" stop-opacity="0.04"/>
            <stop offset="1" stopColor="white"/>
        </linearGradient>
        <linearGradient id="paint6_linear" x1="482.494" y1="348.082" x2="707.214" y2="-57.523"
                        gradientUnits="userSpaceOnUse">
            <stop stopColor="white" stop-opacity="0.04"/>
            <stop offset="1" stopColor="white"/>
        </linearGradient>
        <linearGradient id="paint7_linear" x1="486.385" y1="342.917" x2="708.492" y2="-57.9721"
                        gradientUnits="userSpaceOnUse">
            <stop stopColor="white" stop-opacity="0.04"/>
            <stop offset="1" stopColor="white"/>
        </linearGradient>
        <linearGradient id="paint8_linear" x1="490.188" y1="337.956" x2="709.899" y2="-58.6082"
                        gradientUnits="userSpaceOnUse">
            <stop stopColor="white" stop-opacity="0.04"/>
            <stop offset="1" stopColor="white"/>
        </linearGradient>
        <linearGradient id="paint9_linear" x1="493.907" y1="333.126" x2="711.353" y2="-59.3518"
                        gradientUnits="userSpaceOnUse">
            <stop stopColor="white" stop-opacity="0.04"/>
            <stop offset="1" stopColor="white"/>
        </linearGradient>
        <linearGradient id="paint10_linear" x1="497.493" y1="328.566" x2="712.923" y2="-60.2721"
                        gradientUnits="userSpaceOnUse">
            <stop stopColor="white" stop-opacity="0.04"/>
            <stop offset="1" stopColor="white"/>
        </linearGradient>
        <linearGradient id="paint11_linear" x1="500.95" y1="324.199" x2="714.581" y2="-61.3939"
                        gradientUnits="userSpaceOnUse">
            <stop stopColor="white" stop-opacity="0.04"/>
            <stop offset="1" stopColor="white"/>
        </linearGradient>
        <linearGradient id="paint12_linear" x1="504.172" y1="320.307" x2="716.276" y2="-62.5279"
                        gradientUnits="userSpaceOnUse">
            <stop stopColor="white" stop-opacity="0.04"/>
            <stop offset="1" stopColor="white"/>
        </linearGradient>
        <linearGradient id="paint13_linear" x1="507.075" y1="316.97" x2="718.085" y2="-63.8904"
                        gradientUnits="userSpaceOnUse">
            <stop stopColor="white" stop-opacity="0.04"/>
            <stop offset="1" stopColor="white"/>
        </linearGradient>
        <linearGradient id="paint14_linear" x1="509.742" y1="314.06" x2="719.923" y2="-65.304"
                        gradientUnits="userSpaceOnUse">
            <stop stopColor="white" stop-opacity="0.04"/>
            <stop offset="1" stopColor="white"/>
        </linearGradient>
        <linearGradient id="paint15_linear" x1="512.079" y1="311.725" x2="721.815" y2="-66.8373"
                        gradientUnits="userSpaceOnUse">
            <stop stopColor="white" stop-opacity="0.04"/>
            <stop offset="1" stopColor="white"/>
        </linearGradient>
        <linearGradient id="paint16_linear" x1="514.157" y1="309.909" x2="723.826" y2="-68.5298"
                        gradientUnits="userSpaceOnUse">
            <stop stopColor="white" stop-opacity="0.04"/>
            <stop offset="1" stopColor="white"/>
        </linearGradient>
        <linearGradient id="paint17_linear" x1="515.971" y1="308.527" x2="725.841" y2="-70.2772"
                        gradientUnits="userSpaceOnUse">
            <stop stopColor="white" stop-opacity="0.04"/>
            <stop offset="1" stopColor="white"/>
        </linearGradient>
        <linearGradient id="paint18_linear" x1="517.622" y1="307.472" x2="727.921" y2="-72.1057"
                        gradientUnits="userSpaceOnUse">
            <stop stopColor="white" stop-opacity="0.04"/>
            <stop offset="1" stopColor="white"/>
        </linearGradient>
        <linearGradient id="paint19_linear" x1="519.148" y1="306.611" x2="730.037" y2="-74.0316"
                        gradientUnits="userSpaceOnUse">
            <stop stopColor="white" stop-opacity="0.04"/>
            <stop offset="1" stopColor="white"/>
        </linearGradient>
        <linearGradient id="paint20_linear" x1="520.515" y1="306.068" x2="732.201" y2="-76.0136"
                        gradientUnits="userSpaceOnUse">
            <stop stopColor="white" stop-opacity="0.04"/>
            <stop offset="1" stopColor="white"/>
        </linearGradient>
        <linearGradient id="paint21_linear" x1="521.739" y1="305.695" x2="734.374" y2="-78.0984"
                        gradientUnits="userSpaceOnUse">
            <stop stopColor="white" stop-opacity="0.04"/>
            <stop offset="1" stopColor="white"/>
        </linearGradient>
        <linearGradient id="paint22_linear" x1="522.972" y1="305.396" x2="736.624" y2="-80.2333"
                        gradientUnits="userSpaceOnUse">
            <stop stopColor="white" stop-opacity="0.04"/>
            <stop offset="1" stopColor="white"/>
        </linearGradient>
        <linearGradient id="paint23_linear" x1="524.101" y1="305.305" x2="738.921" y2="-82.4327"
                        gradientUnits="userSpaceOnUse">
            <stop stopColor="white" stop-opacity="0.04"/>
            <stop offset="1" stopColor="white"/>
        </linearGradient>
        <linearGradient id="paint24_linear" x1="525.175" y1="305.281" x2="741.239" y2="-84.7035"
                        gradientUnits="userSpaceOnUse">
            <stop stopColor="white" stop-opacity="0.04"/>
            <stop offset="1" stopColor="white"/>
        </linearGradient>
        <linearGradient id="paint25_linear" x1="526.148" y1="305.405" x2="743.576" y2="-87.04"
                        gradientUnits="userSpaceOnUse">
            <stop stopColor="white" stop-opacity="0.04"/>
            <stop offset="1" stopColor="white"/>
        </linearGradient>
        <linearGradient id="paint26_linear" x1="527.122" y1="305.585" x2="745.968" y2="-89.4203"
                        gradientUnits="userSpaceOnUse">
            <stop stopColor="white" stop-opacity="0.04"/>
            <stop offset="1" stopColor="white"/>
        </linearGradient>
        <linearGradient id="paint27_linear" x1="528.037" y1="305.835" x2="748.374" y2="-91.8595"
                        gradientUnits="userSpaceOnUse">
            <stop stopColor="white" stop-opacity="0.04"/>
            <stop offset="1" stopColor="white"/>
        </linearGradient>
        <linearGradient id="paint28_linear" x1="528.914" y1="306.146" x2="750.8" y2="-94.3459"
                        gradientUnits="userSpaceOnUse">
            <stop stopColor="white" stop-opacity="0.04"/>
            <stop offset="1" stopColor="white"/>
        </linearGradient>
        <linearGradient id="paint29_linear" x1="529.768" y1="306.508" x2="753.259" y2="-96.881"
                        gradientUnits="userSpaceOnUse">
            <stop stopColor="white" stop-opacity="0.04"/>
            <stop offset="1" stopColor="white"/>
        </linearGradient>
        <linearGradient id="paint30_linear" x1="530.605" y1="306.899" x2="755.738" y2="-99.454"
                        gradientUnits="userSpaceOnUse">
            <stop stopColor="white" stop-opacity="0.04"/>
            <stop offset="1" stopColor="white"/>
        </linearGradient>
        <linearGradient id="paint31_linear" x1="531.401" y1="307.321" x2="758.217" y2="-102.069"
                        gradientUnits="userSpaceOnUse">
            <stop stopColor="white" stop-opacity="0.04"/>
            <stop offset="1" stopColor="white"/>
        </linearGradient>
        <clipPath id="clip0">
            <rect width="1037" height="200" fill="white"/>
        </clipPath>
    </defs>
</svg>
