<svg width="70" height="70" viewBox="0 0 70 70" fill="none" xmlns="http://www.w3.org/2000/svg">
    <path d="M8.75 4.20001C8.75 1.88015 10.6301 0 12.95 0H43.75L61.2501 14.7V65.8C61.2501 68.1199 59.3699 70 57.0501 70H12.95C10.6301 70 8.75 68.1199 8.75 65.8V4.20001Z"
          fill="#D8D8D8"/>
    <path d="M43.75 0V10.5C43.75 12.8198 45.6301 14.7 47.95 14.7H61.2501" fill="#979797"/>
    <rect x="23" y="30" width="41" height="18" rx="2" fill="#C4C4C4"/>
    <path d="M36.4453 39.0098C36.4453 39.8457 36.3047 40.5762 36.0234 41.2012C35.7422 41.8223 35.3438 42.2969 34.8281 42.625C34.3125 42.9531 33.7109 43.1172 33.0234 43.1172C32.3516 43.1172 31.7559 42.9531 31.2363 42.625C30.7168 42.293 30.3125 41.8223 30.0234 41.2129C29.7383 40.5996 29.5918 39.8906 29.584 39.0859V38.4707C29.584 37.6504 29.7266 36.9258 30.0117 36.2969C30.2969 35.668 30.6992 35.1875 31.2188 34.8555C31.7422 34.5195 32.3398 34.3516 33.0117 34.3516C33.6953 34.3516 34.2969 34.5176 34.8164 34.8496C35.3398 35.1777 35.7422 35.6562 36.0234 36.2852C36.3047 36.9102 36.4453 37.6387 36.4453 38.4707V39.0098ZM35.3262 38.459C35.3262 37.4473 35.123 36.6719 34.7168 36.1328C34.3105 35.5898 33.7422 35.3184 33.0117 35.3184C32.3008 35.3184 31.7402 35.5898 31.3301 36.1328C30.9238 36.6719 30.7148 37.4219 30.7031 38.3828V39.0098C30.7031 39.9902 30.9082 40.7617 31.3184 41.3242C31.7324 41.8828 32.3008 42.1621 33.0234 42.1621C33.75 42.1621 34.3125 41.8984 34.7109 41.3711C35.1094 40.8398 35.3145 40.0801 35.3262 39.0918V38.459ZM39.4336 35.125V36.6602H40.6172V37.498H39.4336V41.4297C39.4336 41.6836 39.4863 41.875 39.5918 42.0039C39.6973 42.1289 39.877 42.1914 40.1309 42.1914C40.2559 42.1914 40.4277 42.168 40.6465 42.1211V43C40.3613 43.0781 40.084 43.1172 39.8145 43.1172C39.3301 43.1172 38.9648 42.9707 38.7188 42.6777C38.4727 42.3848 38.3496 41.9688 38.3496 41.4297V37.498H37.1953V36.6602H38.3496V35.125H39.4336ZM42.9727 37.4277C43.4531 36.8379 44.0781 36.543 44.8477 36.543C46.1875 36.543 46.8633 37.2988 46.875 38.8105V43H45.791V38.8047C45.7871 38.3477 45.6816 38.0098 45.4746 37.791C45.2715 37.5723 44.9531 37.4629 44.5195 37.4629C44.168 37.4629 43.8594 37.5566 43.5938 37.7441C43.3281 37.9316 43.1211 38.1777 42.9727 38.4824V43H41.8887V34H42.9727V37.4277ZM51.1289 43.1172C50.2695 43.1172 49.5703 42.8359 49.0312 42.2734C48.4922 41.707 48.2227 40.9512 48.2227 40.0059V39.8066C48.2227 39.1777 48.3418 38.6172 48.5801 38.125C48.8223 37.6289 49.1582 37.2422 49.5879 36.9648C50.0215 36.6836 50.4902 36.543 50.9941 36.543C51.8184 36.543 52.459 36.8145 52.916 37.3574C53.373 37.9004 53.6016 38.6777 53.6016 39.6895V40.1406H49.3066C49.3223 40.7656 49.5039 41.2715 49.8516 41.6582C50.2031 42.041 50.6484 42.2324 51.1875 42.2324C51.5703 42.2324 51.8945 42.1543 52.1602 41.998C52.4258 41.8418 52.6582 41.6348 52.8574 41.377L53.5195 41.8926C52.9883 42.709 52.1914 43.1172 51.1289 43.1172ZM50.9941 37.4336C50.5566 37.4336 50.1895 37.5938 49.8926 37.9141C49.5957 38.2305 49.4121 38.6758 49.3418 39.25H52.5176V39.168C52.4863 38.6172 52.3379 38.1914 52.0723 37.8906C51.8066 37.5859 51.4473 37.4336 50.9941 37.4336ZM57.9258 37.6328C57.7617 37.6055 57.584 37.5918 57.3926 37.5918C56.6816 37.5918 56.1992 37.8945 55.9453 38.5V43H54.8613V36.6602H55.916L55.9336 37.3926C56.2891 36.8262 56.793 36.543 57.4453 36.543C57.6562 36.543 57.8164 36.5703 57.9258 36.625V37.6328Z"
          fill="white"/>
</svg>
