<svg width="70" height="70" viewBox="0 0 70 70" fill="none" xmlns="http://www.w3.org/2000/svg">
    <path d="M8.74951 4.20001C8.74951 1.88015 10.6297 0 12.9495 0H43.7495L61.2496 14.7V65.8C61.2496 68.1199 59.3694 70 57.0496 70H12.9495C10.6297 70 8.74951 68.1199 8.74951 65.8V4.20001Z"
          fill="#D22600"/>
    <path d="M43.75 0V10.5C43.75 12.8198 45.6301 14.7 47.95 14.7H61.2501" fill="#AC2200"/>
    <path d="M21.9204 44.3833H20.2798V49.4157H16.6475V34.2531H21.4391C25.5746 34.2531 27.9371 35.8719 27.9371 39.1978C27.936 42.7657 25.508 44.3833 21.9204 44.3833ZM21.483 36.8342H20.2799V41.7572H21.6143C23.2549 41.7572 24.1955 40.9686 24.1955 39.1968C24.1955 37.6009 23.2987 36.8342 21.483 36.8342Z"
          fill="white"/>
    <path d="M33.6678 49.4157H29.5542V34.2531H33.4053C37.3013 34.2531 41.0189 35.5 41.0189 41.7594C41.019 47.926 37.4522 49.4157 33.6678 49.4157ZM33.9293 36.878H33.1855V46.7906H33.9293C35.9199 46.7906 37.2542 45.7187 37.2542 41.7572C37.2564 37.7115 35.8335 36.878 33.9293 36.878Z"
          fill="white"/>
    <path d="M47.3393 36.8342V40.8177H52.6342V43.4208H47.3393V49.4157H43.6851V34.2531H53.6842L53.3123 36.8342H47.3393Z"
          fill="white"/>
</svg>
