<svg width="70" height="70" viewBox="0 0 70 70" fill="none" xmlns="http://www.w3.org/2000/svg">
    <g clipPath="url(#clip0)">
        <path d="M8.09512 29.441L4.40234 33.1448H8.09512V29.441Z" fill="#DD9536"/>
        <path d="M61.8965 29.441L65.5906 33.1448H61.8965V29.441Z" fill="#DD9536"/>
        <path d="M61.942 14.9419C61.9419 14.5794 61.7978 14.2317 61.5414 13.9753L47.9488 0.382764C47.6925 0.126348 47.3448 -0.0177448 46.9822 -0.0178223H9.46387C9.10127 -0.0178223 8.75352 0.12622 8.49712 0.382618C8.24072 0.639015 8.09668 0.986765 8.09668 1.34937V68.615C8.09668 68.9776 8.24072 69.3253 8.49712 69.5817C8.75352 69.8381 9.10127 69.9822 9.46387 69.9822H60.5748C60.9374 69.9822 61.2852 69.8381 61.5416 69.5817C61.798 69.3253 61.942 68.9776 61.942 68.615V14.9419Z"
              fill="#F1F1F1"/>
        <path d="M61.8971 14.6015C61.8374 14.3645 61.7146 14.1481 61.5416 13.9753L47.949 0.382764C47.6927 0.126348 47.345 -0.0177448 46.9824 -0.0178223V12.9595C46.9824 13.3946 47.1553 13.8119 47.4629 14.1196C47.7706 14.4273 48.1879 14.6001 48.623 14.6001L61.8971 14.6015Z"
              fill="#CCCCCC"/>
        <path d="M61.8962 14.6016H48.6235C48.1884 14.6016 47.7711 14.4287 47.4634 14.121C47.1558 13.8134 46.9829 13.3961 46.9829 12.9609V14.3486C46.9829 15.2551 47.5462 16.3994 48.6755 16.3994H61.9372V14.942C61.9459 14.8269 61.932 14.7113 61.8962 14.6016Z"
              fill="#E8E8E8"/>
        <path d="M64.5467 56.3514H5.4541C5.0915 56.3514 4.74375 56.2074 4.48735 55.951C4.23096 55.6946 4.08691 55.3468 4.08691 54.9842V34.0198C4.08691 33.6572 4.23096 33.3094 4.48735 33.053C4.74375 32.7966 5.0915 32.6526 5.4541 32.6526H64.5467C64.9093 32.6526 65.257 32.7966 65.5134 33.053C65.7698 33.3094 65.9139 33.6572 65.9139 34.0198V54.9829C65.914 55.1625 65.8788 55.3404 65.8102 55.5065C65.7416 55.6725 65.6409 55.8234 65.5139 55.9505C65.3869 56.0776 65.2362 56.1784 65.0702 56.2472C64.9042 56.316 64.7263 56.3514 64.5467 56.3514Z"
              fill="#FAAF3A"/>
        <path d="M8.09521 56.3513H61.9419V58.1246H8.09521V56.3513Z" fill="#E0E0E0"/>
        <path d="M29.5559 49.1982C29.5572 49.34 29.5251 49.4802 29.4622 49.6073C29.3992 49.7343 29.3072 49.8448 29.1936 49.9297C28.9571 50.1246 28.6592 50.2293 28.3528 50.225C28.138 50.226 27.9263 50.1744 27.7361 50.0746C27.5372 49.9668 27.368 49.8113 27.244 49.622L25.4666 47.0244C25.3611 46.8639 25.2238 46.7266 25.0633 46.6211C24.9123 46.5321 24.7395 46.4871 24.5643 46.4912H23.6756V48.9453C23.6844 49.1111 23.6599 49.2769 23.6035 49.4331C23.5472 49.5892 23.4601 49.7325 23.3475 49.8545C23.2281 49.9697 23.0862 50.059 22.9307 50.1169C22.7752 50.1748 22.6094 50.1999 22.4438 50.1908C22.277 50.2038 22.1093 50.1804 21.9524 50.1224C21.7955 50.0644 21.653 49.973 21.5348 49.8547C21.4165 49.7363 21.3253 49.5937 21.2675 49.4367C21.2096 49.2797 21.1865 49.1121 21.1996 48.9453V41.6199C21.1817 41.463 21.1995 41.304 21.2516 41.1549C21.3037 41.0057 21.3887 40.8703 21.5004 40.7586C21.6121 40.6469 21.7476 40.5618 21.8967 40.5098C22.0458 40.4577 22.2048 40.4399 22.3617 40.4578H25.7961C26.9619 40.4578 27.8396 40.7107 28.4293 41.2166C29.019 41.7224 29.313 42.4543 29.3112 43.4123C29.331 44.0812 29.1184 44.7364 28.7096 45.2662C28.2778 45.7905 27.6787 46.1502 27.0129 46.2847C27.2945 46.3235 27.5635 46.4264 27.799 46.5855C28.0585 46.7785 28.2832 47.0143 28.4635 47.2828L29.3112 48.501C29.46 48.704 29.5451 48.9467 29.5559 49.1982ZM26.5945 44.342C26.8361 44.1697 26.9569 43.8872 26.9569 43.4943C26.9569 43.1015 26.8361 42.8121 26.5945 42.6262C26.3521 42.4484 25.9529 42.3596 25.3969 42.3596H23.6524V44.6017H25.4024C25.9556 44.6017 26.353 44.5151 26.5945 44.342Z"
              fill="white"/>
        <path d="M40.0748 49.0615C40.0759 49.2082 40.0439 49.3532 39.9812 49.4857C39.9184 49.6183 39.8266 49.735 39.7125 49.8271C39.4852 50.0317 39.1898 50.1443 38.884 50.143C38.6806 50.1448 38.481 50.0873 38.3098 49.9775C38.1277 49.8573 37.985 49.6861 37.8996 49.4853L37.2844 48.1045H32.852L32.2231 49.4853C32.1406 49.6816 32.0018 49.8488 31.824 49.9659C31.6463 50.083 31.4378 50.1446 31.225 50.143C30.9153 50.1432 30.616 50.031 30.3828 49.8271C30.2656 49.7369 30.1707 49.6209 30.1055 49.4882C30.0403 49.3554 30.0066 49.2094 30.0068 49.0615C30.0096 48.8858 30.0517 48.713 30.1299 48.5556L33.742 41.1414C33.854 40.902 34.038 40.7036 34.2684 40.574C34.5038 40.444 34.7684 40.3759 35.0374 40.3759C35.3064 40.3759 35.571 40.444 35.8065 40.574C36.04 40.7021 36.2271 40.9006 36.341 41.1414L39.9518 48.5556C40.03 48.713 40.072 48.8858 40.0748 49.0615ZM33.701 46.2109H36.4354L35.0682 43.1607L33.701 46.2109Z"
              fill="white"/>
        <path d="M49.4924 49.1983C49.4938 49.3401 49.4617 49.4802 49.3987 49.6073C49.3358 49.7344 49.2437 49.8448 49.1301 49.9297C48.8937 50.1246 48.5957 50.2293 48.2893 50.225C48.075 50.2259 47.8638 50.1742 47.6741 50.0746C47.4751 49.9668 47.306 49.8114 47.1819 49.6221L45.4045 47.0244C45.2962 46.8638 45.1568 46.7267 44.9944 46.6211C44.8429 46.5321 44.6696 46.4871 44.494 46.4912H43.6053V48.9453C43.6141 49.1111 43.5896 49.277 43.5333 49.4331C43.4769 49.5893 43.3898 49.7326 43.2772 49.8545C43.158 49.9697 43.0164 50.059 42.8611 50.1169C42.7059 50.1748 42.5403 50.1999 42.3748 50.1908C42.2079 50.204 42.0401 50.1808 41.8831 50.1229C41.726 50.065 41.5833 49.9736 41.4649 49.8553C41.3465 49.7369 41.2552 49.5942 41.1973 49.4371C41.1393 49.28 41.1162 49.1122 41.1293 48.9453V41.6199C41.1114 41.4629 41.1292 41.3038 41.1813 41.1545C41.2335 41.0053 41.3187 40.8697 41.4305 40.758C41.5424 40.6463 41.678 40.5613 41.8273 40.5093C41.9766 40.4573 42.1358 40.4397 42.2928 40.4578H45.7258C46.8934 40.4578 47.7711 40.7108 48.359 41.2166C48.9469 41.7225 49.2409 42.4544 49.2409 43.4123C49.2614 44.0814 49.0487 44.7367 48.6393 45.2662C48.2077 45.7908 47.6085 46.1505 46.9426 46.2848C47.2246 46.3236 47.494 46.4265 47.7301 46.5856C47.9891 46.7787 48.2134 47.0145 48.3932 47.2828L49.2409 48.501C49.3921 48.7033 49.4797 48.946 49.4924 49.1983ZM46.5311 44.342C46.7726 44.1697 46.8934 43.8872 46.8934 43.4944C46.8934 43.1015 46.7726 42.8121 46.5311 42.6262C46.2891 42.4485 45.8912 42.3596 45.3348 42.3596H43.5766V44.6018H45.328C45.8844 44.6018 46.2823 44.5156 46.5243 44.342H46.5311Z"
              fill="white"/>
    </g>
    <defs>
        <clipPath id="clip0">
            <rect width="70" height="70" fill="white"/>
        </clipPath>
    </defs>
</svg>
