<svg width="70" height="70" viewBox="0 0 70 70" fill="none" xmlns="http://www.w3.org/2000/svg">
    <path d="M67.8125 59.063H37.1875C35.98 59.063 35 58.0874 35 56.8755C35 55.6636 35 14.333 35 13.1255C35 11.918 35.98 10.938 37.1875 10.938H67.8125C69.02 10.938 70 11.918 70 13.1255V56.8755C70 58.0874 69.02 59.063 67.8125 59.063Z"
          fill="#F6F4ED"/>
    <path d="M59.0625 24.063H37.1875C35.98 24.063 35 23.0874 35 21.8755C35 20.6636 35.98 19.688 37.1875 19.688H59.0625C60.27 19.688 61.25 20.668 61.25 21.8755C61.25 23.083 60.27 24.063 59.0625 24.063Z"
          fill="#1976D2"/>
    <path d="M59.0625 32.813H37.1875C35.98 32.813 35 31.8374 35 30.6255C35 29.4136 35.98 28.438 37.1875 28.438H59.0625C60.27 28.438 61.25 29.418 61.25 30.6255C61.25 31.833 60.27 32.813 59.0625 32.813Z"
          fill="#1976D2"/>
    <path d="M59.0625 41.563H37.1875C35.98 41.563 35 40.5874 35 39.3755C35 38.1636 35.98 37.188 37.1875 37.188H59.0625C60.27 37.188 61.25 38.168 61.25 39.3755C61.25 40.583 60.27 41.563 59.0625 41.563Z"
          fill="#1976D2"/>
    <path d="M59.0625 50.313H37.1875C35.98 50.313 35 49.3374 35 48.1255C35 46.9136 35.98 45.938 37.1875 45.938H59.0625C60.27 45.938 61.25 46.918 61.25 48.1255C61.25 49.333 60.27 50.313 59.0625 50.313Z"
          fill="#1976D2"/>
    <path d="M38.5831 2.69555C38.0844 2.27555 37.415 2.10055 36.785 2.22743L1.785 8.78993C0.7525 8.98243 0 9.88805 0 10.9381V59.0631C0 60.1131 0.748125 61.0187 1.785 61.2112L36.785 67.7737C36.9206 67.7999 37.0519 67.8131 37.1875 67.8131C37.695 67.8131 38.1894 67.6381 38.5831 67.3099C39.0863 66.8943 39.375 66.2774 39.375 65.6256V4.37555C39.375 3.72368 39.0863 3.11118 38.5831 2.69555Z"
          fill="#1565C0"/>
    <path d="M28.4242 46.1831C28.3105 47.185 27.523 47.9856 26.5211 48.1081C26.4292 48.1212 26.3417 48.1256 26.2498 48.1256C25.3486 48.1256 24.5261 47.5656 24.2023 46.7081L19.6873 34.6681L15.1723 46.7081C14.8223 47.6443 13.9036 48.2175 12.8886 48.1125C11.8955 48.0075 11.0992 47.2375 10.9592 46.2443L8.77172 30.9318C8.60109 29.7418 9.43234 28.6306 10.6267 28.46C11.8255 28.285 12.9323 29.1206 13.103 30.315L14.0786 37.1575L17.6355 27.6681C18.2742 25.9618 21.0917 25.9618 21.7348 27.6681L25.0861 36.6018L26.263 26.0056C26.3986 24.8068 27.5098 23.945 28.678 24.0718C29.8811 24.2118 30.743 25.2925 30.6117 26.4912L28.4242 46.1831Z"
          fill="#FAFAFA"/>
</svg>
