<svg width="20" height="20" viewBox="0 0 20 20" fill="none" xmlns="http://www.w3.org/2000/svg">
<path fillRule="evenodd" clipRule="evenodd" d="M0.833336 2.50033C0.833336 2.04009 1.20643 1.66699 1.66667 1.66699H6.66667C7.77174 1.66699 8.83155 2.10598 9.61295 2.88738C10.3944 3.66878 10.8333 4.72859 10.8333 5.83366V17.5003C10.8333 17.9606 10.4602 18.3337 10 18.3337C9.53977 18.3337 9.16667 17.9606 9.16667 17.5003C9.16667 17.0583 8.99108 16.6344 8.67852 16.3218C8.36595 16.0093 7.94203 15.8337 7.5 15.8337H1.66667C1.20643 15.8337 0.833336 15.4606 0.833336 15.0003V2.50033ZM9.16667 14.6136V5.83366C9.16667 5.17062 8.90328 4.53473 8.43444 4.06589C7.9656 3.59705 7.32971 3.33366 6.66667 3.33366H2.5V14.167H7.5C8.09019 14.167 8.66425 14.3235 9.16667 14.6136Z" fill="#333333"/>
<path fillRule="evenodd" clipRule="evenodd" d="M10.3871 2.88738C11.1685 2.10598 12.2283 1.66699 13.3333 1.66699H18.3333C18.7936 1.66699 19.1667 2.04009 19.1667 2.50033V15.0003C19.1667 15.4606 18.7936 15.8337 18.3333 15.8337H12.5C12.058 15.8337 11.634 16.0093 11.3215 16.3218C11.0089 16.6344 10.8333 17.0583 10.8333 17.5003C10.8333 17.9606 10.4602 18.3337 10 18.3337C9.53976 18.3337 9.16666 17.9606 9.16666 17.5003V5.83366C9.16666 4.72859 9.60565 3.66878 10.3871 2.88738ZM10.8333 14.6136C11.3358 14.3235 11.9098 14.167 12.5 14.167H17.5V3.33366H13.3333C12.6703 3.33366 12.0344 3.59705 11.5656 4.06589C11.0967 4.53473 10.8333 5.17062 10.8333 5.83366V14.6136Z" fill="#333333"/>
</svg>
