<svg width="20" height="20" viewBox="0 0 20 20" fill="none" xmlns="http://www.w3.org/2000/svg">
<path fillRule="evenodd" clipRule="evenodd" d="M4.16666 4.16667C3.70643 4.16667 3.33333 4.53976 3.33333 5V16.6667C3.33333 17.1269 3.70643 17.5 4.16666 17.5H15.8333C16.2936 17.5 16.6667 17.1269 16.6667 16.6667V5C16.6667 4.53976 16.2936 4.16667 15.8333 4.16667H4.16666ZM1.66666 5C1.66666 3.61929 2.78595 2.5 4.16666 2.5H15.8333C17.214 2.5 18.3333 3.61929 18.3333 5V16.6667C18.3333 18.0474 17.214 19.1667 15.8333 19.1667H4.16666C2.78595 19.1667 1.66666 18.0474 1.66666 16.6667V5Z" fill="#333333"/>
<path fillRule="evenodd" clipRule="evenodd" d="M13.3333 0.833008C13.7936 0.833008 14.1667 1.2061 14.1667 1.66634V4.99967C14.1667 5.45991 13.7936 5.83301 13.3333 5.83301C12.8731 5.83301 12.5 5.45991 12.5 4.99967V1.66634C12.5 1.2061 12.8731 0.833008 13.3333 0.833008Z" fill="#333333"/>
<path fillRule="evenodd" clipRule="evenodd" d="M6.66667 0.833008C7.12691 0.833008 7.5 1.2061 7.5 1.66634V4.99967C7.5 5.45991 7.12691 5.83301 6.66667 5.83301C6.20643 5.83301 5.83334 5.45991 5.83334 4.99967V1.66634C5.83334 1.2061 6.20643 0.833008 6.66667 0.833008Z" fill="#333333"/>
<path fillRule="evenodd" clipRule="evenodd" d="M1.66666 8.33333C1.66666 7.8731 2.03976 7.5 2.5 7.5H17.5C17.9602 7.5 18.3333 7.8731 18.3333 8.33333C18.3333 8.79357 17.9602 9.16667 17.5 9.16667H2.5C2.03976 9.16667 1.66666 8.79357 1.66666 8.33333Z" fill="#333333"/>
</svg>
