<svg width="20" height="20" viewBox="0 0 20 20" fill="none" xmlns="http://www.w3.org/2000/svg">
<path fillRule="evenodd" clipRule="evenodd" d="M13.7982 2.5231C13.3957 2.47762 12.9865 2.4908 12.5834 2.56423C11.7501 2.71606 10.9829 3.11822 10.384 3.71714C9.78511 4.31605 9.38294 5.08326 9.23112 5.91653C9.0793 6.74981 9.18502 7.60956 9.53422 8.38122C9.67722 8.69723 9.60952 9.06877 9.36425 9.31404L3.60592 15.0724C3.43068 15.2476 3.33223 15.4853 3.33223 15.7331C3.33223 15.9809 3.43068 16.2186 3.60592 16.3939C3.78116 16.5691 4.01884 16.6675 4.26667 16.6675C4.51449 16.6675 4.75217 16.5691 4.92741 16.3939L10.6857 10.6355C10.931 10.3903 11.3026 10.3226 11.6186 10.4656C12.3902 10.8148 13.25 10.9205 14.0832 10.7687C14.9165 10.6168 15.6837 10.2147 16.2826 9.61576C16.8816 9.01684 17.2837 8.24963 17.4355 7.41636C17.509 7.01332 17.5222 6.60408 17.4767 6.20161L15.3334 8.34493C15.0218 8.65031 14.6029 8.82133 14.1667 8.82133C13.7304 8.82133 13.3115 8.65028 13 8.3449L12.994 8.33907L11.6549 6.99981C11.3495 6.68826 11.1785 6.26937 11.1785 5.83311C11.1785 5.39686 11.3495 4.97799 11.6549 4.66645L11.6607 4.6605L13.7982 2.5231ZM12.2847 0.924563C13.4512 0.712009 14.6549 0.860029 15.7352 1.3489C15.9845 1.46168 16.1625 1.6896 16.2115 1.95874C16.2605 2.22787 16.1744 2.50393 15.9809 2.69737L12.8452 5.83311L14.1667 7.1546L17.3024 4.01886C17.4958 3.82542 17.7719 3.73924 18.041 3.78828C18.3102 3.83731 18.5381 4.01532 18.6509 4.26455C19.1397 5.34488 19.2878 6.54853 19.0752 7.71511C18.8627 8.88169 18.2996 9.95579 17.4612 10.7943C16.6227 11.6327 15.5486 12.1958 14.382 12.4083C13.4091 12.5856 12.4105 12.5121 11.4791 12.1992L6.10592 17.5724C5.61812 18.0602 4.95652 18.3342 4.26667 18.3342C3.57681 18.3342 2.91521 18.0602 2.42741 17.5724C1.93961 17.0846 1.66557 16.423 1.66557 15.7331C1.66557 15.0433 1.93961 14.3817 2.42741 13.8939L7.80054 8.52073C7.4877 7.58932 7.41419 6.59066 7.59145 5.61778C7.804 4.4512 8.36703 3.3771 9.20551 2.53863C10.044 1.70015 11.1181 1.13712 12.2847 0.924563Z" fill="#333333"/>
</svg>
