<svg width="24" height="24" viewBox="0 0 24 24" fill="none" xmlns="http://www.w3.org/2000/svg">
    <path d="M8.74831 21.75H7.50049C7.37511 21.75 7.25175 21.7185 7.14167 21.6585C7.03159 21.5984 6.93832 21.5118 6.87039 21.4064C6.80245 21.301 6.76202 21.1803 6.75278 21.0552C6.74355 20.9302 6.76581 20.8048 6.81753 20.6906L9.83909 14.0227L5.30206 13.9219L3.64737 15.9267C3.3319 16.3233 3.08018 16.5 2.43799 16.5H1.59799C1.465 16.5043 1.33293 16.4764 1.21298 16.4188C1.09303 16.3612 0.988733 16.2755 0.908932 16.1691C0.79737 16.0186 0.687682 15.7636 0.794557 15.3998L1.72362 12.0717C1.73065 12.0469 1.73909 12.022 1.74846 11.9977C1.74893 11.9953 1.74893 11.9929 1.74846 11.9906C1.73878 11.9663 1.73049 11.9414 1.72362 11.9161L0.79362 8.56687C0.692839 8.21016 0.802995 7.96078 0.91362 7.81406C0.987905 7.71549 1.08428 7.63573 1.195 7.58118C1.30572 7.52664 1.4277 7.49883 1.55112 7.5H2.43799C2.91753 7.5 3.38299 7.71516 3.65674 8.0625L5.27721 10.0336L9.83909 9.96609L6.81846 3.30984C6.76667 3.19568 6.74433 3.07036 6.75346 2.94533C6.7626 2.8203 6.80294 2.69956 6.87078 2.59414C6.93862 2.48872 7.0318 2.40198 7.1418 2.34186C7.25181 2.28175 7.37513 2.25016 7.50049 2.25H8.7619C8.93788 2.25354 9.1108 2.29667 9.26783 2.3762C9.42486 2.45572 9.56195 2.5696 9.66893 2.70937L15.5307 9.83438L18.2386 9.76312C18.4369 9.75234 18.9863 9.74859 19.1133 9.74859C21.7036 9.75 23.2505 10.5909 23.2505 12C23.2505 12.4434 23.0733 13.2656 21.8878 13.7888C21.188 14.0981 20.2542 14.2547 19.1124 14.2547C18.9867 14.2547 18.4388 14.2509 18.2377 14.2402L15.5302 14.168L9.65393 21.293C9.54686 21.4321 9.40989 21.5454 9.25313 21.6246C9.09638 21.7037 8.92386 21.7465 8.74831 21.75V21.75Z"
          fill="#1F1D25"/>
</svg>
