<svg width="24" height="24" viewBox="0 0 24 24" fill="none" xmlns="http://www.w3.org/2000/svg">
    <path d="M7.19919 5.17781C7.29773 5.0803 7.375 4.96342 7.42613 4.83455C7.47725 4.70568 7.50112 4.56762 7.49623 4.42907C7.49134 4.29052 7.4578 4.15448 7.39772 4.02954C7.33764 3.90459 7.25233 3.79345 7.14715 3.70312C6.61789 3.25143 5.94547 3.00226 5.24965 3L5.09637 3.00422H5.07387C3.48715 3.10078 2.24965 4.47891 2.25294 6.14062C2.25294 7.03125 2.62794 7.50281 2.92419 7.88016C3.00732 7.98565 3.11153 8.07265 3.23017 8.13561C3.34882 8.19856 3.47929 8.23608 3.61325 8.24578C3.62544 8.24578 3.64606 8.24812 3.707 8.24812C3.8275 8.24795 3.94672 8.2234 4.05748 8.17595C4.16825 8.1285 4.26827 8.05914 4.35153 7.97203L7.19919 5.17781Z"
          fill="#1F1D25"/>
    <path d="M18.9272 3.00469L18.7739 3H18.7496C18.0531 3.00181 17.3799 3.25101 16.8502 3.70313C16.7452 3.79345 16.66 3.90454 16.6 4.02939C16.54 4.15425 16.5065 4.29018 16.5016 4.42861C16.4967 4.56705 16.5205 4.705 16.5716 4.83378C16.6226 4.96255 16.6998 5.07937 16.7981 5.17688L19.6467 7.97298C19.7302 8.0604 19.8305 8.12998 19.9416 8.17751C20.0527 8.22505 20.1723 8.24955 20.2931 8.24954C20.3531 8.24954 20.3738 8.24954 20.3869 8.24719C20.5208 8.23743 20.6512 8.19988 20.7697 8.13693C20.8883 8.07398 20.9924 7.98701 21.0755 7.88157C21.3736 7.50422 21.7449 7.03407 21.7467 6.14204C21.7496 4.47844 20.5121 3.10031 18.9272 3.00469Z"
          fill="#1F1D25"/>
    <path d="M12.0036 4.5C7.45673 4.5 3.75361 8.20078 3.75361 12.75C3.752 14.6788 4.42921 16.5467 5.66658 18.0262L3.97345 19.7198C3.90215 19.7891 3.84533 19.8719 3.80631 19.9633C3.76728 20.0547 3.74682 20.153 3.74611 20.2524C3.74541 20.3518 3.76447 20.4504 3.8022 20.5424C3.83993 20.6344 3.89557 20.7179 3.96588 20.7882C4.03619 20.8585 4.11978 20.9141 4.21177 20.9518C4.30376 20.9895 4.40233 21.0085 4.50174 21.0077C4.60115 21.007 4.69942 20.9865 4.79084 20.9474C4.88225 20.9083 4.96499 20.8515 5.03423 20.7802L6.72736 19.087C8.20775 20.323 10.0751 21.0001 12.0036 21.0001C13.9321 21.0001 15.7995 20.323 17.2799 19.087L18.9735 20.7802C19.0427 20.8515 19.1254 20.9083 19.2168 20.9474C19.3083 20.9865 19.4065 21.007 19.5059 21.0077C19.6054 21.0085 19.7039 20.9895 19.7959 20.9518C19.8879 20.9141 19.9715 20.8585 20.0418 20.7882C20.1121 20.7179 20.1678 20.6344 20.2055 20.5424C20.2432 20.4504 20.2623 20.3518 20.2616 20.2524C20.2609 20.153 20.2404 20.0547 20.2014 19.9633C20.1623 19.8719 20.1055 19.7891 20.0342 19.7198L18.3406 18.0262C19.5782 16.5468 20.2555 14.6788 20.2536 12.75C20.2536 8.20312 16.5528 4.5 12.0036 4.5ZM12.7536 12.75C12.7536 12.9489 12.6746 13.1397 12.5339 13.2803C12.3933 13.421 12.2025 13.5 12.0036 13.5H8.25361C8.0547 13.5 7.86393 13.421 7.72328 13.2803C7.58263 13.1397 7.50361 12.9489 7.50361 12.75C7.50361 12.5511 7.58263 12.3603 7.72328 12.2197C7.86393 12.079 8.0547 12 8.25361 12H11.2536V7.5C11.2536 7.30109 11.3326 7.11032 11.4733 6.96967C11.6139 6.82902 11.8047 6.75 12.0036 6.75C12.2025 6.75 12.3933 6.82902 12.5339 6.96967C12.6746 7.11032 12.7536 7.30109 12.7536 7.5V12.75Z"
          fill="#1F1D25"/>
</svg>
