<svg width="24" height="24" viewBox="0 0 24 24" fill="none" xmlns="http://www.w3.org/2000/svg">
    <path d="M5.72168 5.72078C3.64184 7.80062 2.59465 10.4369 2.06543 12.5308L11.4686 21.932C13.5625 21.4047 16.1987 20.3575 18.2786 18.2758C20.3584 16.1941 21.4056 13.5597 21.9348 11.4658L12.5317 2.06641C10.4378 2.59375 7.80152 3.64094 5.72168 5.72078ZM14.0931 8.85859L15.1407 7.81375C15.2814 7.6861 15.4658 7.61747 15.6557 7.62208C15.8456 7.62669 16.0265 7.70419 16.1608 7.83851C16.2951 7.97284 16.3726 8.15369 16.3773 8.3436C16.3819 8.53351 16.3132 8.71791 16.1856 8.85859L15.1407 9.90625L15.6639 10.4298C15.8026 10.5686 15.8806 10.7568 15.8806 10.953C15.8806 11.1492 15.8026 11.3374 15.6639 11.4761C15.5251 11.6148 15.337 11.6928 15.1407 11.6928C14.9445 11.6928 14.7564 11.6148 14.6176 11.4761L14.0945 10.953L13.0464 11.9992L13.5695 12.5223C13.7082 12.6611 13.7862 12.8493 13.7862 13.0455C13.7862 13.2417 13.7082 13.4299 13.5695 13.5686C13.4308 13.7073 13.2426 13.7853 13.0464 13.7853C12.8502 13.7853 12.662 13.7073 12.5232 13.5686L12.0001 13.0455L10.9539 14.0922L11.477 14.6153C11.5457 14.684 11.6002 14.7656 11.6374 14.8553C11.6745 14.9451 11.6937 15.0413 11.6937 15.1384C11.6937 15.2356 11.6745 15.3318 11.6374 15.4215C11.6002 15.5113 11.5457 15.5929 11.477 15.6616C11.4083 15.7303 11.3267 15.7848 11.237 15.8219C11.1472 15.8591 11.051 15.8782 10.9539 15.8782C10.8567 15.8782 10.7605 15.8591 10.6708 15.8219C10.581 15.7848 10.4994 15.7303 10.4307 15.6616L9.90715 15.1398L8.85949 16.1847C8.71881 16.3123 8.53441 16.381 8.3445 16.3764C8.15459 16.3717 7.97374 16.2942 7.83941 16.1599C7.70509 16.0256 7.62759 15.8447 7.62298 15.6548C7.61837 15.4649 7.687 15.2805 7.81465 15.1398L8.85949 14.0922L8.33637 13.5686C8.19763 13.4299 8.11968 13.2417 8.11968 13.0455C8.11968 12.8493 8.19763 12.6611 8.33637 12.5223C8.47511 12.3836 8.66328 12.3057 8.85949 12.3057C9.0557 12.3057 9.24388 12.3836 9.38262 12.5223L9.90574 13.0455L10.9539 11.9992L10.4307 11.4761C10.362 11.4074 10.3076 11.3258 10.2704 11.2361C10.2332 11.1463 10.2141 11.0501 10.2141 10.953C10.2141 10.8558 10.2332 10.7596 10.2704 10.6699C10.3076 10.5801 10.362 10.4985 10.4307 10.4298C10.4994 10.3611 10.581 10.3067 10.6708 10.2695C10.7605 10.2323 10.8567 10.2132 10.9539 10.2132C11.051 10.2132 11.1472 10.2323 11.237 10.2695C11.3267 10.3067 11.4083 10.3611 11.477 10.4298L12.0001 10.953L13.0464 9.90625L12.5232 9.38312C12.3845 9.24438 12.3066 9.05621 12.3066 8.86C12.3066 8.66379 12.3845 8.47562 12.5232 8.33687C12.662 8.19813 12.8502 8.12019 13.0464 8.12019C13.2426 8.12019 13.4308 8.19813 13.5695 8.33687L14.0931 8.85859Z"
          fill="#1F1D25"/>
    <path d="M22.3396 9.35793C22.6823 6.80184 22.5271 3.72074 21.4021 2.59809C20.2771 1.47543 17.1984 1.3184 14.6423 1.66059C14.5246 1.67652 14.4004 1.69434 14.2715 1.71449L22.2871 9.73012C22.3059 9.59981 22.3237 9.47559 22.3396 9.35793Z"
          fill="#1F1D25"/>
    <path d="M1.66124 14.6422C1.31858 17.1983 1.47374 20.2794 2.59874 21.402C3.38343 22.1872 5.12577 22.4998 6.97733 22.4998C7.77359 22.4986 8.56891 22.4448 9.35811 22.3391C9.47577 22.3231 9.59999 22.3053 9.72889 22.2852L1.71327 14.2695C1.69499 14.4003 1.67718 14.5245 1.66124 14.6422Z"
          fill="#1F1D25"/>
</svg>
