<svg width="24" height="24" viewBox="0 0 24 24" fill="none" xmlns="http://www.w3.org/2000/svg">
    <path d="M11.7437 6.05508L8.56559 2.87695C6.74572 3.56953 5.17261 4.78713 4.0459 6.37523H11.6115C11.6486 6.37517 11.6848 6.36412 11.7156 6.34349C11.7464 6.32285 11.7704 6.29355 11.7845 6.25929C11.7987 6.22503 11.8023 6.18735 11.7951 6.151C11.7878 6.11465 11.7699 6.08127 11.7437 6.05508V6.05508Z"
          fill="#1F1D25"/>
    <path d="M7.86195 7.875H3.17023C2.30714 9.71467 2.04238 11.7786 2.4132 13.7766L7.99413 8.19516C8.02036 8.16896 8.03823 8.13558 8.04549 8.09923C8.05275 8.06289 8.04908 8.0252 8.03493 7.99094C8.02079 7.95668 7.99681 7.92738 7.96602 7.90675C7.93523 7.88611 7.89901 7.87506 7.86195 7.875Z"
          fill="#1F1D25"/>
    <path d="M16.1247 7.86187V3.16687C14.2844 2.30646 12.2211 2.04292 10.2236 2.41312L15.8046 7.99406C15.8308 8.02028 15.8641 8.03815 15.9005 8.04541C15.9368 8.05268 15.9745 8.049 16.0088 8.03486C16.043 8.02071 16.0723 7.99673 16.093 7.96594C16.1136 7.93515 16.1246 7.89893 16.1247 7.86187Z"
          fill="#1F1D25"/>
    <path d="M21.5871 10.2227L16.0062 15.8041C15.9799 15.8303 15.9621 15.8636 15.9548 15.9C15.9475 15.9363 15.9512 15.974 15.9654 16.0083C15.9795 16.0425 16.0035 16.0718 16.0343 16.0925C16.0651 16.1131 16.1013 16.1242 16.1384 16.1242H20.8301C21.6932 14.2845 21.9579 12.2206 21.5871 10.2227V10.2227Z"
          fill="#1F1D25"/>
    <path d="M17.9452 11.7445L21.1247 8.56539C20.434 6.74282 19.2155 5.1676 17.625 4.04102V11.6123C17.6251 11.6493 17.6361 11.6855 17.6567 11.7163C17.6774 11.7471 17.7067 11.7711 17.7409 11.7853C17.7752 11.7994 17.8129 11.8031 17.8492 11.7958C17.8856 11.7885 17.919 11.7707 17.9452 11.7445V11.7445Z"
          fill="#1F1D25"/>
    <path d="M10.3916 16.0213C10.4614 16.0884 10.5544 16.1259 10.6512 16.1259H13.4478C13.4975 16.1259 13.5468 16.1159 13.5927 16.0967C13.6385 16.0775 13.6801 16.0493 13.715 16.0138L16.0203 13.6701C16.0895 13.5999 16.1282 13.5052 16.1281 13.4067L16.1253 10.5562C16.1253 10.5065 16.1154 10.4574 16.0963 10.4116C16.0771 10.3658 16.0491 10.3243 16.0137 10.2895L13.67 7.98086C13.5996 7.91158 13.5048 7.87284 13.4061 7.87305L10.5542 7.87586C10.5046 7.87588 10.4555 7.88575 10.4097 7.9049C10.3639 7.92406 10.3224 7.9521 10.2875 7.98742L7.97891 10.3312C7.90963 10.4015 7.87089 10.4964 7.87109 10.5951L7.87391 13.4442C7.87392 13.4946 7.88409 13.5445 7.90383 13.5908C7.92356 13.6372 7.95244 13.6792 7.98875 13.7142L10.3916 16.0213Z"
          fill="#1F1D25"/>
    <path d="M12.2562 17.9452L15.4343 21.1233C17.2542 20.4307 18.8273 19.2131 19.954 17.625H12.3884C12.3513 17.6251 12.3151 17.6361 12.2843 17.6567C12.2535 17.6774 12.2295 17.7067 12.2154 17.7409C12.2012 17.7752 12.1975 17.8129 12.2048 17.8492C12.2121 17.8856 12.2299 17.919 12.2562 17.9452V17.9452Z"
          fill="#1F1D25"/>
    <path d="M7.875 16.1384V20.8334C9.71532 21.6938 11.7786 21.9573 13.7761 21.5871L8.19516 16.0062C8.16896 15.9799 8.13558 15.9621 8.09923 15.9548C8.06289 15.9475 8.0252 15.9512 7.99094 15.9654C7.95668 15.9795 7.92738 16.0035 7.90675 16.0343C7.88611 16.0651 7.87506 16.1013 7.875 16.1384Z"
          fill="#1F1D25"/>
    <path d="M6.05453 12.2562L2.875 15.4357C3.56586 17.2581 4.78431 18.8331 6.37469 19.9596V12.3884C6.37462 12.3513 6.36358 12.3151 6.34294 12.2843C6.3223 12.2535 6.293 12.2295 6.25874 12.2154C6.22448 12.2012 6.1868 12.1975 6.15045 12.2048C6.11411 12.2121 6.08073 12.2299 6.05453 12.2562V12.2562Z"
          fill="#1F1D25"/>
</svg>
