<svg width="24" height="24" viewBox="0 0 24 24" fill="none" xmlns="http://www.w3.org/2000/svg">
    <path d="M2.75578 20.5861C2.60813 20.5353 2.48004 20.4396 2.38937 20.3125C2.2987 20.1853 2.24998 20.033 2.25 19.8769C2.25 16.4503 2.93813 13.71 4.29609 11.7314C5.93672 9.34079 8.52469 8.05361 12 7.89376V4.12689C12 3.98003 12.0431 3.83641 12.124 3.71383C12.2049 3.59126 12.32 3.49514 12.4551 3.43738C12.5901 3.37963 12.7391 3.36279 12.8836 3.38895C13.0281 3.41511 13.1618 3.48312 13.268 3.58454L21.518 11.4595C21.5913 11.5296 21.6496 11.6137 21.6895 11.707C21.7294 11.8002 21.7499 11.9005 21.7499 12.0019C21.7499 12.1033 21.7294 12.2036 21.6895 12.2968C21.6496 12.39 21.5913 12.4742 21.518 12.5442L13.268 20.4192C13.1618 20.5207 13.0281 20.5887 12.8836 20.6148C12.7391 20.641 12.5901 20.6241 12.4551 20.5664C12.32 20.5086 12.2049 20.4125 12.124 20.2899C12.0431 20.1674 12 20.0237 12 19.8769V16.1377C9.89062 16.2014 8.29687 16.5431 7.02797 17.1989C5.65687 17.9077 4.66266 18.9666 3.59109 20.3395C3.49496 20.4626 3.3628 20.5526 3.21306 20.597C3.06331 20.6414 2.90345 20.6379 2.75578 20.587V20.5861Z"
          fill="#1F1D25"/>
</svg>
