<svg width="24" height="24" viewBox="0 0 24 24" fill="none" xmlns="http://www.w3.org/2000/svg">
    <path d="M20.9995 20.6247C20.8856 20.6247 20.7731 20.5987 20.6707 20.5488C20.5683 20.4988 20.4786 20.4262 20.4084 20.3364C19.3369 18.9644 18.3427 17.9054 16.9716 17.1958C15.7027 16.5409 14.1089 16.1992 11.9995 16.1354V19.8747C11.9991 20.0211 11.9558 20.1641 11.875 20.2862C11.7943 20.4083 11.6795 20.5041 11.545 20.5617C11.4104 20.6194 11.2619 20.6364 11.1178 20.6107C10.9737 20.585 10.8402 20.5177 10.7339 20.417L2.48392 12.542C2.4106 12.472 2.35225 12.3878 2.31238 12.2946C2.27251 12.2014 2.25195 12.101 2.25195 11.9997C2.25195 11.8983 2.27251 11.7979 2.31238 11.7047C2.35225 11.6115 2.4106 11.5273 2.48392 11.4573L10.7339 3.58232C10.8402 3.48167 10.9737 3.41434 11.1178 3.38862C11.2619 3.3629 11.4104 3.37992 11.545 3.43758C11.6795 3.49524 11.7943 3.59102 11.875 3.71312C11.9558 3.83521 11.9991 3.97827 11.9995 4.12466V7.89154C15.4749 8.05138 18.0642 9.34044 19.7034 11.7292C21.0614 13.7078 21.7495 16.4481 21.7495 19.8747C21.7495 20.0736 21.6705 20.2643 21.5299 20.405C21.3892 20.5456 21.1985 20.6247 20.9995 20.6247Z"
          fill="#1F1D25"/>
</svg>
