<svg width="24" height="24" viewBox="0 0 24 24" fill="none" xmlns="http://www.w3.org/2000/svg">
    <path d="M11.9746 2.28516C6.59148 2.28516 2.22461 6.64969 2.22461 12.0352C2.22461 17.4206 6.58961 21.7852 11.9746 21.7852C17.3596 21.7852 21.7246 17.4202 21.7246 12.0352C21.7246 6.65016 17.3582 2.28516 11.9746 2.28516ZM17.8255 11.813C17.692 13.3425 17.0385 14.1427 16.513 14.5439C15.9876 14.9452 15.3566 15.1214 14.8124 15.0239C14.5602 14.9788 14.3194 14.8843 14.1037 14.7461C13.888 14.6078 13.7016 14.4284 13.5552 14.2181C13.0037 14.7546 12.2621 15.0507 11.4927 15.0417C11.153 15.0443 10.8166 14.9754 10.5053 14.8395C10.194 14.7036 9.91472 14.5037 9.6857 14.2528C9.15227 13.6706 8.88883 12.8297 8.96758 11.9452C9.1082 10.3045 10.4165 9.255 11.6334 9.06328C12.9084 8.86219 14.0816 9.36984 14.5818 9.97547L14.7623 10.1939L14.4651 12.5555C14.4093 13.2277 14.6188 13.6561 15.0412 13.732C15.1532 13.7517 15.4209 13.7259 15.7148 13.5009C16.0298 13.2595 16.4245 12.7509 16.5163 11.6977C16.6265 10.4536 16.3124 9.39187 15.614 8.62781C14.8879 7.83562 13.7816 7.41656 12.4157 7.41656C9.88445 7.41656 7.64336 9.49922 7.41977 12.0572C7.31289 13.2853 7.68555 14.4328 8.46977 15.2883C9.23664 16.1255 10.3124 16.5886 11.5007 16.5886C12.3913 16.5886 12.9355 16.4925 13.8201 16.177C13.9841 16.1186 14.1645 16.1277 14.3218 16.2023C14.4791 16.277 14.6002 16.411 14.6587 16.575C14.7171 16.739 14.708 16.9195 14.6334 17.0767C14.5587 17.234 14.4247 17.3552 14.2607 17.4136C13.2379 17.7778 12.5413 17.9011 11.5007 17.9011C9.9407 17.9011 8.52086 17.2889 7.50227 16.1775C6.46867 15.0473 5.97273 13.5445 6.11242 11.9452C6.24883 10.3828 6.97727 8.91562 8.16414 7.81453C9.35102 6.71344 10.8627 6.10406 12.4157 6.10406C14.1595 6.10406 15.5999 6.67031 16.5815 7.74141C17.5232 8.76844 17.9648 10.2141 17.8255 11.813Z"
          fill="#1F1D25"/>
    <path d="M11.8393 10.3582C11.1441 10.4674 10.3599 11.1007 10.2765 12.0579C10.2296 12.5763 10.3702 13.0526 10.6547 13.3643C10.7608 13.4811 10.8905 13.5739 11.0353 13.6366C11.1801 13.6992 11.3365 13.7302 11.4943 13.7276C12.4463 13.7276 13.1222 13.0273 13.2169 11.9435C13.2198 11.9108 13.2251 11.8784 13.2329 11.8465L13.3829 10.6535C12.9182 10.3789 12.3725 10.2745 11.8393 10.3582V10.3582Z"
          fill="#1F1D25"/>
</svg>
