<svg width="24" height="24" viewBox="0 0 24 24" fill="none" xmlns="http://www.w3.org/2000/svg">
    <path d="M14.9999 11.9199C14.789 14.3105 13.1193 15.6699 11.2241 15.6699C9.32897 15.6699 8.06756 13.9908 8.2499 11.9199C8.43225 9.84898 9.9899 8.16992 11.8851 8.16992C13.7802 8.16992 15.1818 9.85742 14.9999 11.9199Z"
          stroke="#1F1D25" strokeWidth="2" strokeLinecap="round" strokeLinejoin="round"/>
    <path d="M14.9891 19.4902C13.6503 20.0527 12.7728 20.1699 11.2728 20.1699C6.71659 20.1699 3.35096 16.4762 3.74987 11.9199C4.14878 7.36367 8.17065 3.66992 12.7269 3.66992C17.8592 3.66992 20.6807 7.03227 20.2841 11.5323C19.9883 14.8918 17.8414 15.8598 16.7174 15.6605C15.6599 15.473 14.7871 14.5159 14.9483 12.684L15.3458 8.17227"
          stroke="#1F1D25" strokeWidth="2" strokeLinecap="round" strokeLinejoin="round"/>
</svg>
