<svg width="24" height="24" viewBox="0 0 24 24" fill="none" xmlns="http://www.w3.org/2000/svg">
    <path d="M18.3279 14.4037C19.863 12.2311 20.5118 9.63982 20.156 7.10622C20.0051 6.03448 19.6446 5.00295 19.095 4.07053C18.5455 3.13811 17.8176 2.32307 16.9531 1.67194C16.0886 1.02081 15.1042 0.546346 14.0563 0.275635C13.0084 0.00492412 11.9174 -0.05673 10.8457 0.0941929C6.34567 0.726537 3.19848 4.90263 3.83083 9.40263C4.18567 11.9287 5.52395 14.2383 7.59817 15.9061C8.75036 16.8286 10.0502 17.4764 11.2835 17.7661C11.3767 17.7885 11.4579 17.8458 11.5102 17.9262C11.5625 18.0065 11.582 18.1039 11.5647 18.1983L11.3365 19.4348C11.3033 19.6031 11.3277 19.7776 11.4058 19.9303C11.4692 20.052 11.5648 20.154 11.6822 20.2252C11.7995 20.2964 11.9342 20.334 12.0715 20.3339C12.1064 20.3339 12.1414 20.3314 12.176 20.3264L13.0108 20.2092C13.0307 20.2064 13.051 20.2101 13.0686 20.2197C13.0863 20.2294 13.1003 20.2444 13.1088 20.2626C13.8925 21.9647 15.2397 23.2556 16.9596 23.9358C17.0537 23.9729 17.1544 23.9907 17.2556 23.9879C17.3568 23.9852 17.4564 23.962 17.5483 23.9197C17.6403 23.8775 17.7228 23.817 17.7908 23.742C17.8588 23.667 17.9109 23.5791 17.944 23.4834C18.0766 23.1 17.8671 22.6833 17.4902 22.5328C16.3135 22.0627 15.3328 21.2047 14.7105 20.1009C14.7026 20.0876 14.6982 20.0726 14.6975 20.0571C14.6969 20.0417 14.7001 20.0263 14.7068 20.0124C14.7135 19.9985 14.7236 19.9864 14.7361 19.9773C14.7486 19.9682 14.7632 19.9624 14.7785 19.9603L15.1254 19.9134C15.3069 19.89 15.4742 19.8032 15.5979 19.6683C15.6979 19.5564 15.762 19.417 15.782 19.2683C15.802 19.1195 15.7768 18.9682 15.7099 18.8339L15.1446 17.6981C15.1016 17.6118 15.0935 17.5123 15.122 17.4202C15.1504 17.3282 15.2133 17.2506 15.2974 17.2036C16.4032 16.5862 17.4747 15.6098 18.3279 14.4037ZM11.0669 15.1903C10.9726 15.1903 10.8791 15.1725 10.7913 15.1378C8.85723 14.3728 7.21473 12.6675 6.50458 10.6875C6.46997 10.5945 6.45416 10.4955 6.45808 10.3963C6.462 10.2972 6.48556 10.1998 6.52739 10.1098C6.56923 10.0198 6.62851 9.93898 6.7018 9.87206C6.77509 9.80515 6.86093 9.75344 6.95435 9.71994C7.04777 9.68645 7.14691 9.67182 7.24603 9.67692C7.34514 9.68202 7.44225 9.70674 7.53174 9.74964C7.62123 9.79255 7.70132 9.85279 7.76736 9.92687C7.83339 10.001 7.88407 10.0874 7.91645 10.1812C8.59614 12.0768 10.1322 13.2642 11.343 13.7437C11.5054 13.8079 11.6403 13.9267 11.7245 14.0797C11.8086 14.2327 11.8368 14.4102 11.8041 14.5817C11.7714 14.7533 11.6798 14.908 11.5453 15.0192C11.4107 15.1305 11.2415 15.1913 11.0669 15.1912V15.1903Z"
          fill="#1F1D25"/>
</svg>
