<svg width="24" height="24" viewBox="0 0 24 24" fill="none" xmlns="http://www.w3.org/2000/svg">
    <path d="M12.9283 7.3584C12.8586 7.28874 12.776 7.23348 12.685 7.19578C12.5939 7.15808 12.4964 7.13867 12.3979 7.13867C12.2994 7.13867 12.2019 7.15808 12.1109 7.19578C12.0198 7.23348 11.9372 7.28874 11.8675 7.3584L7.49219 11.7337C7.42253 11.8034 7.36727 11.886 7.32957 11.977C7.29187 12.0681 7.27246 12.1656 7.27246 12.2641C7.27246 12.3626 7.29187 12.4601 7.32957 12.5511C7.36727 12.6422 7.42253 12.7248 7.49219 12.7945L11.2047 16.507C11.2743 16.5766 11.357 16.6319 11.448 16.6696C11.539 16.7073 11.6366 16.7267 11.7351 16.7267C11.8336 16.7267 11.9311 16.7073 12.0221 16.6696C12.1131 16.6319 12.1958 16.5766 12.2655 16.507L16.6408 12.1317C16.7105 12.062 16.7657 11.9793 16.8034 11.8883C16.8411 11.7973 16.8605 11.6998 16.8605 11.6013C16.8605 11.5028 16.8411 11.4052 16.8034 11.3142C16.7657 11.2232 16.7105 11.1405 16.6408 11.0709L12.9283 7.3584ZM10.2803 12.5292C10.1755 12.6341 10.0418 12.7056 9.89632 12.7346C9.75082 12.7636 9.59999 12.7487 9.46292 12.692C9.32584 12.6352 9.20868 12.5391 9.12625 12.4157C9.04381 12.2924 8.99982 12.1474 8.99982 11.999C8.99982 11.8507 9.04381 11.7056 9.12625 11.5823C9.20868 11.4589 9.32584 11.3628 9.46292 11.3061C9.59999 11.2493 9.75082 11.2345 9.89632 11.2635C10.0418 11.2924 10.1755 11.3639 10.2803 11.4689C10.4209 11.6095 10.4998 11.8002 10.4998 11.999C10.4998 12.1978 10.4209 12.3885 10.2803 12.5292V12.5292ZM12.5303 14.7792C12.4255 14.8841 12.2918 14.9556 12.1463 14.9846C12.0008 15.0135 11.85 14.9987 11.7129 14.942C11.5758 14.8852 11.4587 14.7891 11.3763 14.6657C11.2938 14.5424 11.2498 14.3974 11.2498 14.249C11.2498 14.1007 11.2938 13.9556 11.3763 13.8323C11.4587 13.7089 11.5758 13.6128 11.7129 13.5561C11.85 13.4993 12.0008 13.4845 12.1463 13.5135C12.2918 13.5424 12.4255 13.6139 12.5303 13.7189C12.6709 13.8595 12.7498 14.0502 12.7498 14.249C12.7498 14.4478 12.6709 14.6385 12.5303 14.7792V14.7792ZM12.5303 10.2792C12.4255 10.3841 12.2918 10.4556 12.1463 10.4846C12.0008 10.5136 11.85 10.4987 11.7129 10.442C11.5758 10.3852 11.4587 10.2891 11.3763 10.1658C11.2938 10.0424 11.2498 9.89738 11.2498 9.74902C11.2498 9.60067 11.2938 9.45564 11.3763 9.33229C11.4587 9.20895 11.5758 9.11282 11.7129 9.05607C11.85 8.99932 12.0008 8.98449 12.1463 9.01347C12.2918 9.04245 12.4255 9.11393 12.5303 9.21887C12.6709 9.35951 12.7498 9.5502 12.7498 9.74902C12.7498 9.94785 12.6709 10.1385 12.5303 10.2792ZM14.7803 12.5292C14.6755 12.6341 14.5418 12.7056 14.3963 12.7346C14.2508 12.7636 14.1 12.7487 13.9629 12.692C13.8259 12.6352 13.7087 12.5391 13.6263 12.4157C13.5438 12.2924 13.4998 12.1474 13.4998 11.999C13.4998 11.8507 13.5438 11.7056 13.6263 11.5823C13.7087 11.4589 13.8259 11.3628 13.9629 11.3061C14.1 11.2493 14.2508 11.2345 14.3963 11.2635C14.5418 11.2924 14.6755 11.3639 14.7803 11.4689C14.9209 11.6095 14.9998 11.8002 14.9998 11.999C14.9998 12.1978 14.9209 12.3885 14.7803 12.5292V12.5292Z"
          fill="#1F1D25"/>
    <path d="M21.8255 2.17453C20.9086 1.26217 19.6677 0.75 18.3743 0.75C17.0808 0.75 15.84 1.26217 14.9231 2.17453L11.6531 5.45062C11.6231 5.48084 11.6043 5.52039 11.5997 5.56274C11.5952 5.6051 11.6052 5.64774 11.6281 5.68365C11.651 5.71956 11.6855 5.74659 11.7258 5.7603C11.7661 5.77401 11.8099 5.77357 11.85 5.75906C12.0247 5.68887 12.2099 5.64862 12.398 5.64C12.6935 5.63924 12.9863 5.6971 13.2594 5.81023C13.5325 5.92335 13.7804 6.0895 13.9889 6.29906L17.7009 10.0111C17.9105 10.2196 18.0766 10.4675 18.1898 10.7406C18.3029 11.0137 18.3607 11.3065 18.36 11.602C18.3514 11.7901 18.3112 11.9754 18.2409 12.15C18.2264 12.1901 18.226 12.2339 18.2397 12.2742C18.2534 12.3145 18.2804 12.349 18.3163 12.3719C18.3522 12.3948 18.3949 12.4048 18.4372 12.4003C18.4796 12.3957 18.5191 12.3769 18.5494 12.3469L21.8255 9.07688C22.7378 8.16 23.25 6.91916 23.25 5.6257C23.25 4.33224 22.7378 3.0914 21.8255 2.17453V2.17453Z"
          fill="#1F1D25"/>
    <path d="M11.9223 18.1326C11.627 18.1332 11.3345 18.0756 11.0615 17.963C10.7885 17.8504 10.5404 17.685 10.3314 17.4764L6.61933 13.7625C6.43703 13.5804 6.2875 13.3682 6.1773 13.1353C5.96215 12.6806 6.11215 11.9634 6.29355 11.4056C6.30556 11.3657 6.30394 11.323 6.28895 11.2841C6.27396 11.2452 6.24645 11.2125 6.21076 11.191C6.17508 11.1695 6.13325 11.1605 6.09188 11.1654C6.05051 11.1703 6.01195 11.1888 5.9823 11.2181L2.36214 14.8294C1.44683 15.7447 0.932617 16.9861 0.932617 18.2805C0.932617 19.575 1.44683 20.8164 2.36214 21.7317C3.27745 22.647 4.51888 23.1612 5.81332 23.1612C7.10776 23.1612 8.34918 22.647 9.26449 21.7317L12.6747 18.3155C12.7048 18.2852 12.7237 18.2456 12.7283 18.2032C12.7329 18.1607 12.7229 18.118 12.6998 18.082C12.6768 18.046 12.6422 18.019 12.6018 18.0054C12.5613 17.9917 12.5174 17.9923 12.4773 18.007C12.2814 18.0811 12.0836 18.1326 11.9223 18.1326Z"
          fill="#1F1D25"/>
</svg>
