<svg width="24" height="24" viewBox="0 0 24 24" fill="none" xmlns="http://www.w3.org/2000/svg">
    <path d="M20.8125 13.8592L20.7905 12.6372C20.1712 12.6227 19.5547 12.5484 18.9497 12.4155L18.7153 13.2288C18.693 13.3134 18.6539 13.3927 18.6004 13.462C18.547 13.5313 18.4802 13.5892 18.404 13.6323C18.3278 13.6754 18.2438 13.7028 18.1568 13.713C18.0699 13.7231 17.9818 13.7157 17.8977 13.6913C17.8137 13.6669 17.7354 13.6259 17.6674 13.5708C17.5994 13.5156 17.5431 13.4474 17.5019 13.3702C17.4607 13.293 17.4353 13.2083 17.4273 13.1211C17.4193 13.034 17.4288 12.9461 17.4553 12.8627L17.6897 12.048C17.1014 11.8322 16.5355 11.5598 15.9998 11.2347L15.5105 11.927C15.41 12.0692 15.2572 12.1656 15.0857 12.1951C14.9141 12.2246 14.7379 12.1847 14.5957 12.0843C14.4535 11.9838 14.3571 11.831 14.3276 11.6595C14.2981 11.4879 14.338 11.3117 14.4384 11.1695L14.9264 10.4791C14.4102 10.0603 13.939 9.58898 13.5202 9.07281L12.8302 9.56219C12.7598 9.61193 12.6803 9.64731 12.5962 9.66633C12.5121 9.68534 12.4251 9.68761 12.3402 9.67301C12.2553 9.65841 12.174 9.62721 12.1011 9.58122C12.0282 9.53522 11.9651 9.47531 11.9154 9.40492C11.8657 9.33453 11.8303 9.25503 11.8113 9.17097C11.7922 9.0869 11.79 8.99991 11.8046 8.91497C11.8341 8.74342 11.9305 8.59061 12.0727 8.49016L12.7636 8.00172C12.4376 7.46617 12.1648 6.90004 11.9489 6.31141L11.137 6.54578C11.0543 6.56982 10.9676 6.57732 10.8819 6.56786C10.7963 6.55839 10.7133 6.53215 10.6378 6.49062C10.5623 6.4491 10.4957 6.39311 10.4418 6.32584C10.3879 6.25858 10.3478 6.18136 10.3238 6.09859C10.2997 6.01583 10.2922 5.92914 10.3017 5.84348C10.3111 5.75782 10.3374 5.67486 10.3789 5.59934C10.4204 5.52382 10.4764 5.45722 10.5437 5.40334C10.611 5.34945 10.6882 5.30935 10.7709 5.28531L11.5819 5.05094C11.472 4.54807 11.4026 4.03722 11.3742 3.52328V3.52328C11.3689 3.42953 11.3652 3.33578 11.363 3.24203L10.5089 3.22656C10.337 3.22337 10.1732 3.15282 10.0527 3.0301C9.93228 2.90737 9.86481 2.74227 9.86484 2.57031C8.13672 2.95336 6.54547 3.79962 5.26177 5.01833C3.97807 6.23703 3.05035 7.78221 2.57812 9.48813C2.76608 9.49986 2.94274 9.58188 3.07301 9.71787C3.20328 9.85387 3.27761 10.0339 3.28125 10.2222L3.30188 11.3673C3.37594 11.3697 3.45 11.3725 3.52359 11.3767C4.03754 11.4051 4.54838 11.4745 5.05125 11.5844L5.28563 10.7734C5.33417 10.6063 5.44713 10.4653 5.59965 10.3814C5.75217 10.2975 5.93176 10.2777 6.09891 10.3263C6.26605 10.3748 6.40707 10.4878 6.49094 10.6403C6.5748 10.7928 6.59464 10.9724 6.54609 11.1395L6.31172 11.9514C6.89939 12.1674 7.46457 12.4403 7.99922 12.7661L8.48438 12.0752C8.58483 11.933 8.73764 11.8366 8.90919 11.8071C9.08074 11.7776 9.25698 11.8174 9.39914 11.9179C9.5413 12.0183 9.63773 12.1712 9.66723 12.3427C9.69672 12.5143 9.65686 12.6905 9.55641 12.8327L9.06937 13.5231C9.32743 13.7326 9.57448 13.9552 9.80953 14.1902C10.0446 14.4251 10.2672 14.6722 10.4766 14.9303L11.167 14.4423C11.3093 14.3419 11.4857 14.3021 11.6573 14.3317C11.829 14.3612 11.9818 14.4578 12.0823 14.6001C12.1827 14.7424 12.2225 14.9187 12.193 15.0904C12.1634 15.262 12.0668 15.4149 11.9245 15.5153L11.2327 16.0042C11.558 16.5397 11.8307 17.1055 12.0469 17.6936L12.8616 17.4569C13.0287 17.4083 13.2083 17.4282 13.3608 17.512C13.5133 17.5959 13.6263 17.7369 13.6748 17.9041C13.7234 18.0712 13.7036 18.2508 13.6197 18.4033C13.5358 18.5558 13.3948 18.6688 13.2277 18.7173L12.4144 18.9517C12.5438 19.5416 12.6176 20.1424 12.6347 20.7461L13.4911 20.7616C13.6899 20.7651 13.8792 20.8475 14.0173 20.9906C14.1554 21.1338 14.231 21.3258 14.2275 21.5247C14.2272 21.5433 14.2259 21.562 14.2238 21.5805C15.954 21.1685 17.5385 20.2911 18.8059 19.0432C20.0733 17.7953 20.9751 16.2246 21.4139 14.5009C21.252 14.4874 21.1009 14.4143 20.9898 14.2957C20.8787 14.1772 20.8155 14.0217 20.8125 13.8592V13.8592Z"
          fill="#1F1D25"/>
    <path d="M14.1322 2.635C14.1298 2.80734 14.0596 2.97179 13.9369 3.09283C13.8142 3.21386 13.6488 3.28177 13.4764 3.28188H13.4647L12.6768 3.26781C12.6791 3.32922 12.6814 3.39062 12.6847 3.45203C12.7079 3.86655 12.7618 4.27878 12.846 4.68531L13.6096 4.46312C13.7713 4.42941 13.9398 4.45793 14.0814 4.54298C14.223 4.62803 14.3273 4.76336 14.3735 4.92196C14.4198 5.08055 14.4045 5.25074 14.3307 5.39856C14.257 5.54637 14.1302 5.66094 13.9757 5.71938L13.213 5.94109C13.3835 6.39095 13.5926 6.82522 13.8379 7.23906L14.4866 6.78062C14.557 6.73089 14.6365 6.6955 14.7206 6.67649C14.8046 6.65747 14.8916 6.6552 14.9766 6.6698C15.0615 6.68441 15.1427 6.7156 15.2156 6.7616C15.2885 6.8076 15.3516 6.8675 15.4014 6.93789C15.4511 7.00828 15.4865 7.08778 15.5055 7.17185C15.5245 7.25591 15.5268 7.3429 15.5122 7.42784C15.4976 7.51279 15.4664 7.59402 15.4204 7.66691C15.3744 7.7398 15.3145 7.80292 15.2441 7.85266L14.5944 8.31156C14.7585 8.50938 14.9322 8.69984 15.1157 8.88297C15.2985 9.06625 15.4907 9.23922 15.6875 9.40328L16.146 8.75453C16.196 8.68414 16.2594 8.62429 16.3325 8.5784C16.4057 8.53251 16.4871 8.50147 16.5723 8.48706C16.6574 8.47265 16.7446 8.47516 16.8287 8.49443C16.9129 8.5137 16.9925 8.54936 17.0629 8.59937C17.1332 8.64939 17.1931 8.71278 17.239 8.78592C17.2849 8.85907 17.3159 8.94054 17.3303 9.02568C17.3447 9.11082 17.3422 9.19796 17.323 9.28214C17.3037 9.36631 17.268 9.44586 17.218 9.51625L16.7605 10.1631C17.1743 10.4082 17.6084 10.6173 18.058 10.788L18.2811 10.0248C18.3297 9.8577 18.4426 9.71668 18.5952 9.63281C18.7477 9.54895 18.9273 9.52911 19.0944 9.57766C19.2616 9.6262 19.4026 9.73916 19.4864 9.89168C19.5703 10.0442 19.5901 10.2238 19.5416 10.3909L19.3199 11.1531C19.7975 11.2525 20.283 11.3098 20.7707 11.3242L20.7632 10.9023C20.7602 10.7284 20.8264 10.5603 20.9472 10.4351C21.0681 10.31 21.2337 10.2379 21.4077 10.2348H21.4194C21.4602 10.2351 21.5008 10.2391 21.5408 10.2466C21.1834 8.38804 20.2928 6.67372 18.9777 5.31273C17.6626 3.95174 15.9798 3.00292 14.1346 2.58203C14.1318 2.60078 14.1327 2.61766 14.1322 2.635Z"
          fill="#1F1D25"/>
    <path d="M9.77074 21.4473C9.77432 21.2484 9.85672 21.0591 9.99982 20.921C10.1429 20.783 10.335 20.7073 10.5339 20.7109L11.3195 20.7245C11.3026 20.2525 11.2459 19.7829 11.1498 19.3205L10.3876 19.5418C10.3048 19.5658 10.2181 19.5733 10.1324 19.5639C10.0467 19.5544 9.96374 19.5281 9.8882 19.4866C9.81265 19.445 9.74603 19.389 9.69214 19.3217C9.63825 19.2544 9.59814 19.1772 9.5741 19.0944C9.55006 19.0116 9.54257 18.9249 9.55204 18.8392C9.56152 18.7535 9.58778 18.6705 9.62933 18.595C9.67087 18.5194 9.72689 18.4528 9.79419 18.3989C9.86148 18.345 9.93873 18.3049 10.0215 18.2809L10.7814 18.0605C10.6109 17.6108 10.4018 17.1767 10.1565 16.763L9.50965 17.2205C9.43926 17.2703 9.35976 17.3057 9.27569 17.3247C9.19163 17.3437 9.10464 17.346 9.0197 17.3314C8.93475 17.3168 8.85352 17.2856 8.78063 17.2396C8.70774 17.1936 8.64462 17.1337 8.59488 17.0633C8.54514 16.9929 8.50976 16.9134 8.49074 16.8293C8.47173 16.7453 8.46946 16.6583 8.48406 16.5733C8.49867 16.4884 8.52986 16.4071 8.57585 16.3343C8.62185 16.2614 8.68176 16.1983 8.75215 16.1485L9.4009 15.6901C9.23684 15.4923 9.06387 15.301 8.88059 15.1182C8.6973 14.9354 8.50559 14.761 8.30918 14.597L7.85027 15.2466C7.74982 15.3888 7.59701 15.4852 7.42546 15.5147C7.25391 15.5442 7.07767 15.5044 6.93551 15.4039C6.79335 15.3035 6.69691 15.1506 6.66742 14.9791C6.63793 14.8075 6.67779 14.6313 6.77824 14.4891L7.23668 13.8404C6.82294 13.5949 6.38865 13.3858 5.93871 13.2155L5.71887 13.9782C5.67032 14.1454 5.55734 14.2865 5.40477 14.3704C5.25221 14.4543 5.07256 14.4742 4.90535 14.4256C4.73814 14.3771 4.59706 14.2641 4.51316 14.1115C4.42925 13.959 4.40938 13.7793 4.45793 13.6121L4.67965 12.8485C4.27316 12.764 3.86091 12.7101 3.44637 12.6873C3.40465 12.6849 3.36246 12.6835 3.32074 12.6816L3.32824 13.178C3.33175 13.3769 3.25615 13.569 3.11805 13.7121C2.97996 13.8552 2.79068 13.9376 2.59184 13.9412H2.57824C2.51593 13.9409 2.45388 13.9329 2.39355 13.9173C2.74681 15.7767 3.63366 17.4932 4.94588 18.8572C6.25811 20.2212 7.93898 21.1738 9.7834 21.5987C9.77397 21.5488 9.76973 21.498 9.77074 21.4473Z"
          fill="#1F1D25"/>
</svg>
