<svg width="24" height="24" viewBox="0 0 24 24" fill="none" xmlns="http://www.w3.org/2000/svg">
    <path d="M11.9998 10.9391L13.6147 9.32422C12.0971 7.56077 11.2634 5.31092 11.2653 2.98438C11.2653 2.75 11.2742 2.51328 11.2906 2.28125C9.21307 2.42765 7.23769 3.23834 5.65625 4.59359L11.9998 10.9391Z"
          fill="#1F1D25"/>
    <path d="M14.6782 8.26039L18.3433 4.59336C16.7848 3.25743 14.8429 2.45 12.7966 2.28711C12.7774 2.5168 12.7666 2.7493 12.7666 2.98414C12.7647 4.91275 13.4414 6.78056 14.6782 8.26039V8.26039Z"
          fill="#1F1D25"/>
    <path d="M15.7393 9.3214C17.2189 10.5587 19.0867 11.2359 21.0155 11.2344C21.2499 11.2344 21.4843 11.2236 21.7125 11.2044C21.5499 9.15762 20.7425 7.21516 19.4063 5.65625L15.7393 9.3214Z"
          fill="#1F1D25"/>
    <path d="M8.26039 14.6786C6.78079 13.4412 4.91294 12.764 2.98414 12.7656C2.74914 12.7656 2.5168 12.7756 2.28711 12.7956C2.44971 14.8424 3.25716 16.7848 4.59336 18.3438L8.26039 14.6786Z"
          fill="#1F1D25"/>
    <path d="M11.9996 13.0605L10.3848 14.6754C11.9024 16.4388 12.7361 18.6887 12.7341 21.0152C12.7341 21.2496 12.7252 21.4863 12.7088 21.7184C14.7864 21.5721 16.7618 20.7614 18.3432 19.406L11.9996 13.0605Z"
          fill="#1F1D25"/>
    <path d="M21.0152 12.7341C18.6887 12.7361 16.4388 11.9024 14.6754 10.3848L13.0605 11.9996L19.406 18.3432C20.7623 16.7621 21.574 14.7867 21.7212 12.7088C21.4863 12.7252 21.2515 12.7341 21.0152 12.7341Z"
          fill="#1F1D25"/>
    <path d="M10.9389 11.9998L4.59348 5.65625C3.23712 7.23727 2.42541 9.21271 2.27832 11.2906C2.5127 11.2742 2.74707 11.2653 2.98145 11.2653C5.30799 11.2634 7.55784 12.0971 9.32129 13.6147L10.9389 11.9998Z"
          fill="#1F1D25"/>
    <path d="M5.65625 19.4073C7.21478 20.7432 9.15671 21.5506 11.203 21.7135C11.2227 21.4838 11.2327 21.2515 11.233 21.0165C11.2346 19.0877 10.5574 17.2198 9.32 15.7402L5.65625 19.4073Z"
          fill="#1F1D25"/>
</svg>
