<svg width="24" height="24" viewBox="0 0 24 24" fill="none" xmlns="http://www.w3.org/2000/svg">
    <path d="M18.1078 6.75H3.64219C2.45909 6.75 1.5 7.70909 1.5 8.89219V15.1078C1.5 16.2909 2.45909 17.25 3.64219 17.25H18.1078C19.2909 17.25 20.25 16.2909 20.25 15.1078V8.89219C20.25 7.70909 19.2909 6.75 18.1078 6.75Z"
          stroke="#1F1D25" strokeWidth="2" stroke-miterlimit="10" strokeLinecap="square"/>
    <path d="M11.0624 9.32422H4.2041C4.10055 9.32422 4.0166 9.40817 4.0166 9.51172V14.4866C4.0166 14.5901 4.10055 14.6741 4.2041 14.6741H11.0624C11.1659 14.6741 11.2499 14.5901 11.2499 14.4866V9.51172C11.2499 9.40817 11.1659 9.32422 11.0624 9.32422Z"
          fill="#1F1D25" stroke="#1F1D25" strokeWidth="2" stroke-miterlimit="10" strokeLinecap="square"/>
    <path d="M22.5 10.25V13.7497" stroke="#1F1D25" strokeWidth="2" stroke-miterlimit="10" strokeLinecap="round"/>
</svg>
