<svg width="24" height="24" viewBox="0 0 24 24" fill="none" xmlns="http://www.w3.org/2000/svg">
    <path d="M2.25 15.1078V8.89219C2.2505 8.52311 2.39733 8.16929 2.65831 7.90831C2.91929 7.64733 3.27311 7.5005 3.64219 7.5H10.0847L11.2284 6H3.64219C2.8754 6.00087 2.14026 6.30586 1.59806 6.84806C1.05586 7.39026 0.750868 8.1254 0.75 8.89219V15.1078C0.750868 15.8746 1.05586 16.6097 1.59806 17.1519C2.14026 17.6941 2.8754 17.9991 3.64219 18H8.18203C8.16738 17.8857 8.1715 17.7698 8.19422 17.6569L8.20125 17.6217L8.21109 17.5875L8.51578 16.5H3.64219C3.27311 16.4995 2.91929 16.3527 2.65831 16.0917C2.39733 15.8307 2.2505 15.4769 2.25 15.1078V15.1078Z"
          fill="#1F1D25"/>
    <path d="M18.108 6H13.4842C13.498 6.11246 13.4937 6.22639 13.4716 6.3375L13.4645 6.37219L13.4547 6.40641L13.1481 7.5H18.108C18.4771 7.5005 18.8309 7.64733 19.0919 7.90831C19.3528 8.16929 19.4997 8.52311 19.5002 8.89219V15.1078C19.4997 15.4769 19.3528 15.8307 19.0919 16.0917C18.8309 16.3527 18.4771 16.4995 18.108 16.5H11.5783L10.4336 18H18.108C18.8748 17.9991 19.6099 17.6941 20.1521 17.1519C20.6943 16.6097 20.9993 15.8746 21.0002 15.1078V8.89219C20.9993 8.1254 20.6943 7.39026 20.1521 6.84806C19.6099 6.30586 18.8748 6.00087 18.108 6V6Z"
          fill="#1F1D25"/>
    <path d="M7.6241 13.7888C7.41613 13.7888 7.2121 13.7321 7.034 13.6247C6.85591 13.5173 6.7105 13.3633 6.61348 13.1794C6.5131 12.9907 6.46624 12.7781 6.47798 12.5647C6.48971 12.3513 6.55958 12.1452 6.68004 11.9686L6.69457 11.947L6.71004 11.9264L9.26332 8.57812H4.2041C3.95546 8.57812 3.717 8.6769 3.54119 8.85271C3.36537 9.02853 3.2666 9.26698 3.2666 9.51562V14.4844C3.2666 14.733 3.36537 14.9715 3.54119 15.1473C3.717 15.3231 3.95546 15.4219 4.2041 15.4219H8.81754L9.27598 13.7878L7.6241 13.7888Z"
          fill="#1F1D25"/>
    <path d="M12.9413 13.167L14.2102 11.5034C14.2281 11.4763 14.2403 11.4458 14.2463 11.4139C14.2482 11.4037 14.2495 11.3933 14.25 11.3829C14.2514 11.3627 14.2501 11.3424 14.2463 11.3225C14.2408 11.2934 14.23 11.2656 14.2144 11.2404C14.2042 11.2241 14.1919 11.2091 14.1778 11.1959C14.1709 11.1893 14.1634 11.1834 14.1553 11.1781C14.1394 11.1669 14.1219 11.1582 14.1033 11.1523C14.0835 11.146 14.0627 11.1429 14.0419 11.1429H11.1535L11.7216 9.11747L11.873 8.57841L12.1641 7.53966L12.188 7.45341L12.5532 6.15216C12.5546 6.14364 12.5554 6.13502 12.5555 6.12638C12.5555 6.12356 12.5555 6.12122 12.5555 6.11888C12.5555 6.11653 12.5555 6.10669 12.5532 6.10106C12.5508 6.09544 12.5532 6.09684 12.5532 6.0945C12.5513 6.0872 12.5486 6.08013 12.5452 6.07341C12.5415 6.06707 12.5374 6.06096 12.533 6.05513L12.5288 6.05044C12.5251 6.04661 12.5212 6.043 12.5171 6.03966L12.5124 6.03591C12.5066 6.03172 12.5005 6.02796 12.4941 6.02466V6.02466C12.488 6.02178 12.4815 6.01958 12.4749 6.0181H12.4688H12.4533H12.4472C12.4402 6.01741 12.4331 6.01741 12.4261 6.0181V6.0181C12.4193 6.01966 12.4127 6.02202 12.4064 6.02513L12.4004 6.02841L12.3863 6.03825L12.3811 6.04294C12.3748 6.04868 12.3691 6.05513 12.3643 6.06216V6.06216L11.5205 7.16981L10.9046 7.977L10.4429 8.57841L7.45646 12.4948C7.44859 12.5067 7.4417 12.5193 7.43583 12.5323C7.42833 12.5486 7.42283 12.5658 7.41943 12.5834C7.4154 12.6033 7.41413 12.6236 7.41567 12.6439C7.41725 12.678 7.42649 12.7114 7.44272 12.7415C7.45895 12.7716 7.48175 12.7977 7.50942 12.8178C7.51753 12.8232 7.52599 12.828 7.53474 12.8323C7.56235 12.8457 7.59265 12.8526 7.62333 12.8525H10.5118L9.11395 17.8409C9.11328 17.8496 9.11328 17.8584 9.11395 17.8672C9.11395 17.8672 9.11395 17.8718 9.11395 17.8742C9.1144 17.8802 9.11534 17.8862 9.11676 17.892C9.1165 17.8942 9.1165 17.8964 9.11676 17.8986C9.11864 17.9059 9.12131 17.9129 9.12473 17.9197V17.9197C9.12841 17.9258 9.13248 17.9318 9.13692 17.9375L9.14114 17.9422L9.15286 17.9534C9.15462 17.9544 9.1562 17.9557 9.15755 17.9572C9.16326 17.9614 9.16938 17.965 9.17583 17.9679C9.18206 17.9706 9.18848 17.9728 9.19505 17.9745H9.20114C9.20629 17.975 9.21146 17.975 9.21661 17.9745H9.2227C9.22981 17.9743 9.23687 17.9733 9.2438 17.9717V17.9717C9.25045 17.9699 9.2569 17.9674 9.26301 17.9642L9.26911 17.9609L9.28317 17.9511L9.28833 17.9468C9.29466 17.9411 9.30033 17.9347 9.3052 17.9276V17.9276L10.3983 16.5003L11.22 15.4222L12.9413 13.167Z"
          fill="#1F1D25"/>
    <path d="M14.9767 12.0436L14.9551 12.0717L12.399 15.4219H17.5459C17.7945 15.4219 18.033 15.3231 18.2088 15.1473C18.3846 14.9715 18.4834 14.733 18.4834 14.4844V9.51562C18.4834 9.26698 18.3846 9.02853 18.2088 8.85271C18.033 8.6769 17.7945 8.57812 17.5459 8.57812H12.8462L12.3896 10.2061H14.0415C14.2475 10.2058 14.4498 10.2614 14.6268 10.3667C14.8038 10.4721 14.949 10.6235 15.047 10.8047C15.1488 10.9917 15.1982 11.2028 15.19 11.4156C15.1817 11.6284 15.1161 11.835 15.0001 12.0136L14.9767 12.0436Z"
          fill="#1F1D25"/>
    <path d="M22.5 9.5C22.3011 9.5 22.1103 9.57902 21.9697 9.71967C21.829 9.86032 21.75 10.0511 21.75 10.25V13.7497C21.75 13.9486 21.829 14.1394 21.9697 14.28C22.1103 14.4207 22.3011 14.4997 22.5 14.4997C22.6989 14.4997 22.8897 14.4207 23.0303 14.28C23.171 14.1394 23.25 13.9486 23.25 13.7497V10.25C23.25 10.0511 23.171 9.86032 23.0303 9.71967C22.8897 9.57902 22.6989 9.5 22.5 9.5Z"
          fill="#1F1D25"/>
</svg>
