<svg width="24" height="24" viewBox="0 0 24 24" fill="none" xmlns="http://www.w3.org/2000/svg">
    <path d="M18.1875 21C17.3346 21 16.5008 20.7471 15.7916 20.2732C15.0824 19.7994 14.5297 19.1258 14.2033 18.3378C13.8769 17.5498 13.7915 16.6827 13.9579 15.8462C14.1243 15.0096 14.535 14.2412 15.1381 13.6381C15.7412 13.035 16.5096 12.6243 17.3462 12.4579C18.1827 12.2915 19.0498 12.3769 19.8378 12.7033C20.6258 13.0297 21.2994 13.5824 21.7732 14.2916C22.2471 15.0008 22.5 15.8346 22.5 16.6875C22.4988 17.8309 22.044 18.927 21.2355 19.7355C20.427 20.544 19.3309 20.9988 18.1875 21V21ZM18.1875 13.875C17.6312 13.875 17.0875 14.04 16.625 14.349C16.1624 14.658 15.802 15.0973 15.5891 15.6112C15.3762 16.1251 15.3205 16.6906 15.429 17.2362C15.5376 17.7818 15.8054 18.2829 16.1988 18.6762C16.5921 19.0696 17.0932 19.3374 17.6388 19.446C18.1844 19.5545 18.7499 19.4988 19.2638 19.2859C19.7777 19.073 20.217 18.7126 20.526 18.25C20.8351 17.7875 21 17.2438 21 16.6875C20.9991 15.9418 20.7025 15.227 20.1753 14.6997C19.648 14.1725 18.9332 13.8759 18.1875 13.875V13.875Z"
          fill="#1F1D25"/>
    <path d="M5.8125 21C4.95957 21 4.12579 20.7471 3.41661 20.2732C2.70742 19.7994 2.15467 19.1258 1.82827 18.3378C1.50187 17.5498 1.41647 16.6827 1.58287 15.8462C1.74926 15.0096 2.15999 14.2412 2.7631 13.6381C3.36622 13.035 4.13463 12.6243 4.97117 12.4579C5.80772 12.2915 6.67482 12.3769 7.46282 12.7033C8.25083 13.0297 8.92435 13.5824 9.39822 14.2916C9.87208 15.0008 10.125 15.8346 10.125 16.6875C10.1238 17.8309 9.66901 18.927 8.86053 19.7355C8.05205 20.544 6.95587 20.9988 5.8125 21V21ZM5.8125 13.875C5.25624 13.875 4.71247 14.04 4.24996 14.349C3.78745 14.658 3.42696 15.0973 3.21409 15.6112C3.00122 16.1251 2.94552 16.6906 3.05404 17.2362C3.16256 17.7818 3.43043 18.2829 3.82376 18.6762C4.2171 19.0696 4.71824 19.3374 5.26381 19.446C5.80938 19.5545 6.37488 19.4988 6.8888 19.2859C7.40272 19.073 7.84197 18.7126 8.15101 18.25C8.46005 17.7875 8.625 17.2438 8.625 16.6875C8.62413 15.9418 8.32754 15.227 7.80028 14.6997C7.27302 14.1725 6.55816 13.8759 5.8125 13.875V13.875Z"
          fill="#1F1D25"/>
    <path d="M15.0002 5.9981C15.1978 5.99879 15.3935 5.9603 15.5761 5.88487C15.7587 5.80943 15.9246 5.69855 16.0641 5.55863C16.2035 5.41871 16.3139 5.25252 16.3888 5.06968C16.4636 4.88684 16.5015 4.69098 16.5002 4.49341C16.5024 4.29683 16.4654 4.10179 16.3913 3.91969C16.3172 3.73759 16.2076 3.57208 16.0688 3.43285C15.93 3.29362 15.7648 3.18346 15.583 3.10881C15.4011 3.03416 15.2062 2.99652 15.0096 2.99809C14.8126 2.99748 14.6174 3.03567 14.4352 3.11048C14.253 3.18529 14.0873 3.29527 13.9475 3.43412C13.8078 3.57297 13.6968 3.73799 13.6209 3.91974C13.5449 4.10149 13.5055 4.29643 13.5049 4.49341C13.5043 4.69039 13.5425 4.88557 13.6173 5.06779C13.6921 5.25002 13.8021 5.41572 13.9409 5.55545C14.0798 5.69517 14.2448 5.80618 14.4265 5.88213C14.6083 5.95808 14.8032 5.99749 15.0002 5.9981V5.9981Z"
          fill="#1F1D25"/>
    <path d="M17.2289 8.99442H15.1776C15.144 8.99443 15.111 8.98538 15.082 8.96822C15.0531 8.95107 15.0293 8.92644 15.0131 8.89692L13.5253 6.1702C13.4205 5.96756 13.2694 5.79246 13.0843 5.65906C12.8992 5.52566 12.6854 5.43771 12.46 5.40234C12.2346 5.36696 12.004 5.38516 11.787 5.45545C11.5699 5.52573 11.3725 5.64614 11.2106 5.80692V5.80692L7.93594 9.10692C7.66083 9.38772 7.50467 9.76384 7.5 10.1569C7.5 10.9725 8.09062 11.2632 8.36719 11.4272C9.70312 12.1969 10.6439 12.7599 11.16 13.0725C11.1874 13.0892 11.2101 13.1127 11.2259 13.1407C11.2416 13.1687 11.2499 13.2003 11.25 13.2324V16.4724C11.25 16.876 11.5603 17.2224 11.9639 17.2425C12.0652 17.2474 12.1665 17.2317 12.2616 17.1963C12.3566 17.1609 12.4436 17.1066 12.517 17.0367C12.5905 16.9668 12.6491 16.8826 12.6891 16.7894C12.7291 16.6962 12.7499 16.5959 12.75 16.4944V12.4632C12.7501 12.3441 12.7218 12.2267 12.6675 12.1208C12.6132 12.0148 12.5345 11.9233 12.4378 11.8538L10.7034 10.6064C10.6817 10.5909 10.6635 10.5708 10.6501 10.5476C10.6367 10.5244 10.6285 10.4986 10.6259 10.472C10.6233 10.4454 10.6265 10.4185 10.6352 10.3931C10.6439 10.3678 10.6579 10.3447 10.6762 10.3252L12.645 8.22567C12.6652 8.20407 12.6902 8.18755 12.718 8.17745C12.7458 8.16736 12.7755 8.16398 12.8049 8.16759C12.8342 8.1712 12.8623 8.1817 12.8868 8.19823C12.9113 8.21476 12.9316 8.23685 12.9459 8.2627L13.9687 10.1086C14.0337 10.2257 14.1289 10.3231 14.2443 10.391C14.3597 10.4588 14.4911 10.4945 14.625 10.4944H17.25C17.3516 10.4945 17.4522 10.474 17.5456 10.4341C17.639 10.3942 17.7234 10.3357 17.7935 10.2621C17.8636 10.1886 17.9181 10.1016 17.9536 10.0064C17.9891 9.91123 18.0049 9.80981 18 9.70832C17.9803 9.30473 17.6325 8.99442 17.2289 8.99442Z"
          fill="#1F1D25"/>
</svg>
