<svg width="24" height="24" viewBox="0 0 24 24" fill="none" xmlns="http://www.w3.org/2000/svg">
    <path d="M18.1872 7.53636C18.1922 7.40726 18.1703 7.27853 18.1231 7.15826C18.076 7.03799 18.0044 6.92877 17.913 6.83746L12.663 1.58746C12.5319 1.45622 12.3649 1.36683 12.183 1.33058C12.001 1.29433 11.8125 1.31286 11.6411 1.38382C11.4697 1.45477 11.3232 1.57498 11.2202 1.72921C11.1172 1.88345 11.0622 2.06478 11.0622 2.25027V9.96214L7.35912 6.78824C7.16936 6.6341 6.9269 6.56019 6.68342 6.58225C6.43995 6.60432 6.21473 6.72061 6.05577 6.90635C5.89681 7.09209 5.81669 7.33257 5.8325 7.57653C5.8483 7.82049 5.95877 8.04862 6.14037 8.2123L10.5593 12.0003L6.14037 15.7882C6.04323 15.8671 5.96288 15.9647 5.90404 16.0751C5.8452 16.1856 5.80907 16.3067 5.79777 16.4313C5.78648 16.5559 5.80025 16.6816 5.83827 16.8008C5.8763 16.92 5.93781 17.0304 6.01918 17.1255C6.10055 17.2206 6.20013 17.2984 6.31205 17.3544C6.42397 17.4104 6.54596 17.4434 6.67084 17.4515C6.79572 17.4596 6.92096 17.4426 7.03916 17.4015C7.15737 17.3604 7.26616 17.2961 7.35912 17.2123L11.0622 14.0384V21.7503C11.0623 21.9357 11.1173 22.1169 11.2203 22.271C11.3233 22.4251 11.4697 22.5453 11.641 22.6162C11.8123 22.6872 12.0008 22.7057 12.1826 22.6696C12.3644 22.6334 12.5314 22.5442 12.6626 22.4131L17.9126 17.1631C18.0039 17.0717 18.0753 16.9624 18.1224 16.8421C18.1695 16.7218 18.1912 16.5931 18.1862 16.464C18.1812 16.3349 18.1495 16.2082 18.0933 16.0919C18.037 15.9757 17.9573 15.8723 17.8591 15.7882L13.4402 12.0003L17.8591 8.2123C17.9575 8.12835 18.0374 8.02497 18.0939 7.90864C18.1503 7.79232 18.1821 7.66557 18.1872 7.53636ZM15.8707 16.5532L12.9372 19.4871V14.0389L15.8707 16.5532ZM12.9372 9.96214V4.51339L15.8711 7.4473L12.9372 9.96214Z"
          fill="#1F1D25"/>
</svg>
