<svg width="24" height="24" viewBox="0 0 24 24" fill="none" xmlns="http://www.w3.org/2000/svg">
    <path d="M19.5 22.1792C19.5 22.1216 19.4844 22.065 19.455 22.0155C19.4255 21.966 19.3833 21.9254 19.3327 21.8979C18.0638 21.2159 16.9064 20.172 16.3973 19.6479C16.3217 19.5686 16.2208 19.5182 16.112 19.5052C16.0031 19.4923 15.8932 19.5177 15.8011 19.5771C13.4419 21.0968 10.5694 21.0978 8.20969 19.5795C8.11678 19.5195 8.00578 19.494 7.89599 19.5073C7.7862 19.5207 7.68457 19.5721 7.60875 19.6526C7.10391 20.1814 5.95922 21.2135 4.68235 21.8909C4.63158 21.9164 4.58817 21.9545 4.55626 22.0015C4.52435 22.0485 4.50498 22.1029 4.5 22.1595C4.4962 22.2077 4.50351 22.2561 4.52139 22.301C4.53926 22.3459 4.56722 22.3861 4.6031 22.4185C4.63897 22.4509 4.68181 22.4746 4.72831 22.4878C4.7748 22.501 4.82371 22.5033 4.87125 22.4946C5.8486 22.2987 6.79313 21.8534 7.69313 21.3776C7.75086 21.3472 7.81504 21.3311 7.88029 21.3306C7.94553 21.3301 8.00994 21.3453 8.06813 21.3748C9.28663 21.9943 10.6342 22.3172 12.0012 22.3172C13.3681 22.3172 14.7157 21.9943 15.9342 21.3748C15.9931 21.345 16.0582 21.3297 16.1242 21.3302C16.1901 21.3306 16.255 21.3469 16.3134 21.3776C17.2088 21.8464 18.1519 22.2959 19.1259 22.4932C19.172 22.5021 19.2194 22.5006 19.2648 22.4888C19.3101 22.477 19.3523 22.4553 19.3882 22.4251C19.4242 22.395 19.4529 22.3573 19.4724 22.3146C19.4919 22.272 19.5016 22.2256 19.5009 22.1787L19.5 22.1792Z"
          fill="#1F1D25"/>
    <path d="M22.3459 11.5739C22.1823 11.1806 21.835 10.8759 21.3662 10.7138L20.2501 10.2694V6.375C20.2501 5.57935 19.9341 4.81629 19.3715 4.25368C18.8088 3.69107 18.0458 3.375 17.2501 3.375H15.7501V3C15.7501 2.50272 15.5526 2.02581 15.201 1.67417C14.8493 1.32254 14.3724 1.125 13.8751 1.125H10.1251C9.62785 1.125 9.15094 1.32254 8.79931 1.67417C8.44768 2.02581 8.25013 2.50272 8.25013 3V3.375H6.75013C5.95449 3.375 5.19142 3.69107 4.62881 4.25368C4.06621 4.81629 3.75013 5.57935 3.75013 6.375V10.2727L2.64482 10.7128C2.17888 10.8675 1.81842 11.1816 1.65342 11.5772C1.53857 11.8533 1.40732 12.2803 1.59248 12.8175L1.59717 12.8316L3.78435 18.4303C3.86493 18.636 4.00592 18.8125 4.18874 18.9365C4.37157 19.0605 4.58766 19.1262 4.80857 19.125C4.83201 19.125 4.85545 19.125 4.88029 19.1227C6.34842 19.0289 7.50529 18.3131 8.28342 17.6409C9.39482 18.6005 10.7022 19.125 12.0001 19.125C13.2981 19.125 14.5984 18.6 15.7098 17.6391C16.4875 18.3122 17.6458 19.0298 19.1134 19.1227C19.3458 19.139 19.5773 19.0808 19.7743 18.9565C19.9713 18.8323 20.1235 18.6484 20.2089 18.4317L22.3956 12.8536C22.5494 12.4744 22.5315 12.0211 22.3459 11.5739ZM12.6095 7.22859L12.5561 7.20984C12.194 7.09593 11.8058 7.09593 11.4437 7.20984L11.4165 7.21828L5.50701 9.57281C5.47855 9.58415 5.44775 9.58834 5.4173 9.58501C5.38684 9.58169 5.35767 9.57096 5.33233 9.55375C5.30698 9.53655 5.28624 9.51339 5.27191 9.48632C5.25758 9.45924 5.25011 9.42907 5.25013 9.39844V6.375C5.25013 5.97718 5.40817 5.59564 5.68947 5.31434C5.97078 5.03304 6.35231 4.875 6.75013 4.875H17.2501C17.648 4.875 18.0295 5.03304 18.3108 5.31434C18.5921 5.59564 18.7501 5.97718 18.7501 6.375V9.39563C18.7502 9.42626 18.7427 9.45643 18.7284 9.48351C18.714 9.51058 18.6933 9.53374 18.6679 9.55094C18.6426 9.56814 18.6134 9.57888 18.583 9.5822C18.5525 9.58552 18.5217 9.58133 18.4933 9.57L12.6095 7.22859Z"
          fill="#1F1D25"/>
</svg>
