<svg width="24" height="24" viewBox="0 0 24 24" fill="none" xmlns="http://www.w3.org/2000/svg">
    <g clipPath="url(#clip0)">
        <path d="M12 5.25C13.4497 5.25 14.625 4.07475 14.625 2.625C14.625 1.17525 13.4497 0 12 0C10.5503 0 9.375 1.17525 9.375 2.625C9.375 4.07475 10.5503 5.25 12 5.25Z"
              fill="#1F1D25"/>
        <path d="M20.4844 5.99945H3.51562C3.17996 5.99945 2.85804 6.13279 2.62069 6.37015C2.38334 6.6075 2.25 6.92941 2.25 7.26508C2.25 7.60074 2.38334 7.92266 2.62069 8.16001C2.85804 8.39736 3.17996 8.5307 3.51562 8.5307H8.29125C8.61516 8.5307 8.99438 8.67554 9.20906 9.23382C9.45984 9.8821 9.33703 11.1341 9.18234 12.104L8.97984 13.2501C8.98022 13.253 8.97991 13.2561 8.97894 13.2589C8.97796 13.2618 8.97635 13.2643 8.97422 13.2665L7.35234 22.4919C7.29353 22.8268 7.36974 23.1714 7.56433 23.4502C7.75891 23.729 8.05601 23.9194 8.39062 23.9797C8.55606 24.009 8.72565 24.0051 8.88957 23.9683C9.05348 23.9315 9.20845 23.8624 9.34547 23.7652C9.4825 23.668 9.59884 23.5446 9.68776 23.402C9.77668 23.2595 9.83639 23.1007 9.86344 22.9349L10.9842 16.5224C10.9842 16.5224 11.3438 14.9994 12 14.9994C12.667 14.9994 13.0191 16.5224 13.0191 16.5224L14.1398 22.9405C14.167 23.1078 14.2271 23.268 14.3167 23.4118C14.4064 23.5556 14.5238 23.6801 14.662 23.7781C14.8003 23.876 14.9567 23.9455 15.122 23.9824C15.2874 24.0193 15.4585 24.023 15.6253 23.9931C15.7921 23.9633 15.9513 23.9005 16.0936 23.8085C16.2359 23.7165 16.3584 23.5971 16.4541 23.4572C16.5498 23.3174 16.6167 23.1599 16.6509 22.9939C16.6851 22.8279 16.6859 22.6568 16.6533 22.4905L15.0309 13.2651C15.0313 13.2621 15.031 13.2591 15.0301 13.2563C15.0292 13.2535 15.0277 13.2509 15.0258 13.2487L14.8228 12.1026C14.6681 11.1327 14.5453 9.8807 14.7961 9.23242C15.0098 8.67554 15.4012 8.52929 15.6998 8.52929H20.4844C20.82 8.52929 21.142 8.39595 21.3793 8.1586C21.6167 7.92125 21.75 7.59933 21.75 7.26367C21.75 6.92801 21.6167 6.60609 21.3793 6.36874C21.142 6.13139 20.82 5.99805 20.4844 5.99805V5.99945Z"
              fill="#1F1D25"/>
    </g>
    <defs>
        <clipPath id="clip0">
            <rect width="24" height="24" fill="white"/>
        </clipPath>
    </defs>
</svg>
