<svg width="24" height="24" viewBox="0 0 24 24" fill="none" xmlns="http://www.w3.org/2000/svg">
    <path d="M12.8147 17.2667C12.7767 16.8341 12.3994 16.4961 11.9452 16.4961C11.7496 16.4947 11.5593 16.5589 11.4046 16.6785C11.25 16.7981 11.1399 16.9661 11.092 17.1557L10.2389 21.2975C10.2107 21.4185 10.1961 21.5422 10.1953 21.6664C10.1953 22.6007 10.9772 23.2494 11.9452 23.2494C12.9131 23.2494 13.6955 22.6007 13.6955 21.6664C13.695 21.5168 13.6746 21.3678 13.635 21.2235L12.8147 17.2667Z"
          fill="#1F1D25"/>
    <path d="M19.2683 19.1191C19.1814 19.0431 19.088 18.9747 18.9894 18.9147L15.7301 16.6399C15.4128 16.4411 15.0739 16.4463 14.8278 16.6868C14.7204 16.7889 14.6522 16.9255 14.6351 17.0727C14.618 17.2199 14.653 17.3685 14.734 17.4925L17.195 20.7269C17.2514 20.8052 17.3141 20.8787 17.3825 20.9468C17.809 21.423 18.755 21.4493 19.2748 20.9468C19.7876 20.433 19.7815 19.5222 19.2683 19.1191Z"
          fill="#1F1D25"/>
    <path d="M21.7172 15.7461H18.4163C18.203 15.7461 18 15.9031 18 16.1281C18 16.3531 18.1383 16.4961 18.3244 16.5575L21.4383 17.5208C21.8906 17.6244 22.5 17.2231 22.5 16.7202C22.5 16.0812 22.1437 15.7461 21.7172 15.7461Z"
          fill="#1F1D25"/>
    <path d="M6.01031 16.1281C6.01031 15.8961 5.79703 15.7461 5.56734 15.7461H2.26641C1.85062 15.7461 1.5 16.1952 1.5 16.6981C1.5 17.2011 2.09156 17.6244 2.54531 17.5208L5.70609 16.5575C5.91188 16.4961 6.01031 16.3588 6.01031 16.1281Z"
          fill="#1F1D25"/>
    <path d="M8.27589 16.6427L5.01573 18.9096C4.91449 18.9664 4.82012 19.0346 4.73448 19.113C4.61029 19.2285 4.51124 19.3684 4.44351 19.5239C4.37578 19.6794 4.34082 19.8472 4.34082 20.0168C4.34082 20.1864 4.37578 20.3541 4.44351 20.5096C4.51124 20.6651 4.61029 20.805 4.73448 20.9205C4.99033 21.1618 5.32873 21.2962 5.68042 21.2962C6.03212 21.2962 6.37052 21.1618 6.62636 20.9205C6.69604 20.8538 6.75886 20.7803 6.81386 20.7011L9.27667 17.4841C9.44073 17.223 9.41355 16.8991 9.18292 16.6872C9.0614 16.5738 8.90361 16.507 8.73756 16.4989C8.57151 16.4907 8.40794 16.5417 8.27589 16.6427V16.6427Z"
          fill="#1F1D25"/>
    <path d="M13.7558 11.3624C14.2245 11.1084 14.6675 10.8684 15.0828 10.6049C17.0731 9.34307 17.9999 7.83932 17.9999 5.87057C17.9999 2.83964 15.3716 0.976824 12.8989 0.761199C12.5947 0.73448 12.1958 0.741512 11.9656 0.943074C11.7355 1.14464 11.69 1.53182 11.6774 1.83839C11.6127 3.41386 10.347 4.60401 9.00548 5.86307C7.69298 7.09589 6.33689 8.37042 6.06595 10.1287C5.67173 12.6918 7.08501 14.1932 7.96251 14.8598C8.22259 15.0577 8.54038 15.1649 8.8672 15.1649C8.98416 15.1648 9.10072 15.1511 9.21454 15.1242C9.42921 15.0739 9.63001 14.9765 9.80244 14.8391C9.97487 14.7017 10.1146 14.5277 10.2116 14.3296C10.9105 12.9051 12.357 12.1209 13.7558 11.3624Z"
          fill="#1F1D25"/>
    <path d="M6.55406 7.33961C7.12688 6.60086 7.81969 5.94836 8.49328 5.31695C9.42703 4.43945 10.2656 3.64914 10.673 2.79227C10.0992 2.4468 9.39047 2.25977 8.49281 2.25977C7.65891 2.25977 7.53703 2.50258 7.53703 3.1532C7.53703 3.74195 7.23094 4.11602 6.86484 4.58992C6.45937 5.11445 6 5.70836 6 6.60227C6 7.0818 6.06047 7.48211 6.19687 7.83836C6.30625 7.67211 6.42531 7.50586 6.55406 7.33961Z"
          fill="#1F1D25"/>
    <path d="M15.4851 11.2368C15.0477 11.5143 14.5944 11.7599 14.114 12.02C12.7588 12.755 11.4791 13.4488 10.8852 14.6582C10.8552 14.7201 10.8266 14.7754 10.7971 14.8274C10.7712 14.8735 10.7553 14.9246 10.7505 14.9773C10.7458 15.03 10.7522 15.0831 10.7694 15.1331C10.7867 15.1832 10.8143 15.229 10.8505 15.2676C10.8867 15.3062 10.9306 15.3367 10.9794 15.3571C11.5565 15.5961 12.1574 15.7447 12.8033 15.7447C14.1712 15.7538 15.4881 15.2258 16.4708 14.2743C16.958 13.8016 17.3446 13.2354 17.6075 12.6096C17.8703 11.9838 18.004 11.3113 18.0004 10.6325C18.0001 10.3968 17.9792 10.1615 17.938 9.92942C17.9259 9.86031 17.8947 9.79599 17.8478 9.74377C17.801 9.69154 17.7404 9.6535 17.6731 9.63397C17.6057 9.61443 17.5342 9.6142 17.4667 9.63328C17.3991 9.65236 17.3383 9.69 17.2912 9.74192C16.814 10.2796 16.2163 10.7732 15.4851 11.2368Z"
          fill="#1F1D25"/>
</svg>
