<svg width="24" height="24" viewBox="0 0 24 24" fill="none" xmlns="http://www.w3.org/2000/svg">
    <path d="M19.4249 4.57491C18.4517 3.59201 17.2938 2.81111 16.0178 2.27706C14.7419 1.743 13.3729 1.46633 11.9897 1.46292C10.6065 1.45952 9.23622 1.72945 7.95763 2.25722C6.67904 2.78498 5.51734 3.56018 4.53925 4.53827C3.56116 5.51636 2.78596 6.67807 2.25819 7.95666C1.73043 9.23524 1.46049 10.6055 1.4639 11.9887C1.4673 13.372 1.74398 14.7409 2.27803 16.0169C2.81209 17.2928 3.59299 18.4507 4.57588 19.424C5.54915 20.4069 6.70703 21.1878 7.983 21.7218C9.25897 22.2559 10.6279 22.5325 12.0111 22.536C13.3943 22.5394 14.7646 22.2694 16.0432 21.7417C17.3218 21.2139 18.4835 20.4387 19.4616 19.4606C20.4397 18.4825 21.2149 17.3208 21.7426 16.0422C22.2704 14.7636 22.5403 13.3934 22.5369 12.0101C22.5335 10.6269 22.2569 9.258 21.7228 7.98202C21.1887 6.70605 20.4078 5.54817 19.4249 4.57491V4.57491ZM13.5004 10.4994C13.2779 10.4994 13.0604 10.4335 12.8754 10.3098C12.6904 10.1862 12.5462 10.0105 12.4611 9.80496C12.3759 9.59939 12.3536 9.37319 12.397 9.15496C12.4404 8.93673 12.5476 8.73628 12.7049 8.57894C12.8623 8.42161 13.0627 8.31446 13.2809 8.27105C13.4992 8.22765 13.7254 8.24992 13.9309 8.33507C14.1365 8.42022 14.3122 8.56442 14.4358 8.74942C14.5594 8.93443 14.6254 9.15193 14.6254 9.37444C14.6254 9.67281 14.5069 9.95895 14.2959 10.1699C14.0849 10.3809 13.7988 10.4994 13.5004 10.4994V10.4994ZM13.8754 7.12444C13.6529 7.12444 13.4354 7.05846 13.2504 6.93484C13.0654 6.81123 12.9212 6.63552 12.8361 6.42996C12.7509 6.22439 12.7286 5.99819 12.772 5.77996C12.8154 5.56173 12.9226 5.36128 13.0799 5.20394C13.2373 5.04661 13.4377 4.93946 13.6559 4.89605C13.8742 4.85265 14.1004 4.87492 14.3059 4.96007C14.5115 5.04522 14.6872 5.18942 14.8108 5.37442C14.9344 5.55943 15.0004 5.77693 15.0004 5.99944C15.0004 6.29781 14.8819 6.58395 14.6709 6.79493C14.4599 7.00591 14.1738 7.12444 13.8754 7.12444ZM16.8754 8.99944C16.6529 8.99944 16.4354 8.93346 16.2504 8.80984C16.0654 8.68623 15.9212 8.51052 15.8361 8.30496C15.7509 8.09939 15.7286 7.87319 15.772 7.65496C15.8154 7.43673 15.9226 7.23628 16.0799 7.07894C16.2373 6.92161 16.4377 6.81446 16.6559 6.77105C16.8742 6.72765 17.1004 6.74992 17.3059 6.83507C17.5115 6.92022 17.6872 7.06442 17.8108 7.24942C17.9344 7.43443 18.0004 7.65193 18.0004 7.87444C18.0004 8.17281 17.8819 8.45895 17.6709 8.66993C17.4599 8.88091 17.1738 8.99944 16.8754 8.99944Z"
          fill="#1F1D25"/>
</svg>
