<svg width="24" height="24" viewBox="0 0 24 24" fill="none" xmlns="http://www.w3.org/2000/svg">
    <path d="M10.9292 16.8801C10.8509 16.8805 10.7731 16.8683 10.6986 16.844C10.5647 16.8007 10.4457 16.7206 10.3552 16.6129C10.2647 16.5051 10.2063 16.374 10.1867 16.2347C10.086 15.5315 9.25159 14.7131 8.47018 14.5542C8.34115 14.5275 8.22142 14.4673 8.12305 14.3796C8.02469 14.292 7.95115 14.1799 7.90986 14.0548C7.86856 13.9297 7.86096 13.7959 7.88781 13.6669C7.91467 13.5379 7.97504 13.4182 8.06284 13.32L17.9577 2.29967C17.9666 2.28936 17.976 2.27952 17.9853 2.27014C18.4824 1.77445 19.1558 1.49609 19.8578 1.49609C20.5598 1.49609 21.2331 1.77445 21.7302 2.27014V2.27014C22.2257 2.76596 22.5044 3.43796 22.5054 4.13892C22.5064 4.83988 22.2295 5.51264 21.7353 6.00983L11.4697 16.6505C11.3997 16.7231 11.3158 16.7809 11.2229 16.8204C11.13 16.8599 11.0301 16.8802 10.9292 16.8801V16.8801Z"
          fill="#1F1D25"/>
    <path d="M5.61939 22.5045C4.11282 22.5045 2.55142 21.7127 1.64204 20.4888C1.55916 20.3772 1.50892 20.2448 1.49693 20.1063C1.48495 19.9678 1.51169 19.8287 1.57416 19.7046C1.63664 19.5804 1.7324 19.476 1.85075 19.4031C1.96909 19.3302 2.10538 19.2916 2.24439 19.2916C2.4947 19.2916 3.18189 19.0634 3.18189 18.3274C3.18189 16.496 4.65376 15.0059 6.46314 15.0059C8.27251 15.0059 9.74439 16.496 9.74439 18.3274C9.74439 20.6299 7.89376 22.5045 5.61939 22.5045Z"
          fill="#1F1D25"/>
</svg>
