<svg width="24" height="24" viewBox="0 0 24 24" fill="none" xmlns="http://www.w3.org/2000/svg">
    <path d="M22.0101 5.64939C21.9561 5.54436 21.8781 5.45356 21.7823 5.3844C21.6866 5.31524 21.5759 5.26966 21.4592 5.25139C21.3425 5.23311 21.2231 5.24265 21.1108 5.27923C20.9985 5.31581 20.8965 5.3784 20.8129 5.46189L17.9329 8.34377C17.7916 8.48309 17.601 8.5612 17.4025 8.5612C17.204 8.5612 17.0135 8.48309 16.8721 8.34377L15.6271 7.09689C15.5575 7.02724 15.5022 6.94456 15.4645 6.85355C15.4268 6.76255 15.4074 6.66501 15.4074 6.5665C15.4074 6.468 15.4268 6.37045 15.4645 6.27945C15.5022 6.18844 15.5575 6.10576 15.6271 6.03611L18.495 3.16783C18.5809 3.08187 18.6447 2.9763 18.6808 2.86021C18.7169 2.74413 18.7243 2.621 18.7022 2.50145C18.6802 2.38189 18.6294 2.26948 18.5543 2.17391C18.4791 2.07834 18.3819 2.00247 18.2709 1.95283V1.95283C16.1048 0.984392 13.4011 1.4897 11.6962 3.18189C10.2478 4.62002 9.81605 6.8672 10.5126 9.34736C10.5502 9.47962 10.5504 9.61969 10.5132 9.75207C10.4761 9.88444 10.403 10.004 10.3021 10.0974L2.4984 17.2247C2.19439 17.4977 1.94917 17.8297 1.77771 18.2005C1.60624 18.5714 1.51212 18.9733 1.5011 19.3817C1.49007 19.7901 1.56236 20.1965 1.71356 20.5761C1.86476 20.9556 2.09171 21.3004 2.38054 21.5894C2.66938 21.8783 3.01406 22.1054 3.39356 22.2568C3.77305 22.4082 4.17941 22.4807 4.58783 22.4698C4.99626 22.459 5.39819 22.365 5.76912 22.1937C6.14004 22.0224 6.47218 21.7773 6.74527 21.4735L13.949 13.6524C14.0411 13.5528 14.1586 13.4802 14.2888 13.4425C14.4191 13.4047 14.5572 13.4032 14.6882 13.4381C15.3943 13.6316 16.1227 13.732 16.8548 13.7367C18.4204 13.7367 19.7943 13.23 20.7853 12.2536C22.6204 10.4456 22.9003 7.37908 22.0101 5.64939ZM4.66356 20.9602C4.35484 20.9939 4.04327 20.9309 3.77185 20.78C3.50043 20.6291 3.28255 20.3976 3.14827 20.1176C3.01398 19.8376 2.96993 19.5228 3.02217 19.2167C3.07442 18.9106 3.22039 18.6282 3.43994 18.4086C3.6595 18.1889 3.94181 18.0429 4.24792 17.9905C4.55403 17.9381 4.86884 17.9821 5.14891 18.1163C5.42898 18.2505 5.66049 18.4683 5.81151 18.7396C5.96252 19.011 6.02558 19.3225 5.99199 19.6313C5.95504 19.971 5.80321 20.2878 5.56164 20.5295C5.32007 20.7712 5.00323 20.9231 4.66356 20.9602V20.9602Z"
          fill="#1F1D25"/>
</svg>
