<svg width="24" height="24" viewBox="0 0 24 24" fill="none" xmlns="http://www.w3.org/2000/svg">
    <path d="M18.3284 22.4996C17.4134 22.4996 16.1281 22.1686 14.2034 21.0933C11.8629 19.7808 10.0526 18.5691 7.72481 16.2474C5.48044 14.0044 4.38825 12.5522 2.85965 9.77066C1.13278 6.63003 1.42715 4.98378 1.75622 4.28019C2.14809 3.43925 2.72653 2.93628 3.47419 2.43707C3.89885 2.15883 4.34825 1.92032 4.81669 1.72457C4.86356 1.70441 4.90715 1.68519 4.94606 1.66785C5.17809 1.56332 5.52965 1.40535 5.97497 1.5741C6.27215 1.68566 6.53747 1.91394 6.95278 2.3241C7.8045 3.1641 8.9684 5.03488 9.39778 5.95363C9.68606 6.57285 9.87684 6.9816 9.87731 7.44003C9.87731 7.97675 9.60731 8.39066 9.27965 8.83738C9.21825 8.92128 9.15731 9.00144 9.09825 9.07925C8.74153 9.548 8.66325 9.68347 8.71481 9.92535C8.81934 10.4114 9.59887 11.8585 10.88 13.1368C12.1611 14.415 13.5664 15.1453 14.0543 15.2494C14.3065 15.3033 14.4448 15.2218 14.9286 14.8524C14.9979 14.7994 15.0692 14.7446 15.1437 14.6897C15.6434 14.318 16.0381 14.055 16.5622 14.055H16.565C17.0211 14.055 17.4115 14.2528 18.0584 14.5791C18.9022 15.0047 20.8292 16.1536 21.6743 17.0063C22.0854 17.4207 22.3147 17.685 22.4267 17.9818C22.5954 18.4285 22.4365 18.7786 22.3329 19.013C22.3156 19.0519 22.2964 19.0946 22.2762 19.1419C22.0789 19.6095 21.839 20.058 21.5595 20.4816C21.0612 21.2269 20.5564 21.8039 19.7136 22.1963C19.2808 22.401 18.8071 22.5047 18.3284 22.4996Z"
          fill="#1F1D25"/>
</svg>
