<svg width="18" height="18" viewBox="0 0 18 18" fill="none" xmlns="http://www.w3.org/2000/svg">
    <g clipPath="url(#clip0_142_2410)">
        <path fillRule="evenodd" clipRule="evenodd"
              d="M3.00015 3.75C2.80124 3.75 2.61047 3.82902 2.46982 3.96967C2.32917 4.11032 2.25015 4.30109 2.25015 4.5V6C2.25015 6.41421 1.91436 6.75 1.50015 6.75C1.08593 6.75 0.750148 6.41421 0.750148 6V4.5C0.750148 3.90326 0.9872 3.33097 1.40916 2.90901C1.83111 2.48705 2.40341 2.25 3.00015 2.25H15.0001C15.5969 2.25 16.1692 2.48705 16.5911 2.90901C17.0131 3.33097 17.2501 3.90326 17.2501 4.5V13.5C17.2501 14.0967 17.0131 14.669 16.5911 15.091C16.1692 15.5129 15.5969 15.75 15.0001 15.75H10.5001C10.0859 15.75 9.75015 15.4142 9.75015 15C9.75015 14.5858 10.0859 14.25 10.5001 14.25H15.0001C15.1991 14.25 15.3898 14.171 15.5305 14.0303C15.6711 13.8897 15.7501 13.6989 15.7501 13.5V4.5C15.7501 4.30109 15.6711 4.11032 15.5305 3.96967C15.3898 3.82902 15.1991 3.75 15.0001 3.75H3.00015ZM0.754744 8.9546C0.80053 8.54292 1.17138 8.24631 1.58305 8.2921C3.27538 8.48032 4.85328 9.2388 6.05731 10.4428C7.26135 11.6469 8.01983 13.2248 8.20805 14.9171C8.25384 15.3288 7.95723 15.6996 7.54555 15.7454C7.13388 15.7912 6.76303 15.4946 6.71724 15.0829C6.56667 13.729 5.95988 12.4667 4.99665 11.5035C4.03343 10.5403 2.7711 9.93348 1.41724 9.7829C1.00557 9.73712 0.708957 9.36627 0.754744 8.9546ZM0.765275 11.9251C0.848047 11.5193 1.24416 11.2574 1.65002 11.3401C2.51482 11.5165 3.30867 11.9433 3.93276 12.5674C4.55686 13.1915 4.98365 13.9853 5.16002 14.8501C5.24279 15.256 4.98088 15.6521 4.57502 15.7349C4.16916 15.8176 3.77305 15.5557 3.69027 15.1499C3.57269 14.5733 3.28817 14.0441 2.8721 13.628C2.45604 13.212 1.92681 12.9275 1.35027 12.8099C0.944416 12.7271 0.682502 12.331 0.765275 11.9251Z"
              fill="#919191"/>
    </g>
    <defs>
        <clipPath id="clip0_142_2410">
            <rect width="18" height="18" fill="white"/>
        </clipPath>
    </defs>
</svg>
