<svg width="24" height="24" viewBox="0 0 24 24" fill="none" xmlns="http://www.w3.org/2000/svg">
    <path d="M15.9375 22.5001H4.96875C3.58594 22.5001 2.39438 22.133 1.52203 21.4388C0.526406 20.6457 0 19.4696 0 18.0376C0 16.6576 0.566719 15.4946 1.64062 14.6747C2.20781 14.2407 2.91563 13.9168 3.67172 13.7349C3.80842 13.7011 3.93284 13.6295 4.03074 13.5283C4.12865 13.427 4.19607 13.3003 4.22531 13.1626C4.56047 11.6372 5.26828 10.3271 6.30328 9.33053C7.53131 8.14929 9.17109 7.49274 10.875 7.50006C12.3905 7.50006 13.7883 7.99928 14.9175 8.94334C15.67 9.57765 16.2727 10.3707 16.6823 11.2655C16.7307 11.3713 16.803 11.4645 16.8934 11.5377C16.9838 11.6109 17.09 11.6621 17.2036 11.6874C18.3286 11.9321 19.3327 12.4271 20.092 13.1199C21.1767 14.1094 21.75 15.4604 21.75 17.0251C21.75 18.5649 21.1345 19.9721 20.0156 20.9869C18.9427 21.9629 17.4938 22.5001 15.9375 22.5001Z"
          fill="#1F1D25"/>
    <path d="M23.9306 9.83428C23.9838 9.71561 24.0059 9.58536 23.9948 9.45578C23.9837 9.32621 23.9398 9.20158 23.8673 9.09366C23.7685 8.9504 23.6229 8.84597 23.4556 8.79825C23.2882 8.75053 23.1095 8.76249 22.9499 8.8321C22.4484 9.05007 21.8024 9.16819 21.0787 9.17335C18.4865 9.1921 16.3265 7.06397 16.3265 4.47132C16.3265 3.73303 16.4428 3.07257 16.6631 2.56069C16.7177 2.43685 16.7385 2.30072 16.7233 2.16623C16.708 2.03173 16.6573 1.9037 16.5764 1.79522C16.4748 1.66164 16.3315 1.56596 16.1692 1.52347C16.0069 1.48098 15.835 1.49414 15.681 1.56085C13.8703 2.34928 12.5789 3.97538 12.1528 5.89866C12.1474 5.92325 12.147 5.94868 12.1517 5.97342C12.1563 5.99816 12.1659 6.02171 12.1799 6.04266C12.1938 6.06362 12.2119 6.08155 12.2329 6.09538C12.2539 6.10922 12.2775 6.11867 12.3023 6.12319C13.6205 6.35543 14.8542 6.93083 15.8793 7.79147C16.6293 8.42041 17.2588 9.18022 17.7375 10.034C17.8346 10.2067 17.9949 10.335 18.1846 10.3921C19.3045 10.7282 20.2987 11.278 21.1026 12.0112C21.2414 12.1383 21.3739 12.2699 21.5001 12.4058C21.5307 12.4383 21.5718 12.4589 21.6161 12.4638C21.6604 12.4687 21.7051 12.4576 21.742 12.4326C22.7046 11.7932 23.464 10.8916 23.9306 9.83428V9.83428Z"
          fill="#1F1D25"/>
</svg>
