<svg width="24" height="24" viewBox="0 0 24 24" fill="none" xmlns="http://www.w3.org/2000/svg">
    <path d="M21.0001 21.7501C20.9016 21.7503 20.804 21.7309 20.713 21.6932C20.622 21.6554 20.5394 21.6001 20.4699 21.5303L2.46994 3.53025C2.33522 3.38845 2.26123 3.19964 2.26373 3.00407C2.26624 2.8085 2.34504 2.62164 2.48334 2.48334C2.62164 2.34504 2.8085 2.26624 3.00407 2.26373C3.19964 2.26123 3.38845 2.33522 3.53025 2.46994L21.5302 20.4699C21.6351 20.5748 21.7064 20.7084 21.7354 20.8539C21.7643 20.9993 21.7494 21.1501 21.6927 21.2871C21.6359 21.4241 21.5399 21.5412 21.4166 21.6236C21.2933 21.706 21.1484 21.75 21.0001 21.7501V21.7501Z"
          fill="#1F1D25"/>
    <path d="M1.815 9.22433C0.627656 10.3071 0 11.7856 0 13.5003C0 15.1878 0.674063 16.729 1.89797 17.8404C3.07688 18.911 4.66688 19.5003 6.375 19.5003H15.4125C15.4867 19.5003 15.5593 19.4783 15.621 19.4371C15.6827 19.3959 15.7308 19.3374 15.7592 19.2688C15.7876 19.2002 15.7951 19.1248 15.7806 19.052C15.7661 18.9792 15.7303 18.9124 15.6778 18.8599L4.72875 7.91089C4.68065 7.86269 4.62033 7.82849 4.55426 7.81198C4.48819 7.79546 4.41888 7.79725 4.35375 7.81714C3.375 8.11667 2.50313 8.5962 1.815 9.22433Z"
          fill="#1F1D25"/>
    <path d="M22.3401 18.339C23.4262 17.4741 24 16.1902 24 14.6251C24 11.9265 22.0312 10.3791 19.8956 9.90242C19.7551 9.87041 19.6268 9.79862 19.5261 9.69562C19.4253 9.59263 19.3564 9.46279 19.3275 9.32164C18.9675 7.60226 18.1814 6.12711 17.0222 5.00914C15.6729 3.71204 13.8716 2.99143 12 3.00008C10.5412 3.00008 9.18184 3.42195 8.0334 4.22351C7.98791 4.25463 7.94985 4.29538 7.9219 4.34288C7.89396 4.39037 7.87683 4.44344 7.87173 4.49831C7.86663 4.55318 7.87368 4.6085 7.89239 4.66033C7.91109 4.71216 7.94099 4.75924 7.97996 4.7982L21.6412 18.4595C21.7032 18.5215 21.785 18.5598 21.8724 18.5678C21.9598 18.5758 22.0471 18.5528 22.1194 18.503C22.1953 18.4505 22.2689 18.3959 22.3401 18.339Z"
          fill="#1F1D25"/>
</svg>
