<svg width="24" height="24" viewBox="0 0 24 24" fill="none" xmlns="http://www.w3.org/2000/svg">
    <path d="M18.5625 20.2491H6.375C4.66688 20.2491 3.07688 19.6599 1.89797 18.5892C0.674063 17.4778 0 15.9366 0 14.2491C0 12.5344 0.627656 11.056 1.815 9.97315C2.66391 9.19831 3.79406 8.64894 5.05781 8.3855C5.1743 8.36139 5.28338 8.30993 5.37605 8.23535C5.46872 8.16078 5.54232 8.06523 5.59078 7.95659C6.04073 6.94372 6.71469 6.04618 7.56188 5.33159C8.80125 4.29706 10.3359 3.74909 12 3.74909C13.8718 3.74095 15.6733 4.46225 17.0222 5.76003C18.1814 6.87612 18.9675 8.35128 19.3275 10.0725C19.3564 10.2137 19.4254 10.3435 19.5261 10.4465C19.6269 10.5495 19.7551 10.6213 19.8956 10.6533C22.0313 11.1282 24 12.6755 24 15.3741C24 16.9392 23.4262 18.2232 22.3402 19.088C21.3858 19.8474 20.0798 20.2491 18.5625 20.2491Z"
          fill="#1F1D25"/>
</svg>
