<svg width="24" height="24" viewBox="0 0 24 24" fill="none" xmlns="http://www.w3.org/2000/svg">
    <path d="M19.8956 10.6524C19.7551 10.6204 19.6269 10.5486 19.5261 10.4456C19.4254 10.3426 19.3564 10.2128 19.3275 10.0716C18.9675 8.35226 18.1814 6.87711 17.0222 5.75914C15.673 4.46204 13.8716 3.74143 12 3.75008C10.3359 3.75008 8.80125 4.29805 7.56188 5.33445C6.71554 6.04929 6.04239 6.94681 5.59312 7.95945C5.54467 8.06809 5.47106 8.16364 5.37839 8.23821C5.28572 8.31279 5.17664 8.36425 5.06016 8.38836C3.79453 8.6518 2.66625 9.20117 1.81734 9.97601C0.627656 11.057 0 12.5354 0 14.2501C0 15.9376 0.674063 17.4788 1.89797 18.5902C3.07688 19.6609 4.66688 20.2501 6.375 20.2501H18.5625C20.0798 20.2501 21.3858 19.8484 22.3402 19.089C23.4262 18.2241 24 16.9402 24 15.3751C24 12.6765 22.0313 11.1291 19.8956 10.6524ZM15.4331 10.2334L10.38 16.2334C10.3108 16.3155 10.2248 16.3818 10.1277 16.4278C10.0307 16.4739 9.92489 16.4985 9.8175 16.5001H9.80484C9.69987 16.5001 9.59606 16.4781 9.50014 16.4354C9.40421 16.3928 9.3183 16.3305 9.24797 16.2526L7.09641 13.868C6.82594 13.5685 6.82359 13.1026 7.11047 12.818C7.18249 12.7465 7.2683 12.6902 7.36269 12.6528C7.45708 12.6154 7.5581 12.5975 7.65961 12.6002C7.76112 12.603 7.86101 12.6263 7.95323 12.6689C8.04545 12.7114 8.12807 12.7722 8.19609 12.8476L9.78516 14.6091L14.2852 9.26539C14.3486 9.19004 14.4263 9.12794 14.5138 9.08261C14.6012 9.03729 14.6968 9.00964 14.7949 9.00124C14.8931 8.99284 14.9919 9.00385 15.0858 9.03365C15.1797 9.06345 15.2668 9.11145 15.3422 9.17492C15.4175 9.23839 15.4796 9.31607 15.525 9.40354C15.5703 9.49101 15.5979 9.58654 15.6063 9.6847C15.6147 9.78285 15.6037 9.8817 15.5739 9.9756C15.5441 10.0695 15.4961 10.1566 15.4327 10.232L15.4331 10.2334Z"
          fill="#1F1D25"/>
</svg>
