<svg width="24" height="24" viewBox="0 0 24 24" fill="none" xmlns="http://www.w3.org/2000/svg">
    <path d="M22.2028 9.8448C21.5466 9.35824 20.7403 9.00105 19.8891 8.8084C19.7493 8.77696 19.6214 8.7064 19.5202 8.60497C19.419 8.50355 19.3488 8.37543 19.3177 8.23559C18.952 6.60668 18.165 5.2098 17.0081 4.15137C15.6633 2.91902 13.8848 2.24121 12 2.24121C10.343 2.24121 8.8125 2.76059 7.57641 3.74355C6.73867 4.4108 6.06434 5.26052 5.60484 6.22793C5.55503 6.33378 5.48114 6.42651 5.38908 6.4987C5.29703 6.5709 5.18936 6.62056 5.07469 6.64371C3.82078 6.89684 2.68875 7.43449 1.82437 8.19621C0.630937 9.2509 0 10.6529 0 12.2537C0 13.8718 0.679219 15.3475 1.91203 16.4143C3.08953 17.4311 4.67484 17.9912 6.375 17.9912H11.25V10.802L9.53016 12.5218C9.45835 12.5936 9.37272 12.6501 9.27845 12.6878C9.18418 12.7255 9.08323 12.7437 8.98172 12.7413C8.88021 12.7388 8.78026 12.7158 8.68792 12.6735C8.59558 12.6313 8.51278 12.5708 8.44453 12.4956C8.17266 12.197 8.19891 11.7315 8.48438 11.4461L11.4698 8.46105C11.6105 8.32051 11.8012 8.24156 12 8.24156C12.1988 8.24156 12.3895 8.32051 12.5302 8.46105L15.5156 11.4451C15.81 11.74 15.8269 12.2232 15.5339 12.519C15.4644 12.5892 15.3817 12.645 15.2906 12.6831C15.1995 12.7213 15.1017 12.7411 15.0029 12.7413C14.9041 12.7416 14.8063 12.7223 14.715 12.6847C14.6236 12.647 14.5407 12.5917 14.4708 12.5218L12.75 10.802V17.9912H18.5625C20.0316 17.9912 21.3708 17.5787 22.3336 16.8301C23.4239 15.9817 24 14.7676 24 13.3225C24 11.919 23.3784 10.7157 22.2028 9.8448Z"
          fill="#1F1D25"/>
    <path d="M11.25 21.0109C11.25 21.2098 11.329 21.4006 11.4697 21.5412C11.6103 21.6819 11.8011 21.7609 12 21.7609C12.1989 21.7609 12.3897 21.6819 12.5303 21.5412C12.671 21.4006 12.75 21.2098 12.75 21.0109V17.9912H11.25V21.0109Z"
          fill="#1F1D25"/>
</svg>
