<svg width="24" height="24" viewBox="0 0 24 24" fill="none" xmlns="http://www.w3.org/2000/svg">
    <path d="M7.50035 18.2342C7.26196 18.2345 7.03165 18.1478 6.85254 17.9905L0.852541 12.7405C0.747014 12.6481 0.662449 12.5342 0.604512 12.4065C0.546574 12.2787 0.516602 12.1401 0.516602 11.9998C0.516602 11.8596 0.546574 11.7209 0.604512 11.5932C0.662449 11.4655 0.747014 11.3516 0.852541 11.2592L6.85254 6.00922C7.04903 5.83728 7.30577 5.75044 7.56629 5.76781C7.8268 5.78517 8.06975 5.90531 8.24168 6.1018C8.41362 6.29828 8.50045 6.55502 8.48309 6.81554C8.46573 7.07605 8.34559 7.319 8.1491 7.49094L2.9952 11.9998L8.14863 16.5087C8.29947 16.6406 8.40647 16.8154 8.45536 17.0096C8.50424 17.2039 8.49268 17.4085 8.42222 17.5961C8.35176 17.7836 8.22575 17.9452 8.06102 18.0592C7.8963 18.1732 7.7007 18.2343 7.50035 18.2342V18.2342Z"
          fill="#1F1D25"/>
    <path d="M16.4999 18.2342C16.2995 18.2344 16.1038 18.1734 15.939 18.0594C15.7742 17.9454 15.6481 17.7838 15.5776 17.5963C15.5071 17.4087 15.4955 17.2041 15.5444 17.0098C15.5932 16.8154 15.7003 16.6406 15.8511 16.5087L21.005 11.9998L15.8516 7.49094C15.6551 7.319 15.535 7.07605 15.5176 6.81554C15.5002 6.55502 15.5871 6.29828 15.759 6.1018C15.931 5.90531 16.1739 5.78517 16.4344 5.76781C16.6949 5.75044 16.9517 5.83728 17.1482 6.00922L23.1482 11.2592C23.2537 11.3516 23.3383 11.4655 23.3962 11.5932C23.4541 11.7209 23.4841 11.8596 23.4841 11.9998C23.4841 12.1401 23.4541 12.2787 23.3962 12.4065C23.3383 12.5342 23.2537 12.6481 23.1482 12.7405L17.1482 17.9905C16.969 18.148 16.7384 18.2347 16.4999 18.2342V18.2342Z"
          fill="#1F1D25"/>
    <path d="M9.74978 20.484C9.59649 20.484 9.44532 20.4481 9.30832 20.3793C9.17132 20.3106 9.05228 20.2107 8.96068 20.0878C8.86908 19.9649 8.80746 19.8223 8.78072 19.6713C8.75398 19.5204 8.76286 19.3653 8.80666 19.2184L13.3067 4.21837C13.3406 4.09108 13.3997 3.97189 13.4805 3.86786C13.5613 3.76383 13.6621 3.67707 13.7771 3.61273C13.892 3.54839 14.0187 3.50777 14.1496 3.49328C14.2805 3.47879 14.413 3.49072 14.5393 3.52838C14.6655 3.56603 14.7829 3.62863 14.8845 3.71248C14.9861 3.79632 15.0698 3.8997 15.1307 4.0165C15.1916 4.13329 15.2285 4.26113 15.2391 4.39242C15.2497 4.52372 15.2338 4.65581 15.1924 4.78087L10.6924 19.7809C10.6319 19.9839 10.5075 20.162 10.3377 20.2887C10.1678 20.4153 9.96165 20.4838 9.74978 20.484V20.484Z"
          fill="#1F1D25"/>
</svg>
