<svg width="24" height="24" viewBox="0 0 24 24" fill="none" xmlns="http://www.w3.org/2000/svg">
    <path d="M21.75 11.716C21.7437 11.599 21.6962 11.4881 21.6159 11.4028C21.5355 11.3175 21.4276 11.2634 21.3113 11.2501L20.1094 11.0555C20.0553 11.0467 20.0056 11.0206 19.9676 10.9811C19.9295 10.9417 19.9053 10.891 19.8984 10.8366C19.8755 10.689 19.8516 10.5357 19.8188 10.3904C19.8082 10.3375 19.8144 10.2827 19.8365 10.2335C19.8586 10.1844 19.8955 10.1433 19.942 10.1162L21.0099 9.52321C21.1159 9.46916 21.1983 9.37802 21.2416 9.26713C21.2848 9.15625 21.2857 9.03334 21.2442 8.9218L21.0591 8.41086C21.0185 8.29894 20.938 8.20593 20.8331 8.14962C20.7282 8.09332 20.6062 8.07768 20.4905 8.10571L19.2928 8.34008C19.2393 8.34965 19.1841 8.34207 19.1351 8.31842C19.0861 8.29477 19.0458 8.25625 19.02 8.20836C18.9502 8.07758 18.8742 7.94446 18.795 7.81367C18.7662 7.76708 18.7528 7.71266 18.7565 7.65802C18.7602 7.60339 18.7808 7.55128 18.8156 7.50899L19.6125 6.58836C19.6935 6.50145 19.74 6.38803 19.7433 6.26931C19.7467 6.15059 19.7067 6.03472 19.6308 5.94336L19.283 5.52571C19.2073 5.43404 19.1003 5.3737 18.9827 5.35638C18.8651 5.33906 18.7453 5.36599 18.6464 5.43196L17.5978 6.06149C17.5513 6.08934 17.4971 6.10151 17.4432 6.09619C17.3892 6.09087 17.3384 6.06835 17.2983 6.03196C17.1825 5.93024 17.0639 5.83227 16.9528 5.7418C16.9102 5.70815 16.8794 5.66179 16.8649 5.60944C16.8504 5.5571 16.8529 5.5015 16.8722 5.45071L17.3063 4.30696C17.3535 4.19782 17.3591 4.07513 17.3218 3.96218C17.2846 3.84924 17.2071 3.75391 17.1042 3.6943L16.6313 3.41821C16.5283 3.35882 16.407 3.33952 16.2907 3.36399C16.1743 3.38847 16.0711 3.45501 16.0008 3.55086L15.2344 4.51367C15.2068 4.55552 15.1655 4.58646 15.1176 4.60118C15.0697 4.61589 15.0182 4.61346 14.9719 4.5943C14.9433 4.58258 14.7014 4.48367 14.5134 4.42086C14.4619 4.40406 14.4171 4.3712 14.3855 4.32709C14.354 4.28298 14.3374 4.22993 14.3381 4.17571L14.3564 2.95367C14.3629 2.83435 14.3258 2.71674 14.2518 2.62286C14.1779 2.52898 14.0722 2.46528 13.9547 2.44367L13.418 2.34992C13.301 2.32972 13.1807 2.35266 13.0794 2.41448C12.9781 2.47629 12.9027 2.57278 12.8672 2.68602L12.4688 3.84899C12.4507 3.90061 12.4165 3.94508 12.3713 3.97587C12.3261 4.00667 12.2722 4.02216 12.2175 4.02008H11.7605C11.7062 4.0212 11.653 4.00517 11.6084 3.97428C11.5638 3.94339 11.5301 3.89922 11.512 3.84805L11.1155 2.69164C11.0806 2.57758 11.0053 2.48015 10.9038 2.41759C10.8022 2.35504 10.6813 2.33164 10.5638 2.3518L10.0261 2.44555C9.90932 2.46698 9.80428 2.53006 9.73048 2.62308C9.65669 2.7161 9.61916 2.83273 9.62485 2.95133L9.6436 4.17758C9.64398 4.23262 9.62657 4.2863 9.59396 4.33065C9.56136 4.37499 9.51531 4.40762 9.46266 4.42367C9.35532 4.46539 9.12235 4.55446 9.01641 4.59383C8.92266 4.62758 8.82048 4.59055 8.73798 4.49539L7.97579 3.55789C7.90586 3.46146 7.80275 3.39427 7.68628 3.36927C7.56981 3.34426 7.44821 3.36319 7.34485 3.42242L6.87329 3.69571C6.76925 3.75542 6.69099 3.85154 6.6536 3.96553C6.61621 4.07951 6.62233 4.20331 6.67079 4.31305L7.10438 5.45399C7.1233 5.50488 7.12578 5.56043 7.11149 5.61281C7.0972 5.6652 7.06684 5.71178 7.0247 5.74602C6.91079 5.83977 6.79407 5.93352 6.67782 6.03758C6.6379 6.07369 6.58748 6.09609 6.53392 6.10148C6.48036 6.10688 6.42649 6.095 6.38016 6.06758L5.34376 5.42586C5.24424 5.36113 5.12452 5.33493 5.00706 5.35219C4.8896 5.36945 4.78248 5.42898 4.70579 5.51961L4.35938 5.93633C4.28244 6.02706 4.24166 6.14299 4.24486 6.26191C4.24806 6.38083 4.29501 6.4944 4.37673 6.58086L5.17735 7.50055C5.21288 7.54199 5.23412 7.59378 5.23792 7.64823C5.24172 7.70269 5.22788 7.75692 5.19845 7.80289C5.11829 7.93039 5.04188 8.06446 4.97251 8.19852C4.94656 8.24674 4.906 8.28551 4.85665 8.30926C4.8073 8.33301 4.7517 8.34051 4.69782 8.33071L3.50204 8.09961C3.38626 8.07168 3.26425 8.08734 3.15929 8.14363C3.05433 8.19991 2.97377 8.29287 2.93298 8.40477L2.74548 8.91477C2.70403 9.02645 2.705 9.14946 2.7482 9.26048C2.7914 9.3715 2.87382 9.46281 2.97985 9.51711L4.04766 10.1101C4.09568 10.1366 4.13378 10.178 4.15619 10.2281C4.17859 10.2781 4.1841 10.3341 4.17188 10.3876L4.16063 10.4471C4.13626 10.5779 4.11376 10.7016 4.0922 10.8334C4.08474 10.887 4.06051 10.937 4.02296 10.976C3.98541 11.0151 3.93647 11.0413 3.88313 11.0509L2.67891 11.2454C2.56115 11.2599 2.45267 11.3167 2.37374 11.4053C2.29482 11.4939 2.25083 11.6082 2.25001 11.7268V12.2696C2.24932 12.3887 2.29285 12.5038 2.37218 12.5927C2.4515 12.6815 2.56097 12.7378 2.67938 12.7505L3.88313 12.9446C3.93723 12.9534 3.98701 12.9795 4.02504 13.019C4.06307 13.0584 4.08728 13.1091 4.09407 13.1635C4.11704 13.3116 4.14095 13.4645 4.17376 13.6098C4.18433 13.6626 4.17813 13.7175 4.15603 13.7666C4.13393 13.8158 4.09703 13.8568 4.05048 13.884L2.98313 14.4779C2.8771 14.5319 2.79464 14.6231 2.75142 14.734C2.70821 14.8449 2.70726 14.9678 2.74876 15.0793L2.93626 15.5902C2.97696 15.7021 3.05743 15.795 3.16231 15.8513C3.2672 15.9076 3.38914 15.9233 3.50485 15.8954L4.70251 15.6634C4.75607 15.6536 4.81133 15.6612 4.86035 15.6848C4.90937 15.7085 4.94962 15.7471 4.97532 15.7951C5.04563 15.9263 5.1211 16.059 5.20032 16.1898C5.22923 16.2363 5.24279 16.2908 5.23909 16.3454C5.23539 16.4001 5.21461 16.4522 5.1797 16.4945L4.38282 17.4146C4.30092 17.5009 4.25334 17.6141 4.24903 17.7329C4.24471 17.8518 4.28395 17.9681 4.35938 18.0601L4.70673 18.4777C4.78233 18.5695 4.88933 18.6299 5.00695 18.6472C5.12458 18.6645 5.24444 18.6376 5.34329 18.5715L6.39188 17.942C6.43837 17.9141 6.49259 17.9019 6.54653 17.9073C6.60046 17.9126 6.65126 17.9351 6.69141 17.9715C6.80766 18.0732 6.92579 18.1712 7.03688 18.2616C7.07949 18.2953 7.11029 18.3417 7.12487 18.394C7.13944 18.4463 7.13703 18.5019 7.11798 18.5527L6.68345 19.6965C6.63618 19.8056 6.63064 19.9283 6.66788 20.0413C6.70513 20.1542 6.78256 20.2495 6.88548 20.3091L7.35938 20.5829C7.46232 20.6423 7.58356 20.6617 7.69989 20.6373C7.81622 20.6129 7.91946 20.5465 7.98985 20.4507L8.76563 19.4968C8.83126 19.4157 8.93438 19.3796 9.01079 19.4105C9.17391 19.478 9.28313 19.516 9.47673 19.5807C9.52829 19.5976 9.57314 19.6304 9.60476 19.6745C9.63637 19.7186 9.6531 19.7716 9.65251 19.8259L9.63376 21.047C9.62743 21.1662 9.6647 21.2837 9.73861 21.3776C9.81252 21.4714 9.91803 21.5352 10.0355 21.557L10.5722 21.6507C10.6892 21.6711 10.8096 21.6483 10.9109 21.5864C11.0123 21.5246 11.0876 21.428 11.123 21.3146L11.5214 20.1535C11.5394 20.1019 11.5736 20.0573 11.6188 20.0265C11.6641 19.9957 11.718 19.9803 11.7727 19.9824H12.2297C12.284 19.9812 12.3372 19.9972 12.3818 20.0281C12.4264 20.059 12.4602 20.1032 12.4781 20.1545L12.8752 21.3109C12.9059 21.4113 12.968 21.4991 13.0524 21.5617C13.1368 21.6242 13.2389 21.658 13.3439 21.6582C13.3719 21.6583 13.3998 21.6558 13.4274 21.6507L13.965 21.557C14.0818 21.5355 14.1868 21.4724 14.2606 21.3794C14.3344 21.2864 14.372 21.1698 14.3663 21.0512L14.3475 19.8249C14.3471 19.7709 14.364 19.7182 14.3956 19.6743C14.4272 19.6305 14.4719 19.5979 14.5233 19.5812C14.7033 19.5207 14.8299 19.472 14.9409 19.4288L14.9691 19.418C15.1144 19.3679 15.1847 19.4288 15.2255 19.4795L16.0106 20.4465C16.081 20.5421 16.1842 20.6085 16.3004 20.6329C16.4166 20.6573 16.5377 20.638 16.6406 20.5787L17.1127 20.3054C17.2159 20.2458 17.2936 20.1502 17.3309 20.0369C17.3681 19.9236 17.3624 19.8006 17.3147 19.6913L16.8816 18.5504C16.8625 18.4996 16.8598 18.444 16.874 18.3916C16.8883 18.3392 16.9186 18.2926 16.9608 18.2584C17.0747 18.1646 17.1914 18.0709 17.3077 17.9668C17.3478 17.9306 17.3986 17.9082 17.4524 17.903C17.5062 17.8977 17.5603 17.9099 17.6067 17.9377L18.6563 18.5659C18.7557 18.6307 18.8755 18.657 18.993 18.6397C19.1105 18.6224 19.2176 18.5628 19.2942 18.4721L19.6411 18.0549C19.7181 17.9642 19.7588 17.8483 19.7556 17.7293C19.7524 17.6104 19.7055 17.4969 19.6238 17.4104L18.8241 16.4884C18.7885 16.4469 18.7673 16.3951 18.7635 16.3407C18.7597 16.2862 18.7735 16.232 18.803 16.186C18.8831 16.059 18.9595 15.9249 19.0289 15.7904C19.055 15.7423 19.0956 15.7036 19.1449 15.6799C19.1942 15.6561 19.2497 15.6485 19.3036 15.6582L20.498 15.8912C20.6138 15.9191 20.7358 15.9034 20.8407 15.8472C20.9457 15.7909 21.0262 15.6979 21.067 15.586L21.2522 15.076C21.2936 14.9644 21.2926 14.8415 21.2494 14.7305C21.2062 14.6196 21.1238 14.5284 21.0178 14.4741L19.9491 13.8802C19.9017 13.8535 19.8643 13.8122 19.8422 13.7624C19.8202 13.7127 19.8148 13.6572 19.8267 13.6041L19.838 13.5446C19.8624 13.4138 19.8849 13.2901 19.9064 13.1584C19.9139 13.1047 19.9381 13.0548 19.9757 13.0157C20.0132 12.9766 20.0621 12.9504 20.1155 12.9409L21.3197 12.7468C21.4378 12.7326 21.5466 12.6758 21.6258 12.5871C21.705 12.4984 21.7492 12.3838 21.75 12.2649V11.716ZM8.51016 16.1223C8.45175 16.2238 8.37007 16.3101 8.27183 16.374C8.1736 16.4378 8.06161 16.4775 7.94507 16.4897C7.82853 16.5018 7.71077 16.4862 7.60145 16.444C7.49214 16.4018 7.3944 16.3343 7.31626 16.247C6.26023 15.0793 5.67715 13.5601 5.68079 11.9857C5.68443 10.4114 6.27453 8.89486 7.33595 7.73211C7.41449 7.64484 7.51265 7.57747 7.62234 7.53557C7.73203 7.49367 7.8501 7.47843 7.96683 7.49111C8.08356 7.50379 8.19561 7.54403 8.29374 7.6085C8.39188 7.67298 8.47328 7.75985 8.53126 7.86196L10.6711 11.6284C10.7354 11.7407 10.7692 11.8679 10.7692 11.9973C10.7692 12.1267 10.7354 12.2538 10.6711 12.3662L8.51016 16.1223ZM12 18.3338C11.5539 18.3339 11.1091 18.2868 10.673 18.1932C10.5594 18.1678 10.4533 18.116 10.3635 18.042C10.2736 17.968 10.2024 17.8739 10.1557 17.7672C10.109 17.6606 10.0881 17.5444 10.0946 17.4282C10.1012 17.312 10.135 17.1989 10.1934 17.0982L12.3497 13.3482C12.4146 13.2352 12.5081 13.1413 12.6208 13.0761C12.7336 13.0108 12.8616 12.9764 12.9919 12.9765H17.3109C17.4273 12.9763 17.542 13.0035 17.6459 13.056C17.7498 13.1084 17.8398 13.1846 17.9087 13.2783C17.9777 13.372 18.0235 13.4807 18.0427 13.5954C18.0618 13.7102 18.0536 13.8278 18.0188 13.9388C17.1989 16.4851 14.8125 18.3338 12 18.3338ZM12.352 10.651L10.2188 6.89446C10.1609 6.79358 10.1277 6.68052 10.1216 6.56441C10.1156 6.4483 10.137 6.3324 10.184 6.22607C10.2311 6.11975 10.3025 6.02598 10.3925 5.95236C10.4825 5.87874 10.5885 5.82732 10.702 5.80227C11.1288 5.71232 11.5638 5.66708 12 5.66727C14.8125 5.66727 17.1989 7.51602 18.0174 10.0637C18.0522 10.1747 18.0604 10.2923 18.0413 10.4071C18.0221 10.5219 17.9763 10.6305 17.9073 10.7242C17.8384 10.8179 17.7483 10.8941 17.6445 10.9465C17.5406 10.999 17.4259 11.0262 17.3095 11.026H12.997C12.8659 11.0263 12.7371 10.9917 12.6238 10.9258C12.5105 10.8599 12.4167 10.7651 12.352 10.651Z"
          fill="#1F1D25"/>
</svg>
