<svg width="24" height="24" viewBox="0 0 24 24" fill="none" xmlns="http://www.w3.org/2000/svg">
    <path d="M11.8931 9.49359C11.9244 9.51537 11.9617 9.52704 11.9999 9.52704C12.0381 9.52704 12.0754 9.51537 12.1068 9.49359C12.9769 8.8983 13.9684 8.50368 15.0095 8.33822C16.0507 8.17277 17.1157 8.24062 18.1274 8.53687C18.1561 8.5455 18.1864 8.54715 18.2158 8.54168C18.2452 8.53621 18.2729 8.52378 18.2965 8.50542C18.3202 8.48707 18.3391 8.46333 18.3516 8.43618C18.3642 8.40903 18.3701 8.37927 18.3688 8.34937C18.2249 4.96219 15.4218 2.25 11.9999 2.25C8.57806 2.25 5.77493 4.96219 5.63103 8.35078C5.62976 8.38067 5.63566 8.41044 5.64824 8.43759C5.66082 8.46473 5.67972 8.48848 5.70335 8.50683C5.72698 8.52518 5.75466 8.53762 5.78407 8.54309C5.81349 8.54856 5.84379 8.54691 5.87244 8.53828C6.88421 8.24203 7.94914 8.17418 8.99033 8.33963C10.0315 8.50508 11.023 8.89971 11.8931 9.495V9.49359Z"
          fill="#1F1D25"/>
    <path d="M18.9993 9.96431C18.7886 11.0542 18.327 12.0801 17.651 12.9607C16.9751 13.8412 16.1034 14.5523 15.1049 15.0376C15.0724 15.0531 15.045 15.0777 15.026 15.1083C15.0071 15.139 14.9974 15.1745 14.9981 15.2106C14.9981 15.2654 15.0004 15.3203 15.0004 15.3756C15.0009 16.3396 14.8052 17.2936 14.4252 18.1795C14.0452 19.0655 13.489 19.8649 12.7903 20.529C12.7694 20.5487 12.7533 20.573 12.7432 20.5999C12.7332 20.6268 12.7295 20.6557 12.7324 20.6843C12.7353 20.7129 12.7447 20.7404 12.76 20.7648C12.7752 20.7891 12.7958 20.8097 12.8202 20.8248C13.8159 21.4314 14.9595 21.7518 16.1254 21.7506C19.5037 21.7506 22.4113 18.9249 22.5004 15.5471C22.5309 14.3923 22.2471 13.2509 21.6794 12.2447C21.1118 11.2386 20.2815 10.4055 19.2773 9.83446C19.2512 9.81948 19.2219 9.811 19.1918 9.80974C19.1618 9.80847 19.1318 9.81446 19.1046 9.82719C19.0773 9.83992 19.0535 9.85903 19.0352 9.88289C19.0169 9.90676 19.0046 9.93468 18.9993 9.96431Z"
          fill="#1F1D25"/>
    <path d="M18.3083 9.54705C18.3149 9.50332 18.306 9.45863 18.2829 9.42089C18.2598 9.38315 18.2241 9.35478 18.1822 9.3408C17.2999 9.03995 16.3624 8.93645 15.4358 9.03761C14.5093 9.13878 13.6162 9.44214 12.8197 9.92627C12.7954 9.94141 12.7749 9.96191 12.7598 9.98619C12.7447 10.0105 12.7353 10.0379 12.7324 10.0663C12.7295 10.0948 12.7332 10.1235 12.7431 10.1504C12.753 10.1772 12.7689 10.2014 12.7897 10.2211C13.8653 11.2446 14.5941 12.5786 14.8742 14.0367C14.8797 14.0662 14.8923 14.0939 14.9108 14.1176C14.9292 14.1412 14.9531 14.1601 14.9804 14.1726C15.0077 14.1851 15.0376 14.1908 15.0675 14.1894C15.0975 14.1879 15.1267 14.1793 15.1526 14.1642C15.9943 13.6843 16.7158 13.0192 17.2625 12.2193C17.8092 11.4194 18.1668 10.5056 18.3083 9.54705V9.54705Z"
          fill="#1F1D25"/>
    <path d="M8.99987 15.3753C8.99987 15.32 8.99987 15.2652 9.00222 15.2103C9.00292 15.1743 8.99322 15.1388 8.97426 15.1081C8.95531 15.0774 8.9279 15.0529 8.89534 15.0374C7.89693 14.5521 7.02522 13.841 6.34927 12.9604C5.67332 12.0799 5.2117 11.054 5.00097 9.96408C4.99557 9.9348 4.98328 9.90722 4.96511 9.88363C4.94694 9.86004 4.92341 9.84112 4.89648 9.82843C4.86954 9.81574 4.83997 9.80964 4.81021 9.81065C4.78045 9.81167 4.75136 9.81975 4.72534 9.83424C3.72113 10.4053 2.89086 11.2384 2.32319 12.2445C1.75552 13.2506 1.47176 14.3921 1.50222 15.5469C1.59362 18.9247 4.49987 21.7503 7.87722 21.7503C9.04231 21.7511 10.1851 21.4308 11.18 20.8246C11.2045 20.8094 11.2251 20.7889 11.2403 20.7645C11.2555 20.7402 11.265 20.7126 11.2679 20.6841C11.2708 20.6555 11.2671 20.6266 11.257 20.5997C11.247 20.5728 11.2309 20.5485 11.21 20.5288C10.5113 19.8646 9.95504 19.0653 9.57508 18.1793C9.19512 17.2933 8.99941 16.3393 8.99987 15.3753V15.3753Z"
          fill="#1F1D25"/>
    <path d="M7.87458 9C7.17485 8.99939 6.47984 9.11454 5.8177 9.34079C5.77573 9.35476 5.74006 9.38313 5.71698 9.42088C5.69391 9.45862 5.68492 9.50331 5.69161 9.54704C5.83305 10.5056 6.19065 11.4194 6.73735 12.2193C7.28406 13.0192 8.00555 13.6843 8.84724 14.1642C8.87318 14.1793 8.90237 14.1879 8.93233 14.1894C8.9623 14.1908 8.99218 14.1851 9.01946 14.1726C9.04674 14.1601 9.07063 14.1412 9.08911 14.1176C9.10759 14.0939 9.12013 14.0662 9.12567 14.0367C9.40576 12.5786 10.1346 11.2446 11.2102 10.2211C11.2309 10.2014 11.2468 10.1772 11.2568 10.1503C11.2667 10.1235 11.2703 10.0948 11.2674 10.0663C11.2646 10.0379 11.2552 10.0105 11.2401 9.98618C11.2249 9.9619 11.2045 9.9414 11.1802 9.92625C10.1845 9.31922 9.04069 8.99871 7.87458 9V9Z"
          fill="#1F1D25"/>
    <path d="M11.9999 15.7499C11.3222 15.7504 10.6478 15.6538 9.99743 15.463C9.96879 15.4544 9.93849 15.4528 9.90907 15.4582C9.87965 15.4637 9.85197 15.4761 9.82834 15.4945C9.80471 15.5129 9.78582 15.5366 9.77324 15.5637C9.76066 15.5909 9.75476 15.6207 9.75603 15.6505C9.79238 16.4996 9.99851 17.3328 10.3623 18.1009C10.726 18.8689 11.24 19.5563 11.8738 20.1224C11.9083 20.1538 11.9533 20.1712 11.9999 20.1712C12.0466 20.1712 12.0915 20.1538 12.126 20.1224C12.7599 19.5563 13.2739 18.8689 13.6376 18.1009C14.0014 17.3328 14.2075 16.4996 14.2438 15.6505C14.2451 15.6207 14.2392 15.5909 14.2266 15.5637C14.214 15.5366 14.1951 15.5129 14.1715 15.4945C14.1479 15.4761 14.1202 15.4637 14.0908 15.4582C14.0614 15.4528 14.0311 15.4544 14.0024 15.463C13.352 15.6538 12.6777 15.7504 11.9999 15.7499V15.7499Z"
          fill="#1F1D25"/>
    <path d="M14.1825 14.4533C13.9659 12.9772 13.2381 11.6239 12.1261 10.6292C12.0913 10.5982 12.0462 10.5811 11.9996 10.5811C11.9529 10.5811 11.9079 10.5982 11.873 10.6292C10.761 11.6239 10.0333 12.9772 9.81661 14.4533C9.80992 14.497 9.81891 14.5417 9.84198 14.5795C9.86506 14.6172 9.90073 14.6456 9.9427 14.6596C11.2763 15.1139 12.7228 15.1139 14.0565 14.6596C14.0984 14.6456 14.1341 14.6172 14.1572 14.5795C14.1803 14.5417 14.1892 14.497 14.1825 14.4533Z"
          fill="#1F1D25"/>
</svg>
