<svg width="24" height="24" viewBox="0 0 24 24" fill="none" xmlns="http://www.w3.org/2000/svg">
    <path d="M19.5 22.4997C17.8458 22.4997 16.5 21.1352 16.5 19.4585C16.5 17.898 17.8439 16.3929 18.5662 15.5847C18.6539 15.4863 18.7298 15.4015 18.7856 15.3358C18.8734 15.2313 18.9829 15.1472 19.1066 15.0895C19.2303 15.0318 19.3652 15.002 19.5016 15.002C19.6381 15.002 19.773 15.0318 19.8967 15.0895C20.0204 15.1472 20.1299 15.2313 20.2177 15.3358C20.2706 15.3972 20.3409 15.4765 20.422 15.5669C21.1486 16.3779 22.5 17.8877 22.5 19.4599C22.5 21.1352 21.1542 22.4997 19.5 22.4997Z"
          fill="#1F1D25"/>
    <path d="M18.6672 12.9675L7.82313 2.21341C7.36529 1.75657 6.74491 1.5 6.09813 1.5C5.45135 1.5 4.83098 1.75657 4.37313 2.21341L4.16172 2.42482C3.69205 2.88681 3.42427 3.51589 3.41688 4.17466C3.41507 4.4963 3.47735 4.81507 3.60008 5.11237C3.72282 5.40967 3.90355 5.67954 4.13172 5.90623L6.07751 7.85154L2.10954 11.8125C1.91316 12.0093 1.7581 12.2434 1.65345 12.501C1.54881 12.7586 1.49669 13.0345 1.50016 13.3125C1.50247 13.5837 1.55974 13.8516 1.6685 14.1001C1.77727 14.3486 1.93527 14.5724 2.13298 14.7581L8.28485 20.6644C8.67035 21.0339 9.18413 21.2394 9.71811 21.2379C10.2521 21.2363 10.7647 21.0277 11.148 20.6559L16.9656 15.0178C17.0708 14.9132 17.2054 14.843 17.3514 14.8167C17.5363 14.7871 17.7234 14.7737 17.9106 14.7764H17.9247C18.1345 14.7767 18.3396 14.7146 18.5139 14.598C18.6882 14.4813 18.8239 14.3154 18.9035 14.1213C18.9832 13.9273 19.0032 13.7139 18.9611 13.5084C18.919 13.3029 18.8167 13.1146 18.6672 12.9675V12.9675ZM7.13876 6.78982L5.19204 4.84357C5.10459 4.75647 5.0352 4.65296 4.98786 4.53897C4.94051 4.42499 4.91614 4.30278 4.91614 4.17935C4.91614 4.05593 4.94051 3.93372 4.98786 3.81973C5.0352 3.70575 5.10459 3.60224 5.19204 3.51513L5.43391 3.27373C5.52128 3.18632 5.62501 3.11698 5.73918 3.06968C5.85335 3.02237 5.97572 2.99802 6.0993 2.99802C6.22289 2.99802 6.34526 3.02237 6.45943 3.06968C6.5736 3.11698 6.67733 3.18632 6.76469 3.27373L8.71891 5.21295L7.13876 6.78982Z"
          fill="#1F1D25"/>
</svg>
