<svg width="24" height="24" viewBox="0 0 24 24" fill="none" xmlns="http://www.w3.org/2000/svg">
    <path d="M4.5 9.75H2.25C1.8375 9.75 1.5 9.4125 1.5 9C1.5 8.5875 1.8375 8.25 2.25 8.25H4.5C4.9125 8.25 5.25 8.5875 5.25 9C5.25 9.4125 4.9125 9.75 4.5 9.75Z"
          fill="#1F1D25"/>
    <path d="M5.81718 6.56719C5.62031 6.56719 5.42812 6.4875 5.2875 6.34687L3.69844 4.75781C3.40781 4.46719 3.40781 3.98906 3.69844 3.69844C3.98906 3.40781 4.46719 3.40781 4.75781 3.69844L6.34687 5.2875C6.64218 5.57813 6.64218 6.05625 6.34687 6.34687C6.20624 6.4875 6.01874 6.56719 5.81718 6.56719Z"
          fill="#1F1D25"/>
    <path d="M9 5.25C8.5875 5.25 8.25 4.9125 8.25 4.5V2.25C8.25 1.8375 8.5875 1.5 9 1.5C9.4125 1.5 9.75 1.8375 9.75 2.25V4.5C9.75 4.9125 9.4125 5.25 9 5.25Z"
          fill="#1F1D25"/>
    <path d="M12.1826 6.56719C11.7701 6.56719 11.4326 6.22969 11.4326 5.81719C11.4326 5.62031 11.5123 5.42813 11.6529 5.2875L13.242 3.69844C13.5326 3.40781 14.0107 3.40781 14.3014 3.69844C14.592 3.98906 14.592 4.46719 14.3014 4.75781L12.7123 6.34687C12.5717 6.4875 12.3795 6.56719 12.1826 6.56719Z"
          fill="#1F1D25"/>
    <path d="M4.22851 14.5213C3.81601 14.5213 3.47852 14.1838 3.47852 13.7713C3.47852 13.5744 3.5582 13.3822 3.69883 13.2416L5.28789 11.6525C5.57851 11.3619 6.05663 11.3619 6.34726 11.6525C6.63788 11.9432 6.63788 12.4213 6.34726 12.7119L4.7582 14.301C4.61758 14.4416 4.42539 14.5213 4.22851 14.5213Z"
          fill="#1F1D25"/>
    <path d="M10.9781 7.82805C10.1156 6.95149 8.70461 6.93742 7.82805 7.79524C6.95149 8.65305 6.93742 10.0687 7.79524 10.9452C7.80461 10.9546 7.81867 10.9687 7.82805 10.9781L9.67961 12.8296C9.82493 12.9749 10.064 12.9749 10.2093 12.8296L12.8296 10.2093C12.9749 10.064 12.9749 9.82493 12.8296 9.67961L10.9781 7.82805Z"
          fill="#1F1D25"/>
    <path d="M21.4223 18.2713L14.4191 11.2682C14.2738 11.1229 14.0348 11.1229 13.8895 11.2682L11.2691 13.8885C11.1238 14.0338 11.1238 14.2729 11.2691 14.4182L18.2723 21.4213C19.1348 22.2979 20.5457 22.3119 21.4223 21.4541C22.2988 20.5916 22.3129 19.1807 21.4551 18.3041C21.4457 18.2947 21.4363 18.2807 21.4223 18.2713Z"
          fill="#1F1D25"/>
</svg>
