<svg width="24" height="24" viewBox="0 0 24 24" fill="none" xmlns="http://www.w3.org/2000/svg">
    <path d="M23.6057 5.91608C23.5506 5.80284 23.4693 5.70439 23.3685 5.62895C23.2677 5.55351 23.1503 5.50326 23.0262 5.48239C22.902 5.46152 22.7747 5.47063 22.6547 5.50897C22.5348 5.54731 22.4258 5.61377 22.3368 5.7028L19.9391 8.10045C19.8413 8.19692 19.7094 8.25101 19.5721 8.25101C19.4347 8.25101 19.3028 8.19692 19.205 8.10045L18.1513 7.0467C18.0549 6.94876 18.0009 6.81685 18.0009 6.67944C18.0009 6.54202 18.0549 6.41011 18.1513 6.31217L20.5363 3.9267C20.6275 3.83546 20.695 3.72324 20.7329 3.59986C20.7708 3.47649 20.7778 3.34572 20.7534 3.21899C20.7291 3.09227 20.674 2.97344 20.5931 2.87291C20.5122 2.77239 20.4078 2.69322 20.2893 2.64233C18.4278 1.84545 16.1136 2.29311 14.6643 3.73405C13.4075 4.98139 13.0316 6.92155 13.633 9.06374C13.6589 9.15567 13.6588 9.253 13.6327 9.34488C13.6065 9.43675 13.5553 9.51955 13.4849 9.58405L5.38019 17.1145C5.11169 17.3561 4.89518 17.6498 4.74385 17.9777C4.59252 18.3056 4.50954 18.6609 4.49996 19.022C4.49038 19.383 4.55441 19.7422 4.68814 20.0777C4.82188 20.4132 5.02252 20.7179 5.27783 20.9734C5.53315 21.2288 5.8378 21.4296 6.17323 21.5635C6.50865 21.6974 6.86783 21.7616 7.22887 21.7522C7.58991 21.7428 7.94526 21.66 8.27327 21.5089C8.60127 21.3577 8.89507 21.1413 9.13675 20.873L16.7347 12.7542C16.7983 12.6853 16.8795 12.6351 16.9695 12.6089C17.0596 12.5827 17.155 12.5816 17.2457 12.6056C19.355 13.1681 21.2769 12.7931 22.5158 11.5744C23.2283 10.8712 23.7257 9.87889 23.9169 8.77545C24.0964 7.73483 23.983 6.69233 23.6057 5.91608Z"
          fill="#1F1D25"/>
    <path d="M20.4997 17.7379C19.8463 17.1946 18.4503 15.9379 17.0277 14.6338L13.9307 17.9436C15.2544 19.3499 16.4525 20.6554 16.9775 21.2661L16.9808 21.2699C17.1069 21.4142 17.2612 21.5313 17.4342 21.6138C17.6072 21.6963 17.7952 21.7427 17.9867 21.7499H18.0383C18.4066 21.7488 18.7598 21.6038 19.0227 21.3458L19.026 21.3425L20.593 19.7783C20.7291 19.6425 20.8354 19.4798 20.905 19.3005C20.9745 19.1213 21.0059 18.9294 20.9971 18.7374C20.9883 18.5453 20.9394 18.3572 20.8537 18.185C20.768 18.0129 20.6472 17.8606 20.4992 17.7379H20.4997Z"
          fill="#1F1D25"/>
    <path d="M5.55653 10.057C5.55729 9.87913 5.50861 9.7045 5.4159 9.55266C5.40292 9.53212 5.39598 9.50834 5.39588 9.48405C5.39578 9.45975 5.40252 9.43592 5.41534 9.41528C5.42815 9.39464 5.44652 9.37802 5.46834 9.36733C5.49016 9.35664 5.51455 9.35232 5.53871 9.35485H5.54153C5.5809 9.35906 5.79137 9.38953 6.08996 9.57094C6.31168 9.70547 6.9445 10.1372 8.04606 11.2369C8.03433 11.6114 8.15407 11.9782 8.3845 12.2738L11.489 9.38859C11.2141 9.12824 10.8548 8.97521 10.4765 8.95735C10.473 8.95349 10.4697 8.94942 10.4667 8.94516L10.4362 8.91281L9.2859 7.32656C9.15802 7.15292 9.07416 6.95086 9.0415 6.73769C9.00884 6.52453 9.02837 6.30662 9.0984 6.10266C9.20392 5.79887 9.39583 5.53251 9.65059 5.33625C9.91731 5.12953 10.5192 4.88063 11.0306 4.83844C11.2688 4.81874 11.5086 4.83358 11.7426 4.8825C11.8547 4.90955 11.9652 4.94288 12.0736 4.98235C12.1064 4.99461 12.1401 5.00448 12.1743 5.01188C12.3231 5.04484 12.4784 5.03169 12.6196 4.97418C12.7607 4.91668 12.881 4.81754 12.9643 4.68997C13.0477 4.56241 13.0903 4.41247 13.0863 4.26012C13.0823 4.10777 13.0321 3.96025 12.9422 3.83719C12.93 3.82078 12.8803 3.75328 12.8067 3.66235C12.6694 3.48916 12.5189 3.32681 12.3567 3.17672C11.9747 2.83172 10.9847 2.25 9.68481 2.25C8.94094 2.24946 8.20399 2.39271 7.5145 2.67188C5.7159 3.3961 4.53934 4.38656 3.9984 4.91203L3.99418 4.91625C3.6302 5.27565 3.29319 5.66138 2.9859 6.07031C2.86973 6.23414 2.79421 6.42325 2.76559 6.62203C2.75222 6.7066 2.70775 6.78313 2.6409 6.83663C2.57405 6.89013 2.48963 6.91674 2.40418 6.91125C2.38731 6.91125 2.36996 6.91125 2.35309 6.91125C2.09755 6.90955 1.85171 7.00896 1.66918 7.18781L0.288714 8.5336L0.273714 8.54859C0.100065 8.72901 0.00212667 8.96909 3.42289e-05 9.21948C-0.00205821 9.46988 0.0918538 9.71156 0.262464 9.89485C0.271371 9.90422 0.279808 9.91313 0.289183 9.92203L2.51575 12.0938C2.6992 12.2735 2.94563 12.3744 3.20246 12.375C3.458 12.3767 3.70385 12.2773 3.88637 12.0984L5.26731 10.7489C5.35941 10.6588 5.43247 10.5512 5.48216 10.4323C5.53184 10.3135 5.55713 10.1859 5.55653 10.057V10.057Z"
          fill="#1F1D25"/>
</svg>
