<svg width="24" height="24" viewBox="0 0 24 24" fill="none" xmlns="http://www.w3.org/2000/svg">
    <path d="M11.9998 1.50004C9.92315 1.50007 7.89311 2.11591 6.16643 3.26967C4.43975 4.42342 3.09396 6.06329 2.29926 7.98189C1.50455 9.90049 1.29662 12.0117 1.70175 14.0484C2.10688 16.0852 3.10688 17.9561 4.57529 19.4246C5.54856 20.4075 6.70644 21.1884 7.98241 21.7224C9.25838 22.2565 10.6273 22.5331 12.0105 22.5366C13.3938 22.54 14.764 22.27 16.0426 21.7423C17.3212 21.2145 18.4829 20.4393 19.461 19.4612C20.4391 18.4831 21.2143 17.3214 21.742 16.0428C22.2698 14.7642 22.5397 13.394 22.5363 12.0107C22.5329 10.6275 22.2563 9.2586 21.7222 7.98262C21.1882 6.70665 20.4072 5.54877 19.4244 4.57551C18.4516 3.59742 17.2946 2.82198 16.0202 2.29408C14.7457 1.76617 13.3793 1.49629 11.9998 1.50004V1.50004ZM2.99982 12C2.99982 7.03738 7.03717 3.00004 11.9998 3.00004V21C7.03717 21 2.99982 16.9627 2.99982 12Z"
          fill="#1F1D25"/>
</svg>
