<svg width="24" height="24" viewBox="0 0 24 24" fill="none" xmlns="http://www.w3.org/2000/svg">
    <path d="M4.85048 10.5C5.61291 10.5006 6.35284 10.2417 6.94861 9.76594L8.89392 10.5577L9.21361 9.96563C9.27113 9.85969 9.33896 9.75967 9.41611 9.66703L10.0827 8.9911L8.15282 7.82203C8.29686 7.13964 8.22596 6.42937 7.94986 5.78892C7.67376 5.14846 7.20603 4.60927 6.61099 4.24549C6.01594 3.8817 5.32281 3.7112 4.62691 3.75742C3.93101 3.80364 3.26652 4.06432 2.72482 4.5036C2.18311 4.94289 1.7908 5.5392 1.60183 6.21055C1.41286 6.8819 1.43652 7.5953 1.66954 8.25265C1.90257 8.91 2.33352 9.47902 2.90313 9.88146C3.47275 10.2839 4.15305 10.5 4.85048 10.5V10.5ZM4.85048 5.25C5.22132 5.25 5.58383 5.35997 5.89217 5.566C6.20052 5.77202 6.44084 6.06486 6.58275 6.40747C6.72467 6.75008 6.7618 7.12708 6.68945 7.4908C6.6171 7.85451 6.43853 8.1886 6.1763 8.45083C5.91408 8.71305 5.57999 8.89163 5.21627 8.96397C4.85256 9.03632 4.47556 8.99919 4.13295 8.85728C3.79034 8.71536 3.4975 8.47504 3.29147 8.1667C3.08545 7.85835 2.97548 7.49584 2.97548 7.125C2.97548 6.62772 3.17302 6.15081 3.52465 5.79918C3.87629 5.44755 4.3532 5.25 4.85048 5.25V5.25Z"
          fill="#1F1D25"/>
    <path d="M22.4995 7.92132L22.2407 7.33163C22.0307 6.84319 21.5498 6.58163 20.7042 6.49491C20.2298 6.44804 19.4409 6.43679 18.375 6.6735C17.4375 6.8821 12.6497 7.99538 10.6429 9.42132C9.69372 10.0958 9.51512 10.9996 9.3745 11.7257C9.24419 12.3885 9.14012 12.9121 8.53075 13.3663C7.82762 13.8885 7.25247 14.1341 6.95669 14.2382C6.33131 13.7417 5.54966 13.4839 4.75161 13.511C3.95357 13.5381 3.19121 13.8483 2.60096 14.3861C2.0107 14.9239 1.63107 15.6542 1.52999 16.4462C1.42891 17.2383 1.61298 18.0405 2.04927 18.7093C2.48556 19.3781 3.14559 19.8698 3.91125 20.0964C4.67692 20.3231 5.49824 20.2699 6.22827 19.9463C6.95829 19.6228 7.54937 19.0501 7.89573 18.3306C8.24209 17.6111 8.32114 16.7919 8.11872 16.0194L22.4995 7.92132ZM11.9751 11.9994C11.8268 11.9994 11.6818 11.9555 11.5584 11.873C11.4351 11.7906 11.339 11.6735 11.2822 11.5365C11.2254 11.3994 11.2106 11.2486 11.2395 11.1031C11.2685 10.9576 11.3399 10.824 11.4448 10.7191C11.5497 10.6142 11.6833 10.5428 11.8288 10.5139C11.9743 10.4849 12.1251 10.4998 12.2621 10.5565C12.3992 10.6133 12.5163 10.7094 12.5987 10.8328C12.6811 10.9561 12.7251 11.1011 12.7251 11.2494C12.7251 11.3479 12.7057 11.4455 12.668 11.5365C12.6303 11.6274 12.5751 11.7101 12.5055 11.7798C12.4358 11.8494 12.3531 11.9047 12.2621 11.9424C12.1711 11.98 12.0736 11.9994 11.9751 11.9994V11.9994ZM4.85012 18.7494C4.47928 18.7494 4.11677 18.6395 3.80843 18.4334C3.50009 18.2274 3.25976 17.9346 3.11785 17.592C2.97593 17.2494 2.9388 16.8724 3.01115 16.5086C3.0835 16.1449 3.26207 15.8108 3.5243 15.5486C3.78652 15.2864 4.12061 15.1078 4.48433 15.0355C4.84804 14.9631 5.22504 15.0003 5.56765 15.1422C5.91027 15.2841 6.2031 15.5244 6.40913 15.8327C6.61516 16.1411 6.72512 16.5036 6.72512 16.8744C6.72512 17.3717 6.52758 17.8486 6.17595 18.2003C5.82432 18.5519 5.3474 18.7494 4.85012 18.7494V18.7494Z"
          fill="#1F1D25"/>
    <path d="M16.1148 12.1816L12.1895 14.4401L13.4846 15.0532L13.6543 15.1348C14.5309 15.559 16.8624 16.6877 19.2432 16.8284C19.4255 16.8391 19.5934 16.8443 19.7485 16.8443C20.7184 16.8429 21.234 16.594 21.5504 16.4065L22.4996 15.7502L16.1148 12.1816Z"
          fill="#1F1D25"/>
</svg>
