<svg width="330" height="167" viewBox="0 0 330 167" fill="none" xmlns="http://www.w3.org/2000/svg">
<rect width="330" height="167" rx="12" fill="#E0E0E0"/>
<path d="M165 90.75V89.25C165 88.4544 164.684 87.6913 164.121 87.1287C163.559 86.5661 162.796 86.25 162 86.25H156C155.204 86.25 154.441 86.5661 153.879 87.1287C153.316 87.6913 153 88.4544 153 89.25V90.75" stroke="#333333" strokeWidth="2" strokeLinecap="round" strokeLinejoin="round"/>
<path d="M159 83.25C160.657 83.25 162 81.9069 162 80.25C162 78.5931 160.657 77.25 159 77.25C157.343 77.25 156 78.5931 156 80.25C156 81.9069 157.343 83.25 159 83.25Z" stroke="#333333" strokeWidth="2" strokeLinecap="round" strokeLinejoin="round"/>
</svg>
