<svg width="24" height="24" viewBox="0 0 24 24" fill="none" xmlns="http://www.w3.org/2000/svg">
    <path d="M5.70583 1.50001C5.67472 1.49972 5.64403 1.50718 5.61653 1.52171C5.58902 1.53624 5.56556 1.55738 5.54826 1.58324C5.53097 1.60909 5.52037 1.63884 5.51744 1.66981C5.5145 1.70078 5.51932 1.73199 5.53145 1.76063L5.63926 2.01517L7.54708 6.46361C7.56004 6.49386 7.58074 6.52017 7.6071 6.53989C7.63346 6.55961 7.66454 6.57204 7.69723 6.57594C7.72991 6.57983 7.76305 6.57506 7.7933 6.56209C7.82356 6.54911 7.84986 6.52841 7.86958 6.50205L11.3908 1.80001C11.4117 1.77215 11.4244 1.73903 11.4276 1.70435C11.4307 1.66967 11.4241 1.6348 11.4085 1.60366C11.393 1.57251 11.369 1.54632 11.3394 1.52801C11.3098 1.5097 11.2756 1.50001 11.2408 1.50001H5.70583Z"
          fill="#1F1D25"/>
    <path d="M19.6844 2.7217L17.7494 7.23904C17.7373 7.26756 17.7323 7.29865 17.7351 7.32953C17.7379 7.36041 17.7483 7.39012 17.7654 7.41599C17.7825 7.44186 17.8058 7.46309 17.8331 7.47778C17.8604 7.49246 17.8909 7.50014 17.9219 7.50013H22.6563C22.6897 7.50015 22.7226 7.49123 22.7514 7.47429C22.7802 7.45735 22.804 7.43302 22.8202 7.40381C22.8365 7.3746 22.8446 7.34157 22.8438 7.30815C22.843 7.27473 22.8333 7.24213 22.8157 7.21373L20.0158 2.69686C19.9977 2.66778 19.972 2.64421 19.9415 2.62871C19.911 2.61321 19.8768 2.60636 19.8426 2.60892C19.8085 2.61148 19.7757 2.62335 19.7478 2.64323C19.7199 2.66311 19.698 2.69025 19.6844 2.7217Z"
          fill="#1F1D25"/>
    <path d="M3.98434 2.6987L1.18544 7.2137C1.1678 7.2421 1.15808 7.2747 1.15728 7.30812C1.15648 7.34154 1.16463 7.37457 1.18089 7.40378C1.19714 7.43299 1.22091 7.45733 1.24973 7.47427C1.27855 7.4912 1.31138 7.50013 1.34481 7.50011H6.07918C6.11021 7.50007 6.14075 7.49234 6.16805 7.4776C6.19535 7.46285 6.21857 7.44157 6.23562 7.41564C6.25267 7.38972 6.26302 7.35997 6.26574 7.32906C6.26846 7.29815 6.26347 7.26705 6.25122 7.23855L4.31247 2.72354C4.2986 2.69287 4.27673 2.6665 4.24916 2.64719C4.22159 2.62789 4.18933 2.61636 4.15577 2.61382C4.12221 2.61128 4.08858 2.61782 4.05842 2.63275C4.02825 2.64769 4.00267 2.67046 3.98434 2.6987V2.6987Z"
          fill="#1F1D25"/>
    <path d="M18.4349 1.5H12.5544C12.5374 1.49989 12.5208 1.50453 12.5063 1.5134C12.4919 1.52226 12.4802 1.535 12.4725 1.55016C12.4649 1.56533 12.4617 1.58232 12.4633 1.59922C12.4648 1.61612 12.4711 1.63225 12.4813 1.64578L16.2275 6.6361C16.2371 6.64892 16.2499 6.65899 16.2646 6.6653C16.2793 6.67161 16.2954 6.67393 16.3112 6.67202C16.3271 6.67012 16.3422 6.66407 16.355 6.65447C16.3678 6.64487 16.3778 6.63207 16.3841 6.61735L18.3566 2.01563L18.516 1.62469C18.5216 1.61127 18.5239 1.59669 18.5226 1.5822C18.5214 1.5677 18.5166 1.55373 18.5088 1.54147C18.5009 1.52922 18.4903 1.51904 18.4776 1.51182C18.465 1.5046 18.4508 1.50054 18.4363 1.5H18.4349Z"
          fill="#1F1D25"/>
    <path d="M11.2036 21L7.01155 9.11766C6.99924 9.08315 6.97654 9.05331 6.94657 9.03224C6.91661 9.01117 6.88084 8.99991 6.84421 9H1.20515C1.17248 8.99991 1.14044 9.00899 1.11269 9.02622C1.08494 9.04345 1.06258 9.06812 1.04816 9.09744C1.03375 9.12675 1.02786 9.15953 1.03117 9.19202C1.03448 9.22452 1.04684 9.25544 1.06687 9.28125L11.1919 22.3973C11.2261 22.4417 11.275 22.4725 11.3299 22.4843C11.3847 22.4961 11.4419 22.488 11.4914 22.4616V22.4616C11.5411 22.4354 11.5798 22.3922 11.6004 22.3399C11.621 22.2876 11.622 22.2296 11.6034 22.1766L11.2036 21Z"
          fill="#1F1D25"/>
    <path d="M22.7951 9H17.1561C17.1196 8.99999 17.0841 9.01131 17.0543 9.03239C17.0246 9.05347 17.0022 9.08326 16.9901 9.11766L12.387 22.1564C12.3677 22.2111 12.3685 22.271 12.3892 22.3252C12.41 22.3794 12.4494 22.4244 12.5004 22.4522C12.5514 22.4798 12.6106 22.4884 12.6673 22.4765C12.7241 22.4645 12.7747 22.4328 12.8103 22.387L22.9334 9.28125C22.9534 9.25544 22.9658 9.22452 22.9691 9.19202C22.9724 9.15953 22.9665 9.12675 22.9521 9.09744C22.9377 9.06812 22.9153 9.04345 22.8876 9.02622C22.8598 9.00899 22.8278 8.99991 22.7951 9V9Z"
          fill="#1F1D25"/>
    <path d="M12.1499 3.7L14.7749 7.20016C14.7958 7.22801 14.8085 7.26114 14.8117 7.29582C14.8148 7.3305 14.8082 7.36536 14.7926 7.39651C14.7771 7.42765 14.7531 7.45385 14.7235 7.47215C14.6939 7.49046 14.6597 7.50016 14.6249 7.50016H9.37493C9.3401 7.50016 9.30597 7.49046 9.27635 7.47215C9.24673 7.45385 9.22279 7.42765 9.20722 7.39651C9.19165 7.36536 9.18506 7.3305 9.18818 7.29582C9.19131 7.26114 9.20403 7.22801 9.22493 7.20016L11.8499 3.7C11.8674 3.67671 11.89 3.65781 11.9161 3.64479C11.9421 3.63178 11.9708 3.625 11.9999 3.625C12.029 3.625 12.0577 3.63178 12.0838 3.64479C12.1098 3.65781 12.1325 3.67671 12.1499 3.7ZM11.8218 18.2458L8.64836 9.25C8.6384 9.22173 8.63535 9.19149 8.63949 9.1618C8.64362 9.13211 8.65481 9.10385 8.67212 9.07938C8.68943 9.05491 8.71235 9.03495 8.73896 9.02116C8.76558 9.00738 8.79511 9.00017 8.82508 9.00016H15.1748C15.2047 9.00017 15.2343 9.00738 15.2609 9.02116C15.2875 9.03495 15.3104 9.05491 15.3277 9.07938C15.345 9.10385 15.3562 9.13211 15.3604 9.1618C15.3645 9.19149 15.3615 9.22173 15.3515 9.25L12.1766 18.2458C12.1637 18.2823 12.1398 18.3139 12.1081 18.3363C12.0765 18.3586 12.0387 18.3706 11.9999 18.3706C11.9612 18.3706 11.9234 18.3586 11.8917 18.3363C11.8601 18.3139 11.8362 18.2823 11.8232 18.2458H11.8218Z"
          fill="#1F1D25"/>
</svg>
