<svg width="24" height="24" viewBox="0 0 24 24" fill="none" xmlns="http://www.w3.org/2000/svg">
    <path d="M20.6663 6.06456L13.5076 1.9044C13.0495 1.63886 12.5293 1.49902 11.9998 1.49902C11.4703 1.49902 10.9502 1.63886 10.4921 1.9044L3.33383 6.06456C3.30563 6.0811 3.28225 6.10473 3.266 6.1331C3.24976 6.16146 3.24121 6.19359 3.24121 6.22628C3.24121 6.25897 3.24976 6.29109 3.266 6.31946C3.28225 6.34783 3.30563 6.37145 3.33383 6.388L11.9063 11.4308C11.9352 11.4478 11.968 11.4567 12.0015 11.4567C12.0349 11.4567 12.0678 11.4478 12.0966 11.4308L20.6673 6.388C20.6954 6.37137 20.7187 6.34768 20.7349 6.31926C20.751 6.29085 20.7595 6.2587 20.7594 6.22601C20.7593 6.19332 20.7507 6.16122 20.7343 6.1329C20.718 6.10458 20.6946 6.08102 20.6663 6.06456ZM12.0001 7.12534C11.379 7.12534 10.8751 6.78971 10.8751 6.37534C10.8751 5.96096 11.379 5.62534 12.0001 5.62534C12.6212 5.62534 13.1251 5.96096 13.1251 6.37534C13.1251 6.78971 12.6212 7.12534 12.0001 7.12534Z"
          fill="#1F1D25"/>
    <path d="M11.1562 12.6939L2.53125 7.66282C2.50276 7.64637 2.47044 7.6377 2.43755 7.6377C2.40465 7.63769 2.37233 7.64633 2.34383 7.66277C2.31534 7.6792 2.29166 7.70284 2.27519 7.73132C2.25872 7.7598 2.25003 7.79211 2.25 7.825V15.9775C2.25071 16.3703 2.35424 16.7561 2.55029 17.0965C2.74634 17.4368 3.02808 17.7199 3.3675 17.9177L10.9688 22.4753C10.9972 22.4918 11.0296 22.5004 11.0625 22.5004C11.0953 22.5004 11.1277 22.4918 11.1562 22.4754C11.1847 22.4589 11.2083 22.4353 11.2248 22.4068C11.2413 22.3783 11.25 22.346 11.25 22.3131V12.8561C11.25 12.8232 11.2413 12.7909 11.2248 12.7625C11.2084 12.734 11.1847 12.7103 11.1562 12.6939V12.6939ZM4.5 17.2497C4.08562 17.2497 3.75 16.7458 3.75 16.1247C3.75 15.5036 4.08562 14.9997 4.5 14.9997C4.91438 14.9997 5.25 15.5036 5.25 16.1247C5.25 16.7458 4.91438 17.2497 4.5 17.2497ZM9 15.7497C8.58562 15.7497 8.25 15.2458 8.25 14.6247C8.25 14.0036 8.58562 13.4997 9 13.4997C9.41438 13.4997 9.75 14.0036 9.75 14.6247C9.75 15.2458 9.41438 15.7497 9 15.7497Z"
          fill="#1F1D25"/>
    <path d="M21.4687 7.66477L12.8437 12.7296C12.8153 12.746 12.7917 12.7696 12.7753 12.798C12.7588 12.8263 12.7501 12.8585 12.75 12.8913V22.3127C12.75 22.3456 12.7587 22.3779 12.7752 22.4064C12.7917 22.4349 12.8153 22.4585 12.8438 22.475C12.8723 22.4914 12.9047 22.5001 12.9375 22.5C12.9704 22.5 13.0028 22.4914 13.0312 22.4749L20.632 17.9173C20.9714 17.7197 21.2531 17.4368 21.4493 17.0965C21.6454 16.7563 21.7491 16.3707 21.75 15.9781V7.82836C21.7502 7.79535 21.7417 7.76286 21.7253 7.73419C21.709 7.70552 21.6853 7.68167 21.6568 7.66507C21.6282 7.64847 21.5958 7.6397 21.5628 7.63965C21.5298 7.6396 21.4973 7.64826 21.4687 7.66477ZM15 19.8752C14.5856 19.8752 14.25 19.3713 14.25 18.7502C14.25 18.1291 14.5856 17.6252 15 17.6252C15.4144 17.6252 15.75 18.1291 15.75 18.7502C15.75 19.3713 15.4144 19.8752 15 19.8752ZM15 15.7502C14.5856 15.7502 14.25 15.2463 14.25 14.6252C14.25 14.0041 14.5856 13.5002 15 13.5002C15.4144 13.5002 15.75 14.0041 15.75 14.6252C15.75 15.2463 15.4144 15.7502 15 15.7502ZM19.5 17.2502C19.0856 17.2502 18.75 16.7463 18.75 16.1252C18.75 15.5041 19.0856 15.0002 19.5 15.0002C19.9144 15.0002 20.25 15.5041 20.25 16.1252C20.25 16.7463 19.9144 17.2502 19.5 17.2502ZM19.5 13.1252C19.0856 13.1252 18.75 12.6213 18.75 12.0002C18.75 11.3791 19.0856 10.8752 19.5 10.8752C19.9144 10.8752 20.25 11.3791 20.25 12.0002C20.25 12.6213 19.9144 13.1252 19.5 13.1252Z"
          fill="#1F1D25"/>
</svg>
