<svg width="24" height="24" viewBox="0 0 24 24" fill="none" xmlns="http://www.w3.org/2000/svg">
    <path d="M12 8.25C11.2583 8.25 10.5333 8.46993 9.91661 8.88199C9.29993 9.29404 8.81928 9.87971 8.53545 10.5649C8.25162 11.2502 8.17736 12.0042 8.32206 12.7316C8.46675 13.459 8.8239 14.1272 9.34835 14.6516C9.8728 15.1761 10.541 15.5332 11.2684 15.6779C11.9958 15.8226 12.7498 15.7484 13.4351 15.4645C14.1203 15.1807 14.7059 14.7001 15.118 14.0834C15.5301 13.4667 15.75 12.7417 15.75 12C15.7489 11.0058 15.3534 10.0526 14.6504 9.34958C13.9474 8.64656 12.9942 8.25112 12 8.25V8.25ZM12 13.5C11.7033 13.5 11.4133 13.412 11.1666 13.2472C10.92 13.0824 10.7277 12.8481 10.6142 12.574C10.5006 12.2999 10.4709 11.9983 10.5288 11.7074C10.5867 11.4164 10.7296 11.1491 10.9393 10.9393C11.1491 10.7296 11.4164 10.5867 11.7074 10.5288C11.9983 10.4709 12.2999 10.5006 12.574 10.6142C12.8481 10.7277 13.0824 10.92 13.2472 11.1666C13.412 11.4133 13.5 11.7033 13.5 12C13.5 12.3978 13.342 12.7793 13.0607 13.0607C12.7793 13.342 12.3978 13.5 12 13.5V13.5Z"
          fill="#1F1D25"/>
    <path d="M19.4249 4.57588C18.4517 3.59299 17.2938 2.81209 16.0178 2.27803C14.7419 1.74398 13.3729 1.4673 11.9897 1.4639C10.6065 1.46049 9.23622 1.73043 7.95763 2.25819C6.67904 2.78596 5.51734 3.56116 4.53925 4.53925C3.56116 5.51734 2.78596 6.67904 2.25819 7.95763C1.73043 9.23622 1.46049 10.6065 1.4639 11.9897C1.4673 13.3729 1.74398 14.7419 2.27803 16.0178C2.81209 17.2938 3.59299 18.4517 4.57588 19.4249C5.54915 20.4078 6.70703 21.1887 7.983 21.7228C9.25897 22.2569 10.6279 22.5335 12.0111 22.5369C13.3943 22.5403 14.7646 22.2704 16.0432 21.7426C17.3218 21.2149 18.4835 20.4397 19.4616 19.4616C20.4397 18.4835 21.2149 17.3218 21.7426 16.0432C22.2704 14.7646 22.5403 13.3943 22.5369 12.0111C22.5335 10.6279 22.2569 9.25897 21.7228 7.983C21.1887 6.70703 20.4078 5.54915 19.4249 4.57588V4.57588ZM12.0004 17.2504C10.9621 17.2504 9.94703 16.9425 9.08367 16.3656C8.22031 15.7888 7.54741 14.9688 7.15005 14.0095C6.75269 13.0502 6.64872 11.9946 6.85129 10.9762C7.05386 9.95779 7.55388 9.02233 8.2881 8.2881C9.02233 7.55388 9.95779 7.05386 10.9762 6.85129C11.9946 6.64872 13.0502 6.75269 14.0095 7.15005C14.9688 7.54741 15.7888 8.22031 16.3656 9.08367C16.9425 9.94703 17.2504 10.9621 17.2504 12.0004C17.2489 13.3923 16.6953 14.7268 15.7111 15.7111C14.7268 16.6953 13.3923 17.2489 12.0004 17.2504Z"
          fill="#1F1D25"/>
</svg>
