<svg width="24" height="24" viewBox="0 0 24 24" fill="none" xmlns="http://www.w3.org/2000/svg">
    <path d="M13.987 11.6243C14.024 11.6243 14.0601 11.6134 14.0909 11.593C14.1217 11.5726 14.1457 11.5435 14.16 11.5094C14.1744 11.4754 14.1783 11.4379 14.1714 11.4016C14.1644 11.3653 14.147 11.3319 14.1211 11.3055L10.4461 7.56863C10.42 7.54211 10.3866 7.52397 10.3501 7.5165C10.3136 7.50904 10.2758 7.5126 10.2413 7.52672C10.2069 7.54085 10.1775 7.5649 10.1567 7.59582C10.136 7.62674 10.125 7.66313 10.125 7.70035V11.0618C10.125 11.2109 10.1843 11.354 10.2898 11.4595C10.3952 11.565 10.5383 11.6243 10.6875 11.6243H13.987Z"
          fill="#1F1D25"/>
    <path d="M9.23438 12.5156C9.04184 12.3257 8.88886 12.0995 8.78427 11.85C8.67967 11.6006 8.62554 11.333 8.625 11.0625V6.75H5.25C4.45507 6.75235 3.69338 7.06917 3.13128 7.63128C2.56917 8.19338 2.25235 8.95507 2.25 9.75V20.25C2.25 21.0456 2.56607 21.8087 3.12868 22.3713C3.69129 22.9339 4.45435 23.25 5.25 23.25H12C12.7956 23.25 13.5587 22.9339 14.1213 22.3713C14.6839 21.8087 15 21.0456 15 20.25V13.125H10.6875C10.417 13.1246 10.1493 13.0706 9.89986 12.966C9.65043 12.8613 9.42423 12.7083 9.23438 12.5156V12.5156Z"
          fill="#1F1D25"/>
    <path d="M17.4375 5.62426H20.737C20.774 5.62429 20.8101 5.61341 20.8409 5.59298C20.8717 5.57256 20.8957 5.5435 20.91 5.50945C20.9244 5.4754 20.9283 5.43788 20.9214 5.4016C20.9144 5.36531 20.897 5.33189 20.8711 5.30551L17.1961 1.56863C17.17 1.54211 17.1366 1.52397 17.1001 1.5165C17.0636 1.50904 17.0258 1.5126 16.9913 1.52672C16.9569 1.54085 16.9275 1.5649 16.9067 1.59582C16.886 1.62674 16.875 1.66313 16.875 1.70035V5.06176C16.875 5.21094 16.9343 5.35402 17.0398 5.4595C17.1452 5.56499 17.2883 5.62426 17.4375 5.62426Z"
          fill="#1F1D25"/>
    <path d="M17.4375 7.125C16.8918 7.12083 16.3696 6.90219 15.9837 6.5163C15.5978 6.13041 15.3792 5.60822 15.375 5.0625V0.75H10.3125C9.56685 0.750868 8.85198 1.04746 8.32472 1.57472C7.79746 2.10198 7.50087 2.81685 7.5 3.5625V5.25H9.47437C9.72638 5.25101 9.97571 5.3018 10.208 5.39946C10.4403 5.49712 10.6511 5.63971 10.8281 5.81906L15.945 11.0222C16.302 11.3844 16.5013 11.873 16.4995 12.3816V18.75H18.9863C20.5102 18.75 21.7495 17.4881 21.7495 15.9375V7.125H17.4375Z"
          fill="#1F1D25"/>
</svg>
