<svg width="24" height="24" viewBox="0 0 24 24" fill="none" xmlns="http://www.w3.org/2000/svg">
    <path d="M12 0.75C7.45313 0.75 3.75 4.45312 3.75 9V18.683C3.74912 19.8839 4.22054 21.0371 5.0625 21.8934C5.47543 22.3221 5.97051 22.6631 6.51816 22.8962C7.06581 23.1293 7.65481 23.2496 8.25 23.25C9.97781 23.25 11.3991 22.5178 12.4744 21.0741C12.6844 20.7928 12.922 20.3831 13.1972 19.9092C13.9153 18.6731 14.8983 16.9809 16.1583 16.1245C17.3663 15.3037 18.3722 14.2711 19.0645 13.1377C19.852 11.8566 20.25 10.4644 20.25 9C20.25 4.45312 16.5492 0.75 12 0.75ZM16.5 9.375C16.3011 9.375 16.1103 9.29598 15.9697 9.15533C15.829 9.01468 15.75 8.82391 15.75 8.625C15.75 6.76406 14.0677 5.25 12 5.25C9.93235 5.25 8.25 6.76406 8.25 8.625V10.0509C9.52453 9.68344 10.9875 9.73594 11.2631 9.75C11.6747 9.75392 12.0773 9.87067 12.4272 10.0875C12.777 10.3044 13.0607 10.6131 13.2472 10.98C13.4338 11.3468 13.5162 11.7579 13.4854 12.1683C13.4546 12.5788 13.3118 12.9729 13.0725 13.3078C13.0584 13.327 13.0439 13.3458 13.028 13.3641C12.2522 14.2547 11.3405 15.4959 11.2252 15.9422C11.1713 16.1308 11.0456 16.2908 10.8751 16.3879C10.7046 16.4849 10.5029 16.5113 10.3132 16.4614C10.1235 16.4115 9.96089 16.2892 9.86025 16.1209C9.75961 15.9525 9.72895 15.7513 9.77485 15.5606C10.0331 14.5791 11.5059 12.8325 11.8683 12.413C11.9429 12.2999 11.9855 12.1687 11.9915 12.0333C11.9975 11.8979 11.9667 11.7635 11.9025 11.6442C11.8382 11.5249 11.7428 11.4253 11.6264 11.3559C11.5101 11.2865 11.3771 11.2499 11.2416 11.25H11.2003C10.4222 11.2083 9.04922 11.2875 8.25 11.6395V14.25C8.25 14.4489 8.17098 14.6397 8.03033 14.7803C7.88968 14.921 7.69891 15 7.5 15C7.30109 15 7.11032 14.921 6.96967 14.7803C6.82902 14.6397 6.75 14.4489 6.75 14.25V8.625C6.75 5.93672 9.105 3.75 12 3.75C14.895 3.75 17.25 5.93672 17.25 8.625C17.25 8.82391 17.171 9.01468 17.0303 9.15533C16.8897 9.29598 16.6989 9.375 16.5 9.375Z"
          fill="#1F1D25"/>
</svg>
