<svg width="24" height="24" viewBox="0 0 24 24" fill="none" xmlns="http://www.w3.org/2000/svg">
    <path d="M19.4249 4.58174C18.4517 3.59885 17.2938 2.81795 16.0178 2.28389C14.7419 1.74984 13.3729 1.47316 11.9897 1.46976C10.6065 1.46635 9.23622 1.73629 7.95763 2.26405C6.67904 2.79182 5.51734 3.56702 4.53925 4.54511C3.56116 5.5232 2.78596 6.6849 2.25819 7.96349C1.73043 9.24208 1.46049 10.6123 1.4639 11.9956C1.4673 13.3788 1.74398 14.7477 2.27803 16.0237C2.81209 17.2997 3.59299 18.4575 4.57588 19.4308C5.54915 20.4137 6.70703 21.1946 7.983 21.7287C9.25897 22.2627 10.6279 22.5394 12.0111 22.5428C13.3943 22.5462 14.7646 22.2763 16.0432 21.7485C17.3218 21.2207 18.4835 20.4455 19.4616 19.4674C20.4397 18.4894 21.2149 17.3276 21.7426 16.0491C22.2704 14.7705 22.5403 13.4002 22.5369 12.017C22.5335 10.6338 22.2569 9.26483 21.7228 7.98886C21.1887 6.71289 20.4078 5.55501 19.4249 4.58174V4.58174ZM3.00041 12.0063C3.00008 11.2097 3.10569 10.4167 3.31448 9.64799C3.65854 10.3886 4.15823 11.0285 4.49807 11.7883C4.93729 12.7652 6.11666 12.4942 6.63745 13.3502C7.09963 14.11 6.60604 15.071 6.95198 15.866C7.20323 16.443 7.79573 16.5691 8.20448 16.991C8.62213 17.4166 8.61323 17.9997 8.67698 18.5547C8.74891 19.2068 8.86559 19.8532 9.0262 20.4892C9.0262 20.4939 9.0262 20.4991 9.02995 20.5038C5.52229 19.2719 3.00041 15.9283 3.00041 12.0063ZM12.0004 21.0063C11.4978 21.0061 10.9961 20.9641 10.5004 20.8807C10.5056 20.7536 10.5079 20.635 10.5206 20.5525C10.6345 19.8072 11.0076 19.0783 11.511 18.5205C12.0084 17.9702 12.6899 17.598 13.1099 16.9736C13.5215 16.3642 13.6448 15.5439 13.4751 14.8319C13.2253 13.78 11.796 13.4289 11.0254 12.8585C10.5824 12.5303 10.1882 12.0231 9.60651 11.9819C9.33838 11.9631 9.11385 12.0208 8.84807 11.9524C8.60432 11.8891 8.41307 11.7578 8.15338 11.7921C7.66823 11.8558 7.36213 12.3742 6.84088 12.3039C6.34635 12.2378 5.83682 11.6589 5.72432 11.1878C5.57995 10.5822 6.05901 10.3858 6.57229 10.3319C6.78651 10.3094 7.02698 10.285 7.23276 10.3638C7.5037 10.4641 7.63166 10.7294 7.87495 10.8635C8.33104 11.1138 8.42338 10.7139 8.35354 10.3089C8.24901 9.70237 8.12713 9.45534 8.66807 9.03768C9.04307 8.74987 9.3637 8.54174 9.3037 8.02471C9.26807 7.72096 9.10166 7.58362 9.25682 7.28127C9.37448 7.05112 9.69745 6.84346 9.90791 6.70612C10.4512 6.35174 12.2353 6.37799 11.5064 5.38612C11.2921 5.09502 10.897 4.57471 10.522 4.50346C10.0532 4.41487 9.8451 4.93799 9.51838 5.16862C9.18088 5.40721 8.5237 5.67815 8.18573 5.30924C7.73104 4.81284 8.48713 4.65018 8.65448 4.30331C8.73182 4.14159 8.65448 3.91706 8.52416 3.70565C8.69323 3.6344 8.8651 3.56831 9.03979 3.50737C9.14927 3.58823 9.27914 3.63693 9.41479 3.64799C9.72838 3.66862 10.0242 3.49893 10.2979 3.71268C10.6017 3.94706 10.8206 4.24331 11.2237 4.31643C11.6137 4.38721 12.0267 4.15987 12.1232 3.76049C12.1818 3.51768 12.1232 3.26127 12.067 3.01049C13.8201 3.02058 15.5316 3.54561 16.9889 4.52034C16.8951 4.48471 16.7831 4.48893 16.6448 4.55315C16.3603 4.68534 15.9571 5.0219 15.9239 5.35565C15.8859 5.7344 16.4446 5.78784 16.7099 5.78784C17.1084 5.78784 17.512 5.60971 17.3835 5.1494C17.3278 4.94971 17.2518 4.74206 17.1295 4.61643C17.4236 4.8205 17.7053 5.04183 17.9732 5.27924C17.969 5.28346 17.9648 5.28721 17.9606 5.2919C17.6906 5.57315 17.377 5.79581 17.1923 6.13799C17.062 6.37893 16.9153 6.49331 16.6514 6.55565C16.506 6.58987 16.3401 6.60252 16.2182 6.70002C15.8789 6.96721 16.072 7.6094 16.3935 7.80206C16.7999 8.04534 17.4028 7.93096 17.7093 7.58362C17.9489 7.31174 18.0899 6.83971 18.5207 6.84018C18.7104 6.83979 18.8926 6.91404 19.0279 7.0469C19.206 7.23159 19.1709 7.40409 19.2089 7.63471C19.2759 8.0444 19.6373 7.82221 19.8571 7.61549C20.0174 7.90069 20.162 8.19441 20.2903 8.49534C20.0484 8.84362 19.8562 9.22331 19.2745 8.81737C18.9262 8.57409 18.712 8.22112 18.2746 8.11143C17.8926 8.01768 17.5012 8.11518 17.1239 8.18034C16.6949 8.25487 16.1864 8.28768 15.861 8.61252C15.5465 8.92565 15.3801 9.34471 15.0454 9.65924C14.3981 10.2686 14.1248 10.9338 14.5439 11.7953C14.947 12.6236 15.7903 13.0731 16.7001 13.0141C17.594 12.9546 18.5226 12.4361 18.4968 13.735C18.4874 14.1949 18.5835 14.5131 18.7246 14.9402C18.8554 15.3339 18.8465 15.7155 18.8765 16.1219C18.905 16.5978 18.9794 17.0698 19.0987 17.5314C18.2585 18.6132 17.1822 19.4886 15.952 20.0909C14.7217 20.6931 13.3701 21.0062 12.0004 21.0063Z"
          fill="#1F1D25"/>
</svg>
