<svg width="24" height="24" viewBox="0 0 24 24" fill="none" xmlns="http://www.w3.org/2000/svg">
    <path d="M16.1784 22.4995H12.8438C12.62 22.4995 12.4054 22.4106 12.2471 22.2524C12.0889 22.0941 12 21.8795 12 21.6557V20.3568C12.0006 20.1573 11.9606 19.9598 11.8823 19.7763C11.8041 19.5928 11.6892 19.4271 11.5448 19.2895C11.1802 18.9337 10.6505 18.7364 10.0969 18.75C9.09562 18.7734 8.25 19.6547 8.25 20.6747V21.6557C8.25 21.8795 8.16111 22.0941 8.00287 22.2524C7.84464 22.4106 7.63003 22.4995 7.40625 22.4995H4.10719C3.76481 22.4995 3.42578 22.4321 3.10946 22.301C2.79314 22.17 2.50573 21.978 2.26363 21.7359C1.77469 21.2469 1.5 20.5838 1.5 19.8923V16.5932C1.5 16.3695 1.58889 16.1549 1.74713 15.9966C1.90536 15.8384 2.11997 15.7495 2.34375 15.7495H3.64266C4.07203 15.7495 4.48969 15.5657 4.81875 15.2339C5.00182 15.0493 5.14659 14.8304 5.24474 14.5897C5.34288 14.349 5.39246 14.0913 5.39062 13.8314C5.37656 12.8381 4.55906 11.9995 3.60516 11.9995H2.34375C2.11997 11.9995 1.90536 11.9106 1.74713 11.7524C1.58889 11.5941 1.5 11.3795 1.5 11.1557V7.85668C1.5 7.5143 1.56744 7.17528 1.69846 6.85896C1.82948 6.54264 2.02153 6.25522 2.26363 6.01312C2.75257 5.52418 3.41572 5.2495 4.10719 5.2495H6.69656C6.79602 5.2495 6.8914 5.20999 6.96173 5.13966C7.03205 5.06934 7.07156 4.97395 7.07156 4.8745V4.57075C7.07156 4.16283 7.15281 3.75899 7.31057 3.38281C7.46832 3.00663 7.69943 2.66564 7.99039 2.37973C8.28135 2.09383 8.62635 1.86875 9.00524 1.71762C9.38413 1.56649 9.78933 1.49234 10.1972 1.4995C11.8608 1.52856 13.2141 2.92356 13.2141 4.60872V4.8745C13.2141 4.97395 13.2536 5.06934 13.3239 5.13966C13.3942 5.20999 13.4896 5.2495 13.5891 5.2495H16.1784C16.5161 5.2495 16.8505 5.31601 17.1625 5.44525C17.4745 5.57448 17.758 5.7639 17.9968 6.00269C18.2356 6.24148 18.425 6.52497 18.5543 6.83696C18.6835 7.14896 18.75 7.48336 18.75 7.82106V10.4104C18.75 10.5099 18.7895 10.6053 18.8598 10.6756C18.9302 10.7459 19.0255 10.7854 19.125 10.7854H19.3903C21.105 10.7854 22.5 12.1448 22.5 13.8154C22.5 15.5315 21.1223 16.9279 19.4288 16.9279H19.125C19.0255 16.9279 18.9302 16.9674 18.8598 17.0378C18.7895 17.1081 18.75 17.2035 18.75 17.3029V19.9279C18.75 20.2656 18.6835 20.6 18.5543 20.912C18.425 21.224 18.2356 21.5075 17.9968 21.7463C17.758 21.9851 17.4745 22.1745 17.1625 22.3037C16.8505 22.433 16.5161 22.4995 16.1784 22.4995V22.4995Z"
          fill="#1F1D25"/>
</svg>
