<svg width="24" height="24" viewBox="0 0 24 24" fill="none" xmlns="http://www.w3.org/2000/svg">
    <path d="M20.2501 21.0001C20.1516 21.0003 20.054 20.9809 19.963 20.9432C19.872 20.9054 19.7894 20.8501 19.7199 20.7803L3.21994 4.28025C3.08522 4.13845 3.01123 3.94964 3.01373 3.75407C3.01624 3.5585 3.09504 3.37164 3.23334 3.23334C3.37164 3.09504 3.5585 3.01624 3.75407 3.01373C3.94964 3.01123 4.13845 3.08522 4.28025 3.21994L20.7802 19.7199C20.8851 19.8248 20.9564 19.9584 20.9854 20.1039C21.0143 20.2493 20.9994 20.4001 20.9427 20.5371C20.8859 20.6741 20.7899 20.7912 20.6666 20.8736C20.5433 20.956 20.3984 21 20.2501 21.0001V21.0001Z"
          fill="#1F1D25"/>
    <path d="M11.6245 14.8054L9.19687 12.3778C9.18296 12.364 9.16508 12.3549 9.14574 12.3518C9.1264 12.3487 9.10656 12.3517 9.08903 12.3604C9.0715 12.3692 9.05714 12.3832 9.04799 12.4005C9.03883 12.4178 9.03532 12.4376 9.03797 12.457C9.13598 13.0868 9.43171 13.6692 9.88242 14.1199C10.3331 14.5706 10.9155 14.8663 11.5453 14.9643C11.5647 14.967 11.5845 14.9635 11.6018 14.9543C11.6191 14.9452 11.6331 14.9308 11.6419 14.9133C11.6506 14.8957 11.6536 14.8759 11.6505 14.8566C11.6474 14.8372 11.6383 14.8193 11.6245 14.8054Z"
          fill="#1F1D25"/>
    <path d="M12.3751 9.19418L14.8065 11.6247C14.8204 11.6386 14.8383 11.6479 14.8577 11.6511C14.8772 11.6543 14.8971 11.6513 14.9148 11.6426C14.9324 11.6338 14.9469 11.6197 14.956 11.6023C14.9652 11.5848 14.9686 11.5649 14.9659 11.5454C14.8681 10.9148 14.5722 10.3315 14.1209 9.88027C13.6696 9.42898 13.0864 9.13304 12.4557 9.03528C12.4362 9.03226 12.4162 9.0355 12.3986 9.04452C12.381 9.05354 12.3667 9.06789 12.3578 9.08551C12.3489 9.10313 12.3457 9.12313 12.3488 9.14265C12.3519 9.16216 12.3611 9.1802 12.3751 9.19418V9.19418Z"
          fill="#1F1D25"/>
    <path d="M23.0157 12.8137C23.1709 12.5702 23.253 12.2872 23.2522 11.9984C23.2513 11.7096 23.1676 11.427 23.0111 11.1844C21.7707 9.26624 20.1615 7.63687 18.3578 6.47203C16.3595 5.18203 14.1564 4.5 11.9851 4.5C10.8405 4.50157 9.70363 4.6882 8.61856 5.05266C8.58819 5.06276 8.56091 5.08046 8.53932 5.10409C8.51773 5.12771 8.50255 5.15647 8.49522 5.18763C8.48789 5.21878 8.48865 5.25129 8.49744 5.28207C8.50623 5.31284 8.52276 5.34085 8.54543 5.36344L10.7598 7.57781C10.7828 7.60086 10.8114 7.61751 10.8428 7.62614C10.8742 7.63477 10.9073 7.63508 10.9389 7.62703C11.6895 7.44411 12.4745 7.45752 13.2184 7.66595C13.9623 7.87438 14.64 8.27082 15.1863 8.81709C15.7326 9.36337 16.129 10.0411 16.3375 10.785C16.5459 11.5289 16.5593 12.3139 16.3764 13.0645C16.3684 13.096 16.3688 13.129 16.3774 13.1603C16.386 13.1916 16.4026 13.2202 16.4256 13.2431L19.6107 16.4306C19.6439 16.4638 19.6883 16.4834 19.7351 16.4855C19.782 16.4875 19.8279 16.472 19.8639 16.4419C21.0899 15.3968 22.1524 14.1738 23.0157 12.8137Z"
          fill="#1F1D25"/>
    <path d="M12 16.5002C11.3188 16.5002 10.6465 16.3456 10.0337 16.048C9.42094 15.7504 8.88375 15.3175 8.46263 14.7821C8.04151 14.2466 7.74745 13.6225 7.60262 12.9569C7.45779 12.2913 7.46598 11.6014 7.62656 10.9394C7.63452 10.9079 7.63417 10.8749 7.62555 10.8436C7.61692 10.8123 7.60031 10.7838 7.57734 10.7608L4.44422 7.62628C4.41099 7.59302 4.36649 7.57346 4.31952 7.57146C4.27255 7.56946 4.22655 7.58518 4.19062 7.6155C3.04734 8.59097 1.9875 9.77785 1.01859 11.1649C0.84899 11.4083 0.755584 11.6967 0.750243 11.9933C0.744901 12.2899 0.827865 12.5814 0.988591 12.8308C2.22656 14.7682 3.81937 16.3999 5.59547 17.5488C7.59656 18.8439 9.74625 19.5002 11.985 19.5002C13.1412 19.4971 14.2899 19.3144 15.39 18.9588C15.4206 18.949 15.4482 18.9315 15.4702 18.9079C15.4921 18.8844 15.5076 18.8556 15.5152 18.8244C15.5227 18.7931 15.5222 18.7604 15.5134 18.7294C15.5047 18.6985 15.4882 18.6703 15.4655 18.6475L13.2403 16.4228C13.2174 16.3999 13.1888 16.3833 13.1575 16.3746C13.1262 16.366 13.0932 16.3657 13.0617 16.3736C12.7141 16.4579 12.3577 16.5003 12 16.5002V16.5002Z"
          fill="#1F1D25"/>
</svg>
