<svg width="24" height="24" viewBox="0 0 24 24" fill="none" xmlns="http://www.w3.org/2000/svg">
    <path d="M2.96669 9.46875C2.84021 9.4699 2.71568 9.43755 2.60575 9.375C2.52512 9.32968 2.45433 9.26873 2.39754 9.19572C2.34075 9.12271 2.29908 9.03911 2.27499 8.9498C2.2509 8.8605 2.24486 8.76728 2.25722 8.67562C2.26958 8.58395 2.30011 8.49567 2.347 8.41594C3.25075 6.9075 6.00044 3.38672 12.0004 3.38672C14.6006 3.38672 16.8811 4.06969 18.7753 5.41594C20.3343 6.52078 21.2081 7.77141 21.6243 8.37375C21.6771 8.44967 21.7142 8.53539 21.7334 8.62586C21.7525 8.71633 21.7534 8.80971 21.7359 8.90052C21.7185 8.99133 21.683 9.07773 21.6316 9.15463C21.5803 9.23152 21.514 9.29737 21.4368 9.34828C21.2791 9.45257 21.0869 9.49133 20.901 9.45633C20.7152 9.42132 20.5502 9.31532 20.4412 9.16078C19.6879 8.0775 17.3911 4.78125 12.0004 4.78125C6.73872 4.78125 4.35981 7.81453 3.58497 9.11531C3.52271 9.22394 3.43258 9.31397 3.32389 9.3761C3.21519 9.43823 3.09188 9.47022 2.96669 9.46875Z"
          fill="#1F1D25"/>
    <path d="M15.023 23.2497C14.9632 23.2504 14.9035 23.2437 14.8454 23.2296C10.493 22.1514 8.86786 17.8005 8.80176 17.6196L8.79145 17.5797C8.75582 17.4541 7.88254 14.4705 9.22317 12.723C9.8377 11.9261 10.7724 11.5174 12.0066 11.5174C13.1541 11.5174 13.9819 11.8741 14.551 12.6124C15.0197 13.2152 15.2072 13.9586 15.3886 14.6749C15.7697 16.1664 16.0449 16.9497 17.6288 17.0304C18.3244 17.0655 18.7815 16.6586 19.0407 16.3122C19.7415 15.3677 19.8633 13.8279 19.335 12.4685C18.6563 10.7139 16.2474 7.40598 12 7.40598C10.1869 7.40598 8.52098 7.98863 7.18504 9.08363C6.07926 9.99066 5.20317 11.2713 4.78129 12.5875C3.99895 15.0382 5.02504 18.8904 5.03489 18.9255C5.05884 19.0152 5.06461 19.1087 5.05184 19.2006C5.03907 19.2925 5.00803 19.381 4.96054 19.4607C4.91305 19.5404 4.85008 19.6098 4.77534 19.6649C4.7006 19.7199 4.6156 19.7593 4.52536 19.781C4.34304 19.8295 4.14899 19.8046 3.98479 19.7117C3.82058 19.6188 3.6993 19.4653 3.64692 19.2841C3.60004 19.1083 2.50411 14.9997 3.40786 12.1675C4.39223 9.09863 7.4302 6.00488 12.0014 6.00488C14.1141 6.00488 16.11 6.72301 17.776 8.0791C19.066 9.13379 20.1197 10.5504 20.671 11.9664C21.3718 13.7744 21.1838 15.8036 20.1933 17.1293C19.5333 18.0133 18.5935 18.4755 17.5524 18.4254C14.8402 18.2894 14.3527 16.3961 13.9974 15.0152C13.6318 13.5986 13.3979 12.9157 12.0014 12.9157C11.2346 12.9157 10.696 13.1266 10.3608 13.5635C9.90379 14.1611 9.86817 15.0954 9.91879 15.7732C9.95203 16.2454 10.0321 16.7132 10.1579 17.1696C10.2694 17.4508 11.7221 21.0133 15.2011 21.8754C15.2911 21.8967 15.3759 21.9356 15.4506 21.99C15.5253 22.0443 15.5885 22.113 15.6365 22.192C15.6845 22.271 15.7163 22.3587 15.73 22.4501C15.7438 22.5414 15.7393 22.6346 15.7168 22.7243C15.6743 22.8755 15.5835 23.0088 15.4583 23.1037C15.333 23.1985 15.1801 23.2498 15.023 23.2497V23.2497Z"
          fill="#1F1D25"/>
    <path d="M9.43654 22.9285C9.33898 22.9287 9.24239 22.9093 9.15251 22.8713C9.06264 22.8334 8.98132 22.7778 8.91341 22.7077C7.17154 20.8796 6.18622 18.8354 5.81544 16.2793V16.2657C5.60732 14.5735 5.912 12.1777 7.40497 10.5305C8.507 9.31508 10.0562 8.69727 12.0015 8.69727C14.3022 8.69727 16.1101 9.76695 17.2375 11.7859C18.0554 13.2526 18.2176 14.7141 18.2218 14.7741C18.2304 14.8667 18.2207 14.9599 18.1931 15.0487C18.1656 15.1374 18.1208 15.2198 18.0614 15.2913C18.002 15.3627 17.929 15.4216 17.8468 15.4648C17.7645 15.508 17.6745 15.5345 17.582 15.5429C17.3953 15.5632 17.2081 15.5092 17.0609 15.3926C16.9136 15.2761 16.8181 15.1063 16.795 14.9199V14.9199C16.6715 14.043 16.3877 13.1962 15.9578 12.422C15.084 10.8802 13.7547 10.0965 11.9964 10.0965C10.4776 10.0965 9.28935 10.5535 8.47185 11.4559C7.29341 12.7566 7.0656 14.7605 7.22732 16.0862C7.55216 18.3465 8.42075 20.1446 9.9545 21.7515C10.0185 21.8181 10.0685 21.8969 10.1014 21.9832C10.1344 22.0694 10.1497 22.1615 10.1464 22.2538C10.143 22.3461 10.1212 22.4368 10.0821 22.5205C10.043 22.6042 9.98752 22.6792 9.91888 22.741C9.7867 22.8608 9.61493 22.9276 9.43654 22.9285V22.9285Z"
          fill="#1F1D25"/>
    <path d="M17.4614 20.9153C15.938 20.9153 14.6428 20.4934 13.6064 19.6549C11.5242 17.9772 11.2908 15.2448 11.2805 15.1295C11.2658 14.9402 11.3269 14.7529 11.4504 14.6087C11.5738 14.4645 11.7495 14.3752 11.9388 14.3605C12.1281 14.3459 12.3155 14.407 12.4597 14.5305C12.6039 14.6539 12.6931 14.8296 12.7078 15.0189C12.713 15.0592 12.9211 17.2942 14.5261 18.5814C15.4758 19.3398 16.7451 19.6408 18.3094 19.465C18.4963 19.4423 18.6846 19.4946 18.8332 19.6104C18.9817 19.7261 19.0784 19.896 19.102 20.0828C19.1122 20.1751 19.104 20.2685 19.0778 20.3576C19.0515 20.4467 19.0078 20.5296 18.9492 20.6016C18.8905 20.6736 18.8181 20.7332 18.7362 20.7769C18.6543 20.8206 18.5645 20.8476 18.472 20.8563C18.1366 20.8954 17.7991 20.9151 17.4614 20.9153V20.9153Z"
          fill="#1F1D25"/>
    <path d="M18.6643 2.28703C18.07 1.90031 15.9625 0.75 11.9996 0.75C7.83996 0.75 5.7273 2.02078 5.25996 2.34375C5.2291 2.3627 5.2002 2.38468 5.17371 2.40937C5.17092 2.41208 5.16727 2.41373 5.1634 2.41406C5.08877 2.47922 5.02889 2.55954 4.98775 2.64966C4.9466 2.73979 4.92515 2.83765 4.9248 2.93672C4.92609 3.02959 4.94568 3.12129 4.98247 3.20657C5.01925 3.29185 5.0725 3.36904 5.13917 3.4337C5.20584 3.49837 5.28461 3.54924 5.37098 3.58341C5.45734 3.61757 5.5496 3.63436 5.64246 3.63281C5.7913 3.63271 5.93656 3.58708 6.05871 3.50203C6.07887 3.48703 7.89715 2.15109 12.0011 2.15109C16.105 2.15109 17.9331 3.48234 17.9528 3.49219C18.0776 3.58473 18.2291 3.6341 18.3845 3.63281C18.4774 3.63424 18.5697 3.61729 18.6561 3.58295C18.7425 3.54861 18.8212 3.49755 18.8878 3.4327C18.9544 3.36785 19.0076 3.29049 19.0442 3.20505C19.0808 3.11962 19.1002 3.02779 19.1012 2.93484C19.1012 2.79562 19.0597 2.65956 18.9818 2.54413C18.904 2.4287 18.7934 2.33917 18.6643 2.28703V2.28703Z"
          fill="#1F1D25"/>
</svg>
