<svg width="24" height="24" viewBox="0 0 24 24" fill="none" xmlns="http://www.w3.org/2000/svg">
    <path d="M9.07896 7.16437C9.14615 7.02991 9.25219 6.91873 9.38333 6.84527C9.51447 6.7718 9.66466 6.73944 9.81442 6.75237C9.96417 6.76531 10.1066 6.82294 10.2232 6.91781C10.3398 7.01267 10.4252 7.14038 10.4683 7.28437L12.1746 12.9731L13.5808 10.1644C13.6431 10.0398 13.7389 9.93506 13.8574 9.86185C13.9758 9.78864 14.1124 9.74986 14.2516 9.74986C14.3909 9.74986 14.5274 9.78864 14.6459 9.86185C14.7644 9.93506 14.8601 10.0398 14.9224 10.1644L16.2133 12.75H20.749C21.4243 11.3578 21.7669 9.82772 21.7497 8.28047C21.7202 5.36906 19.3844 3 16.5429 3C14.2887 3 12.7929 4.38469 11.9997 5.39062C11.2085 4.38328 9.71084 3 7.45662 3C4.61506 3 2.27927 5.36906 2.24974 8.28047C2.23762 9.28583 2.37877 10.2872 2.66834 11.25H7.03615L9.07896 7.16437Z"
          fill="#1F1D25"/>
    <path d="M15.0794 13.8351L14.2502 12.1767L12.671 15.3351C12.6087 15.4597 12.5129 15.5644 12.3944 15.6376C12.276 15.7108 12.1395 15.7495 12.0002 15.7495C11.9793 15.7495 11.9577 15.7486 11.9355 15.7467C11.7854 15.7342 11.6425 15.6769 11.5255 15.5821C11.4084 15.4872 11.3226 15.3594 11.2793 15.2151L9.57301 9.52637L8.16676 12.3351C8.10476 12.459 8.00967 12.5633 7.89201 12.6365C7.77435 12.7096 7.63873 12.7487 7.5002 12.7495H3.25098C3.68848 13.6648 4.27082 14.5657 4.99801 15.4523C5.87785 16.5248 7.47301 18.2395 11.1569 20.7403C11.4053 20.9106 11.6995 21.0017 12.0007 21.0017C12.3018 21.0017 12.596 20.9106 12.8444 20.7403C16.5283 18.2395 18.1235 16.5248 19.0033 15.4523C19.3202 15.0666 19.6175 14.6652 19.8939 14.2495H15.7502C15.6109 14.2495 15.4744 14.2108 15.356 14.1376C15.2375 14.0644 15.1417 13.9597 15.0794 13.8351Z"
          fill="#1F1D25"/>
    <path d="M21.7498 12.75H20.749C20.4997 13.2696 20.2138 13.7708 19.8936 14.25H21.7498C21.9487 14.25 22.1395 14.171 22.2801 14.0303C22.4208 13.8897 22.4998 13.6989 22.4998 13.5C22.4998 13.3011 22.4208 13.1103 22.2801 12.9697C22.1395 12.829 21.9487 12.75 21.7498 12.75Z"
          fill="#1F1D25"/>
    <path d="M2.25 11.25C2.05109 11.25 1.86032 11.329 1.71967 11.4697C1.57902 11.6103 1.5 11.8011 1.5 12C1.5 12.1989 1.57902 12.3897 1.71967 12.5303C1.86032 12.671 2.05109 12.75 2.25 12.75H3.25078C3.01884 12.2655 2.82422 11.7641 2.66859 11.25H2.25Z"
          fill="#1F1D25"/>
</svg>
