<svg width="24" height="24" viewBox="0 0 24 24" fill="none" xmlns="http://www.w3.org/2000/svg">
    <path d="M9.13211 23.2496C9.00645 23.2497 8.88229 23.2223 8.76835 23.1693C8.65442 23.1163 8.55347 23.039 8.47261 22.9428C8.39175 22.8466 8.33293 22.7339 8.30029 22.6125C8.26765 22.4912 8.26197 22.3641 8.28367 22.2404V22.2352L9.60133 14.9996H4.49992C4.35832 14.9996 4.21962 14.9595 4.09985 14.8839C3.98009 14.8084 3.88416 14.7005 3.82316 14.5727C3.76216 14.4449 3.73858 14.3024 3.75515 14.1618C3.77172 14.0212 3.82776 13.8881 3.91679 13.778L14.1904 1.0777C14.3073 0.929262 14.4697 0.823207 14.6526 0.775756C14.8355 0.728305 15.0289 0.742071 15.2033 0.814948C15.3776 0.887826 15.5233 1.0158 15.6181 1.17931C15.7128 1.34282 15.7514 1.53285 15.7279 1.72036C15.7279 1.73442 15.7241 1.74802 15.7218 1.76208L14.3995 8.99958H19.4999C19.6415 8.99959 19.7802 9.03969 19.9 9.11524C20.0197 9.19079 20.1157 9.2987 20.1767 9.42648C20.2377 9.55427 20.2613 9.69672 20.2447 9.83734C20.2281 9.97797 20.1721 10.111 20.083 10.2211L9.80805 22.9215C9.72731 23.0235 9.6246 23.1059 9.50757 23.1628C9.39054 23.2196 9.2622 23.2492 9.13211 23.2496V23.2496Z"
          fill="#1F1D25"/>
</svg>
