<svg width="24" height="24" viewBox="0 0 24 24" fill="none" xmlns="http://www.w3.org/2000/svg">
    <path d="M20.2501 21.0001C20.1516 21.0003 20.054 20.9809 19.963 20.9432C19.872 20.9054 19.7894 20.8501 19.7199 20.7803L3.21994 4.28025C3.08522 4.13845 3.01123 3.94964 3.01373 3.75407C3.01624 3.5585 3.09504 3.37164 3.23334 3.23334C3.37164 3.09504 3.5585 3.01624 3.75407 3.01373C3.94964 3.01123 4.13845 3.08522 4.28025 3.21994L20.7802 19.7199C20.8851 19.8248 20.9564 19.9584 20.9854 20.1039C21.0143 20.2493 20.9994 20.4001 20.9427 20.5371C20.8859 20.6741 20.7899 20.7912 20.6666 20.8736C20.5433 20.956 20.3984 21 20.2501 21.0001V21.0001Z"
          fill="#1F1D25"/>
    <path d="M20.227 9.56332C20.1854 9.40227 20.0915 9.25961 19.96 9.15778C19.8284 9.05595 19.6668 9.00074 19.5005 9.00082H14.4L15.7223 1.76473C15.7247 1.75067 15.727 1.73707 15.7284 1.72301C15.7523 1.53538 15.714 1.3451 15.6194 1.18131C15.5248 1.01752 15.3791 0.889265 15.2046 0.816185C15.0302 0.743105 14.8366 0.729232 14.6535 0.776691C14.4704 0.82415 14.3079 0.930324 14.1909 1.07895L9.85124 6.44426C9.82208 6.48034 9.80733 6.52595 9.80985 6.57226C9.81236 6.61858 9.83195 6.66233 9.86483 6.69504L16.943 13.7732C16.9615 13.7918 16.9838 13.8063 17.0084 13.8157C17.0329 13.8251 17.0592 13.8293 17.0854 13.8279C17.1117 13.8266 17.1373 13.8197 17.1608 13.8077C17.1842 13.7958 17.2049 13.7791 17.2214 13.7586L20.0714 10.2355C20.148 10.1434 20.202 10.0346 20.229 9.9179C20.256 9.80117 20.2554 9.67974 20.227 9.56332V9.56332Z"
          fill="#1F1D25"/>
    <path d="M14.1358 17.3038L7.05767 10.2257C7.03909 10.2071 7.01684 10.1927 6.99234 10.1833C6.96785 10.1739 6.94165 10.1698 6.91545 10.1712C6.88925 10.1725 6.86363 10.1794 6.84025 10.1913C6.81687 10.2032 6.79624 10.2198 6.7797 10.2402L3.92783 13.7624C3.85123 13.8547 3.79733 13.9637 3.77047 14.0806C3.74361 14.1975 3.74452 14.319 3.77314 14.4355C3.81472 14.5966 3.90867 14.7392 4.04019 14.841C4.17172 14.9429 4.33336 14.9981 4.4997 14.998H9.6011L8.28438 22.2336V22.2388C8.25189 22.4273 8.28311 22.6213 8.37313 22.7902C8.46315 22.959 8.60684 23.0931 8.78151 23.1711C8.95619 23.2492 9.15189 23.2669 9.33774 23.2214C9.52358 23.1759 9.68898 23.0698 9.80782 22.9199L14.1489 17.5546C14.1781 17.5185 14.193 17.473 14.1905 17.4267C14.1881 17.3803 14.1686 17.3366 14.1358 17.3038V17.3038Z"
          fill="#1F1D25"/>
</svg>
