<svg width="24" height="24" viewBox="0 0 24 24" fill="none" xmlns="http://www.w3.org/2000/svg">
    <path d="M21.6559 10.1249C22.0942 9.6866 22.3656 9.23004 22.4617 8.76785C22.5882 8.16082 22.4012 7.5702 21.9357 7.10473L16.8948 2.06473C16.232 1.40238 15.0934 1.12817 13.8746 2.34363L13.7809 2.43738C13.746 2.47221 13.7184 2.51357 13.6995 2.55909C13.6806 2.60462 13.6709 2.65342 13.6709 2.7027C13.6709 2.75198 13.6806 2.80077 13.6995 2.8463C13.7184 2.89182 13.746 2.93318 13.7809 2.96801L21.0296 10.2186C21.0645 10.2538 21.106 10.2817 21.1517 10.3007C21.1974 10.3198 21.2464 10.3296 21.2959 10.3296C21.3454 10.3296 21.3944 10.3198 21.4401 10.3007C21.4858 10.2817 21.5273 10.2538 21.5621 10.2186L21.6559 10.1249Z"
          fill="#1F1D25"/>
    <path d="M11.7254 7.17512L11.7179 7.2848C11.6931 7.62137 11.3954 8.18246 11.0673 8.51012L2.21588 17.3601C1.69463 17.8809 1.44431 18.5587 1.51041 19.2679C1.56994 19.9017 1.88259 20.5307 2.39072 21.0384L2.96119 21.6089C3.55228 22.1995 4.26338 22.4995 4.95291 22.4995C5.26759 22.4988 5.57896 22.4353 5.86874 22.3126C6.15852 22.1899 6.42088 22.0106 6.64041 21.7851L15.4923 12.9351C15.8237 12.6037 16.3754 12.3117 16.719 12.285C17.5384 12.2231 18.7613 12.1312 19.8967 11.5514C19.9228 11.5378 19.9454 11.5183 19.9626 11.4945C19.9798 11.4706 19.9911 11.443 19.9957 11.4139C20.0002 11.3849 19.9979 11.3551 19.9888 11.3271C19.9798 11.2991 19.9643 11.2737 19.9435 11.2528L12.7356 4.04527C12.7147 4.02435 12.6891 4.00866 12.661 3.99949C12.6329 3.99032 12.6031 3.98792 12.5739 3.99249C12.5447 3.99706 12.517 4.00847 12.493 4.02579C12.469 4.04311 12.4495 4.06585 12.436 4.09215C11.8679 5.1698 11.7882 6.29106 11.7254 7.17512ZM11.259 14.0578C11.1368 14.2079 10.9711 14.3166 10.7847 14.3688C10.5983 14.421 10.4003 14.4142 10.2179 14.3493C10.0354 14.2845 9.87759 14.1647 9.76596 14.0066C9.65433 13.8484 9.59439 13.6596 9.59439 13.466C9.59439 13.2724 9.65433 13.0835 9.76596 12.9254C9.87759 12.7672 10.0354 12.6475 10.2179 12.5826C10.4003 12.5178 10.5983 12.511 10.7847 12.5632C10.9711 12.6154 11.1368 12.724 11.259 12.8742C11.3951 13.0414 11.4694 13.2504 11.4694 13.466C11.4694 13.6816 11.3951 13.8906 11.259 14.0578V14.0578Z"
          fill="#1F1D25"/>
</svg>
