<svg width="24" height="24" viewBox="0 0 24 24" fill="none" xmlns="http://www.w3.org/2000/svg">
    <path d="M12 14.25C13.2426 14.25 14.25 13.2426 14.25 12C14.25 10.7574 13.2426 9.75 12 9.75C10.7574 9.75 9.75 10.7574 9.75 12C9.75 13.2426 10.7574 14.25 12 14.25Z"
          fill="#1F1D25"/>
    <path d="M22.309 14.2479C22.7481 13.8159 23.0514 13.2651 23.1819 12.6632C23.3124 12.0613 23.2644 11.4343 23.0437 10.8593C22.823 10.2843 22.4393 9.7862 21.9396 9.42615C21.4399 9.06609 20.8459 8.85974 20.2306 8.8324C20.1842 8.83038 20.1393 8.81514 20.1013 8.78848C20.0633 8.76183 20.0336 8.72486 20.0159 8.68193V8.68193C19.9983 8.63888 19.9934 8.59171 20.0017 8.54596C20.01 8.5002 20.0312 8.45777 20.0628 8.42365C20.4747 7.9682 20.746 7.4032 20.8437 6.79692C20.9415 6.19063 20.8616 5.56901 20.6136 5.00717C20.3657 4.44533 19.9604 3.96731 19.4466 3.63087C18.9329 3.29443 18.3327 3.11398 17.7186 3.1113H17.7069C16.9188 3.11117 16.1594 3.40675 15.5787 3.93959C15.5446 3.97127 15.502 3.99252 15.4562 4.00082C15.4104 4.00913 15.3631 4.00414 15.32 3.98646C15.2771 3.96866 15.2401 3.93902 15.2134 3.90101C15.1866 3.86301 15.1713 3.81818 15.169 3.77177C15.1332 2.95523 14.7837 2.184 14.1932 1.61887C13.6027 1.05373 12.8169 0.738281 11.9996 0.738281C11.1823 0.738281 10.3965 1.05373 9.80599 1.61887C9.21552 2.184 8.86595 2.95523 8.83013 3.77177C8.82811 3.81818 8.81288 3.86303 8.78622 3.90107C8.75956 3.9391 8.72259 3.96873 8.67966 3.98646V3.98646C8.63656 4.00414 8.58929 4.00913 8.54344 4.00082C8.49759 3.99252 8.45508 3.97127 8.42091 3.93959C7.84 3.40589 7.07977 3.10993 6.29091 3.11037H6.28107C5.66762 3.11466 5.06848 3.29611 4.55573 3.6329C4.04299 3.96969 3.63848 4.44746 3.39087 5.00873C3.14326 5.57001 3.06311 6.19087 3.16006 6.79662C3.257 7.40238 3.52691 7.96721 3.93732 8.42318C3.96891 8.4573 3.99011 8.49973 3.99841 8.54549C4.00671 8.59124 4.00178 8.63841 3.98419 8.68146C3.96646 8.72439 3.93684 8.76136 3.8988 8.78802C3.86077 8.81467 3.81591 8.82991 3.76951 8.83193C2.95797 8.87496 2.19386 9.22765 1.63463 9.81732C1.0754 10.407 0.763672 11.1887 0.763672 12.0014C0.763672 12.8141 1.0754 13.5958 1.63463 14.1854C2.19386 14.7751 2.95797 15.1278 3.76951 15.1708C3.81597 15.1731 3.86083 15.1885 3.89884 15.2154C3.93686 15.2422 3.96646 15.2792 3.98419 15.3222C4.00182 15.3654 4.00677 15.4126 3.99847 15.4584C3.99017 15.5043 3.96895 15.5468 3.93732 15.581C3.52404 16.0351 3.25173 16.5996 3.15354 17.2057C3.05536 17.8118 3.13554 18.4334 3.38432 18.9947C3.6331 19.556 4.03975 20.0329 4.55473 20.3673C5.06972 20.7017 5.67081 20.879 6.28482 20.8779H6.29654C7.0811 20.88 7.83838 20.5901 8.42091 20.0646C8.45504 20.033 8.49747 20.0118 8.54322 20.0035C8.58897 19.9952 8.63615 20.0001 8.6792 20.0177V20.0177C8.72212 20.0354 8.75909 20.0651 8.78575 20.1031C8.81241 20.1411 8.82764 20.186 8.82966 20.2324C8.8727 21.0439 9.22539 21.808 9.81506 22.3673C10.4047 22.9265 11.1864 23.2382 11.9991 23.2382C12.8118 23.2382 13.5935 22.9265 14.1832 22.3673C14.7728 21.808 15.1255 21.0439 15.1686 20.2324C15.1708 20.186 15.1862 20.1412 15.2129 20.1032C15.2396 20.0651 15.2766 20.0355 15.3195 20.0177C15.3626 20.0001 15.4097 19.9952 15.4555 20.0035C15.5012 20.0118 15.5437 20.033 15.5778 20.0646C16.1595 20.591 16.9162 20.8821 17.7008 20.8811H17.7125C18.327 20.8836 18.929 20.7069 19.4447 20.3728C19.9605 20.0387 20.3678 19.5615 20.6168 18.9997C20.8658 18.4378 20.9457 17.8156 20.8469 17.2091C20.748 16.6025 20.4745 16.0379 20.06 15.5843C20.0283 15.5501 20.0071 15.5076 19.9988 15.4617C19.9905 15.4159 19.9955 15.3686 20.0131 15.3255V15.3255C20.0309 15.2826 20.0605 15.2456 20.0985 15.2189C20.1366 15.1922 20.1814 15.1768 20.2278 15.1746C21.0127 15.1357 21.7549 14.8052 22.309 14.2479ZM11.9998 15.7521C11.2581 15.7521 10.5331 15.5322 9.91643 15.1201C9.29975 14.708 8.8191 14.1224 8.53527 13.4371C8.25144 12.7519 8.17718 11.9979 8.32188 11.2705C8.46657 10.5431 8.82372 9.87488 9.34817 9.35044C9.87262 8.82599 10.5408 8.46884 11.2682 8.32414C11.9957 8.17945 12.7497 8.25371 13.4349 8.53754C14.1201 8.82137 14.7058 9.30201 15.1178 9.9187C15.5299 10.5354 15.7498 11.2604 15.7498 12.0021C15.7487 12.9963 15.3533 13.9495 14.6502 14.6525C13.9472 15.3555 12.994 15.751 11.9998 15.7521V15.7521Z"
          fill="#1F1D25"/>
</svg>
