<svg width="24" height="24" viewBox="0 0 24 24" fill="none" xmlns="http://www.w3.org/2000/svg">
    <path d="M19.125 4.5H11.8177C11.5957 4.50072 11.3785 4.43545 11.1938 4.3125L9.89062 3.4411C9.45911 3.15254 8.95145 2.99899 8.43234 3.00001H4.875C4.17904 3.00075 3.51179 3.27755 3.01967 3.76967C2.52755 4.26179 2.25074 4.92904 2.25 5.625V6.75H21.75C21.75 5.3025 20.5725 4.5 19.125 4.5Z"
          fill="#1F1D25"/>
    <path d="M19.863 21H4.13643C3.44766 20.9992 2.78678 20.7278 2.29633 20.2441C1.80589 19.7605 1.52517 19.1035 1.51471 18.4148L0.758151 10.6927V10.6795C0.733376 10.37 0.772929 10.0587 0.874322 9.76526C0.975715 9.47179 1.13675 9.20247 1.3473 8.97427C1.55785 8.74606 1.81335 8.5639 2.09773 8.43926C2.38212 8.31461 2.68922 8.25017 2.99971 8.25H21.0044C21.3148 8.2503 21.6218 8.31484 21.9061 8.43954C22.1904 8.56424 22.4457 8.74642 22.6562 8.97461C22.8666 9.2028 23.0276 9.47207 23.1289 9.76548C23.2303 10.0589 23.2698 10.3701 23.245 10.6795V10.6927L22.4847 18.4148C22.4743 19.1035 22.1935 19.7605 21.7031 20.2441C21.2126 20.7278 20.5518 20.9992 19.863 21V21Z"
          fill="#1F1D25"/>
</svg>
