<svg width="24" height="24" viewBox="0 0 24 24" fill="none" xmlns="http://www.w3.org/2000/svg">
    <path d="M6.27297 16.9345C5.21312 16.9345 4.35109 16.5515 3.70469 15.7912C3.05828 15.0309 2.63406 13.9026 2.38703 12.2611C2.02328 9.84184 2.38422 7.80277 3.40328 6.5198C4.00328 5.76418 4.79078 5.3273 5.68047 5.25699C6.44219 5.19605 7.58078 5.50496 8.68047 7.31949C9.36906 8.45574 9.89266 9.96512 10.1172 11.4604C10.3886 13.2656 10.1866 14.5945 9.49937 15.5221C8.95375 16.259 8.11469 16.7156 7.00515 16.8815C6.76272 16.9171 6.518 16.9348 6.27297 16.9345V16.9345Z"
          fill="#1F1D25"/>
    <path d="M8.10902 23.2496C7.4898 23.2496 6.86214 23.0513 6.29683 22.6702C5.48108 22.1175 4.91643 21.2651 4.72558 20.2984C4.59199 19.6112 4.67214 19.0651 4.97027 18.6277C5.45449 17.9176 6.32355 17.7577 7.24324 17.5881C7.34027 17.5702 7.4387 17.5524 7.53855 17.5332C7.75042 17.4929 7.96699 17.4395 8.17699 17.3874C8.96355 17.1934 9.7773 16.9923 10.449 17.4695C10.8985 17.7882 11.1521 18.3301 11.2281 19.1251C11.3143 20.0424 11.1175 20.9579 10.6735 21.7032C10.1959 22.5052 9.47964 23.0354 8.65792 23.1966C8.47709 23.2319 8.29327 23.2497 8.10902 23.2496V23.2496Z"
          fill="#1F1D25"/>
    <path d="M17.7264 12.4351C17.4816 12.4343 17.2372 12.4155 16.9952 12.3789C15.8861 12.2148 15.0471 11.7578 14.5014 11.0195C13.8143 10.0919 13.6108 8.76343 13.8836 6.9578C14.1082 5.46109 14.6304 3.95312 15.3157 2.82109C16.4097 1.01312 17.5497 0.699523 18.3157 0.754836C19.2025 0.819523 19.9886 1.2503 20.5896 2.00171C21.6157 3.28468 21.9794 5.32984 21.6142 7.75984C21.3672 9.40046 20.9486 10.5231 20.2966 11.29C19.6446 12.0569 18.7863 12.4351 17.7264 12.4351Z"
          fill="#1F1D25"/>
    <path d="M15.8904 18.7499C15.7066 18.7498 15.5233 18.7321 15.3429 18.6969C14.5198 18.5356 13.8035 18.0055 13.3273 17.2034C12.8834 16.4581 12.6865 15.5427 12.7728 14.6253C12.8478 13.8284 13.1009 13.2884 13.5518 12.9692C14.2235 12.4925 15.0373 12.6931 15.8239 12.8877C16.0339 12.9392 16.2504 12.9927 16.4623 13.0334L16.7571 13.0883C17.6773 13.2575 18.5463 13.4164 19.0306 14.1275C19.3287 14.5649 19.4088 15.1119 19.2753 15.7981C19.0846 16.7651 18.5199 17.6176 17.704 18.1705C17.1354 18.552 16.5078 18.7499 15.8904 18.7499Z"
          fill="#1F1D25"/>
</svg>
