<svg width="24" height="24" viewBox="0 0 24 24" fill="none" xmlns="http://www.w3.org/2000/svg">
    <path d="M13.8749 21.75C13.7546 21.7499 13.6351 21.7305 13.521 21.6923L9.76393 20.4422C9.5405 20.3671 9.34641 20.2235 9.20925 20.0318C9.07208 19.8401 8.99882 19.6101 8.99986 19.3744V13.7864C8.99884 13.7841 8.99741 13.7821 8.99565 13.7803L1.09018 4.57219C0.914882 4.36797 0.80187 4.11774 0.764558 3.85121C0.727245 3.58468 0.7672 3.31304 0.879678 3.06854C0.992157 2.82404 1.17243 2.61695 1.39911 2.47185C1.62578 2.32676 1.88933 2.24976 2.15846 2.25H21.8436C22.1127 2.24976 22.3763 2.32676 22.603 2.47185C22.8296 2.61695 23.0099 2.82404 23.1224 3.06854C23.2349 3.31304 23.2748 3.58468 23.2375 3.85121C23.2002 4.11774 23.0872 4.36797 22.9119 4.57219L15.0041 13.7813C15.0025 13.7831 15.0011 13.7852 14.9999 13.7873V20.625C15.0003 20.7729 14.9715 20.9193 14.9151 21.056C14.8587 21.1927 14.7759 21.3169 14.6713 21.4215C14.5668 21.526 14.4426 21.6089 14.3059 21.6652C14.1692 21.7216 14.0227 21.7504 13.8749 21.75V21.75Z"
          fill="#1F1D25"/>
</svg>
