<svg width="24" height="24" viewBox="0 0 24 24" fill="none" xmlns="http://www.w3.org/2000/svg">
    <path d="M3.75 19.5C3.75 20.2956 4.06607 21.0587 4.62868 21.6213C5.19129 22.1839 5.95435 22.5 6.75 22.5H11.0625C11.1122 22.5 11.1599 22.4802 11.1951 22.4451C11.2302 22.4099 11.25 22.3622 11.25 22.3125V13.6875C11.25 13.6378 11.2302 13.5901 11.1951 13.5549C11.1599 13.5198 11.1122 13.5 11.0625 13.5H4.125C4.02554 13.5 3.93016 13.5395 3.85984 13.6098C3.78951 13.6802 3.75 13.7755 3.75 13.875V19.5Z"
          fill="#1F1D25"/>
    <path d="M11.25 11.8137V6.75121H12.75V11.8137C12.75 11.8634 12.7698 11.9111 12.8049 11.9463C12.8401 11.9815 12.8878 12.0012 12.9375 12.0012H19.5C19.7555 12.0012 20.0091 11.9576 20.25 11.8723C20.6883 11.7167 21.0677 11.4293 21.3363 11.0496C21.6048 10.6698 21.7493 10.2163 21.75 9.75121V9.00121C21.75 8.40448 21.5129 7.83218 21.091 7.41022C20.669 6.98827 20.0967 6.75121 19.5 6.75121H17.5997C17.5834 6.75095 17.5674 6.74643 17.5533 6.7381C17.5393 6.72976 17.5277 6.7179 17.5196 6.7037C17.5116 6.68949 17.5074 6.67342 17.5074 6.65709C17.5075 6.64076 17.5118 6.62473 17.52 6.61059C17.954 5.87788 18.0949 5.00819 17.9146 4.17591C17.7343 3.34364 17.246 2.6103 16.5476 2.12295C15.8492 1.6356 14.9925 1.43026 14.1491 1.54811C13.3057 1.66596 12.538 2.09829 12 2.7584C11.462 2.09829 10.6943 1.66596 9.85092 1.54811C9.00752 1.43026 8.15075 1.6356 7.4524 2.12295C6.75405 2.6103 6.26574 3.34364 6.0854 4.17591C5.90506 5.00819 6.04602 5.87788 6.48 6.61059C6.48817 6.62473 6.4925 6.64076 6.49257 6.65709C6.49263 6.67342 6.48843 6.68949 6.48038 6.7037C6.47233 6.7179 6.46071 6.72976 6.44666 6.7381C6.43262 6.74643 6.41664 6.75095 6.40031 6.75121H4.5C3.90326 6.75121 3.33097 6.98827 2.90901 7.41022C2.48705 7.83218 2.25 8.40448 2.25 9.00121V9.75121C2.25066 10.2163 2.39517 10.6698 2.66372 11.0496C2.93227 11.4293 3.3117 11.7167 3.75 11.8723V11.8723C3.99085 11.9576 4.24449 12.0012 4.5 12.0012H11.0625C11.1122 12.0012 11.1599 11.9815 11.1951 11.9463C11.2302 11.9111 11.25 11.8634 11.25 11.8137ZM12.75 4.87621C12.75 4.50537 12.86 4.14286 13.066 3.83452C13.272 3.52618 13.5649 3.28586 13.9075 3.14394C14.2501 3.00203 14.6271 2.9649 14.9908 3.03724C15.3545 3.10959 15.6886 3.28817 15.9508 3.55039C16.213 3.81261 16.3916 4.14671 16.464 4.51042C16.5363 4.87414 16.4992 5.25113 16.3573 5.59375C16.2154 5.93636 15.975 6.22919 15.6667 6.43522C15.3584 6.64125 14.9958 6.75121 14.625 6.75121H12.75V4.87621ZM9.24094 3.0059C9.49781 2.98749 9.75572 3.02219 9.9986 3.10784C10.2415 3.19349 10.4641 3.32826 10.6526 3.50374C10.8411 3.67921 10.9914 3.89164 11.0942 4.12777C11.197 4.36391 11.25 4.61868 11.25 4.87621V6.75121H9.375C8.89017 6.74997 8.42467 6.56097 8.07619 6.22388C7.72771 5.88679 7.52336 5.42783 7.50601 4.9433C7.48867 4.45878 7.65968 3.98637 7.98316 3.62523C8.30664 3.26408 8.75744 3.04228 9.24094 3.00637V3.0059Z"
          fill="#1F1D25"/>
    <path d="M12.9375 22.5H17.25C18.0456 22.5 18.8087 22.1839 19.3713 21.6213C19.9339 21.0587 20.25 20.2956 20.25 19.5V13.875C20.25 13.7755 20.2105 13.6802 20.1402 13.6098C20.0698 13.5395 19.9745 13.5 19.875 13.5H12.9375C12.8878 13.5 12.8401 13.5198 12.8049 13.5549C12.7698 13.5901 12.75 13.6378 12.75 13.6875V22.3125C12.75 22.3622 12.7698 22.4099 12.8049 22.4451C12.8401 22.4802 12.8878 22.5 12.9375 22.5Z"
          fill="#1F1D25"/>
</svg>
