<svg width="24" height="24" viewBox="0 0 24 24" fill="none" xmlns="http://www.w3.org/2000/svg">
    <path d="M9 4.49972C9.00029 3.97304 8.86193 3.45556 8.59881 2.99931C8.33569 2.54307 7.9571 2.16413 7.50109 1.9006C7.04508 1.63707 6.52773 1.49823 6.00105 1.49805C5.47436 1.49786 4.95692 1.63634 4.50072 1.89955C4.04453 2.16277 3.66567 2.54144 3.40224 2.9975C3.1388 3.45357 3.00007 3.97095 3 4.49763C2.99993 5.02431 3.13851 5.54173 3.40182 5.99787C3.66513 6.454 4.04388 6.83278 4.5 7.09612V16.9033C3.92808 17.2335 3.48109 17.7432 3.22836 18.3533C2.97564 18.9635 2.9313 19.6399 3.10222 20.2778C3.27315 20.9157 3.64978 21.4794 4.17372 21.8814C4.69765 22.2835 5.3396 22.5014 6 22.5014C6.6604 22.5014 7.30235 22.2835 7.82629 21.8814C8.35022 21.4794 8.72685 20.9157 8.89778 20.2778C9.0687 19.6399 9.02437 18.9635 8.77164 18.3533C8.51891 17.7432 8.07193 17.2335 7.5 16.9033V7.09612C7.95581 6.83296 8.33437 6.45451 8.59766 5.99877C8.86095 5.54303 8.99971 5.02604 9 4.49972V4.49972ZM6 2.99972C6.29667 2.99972 6.58668 3.08769 6.83336 3.25251C7.08003 3.41733 7.27229 3.6516 7.38582 3.92569C7.49935 4.19978 7.52906 4.50138 7.47118 4.79235C7.4133 5.08332 7.27044 5.3506 7.06066 5.56038C6.85088 5.77016 6.58361 5.91302 6.29264 5.97089C6.00167 6.02877 5.70006 5.99907 5.42598 5.88554C5.15189 5.772 4.91762 5.57975 4.7528 5.33307C4.58797 5.0864 4.5 4.79639 4.5 4.49972C4.5 4.10189 4.65804 3.72036 4.93934 3.43906C5.22065 3.15775 5.60218 2.99972 6 2.99972V2.99972ZM6 20.9997C5.70333 20.9997 5.41332 20.9117 5.16665 20.7469C4.91997 20.5821 4.72771 20.3478 4.61418 20.0737C4.50065 19.7997 4.47095 19.4981 4.52882 19.2071C4.5867 18.9161 4.72956 18.6488 4.93934 18.4391C5.14912 18.2293 5.41639 18.0864 5.70737 18.0285C5.99834 17.9707 6.29994 18.0004 6.57403 18.1139C6.84812 18.2274 7.08238 18.4197 7.24721 18.6664C7.41203 18.913 7.5 19.203 7.5 19.4997C7.5 19.8975 7.34197 20.2791 7.06066 20.5604C6.77936 20.8417 6.39783 20.9997 6 20.9997Z"
          fill="#1F1D25"/>
    <path d="M19.4996 16.9032V7.31215C19.4984 6.16879 19.0437 5.07261 18.2352 4.26413C17.4267 3.45564 16.3305 3.00089 15.1871 2.99965H14.2496V1.49965C14.2496 1.35137 14.2056 1.20643 14.1231 1.08316C14.0407 0.959884 13.9236 0.863808 13.7866 0.807071C13.6496 0.750334 13.4989 0.735482 13.3534 0.764392C13.208 0.793303 13.0744 0.864677 12.9695 0.969497L9.9695 3.9695C9.82895 4.11013 9.75 4.30083 9.75 4.49965C9.75 4.69848 9.82895 4.88917 9.9695 5.02981L12.9695 8.02981C13.0744 8.13463 13.208 8.206 13.3534 8.23491C13.4989 8.26382 13.6496 8.24897 13.7866 8.19223C13.9236 8.1355 14.0407 8.03942 14.1231 7.91615C14.2056 7.79288 14.2496 7.64794 14.2496 7.49965V5.99965H15.1871C15.5352 5.99965 15.8691 6.13793 16.1152 6.38407C16.3614 6.63022 16.4996 6.96406 16.4996 7.31215V16.9032C15.9277 17.2334 15.4807 17.7431 15.228 18.3533C14.9753 18.9634 14.9309 19.6399 15.1019 20.2778C15.2728 20.9157 15.6494 21.4794 16.1734 21.8814C16.6973 22.2834 17.3392 22.5013 17.9996 22.5013C18.66 22.5013 19.302 22.2834 19.8259 21.8814C20.3499 21.4794 20.7265 20.9157 20.8974 20.2778C21.0683 19.6399 21.024 18.9634 20.7713 18.3533C20.5186 17.7431 20.0716 17.2334 19.4996 16.9032ZM17.9996 20.9997C17.703 20.9997 17.413 20.9117 17.1663 20.7469C16.9196 20.582 16.7274 20.3478 16.6138 20.0737C16.5003 19.7996 16.4706 19.498 16.5285 19.207C16.5863 18.916 16.7292 18.6488 16.939 18.439C17.1488 18.2292 17.416 18.0864 17.707 18.0285C17.998 17.9706 18.2996 18.0003 18.5737 18.1138C18.8478 18.2274 19.082 18.4196 19.2468 18.6663C19.4117 18.913 19.4996 19.203 19.4996 19.4997C19.4996 19.8975 19.3416 20.279 19.0603 20.5603C18.779 20.8416 18.3975 20.9997 17.9996 20.9997Z"
          fill="#1F1D25"/>
</svg>
