<svg width="24" height="24" viewBox="0 0 24 24" fill="none" xmlns="http://www.w3.org/2000/svg">
    <path d="M10.2331 15.9695C10.1282 15.8647 9.99458 15.7933 9.84914 15.7644C9.7037 15.7355 9.55296 15.7504 9.41595 15.8071C9.27895 15.8639 9.16184 15.9599 9.07943 16.0832C8.99701 16.2065 8.95299 16.3514 8.95292 16.4997V17.9997H8.01542C7.66732 17.9997 7.33348 17.8614 7.08734 17.6153C6.8412 17.3691 6.70292 17.0353 6.70292 16.6872V7.12469C7.28068 6.80487 7.73678 6.30334 8.00046 5.69789C8.26415 5.09244 8.3207 4.41691 8.16134 3.77605C8.00198 3.13518 7.63561 2.56481 7.11906 2.15338C6.60251 1.74195 5.96464 1.51246 5.30437 1.50049C4.6441 1.48853 3.99833 1.69475 3.4672 2.08719C2.93608 2.47963 2.54929 3.03635 2.36681 3.67102C2.18433 4.30569 2.21636 4.98283 2.45793 5.59744C2.69951 6.21204 3.13713 6.72977 3.70292 7.07032V16.6872C3.70416 17.8306 4.15891 18.9267 4.96739 19.7352C5.77587 20.5437 6.87206 20.9985 8.01542 20.9997H8.95292V22.4997C8.95299 22.648 8.99701 22.7929 9.07943 22.9162C9.16184 23.0395 9.27895 23.1355 9.41595 23.1923C9.55296 23.249 9.7037 23.2639 9.84914 23.235C9.99458 23.206 10.1282 23.1347 10.2331 23.0299L13.2331 20.0299C13.3736 19.8892 13.4526 19.6985 13.4526 19.4997C13.4526 19.3009 13.3736 19.1102 13.2331 18.9695L10.2331 15.9695ZM5.2498 2.9997C5.54647 2.9997 5.83648 3.08767 6.08315 3.25249C6.32982 3.41731 6.52208 3.65158 6.63562 3.92567C6.74915 4.19976 6.77885 4.50136 6.72097 4.79233C6.6631 5.0833 6.52023 5.35058 6.31046 5.56036C6.10068 5.77013 5.8334 5.913 5.54243 5.97087C5.25146 6.02875 4.94986 5.99905 4.67577 5.88551C4.40168 5.77198 4.16741 5.57972 4.00259 5.33305C3.83777 5.08638 3.7498 4.79637 3.7498 4.4997C3.7498 4.10187 3.90783 3.72034 4.18914 3.43903C4.47044 3.15773 4.85197 2.9997 5.2498 2.9997V2.9997Z"
          fill="#1F1D25"/>
    <path d="M20.2496 16.9032V7.31215C20.2484 6.16879 19.7937 5.07261 18.9852 4.26413C18.1767 3.45564 17.0805 3.00089 15.9371 2.99965H14.9996V1.49965C14.9996 1.35137 14.9556 1.20643 14.8731 1.08316C14.7907 0.959884 14.6736 0.863808 14.5366 0.807071C14.3996 0.750334 14.2489 0.735482 14.1034 0.764392C13.958 0.793303 13.8244 0.864677 13.7195 0.969497L10.7195 3.9695C10.579 4.11013 10.5 4.30083 10.5 4.49965C10.5 4.69848 10.579 4.88917 10.7195 5.02981L13.7195 8.02981C13.8244 8.13463 13.958 8.206 14.1034 8.23491C14.2489 8.26382 14.3996 8.24897 14.5366 8.19223C14.6736 8.1355 14.7907 8.03942 14.8731 7.91615C14.9556 7.79288 14.9996 7.64794 14.9996 7.49965V5.99965H15.9371C16.2852 5.99965 16.6191 6.13793 16.8652 6.38407C17.1114 6.63022 17.2496 6.96406 17.2496 7.31215V16.9032C16.6777 17.2334 16.2307 17.7431 15.978 18.3533C15.7253 18.9634 15.6809 19.6399 15.8519 20.2778C16.0228 20.9157 16.3994 21.4794 16.9234 21.8814C17.4473 22.2834 18.0892 22.5013 18.7496 22.5013C19.41 22.5013 20.052 22.2834 20.5759 21.8814C21.0999 21.4794 21.4765 20.9157 21.6474 20.2778C21.8183 19.6399 21.774 18.9634 21.5213 18.3533C21.2686 17.7431 20.8216 17.2334 20.2496 16.9032ZM18.7496 20.9997C18.453 20.9997 18.163 20.9117 17.9163 20.7469C17.6696 20.582 17.4774 20.3478 17.3638 20.0737C17.2503 19.7996 17.2206 19.498 17.2785 19.207C17.3363 18.916 17.4792 18.6488 17.689 18.439C17.8988 18.2292 18.166 18.0864 18.457 18.0285C18.748 17.9706 19.0496 18.0003 19.3237 18.1138C19.5978 18.2274 19.832 18.4196 19.9968 18.6663C20.1617 18.913 20.2496 19.203 20.2496 19.4997C20.2496 19.8975 20.0916 20.279 19.8103 20.5603C19.529 20.8416 19.1475 20.9997 18.7496 20.9997Z"
          fill="#1F1D25"/>
</svg>
