<svg width="24" height="24" viewBox="0 0 24 24" fill="none" xmlns="http://www.w3.org/2000/svg">
    <path d="M20.9998 4.49983C21.0001 3.97386 20.8621 3.45706 20.5996 3.00125C20.3372 2.54544 19.9595 2.16663 19.5045 1.90282C19.0495 1.63901 18.5331 1.49946 18.0071 1.49818C17.4812 1.49689 16.9641 1.63391 16.5078 1.89549C16.0515 2.15707 15.672 2.53402 15.4073 2.98854C15.1426 3.44306 15.0021 3.95918 14.9998 4.48515C14.9975 5.01111 15.1336 5.52843 15.3943 5.98523C15.655 6.44204 16.0312 6.82227 16.4853 7.0878C16.4014 8.06608 15.9476 8.87374 15.132 9.49202C14.3 10.1248 13.129 10.4998 11.9998 10.4998C10.8706 10.4998 9.69964 10.1248 8.86761 9.49202C8.05198 8.87374 7.59823 8.06608 7.51432 7.0878C8.0842 6.75458 8.52825 6.24269 8.77765 5.63147C9.02706 5.02025 9.0679 4.34383 8.89384 3.70704C8.71978 3.07026 8.34055 2.50866 7.8149 2.1093C7.28926 1.70993 6.64657 1.49509 5.98643 1.49808C5.32629 1.50106 4.68557 1.72171 4.16356 2.12581C3.64155 2.52992 3.26741 3.09492 3.09912 3.73326C2.93083 4.37159 2.97779 5.04761 3.23272 5.65655C3.48764 6.26549 3.9363 6.77334 4.50917 7.10139C4.60667 9.01718 5.50151 10.7047 7.05495 11.8826C8.02948 12.6214 9.23417 13.1337 10.4998 13.3634V16.9034C9.92787 17.2336 9.48088 17.7433 9.22815 18.3535C8.97543 18.9636 8.93109 19.6401 9.10202 20.278C9.27294 20.9159 9.64958 21.4795 10.1735 21.8816C10.6974 22.2836 11.3394 22.5015 11.9998 22.5015C12.6602 22.5015 13.3021 22.2836 13.8261 21.8816C14.35 21.4795 14.7266 20.9159 14.8976 20.278C15.0685 19.6401 15.0242 18.9636 14.7714 18.3535C14.5187 17.7433 14.0717 17.2336 13.4998 16.9034V13.3634C14.7654 13.1337 15.9701 12.6214 16.9446 11.8826C18.4981 10.7047 19.3929 9.01718 19.4904 7.10139C19.9487 6.83898 20.3297 6.46024 20.5947 6.00343C20.8597 5.54663 20.9995 5.02795 20.9998 4.49983V4.49983ZM5.99979 2.99983C6.29647 2.99983 6.58648 3.08781 6.83315 3.25263C7.07982 3.41745 7.27208 3.65172 7.38561 3.92581C7.49914 4.1999 7.52885 4.5015 7.47097 4.79247C7.41309 5.08344 7.27023 5.35071 7.06045 5.56049C6.85067 5.77027 6.5834 5.91313 6.29243 5.97101C6.00146 6.02889 5.69986 5.99918 5.42577 5.88565C5.15168 5.77212 4.91741 5.57986 4.75259 5.33319C4.58777 5.08651 4.49979 4.7965 4.49979 4.49983C4.49979 4.10201 4.65783 3.72048 4.93913 3.43917C5.22044 3.15787 5.60197 2.99983 5.99979 2.99983V2.99983ZM11.9998 20.9998C11.7031 20.9998 11.4131 20.9119 11.1664 20.747C10.9198 20.5822 10.7275 20.3479 10.614 20.0739C10.5004 19.7998 10.4707 19.4982 10.5286 19.2072C10.5865 18.9162 10.7294 18.649 10.9391 18.4392C11.1489 18.2294 11.4162 18.0865 11.7072 18.0287C11.9981 17.9708 12.2997 18.0005 12.5738 18.114C12.8479 18.2275 13.0822 18.4198 13.247 18.6665C13.4118 18.9131 13.4998 19.2032 13.4998 19.4998C13.4998 19.8977 13.3418 20.2792 13.0605 20.5605C12.7791 20.8418 12.3976 20.9998 11.9998 20.9998V20.9998ZM17.9998 5.99983C17.7031 5.99983 17.4131 5.91186 17.1664 5.74704C16.9198 5.58221 16.7275 5.34795 16.614 5.07386C16.5004 4.79977 16.4707 4.49817 16.5286 4.2072C16.5865 3.91622 16.7294 3.64895 16.9391 3.43917C17.1489 3.22939 17.4162 3.08653 17.7072 3.02865C17.9981 2.97078 18.2997 3.00048 18.5738 3.11401C18.8479 3.22754 19.0822 3.4198 19.247 3.66648C19.4118 3.91315 19.4998 4.20316 19.4998 4.49983C19.4998 4.89766 19.3418 5.27919 19.0605 5.56049C18.7791 5.8418 18.3976 5.99983 17.9998 5.99983Z"
          fill="#1F1D25"/>
</svg>
