<svg width="24" height="24" viewBox="0 0 24 24" fill="none" xmlns="http://www.w3.org/2000/svg">
    <path d="M15.9723 16.148C16.2493 15.1777 16.4326 14.0503 16.5025 12.968C16.504 12.9397 16.4997 12.9114 16.4899 12.8849C16.48 12.8583 16.4648 12.8341 16.4452 12.8136C16.4256 12.7932 16.402 12.777 16.3759 12.7661C16.3498 12.7551 16.3217 12.7497 16.2934 12.75H12.9625C12.9352 12.7498 12.9081 12.7549 12.8828 12.7651C12.8576 12.7753 12.8345 12.7904 12.8151 12.8095C12.7956 12.8286 12.7801 12.8514 12.7695 12.8765C12.7588 12.9016 12.7532 12.9285 12.7529 12.9558V15.548C12.7535 15.6003 12.7738 15.6506 12.8098 15.6886C12.8458 15.7267 12.8947 15.7498 12.947 15.7533C13.8857 15.8291 14.8131 16.0082 15.7126 16.2872C15.7655 16.3031 15.8226 16.2974 15.8712 16.2713C15.9199 16.2452 15.9563 16.2008 15.9723 16.148Z"
          fill="#1F1D25"/>
    <path d="M15.1675 17.6862C14.4539 17.4778 13.7227 17.3352 12.9831 17.2601C12.9545 17.2569 12.9256 17.2597 12.8982 17.2683C12.8707 17.2768 12.8454 17.291 12.8237 17.31C12.8021 17.3289 12.7846 17.3521 12.7724 17.3781C12.7602 17.4041 12.7536 17.4324 12.7529 17.4612V20.5193C12.7541 20.5558 12.7647 20.5913 12.7838 20.6224C12.8029 20.6535 12.8297 20.6791 12.8618 20.6966C12.8938 20.7142 12.9298 20.723 12.9663 20.7223C13.0028 20.7217 13.0385 20.7114 13.0698 20.6927C13.8151 20.2582 14.4292 19.5284 14.9842 18.5632C15.0751 18.4057 15.2134 18.1343 15.2968 17.9684C15.3098 17.9417 15.3167 17.9124 15.317 17.8828C15.3173 17.8531 15.3111 17.8237 15.2987 17.7967C15.2864 17.7698 15.2682 17.7459 15.2455 17.7267C15.2228 17.7076 15.1962 17.6938 15.1675 17.6862Z"
          fill="#1F1D25"/>
    <path d="M11.0297 17.2688C10.291 17.339 9.56042 17.4774 8.84721 17.6822C8.72346 17.7178 8.67143 17.8885 8.72768 18.0005C8.81159 18.1674 8.91518 18.3807 9.00378 18.54C9.61315 19.6182 10.2619 20.2978 10.9369 20.693C10.9682 20.7117 11.0039 20.7219 11.0404 20.7226C11.0769 20.7233 11.1129 20.7144 11.145 20.6969C11.177 20.6794 11.2038 20.6538 11.2229 20.6227C11.242 20.5916 11.2527 20.556 11.2538 20.5196V17.46C11.2536 17.4321 11.2473 17.4045 11.2355 17.3792C11.2237 17.3539 11.2066 17.3314 11.1854 17.3133C11.1641 17.2951 11.1392 17.2818 11.1124 17.2741C11.0855 17.2664 11.0573 17.2646 11.0297 17.2688V17.2688Z"
          fill="#1F1D25"/>
    <path d="M11.0442 12.75H7.71325C7.68498 12.7497 7.65693 12.7551 7.63084 12.766C7.60476 12.7769 7.58119 12.7931 7.56159 12.8135C7.542 12.8339 7.52679 12.858 7.51692 12.8845C7.50704 12.911 7.50271 12.9393 7.50419 12.9675C7.57356 14.0485 7.75591 15.1781 8.032 16.1475C8.03983 16.174 8.05285 16.1987 8.0703 16.2202C8.08775 16.2417 8.10928 16.2595 8.13365 16.2725C8.15802 16.2856 8.18475 16.2937 8.21228 16.2964C8.23981 16.2991 8.2676 16.2963 8.29403 16.2881C9.19344 16.0091 10.121 15.8305 11.0597 15.7556C11.112 15.7522 11.1611 15.7292 11.1972 15.6911C11.2332 15.653 11.2536 15.6028 11.2542 15.5503V12.9563C11.254 12.9289 11.2484 12.9019 11.2378 12.8767C11.2271 12.8515 11.2116 12.8287 11.1921 12.8095C11.1725 12.7903 11.1494 12.7752 11.1241 12.765C11.0987 12.7548 11.0715 12.7497 11.0442 12.75V12.75Z"
          fill="#1F1D25"/>
    <path d="M12.9841 6.7393C13.7232 6.67004 14.4534 6.52651 15.1638 6.31086C15.1923 6.30315 15.2187 6.28927 15.2413 6.27021C15.2638 6.25114 15.2819 6.22735 15.2943 6.20052C15.3066 6.17369 15.3129 6.14447 15.3127 6.11494C15.3125 6.0854 15.3058 6.05627 15.2931 6.02961C15.2092 5.86227 15.093 5.62274 15.0039 5.46289C14.4278 4.43165 13.7786 3.71212 13.0708 3.30665C13.0394 3.28808 13.0038 3.27799 12.9673 3.27737C12.9309 3.27676 12.8949 3.28563 12.863 3.30313C12.831 3.32063 12.8041 3.34614 12.785 3.37717C12.7659 3.4082 12.7552 3.44366 12.7539 3.48009V6.53773C12.7546 6.56649 12.7612 6.59479 12.7734 6.62085C12.7856 6.6469 12.8031 6.67014 12.8247 6.68909C12.8463 6.70804 12.8717 6.72229 12.8991 6.73093C12.9265 6.73957 12.9555 6.74242 12.9841 6.7393V6.7393Z"
          fill="#1F1D25"/>
    <path d="M12.9625 11.2507H16.2934C16.3215 11.2511 16.3493 11.2459 16.3753 11.2352C16.4012 11.2245 16.4247 11.2086 16.4443 11.1885C16.4639 11.1684 16.4791 11.1445 16.4891 11.1182C16.4991 11.092 16.5037 11.064 16.5025 11.036C16.4331 9.96863 16.2554 8.79535 15.9793 7.83817C15.9713 7.81185 15.9581 7.78739 15.9405 7.76618C15.923 7.74497 15.9014 7.72744 15.877 7.7146C15.8527 7.70175 15.826 7.69384 15.7986 7.69131C15.7712 7.68879 15.7436 7.6917 15.7173 7.69989C14.8267 7.96895 13.899 8.18879 12.9475 8.26238C12.8955 8.26534 12.8465 8.28786 12.8104 8.32542C12.7743 8.36298 12.7538 8.41281 12.7529 8.46488V11.0482C12.7539 11.1028 12.7765 11.1548 12.8158 11.1927C12.8551 11.2307 12.9078 11.2515 12.9625 11.2507Z"
          fill="#1F1D25"/>
    <path d="M10.9369 3.30773C10.2141 3.70945 9.56959 4.45289 8.99302 5.48133C8.90349 5.64117 8.79662 5.86148 8.71177 6.02836C8.69916 6.05503 8.69254 6.08415 8.69239 6.11365C8.69223 6.14316 8.69854 6.17235 8.71087 6.19915C8.7232 6.22596 8.74126 6.24974 8.76376 6.26882C8.78627 6.28791 8.81269 6.30183 8.84115 6.30961C9.5512 6.52921 10.2824 6.67329 11.0227 6.73945C11.0513 6.74257 11.0802 6.73974 11.1076 6.73112C11.135 6.72251 11.1603 6.7083 11.1819 6.6894C11.2035 6.6705 11.221 6.64732 11.2332 6.62132C11.2454 6.59532 11.2521 6.56707 11.2529 6.53836V3.48117C11.2514 3.44494 11.2406 3.40971 11.2215 3.3789C11.2024 3.34808 11.1756 3.32272 11.1439 3.30527C11.1121 3.28782 11.0763 3.27888 11.0401 3.27931C11.0038 3.27974 10.9683 3.28953 10.9369 3.30773Z"
          fill="#1F1D25"/>
    <path d="M11.0591 8.26141C10.1075 8.18875 9.17895 7.96891 8.28926 7.69891C8.26297 7.69072 8.23533 7.68781 8.20792 7.69033C8.18051 7.69286 8.15386 7.70077 8.12952 7.71362C8.10517 7.72647 8.0836 7.744 8.06605 7.7652C8.04849 7.78641 8.0353 7.81087 8.02723 7.83719C7.75113 8.79438 7.57348 9.96765 7.5041 11.035C7.50288 11.063 7.50741 11.091 7.51741 11.1173C7.52742 11.1435 7.54268 11.1674 7.56226 11.1875C7.58184 11.2076 7.60533 11.2235 7.63128 11.2342C7.65723 11.2449 7.6851 11.2502 7.71316 11.2497H11.0441C11.0712 11.2501 11.0982 11.2452 11.1234 11.2352C11.1486 11.2252 11.1716 11.2103 11.1911 11.1914C11.2105 11.1725 11.2261 11.15 11.2368 11.1251C11.2476 11.1002 11.2533 11.0734 11.2536 11.0462V8.46391C11.2528 8.41183 11.2322 8.362 11.1962 8.32444C11.1601 8.28688 11.1111 8.26436 11.0591 8.26141Z"
          fill="#1F1D25"/>
    <path d="M19.4249 4.57491C18.4517 3.59201 17.2938 2.81111 16.0178 2.27706C14.7419 1.743 13.3729 1.46633 11.9897 1.46292C10.6065 1.45952 9.23622 1.72945 7.95763 2.25722C6.67904 2.78498 5.51734 3.56018 4.53925 4.53827C3.56116 5.51636 2.78596 6.67807 2.25819 7.95666C1.73043 9.23524 1.46049 10.6055 1.4639 11.9887C1.4673 13.372 1.74398 14.7409 2.27803 16.0169C2.81209 17.2928 3.59299 18.4507 4.57588 19.424C5.54915 20.4069 6.70703 21.1878 7.983 21.7218C9.25897 22.2559 10.6279 22.5325 12.0111 22.536C13.3943 22.5394 14.7646 22.2694 16.0432 21.7417C17.3218 21.2139 18.4835 20.4387 19.4616 19.4606C20.4397 18.4825 21.2149 17.3208 21.7426 16.0422C22.2704 14.7636 22.5403 13.3934 22.5369 12.0101C22.5335 10.6269 22.2569 9.258 21.7228 7.98202C21.1887 6.70605 20.4078 5.54817 19.4249 4.57491V4.57491ZM8.27854 20.1955C8.06734 19.8989 7.87206 19.5913 7.69354 19.274C7.59979 19.101 7.46666 18.8399 7.37807 18.6585C7.35776 18.6155 7.32869 18.5771 7.29272 18.546C7.25675 18.5149 7.21467 18.4916 7.16917 18.4776C7.12368 18.4637 7.07577 18.4594 7.02852 18.465C6.98127 18.4707 6.93572 18.4861 6.89479 18.5104C6.69323 18.6233 6.42604 18.7785 6.23245 18.9055C5.82647 18.5969 5.45592 18.2443 5.1276 17.8541C5.58165 17.5337 6.05802 17.2461 6.55307 16.9935C6.64026 16.9466 6.68291 16.8932 6.65526 16.7976C6.29255 15.5422 6.07102 14.2503 5.99479 12.9458C5.99252 12.8937 5.97037 12.8444 5.93289 12.808C5.89541 12.7717 5.84543 12.751 5.79323 12.7504H3.13354C3.11093 12.7506 3.08899 12.7427 3.07176 12.7281C3.05453 12.7134 3.04318 12.693 3.03979 12.6707C3.01033 12.4482 2.99717 12.2238 3.00041 11.9994C2.99721 11.7755 3.01068 11.5516 3.04073 11.3296C3.04412 11.3072 3.05547 11.2869 3.0727 11.2722C3.08993 11.2576 3.11187 11.2497 3.13448 11.2499H5.79416C5.90151 11.2499 5.98963 11.188 5.99526 11.0798C6.07048 9.78071 6.2906 8.49413 6.65151 7.24397C6.66495 7.19834 6.66205 7.14944 6.64331 7.10572C6.62457 7.06199 6.59117 7.02618 6.54885 7.00444C6.06443 6.75622 5.59714 6.47591 5.1501 6.16538C5.47668 5.77528 5.83991 5.4174 6.23479 5.09663C6.42604 5.22225 6.67541 5.36428 6.8751 5.47678C6.91911 5.5018 6.96778 5.51751 7.01811 5.52295C7.06843 5.5284 7.11934 5.52345 7.16767 5.50842C7.21601 5.49339 7.26075 5.4686 7.29911 5.43559C7.33748 5.40257 7.36866 5.36203 7.39073 5.31647C7.47885 5.13506 7.57823 4.93303 7.67479 4.75959C7.85409 4.43833 8.0503 4.12679 8.2626 3.82631C9.43139 3.27569 10.7084 2.99318 12.0004 2.99944C13.357 2.99944 14.6207 3.32756 15.7753 3.86475C15.9791 4.15097 16.1669 4.4483 16.3378 4.75538C16.4592 4.97381 16.5881 5.24147 16.6968 5.4735C16.7085 5.49821 16.7251 5.52028 16.7456 5.53836C16.7661 5.55644 16.79 5.57015 16.816 5.57867C16.842 5.58718 16.8694 5.5903 16.8966 5.58786C16.9239 5.58541 16.9503 5.57744 16.9743 5.56444C17.2265 5.42803 17.4998 5.271 17.7403 5.11303C18.1363 5.43695 18.5004 5.79797 18.8278 6.19116C18.3929 6.4927 17.9378 6.76381 17.4656 7.00256C17.4232 7.02432 17.3897 7.06024 17.3711 7.10409C17.3524 7.14793 17.3497 7.19692 17.3634 7.24256C17.7302 8.48424 17.9481 9.76509 18.0126 11.0582C18.0151 11.1101 18.0374 11.159 18.0749 11.1949C18.1124 11.2308 18.1622 11.251 18.2142 11.2513L20.8682 11.248C20.8908 11.2478 20.9128 11.2557 20.93 11.2703C20.9472 11.285 20.9586 11.3054 20.962 11.3277C21.0167 11.7732 21.0167 12.2238 20.962 12.6693C20.9588 12.6918 20.9475 12.7124 20.9303 12.7272C20.913 12.7421 20.891 12.7501 20.8682 12.7499H18.2118C18.1596 12.7505 18.1095 12.7711 18.072 12.8074C18.0345 12.8438 18.0124 12.8932 18.0103 12.9454C17.9373 14.2361 17.7192 15.5144 17.3601 16.7563C17.3465 16.8025 17.3493 16.8519 17.368 16.8963C17.3867 16.9406 17.4202 16.9771 17.4628 16.9996C17.6971 17.121 17.9582 17.2565 18.1832 17.3943C18.4082 17.5321 18.6309 17.6793 18.8456 17.8321C18.5208 18.2234 18.1598 18.5833 17.7674 18.9069C17.6531 18.8315 17.5171 18.7457 17.3999 18.6754C17.3193 18.6285 17.1707 18.5455 17.0882 18.4991C16.9092 18.3988 16.7189 18.4738 16.6293 18.6585C16.5398 18.8432 16.4029 19.108 16.3073 19.2796C16.1311 19.595 15.9378 19.9006 15.7284 20.1951C14.5743 20.7355 13.357 20.9994 12.0004 20.9994C10.6439 20.9994 9.43307 20.7355 8.27854 20.1955Z"
          fill="#1F1D25"/>
</svg>
