<svg width="24" height="24" viewBox="0 0 24 24" fill="none" xmlns="http://www.w3.org/2000/svg">
    <path d="M12.75 15.0217V9.48299L20.5603 5.93314C20.6915 5.8736 20.8028 5.77753 20.8808 5.65641C20.9589 5.53529 21.0004 5.39426 21.0004 5.25018C21.0004 5.10609 20.9589 4.96506 20.8808 4.84394C20.8028 4.72282 20.6915 4.62675 20.5603 4.56721L12.3103 0.817207C12.1961 0.765281 12.0706 0.742856 11.9454 0.751988C11.8203 0.761121 11.6994 0.801518 11.5939 0.869479C11.4884 0.93744 11.4016 1.03079 11.3415 1.14098C11.2814 1.25117 11.25 1.37467 11.25 1.50018V8.98424C11.25 8.99502 11.25 9.00627 11.25 9.01705V15.0217C11.5 15.0077 11.75 15.0005 12 15.0002C12.25 14.9999 12.5 15.0071 12.75 15.0217Z"
          fill="#1F1D25"/>
    <path d="M21.7184 21.4453C21.3172 19.4367 20.0727 17.7544 18.1194 16.5797C16.5959 15.6633 14.713 15.1125 12.7498 15V18.7383C12.7498 18.9372 12.6708 19.128 12.5302 19.2686C12.3895 19.4093 12.1988 19.4883 11.9998 19.4883C11.8009 19.4883 11.6102 19.4093 11.4695 19.2686C11.3289 19.128 11.2498 18.9372 11.2498 18.7383V15C9.28672 15.1125 7.40375 15.6633 5.88032 16.5797C3.92703 17.7544 2.6825 19.4367 2.28125 21.4453C2.23439 21.666 2.23716 21.8944 2.28937 22.114C2.34158 22.3335 2.44191 22.5387 2.58313 22.7147C2.86532 23.0625 3.2811 23.25 3.74985 23.25H20.2498C20.7186 23.25 21.1348 23.0602 21.417 22.7147C21.5582 22.5386 21.6584 22.3334 21.7105 22.1139C21.7627 21.8944 21.7654 21.666 21.7184 21.4453V21.4453Z"
          fill="#1F1D25"/>
</svg>
