<svg width="24" height="24" viewBox="0 0 24 24" fill="none" xmlns="http://www.w3.org/2000/svg">
    <path d="M13.1325 11.3806L11.9086 10.1563C11.6283 9.87586 11.2483 9.71786 10.8518 9.7168C10.4553 9.71575 10.0745 9.87173 9.79268 10.1506L1.28346 18.0036C0.973619 18.2956 0.770182 18.6678 0.751432 19.0846C0.742411 19.2912 0.776091 19.4975 0.850371 19.6906C0.92465 19.8837 1.03793 20.0594 1.18315 20.2067L3.01128 22.055C3.01225 22.0562 3.01335 22.0573 3.01456 22.0583C3.29706 22.3399 3.67929 22.4986 4.07815 22.4999H4.13346C4.55018 22.4844 4.92331 22.2889 5.21956 21.9763L13.1274 13.506C13.2676 13.3669 13.379 13.2016 13.4552 13.0194C13.5313 12.8373 13.5708 12.6418 13.5713 12.4444C13.5718 12.2469 13.5333 12.0513 13.458 11.8688C13.3827 11.6862 13.2721 11.5203 13.1325 11.3806V11.3806Z"
          fill="#1F1D25"/>
    <path d="M22.9686 8.90625L22.954 8.89172L21.3476 7.30172C21.2535 7.20794 21.1418 7.13372 21.0189 7.08335C20.8959 7.03299 20.7642 7.00747 20.6314 7.00828C20.4161 7.00848 20.2064 7.07637 20.0319 7.20235C20.0319 7.18219 20.0347 7.1625 20.0361 7.14516C20.0572 6.84047 20.09 6.38016 19.7923 5.96297C19.4384 5.48597 19.0499 5.03569 18.6298 4.61578C18.6287 4.61442 18.6274 4.61316 18.6261 4.61203C18.0017 3.99703 16.6428 2.83875 14.5611 1.98985C13.7716 1.66583 12.9263 1.49942 12.073 1.5C10.5936 1.5 9.46858 2.1675 9.0378 2.56313C8.79387 2.79611 8.57141 3.05057 8.37311 3.32344C8.27837 3.45421 8.22837 3.61206 8.23054 3.77352C8.2327 3.93499 8.28692 4.09144 8.38514 4.21962C8.48335 4.3478 8.62031 4.44085 8.77565 4.48495C8.93099 4.52905 9.09642 4.52183 9.24733 4.46438C9.37879 4.41523 9.5131 4.37406 9.64952 4.3411C9.93362 4.28101 10.225 4.26285 10.5144 4.28719C11.1326 4.33828 11.8639 4.64531 12.1873 4.90078C12.7358 5.34188 12.9997 5.93625 13.0433 6.82688C13.0517 7.00594 12.6814 7.67719 12.1058 8.44313C11.9961 8.58767 11.9426 8.76707 11.9551 8.94807C11.9676 9.12906 12.0453 9.2994 12.1737 9.4275L13.7867 11.0405C13.9222 11.1763 14.1047 11.2551 14.2965 11.2605C14.4884 11.2659 14.675 11.1975 14.818 11.0695C15.274 10.6622 15.9687 10.0481 16.2115 9.89766C16.572 9.67594 16.8298 9.63328 16.9006 9.62578C17.0843 9.60777 17.2691 9.64672 17.4298 9.73735C17.4306 9.74537 17.4298 9.75347 17.4272 9.76114C17.4247 9.76881 17.4207 9.77587 17.4153 9.78188L17.33 9.86297L17.3159 9.8761C17.2217 9.97001 17.1469 10.0816 17.096 10.2046C17.045 10.3275 17.0189 10.4593 17.0191 10.5924C17.0194 10.7254 17.0459 10.8571 17.0972 10.9799C17.1486 11.1027 17.2237 11.2141 17.3183 11.3077L18.9242 12.8972C19.0183 12.9909 19.1301 13.0651 19.253 13.1153C19.376 13.1656 19.5076 13.1911 19.6405 13.1902C19.9072 13.1906 20.1634 13.0862 20.3539 12.8995L22.9555 10.3298C22.9644 10.3209 22.9733 10.3116 22.9817 10.3022C23.1562 10.1109 23.2519 9.86059 23.2495 9.60164C23.247 9.34269 23.1467 9.09425 22.9686 8.90625V8.90625Z"
          fill="#1F1D25"/>
</svg>
