<svg width="24" height="24" viewBox="0 0 24 24" fill="none" xmlns="http://www.w3.org/2000/svg">
    <path d="M3.7125 9.91125C4.44 9.49781 5.34891 9.80437 5.74266 10.5525L7.68235 14.5092C7.7187 14.5841 7.78217 14.6424 7.85989 14.6723C7.93762 14.7021 8.02379 14.7013 8.10094 14.67V14.67C8.16207 14.6457 8.21446 14.6035 8.25133 14.549C8.28819 14.4945 8.30782 14.4302 8.30766 14.3644V3.375C8.30766 2.72297 8.91 2.25 9.5625 2.25C10.215 2.25 10.7813 2.72297 10.7813 3.375V10.7175C10.7797 10.8546 10.8316 10.987 10.9261 11.0864C11.0205 11.1858 11.15 11.2445 11.287 11.25C11.3556 11.2513 11.4237 11.2389 11.4874 11.2136C11.5511 11.1883 11.6091 11.1505 11.658 11.1025C11.7069 11.0545 11.7458 10.9972 11.7723 10.934C11.7989 10.8708 11.8125 10.8029 11.8125 10.7344V1.125C11.8125 0.472969 12.3253 0 12.9778 0C13.6303 0 14.1563 0.472969 14.1563 1.125V10.7175C14.1547 10.8546 14.2066 10.987 14.3011 11.0864C14.3955 11.1858 14.525 11.2445 14.662 11.25C14.7306 11.2513 14.7987 11.2389 14.8624 11.2136C14.9261 11.1883 14.9841 11.1505 15.033 11.1025C15.0819 11.0545 15.1208 10.9972 15.1473 10.934C15.1739 10.8708 15.1875 10.8029 15.1875 10.7344V2.625C15.1875 1.97297 15.7538 1.5 16.4063 1.5C17.0588 1.5 17.625 2.01984 17.625 2.67188V11.4675C17.6234 11.6046 17.6754 11.737 17.7698 11.8364C17.8643 11.9358 17.9938 11.9945 18.1308 12C18.1993 12.0013 18.2674 11.9889 18.3311 11.9636C18.3948 11.9383 18.4528 11.9005 18.5018 11.8525C18.5507 11.8045 18.5896 11.7472 18.6161 11.684C18.6426 11.6208 18.6563 11.5529 18.6563 11.4844V5.625C18.6563 4.97297 19.1756 4.5 19.8281 4.5C20.4806 4.5 21.0056 4.97906 21 5.625V15.75C21 21.2536 17.625 24 13.5 24H12.75C8.625 24 7.3261 22.1438 6.375 19.875L3.1561 11.9531C2.84391 11.1094 2.98547 10.3242 3.7125 9.91125Z"
          fill="#1F1D25"/>
</svg>
