<svg width="24" height="24" viewBox="0 0 24 24" fill="none" xmlns="http://www.w3.org/2000/svg">
    <path d="M16.5427 3C14.2884 3 12.7927 4.38469 11.9995 5.39062C11.2083 4.38328 9.71064 3 7.45642 3C4.61486 3 2.27907 5.36906 2.24954 8.28047C2.22423 10.8216 3.12282 13.1681 4.99689 15.4523C5.87673 16.5248 7.47189 18.2395 11.1558 20.7403C11.4042 20.9106 11.6984 21.0017 11.9995 21.0017C12.3007 21.0017 12.5949 20.9106 12.8433 20.7403C16.5272 18.2395 18.1224 16.5248 19.0022 15.4523C20.8772 13.1677 21.7749 10.8211 21.7495 8.28047C21.72 5.36906 19.3842 3 16.5427 3ZM11.9995 19.5V9.73031C11.9995 8.81016 12.2447 7.91344 12.6656 7.095C12.6667 7.09241 12.668 7.0899 12.6694 7.0875C12.9424 6.59456 13.2862 6.1443 13.6899 5.75109C14.5397 4.92188 15.4992 4.5 16.5427 4.5C18.5653 4.5 20.228 6.2025 20.2491 8.29688C20.2964 13.2005 16.1072 16.7114 11.9995 19.5Z"
          fill="#1F1D25"/>
</svg>
