<svg width="24" height="24" viewBox="0 0 24 24" fill="none" xmlns="http://www.w3.org/2000/svg">
    <path d="M19.5863 21.0001C19.4875 21.0001 19.3895 20.9806 19.2982 20.9426C19.2069 20.9046 19.124 20.849 19.0543 20.7788L1.90556 3.52884C1.76532 3.38774 1.68689 3.1967 1.6875 2.99777C1.68812 2.79883 1.76774 2.60829 1.90884 2.46806C2.04994 2.32782 2.24097 2.24939 2.43991 2.25C2.63884 2.25062 2.82939 2.33024 2.96962 2.47134L20.1179 19.7213C20.2223 19.8264 20.2933 19.96 20.3219 20.1053C20.3505 20.2507 20.3354 20.4012 20.2785 20.538C20.2217 20.6747 20.1256 20.7916 20.0024 20.8739C19.8792 20.9561 19.7345 21 19.5863 21.0001Z"
          fill="#1F1D25"/>
    <path d="M17.1058 3.75C15.0391 3.75 13.6084 4.91344 12.775 5.88281C12.7486 5.91321 12.716 5.93759 12.6793 5.95429C12.6427 5.971 12.6029 5.97964 12.5627 5.97964C12.5224 5.97964 12.4826 5.971 12.446 5.95429C12.4093 5.93759 12.3767 5.91321 12.3503 5.88281C11.5169 4.91344 10.0858 3.75 8.01953 3.75C7.52737 3.74974 7.03782 3.82143 6.56641 3.96281L19.1819 16.6519C19.3225 16.4906 19.4491 16.3406 19.5634 16.2019C21.4384 13.9167 22.3361 11.5711 22.3108 9.03C22.2831 6.11859 19.9473 3.75 17.1058 3.75Z"
          fill="#1F1D25"/>
    <path d="M3.23392 6.99121C2.96224 7.6369 2.81894 8.32932 2.81204 9.0298C2.78673 11.5709 3.68532 13.9165 5.55939 16.2017C6.43923 17.2737 8.03439 18.9884 11.7183 21.4892C11.9668 21.6592 12.2609 21.7502 12.562 21.7502C12.8632 21.7502 13.1573 21.6592 13.4058 21.4892C14.3597 20.8414 15.173 20.247 15.8705 19.7023L3.23392 6.99121Z"
          fill="#1F1D25"/>
</svg>
