<svg width="24" height="24" viewBox="0 0 24 24" fill="none" xmlns="http://www.w3.org/2000/svg">
    <path d="M19.4249 4.57491C18.4517 3.59201 17.2938 2.81111 16.0178 2.27706C14.7419 1.743 13.3729 1.46633 11.9897 1.46292C10.6065 1.45952 9.23622 1.72945 7.95763 2.25722C6.67904 2.78498 5.51734 3.56018 4.53925 4.53827C3.56116 5.51636 2.78596 6.67807 2.25819 7.95666C1.73043 9.23524 1.46049 10.6055 1.4639 11.9887C1.4673 13.372 1.74398 14.7409 2.27803 16.0169C2.81209 17.2928 3.59299 18.4507 4.57588 19.424C5.54915 20.4069 6.70703 21.1878 7.983 21.7218C9.25897 22.2559 10.6279 22.5325 12.0111 22.536C13.3943 22.5394 14.7646 22.2694 16.0432 21.7417C17.3218 21.2139 18.4835 20.4387 19.4616 19.4606C20.4397 18.4825 21.2149 17.3208 21.7426 16.0422C22.2704 14.7636 22.5403 13.3934 22.5369 12.0101C22.5335 10.6269 22.2569 9.258 21.7228 7.98202C21.1887 6.70605 20.4078 5.54817 19.4249 4.57491V4.57491ZM9.00651 12.1954C8.96673 11.5866 9.11346 10.9803 9.42715 10.4571C9.74085 9.93386 10.2066 9.51873 10.7623 9.26702C11.3179 9.01531 11.9371 8.93898 12.5373 9.04822C13.1375 9.15745 13.6901 9.44705 14.1214 9.87841C14.5528 10.3098 14.8424 10.8624 14.9516 11.4625C15.0609 12.0627 14.9845 12.6819 14.7328 13.2376C14.4811 13.7933 14.066 14.259 13.5428 14.5727C13.0196 14.8864 12.4132 15.0331 11.8045 14.9933C11.0782 14.9452 10.3942 14.6349 9.87957 14.1203C9.36492 13.6056 9.05467 12.9216 9.00651 12.1954V12.1954ZM20.2565 9.07163L15.7392 9.34538C15.7083 9.347 15.6774 9.34107 15.6493 9.32808C15.6212 9.31509 15.5967 9.29544 15.5779 9.27084C15.3346 8.95201 15.0497 8.66715 14.7309 8.42381C14.7063 8.40502 14.6866 8.38052 14.6737 8.35242C14.6607 8.32432 14.6547 8.29348 14.6564 8.26256L14.9301 3.74522C14.9318 3.71578 14.9404 3.68714 14.9552 3.66165C14.97 3.63615 14.9906 3.61451 15.0154 3.59848C15.0401 3.58245 15.0683 3.57248 15.0976 3.56939C15.127 3.5663 15.1566 3.57017 15.1842 3.58069C16.3768 4.03498 17.4597 4.73644 18.362 5.639C19.2642 6.54157 19.9653 7.62481 20.4192 8.81756C20.4297 8.84511 20.4336 8.87476 20.4305 8.90408C20.4274 8.93341 20.4174 8.96159 20.4014 8.98635C20.3853 9.0111 20.3637 9.03172 20.3382 9.04654C20.3127 9.06136 20.2841 9.06995 20.2546 9.07163H20.2565ZM9.0726 3.74522L9.34635 8.26256C9.34798 8.29348 9.34204 8.32432 9.32905 8.35242C9.31607 8.38052 9.29642 8.40502 9.27182 8.42381C8.95299 8.66715 8.66812 8.95201 8.42479 9.27084C8.406 9.29544 8.38149 9.31509 8.35339 9.32808C8.3253 9.34107 8.29445 9.347 8.26354 9.34538L3.7462 9.07163C3.71675 9.06995 3.68812 9.06136 3.66262 9.04654C3.63713 9.03172 3.61549 9.0111 3.59946 8.98635C3.58343 8.96159 3.57346 8.93341 3.57037 8.90408C3.56728 8.87476 3.57115 8.84511 3.58166 8.81756C4.03573 7.62462 4.73709 6.54127 5.63967 5.63869C6.54224 4.73612 7.6256 4.03475 8.81854 3.58069C8.84609 3.57017 8.87573 3.5663 8.90506 3.56939C8.93439 3.57248 8.96257 3.58245 8.98732 3.59848C9.01208 3.61451 9.0327 3.63615 9.04752 3.66165C9.06233 3.68714 9.07093 3.71578 9.0726 3.74522ZM3.7462 14.9273L8.26354 14.6535C8.29445 14.6519 8.3253 14.6578 8.35339 14.6708C8.38149 14.6838 8.406 14.7034 8.42479 14.728C8.66812 15.0469 8.95299 15.3317 9.27182 15.5751C9.29642 15.5939 9.31607 15.6184 9.32905 15.6465C9.34204 15.6746 9.34798 15.7054 9.34635 15.7363L9.0726 20.2537C9.07093 20.2831 9.06233 20.3117 9.04752 20.3372C9.0327 20.3627 9.01208 20.3844 8.98732 20.4004C8.96257 20.4164 8.93439 20.4264 8.90506 20.4295C8.87573 20.4326 8.84609 20.4287 8.81854 20.4182C7.6256 19.9641 6.54224 19.2628 5.63967 18.3602C4.73709 17.4576 4.03573 16.3743 3.58166 15.1813C3.57115 15.1538 3.56728 15.1241 3.57037 15.0948C3.57346 15.0655 3.58343 15.0373 3.59946 15.0125C3.61549 14.9878 3.63713 14.9672 3.66262 14.9523C3.68812 14.9375 3.71675 14.9289 3.7462 14.9273ZM14.9282 20.2537L14.6545 15.7363C14.6528 15.7054 14.6588 15.6746 14.6718 15.6465C14.6848 15.6184 14.7044 15.5939 14.729 15.5751C15.0478 15.3317 15.3327 15.0469 15.576 14.728C15.5948 14.7034 15.6193 14.6838 15.6474 14.6708C15.6755 14.6578 15.7064 14.6519 15.7373 14.6535L20.2546 14.9273C20.2841 14.9289 20.3127 14.9375 20.3382 14.9523C20.3637 14.9672 20.3853 14.9878 20.4014 15.0125C20.4174 15.0373 20.4274 15.0655 20.4305 15.0948C20.4336 15.1241 20.4297 15.1538 20.4192 15.1813C19.9651 16.3743 19.2637 17.4576 18.3612 18.3602C17.4586 19.2628 16.3752 19.9641 15.1823 20.4182C15.1547 20.4287 15.1251 20.4326 15.0958 20.4295C15.0664 20.4264 15.0383 20.4164 15.0135 20.4004C14.9888 20.3844 14.9681 20.3627 14.9533 20.3372C14.9385 20.3117 14.9299 20.2831 14.9282 20.2537Z"
          fill="#1F1D25"/>
</svg>
