<svg width="24" height="24" viewBox="0 0 24 24" fill="none" xmlns="http://www.w3.org/2000/svg">
    <path d="M7.5 7.68708C7.5 7.68708 7.5675 6.1402 9.07219 4.89989C9.96562 4.16348 11.0386 3.9502 12 3.93707C12.878 3.92629 13.6627 4.07489 14.1319 4.30364C14.9339 4.69645 16.5 5.6527 16.5 7.68708C16.5 9.82786 15.1322 10.7982 13.5773 11.8674C12.0225 12.9366 11.625 13.9852 11.625 15.1871"
          stroke="#1F1D25" strokeWidth="2" stroke-miterlimit="10" strokeLinecap="round"/>
    <path d="M11.625 20.249C12.4534 20.249 13.125 19.5775 13.125 18.749C13.125 17.9206 12.4534 17.249 11.625 17.249C10.7966 17.249 10.125 17.9206 10.125 18.749C10.125 19.5775 10.7966 20.249 11.625 20.249Z"
          fill="#1F1D25"/>
</svg>
