<svg width="24" height="24" viewBox="0 0 24 24" fill="none" xmlns="http://www.w3.org/2000/svg">
    <path d="M19.4856 20.0217C19.0759 16.4175 17.431 14.9236 16.2296 13.8342C15.399 13.0781 14.9996 12.6849 14.9996 12C14.9996 11.3245 15.3976 10.9388 16.2259 10.1981C17.4414 9.11204 19.1059 7.62423 19.4865 3.97126C19.5169 3.66436 19.4826 3.35449 19.3857 3.0617C19.2888 2.76892 19.1315 2.49973 18.924 2.27157C18.7024 2.02788 18.4322 1.83331 18.1308 1.70042C17.8294 1.56753 17.5035 1.49926 17.1742 1.50001H6.8251C6.49526 1.49898 6.16887 1.56711 5.86698 1.70001C5.5651 1.83291 5.29443 2.02762 5.07244 2.27157C4.86556 2.50005 4.70887 2.76935 4.61247 3.0621C4.51607 3.35486 4.4821 3.66457 4.51276 3.97126C4.89197 7.61251 6.55041 9.08954 7.76119 10.1677C8.59744 10.9125 8.99963 11.3011 8.99963 12C8.99963 12.7078 8.59651 13.1044 7.75744 13.8633C6.56213 14.9461 4.92151 16.4288 4.51369 20.0217C4.48058 20.3272 4.51231 20.6363 4.60682 20.9287C4.70133 21.2211 4.85648 21.4903 5.06213 21.7186C5.28459 21.9654 5.55656 22.1626 5.86033 22.2972C6.1641 22.4318 6.49283 22.501 6.8251 22.5H17.1742C17.5064 22.501 17.8352 22.4318 18.1389 22.2972C18.4427 22.1626 18.7147 21.9654 18.9371 21.7186C19.1428 21.4903 19.2979 21.2211 19.3924 20.9287C19.4869 20.6363 19.5187 20.3272 19.4856 20.0217V20.0217ZM16.0918 20.25H7.9276C7.19635 20.25 6.9901 19.4063 7.50291 18.8831C8.74416 17.625 11.2496 16.7241 11.2496 15.2813V10.5C11.2496 9.56954 9.46838 8.85939 8.36635 7.35001C8.18447 7.10111 8.20276 6.75001 8.66494 6.75001H15.3554C15.7496 6.75001 15.8345 7.09829 15.6554 7.34767C14.5693 8.85939 12.7496 9.56486 12.7496 10.5V15.2813C12.7496 16.7124 15.361 17.4844 16.5184 18.8845C16.9848 19.4489 16.8217 20.25 16.0918 20.25Z"
          fill="#1F1D25"/>
</svg>
