<svg width="24" height="24" viewBox="0 0 24 24" fill="none" xmlns="http://www.w3.org/2000/svg">
    <path d="M8.57812 16.4995C7.55437 16.4752 6.75 15.6136 6.75 14.5898V12.9928C6.74994 12.9097 6.72228 12.829 6.67138 12.7633C6.62047 12.6977 6.5492 12.6508 6.46875 12.63C4.88672 12.2152 3.75 10.7686 3.75 8.99953C3.75122 8.11686 4.06321 7.26282 4.63124 6.58721C5.19927 5.91161 5.98706 5.4576 6.85641 5.30484C6.93558 5.29171 7.00845 5.25352 7.06431 5.19589C7.12017 5.13826 7.15606 5.06423 7.16672 4.98468C7.32111 3.81211 7.89652 2.73564 8.78573 1.95584C9.67493 1.17604 10.8173 0.746094 12 0.746094C13.1827 0.746094 14.3251 1.17604 15.2143 1.95584C16.1035 2.73564 16.6789 3.81211 16.8333 4.98468C16.8439 5.06423 16.8798 5.13826 16.9357 5.19589C16.9915 5.25352 17.0644 5.29171 17.1436 5.30484C18.0687 5.46552 18.8999 5.96742 19.4729 6.71133C20.0458 7.45524 20.3188 8.38703 20.238 9.32251C20.1571 10.258 19.7282 11.1291 19.0361 11.7637C18.344 12.3982 17.439 12.75 16.5 12.7495C15.686 12.7457 14.8991 12.4569 14.2758 11.9334C14.2106 11.8796 14.129 11.8497 14.0444 11.8485C13.9599 11.8473 13.8775 11.8749 13.8108 11.9269C13.2949 12.3346 12.6575 12.5582 12 12.562C11.6542 12.5594 11.3103 12.5093 10.9781 12.413C10.9223 12.397 10.8636 12.3942 10.8065 12.4048C10.7494 12.4154 10.6956 12.4391 10.6492 12.4741C10.6029 12.509 10.5653 12.5542 10.5394 12.6062C10.5135 12.6581 10.5 12.7154 10.5 12.7734V14.6245C10.5001 14.8748 10.4501 15.1225 10.3529 15.3531C10.2558 15.5837 10.1135 15.7925 9.93436 15.9672C9.75525 16.1419 9.54298 16.2791 9.31006 16.3705C9.07714 16.4619 8.82827 16.5058 8.57812 16.4995V16.4995Z"
          fill="#1F1D25"/>
    <path d="M12.3465 14.0491C12.2528 14.0563 12.1652 14.0983 12.101 14.167C12.0369 14.2357 12.0008 14.3259 12 14.4199V14.6257C11.9991 15.346 11.7681 16.0472 11.3406 16.6269C10.9132 17.2067 10.3118 17.6348 9.62395 17.8488C9.57415 17.8647 9.52824 17.8909 9.48915 17.9257C9.45007 17.9604 9.41869 18.0029 9.39701 18.0505C9.37534 18.0981 9.36386 18.1497 9.3633 18.202C9.36275 18.2542 9.37313 18.3061 9.39379 18.3541L11.3115 22.7979C11.3695 22.9323 11.4656 23.0469 11.588 23.1273C11.7103 23.2078 11.8536 23.2507 12 23.2507C12.1467 23.2505 12.2901 23.2073 12.4125 23.1265C12.5349 23.0457 12.6309 22.9308 12.6886 22.796L16.1471 14.7264C16.1697 14.6736 16.18 14.6163 16.1769 14.5589C16.1739 14.5015 16.1577 14.4455 16.1296 14.3954C16.1015 14.3452 16.0623 14.3022 16.0149 14.2696C15.9676 14.2371 15.9133 14.2158 15.8565 14.2075C15.2676 14.1282 14.6977 13.9442 14.1736 13.6643C14.1225 13.637 14.0656 13.6219 14.0076 13.6203C13.9496 13.6186 13.8921 13.6305 13.8394 13.6549C13.3685 13.8722 12.8633 14.0056 12.3465 14.0491V14.0491Z"
          fill="#1F1D25"/>
</svg>
