<svg width="24" height="24" viewBox="0 0 24 24" fill="none" xmlns="http://www.w3.org/2000/svg">
    <path d="M9.1875 10.3125H12.1875V18.375" stroke="#1F1D25" strokeWidth="2" strokeLinecap="round"
          strokeLinejoin="round"/>
    <path d="M8.76562 18.5625H15.2344" stroke="#1F1D25" strokeWidth="2" stroke-miterlimit="10" strokeLinecap="round"/>
    <path d="M12 7.5C11.7033 7.5 11.4133 7.41203 11.1666 7.24721C10.92 7.08238 10.7277 6.84812 10.6142 6.57403C10.5006 6.29994 10.4709 5.99834 10.5288 5.70737C10.5867 5.41639 10.7296 5.14912 10.9393 4.93934C11.1491 4.72956 11.4164 4.5867 11.7074 4.52882C11.9983 4.47094 12.2999 4.50065 12.574 4.61418C12.8481 4.72771 13.0824 4.91997 13.2472 5.16665C13.412 5.41332 13.5 5.70333 13.5 6C13.5 6.39783 13.342 6.77936 13.0607 7.06066C12.7794 7.34197 12.3978 7.5 12 7.5V7.5Z"
          fill="#1F1D25"/>
</svg>
