<svg width="24" height="24" viewBox="0 0 24 24" fill="none" xmlns="http://www.w3.org/2000/svg">
    <path d="M22.4219 20.3213L18.2032 10.1025C18.1253 9.91383 17.9931 9.75249 17.8234 9.63897C17.6537 9.52545 17.4541 9.46484 17.25 9.46484C17.0458 9.46484 16.8463 9.52545 16.6766 9.63897C16.5069 9.75249 16.3747 9.91383 16.2968 10.1025L12.078 20.3213C12.0256 20.4466 11.9984 20.5811 11.9981 20.7169C11.9977 20.8528 12.0242 20.9873 12.076 21.1129C12.1279 21.2385 12.204 21.3526 12.3001 21.4487C12.3961 21.5447 12.5102 21.6209 12.6358 21.6727C12.7613 21.7246 12.8959 21.7511 13.0318 21.7508C13.1676 21.7504 13.3021 21.7233 13.4274 21.6708C13.5527 21.6184 13.6665 21.5417 13.762 21.4451C13.8576 21.3486 13.9332 21.2342 13.9844 21.1083L14.8437 19.0275H19.6563L20.5155 21.1083C20.5934 21.2971 20.7256 21.4585 20.8954 21.5721C21.0651 21.6857 21.2647 21.7463 21.469 21.7463C21.6384 21.7462 21.8052 21.7043 21.9547 21.6244C22.1041 21.5445 22.2315 21.429 22.3257 21.2881C22.4199 21.1472 22.4779 20.9853 22.4946 20.8167C22.5113 20.6481 22.4862 20.4779 22.4215 20.3213H22.4219ZM15.6954 16.965L17.2502 13.1986L18.8051 16.965H15.6954Z"
          fill="#1F1D25"/>
    <path d="M12.555 16.0744C12.7152 15.8531 12.7811 15.5772 12.7381 15.3074C12.6951 15.0376 12.5468 14.7959 12.3258 14.6353C12.3164 14.6283 11.6227 14.1136 10.6153 13.0073C12.4739 10.4911 13.5267 7.62844 13.9561 6.28125H15.4688C15.7423 6.28125 16.0046 6.1726 16.198 5.9792C16.3914 5.78581 16.5 5.5235 16.5 5.25C16.5 4.9765 16.3914 4.71419 16.198 4.5208C16.0046 4.3274 15.7423 4.21875 15.4688 4.21875H10.0312V3.28125C10.0313 3.00775 9.9226 2.74544 9.7292 2.55205C9.53581 2.35865 9.2735 2.25 9 2.25C8.7265 2.25 8.46419 2.35865 8.2708 2.55205C8.0774 2.74544 7.96875 3.00775 7.96875 3.28125V4.21875H2.53125C2.25775 4.21875 1.99544 4.3274 1.80205 4.5208C1.60865 4.71419 1.5 4.9765 1.5 5.25C1.5 5.5235 1.60865 5.78581 1.80205 5.9792C1.99544 6.1726 2.25775 6.28125 2.53125 6.28125H11.7773C11.3311 7.54453 10.5094 9.53906 9.25594 11.3606C7.78359 9.40688 7.23656 8.14266 7.23234 8.13234C7.12456 7.88324 6.92291 7.68668 6.67114 7.58529C6.41937 7.4839 6.13778 7.48585 5.88743 7.59072C5.63709 7.6956 5.43819 7.89494 5.33387 8.14551C5.22954 8.39608 5.22821 8.67767 5.33016 8.92922C5.35734 8.99391 6.01219 10.5338 7.80797 12.8634C7.85109 12.9192 7.89375 12.9736 7.93641 13.028C6.09703 15.1069 4.29234 16.3964 3.53719 16.8127C3.29706 16.9436 3.1188 17.1646 3.04162 17.427C2.96444 17.6894 2.99465 17.9717 3.12563 18.2119C3.2566 18.452 3.47759 18.6303 3.74 18.7074C4.0024 18.7846 4.28472 18.7544 4.52484 18.6234C4.62609 18.5681 6.80297 17.363 9.28875 14.6114C10.3444 15.7402 11.07 16.2727 11.1136 16.3036C11.2233 16.3833 11.3476 16.4405 11.4794 16.4721C11.6113 16.5037 11.748 16.509 11.8819 16.4876C12.0158 16.4663 12.1442 16.4188 12.2597 16.3478C12.3751 16.2768 12.4755 16.1837 12.555 16.0739V16.0744Z"
          fill="#1F1D25"/>
</svg>
