<svg width="24" height="24" viewBox="0 0 24 24" fill="none" xmlns="http://www.w3.org/2000/svg">
    <path d="M7.56374 11.3433C7.63126 11.2716 7.71225 11.2138 7.80208 11.1734C7.89191 11.133 7.98883 11.1107 8.08729 11.1077C8.18575 11.1048 8.28384 11.1212 8.37593 11.1562C8.46803 11.1911 8.55234 11.2439 8.62405 11.3114C12.0755 14.5627 15.5386 16.5408 19.6139 17.5491C20.1637 16.0491 20.2125 14.3981 19.7376 12.7875C19.1076 10.6505 17.6405 8.7886 15.4959 7.40345C13.5816 6.16688 11.6681 5.84485 9.81702 5.5336C7.48171 5.14079 5.27577 4.76954 3.17061 2.54063C2.93624 2.29407 2.61702 2.19516 2.31186 2.27532C1.96311 2.36907 1.72921 2.6447 1.61718 3.10032C1.35468 4.16673 1.52343 7.15548 2.26171 10.3106C3.44718 15.3797 5.33905 17.9447 6.71764 19.2042C8.49889 20.8303 10.8248 21.7308 13.1362 21.7308C13.5719 21.7315 14.007 21.6995 14.438 21.6352C16.3931 21.3389 18.0206 20.3569 18.938 18.9281C14.7431 17.8369 11.1595 15.7617 7.59421 12.405C7.52237 12.3374 7.46458 12.2562 7.42416 12.1662C7.38374 12.0762 7.36147 11.9791 7.35864 11.8805C7.35581 11.7818 7.37247 11.6836 7.40767 11.5914C7.44286 11.4993 7.4959 11.4149 7.56374 11.3433V11.3433Z"
          fill="#1F1D25"/>
    <path d="M21.9103 18.0068C21.1214 17.8854 20.3573 17.733 19.6134 17.5488C19.4605 17.9664 19.2702 18.3692 19.0448 18.7526C19.0106 18.8112 18.9745 18.8693 18.9375 18.9265C19.8423 19.1607 20.7585 19.3485 21.6825 19.489C21.7808 19.5063 21.8816 19.5037 21.9789 19.4816C22.0763 19.4594 22.1682 19.418 22.2493 19.3598C22.3305 19.3017 22.3992 19.2279 22.4514 19.1428C22.5037 19.0578 22.5384 18.9631 22.5536 18.8645C22.5688 18.7658 22.5641 18.6651 22.5399 18.5683C22.5157 18.4714 22.4723 18.3804 22.4125 18.3005C22.3526 18.2206 22.2774 18.1535 22.1912 18.1031C22.1051 18.0526 22.0097 18.0199 21.9108 18.0068H21.9103Z"
          fill="#1F1D25"/>
</svg>
