<svg width="24" height="24" viewBox="0 0 24 24" fill="none" xmlns="http://www.w3.org/2000/svg">
    <path d="M9.40594 16.5H6.75C5.55653 16.5 4.41193 16.0259 3.56802 15.182C2.72411 14.3381 2.25 13.1935 2.25 12C2.25 10.8065 2.72411 9.66193 3.56802 8.81802C4.41193 7.97411 5.55653 7.5 6.75 7.5H9.34734"
          stroke="#1F1D25" strokeWidth="2" strokeLinecap="round" strokeLinejoin="round"/>
    <path d="M14.6523 7.5H17.2497C18.4432 7.5 19.5878 7.97411 20.4317 8.81802C21.2756 9.66193 21.7497 10.8065 21.7497 12C21.7497 13.1935 21.2756 14.3381 20.4317 15.182C19.5878 16.0259 18.4432 16.5 17.2497 16.5H14.5938"
          stroke="#1F1D25" strokeWidth="2" strokeLinecap="round" strokeLinejoin="round"/>
    <path d="M7.9248 12H16.1682" stroke="#1F1D25" strokeWidth="2" strokeLinecap="round" strokeLinejoin="round"/>
</svg>
