<svg width="24" height="24" viewBox="0 0 24 24" fill="none" xmlns="http://www.w3.org/2000/svg">
    <path fillRule="evenodd" clipRule="evenodd"
          d="M22.08 12.2387C22.08 11.4941 22.0132 10.7782 21.8891 10.0909H12V14.1525H17.6509C17.4075 15.465 16.6677 16.5771 15.5557 17.3216V19.9562H18.9491C20.9345 18.1282 22.08 15.4364 22.08 12.2387Z"
          fill="#4285F4"/>
    <path fillRule="evenodd" clipRule="evenodd"
          d="M11.9999 22.5C14.8349 22.5 17.2117 21.5598 18.949 19.9561L15.5556 17.3216C14.6153 17.9516 13.4126 18.3239 11.9999 18.3239C9.26511 18.3239 6.95034 16.4768 6.12465 13.995H2.6167V16.7155C4.34443 20.147 7.89534 22.5 11.9999 22.5Z"
          fill="#34A853"/>
    <path fillRule="evenodd" clipRule="evenodd"
          d="M6.12477 13.995C5.91477 13.365 5.79545 12.692 5.79545 12C5.79545 11.308 5.91477 10.635 6.12477 10.005V7.28455H2.61682C1.90568 8.70205 1.5 10.3057 1.5 12C1.5 13.6943 1.90568 15.298 2.61682 16.7155L6.12477 13.995Z"
          fill="#FBBC05"/>
    <path fillRule="evenodd" clipRule="evenodd"
          d="M11.9999 5.67614C13.5415 5.67614 14.9256 6.20591 16.0137 7.24636L19.0253 4.23477C17.2069 2.54045 14.8301 1.5 11.9999 1.5C7.89534 1.5 4.34443 3.85295 2.6167 7.28455L6.12465 10.005C6.95034 7.52318 9.26511 5.67614 11.9999 5.67614Z"
          fill="#EA4335"/>
</svg>
