<svg width="24" height="24" viewBox="0 0 24 24" fill="none" xmlns="http://www.w3.org/2000/svg">
    <path d="M2.2726 17.7553C4.14438 19.953 6.64615 21.5225 9.43932 22.2516C11.9518 22.7666 14.5625 22.4839 16.9065 21.443C18.0755 20.9052 19.1365 20.1586 20.0373 19.2398C20.0759 19.1739 20.0877 19.0956 20.0702 19.0212C20.0528 18.9468 20.0074 18.8819 19.9435 18.84C19.8227 18.7954 19.69 18.7946 19.5685 18.8377C17.8529 19.729 16.0102 20.351 14.1053 20.6817C12.1076 20.902 10.0866 20.7618 8.13854 20.2678C6.14601 19.6078 4.26404 18.652 2.55573 17.4323C2.51218 17.4182 2.46544 17.4171 2.42129 17.4293C2.37714 17.4414 2.33751 17.4662 2.3073 17.5006C2.27708 17.535 2.25761 17.5775 2.25128 17.6229C2.24494 17.6682 2.25203 17.7144 2.27167 17.7558L2.2726 17.7553Z"
          fill="#1F1D25"/>
    <path d="M18.1474 18.2072C18.9028 18.0605 19.6757 18.0253 20.4414 18.1026L20.4728 18.1087C20.5935 18.138 20.6976 18.2138 20.7623 18.3197C20.8271 18.4256 20.8472 18.5529 20.8183 18.6736C20.6683 19.4191 20.4302 20.1442 20.1091 20.8336C20.0998 20.8637 20.1028 20.8962 20.1173 20.9241C20.1319 20.952 20.1569 20.973 20.1869 20.9826C20.2045 20.9881 20.2231 20.9894 20.2412 20.9864C20.2594 20.9834 20.2766 20.9762 20.2914 20.9653C20.7435 20.6019 21.1089 20.1423 21.3612 19.6199C21.6134 19.0976 21.7462 18.5256 21.7497 17.9456C21.761 17.8013 21.7183 17.6579 21.6297 17.5434C21.5412 17.4288 21.4132 17.3513 21.2706 17.3259C20.1481 17.1325 18.994 17.3732 18.0424 17.999C18.0168 18.0176 17.9997 18.0456 17.9947 18.0767C17.9897 18.1079 17.9972 18.1398 18.0156 18.1655C18.0304 18.1854 18.0511 18.2001 18.0748 18.2076C18.0984 18.2151 18.1238 18.2149 18.1474 18.2072Z"
          fill="#1F1D25"/>
    <path d="M14.2608 15.2276C13.857 15.6747 13.402 16.0727 12.9052 16.4136C11.9574 16.9736 10.8799 17.277 9.77912 17.2939C8.80573 17.2726 7.86341 16.9472 7.08427 16.3634C6.44773 15.7814 5.98933 15.0309 5.76231 14.1988C5.5353 13.3667 5.54898 12.4874 5.80177 11.6628C6.04441 10.9323 6.44422 10.2639 6.97307 9.70456C7.50191 9.14526 8.14693 8.70869 8.86271 8.42558C10.4549 7.94717 12.108 7.70166 13.7705 7.69668V5.95011C13.7164 5.56405 13.5365 5.20658 13.2588 4.93305C12.981 4.65951 12.6208 4.48517 12.234 4.43699C11.7386 4.36952 11.2342 4.43555 10.7729 4.62824C10.4486 4.78082 10.1646 5.00733 9.94374 5.28958C9.72288 5.57182 9.57129 5.90193 9.50115 6.25339C9.44948 6.36207 9.36432 6.45131 9.25818 6.50801C9.15204 6.5647 9.03052 6.58587 8.91146 6.56839L6.52552 6.35746C6.41876 6.32859 6.3236 6.26725 6.25322 6.18193C6.18285 6.09661 6.14074 5.99152 6.13271 5.88121C6.3237 4.71398 6.93386 3.6565 7.84881 2.90699C9.06016 1.96933 10.5547 1.47205 12.0863 1.49699C13.5055 1.50997 14.8858 1.96317 16.0365 2.79402C16.5122 3.19598 16.8893 3.70176 17.1388 4.27242C17.3883 4.84308 17.5035 5.46339 17.4755 6.08558V12.1282C17.5051 12.6366 17.6324 13.1344 17.8505 13.5945L18.5944 14.6834C18.6338 14.7656 18.6542 14.8555 18.6542 14.9466C18.6542 15.0377 18.6338 15.1276 18.5944 15.2098L16.3918 17.0712C16.2999 17.1211 16.1963 17.1455 16.0918 17.1419C15.9873 17.1383 15.8856 17.1067 15.7974 17.0506C15.2233 16.4979 14.7083 15.887 14.2608 15.2276V15.2276ZM13.764 9.75121C13.0739 9.73735 12.3838 9.78267 11.7015 9.88668C11.2892 9.97928 10.9017 10.1593 10.5649 10.4145C10.2282 10.6697 9.95017 10.9942 9.74959 11.3661C9.58412 11.7722 9.51119 12.2101 9.53608 12.6479C9.56097 13.0857 9.68306 13.5125 9.89349 13.8973C10.1504 14.2183 10.5045 14.4475 10.9025 14.5505C11.3006 14.6535 11.7214 14.6248 12.1018 14.4687C12.5509 14.1807 12.9322 13.7986 13.2192 13.3487C13.5062 12.8989 13.6921 12.3921 13.764 11.8634V9.75121"
          fill="#1F1D25"/>
</svg>
