<svg width="24" height="24" viewBox="0 0 24 24" fill="none" xmlns="http://www.w3.org/2000/svg">
    <path d="M5.94371 11.6392C7.80464 8.89229 9.59527 7.28916 9.59527 7.28916C9.59527 7.28916 7.62183 4.99697 5.24527 4.12978L5.09058 4.09229C3.09175 5.84003 1.8288 8.27978 1.55573 10.9209C1.28267 13.562 2.01974 16.2085 3.61871 18.3282C3.61871 18.122 3.64683 15.0329 5.94371 11.6392Z"
          fill="#1F1D25"/>
    <path d="M22.4996 12.0001C22.5007 10.502 22.1808 9.02107 21.5614 7.657C20.9421 6.29294 20.0376 5.07742 18.909 4.09229L18.759 4.13447C16.3824 5.00166 14.4043 7.29385 14.4043 7.29385C14.4043 7.29385 16.1949 8.89697 18.0559 11.6438C20.3527 15.0376 20.3809 18.1267 20.3762 18.3329C21.7581 16.5113 22.5041 14.2866 22.4996 12.0001Z"
          fill="#1F1D25"/>
    <path d="M9.43145 3.79219C10.8049 4.40626 11.9908 5.41407 11.9908 5.41407C11.9908 5.41407 13.1861 4.41094 14.5596 3.79219C16.2846 3.01876 17.6018 3.26251 17.9486 3.34688C16.1982 2.14395 14.1241 1.5 12.0002 1.5C9.87625 1.5 7.80221 2.14395 6.05176 3.34688C6.38926 3.26251 7.70176 3.01407 9.43145 3.79219Z"
          fill="#1F1D25"/>
    <path d="M16.8145 13.7297C14.6441 11.0625 11.991 9.32812 11.991 9.32812C11.991 9.32812 9.35195 11.0625 7.17695 13.7297C5.31133 16.0219 4.61758 17.7047 4.24258 18.7828L4.18164 19.0078C5.16643 20.1065 6.37171 20.9853 7.71891 21.5869C9.0661 22.1885 10.525 22.4994 12.0004 22.4994C13.4758 22.4994 14.9347 22.1885 16.2819 21.5869C17.6291 20.9853 18.8343 20.1065 19.8191 19.0078L19.7535 18.7828C19.3785 17.7047 18.6801 16.0219 16.8145 13.7297Z"
          fill="#1F1D25"/>
</svg>
