<svg width="24" height="24" viewBox="0 0 24 24" fill="none" xmlns="http://www.w3.org/2000/svg">
    <path d="M0 3.75V20.25H24V3.75H0ZM21.75 11.9897C21.75 13.1962 21.675 14.1141 21.5733 15.6094C21.4716 17.1047 20.6733 18.1566 18.8034 18.3216C16.9336 18.4866 14.3142 18.502 12 18.4969C9.70312 18.502 7.07156 18.4917 5.19656 18.3216C3.32156 18.1514 2.53406 17.1028 2.42672 15.6094C2.31938 14.1159 2.25 13.1962 2.25 11.9897C2.25 10.7831 2.25516 9.99937 2.42672 8.37C2.59828 6.74062 3.50484 5.83312 5.19656 5.66812C6.88828 5.50312 9.80344 5.50313 12 5.50313C14.1966 5.50313 17.1094 5.50312 18.8034 5.66812C20.4975 5.83312 21.4017 6.74625 21.5733 8.37C21.7448 9.99375 21.75 10.7883 21.75 11.9897Z"
          fill="#1F1D25"/>
    <path d="M17.2298 13.2575V13.2936C17.2298 14.1341 16.7091 14.6291 16.0134 14.6291C15.3178 14.6291 14.8491 14.0722 14.782 13.2936C14.782 13.2936 14.7206 12.8863 14.7206 12.0613C14.7166 11.6134 14.7405 11.1656 14.7923 10.7207C14.9161 9.84411 15.3441 9.3852 16.0392 9.3852C16.7344 9.3852 17.2809 9.98333 17.2809 10.8908V10.9166H19.605C19.605 9.78739 19.3214 8.77161 18.7495 8.13223C18.1777 7.49286 17.3325 7.17129 16.2094 7.17129C15.6854 7.16474 15.1636 7.23954 14.6625 7.39301C14.1952 7.53993 13.7755 7.80867 13.4466 8.17161C13.1077 8.54473 12.8438 9.03973 12.6562 9.66364C12.4688 10.2875 12.375 11.0699 12.375 12.02C12.375 12.9482 12.4523 13.7216 12.6019 14.3455C12.7514 14.9694 12.9769 15.4644 13.2769 15.8357C13.5663 16.1999 13.9581 16.4693 14.4019 16.6091C14.855 16.7535 15.3862 16.8257 15.9956 16.8257C17.2833 16.8257 18.2109 16.4975 18.7673 15.8615C19.3237 15.2254 19.5938 14.2991 19.5938 13.0822H17.2195C17.2298 13.0822 17.2298 13.2111 17.2298 13.2575Z"
          fill="#1F1D25"/>
    <path d="M9.24828 13.2575V13.2936C9.24828 14.1341 8.72797 14.6291 8.03234 14.6291C7.33672 14.6291 6.86797 14.0722 6.80094 13.2936C6.80094 13.2936 6.73953 12.8863 6.73953 12.0613C6.7355 11.6134 6.75946 11.1656 6.81125 10.7207C6.935 9.84411 7.36297 9.3852 8.05813 9.3852C8.75328 9.3852 9.29984 9.98379 9.29984 10.8908V10.9166H11.6248C11.6248 9.78739 11.3436 8.77161 10.7694 8.13223C10.1952 7.49286 9.35141 7.17129 8.22828 7.17129C7.70429 7.16474 7.18246 7.23954 6.68141 7.39301C6.21413 7.53993 5.79443 7.80867 5.46547 8.17161C5.12516 8.54286 4.86266 9.03786 4.67188 9.66176C4.48109 10.2857 4.39062 11.068 4.39062 12.0182C4.39062 12.9463 4.46797 13.7197 4.6175 14.3436C4.76703 14.9675 4.9925 15.4625 5.2925 15.8338C5.58197 16.198 5.97375 16.4674 6.4175 16.6072C6.87094 16.7516 7.40219 16.8238 8.01125 16.8238C9.29938 16.8238 10.227 16.4957 10.7834 15.8596C11.3398 15.2235 11.6183 14.2972 11.6183 13.0804H9.23797C9.24828 13.0822 9.24828 13.2111 9.24828 13.2575Z"
          fill="#1F1D25"/>
</svg>
