<svg width="24" height="24" viewBox="0 0 24 24" fill="none" xmlns="http://www.w3.org/2000/svg">
    <path d="M23.1591 13.1998L21.9788 9.53981C21.9725 9.50612 21.9629 9.47315 21.9502 9.44137L19.583 2.0848C19.5209 1.89569 19.4005 1.7311 19.2391 1.61471C19.0776 1.49831 18.8834 1.43609 18.6844 1.43699C18.4859 1.4364 18.2924 1.49957 18.1325 1.61721C17.9726 1.73485 17.8546 1.90073 17.7961 2.09043L15.5395 9.10059H8.41454L6.15611 2.08996C6.09784 1.90091 5.98058 1.73549 5.8215 1.6179C5.66241 1.50032 5.46986 1.43676 5.27204 1.43652H5.26689C5.06733 1.4372 4.87311 1.50107 4.71209 1.61897C4.55108 1.73687 4.43154 1.90273 4.37064 2.09277L2.00111 9.4559C2.00111 9.46246 1.99595 9.46809 1.99361 9.47465L0.792199 13.2003C0.703721 13.4732 0.703375 13.767 0.791209 14.0401C0.879044 14.3132 1.0506 14.5517 1.28157 14.7218L11.6616 22.3348C11.7527 22.4015 11.8628 22.4371 11.9757 22.4365C12.0886 22.4359 12.1983 22.3991 12.2888 22.3315L22.6706 14.7218C22.9016 14.5516 23.0732 14.313 23.1608 14.0398C23.2485 13.7665 23.2479 13.4726 23.1591 13.1998V13.1998ZM7.64345 10.1759L10.537 19.1646L3.59157 10.1759H7.64345ZM13.4184 19.1665L16.193 10.549L16.3125 10.174H20.3681L14.0841 18.3017L13.4184 19.1665ZM18.6933 2.77996L20.7263 9.10012H16.6566L18.6933 2.77996ZM15.1945 10.1717L13.1789 16.4332L11.9761 20.1626L8.76236 10.1717H15.1945ZM5.2622 2.77996L7.29939 9.10012H3.23392L5.2622 2.77996ZM1.90642 13.8551C1.85736 13.8189 1.82095 13.7682 1.80236 13.7101C1.78376 13.6521 1.78392 13.5896 1.80282 13.5317L2.69345 10.7661L9.23767 19.2312L1.90642 13.8551ZM22.0467 13.8551L14.7145 19.2289L14.7389 19.1965L21.2574 10.7642L22.148 13.5298C22.1671 13.5878 22.1675 13.6504 22.1491 13.7086C22.1307 13.7668 22.0944 13.8178 22.0453 13.8542"
          fill="#1F1D25"/>
</svg>
