<svg width="24" height="24" viewBox="0 0 24 24" fill="none" xmlns="http://www.w3.org/2000/svg">
    <path d="M12.141 12.7173L10.6035 17.2032H10.5988L9.4082 20.6298C9.49258 20.6532 9.57227 20.672 9.65664 20.6954H9.6707C10.4276 20.8973 11.2076 20.9997 11.991 21.0001C12.3817 21.003 12.772 20.9748 13.1582 20.9157C13.675 20.8509 14.1849 20.7395 14.6817 20.5829C14.8035 20.5454 14.9254 20.5032 15.0473 20.461C14.916 20.1798 14.6348 19.5563 14.6207 19.5282L12.141 12.7173Z"
          fill="#1F1D25"/>
    <path d="M3.7875 8.46094C3.31875 9.52031 3 10.8234 3 12C3 12.2953 3.01406 12.5906 3.04219 12.8812C3.36563 16.2187 5.52187 19.0219 8.48438 20.2828C8.60625 20.3344 8.73281 20.3859 8.85938 20.4328L4.5 8.46563C4.125 8.45156 4.05469 8.475 3.7875 8.46094Z"
          fill="#1F1D25"/>
    <path d="M20.1656 8.22188C19.9639 7.78772 19.7272 7.37072 19.4578 6.97501C19.3828 6.86251 19.2984 6.75001 19.2188 6.63751C18.203 5.27427 16.8238 4.22479 15.2391 3.60938C14.2055 3.20508 13.1052 2.99838 11.9953 3.00001C10.6508 3.00004 9.32352 3.30207 8.1114 3.88379C6.89928 4.46551 5.83331 5.31206 4.99219 6.36095C4.68749 6.73865 4.41319 7.13991 4.17188 7.56095C4.8375 7.56564 5.6625 7.56563 5.75625 7.56563C6.60469 7.56563 7.9125 7.46251 7.9125 7.46251C8.35313 7.43438 8.4 8.07657 7.96406 8.12813C7.96406 8.12813 7.52344 8.1797 7.03594 8.20314L9.98438 16.9688L11.7563 11.6578L10.5 8.20782C10.0594 8.18439 9.65156 8.13282 9.65156 8.13282C9.21094 8.10939 9.26719 7.43907 9.69844 7.4672C9.69844 7.4672 11.0344 7.57032 11.8312 7.57032C12.6797 7.57032 13.9875 7.4672 13.9875 7.4672C14.4234 7.43907 14.4797 8.08126 14.0391 8.13282C14.0391 8.13282 13.6031 8.18439 13.1156 8.20782L16.0359 16.9078L16.8469 14.2078C17.2547 13.1578 17.4609 12.2906 17.4609 11.5969C17.4609 10.5984 17.1 9.9047 16.7906 9.36563C16.3828 8.69532 15.9984 8.13282 15.9984 7.47188C15.9984 6.72657 16.5609 6.03282 17.3578 6.03282H17.4609C18.6891 6.00001 19.0922 7.21876 19.1437 8.04845V8.07657C19.1625 8.41407 19.1484 8.66251 19.1484 8.95782C19.1484 9.77345 18.9937 10.6969 18.5344 11.8547L16.7062 17.1422L15.6609 20.2219C15.7453 20.1844 15.825 20.1469 15.9094 20.1047C18.5672 18.8203 20.5031 16.2609 20.9109 13.2281C20.9714 12.8247 21.0012 12.4173 21 12.0094C21.0018 10.7011 20.717 9.40831 20.1656 8.22188V8.22188Z"
          fill="#1F1D25"/>
    <path d="M12 2.25C14.2494 2.25116 16.4293 3.02987 18.1704 4.45421C19.9115 5.87855 21.1066 7.86095 21.5534 10.0656C22.0003 12.2702 21.6713 14.5615 20.6222 16.5513C19.5731 18.5412 17.8684 20.1072 15.7969 20.9841C13.4142 21.9911 10.729 22.0103 8.3321 21.0375C5.93521 20.0647 4.02293 18.1796 3.01594 15.7969C2.00894 13.4142 1.98973 10.729 2.96251 8.3321C3.9353 5.93521 5.8204 4.02293 8.20312 3.01594C9.4043 2.50767 10.6957 2.24715 12 2.25V2.25ZM12 1.5C6.20109 1.5 1.5 6.20109 1.5 12C1.5 17.7989 6.20109 22.5 12 22.5C17.7989 22.5 22.5 17.7989 22.5 12C22.5 6.20109 17.7989 1.5 12 1.5Z"
          fill="#1F1D25"/>
</svg>
