<svg width="24" height="24" viewBox="0 0 24 24" fill="none" xmlns="http://www.w3.org/2000/svg">
    <path d="M20.7966 18.9867C20.7282 18.9497 20.663 18.9145 20.6091 18.8836C20.3059 18.7041 19.9998 18.3905 20.0537 18.0478C20.1671 17.3006 20.1891 16.9477 20.0307 16.6983C19.9454 16.5651 19.8193 16.4631 19.6712 16.4077V16.4048C19.7373 16.2848 19.7771 16.1395 19.8038 15.9305C19.8713 15.4148 19.5695 13.868 19.1616 12.6164C18.7829 11.4595 17.791 10.2727 17.0663 9.40266L16.8971 9.19922C15.7777 7.84312 15.7562 7.40906 15.6526 5.32406C15.6376 5.02078 15.6202 4.67719 15.5977 4.29281C15.4627 1.94203 14.2501 0.75 12.0001 0.75C10.8188 0.75 9.90852 1.08516 9.29445 1.74656C8.80273 2.27578 8.53133 3 8.53133 3.78656C8.53133 5.17031 8.62508 6.27094 8.63211 6.33141C8.69773 8.00484 8.67898 8.26359 8.24258 9.02906C8.13805 9.21328 7.84977 9.53859 7.54461 9.88266C7.14711 10.3313 6.69664 10.8394 6.44961 11.2523C6.27289 11.5481 6.17398 11.8444 6.06945 12.1584C5.91008 12.637 5.72914 13.1794 5.21867 13.8727C4.62945 14.6728 4.49117 15.2606 4.70305 16.0969C4.47148 16.3992 4.47664 16.7705 4.48039 17.0452C4.48699 17.1405 4.48227 17.2364 4.46633 17.3306C4.35898 17.6864 3.88414 17.7712 3.43508 17.8078C3.36102 17.8134 3.28977 17.8177 3.2218 17.8214C2.88148 17.8397 2.58758 17.8561 2.41883 18.1167C2.25617 18.368 2.36633 18.7636 2.51914 19.3111C2.55289 19.432 2.58758 19.5572 2.6218 19.6889C2.70758 20.017 2.6143 20.1802 2.49617 20.3845C2.3818 20.5819 2.25195 20.8064 2.25195 21.2072C2.25195 21.8948 3.18945 22.0509 4.26992 22.2356C4.61492 22.2937 4.97305 22.3542 5.3307 22.4344C5.8756 22.5588 6.40977 22.7262 6.9282 22.935C7.38383 23.1098 7.74383 23.2481 8.16711 23.2481C8.92555 23.2481 9.49133 22.7902 10.0384 22.3477L10.1391 22.2656C10.3984 22.0552 11.147 22.0781 11.7488 22.095C11.911 22.0997 12.0643 22.1044 12.2012 22.1044H12.4927C13.1246 22.1006 13.9899 22.0959 14.4723 22.2216C14.648 22.2684 14.7629 22.3959 14.9077 22.5586C15.1829 22.8661 15.5251 23.25 16.4729 23.25C17.3818 23.25 17.858 22.8417 18.4098 22.3688C18.7454 22.0814 19.0923 21.7837 19.5849 21.5316C19.7687 21.4378 19.9421 21.3502 20.1043 21.2686C21.1655 20.7352 21.7501 20.4413 21.7501 19.9645C21.7501 19.5 21.1763 19.1911 20.7966 18.9867ZM9.89586 4.14281C10.024 4.14787 10.1478 4.19059 10.2517 4.26562C10.3557 4.34066 10.4352 4.44469 10.4804 4.56469C10.5718 4.82484 10.5652 5.05312 10.4902 5.17125C10.4902 5.17125 10.4799 5.12437 10.4734 5.10375C10.4265 4.93658 10.3188 4.79297 10.1715 4.70109C10.1101 4.66145 10.0412 4.63487 9.96913 4.62301C9.89703 4.61116 9.82326 4.61428 9.75242 4.63219C9.55273 4.68516 9.3582 4.86656 9.33477 5.51297C9.09289 5.02219 9.22648 4.66922 9.37789 4.43484C9.48617 4.26 9.72805 4.13812 9.89586 4.14281ZM9.07555 21.7209C9.00008 22.4644 8.21258 22.4531 7.97305 22.4339C7.5132 22.3955 6.95773 22.2141 6.42008 22.0388C6.2082 21.9698 5.9893 21.8981 5.77648 21.8353C5.15773 21.653 4.36461 21.5194 3.72711 21.4134C3.57617 21.3877 3.4332 21.3637 3.30289 21.3408C3.17258 21.3178 3.0868 21.2813 3.05914 21.233C3.01227 21.1556 3.07695 20.9869 3.14961 20.7919C3.24711 20.5312 3.38023 20.1722 3.37508 19.7344C3.37508 19.5511 3.30617 19.3453 3.24195 19.1456C3.16602 18.9113 3.0882 18.6689 3.15148 18.5541C3.20914 18.4495 3.46789 18.4373 3.69523 18.4373H3.80117C3.96758 18.4373 4.11148 18.4402 4.21133 18.4125C4.51648 18.3277 4.90789 18.0881 5.04617 17.7619C5.08836 17.6602 5.11039 17.4366 5.13992 17.1056C5.15727 16.9125 5.17461 16.7133 5.19711 16.6097C5.20265 16.5832 5.21455 16.5585 5.23178 16.5377C5.24901 16.5169 5.27106 16.5005 5.29602 16.4902C5.37336 16.4541 5.61383 16.4006 6.1693 16.6814C6.69336 16.9462 7.2418 17.8927 7.77242 18.8081C7.9393 19.0959 8.0968 19.3678 8.25523 19.6219C8.91336 20.6784 9.13789 21.1031 9.07555 21.7219V21.7209ZM15.1149 20.2416C15.0586 20.4177 14.9873 20.5886 14.9016 20.7525C14.8988 20.7589 14.8936 20.764 14.8872 20.7666C14.8807 20.7693 14.8734 20.7694 14.8669 20.7668C14.8604 20.7643 14.8551 20.7594 14.8521 20.753C14.8492 20.7467 14.8488 20.7394 14.851 20.7328C14.9313 20.4522 14.9647 20.1604 14.9499 19.8689C14.9382 19.6472 14.9312 19.5131 14.8252 19.47C14.7193 19.4269 14.6255 19.5089 14.3823 19.7297C14.3307 19.7766 14.2716 19.83 14.2051 19.8891C13.6988 20.333 12.9451 20.8584 11.5984 20.9845C10.809 21.0591 10.3051 20.7675 10.149 20.603C10.1398 20.5932 10.1288 20.5854 10.1166 20.5799C10.1044 20.5744 10.0912 20.5714 10.0778 20.5711C10.0644 20.5707 10.0511 20.573 10.0386 20.5779C10.0261 20.5827 10.0147 20.59 10.0051 20.5992C9.99151 20.6131 9.98209 20.6305 9.97787 20.6495C9.97365 20.6685 9.97479 20.6882 9.98117 20.7066C10.0805 21.0272 10.0374 21.2812 9.9582 21.4655C9.91367 21.5686 9.87148 21.5616 9.86445 21.4495C9.85273 21.232 9.81758 20.9864 9.72383 20.7844C9.57805 20.4591 9.3957 20.1122 9.30711 19.9462V19.9439C9.45898 19.8741 9.72242 19.7175 9.84008 19.4339C9.95773 19.1503 10.0501 18.5902 9.37977 17.9461C9.08539 17.6625 8.34383 17.1417 7.68945 16.6805C7.17852 16.3219 6.65023 15.9511 6.58086 15.8597C6.37039 15.5836 6.28227 15.4238 6.25555 14.9386C6.25883 14.8308 6.26164 14.7234 6.26445 14.6156L6.27711 14.4989C6.27797 14.4924 6.28118 14.4864 6.28614 14.482C6.2911 14.4777 6.29747 14.4753 6.30406 14.4753C6.31066 14.4753 6.31702 14.4777 6.32198 14.482C6.32694 14.4864 6.33015 14.4924 6.33102 14.4989C6.35025 14.653 6.3816 14.8054 6.42477 14.9545C6.47539 15.1294 6.53727 15.3098 6.59445 15.3848C6.74398 15.5827 6.94883 15.7313 7.14148 15.7828C7.18039 15.7964 7.222 15.8004 7.26279 15.7946C7.30359 15.7887 7.34237 15.7731 7.37586 15.7491C7.5132 15.6398 7.50008 15.3928 7.47852 14.9831C7.45648 14.5613 7.42648 13.9828 7.56523 13.3636C7.82867 12.1917 8.07664 11.8397 8.3907 11.3948C8.43102 11.3377 8.47273 11.2791 8.51492 11.2172C8.58242 11.1197 8.65555 11.025 8.73383 10.9252C9.08398 10.4747 9.48055 9.96469 9.38633 9.00562C9.36242 8.76234 9.3507 8.59172 9.34602 8.47172C9.34456 8.46078 9.34702 8.44967 9.35295 8.44036C9.35889 8.43105 9.36792 8.42414 9.37845 8.42083C9.38898 8.41753 9.40034 8.41804 9.41053 8.42229C9.42072 8.42654 9.42908 8.43425 9.43414 8.44406L9.45711 8.48016L9.51383 8.57391C9.74164 8.94891 10.1532 9.63187 10.6904 9.63187C10.7275 9.63181 10.7645 9.62852 10.801 9.62203C11.8974 9.43781 13.2338 8.20406 13.2465 8.19187C13.3927 8.05125 13.3796 7.90406 13.3234 7.82109C13.2906 7.77417 13.2422 7.74034 13.1869 7.72559C13.1316 7.71083 13.0728 7.7161 13.021 7.74047C12.8668 7.80609 12.6863 7.88813 12.4951 7.97484C11.8473 8.26875 10.7607 8.76 10.5146 8.64703C10.4024 8.58503 10.3021 8.50362 10.2184 8.40656C10.2133 8.40305 10.2089 8.39858 10.2056 8.39339C10.2022 8.38821 10.2 8.38241 10.1988 8.37634C10.1977 8.37027 10.1978 8.36404 10.1991 8.35801C10.2004 8.35197 10.2029 8.34625 10.2064 8.34117C10.2099 8.33609 10.2144 8.33176 10.2196 8.32841C10.2248 8.32506 10.2306 8.32276 10.2366 8.32165C10.2427 8.32054 10.2489 8.32064 10.255 8.32194C10.261 8.32324 10.2667 8.32571 10.2718 8.32922C10.5338 8.43656 10.7195 8.39719 10.9374 8.32547L10.9843 8.30953C11.4235 8.16469 11.6499 8.08594 12.4262 7.74328C12.6715 7.62823 12.9266 7.5352 13.1884 7.46531C13.3759 7.41844 13.4893 7.38891 13.5498 7.26187C13.5781 7.20971 13.5909 7.15055 13.5868 7.09135C13.5826 7.03214 13.5616 6.97535 13.5263 6.92766C13.4546 6.84 13.3355 6.80719 13.1982 6.83859C13.0473 6.87375 12.9779 6.97922 12.8977 7.04906C12.7852 7.14516 12.6634 7.24406 12.092 7.45453C10.8263 7.92328 10.471 7.95188 9.97273 7.61531C9.51148 7.30172 9.26258 6.99516 9.26258 6.86531C9.26258 6.76547 9.51805 6.59812 9.67086 6.49781C9.7332 6.45703 9.79226 6.41859 9.84055 6.3825C10.044 6.23156 10.4499 5.84859 10.4677 5.83266C10.7209 5.57906 11.3073 5.73047 11.6396 5.95359C11.651 5.96212 11.6641 5.96823 11.6779 5.97154C11.6918 5.97484 11.7062 5.97528 11.7202 5.97281C11.7335 5.97026 11.746 5.96507 11.7572 5.95755C11.7684 5.95003 11.7779 5.94034 11.7853 5.92906C11.7926 5.91777 11.7976 5.90512 11.8 5.89186C11.8023 5.8786 11.802 5.865 11.799 5.85187C11.6021 5.03344 11.7929 4.57031 11.9865 4.32609C12.0849 4.20303 12.2095 4.10348 12.3512 4.03471C12.493 3.96594 12.6483 3.92969 12.8059 3.92859C13.4063 3.92859 13.8259 4.39734 13.8259 5.07328C13.8259 5.58891 13.6937 5.86031 13.569 6.02484C13.562 6.03391 13.5532 6.0414 13.5431 6.04681C13.533 6.05222 13.5218 6.05542 13.5104 6.05622C13.499 6.05702 13.4875 6.05539 13.4768 6.05143C13.466 6.04748 13.4562 6.04129 13.448 6.03328C13.4348 6.01989 13.4265 6.0024 13.4244 5.98368C13.4224 5.96496 13.4268 5.94609 13.4368 5.93016C13.5406 5.75221 13.5948 5.54973 13.5938 5.34375C13.5944 5.2403 13.5743 5.13778 13.5348 5.04219C13.4952 4.9466 13.4369 4.85988 13.3634 4.7871C13.2899 4.71432 13.2026 4.65695 13.1066 4.61836C13.0106 4.57976 12.9079 4.56072 12.8045 4.56234C12.6198 4.56234 12.1726 4.63266 12.0184 5.28609C11.9807 5.45655 11.9753 5.63255 12.0024 5.805L12.0062 5.83828C12.0484 6.18422 12.7234 6.42469 13.2826 6.56531C13.8151 6.69891 13.892 6.85688 13.697 7.48547C13.502 8.11406 13.8427 8.715 13.9641 8.87156C14.1124 9.0535 14.2428 9.24924 14.3537 9.45609C14.4813 9.7032 14.5852 9.96186 14.664 10.2286C14.7657 10.5469 14.8538 10.8216 15.1623 11.2233C15.6812 11.8983 15.9901 13.5033 15.8654 14.8795C15.8555 14.9925 15.8405 15.0806 15.8293 15.1453C15.8091 15.2639 15.7955 15.3422 15.8602 15.3975C15.9249 15.4528 16.0084 15.4303 16.2005 15.368L16.3613 15.3169C16.5551 15.2616 16.752 15.2177 16.951 15.1856C16.9669 15.1831 16.9819 15.1769 16.9949 15.1675C17.0078 15.158 17.0183 15.1456 17.0255 15.1312C17.1863 14.8073 17.206 14.4178 17.213 14.078C17.213 14.037 17.214 13.9934 17.2159 13.9472C17.2248 13.583 17.237 13.0598 17.0776 12.4472C17.0736 12.4352 17.0746 12.4221 17.0802 12.4108C17.0859 12.3995 17.0958 12.3909 17.1078 12.387C17.1198 12.383 17.1329 12.3839 17.1442 12.3896C17.1555 12.3953 17.1641 12.4052 17.168 12.4172C17.3285 12.7995 17.4337 13.2028 17.4802 13.6148C17.5998 14.6733 17.3912 15.1191 17.3893 15.1228C17.3845 15.1325 17.3818 15.1432 17.3814 15.1541C17.3811 15.1649 17.3831 15.1758 17.3873 15.1858C17.3916 15.1958 17.3979 15.2048 17.4059 15.2121C17.414 15.2194 17.4235 15.225 17.4338 15.2283C17.5589 15.2732 17.6708 15.3484 17.7596 15.4472C17.828 15.525 17.8032 15.5597 17.7062 15.5231C17.5147 15.4516 17.3119 15.4153 17.1076 15.4158C16.6201 15.4158 16.2596 15.6478 16.0993 15.8466C15.9498 16.0312 15.9259 16.2061 15.9198 16.3748L15.917 16.3772C15.5663 16.342 15.3104 16.4339 15.098 16.6683L15.0943 16.6725C14.8009 17.0358 14.9068 17.827 15.0338 18.4763C15.0938 18.7786 15.2959 19.6725 15.1149 20.2425V20.2416ZM19.6196 20.7136C18.8832 21.0281 18.4276 21.3937 18.0259 21.7162C17.761 21.9286 17.5102 22.1292 17.2159 22.2853C16.7415 22.5356 16.0482 22.5914 15.6563 21.9244C15.5452 21.7369 15.623 21.4622 15.7304 21.083C15.8734 20.5791 16.0693 19.8895 15.9043 18.99C15.8602 18.75 15.8213 18.5442 15.7876 18.3661C15.6563 17.6719 15.6048 17.4108 15.6563 17.2031C15.6859 17.0883 15.8171 17.0625 15.9315 17.0625C15.9727 17.0629 16.0139 17.0658 16.0548 17.0714C16.1171 17.284 16.2297 17.4785 16.3829 17.6386C16.6501 17.9133 17.0218 18.0525 17.4873 18.0534C17.5857 18.0614 18.7032 18.1261 19.2001 17.0034C19.2685 17.0119 19.3712 17.0363 19.4016 17.1113C19.4616 17.2608 19.389 17.5289 19.3304 17.7441C19.2882 17.8992 19.2516 18.0328 19.254 18.1364C19.2685 18.8864 19.7696 19.2042 20.4648 19.6439C20.5487 19.6969 20.6363 19.7522 20.7249 19.8098C20.8135 19.8675 20.8595 19.9219 20.8595 19.9688C20.8351 20.1933 19.922 20.5856 19.6196 20.7145V20.7136Z"
          fill="#1F1D25"/>
</svg>
