<svg width="24" height="24" viewBox="0 0 24 24" fill="none" xmlns="http://www.w3.org/2000/svg">
    <path d="M12.002 1.5C6.20352 1.5 1.50195 6.20156 1.50195 12C1.50195 16.2984 4.08945 19.9922 7.78789 21.6188C7.75977 20.8875 7.7832 20.0062 7.9707 19.2094C8.17227 18.3562 9.3207 13.4859 9.3207 13.4859C9.3207 13.4859 8.9832 12.8156 8.9832 11.8266C8.9832 10.2703 9.8832 9.10781 11.0082 9.10781C11.9645 9.10781 12.4238 9.825 12.4238 10.6828C12.4238 11.6437 11.8098 13.0781 11.4957 14.4094C11.2332 15.525 12.0535 16.4297 13.1551 16.4297C15.1426 16.4297 16.4832 13.875 16.4832 10.8469C16.4832 8.54531 14.9316 6.825 12.1145 6.825C8.93164 6.825 6.94414 9.20156 6.94414 11.8547C6.94414 12.7687 7.21602 13.4156 7.63789 13.9125C7.83008 14.1422 7.8582 14.2359 7.78789 14.4984C7.73633 14.6906 7.62383 15.1547 7.57227 15.3422C7.50195 15.6094 7.28633 15.7031 7.04727 15.6047C5.58008 15.0047 4.8957 13.4016 4.8957 11.5922C4.8957 8.61094 7.41289 5.03438 12.4004 5.03438C16.4082 5.03438 19.0473 7.93594 19.0473 11.0484C19.0473 15.1687 16.7551 18.2438 13.3801 18.2438C12.2457 18.2438 11.1816 17.6297 10.816 16.9359C10.816 16.9359 10.2066 19.3547 10.0754 19.8234C9.85508 20.6344 9.41914 21.4406 9.0207 22.0734C9.98721 22.3586 10.9896 22.5038 11.9973 22.5047C17.7957 22.5047 22.4973 17.8031 22.4973 12.0047C22.4973 6.20625 17.8004 1.5 12.002 1.5Z"
          fill="#1F1D25"/>
</svg>
