<svg width="24" height="24" viewBox="0 0 24 24" fill="none" xmlns="http://www.w3.org/2000/svg">
    <path d="M11.3762 15.9511H12.624V12.548H15.7646V11.3377H12.624V7.93457H11.3762V11.3377H8.27539V12.548H11.3762V15.9511Z"
          fill="#1F1D25"/>
    <path d="M5.59043 20.8681H6.64934V17.8428H9.44777V16.8973H6.64934V13.8345H5.59043V16.8973H2.79199V17.8428H5.59043V20.8681Z"
          fill="#1F1D25"/>
    <path d="M17.3512 9.93758H18.4101V6.91414H21.246V6.00617H18.4101V2.94336H17.3512V6.00617H14.5527V6.91414H17.3512V9.93758Z"
          fill="#1F1D25"/>
    <path d="M11.5653 23.2502H12.4728V21.0939H14.4017V20.3008H12.4728V18.1445H11.5653V20.3008H9.6748V21.0939H11.5653V23.2502Z"
          fill="#1F1D25"/>
    <path d="M5.6284 9.93758H6.61277V6.87617H9.44918V6.00617H6.60949V2.94336H5.62512V6.00617H2.79199V6.87617H5.6284V9.93758Z"
          fill="#1F1D25"/>
    <path d="M20.4246 14.4769H21.3321V12.3591H23.2503V11.5275H21.3321V9.40967H20.4246V11.5275H18.5342V12.3591H20.4246V14.4769Z"
          fill="#1F1D25"/>
    <path fillRule="evenodd" clipRule="evenodd"
          d="M17.3512 20.8681H18.4101V17.8428H21.246V16.8973H18.4101V13.8345H17.3512V16.8973H14.5527V17.8428H17.3512V20.8681Z"
          fill="#1F1D25"/>
    <path d="M14.3906 3.4725V2.82984H12.4997V0.75H11.8191V2.82984H9.92859V3.4725H11.8191V5.55234H12.4997V3.4725H14.3906ZM2.63016 14.3255H3.31078V12.2456H5.20312V11.603H3.31078V9.5625H2.63016V11.6044H0.75V12.285L2.63016 12.2812V14.3255Z"
          fill="#1F1D25"/>
</svg>
