<svg width="24" height="24" viewBox="0 0 24 24" fill="none" xmlns="http://www.w3.org/2000/svg">
    <path d="M11.9998 7.21387C11.0532 7.21387 10.1279 7.49456 9.34088 8.02044C8.55384 8.54633 7.94041 9.29379 7.57818 10.1683C7.21594 11.0428 7.12116 12.0051 7.30583 12.9335C7.4905 13.8619 7.94631 14.7146 8.61564 15.384C9.28496 16.0533 10.1377 16.5091 11.0661 16.6938C11.9945 16.8784 12.9568 16.7837 13.8313 16.4214C14.7058 16.0592 15.4533 15.4458 15.9792 14.6587C16.505 13.8717 16.7857 12.9464 16.7857 11.9998C16.7841 10.731 16.2794 9.5146 15.3822 8.61741C14.485 7.72023 13.2686 7.21548 11.9998 7.21387V7.21387Z"
          fill="#1F1D25"/>
    <path d="M18.8711 7.63859C20.0754 7.63859 21.0517 6.66229 21.0517 5.45796C21.0517 4.25364 20.0754 3.27734 18.8711 3.27734C17.6667 3.27734 16.6904 4.25364 16.6904 5.45796C16.6904 6.66229 17.6667 7.63859 18.8711 7.63859Z"
          fill="#1F1D25"/>
    <path d="M21.5559 7.65002L21.4645 7.4494L21.3188 7.6144C20.9616 8.01998 20.5098 8.33107 20.0034 8.52002L19.8628 8.57158L19.92 8.70893C20.3558 9.75135 20.5795 10.8702 20.5781 12C20.5781 16.7306 16.7297 20.5781 12 20.5781C7.27031 20.5781 3.42188 16.7306 3.42188 12C3.42188 7.2694 7.26938 3.4219 12 3.4219C13.2722 3.41924 14.5287 3.7028 15.6764 4.25158L15.8109 4.31252L15.8695 4.17565C16.0832 3.67943 16.4158 3.24347 16.838 2.90627L17.01 2.76893L16.8145 2.6719C15.3277 1.89863 13.6759 1.49657 12 1.50002C6.21047 1.50002 1.5 6.21049 1.5 12C1.5 17.7896 6.21047 22.5 12 22.5C17.7895 22.5 22.5 17.7896 22.5 12C22.5025 10.4989 22.1804 9.01505 21.5559 7.65002V7.65002Z"
          fill="#1F1D25"/>
</svg>
