<svg width="24" height="24" viewBox="0 0 24 24" fill="none" xmlns="http://www.w3.org/2000/svg">
    <g clipPath="url(#clip0)">
        <path d="M23.766 9.89488C23.6994 9.8391 23.098 9.38207 21.8071 9.38207C21.4675 9.38403 21.1288 9.41382 20.7941 9.47113C20.5494 7.76488 19.1357 6.93988 19.0799 6.89301L18.7349 6.69238L18.5122 7.01582C18.2315 7.45492 18.0247 7.9371 17.9 8.44316C17.6657 9.41348 17.811 10.3275 18.3008 11.108C17.7107 11.4427 16.7539 11.5205 16.5533 11.5299H0.747535C0.649039 11.5298 0.551504 11.5492 0.460547 11.587C0.369589 11.6248 0.287007 11.6802 0.217557 11.7501C0.148106 11.8199 0.0931594 11.9028 0.0558809 11.994C0.0186024 12.0852 -0.000271252 12.1828 0.000347072 12.2813C-0.0208854 13.6689 0.213488 15.0486 0.691753 16.3514C1.23738 17.7788 2.04972 18.8405 3.0941 19.4846C4.27628 20.2093 6.20191 20.6218 8.37222 20.6218C9.35412 20.6218 10.334 20.5322 11.2996 20.3541C12.6457 20.11 13.9406 19.6387 15.1288 18.9605C16.1069 18.3922 16.9866 17.6692 17.7336 16.8197C18.9913 15.4036 19.7371 13.8197 20.2827 12.4135H20.5053C21.8746 12.4135 22.7207 11.8669 23.188 11.3986C23.4982 11.1046 23.7412 10.7471 23.9005 10.3505L24.0008 10.0608L23.766 9.89488Z"
              fill="#1F1D25"/>
        <path d="M2.2168 11.0791H4.33133C4.38106 11.0791 4.42875 11.0594 4.46391 11.0242C4.49907 10.9891 4.51883 10.9414 4.51883 10.8916V8.99414C4.51883 8.94441 4.49907 8.89672 4.46391 8.86156C4.42875 8.82639 4.38106 8.80664 4.33133 8.80664H2.2168C2.16707 8.80664 2.11938 8.82639 2.08421 8.86156C2.04905 8.89672 2.0293 8.94441 2.0293 8.99414V10.8898C2.03115 10.9389 2.0515 10.9855 2.08627 11.0203C2.12104 11.0551 2.16766 11.0754 2.2168 11.0773V11.0773"
              fill="#1F1D25"/>
        <path d="M5.13281 11.0791H7.24781C7.29754 11.0791 7.34523 11.0594 7.38039 11.0242C7.41556 10.9891 7.43531 10.9414 7.43531 10.8916V8.99414C7.43531 8.94441 7.41556 8.89672 7.38039 8.86156C7.34523 8.82639 7.29754 8.80664 7.24781 8.80664H5.13281C5.08308 8.80664 5.03539 8.82639 5.00023 8.86156C4.96507 8.89672 4.94531 8.94441 4.94531 8.99414V10.8898C4.94717 10.9389 4.96752 10.9855 5.00229 11.0203C5.03706 11.0551 5.08368 11.0754 5.13281 11.0773"
              fill="#1F1D25"/>
        <path d="M8.1046 11.0791H10.2187C10.2684 11.0791 10.3161 11.0594 10.3512 11.0242C10.3864 10.9891 10.4062 10.9414 10.4062 10.8916V8.99414C10.4062 8.94441 10.3864 8.89672 10.3512 8.86156C10.3161 8.82639 10.2684 8.80664 10.2187 8.80664H8.1046C8.05487 8.80664 8.00718 8.82639 7.97202 8.86156C7.93685 8.89672 7.9171 8.94441 7.9171 8.99414V10.8898C7.91625 10.9146 7.92052 10.9394 7.92964 10.9625C7.93876 10.9856 7.95254 11.0067 7.97013 11.0242C7.98771 11.0418 8.00872 11.0556 8.03185 11.0647C8.05499 11.0738 8.07975 11.0781 8.1046 11.0773V11.0773"
              fill="#1F1D25"/>
        <path d="M11.0322 11.0791H13.1472C13.197 11.0791 13.2447 11.0594 13.2798 11.0242C13.315 10.9891 13.3347 10.9414 13.3347 10.8916V8.99414C13.3347 8.94441 13.315 8.89672 13.2798 8.86156C13.2447 8.82639 13.197 8.80664 13.1472 8.80664H11.0322C10.9825 8.80664 10.9348 8.82639 10.8996 8.86156C10.8645 8.89672 10.8447 8.94441 10.8447 8.99414V10.8898C10.8447 10.9395 10.8645 10.9872 10.8996 11.0223C10.9348 11.0575 10.9825 11.0773 11.0322 11.0773"
              fill="#1F1D25"/>
        <path d="M5.13281 8.36723H7.24781C7.29695 8.36537 7.34357 8.34502 7.37834 8.31025C7.41311 8.27548 7.43346 8.22886 7.43531 8.17973V6.28223C7.43531 6.2325 7.41556 6.18481 7.38039 6.14964C7.34523 6.11448 7.29754 6.09473 7.24781 6.09473H5.13281C5.08308 6.09473 5.03539 6.11448 5.00023 6.14964C4.96507 6.18481 4.94531 6.2325 4.94531 6.28223V8.17785C4.94898 8.22636 4.96992 8.27195 5.00432 8.30635C5.03872 8.34075 5.0843 8.36168 5.13281 8.36535"
              fill="#1F1D25"/>
        <path d="M8.10449 8.36723H10.2186C10.2677 8.36537 10.3143 8.34502 10.3491 8.31025C10.3838 8.27548 10.4042 8.22886 10.4061 8.17973V6.28223C10.4061 6.2325 10.3863 6.18481 10.3511 6.14964C10.316 6.11448 10.2683 6.09473 10.2186 6.09473H8.10449C8.05476 6.09473 8.00707 6.11448 7.97191 6.14964C7.93675 6.18481 7.91699 6.2325 7.91699 6.28223V8.17785C7.91699 8.22758 7.93675 8.27527 7.97191 8.31043C8.00707 8.3456 8.05476 8.36535 8.10449 8.36535"
              fill="#1F1D25"/>
        <path d="M11.0322 8.36723H13.1472C13.1964 8.36537 13.243 8.34502 13.2778 8.31025C13.3125 8.27548 13.3329 8.22886 13.3347 8.17973V6.28223C13.3329 6.23309 13.3125 6.18647 13.2778 6.1517C13.243 6.11693 13.1964 6.09658 13.1472 6.09473H11.0322C10.9825 6.09473 10.9348 6.11448 10.8996 6.14964C10.8645 6.18481 10.8447 6.2325 10.8447 6.28223V8.17785C10.8466 8.22699 10.8669 8.27361 10.9017 8.30838C10.9365 8.34315 10.9831 8.3635 11.0322 8.36535"
              fill="#1F1D25"/>
        <path d="M11.0322 5.64984H13.1472C13.197 5.64984 13.2447 5.63009 13.2798 5.59493C13.315 5.55976 13.3347 5.51207 13.3347 5.46234V3.5625C13.3329 3.51336 13.3125 3.46674 13.2778 3.43198C13.243 3.39721 13.1964 3.37686 13.1472 3.375H11.0322C10.9825 3.375 10.9348 3.39475 10.8996 3.42992C10.8645 3.46508 10.8447 3.51277 10.8447 3.5625V5.45813C10.8467 5.50722 10.8671 5.55378 10.9018 5.58853C10.9366 5.62328 10.9831 5.64366 11.0322 5.64563"
              fill="#1F1D25"/>
        <path d="M13.9814 11.0791H16.0964C16.1462 11.0791 16.1939 11.0594 16.229 11.0242C16.2642 10.9891 16.2839 10.9414 16.2839 10.8916V8.99414C16.2839 8.94441 16.2642 8.89672 16.229 8.86156C16.1939 8.82639 16.1462 8.80664 16.0964 8.80664H13.9814C13.9317 8.80664 13.884 8.82639 13.8489 8.86156C13.8137 8.89672 13.7939 8.94441 13.7939 8.99414V10.8898C13.7958 10.9389 13.8162 10.9855 13.8509 11.0203C13.8857 11.0551 13.9323 11.0754 13.9814 11.0773"
              fill="#1F1D25"/>
    </g>
    <defs>
        <clipPath id="clip0">
            <rect width="24" height="24" fill="white"/>
        </clipPath>
    </defs>
</svg>
