<svg width="24" height="24" viewBox="0 0 24 24" fill="none" xmlns="http://www.w3.org/2000/svg">
    <g clipPath="url(#clip0)">
        <path d="M23.9901 15.3783C23.9212 14.8195 23.6381 14.3349 23.1464 13.9359C23.1402 13.9285 23.1335 13.9216 23.1262 13.9153V13.9153L23.1014 13.8975L23.0934 13.8919L22.8323 13.7044L22.8234 13.6978L22.7901 13.6744C22.7779 13.6673 22.7648 13.6617 22.7512 13.658C21.9253 13.1663 20.5579 12.8217 18.4659 13.56C17.9667 12.72 17.91 12.0469 18.2442 11.0156C18.3037 10.8361 18.2484 10.7175 18.0703 10.6406C17.7121 10.4883 17.2218 10.5661 16.874 10.658C16.7118 10.7002 16.6143 10.792 16.5834 10.9313C16.3631 11.9625 15.7228 12.9047 15.1035 13.8141L15.067 13.8675C14.6854 13.0584 14.7646 12.4317 15.0304 11.6466C15.0834 11.49 15.0417 11.3859 14.895 11.3081C14.4853 11.0967 13.8707 11.242 13.626 11.3142C13.3157 11.4047 12.9829 12.2433 12.6112 13.2474C12.5175 13.5 12.4368 13.7161 12.3885 13.8169C12.2737 14.0513 12.164 14.3184 12.0478 14.602C11.7853 15.2438 11.4895 15.9661 11.0667 16.4199C10.9129 16.08 11.1548 15.5442 11.3896 15.0244C11.6676 14.4099 11.9301 13.8291 11.6278 13.4583C11.58 13.3997 11.5206 13.3515 11.4535 13.3166C11.3863 13.2818 11.3128 13.2611 11.2373 13.2558C11.1388 13.2483 11.04 13.2644 10.949 13.3027C10.9804 13.0378 10.9818 12.8288 10.9045 12.5761C10.7939 12.2156 10.5065 12.0136 10.1109 12.0244C9.20995 12.0506 8.44777 12.7219 7.96636 13.2806C7.64574 13.6556 6.93511 13.9416 6.3112 14.1924C6.06464 14.2969 5.83027 14.3906 5.6348 14.4844C5.32308 14.2209 4.92699 13.9552 4.5098 13.6744C3.33792 12.8878 2.00995 11.9958 1.96402 10.7864C1.89839 9.00001 3.93277 7.73298 5.70839 6.82876C7.05417 6.14438 8.22417 5.69063 9.28542 5.44266C10.776 5.09438 12.0351 5.1647 13.027 5.65079C13.5698 5.91657 13.8239 6.49454 13.6626 7.08891C13.2407 8.63345 11.4928 9.69188 9.99792 10.1681C9.09745 10.455 8.33105 10.575 7.65417 10.5356C6.80574 10.4864 6.11292 10.0608 5.81667 9.87938C5.76921 9.84697 5.71902 9.81874 5.66667 9.79501L5.65308 9.79173C5.62625 9.78505 5.59811 9.78589 5.57173 9.79416C5.54535 9.80243 5.52176 9.81781 5.50355 9.8386C5.44261 9.91126 5.46417 10.0261 5.4862 10.0842C5.77449 10.8375 6.3698 11.3133 7.25527 11.4984C7.54506 11.5565 7.84004 11.5846 8.13558 11.5824C10.2079 11.5824 12.8521 10.3875 13.8234 9.4036C14.4857 8.73329 14.9681 8.04423 15.1678 6.85595C15.3764 5.61141 14.5326 4.74657 13.6729 4.34813C11.5837 3.38392 9.21089 3.76501 7.58808 4.25438C5.68964 4.82673 3.72558 5.86735 2.20027 7.11048C0.319642 8.64188 -0.360046 10.0636 0.179017 11.3409C0.732611 12.6502 2.08261 13.4691 3.38808 14.2613C3.80995 14.5167 4.2112 14.76 4.57261 15.0113C4.46386 15.0642 4.35277 15.1181 4.2398 15.172C3.14386 15.7031 1.90074 16.3008 1.2112 17.2884C0.710579 18.008 0.616829 18.7242 0.932767 19.4175C1.10152 19.7864 1.40152 20.0367 1.81824 20.1614C2.03501 20.2228 2.25951 20.2527 2.4848 20.25C3.2962 20.25 4.18917 19.9219 4.67527 19.6186C5.53402 19.0795 6.09042 18.3558 6.32949 17.4675C6.5423 16.6772 6.4912 15.892 6.18183 15.1913L7.23417 14.6606C6.72652 16.3481 7.11558 17.3559 7.54308 17.9119C7.70058 18.1167 7.98464 18.24 8.30199 18.2456C8.61933 18.2513 8.91136 18.1317 9.07636 17.9283C9.38855 17.5416 9.61917 17.0892 9.83152 16.6369C9.82027 16.9322 9.83433 17.2313 9.93511 17.4849C10.0256 17.7131 10.1746 17.8645 10.3668 17.9227C10.5712 17.985 10.8107 17.9325 11.0414 17.775C12.0806 17.0639 12.7912 15.3572 13.3621 13.9852C13.4432 13.7902 13.521 13.6027 13.5965 13.4274C13.7378 13.9329 13.9343 14.4213 14.1825 14.8838C14.2378 14.9841 14.2331 15.0281 14.1581 15.1106C14.0451 15.2344 13.8876 15.3839 13.7207 15.5424C13.2154 16.0219 12.5864 16.6205 12.502 17.1469C12.4692 17.3578 12.6145 17.55 12.84 17.5936C13.5182 17.7286 14.3353 17.5313 15.0262 17.0663C15.6543 16.6444 15.8906 16.0561 15.7293 15.323C15.5732 14.617 15.9295 13.7405 16.7882 12.7158C16.9289 13.3031 17.1164 13.778 17.3751 14.1938L17.3681 14.1994C16.7428 14.7455 15.8859 15.4931 16.019 16.4002C16.0302 16.4864 16.0592 16.5694 16.1042 16.6438C16.1493 16.7182 16.2093 16.7824 16.2806 16.8324C16.3567 16.8838 16.4426 16.9189 16.533 16.9355C16.6233 16.9521 16.7161 16.9499 16.8056 16.9289C17.6245 16.7569 18.2409 16.4105 18.689 15.8709C19.1371 15.3314 18.9735 14.7333 18.8226 14.2692C19.9945 13.9514 21.0379 13.9594 22.0148 14.2927C22.5632 14.4802 22.9565 14.7881 23.1834 15.2133C23.4689 15.7481 23.3146 16.2417 22.7479 16.6031C22.574 16.7142 22.4901 16.7822 22.485 16.868C22.4838 16.8879 22.4875 16.9078 22.4956 16.926C22.5038 16.9442 22.5162 16.9601 22.5318 16.9725C22.5975 17.0264 22.8 17.1202 23.2579 16.8319C23.6798 16.567 23.9273 16.2066 23.9906 15.7538C24.0033 15.6289 24.0032 15.5031 23.9901 15.3783V15.3783ZM5.25277 16.553L5.24808 16.613C5.17495 17.2992 4.8262 17.8974 4.2098 18.3942C3.82261 18.7064 3.40214 18.8981 3.0262 18.9347C2.7637 18.96 2.57292 18.9244 2.45949 18.8283C2.37464 18.7566 2.32917 18.6492 2.31886 18.5002C2.24199 17.3058 4.11511 16.1189 5.16933 15.7284C5.24457 15.9964 5.2728 16.2754 5.25277 16.553ZM10.0504 13.1845C9.87698 14.1731 9.3712 16.0392 8.5762 16.7634C8.53824 16.7981 8.50636 16.8103 8.49183 16.807C8.4773 16.8038 8.46605 16.7864 8.45433 16.7602C8.18902 16.1452 8.28699 15.1064 8.6887 14.2903C8.99761 13.6613 9.4387 13.2445 9.93183 13.1184C9.9523 13.1128 9.97341 13.1098 9.99464 13.1095C10.0112 13.1084 10.0278 13.1128 10.0415 13.1222C10.0473 13.1314 10.0511 13.1417 10.0526 13.1524C10.0542 13.1632 10.0534 13.1741 10.0504 13.1845ZM13.964 16.7883C13.8145 16.9444 13.6096 16.9233 13.6579 16.8661L14.4192 16.058C14.3578 16.3359 14.1764 16.5661 13.964 16.7883ZM17.122 16.0894C17.0496 16.1251 16.9713 16.1471 16.8909 16.1545C16.8693 15.7294 17.2814 15.2508 17.6878 14.9316C17.797 15.375 17.5734 15.8438 17.122 16.0894V16.0894Z"
              fill="#1F1D25"/>
    </g>
    <defs>
        <clipPath id="clip0">
            <rect width="24" height="24" fill="white"/>
        </clipPath>
    </defs>
</svg>
