<svg width="24" height="24" viewBox="0 0 24 24" fill="none" xmlns="http://www.w3.org/2000/svg">
    <path d="M16.1301 10.9502C14.7754 10.9502 14.5879 12.3002 14.5879 12.3002H17.466C17.466 12.3002 17.4848 10.9502 16.1301 10.9502Z"
          fill="#1F1D25"/>
    <path d="M9.59981 12.2998H7.0498V14.6436H9.47324C9.83887 14.6342 10.5232 14.5311 10.5232 13.5045C10.5232 12.2857 9.59981 12.2998 9.59981 12.2998Z"
          fill="#1F1D25"/>
    <path d="M12 1.5C6.20156 1.5 1.5 6.20156 1.5 12C1.5 17.7984 6.20156 22.5 12 22.5C17.7984 22.5 22.5 17.7984 22.5 12C22.5 6.20156 17.7984 1.5 12 1.5ZM14.2125 7.95H17.8266V9.02813H14.2125V7.95ZM12.3844 13.6125C12.3844 16.2844 9.6 16.2 9.6 16.2H5.04375V7.43438H9.6C10.9875 7.43438 12.0797 8.19844 12.0797 9.76875C12.0797 11.3391 10.7437 11.4375 10.7437 11.4375C12.5062 11.4375 12.3844 13.6125 12.3844 13.6125ZM19.1437 13.4672H14.6016C14.6016 15.0937 16.1437 14.9906 16.1437 14.9906C17.6016 14.9906 17.55 14.0484 17.55 14.0484H19.0922C19.0922 16.5516 16.0922 16.3781 16.0922 16.3781C12.4969 16.3781 12.7266 13.0266 12.7266 13.0266C12.7266 13.0266 12.7219 9.66094 16.0922 9.66094C19.6406 9.66563 19.1437 13.4672 19.1437 13.4672V13.4672Z"
          fill="#1F1D25"/>
    <path d="M10.2186 9.90449C10.2186 8.99512 9.59981 8.99512 9.59981 8.99512H7.0498V10.9498H9.44043C9.85293 10.9498 10.2186 10.8139 10.2186 9.90449Z"
          fill="#1F1D25"/>
</svg>
