<svg width="24" height="24" viewBox="0 0 24 24" fill="none" xmlns="http://www.w3.org/2000/svg">
    <path d="M5.08863 16.0679C4.52986 16.0699 3.98422 16.2374 3.52054 16.5492C3.05687 16.8611 2.69594 17.3032 2.48331 17.82C2.27067 18.3367 2.21586 18.9048 2.32577 19.4527C2.43569 20.0005 2.70542 20.5036 3.10092 20.8983C3.49643 21.293 3.99999 21.5617 4.54806 21.6706C5.09613 21.7794 5.66416 21.7235 6.18047 21.5098C6.69678 21.2961 7.13824 20.9343 7.44914 20.47C7.76004 20.0057 7.92646 19.4598 7.92739 18.901C7.92503 18.1494 7.62502 17.4293 7.09299 16.8983C6.56097 16.3673 5.84028 16.0687 5.08863 16.0679Z"
          fill="#1F1D25"/>
    <path d="M2.25 8.75V12.807C4.6875 12.807 7.02844 13.5284 8.75016 15.2497C10.4719 16.9709 11.1877 19.3072 11.1877 21.7498H15.2498C15.2498 14.6455 9.35953 8.75 2.25 8.75Z"
          fill="#1F1D25"/>
    <path d="M2.25 2.25V6.3075C10.9336 6.3075 17.6822 13.0612 17.6822 21.75H21.75C21.75 10.9997 13.0158 2.25 2.25 2.25Z"
          fill="#1F1D25"/>
</svg>
