<svg width="24" height="24" viewBox="0 0 24 24" fill="none" xmlns="http://www.w3.org/2000/svg">
    <path d="M16.3654 6.41602C14.4754 6.41602 13.6766 7.31789 12.3604 7.31789C11.0108 7.31789 9.98147 6.42258 8.34366 6.42258C6.74053 6.42258 5.031 7.40133 3.94538 9.06867C2.421 11.4199 2.67975 15.8482 5.14866 19.6207C6.03178 20.9712 7.21116 22.4857 8.75803 22.5021H8.78616C10.1305 22.5021 10.5299 21.6218 12.3801 21.6115H12.4082C14.2307 21.6115 14.5963 22.497 15.9351 22.497H15.9632C17.5101 22.4805 18.7527 20.8024 19.6358 19.4571C20.2715 18.4896 20.5077 18.004 20.9952 16.9095C17.4238 15.5538 16.8501 10.4909 20.3821 8.54977C19.304 7.19977 17.789 6.41789 16.3607 6.41789L16.3654 6.41602Z"
          fill="#1F1D25"/>
    <path d="M15.9496 1.5C14.8246 1.57641 13.5121 2.29266 12.7433 3.22781C12.0458 4.07531 11.4721 5.3325 11.6971 6.55172H11.7871C12.9852 6.55172 14.2114 5.83031 14.9277 4.90594C15.6177 4.02609 16.1408 2.77922 15.9496 1.5Z"
          fill="#1F1D25"/>
</svg>
