<svg width="24" height="24" viewBox="0 0 24 24" fill="none" xmlns="http://www.w3.org/2000/svg">
    <path d="M22.0993 9.12283V9.11954C22.089 9.08392 22.0782 9.04829 22.0675 9.01267C22.0651 9.00376 22.0623 8.99486 22.0595 8.98642C22.0393 8.91892 22.0187 8.85142 21.9971 8.78439L21.9943 8.77501C21.8628 8.3664 21.7063 7.96627 21.5256 7.57689C21.3506 7.19123 21.1485 6.81843 20.9209 6.46126C20.0418 5.04908 18.8414 3.86469 17.4175 3.0047V3.0047C15.7829 2.01749 13.9092 1.49709 11.9996 1.50001C11.6715 1.50001 11.3434 1.51595 11.0237 1.54689C9.89309 1.66595 7.98715 2.07236 6.44074 3.43033C12.07 0.55595 19.5906 4.0172 18.9507 10.4531C18.7229 12.75 16.7729 14.3283 14.9575 14.5945C14.6346 14.6439 14.3063 14.6472 13.9825 14.6044C9.54855 13.988 9.81996 10.3538 11.1671 8.79986C9.3859 8.78861 8.00449 10.9931 8.67574 13.1592C7.13121 10.2914 8.69215 5.79986 12.0006 4.44048C8.1123 3.87798 4.4673 5.76236 3.2959 9.03751C3.43579 7.84036 3.71503 6.66363 4.12793 5.53126C4.12793 5.53126 2.00824 7.20657 1.57605 10.7297C1.56949 10.7841 1.5634 10.8385 1.55777 10.8933C1.55543 10.912 1.55355 10.9308 1.55168 10.95C1.53512 11.1141 1.52262 11.2792 1.51418 11.4455C1.51418 11.4581 1.51418 11.4708 1.51418 11.4835C1.5109 11.5528 1.50809 11.6241 1.50621 11.6925V11.7511C1.50621 11.8336 1.50293 11.9161 1.50293 11.9991C1.50293 17.798 6.20402 22.4991 12.0029 22.4991C17.8018 22.4991 22.4996 17.7989 22.4996 12C22.5002 11.027 22.3654 10.0587 22.0993 9.12283V9.12283Z"
          fill="#1F1D25"/>
</svg>
