<svg width="24" height="24" viewBox="0 0 24 24" fill="none" xmlns="http://www.w3.org/2000/svg">
    <path d="M14.7096 14.2453L21.9846 1.5H17.1096L9.81588 14.2406C9.80674 14.2519 9.80176 14.266 9.80176 14.2805C9.80176 14.295 9.80674 14.309 9.81588 14.3203L14.4518 22.4672C14.4706 22.5 14.4893 22.5 14.5268 22.5H19.3596L14.7049 14.3109C14.7011 14.3003 14.6996 14.2889 14.7004 14.2776C14.7012 14.2663 14.7043 14.2553 14.7096 14.2453V14.2453Z"
          fill="#1F1D25"/>
    <path d="M10.4016 10.1342L7.64062 5.29668C7.63144 5.28042 7.61762 5.26727 7.60091 5.25892C7.58421 5.25057 7.56539 5.2474 7.54688 5.24981H3.04688L5.80781 10.1436C5.81393 10.1551 5.8156 10.1684 5.8125 10.1811L2.01562 16.4998H6.55313C6.5685 16.5018 6.58409 16.4987 6.5976 16.4911C6.6111 16.4835 6.62181 16.4718 6.62812 16.4576L10.4016 10.1904C10.4062 10.172 10.4062 10.1526 10.4016 10.1342V10.1342Z"
          fill="#1F1D25"/>
</svg>
