<svg width="24" height="24" viewBox="0 0 24 24" fill="none" xmlns="http://www.w3.org/2000/svg">
    <path d="M17.625 12H16.875V14.25H17.625V12Z" fill="#1F1D25"/>
    <path d="M5.25 14.25H11.325L9.075 12H5.25V14.25Z" fill="#1F1D25"/>
    <path d="M17.0859 2.81719C17.0697 2.80886 17.054 2.79946 17.0391 2.78906C16.5224 2.51215 15.9829 2.28005 15.4266 2.09531L15.1734 2.01094C14.1483 1.67818 13.0778 1.50583 12 1.5C6.20156 1.5 1.5 6.20156 1.5 12C1.49952 13.8736 2.00101 15.7131 2.95232 17.3272C3.90364 18.9413 5.27002 20.271 6.90938 21.1781C6.92813 21.1875 6.94219 21.2016 6.96094 21.2109C7.47762 21.4878 8.0171 21.7199 8.57344 21.9047L8.82656 21.9891C9.85165 22.3222 10.9222 22.4945 12 22.5C17.7984 22.5 22.5 17.7984 22.5 12C22.5006 10.1252 21.9987 8.28451 21.0465 6.66952C20.0943 5.05452 18.7267 3.72425 17.0859 2.81719V2.81719ZM12 19.9875C11.5726 19.986 11.1461 19.9483 10.725 19.875C10.2706 19.7997 9.82366 19.6852 9.38906 19.5328C9.3 19.5047 9.21094 19.4766 9.12656 19.4437C8.82136 19.3286 8.52387 19.1939 8.23594 19.0406C6.95968 18.3591 5.89259 17.3437 5.1487 16.1028C4.40481 14.8618 4.01209 13.4421 4.0125 11.9953C4.0125 10.2516 4.59375 8.64844 5.54531 7.33594L16.6641 18.4547C15.3469 19.4063 13.7438 19.9875 12 19.9875ZM18.4594 16.6594L7.34063 5.54062C8.65313 4.59375 10.2516 4.0125 12 4.0125C12.4274 4.01423 12.8539 4.05186 13.275 4.125C13.7294 4.20028 14.1763 4.31477 14.6109 4.46719C14.6953 4.49531 14.7844 4.52344 14.8734 4.55625C15.1621 4.66554 15.4439 4.79234 15.7172 4.93594C17.0068 5.61205 18.0869 6.62813 18.8405 7.87413C19.594 9.12012 19.9923 10.5485 19.9922 12.0047C19.9875 13.7484 19.4062 15.3469 18.4594 16.6594Z"
          fill="#1F1D25"/>
    <path d="M16.5 12H14.9062L16.5 13.5938V12Z" fill="#1F1D25"/>
    <path d="M18.75 12H18V14.25H18.75V12Z" fill="#1F1D25"/>
    <path d="M16.8799 9.96992C16.4674 9.77773 15.8486 9.70273 14.7424 9.70273H14.5736C13.9783 9.70742 13.8283 9.69805 13.6361 9.4168C13.5049 9.21992 13.5893 8.72305 13.8096 8.39023C13.8471 8.33384 13.8687 8.26832 13.872 8.20063C13.8753 8.13295 13.8602 8.06564 13.8283 8.00586C13.796 7.94656 13.7487 7.89675 13.6911 7.86139C13.6335 7.82603 13.5677 7.80635 13.5002 7.8043C13.2058 7.79406 12.9154 7.73218 12.6424 7.62148C12.1455 7.41055 11.9111 7.0543 11.9111 6.53867C11.9111 5.3293 12.933 5.24023 12.9799 5.24023V4.49023C12.4174 4.49023 11.1611 5.00586 11.1611 6.53867C11.1611 7.35898 11.583 7.9918 12.3658 8.31992C12.5476 8.39373 12.7359 8.45023 12.9283 8.48867C12.7736 8.94805 12.7596 9.46836 13.008 9.83398C13.4299 10.4574 13.9596 10.4527 14.5689 10.448H14.733C15.9658 10.448 16.3549 10.5559 16.5564 10.6496C16.8236 10.7715 16.8752 11.0012 16.8658 11.3855V11.4324H17.6158V11.3855C17.6158 11.0527 17.6299 10.3168 16.8799 9.96992Z"
          fill="#1F1D25"/>
    <path d="M18.75 11.4377C18.75 10.233 18.6094 9.60019 18.3234 9.11269C17.9203 8.43769 17.2734 8.0627 16.5 8.0627H15.6844C15.8203 7.67363 15.9375 7.13457 15.8484 6.61426C15.6984 5.73301 14.9531 5.20801 13.8281 5.20801V5.95801C14.8125 5.95801 15.0516 6.38457 15.1125 6.74082C15.2297 7.42051 14.7938 8.24551 14.7891 8.25488C14.7577 8.31173 14.7417 8.37575 14.7425 8.44066C14.7433 8.50557 14.761 8.56916 14.7938 8.6252C14.8273 8.68095 14.8748 8.72708 14.9314 8.7591C14.9881 8.79113 15.0521 8.80798 15.1172 8.80801H16.5C17.0109 8.80801 17.4094 9.0377 17.6766 9.49238C17.8219 9.74082 18 10.1252 18 11.433H18.75V11.4377Z"
          fill="#1F1D25"/>
</svg>
