<svg width="24" height="24" viewBox="0 0 24 24" fill="none" xmlns="http://www.w3.org/2000/svg">
    <path d="M11.3077 14.2472C10.5896 13.7616 9.8668 13.283 9.14867 12.7974C9.05492 12.7327 8.98789 12.728 8.89086 12.7974L7.06836 14.0217C8.53086 14.9953 11.4371 16.9369 11.4371 16.9369V14.4155C11.4371 14.3583 11.3645 14.2852 11.3077 14.2472Z"
          fill="#1F1D25"/>
    <path d="M9.14531 11.2814C9.87 10.8052 10.5905 10.323 11.3067 9.83488C11.3446 9.80443 11.3759 9.76649 11.3985 9.72342C11.421 9.68035 11.4345 9.63308 11.438 9.58457V7.16113C11.438 7.16113 8.53172 9.08863 7.06641 10.0646C7.70859 10.4939 8.31656 10.9041 8.93109 11.3039C8.97891 11.3349 9.09047 11.3171 9.14531 11.2814Z"
          fill="#1F1D25"/>
    <path d="M12.6487 9.81324C13.3897 10.3154 14.1339 10.8126 14.8814 11.3048C14.9093 11.3187 14.94 11.3259 14.9712 11.3259C15.0023 11.3259 15.033 11.3187 15.0609 11.3048L16.9247 10.064L12.5625 7.14746V9.64824C12.5642 9.68031 12.5728 9.71164 12.5877 9.7401C12.6026 9.76857 12.6234 9.79351 12.6487 9.81324Z"
          fill="#1F1D25"/>
    <path d="M12.0991 10.7989C12.064 10.7828 12.0256 10.7751 11.9871 10.7765C11.9485 10.7779 11.9107 10.7883 11.8769 10.8069C11.651 10.9475 11.433 11.0975 11.2127 11.2452C10.826 11.5044 10.0244 12.0421 10.0244 12.0421L11.845 13.2543C11.8891 13.2812 11.9395 13.2958 11.9911 13.2967C12.0426 13.2976 12.0935 13.2848 12.1385 13.2594L13.9666 12.0407C13.9666 12.0407 12.3696 10.9785 12.0991 10.7989Z"
          fill="#1F1D25"/>
    <path d="M6.60938 11.1152V12.972L7.99781 12.042L6.60938 11.1152Z" fill="#1F1D25"/>
    <path d="M12 1.5C6.20109 1.5 1.5 6.20109 1.5 12C1.5 17.7989 6.20109 22.5 12 22.5C17.7989 22.5 22.5 17.7989 22.5 12C22.5 6.20109 17.7989 1.5 12 1.5ZM18.5156 13.9219C18.5156 14.1928 18.3914 14.3841 18.1636 14.5355C16.2352 15.8167 14.3088 17.1009 12.3844 18.3881C12.1102 18.5719 11.8608 18.5639 11.5875 18.3816C9.67594 17.1003 7.75984 15.8242 5.83922 14.5533C5.59969 14.3944 5.48344 14.1989 5.48344 13.9097V10.1719C5.48344 9.88406 5.60156 9.68719 5.84062 9.52875C7.75828 8.25703 9.68156 6.98062 11.5936 5.7C11.8664 5.51766 12.1134 5.5125 12.3877 5.69578C14.3108 6.98359 16.2367 8.26781 18.1655 9.54844C18.3848 9.69422 18.5147 9.87422 18.5147 10.1419L18.5156 13.9219Z"
          fill="#1F1D25"/>
    <path d="M14.8243 12.8073C14.1183 13.2867 13.4091 13.7607 12.6966 14.2295C12.5837 14.3035 12.5612 14.3846 12.5626 14.5196V16.9262L16.9219 14.0199L15.1158 12.8068C15.008 12.7314 14.9335 12.7332 14.8243 12.8073Z"
          fill="#1F1D25"/>
    <path d="M17.3441 12.9695V11.1123L15.957 12.0437L17.3441 12.9695Z" fill="#1F1D25"/>
</svg>
