<svg width="24" height="24" viewBox="0 0 24 24" fill="none" xmlns="http://www.w3.org/2000/svg">
    <path d="M22.6462 1.51085C22.6068 1.50468 22.567 1.50108 22.5271 1.50007H1.48026C1.0776 1.49445 0.755102 1.82257 0.749477 2.23835C0.747665 2.28238 0.751286 2.32646 0.760258 2.3696L3.8212 21.6469C3.85948 21.8803 3.97503 22.0941 4.14932 22.254V22.254C4.32174 22.4119 4.54694 22.4996 4.78073 22.5001H19.461C19.6368 22.5003 19.8067 22.4367 19.939 22.3209C20.0713 22.2052 20.157 22.0453 20.1801 21.871L22.0026 10.2502H15.2428L14.3774 15.5002H9.6187L8.4126 8.56273H22.2679L23.241 2.37523C23.3006 1.96507 23.0357 1.57648 22.6462 1.51085Z"
          fill="#1F1D25"/>
</svg>
