<svg width="24" height="24" viewBox="0 0 24 24" fill="none" xmlns="http://www.w3.org/2000/svg">
    <path d="M1.87176 6.99609L11.1249 11.4642C11.3658 11.5791 11.6874 11.6391 12.0057 11.6391C12.3239 11.6391 12.6455 11.5791 12.886 11.4642L22.1391 6.99609C22.6257 6.76172 22.6257 6.37828 22.1391 6.14297L12.886 1.67484C12.6455 1.56 12.3235 1.5 12.0057 1.5C11.6879 1.5 11.3658 1.56 11.1249 1.67484L1.87176 6.14297C1.3852 6.37828 1.3852 6.76078 1.87176 6.99609Z"
          fill="#1F1D25"/>
    <path d="M22.1386 11.573C22.1386 11.573 20.4487 10.7584 20.2247 10.6487C20.0006 10.539 19.9402 10.5451 19.7048 10.6543C19.4695 10.7635 12.8798 13.9463 12.8798 13.9463C12.6021 14.0663 12.3021 14.126 11.9995 14.1216C11.6822 14.1216 11.3597 14.0612 11.1192 13.9463C11.1192 13.9463 4.70437 10.8526 4.40344 10.7035C4.07766 10.5465 3.98391 10.5465 3.68719 10.6871L1.85906 11.5674C1.3725 11.8018 1.3725 12.1857 1.85906 12.4205L11.1136 16.8887C11.3541 17.0035 11.6761 17.0635 11.9939 17.0635C12.3117 17.0635 12.6338 17.0035 12.8747 16.8887L22.1278 12.4215C22.6252 12.1909 22.6252 11.8084 22.1386 11.573Z"
          fill="#1F1D25"/>
    <path d="M22.1387 17.0027C22.1387 17.0027 20.4488 16.188 20.2248 16.0769C20.0007 15.9659 19.9402 15.9734 19.7049 16.0826C19.4696 16.1918 12.8855 19.3816 12.8855 19.3816C12.6077 19.5014 12.3077 19.561 12.0052 19.5565C11.6879 19.5565 11.3654 19.4965 11.1245 19.3816C11.1245 19.3816 4.70961 16.2879 4.40914 16.1388C4.08102 15.9799 3.98727 15.9799 3.69242 16.1224L1.8643 17.0027C1.37727 17.2371 1.37727 17.6205 1.8643 17.8559L11.1174 22.324C11.3579 22.444 11.6799 22.4988 11.9977 22.4988C12.3155 22.4988 12.6376 22.4388 12.878 22.324L22.133 17.8582C22.6252 17.6205 22.6252 17.238 22.1387 17.0027Z"
          fill="#1F1D25"/>
</svg>
