<svg width="24" height="24" viewBox="0 0 24 24" fill="none" xmlns="http://www.w3.org/2000/svg">
    <path d="M5.91188 14.7703C5.9115 15.2065 5.78181 15.6328 5.5392 15.9954C5.29658 16.3579 4.95193 16.6403 4.54881 16.807C4.1457 16.9737 3.70222 17.0171 3.27443 16.9318C2.84665 16.8464 2.45376 16.6362 2.14544 16.3276C1.83712 16.019 1.62722 15.626 1.54225 15.1981C1.45729 14.7702 1.50108 14.3268 1.6681 13.9238C1.83511 13.5209 2.11786 13.1764 2.48058 12.9341C2.8433 12.6918 3.26972 12.5625 3.70594 12.5625H5.91188V14.7703Z"
          fill="#1F1D25"/>
    <path d="M7.02344 14.7636C7.02344 14.1785 7.25585 13.6174 7.66954 13.2037C8.08324 12.79 8.64432 12.5576 9.22938 12.5576C9.81443 12.5576 10.3755 12.79 10.7892 13.2037C11.2029 13.6174 11.4353 14.1785 11.4353 14.7636V20.2873C11.4353 20.8724 11.2029 21.4334 10.7892 21.8471C10.3755 22.2608 9.81443 22.4932 9.22938 22.4932C8.64432 22.4932 8.08324 22.2608 7.66954 21.8471C7.25585 21.4334 7.02344 20.8724 7.02344 20.2873V14.7636Z"
          fill="#1F1D25"/>
    <path d="M9.22945 5.91188C8.79324 5.9115 8.36693 5.78181 8.00441 5.5392C7.64189 5.29658 7.35945 4.95193 7.19277 4.54881C7.0261 4.1457 6.98268 3.70222 7.06801 3.27443C7.15334 2.84665 7.36358 2.45376 7.67216 2.14544C7.98074 1.83712 8.3738 1.62722 8.80166 1.54225C9.22952 1.45729 9.67296 1.50108 10.0759 1.6681C10.4789 1.83511 10.8233 2.11786 11.0656 2.48058C11.3079 2.8433 11.4373 3.26972 11.4373 3.70594V5.91188H9.22945Z"
          fill="#1F1D25"/>
    <path d="M9.22969 7.02002C9.81474 7.02002 10.3758 7.25243 10.7895 7.66612C11.2032 8.07982 11.4356 8.64091 11.4356 9.22596C11.4356 9.81101 11.2032 10.3721 10.7895 10.7858C10.3758 11.1995 9.81474 11.4319 9.22969 11.4319H3.70594C3.12089 11.4319 2.5598 11.1995 2.1461 10.7858C1.73241 10.3721 1.5 9.81101 1.5 9.22596C1.5 8.64091 1.73241 8.07982 2.1461 7.66612C2.5598 7.25243 3.12089 7.02002 3.70594 7.02002H9.22969Z"
          fill="#1F1D25"/>
    <path d="M18.0879 9.23434C18.0883 8.79812 18.218 8.37181 18.4606 8.0093C18.7032 7.64678 19.0478 7.36433 19.451 7.19765C19.8541 7.03098 20.2976 6.98756 20.7253 7.07289C21.1531 7.15822 21.546 7.36846 21.8543 7.67704C22.1626 7.98562 22.3726 8.37869 22.4575 8.80654C22.5425 9.2344 22.4987 9.67785 22.3317 10.0808C22.1647 10.4838 21.8819 10.8282 21.5192 11.0705C21.1565 11.3128 20.73 11.4421 20.2938 11.4421H18.0879V9.23434Z"
          fill="#1F1D25"/>
    <path d="M16.9763 9.22969C16.9763 9.81474 16.7439 10.3758 16.3302 10.7895C15.9165 11.2032 15.3554 11.4356 14.7704 11.4356C14.1853 11.4356 13.6243 11.2032 13.2106 10.7895C12.7969 10.3758 12.5645 9.81474 12.5645 9.22969V3.70594C12.5645 3.12089 12.7969 2.5598 13.2106 2.1461C13.6243 1.73241 14.1853 1.5 14.7704 1.5C15.3554 1.5 15.9165 1.73241 16.3302 2.1461C16.7439 2.5598 16.9763 3.12089 16.9763 3.70594V9.22969Z"
          fill="#1F1D25"/>
    <path d="M14.7703 18.0928C15.2065 18.0931 15.6328 18.2228 15.9954 18.4655C16.3579 18.7081 16.6403 19.0527 16.807 19.4558C16.9737 19.859 17.0171 20.3024 16.9318 20.7302C16.8464 21.158 16.6362 21.5509 16.3276 21.8592C16.019 22.1675 15.626 22.3774 15.1981 22.4624C14.7702 22.5474 14.3268 22.5036 13.9238 22.3366C13.5209 22.1695 13.1764 21.8868 12.9341 21.5241C12.6918 21.1613 12.5625 20.7349 12.5625 20.2987V18.0928H14.7703Z"
          fill="#1F1D25"/>
    <path d="M14.7704 16.9695C14.1853 16.9695 13.6243 16.7371 13.2106 16.3234C12.7969 15.9097 12.5645 15.3486 12.5645 14.7636C12.5645 14.1785 12.7969 13.6174 13.2106 13.2037C13.6243 12.79 14.1853 12.5576 14.7704 12.5576H20.2941C20.8792 12.5576 21.4403 12.79 21.854 13.2037C22.2677 13.6174 22.5001 14.1785 22.5001 14.7636C22.5001 15.3486 22.2677 15.9097 21.854 16.3234C21.4403 16.7371 20.8792 16.9695 20.2941 16.9695H14.7704Z"
          fill="#1F1D25"/>
</svg>
