<svg width="24" height="24" viewBox="0 0 24 24" fill="none" xmlns="http://www.w3.org/2000/svg">
    <path d="M19.1563 13.9934C18.9614 13.9943 18.7706 13.9374 18.6081 13.8298C18.4456 13.7222 18.3187 13.5688 18.2435 13.389C18.1682 13.2092 18.1481 13.0111 18.1855 12.8199C18.223 12.6286 18.3164 12.4528 18.4538 12.3147C18.5913 12.1765 18.7667 12.0823 18.9578 12.0439C19.1489 12.0056 19.347 12.0248 19.5272 12.0992C19.7073 12.1735 19.8613 12.2997 19.9697 12.4617C20.0781 12.6236 20.1359 12.8142 20.1359 13.009C20.1369 13.1382 20.1122 13.2662 20.0634 13.3858C20.0145 13.5053 19.9425 13.614 19.8514 13.7055C19.7603 13.797 19.6519 13.8696 19.5326 13.919C19.4133 13.9684 19.2854 13.9937 19.1563 13.9934V13.9934ZM14.367 13.9934C14.1721 13.9943 13.9814 13.9374 13.8189 13.8298C13.6564 13.7222 13.5295 13.5688 13.4543 13.389C13.379 13.2092 13.3589 13.0111 13.3963 12.8199C13.4338 12.6286 13.5271 12.4528 13.6646 12.3147C13.8021 12.1765 13.9775 12.0823 14.1686 12.0439C14.3596 12.0056 14.5578 12.0248 14.738 12.0992C14.9181 12.1735 15.0721 12.2997 15.1805 12.4617C15.2889 12.6236 15.3467 12.8142 15.3467 13.009C15.3477 13.1382 15.3231 13.2663 15.2743 13.3858C15.2254 13.5054 15.1534 13.6141 15.0623 13.7057C14.9712 13.7972 14.8628 13.8698 14.7435 13.9192C14.6241 13.9686 14.4962 13.9938 14.367 13.9934V13.9934ZM21.4963 19.565C23.0202 18.4723 23.9998 16.834 23.9998 14.9769C23.9998 11.645 20.7889 8.91357 16.7619 8.91357C12.7348 8.91357 9.52344 11.645 9.52344 14.9769C9.52344 18.3087 12.7344 21.0397 16.7619 21.0397C17.578 21.0397 18.3945 20.9304 19.1019 20.7115C19.2186 20.6712 19.265 20.6567 19.3194 20.6567C19.4537 20.6599 19.585 20.6977 19.7005 20.7664L21.2811 21.695C21.3322 21.7218 21.3873 21.7403 21.4442 21.7498C21.5008 21.746 21.5541 21.7217 21.5942 21.6815C21.6343 21.6414 21.6585 21.588 21.6622 21.5314C21.6586 21.4697 21.6464 21.4088 21.6261 21.3504C21.6069 21.282 21.3917 20.6004 21.2811 20.1659C21.2709 20.1123 21.2658 20.0578 21.2656 20.0033C21.2663 19.9167 21.2879 19.8316 21.3288 19.7552C21.3696 19.6789 21.4284 19.6136 21.5 19.565"
          fill="#1F1D25"/>
    <path d="M11.5373 8.36766C11.2331 8.36766 10.9414 8.24681 10.7263 8.0317C10.5112 7.81659 10.3903 7.52484 10.3903 7.22062C10.3903 6.91641 10.5112 6.62466 10.7263 6.40955C10.9414 6.19444 11.2331 6.07359 11.5373 6.07359C12.1359 6.07359 12.6802 6.61969 12.6802 7.22062C12.7345 7.82156 12.1903 8.36766 11.5373 8.36766ZM5.76891 8.36766C5.54195 8.36849 5.31984 8.30198 5.1307 8.17653C4.94156 8.05108 4.79388 7.87235 4.70637 7.66294C4.61885 7.45353 4.59542 7.22286 4.63905 7.00014C4.68268 6.77741 4.7914 6.57263 4.95146 6.41172C5.11152 6.25081 5.31572 6.141 5.53821 6.09618C5.7607 6.05137 5.99149 6.07357 6.20136 6.15997C6.41123 6.24638 6.59075 6.3931 6.7172 6.58157C6.84365 6.77004 6.91135 6.99179 6.91172 7.21875C6.91049 7.52186 6.78983 7.81226 6.5759 8.02698C6.36196 8.24171 6.072 8.36344 5.76891 8.36578V8.36766ZM8.65313 2.25C3.86391 2.25 0 5.47266 0 9.51562C0 11.7005 1.14281 13.6669 2.99297 14.978C3.15656 15.0862 3.1875 15.3281 3.1875 15.4219C3.19142 15.4934 3.1809 15.565 3.15656 15.6323C2.99297 16.1784 2.78437 17.0625 2.77547 17.1094C2.76656 17.1562 2.72109 17.2734 2.72109 17.3278C2.71877 17.3642 2.72421 17.4006 2.73703 17.4347C2.74985 17.4689 2.76977 17.4999 2.79548 17.5257C2.82118 17.5515 2.85208 17.5716 2.88612 17.5846C2.92017 17.5976 2.95659 17.6032 2.99297 17.6011C3.05135 17.5974 3.10775 17.5785 3.15656 17.5463L5.0625 16.4531C5.22609 16.3439 5.33484 16.3439 5.49797 16.3439C5.59131 16.3453 5.68361 16.3637 5.77031 16.3983C6.64078 16.6716 7.62047 16.7808 8.60016 16.7808H9.09C8.91157 16.1966 8.81981 15.5893 8.81766 14.9784C8.81766 11.3184 12.3553 8.36906 16.7091 8.36906H17.1989C16.5984 4.92656 13.0069 2.25 8.65313 2.25Z"
          fill="#1F1D25"/>
</svg>
