<svg width="24" height="24" viewBox="0 0 24 24" fill="none" xmlns="http://www.w3.org/2000/svg">
    <path d="M15.1875 12C14.8537 12 14.5275 12.099 14.25 12.2844C13.9725 12.4698 13.7562 12.7334 13.6285 13.0417C13.5007 13.3501 13.4673 13.6894 13.5324 14.0167C13.5975 14.3441 13.7583 14.6447 13.9943 14.8807C14.2303 15.1168 14.5309 15.2775 14.8583 15.3426C15.1856 15.4077 15.5249 15.3743 15.8333 15.2466C16.1416 15.1188 16.4052 14.9025 16.5906 14.625C16.776 14.3475 16.875 14.0213 16.875 13.6875C16.875 13.2399 16.6972 12.8107 16.3807 12.4943C16.0643 12.1778 15.6351 12 15.1875 12Z"
          fill="#1F1D25"/>
    <path d="M9.45803 15.2462C10.3191 14.8896 10.728 13.9025 10.3713 13.0414C10.0146 12.1804 9.02751 11.7715 8.16647 12.1281C7.30543 12.4848 6.89655 13.4719 7.2532 14.333C7.60985 15.194 8.59699 15.6029 9.45803 15.2462Z"
          fill="#1F1D25"/>
    <path d="M23.25 11.8955C23.25 10.4334 22.0716 9.24422 20.625 9.24422C20.0153 9.24417 19.4248 9.45742 18.9558 9.84703C17.3152 8.73281 15.1692 8.05078 12.8785 7.9125L13.9097 4.20938L17.0227 4.82812C17.1117 6.06937 18.1477 7.05422 19.3969 7.05422C20.7094 7.05422 21.7772 5.97609 21.7772 4.65375C21.7772 3.33141 20.6719 2.25 19.3594 2.25C18.4439 2.25 17.6574 2.77453 17.2571 3.59859L13.0383 2.76L11.5805 7.89375L11.3635 7.89984C8.99018 8.00344 6.75378 8.69344 5.04612 9.84656C4.57725 9.45552 3.98556 9.24224 3.37503 9.24422C1.92706 9.24422 0.750026 10.4334 0.750026 11.8955C0.747959 12.3608 0.868695 12.8185 1.10004 13.2223C1.3314 13.626 1.66517 13.9616 2.06768 14.1952C2.03965 14.4024 2.02571 14.6113 2.02596 14.8205C2.03112 16.6833 3.08018 18.4298 4.97909 19.7423C6.86065 21.0361 9.35206 21.75 12 21.75C14.648 21.75 17.145 21.0361 19.0233 19.7395C20.9232 18.427 21.9694 16.68 21.9694 14.8148C21.969 14.6064 21.9558 14.3982 21.93 14.1914C22.3328 13.9589 22.667 13.6241 22.8987 13.2209C23.1305 12.8178 23.2517 12.3605 23.25 11.8955V11.8955ZM19.4063 3.51562C19.6288 3.51562 19.8463 3.58161 20.0313 3.70522C20.2163 3.82884 20.3605 4.00454 20.4456 4.21011C20.5308 4.41567 20.5531 4.64187 20.5097 4.8601C20.4663 5.07833 20.3591 5.27879 20.2018 5.43612C20.0444 5.59345 19.844 5.7006 19.6258 5.74401C19.4075 5.78742 19.1813 5.76514 18.9758 5.67999C18.7702 5.59484 18.5945 5.45065 18.4709 5.26564C18.3473 5.08064 18.2813 4.86313 18.2813 4.64062C18.2813 4.34226 18.3998 4.05611 18.6108 3.84513C18.8218 3.63415 19.1079 3.51563 19.4063 3.51562ZM2.00253 11.8955C2.00115 11.528 2.14557 11.1751 2.40411 10.914C2.66264 10.6529 3.01417 10.505 3.38159 10.5028C3.60436 10.5033 3.8236 10.5585 4.02003 10.6636C3.29346 11.3391 2.75768 12.0891 2.42299 12.8986C2.2903 12.7673 2.18484 12.6111 2.11268 12.439C2.04052 12.2668 2.00309 12.0821 2.00253 11.8955V11.8955ZM18.3197 18.7031C16.6444 19.8558 14.401 20.4909 12.0024 20.4909C9.60378 20.4909 7.3594 19.8567 5.68549 18.7031C4.13862 17.6348 3.28362 16.2534 3.28362 14.8125C3.28448 14.3759 3.36305 13.9429 3.51565 13.5338C3.7819 12.7959 4.27315 12.105 4.97581 11.4811C5.19534 11.2872 5.42639 11.1067 5.66768 10.9406L5.68174 10.9308L5.69299 10.9228C7.36737 9.77344 9.60799 9.14156 12.0028 9.14156C14.3977 9.14156 16.6388 9.77484 18.3132 10.9228L18.3239 10.9308L18.3399 10.9425C18.5808 11.1079 18.8117 11.2876 19.0313 11.4806C19.7344 12.105 20.2257 12.7955 20.4919 13.5342C20.5885 13.8023 20.6563 14.08 20.6939 14.3625C20.7127 14.5125 20.7221 14.6636 20.7221 14.8148C20.7216 16.2548 19.8685 17.6362 18.3197 18.7031ZM21.5822 12.8944C21.248 12.0844 20.7122 11.3339 19.9852 10.6575C20.1824 10.5535 20.4021 10.4994 20.625 10.5C20.9924 10.5022 21.3439 10.6501 21.6023 10.9112C21.8608 11.1723 22.0051 11.5253 22.0036 11.8927C22.0033 12.0794 21.9659 12.2641 21.8935 12.4363C21.8212 12.6084 21.7154 12.7644 21.5822 12.8953V12.8944Z"
          fill="#1F1D25"/>
    <path d="M15.1517 16.9793C15.14 16.991 13.9536 18.2013 12.0041 18.2107C10.0353 18.2013 8.8972 17.0281 8.84892 16.9793C8.81257 16.9433 8.76346 16.923 8.71228 16.923C8.66109 16.923 8.61198 16.9433 8.57564 16.9793L7.93345 17.6107C7.91524 17.6288 7.90078 17.6503 7.89092 17.674C7.88105 17.6977 7.87598 17.7231 7.87598 17.7488C7.87598 17.7744 7.88105 17.7998 7.89092 17.8235C7.90078 17.8472 7.91524 17.8687 7.93345 17.8868C8.09282 18.0462 9.56001 19.4913 12.0013 19.5016C14.4359 19.4913 15.9097 18.0462 16.0691 17.8868C16.0873 17.8687 16.1018 17.8471 16.1116 17.8234C16.1215 17.7997 16.1266 17.7742 16.1266 17.7485C16.1266 17.7228 16.1215 17.6974 16.1116 17.6736C16.1018 17.6499 16.0873 17.6284 16.0691 17.6102L15.4264 16.9788C15.3902 16.943 15.3412 16.9229 15.2902 16.9229C15.2393 16.9229 15.1903 16.943 15.1541 16.9788L15.1517 16.9793Z"
          fill="#1F1D25"/>
</svg>
