<svg width="24" height="24" viewBox="0 0 24 24" fill="none" xmlns="http://www.w3.org/2000/svg">
    <path d="M20.145 6.09734L12.8592 1.72766C12.5975 1.57846 12.3015 1.5 12.0003 1.5C11.699 1.5 11.403 1.57846 11.1413 1.72766L3.85502 6.09687C3.59245 6.25778 3.37581 6.48369 3.22604 6.75277C3.07626 7.02185 2.99842 7.32502 3.00002 7.63297V16.3597C2.99845 16.6678 3.07629 16.9712 3.22605 17.2405C3.37581 17.5098 3.59243 17.736 3.85502 17.8972L5.76565 19.0381L5.77643 19.0442C6.74112 19.5378 7.11049 19.5378 7.53846 19.5378C9.04502 19.5378 9.98112 18.5628 9.98112 16.993V8.53156C9.98199 8.42593 9.94093 8.32425 9.86694 8.24886C9.79294 8.17346 9.69206 8.13049 9.58643 8.12937H8.53737C8.43173 8.13049 8.33085 8.17346 8.25686 8.24886C8.18287 8.32425 8.14181 8.42593 8.14268 8.53156V16.993C8.1465 17.1141 8.11894 17.2342 8.06268 17.3415C8.00642 17.4489 7.92337 17.5398 7.82159 17.6056C7.54502 17.7744 7.14331 17.7387 6.69002 17.5048L4.85909 16.4028C4.85208 16.398 4.84636 16.3916 4.84243 16.3841C4.83851 16.3765 4.8365 16.3682 4.83659 16.3597V7.75625C4.83689 7.74636 4.83956 7.73669 4.84437 7.72804C4.84918 7.71939 4.856 7.71203 4.86424 7.70656L11.9817 3.34719C11.9871 3.34454 11.9929 3.34317 11.9989 3.34317C12.0048 3.34317 12.0106 3.34454 12.016 3.34719L19.1377 7.70656C19.1458 7.71247 19.1524 7.72024 19.1568 7.72921C19.1613 7.73818 19.1636 7.7481 19.1635 7.75812V16.3597C19.1636 16.3686 19.1618 16.3774 19.1582 16.3855C19.1545 16.3936 19.1491 16.4008 19.1424 16.4066L12.0146 20.6558C12.0024 20.66 11.9892 20.66 11.9771 20.6558L10.1569 19.5748C10.1029 19.5395 10.0404 19.5191 9.97597 19.5158C9.91151 19.5124 9.8473 19.5261 9.78987 19.5556L9.77393 19.565C9.27143 19.8627 9.13643 19.94 8.67049 20.1097C8.59456 20.1373 8.41596 20.2034 8.40049 20.3802C8.38502 20.5569 8.55471 20.6825 8.70565 20.7702L11.1385 22.2641C11.3977 22.4193 11.6941 22.5015 11.9963 22.5017H12.0235C12.3181 22.4971 12.6063 22.4151 12.8592 22.2641L20.145 17.8986C20.4075 17.7369 20.624 17.5104 20.7737 17.2409C20.9234 16.9714 21.0013 16.668 21 16.3597V7.63297C21.0015 7.3251 20.9236 7.02206 20.7738 6.75307C20.6241 6.48408 20.4075 6.25824 20.145 6.09734V6.09734Z"
          fill="#1F1D25"/>
    <path d="M14.4319 14.9088C12.684 14.9088 12.3113 14.4204 12.2007 13.632C12.1882 13.5381 12.1425 13.4518 12.0718 13.3888C12.001 13.3259 11.9101 13.2904 11.8154 13.2888H10.8872C10.7826 13.291 10.6832 13.3346 10.6106 13.41C10.538 13.4854 10.4983 13.5864 10.5001 13.691C10.5001 14.3745 10.7401 16.6052 14.4338 16.6052C15.5766 16.6052 16.5272 16.338 17.1821 15.8323C17.8369 15.3265 18.1876 14.5905 18.1876 13.7135C18.1876 11.9534 17.0391 11.4715 14.7774 11.1565C12.4782 10.8368 12.4782 10.6741 12.4782 10.3179C12.4782 10.0615 12.4782 9.46102 14.1404 9.46102C15.323 9.46102 15.9563 9.61055 16.1588 10.3985C16.1767 10.4859 16.224 10.5645 16.2927 10.6213C16.3614 10.6782 16.4474 10.7099 16.5366 10.7112H17.468C17.5229 10.7106 17.5771 10.6984 17.6269 10.6753C17.6766 10.6522 17.7209 10.6187 17.7568 10.5771C17.8284 10.4935 17.8641 10.385 17.8561 10.2752C17.7357 8.60883 16.5174 7.76367 14.1418 7.76367C11.9827 7.76367 10.6941 8.73633 10.6941 10.3652C10.6941 12.1512 12.0296 12.656 14.0358 12.8651C16.3796 13.1074 16.3796 13.4609 16.3796 13.773C16.381 14.2596 16.179 14.9088 14.4319 14.9088Z"
          fill="#1F1D25"/>
</svg>
