<svg width="24" height="24" viewBox="0 0 24 24" fill="none" xmlns="http://www.w3.org/2000/svg">
    <path d="M14.7188 1.70501C13.8474 1.56158 12.5719 1.49548 11.7061 1.4997C10.8946 1.50064 10.0846 1.56932 9.28454 1.70501C7.14048 2.08001 6.75001 2.86283 6.75001 4.30845V5.9997H12V6.7497H5.04469C3.09657 6.7497 1.51548 9.07798 1.50001 11.9585C1.50001 11.972 1.50001 11.9856 1.50001 11.9997C1.49933 12.5033 1.54848 13.0058 1.64673 13.4997C2.08219 15.6691 3.43876 17.2497 5.04469 17.2497H6.00001V14.7185C6.00001 13.2513 6.97688 11.9083 8.57813 11.62L9.04079 11.5624H14.7188C14.9572 11.5633 15.1947 11.5318 15.4247 11.4686C15.9505 11.3282 16.4148 11.0174 16.7451 10.5849C17.0754 10.1524 17.253 9.62264 17.25 9.07845V4.30845C17.25 2.95283 16.0931 1.93048 14.7188 1.70501ZM9.13735 4.94501C8.94822 4.94566 8.76316 4.89013 8.60564 4.78546C8.44811 4.68079 8.32522 4.5317 8.25254 4.35709C8.17987 4.18248 8.16068 3.99022 8.19742 3.8047C8.23416 3.61917 8.32516 3.44873 8.4589 3.315C8.59263 3.18126 8.76307 3.09026 8.9486 3.05352C9.13412 3.01678 9.32638 3.03597 9.50099 3.10864C9.6756 3.18132 9.82469 3.30421 9.92936 3.46174C10.034 3.61926 10.0896 3.80432 10.0889 3.99345C10.089 4.11843 10.0644 4.24219 10.0166 4.35767C9.96881 4.47315 9.89872 4.57807 9.81035 4.66644C9.72197 4.75482 9.61705 4.82491 9.50157 4.87271C9.38609 4.9205 9.26233 4.94508 9.13735 4.94501V4.94501Z"
          fill="#1F1D25"/>
    <path d="M22.2787 10.1719C21.7772 8.17453 20.4783 6.75 18.9553 6.75H18.1252V8.97422C18.1252 10.8291 16.9064 12.172 15.4186 12.4022C15.2683 12.4255 15.1165 12.4372 14.9644 12.4373H9.285C9.0441 12.4371 8.80417 12.4678 8.57109 12.5287C7.52531 12.8034 6.75 13.6734 6.75 14.8017V19.5722C6.75 20.9316 8.11594 21.7284 9.45609 22.118C11.0597 22.5844 12.8067 22.6688 14.7258 22.118C16.0003 21.7538 17.25 21.0173 17.25 19.5722V18H12V17.25H18.9553C20.3353 17.25 21.5311 16.0814 22.117 14.3761C22.3744 13.6105 22.5037 12.8077 22.5 12C22.5013 11.3839 22.427 10.7699 22.2787 10.1719ZM14.8364 18.9375C15.0255 18.9369 15.2106 18.9924 15.3681 19.0971C15.5256 19.2017 15.6485 19.3508 15.7212 19.5254C15.7939 19.7 15.8131 19.8923 15.7763 20.0778C15.7396 20.2633 15.6486 20.4338 15.5149 20.5675C15.3811 20.7012 15.2107 20.7923 15.0252 20.829C14.8396 20.8657 14.6474 20.8465 14.4728 20.7739C14.2982 20.7012 14.1491 20.5783 14.0444 20.4208C13.9397 20.2633 13.8842 20.0782 13.8848 19.8891C13.8848 19.7641 13.9094 19.6403 13.9572 19.5248C14.005 19.4094 14.075 19.3044 14.1634 19.2161C14.2518 19.1277 14.3567 19.0576 14.4722 19.0098C14.5877 18.962 14.7114 18.9374 14.8364 18.9375Z"
          fill="#1F1D25"/>
</svg>
