<svg width="24" height="24" viewBox="0 0 24 24" fill="none" xmlns="http://www.w3.org/2000/svg">
    <g clipPath="url(#clip0)">
        <path d="M0.271875 13.0312C0.247414 13.0325 0.224285 13.0428 0.206966 13.0601C0.189647 13.0774 0.17937 13.1005 0.178125 13.125L0 14.4675L0.175313 15.7875C0.176707 15.8123 0.187347 15.8357 0.205135 15.8531C0.222923 15.8704 0.246567 15.8805 0.271406 15.8812C0.295763 15.8797 0.31872 15.8693 0.335977 15.8521C0.353235 15.8348 0.363609 15.8119 0.365156 15.7875V15.7875L0.573281 14.467L0.367031 13.125C0.365484 13.1006 0.35511 13.0777 0.337852 13.0604C0.320595 13.0432 0.297638 13.0328 0.273281 13.0312H0.271875Z"
              fill="#1F1D25"/>
        <path d="M1.25828 12.2986C1.25828 12.2721 1.24776 12.2467 1.22904 12.228C1.21031 12.2093 1.18492 12.1987 1.15844 12.1987C1.13196 12.1987 1.10656 12.2093 1.08784 12.228C1.06911 12.2467 1.05859 12.2721 1.05859 12.2986L0.824219 14.4698L1.05859 16.5933C1.05859 16.6197 1.06911 16.6451 1.08784 16.6639C1.10656 16.6826 1.13196 16.6931 1.15844 16.6931C1.18492 16.6931 1.21031 16.6826 1.22904 16.6639C1.24776 16.6451 1.25828 16.6197 1.25828 16.5933L1.52688 14.4694L1.25828 12.2981V12.2986Z"
              fill="#1F1D25"/>
        <path d="M4.97633 10.2896C4.9287 10.2911 4.88344 10.3107 4.84974 10.3444C4.81605 10.3781 4.79645 10.4233 4.79492 10.471L4.60742 14.4656L4.79492 17.0475C4.79729 17.0941 4.81746 17.138 4.85126 17.1701C4.88507 17.2022 4.92992 17.2202 4.97656 17.2202C5.0232 17.2202 5.06806 17.2022 5.10186 17.1701C5.13567 17.138 5.15584 17.0941 5.1582 17.0475V17.0475L5.37055 14.4656L5.1582 10.471C5.15667 10.4233 5.13701 10.3779 5.10321 10.3442C5.06942 10.3105 5.02404 10.291 4.97633 10.2896Z"
              fill="#1F1D25"/>
        <path d="M3.0527 11.6885C3.01574 11.6895 2.98058 11.7047 2.95443 11.7308C2.92829 11.757 2.91313 11.7921 2.91207 11.8291L2.7002 14.4752L2.9116 17.036C2.9116 17.0733 2.92642 17.109 2.95279 17.1354C2.97916 17.1618 3.01493 17.1766 3.05223 17.1766C3.08952 17.1766 3.12529 17.1618 3.15166 17.1354C3.17804 17.109 3.19285 17.0733 3.19285 17.036L3.43332 14.4752L3.19285 11.8277C3.19134 11.7911 3.17606 11.7564 3.15007 11.7306C3.12408 11.7048 3.0893 11.6897 3.0527 11.6885V11.6885Z"
              fill="#1F1D25"/>
        <path d="M6.93215 17.2313C6.99082 17.2303 7.04683 17.2066 7.08836 17.1651C7.1299 17.1237 7.15372 17.0677 7.15481 17.0091L7.33902 14.4708L7.15481 9.15234C7.15481 9.09329 7.13135 9.03666 7.08959 8.9949C7.04783 8.95315 6.9912 8.92969 6.93215 8.92969C6.8731 8.92969 6.81646 8.95315 6.77471 8.9949C6.73295 9.03666 6.70949 9.09329 6.70949 9.15234L6.5459 14.4703L6.70949 17.0095C6.71046 17.0682 6.73426 17.1242 6.77584 17.1656C6.81741 17.207 6.87348 17.2305 6.93215 17.2313V17.2313Z"
              fill="#1F1D25"/>
        <path d="M10.9352 17.239C11.0157 17.2378 11.0927 17.2052 11.1496 17.1481C11.2065 17.091 11.2389 17.014 11.2398 16.9334L11.3683 14.4678L11.2398 8.32715C11.2398 8.24634 11.2077 8.16884 11.1506 8.1117C11.0935 8.05456 11.016 8.02246 10.9352 8.02246C10.8543 8.02246 10.7768 8.05456 10.7197 8.1117C10.6626 8.16884 10.6305 8.24634 10.6305 8.32715L10.5156 14.4678C10.5156 14.4715 10.6305 16.9367 10.6305 16.9367C10.6322 17.0168 10.6649 17.093 10.7217 17.1494C10.7786 17.2058 10.8551 17.238 10.9352 17.239Z"
              fill="#1F1D25"/>
        <path d="M8.9182 17.235C8.98804 17.2344 9.05483 17.2063 9.10413 17.1568C9.15343 17.1073 9.18127 17.0405 9.18164 16.9706V16.9706L9.3382 14.4708L9.18164 9.11389C9.18314 9.07833 9.17743 9.04283 9.16486 9.00954C9.15228 8.97624 9.1331 8.94583 9.10847 8.92014C9.08384 8.89444 9.05426 8.874 9.02152 8.86003C8.98879 8.84607 8.95356 8.83887 8.91797 8.83887C8.88238 8.83887 8.84715 8.84607 8.81441 8.86003C8.78167 8.874 8.7521 8.89444 8.72747 8.92014C8.70284 8.94583 8.68366 8.97624 8.67108 9.00954C8.65851 9.04283 8.6528 9.07833 8.6543 9.11389L8.51367 14.4712L8.6543 16.9706C8.65503 17.0402 8.68312 17.1068 8.73249 17.1559C8.78186 17.205 8.84857 17.2327 8.9182 17.2331V17.235Z"
              fill="#1F1D25"/>
        <path d="M4.01035 17.2078C4.05255 17.2068 4.09274 17.1896 4.12272 17.1599C4.15269 17.1302 4.17018 17.0902 4.1716 17.048L4.39801 14.4656L4.1716 12.0094C4.1716 11.9666 4.15461 11.9256 4.12437 11.8954C4.09413 11.8651 4.05312 11.8481 4.01035 11.8481C3.96759 11.8481 3.92657 11.8651 3.89633 11.8954C3.86609 11.9256 3.8491 11.9666 3.8491 12.0094L3.64941 14.4647L3.8491 17.0466C3.84982 17.0891 3.86705 17.1297 3.89713 17.1598C3.92722 17.1899 3.96781 17.2071 4.01035 17.2078V17.2078Z"
              fill="#1F1D25"/>
        <path d="M2.10188 17.0618C2.13307 17.0607 2.16272 17.048 2.18501 17.0261C2.20729 17.0043 2.22061 16.9749 2.22234 16.9437L2.47688 14.4593L2.22281 11.8812C2.22281 11.8493 2.21012 11.8186 2.18753 11.796C2.16494 11.7734 2.13429 11.7607 2.10234 11.7607C2.07039 11.7607 2.03975 11.7734 2.01716 11.796C1.99457 11.8186 1.98187 11.8493 1.98187 11.8812L1.75781 14.4593L1.98187 16.9437C1.98294 16.975 1.99597 17.0048 2.01829 17.0269C2.0406 17.0489 2.07051 17.0616 2.10188 17.0623V17.0618Z"
              fill="#1F1D25"/>
        <path d="M9.92328 9.02344C9.84777 9.02381 9.77547 9.05403 9.72217 9.10752C9.66886 9.161 9.63887 9.23339 9.63875 9.30891L9.51172 14.4703L9.63875 16.9547C9.64173 17.0281 9.67299 17.0975 9.72598 17.1484C9.77897 17.1993 9.84958 17.2277 9.92305 17.2277C9.99651 17.2277 10.0671 17.1993 10.1201 17.1484C10.1731 17.0975 10.2044 17.0281 10.2073 16.9547V16.9547L10.348 14.4703L10.2073 9.30797C10.207 9.2327 10.1769 9.16061 10.1238 9.10735C10.0706 9.05408 9.99855 9.02393 9.92328 9.02344V9.02344Z"
              fill="#1F1D25"/>
        <path d="M5.9534 17.2339C6.00653 17.2327 6.05716 17.2111 6.09478 17.1735C6.1324 17.136 6.15412 17.0854 6.15543 17.0323L6.35371 14.4678L6.15309 9.55995C6.15058 9.50799 6.12818 9.45898 6.09052 9.4231C6.05287 9.38721 6.00284 9.36719 5.95082 9.36719C5.8988 9.36719 5.84878 9.38721 5.81112 9.4231C5.77346 9.45898 5.75106 9.50799 5.74855 9.55995L5.57324 14.4678L5.74902 17.0332C5.75024 17.0867 5.77228 17.1376 5.81045 17.1751C5.84863 17.2125 5.89991 17.2336 5.9534 17.2339Z"
              fill="#1F1D25"/>
        <path d="M8.16387 16.9896L8.33402 14.4678L8.16387 8.97027C8.16531 8.93745 8.16009 8.90468 8.14853 8.87394C8.13696 8.8432 8.11929 8.81511 8.09658 8.79138C8.07387 8.76765 8.04659 8.74877 8.01638 8.73586C7.98617 8.72296 7.95367 8.71631 7.92082 8.71631C7.88797 8.71631 7.85547 8.72296 7.82526 8.73586C7.79505 8.74877 7.76777 8.76765 7.74506 8.79138C7.72235 8.81511 7.70468 8.8432 7.69311 8.87394C7.68155 8.90468 7.67633 8.93745 7.67777 8.97027L7.52637 14.4678L7.67777 16.991C7.67777 17.0554 7.70335 17.1172 7.74889 17.1627C7.79443 17.2083 7.85619 17.2339 7.92059 17.2339C7.98498 17.2339 8.04674 17.2083 8.09228 17.1627C8.13782 17.1172 8.1634 17.0554 8.1634 16.991V16.991L8.16387 16.9896Z"
              fill="#1F1D25"/>
        <path d="M21.0467 11.3016C20.655 11.301 20.2672 11.3791 19.9063 11.5312C19.6719 8.85094 17.4402 6.75 14.7191 6.75C14.0732 6.7512 13.4331 6.87166 12.8309 7.10531C12.6083 7.19203 12.5497 7.28156 12.5469 7.455V16.8937C12.5481 16.9811 12.5812 17.065 12.6399 17.1297C12.6986 17.1944 12.7788 17.2355 12.8656 17.2453C12.8731 17.2453 20.9956 17.2505 21.0481 17.2505C22.6785 17.2505 24.0013 15.9187 24.0013 14.2762C24.0013 12.6337 22.6794 11.3016 21.0481 11.3016H21.0467Z"
              fill="#1F1D25"/>
        <path d="M11.9433 7.44238C11.8567 7.44312 11.774 7.47802 11.7131 7.53948C11.6521 7.60093 11.618 7.68397 11.618 7.77051L11.4844 14.468L11.618 16.8994C11.6165 16.9431 11.6239 16.9867 11.6397 17.0275C11.6554 17.0683 11.6793 17.1056 11.7098 17.1369C11.7402 17.1683 11.7767 17.1932 11.8171 17.2102C11.8574 17.2271 11.9008 17.2358 11.9445 17.2356C11.9883 17.2354 12.0315 17.2264 12.0717 17.2091C12.1119 17.1918 12.1482 17.1666 12.1784 17.1349C12.2086 17.1033 12.2321 17.0658 12.2475 17.0249C12.263 16.984 12.27 16.9403 12.2681 16.8966V16.8994L12.413 14.468L12.2681 7.76816C12.2675 7.68211 12.2331 7.59974 12.1724 7.53881C12.1116 7.47787 12.0293 7.44324 11.9433 7.44238V7.44238Z"
              fill="#1F1D25"/>
    </g>
    <defs>
        <clipPath id="clip0">
            <rect width="24" height="24" fill="white"/>
        </clipPath>
    </defs>
</svg>
