<svg width="24" height="24" viewBox="0 0 24 24" fill="none" xmlns="http://www.w3.org/2000/svg">
    <path d="M19.9126 6.97461C19.8924 7.10398 19.869 7.23617 19.8427 7.37211C18.9442 11.9659 15.8696 13.5502 11.9424 13.5502H9.94321C9.71191 13.5497 9.48804 13.6319 9.31206 13.782C9.13608 13.9321 9.0196 14.1402 8.98368 14.3687L7.95993 20.8299L7.67024 22.6613C7.65984 22.7275 7.66259 22.795 7.67834 22.8601C7.69409 22.9252 7.72252 22.9866 7.76202 23.0406C7.80151 23.0947 7.85129 23.1405 7.9085 23.1753C7.9657 23.2101 8.02922 23.2333 8.0954 23.2435C8.12176 23.2477 8.14841 23.2497 8.17509 23.2496H11.7212C11.924 23.2502 12.1204 23.1785 12.275 23.0473C12.4297 22.9161 12.5325 22.734 12.5649 22.5338L12.5996 22.3543L13.2671 18.1355L13.3098 17.904C13.3418 17.7035 13.4444 17.521 13.5991 17.3894C13.7538 17.2579 13.9505 17.1861 14.1535 17.1868H14.6837C18.1196 17.1868 20.8088 15.7984 21.5949 11.7812C21.9231 10.103 21.7534 8.70195 20.8843 7.71617C20.608 7.41211 20.2788 7.16083 19.9126 6.97461V6.97461Z"
          fill="#1F1D25"/>
    <path d="M18.0708 2.39485C17.0546 1.24313 15.2204 0.750003 12.8729 0.750003H6.05819C5.8264 0.749452 5.60203 0.831699 5.4255 0.981925C5.24898 1.13215 5.13191 1.34048 5.09538 1.56938L2.2571 19.4756C2.24516 19.5514 2.2483 19.6288 2.26634 19.7033C2.28438 19.7779 2.31695 19.8481 2.3622 19.91C2.40745 19.972 2.46448 20.0244 2.53002 20.0642C2.59556 20.104 2.66832 20.1305 2.74413 20.1422C2.77421 20.1469 2.80462 20.1492 2.83507 20.1492H7.04257L8.09913 13.4794L8.06632 13.6884C8.10224 13.4599 8.21871 13.2518 8.39469 13.1017C8.57067 12.9516 8.79455 12.8694 9.02585 12.87H11.0251C14.9518 12.87 18.0263 11.2828 18.9254 6.69188C18.9521 6.55594 18.9746 6.42375 18.9952 6.29438C19.2624 4.59656 18.9929 3.4411 18.0708 2.39485Z"
          fill="#1F1D25"/>
</svg>
