<svg width="24" height="24" viewBox="0 0 24 24" fill="none" xmlns="http://www.w3.org/2000/svg">
    <path d="M22.4436 9.75938C22.4436 10.0931 22.3446 10.4194 22.1592 10.6969C21.9738 10.9744 21.7102 11.1907 21.4019 11.3184C21.0935 11.4462 20.7542 11.4796 20.4269 11.4145C20.0995 11.3493 19.7989 11.1886 19.5629 10.9526C19.3269 10.7166 19.1661 10.4159 19.101 10.0886C19.0359 9.76125 19.0693 9.42195 19.1971 9.1136C19.3248 8.80525 19.5411 8.5417 19.8186 8.35627C20.0961 8.17085 20.4223 8.07188 20.7561 8.07188C21.2037 8.07188 21.6329 8.24967 21.9493 8.56614C22.2658 8.8826 22.4436 9.31183 22.4436 9.75938V9.75938ZM20.7467 6.51562C19.8897 6.51583 19.0673 6.85414 18.4582 7.45709C17.8491 8.06004 17.5025 8.87893 17.4936 9.73594L15.4686 12.6422C15.3845 12.6328 15.3 12.6281 15.2155 12.6281C14.7796 12.6279 14.3518 12.7461 13.978 12.9703L4.79985 9.28125C4.70172 8.83397 4.47911 8.42355 4.15771 8.09736C3.83632 7.77117 3.42923 7.54252 2.98344 7.43779C2.53766 7.33306 2.07134 7.35653 1.63832 7.50548C1.2053 7.65443 0.823224 7.9228 0.536195 8.2796C0.249165 8.6364 0.0688812 9.0671 0.0161523 9.52197C-0.0365765 9.97685 0.0403989 10.4374 0.238194 10.8504C0.435989 11.2634 0.746541 11.612 1.134 11.8561C1.52147 12.1001 1.97005 12.2297 2.42797 12.2297C2.86387 12.23 3.29164 12.1117 3.66547 11.8875L12.8436 15.5719C12.966 16.1371 13.2863 16.6401 13.7467 16.99C14.2072 17.34 14.7775 17.514 15.3549 17.4806C15.9322 17.4472 16.4787 17.2087 16.8958 16.808C17.3128 16.4074 17.5731 15.8709 17.6295 15.2953L20.7467 13.0172C21.6089 13.0172 22.4357 12.6747 23.0454 12.0651C23.655 11.4554 23.9975 10.6286 23.9975 9.76641C23.9975 8.90425 23.655 8.0774 23.0454 7.46776C22.4357 6.85812 21.6089 6.51562 20.7467 6.51562V6.51562ZM20.7467 7.58906C21.1772 7.58953 21.5978 7.71756 21.9555 7.95699C22.3132 8.19642 22.5919 8.5365 22.7564 8.93426C22.9209 9.33202 22.9639 9.76962 22.8798 10.1918C22.7957 10.6139 22.5884 11.0017 22.284 11.306C21.9796 11.6104 21.5919 11.8177 21.1697 11.9018C20.7476 11.9859 20.31 11.943 19.9122 11.7785C19.5145 11.614 19.1744 11.3352 18.935 10.9775C18.6955 10.6198 18.5675 10.1992 18.567 9.76875C18.5675 9.19082 18.7973 8.63669 19.206 8.22803C19.6147 7.81937 20.1688 7.58956 20.7467 7.58906V7.58906ZM2.42797 8.01094C2.75238 8.01078 3.07072 8.0988 3.34897 8.26558C3.62721 8.43236 3.85489 8.67164 4.00766 8.95782L3.12172 8.60157V8.60625C2.77653 8.47976 2.39567 8.49247 2.05967 8.64171C1.72368 8.79094 1.4589 9.065 1.32131 9.40592C1.18372 9.74685 1.18411 10.1279 1.32241 10.4686C1.4607 10.8092 1.72605 11.0827 2.06235 11.2313V11.2359L2.81704 11.5359C2.6909 11.5644 2.56196 11.5785 2.43266 11.5781C1.95962 11.5788 1.50571 11.3914 1.17078 11.0574C0.835855 10.7233 0.647345 10.2699 0.646724 9.79688C0.646102 9.32384 0.83342 8.86993 1.16747 8.535C1.50152 8.20007 1.95494 8.01156 2.42797 8.01094V8.01094ZM15.2155 13.2703C15.5318 13.2704 15.8424 13.3546 16.1155 13.5141C16.3887 13.6736 16.6145 13.9028 16.77 14.1782C16.9255 14.4537 17.0051 14.7655 17.0006 15.0818C16.9961 15.398 16.9076 15.7074 16.7443 15.9783C16.581 16.2492 16.3487 16.4719 16.0711 16.6235C15.7935 16.7752 15.4807 16.8504 15.1645 16.8415C14.8483 16.8326 14.5401 16.7398 14.2716 16.5728C14.003 16.4057 13.7836 16.1703 13.6358 15.8906C13.9311 16.0078 14.2217 16.125 14.517 16.2469C14.6904 16.3184 14.8763 16.3549 15.0639 16.3541C15.2515 16.3534 15.437 16.3154 15.6099 16.2425C15.7827 16.1695 15.9393 16.0631 16.0707 15.9292C16.2021 15.7953 16.3057 15.6367 16.3754 15.4626C16.4451 15.2884 16.4796 15.1022 16.4769 14.9146C16.4742 14.7271 16.4343 14.5419 16.3596 14.3699C16.2848 14.1978 16.1767 14.0423 16.0415 13.9123C15.9063 13.7823 15.7466 13.6804 15.5717 13.6125L14.8264 13.3125C14.9546 13.2869 15.0848 13.2728 15.2155 13.2703Z"
          fill="#1F1D25"/>
</svg>
