<svg width="24" height="24" viewBox="0 0 24 24" fill="none" xmlns="http://www.w3.org/2000/svg">
    <path d="M4.06659 11.9535C4.14663 11.9534 4.22528 11.9325 4.29488 11.893C4.34754 11.863 4.39376 11.8229 4.43088 11.775C4.46801 11.727 4.4953 11.6723 4.5112 11.6138C4.52709 11.5553 4.53128 11.4942 4.52352 11.4341C4.51576 11.374 4.4962 11.316 4.46597 11.2635C3.69441 9.92471 3.63113 8.82034 4.11675 7.98221C4.78519 6.83049 6.62972 6.40487 9.05128 6.84362C9.17153 6.86538 9.2955 6.83864 9.39608 6.76925C9.49666 6.69985 9.56566 6.59345 9.588 6.47331C9.59882 6.41369 9.59779 6.35252 9.58496 6.2933C9.57214 6.23408 9.54777 6.17797 9.51325 6.12817C9.47873 6.07837 9.43473 6.03586 9.38378 6.00307C9.33282 5.97028 9.27591 5.94785 9.21628 5.93706C7.848 5.68956 6.59128 5.69424 5.58863 5.95112C4.54331 6.21878 3.7605 6.76112 3.31753 7.52049C2.66128 8.6544 2.72222 10.086 3.66534 11.7214C3.70584 11.792 3.76428 11.8507 3.83474 11.8914C3.90521 11.9322 3.9852 11.9536 4.06659 11.9535V11.9535Z"
          fill="#1F1D25"/>
    <path d="M16.9506 6.737C18.4618 6.75669 19.4167 7.17341 19.8938 7.99607C20.5599 9.14357 20.012 10.9403 18.4281 12.8017C18.3711 12.8687 18.3345 12.9507 18.3227 13.0379C18.3108 13.1251 18.3242 13.2138 18.3613 13.2936C18.3983 13.3734 18.4574 13.441 18.5317 13.4882C18.6059 13.5354 18.6921 13.5604 18.7801 13.5601C18.8471 13.5602 18.9133 13.5457 18.9741 13.5177C19.035 13.4897 19.0891 13.4489 19.1326 13.398C20.0288 12.3447 20.649 11.2633 20.9256 10.2709C21.2134 9.23966 21.1332 8.29232 20.6912 7.53435C20.0443 6.41966 18.8101 5.83981 16.9604 5.81544H16.9538C16.8316 5.81469 16.7141 5.86252 16.6272 5.94841C16.5403 6.0343 16.491 6.1512 16.4902 6.27341C16.4895 6.39561 16.5373 6.51311 16.6232 6.60005C16.7091 6.68699 16.826 6.73626 16.9482 6.737H16.9506Z"
          fill="#1F1D25"/>
    <path d="M15.3035 19.4485C15.1986 19.386 15.0733 19.3674 14.9548 19.3968C14.8363 19.4262 14.7342 19.5012 14.6707 19.6055C13.9015 20.8782 12.9565 21.579 12.0096 21.579C10.6741 21.579 9.3846 20.2051 8.55351 17.903C8.51171 17.7882 8.4262 17.6946 8.31564 17.6426C8.20507 17.5906 8.07843 17.5845 7.96336 17.6255C7.90607 17.6456 7.85333 17.6769 7.80817 17.7174C7.763 17.758 7.72629 17.8071 7.70016 17.8619C7.67402 17.9167 7.65897 17.9761 7.65587 18.0368C7.65278 18.0974 7.66169 18.158 7.68211 18.2152C8.15085 19.5169 8.78226 20.5941 9.51023 21.3305C10.2654 22.0965 11.1298 22.5024 12.0096 22.5024C13.293 22.5024 14.5193 21.6432 15.4619 20.0832C15.4933 20.0313 15.514 19.9737 15.523 19.9137C15.532 19.8538 15.5291 19.7926 15.5144 19.7338C15.4996 19.675 15.4734 19.6197 15.4372 19.571C15.401 19.5224 15.3556 19.4814 15.3035 19.4504V19.4485Z"
          fill="#1F1D25"/>
    <path d="M20.2359 15.8691C19.9879 15.8679 19.7435 15.9278 19.5243 16.0437C19.3051 16.1595 19.1179 16.3277 18.9793 16.5332C18.8406 16.7388 18.7549 16.9754 18.7296 17.222C18.7043 17.4686 18.7403 17.7177 18.8343 17.9471C16.8749 18.8612 13.2187 18.1716 9.8404 16.2305C8.29774 15.3446 6.92665 14.2683 5.87477 13.1185C5.792 13.0286 5.6771 12.975 5.55502 12.9693C5.43294 12.9636 5.31354 13.0062 5.22274 13.088C5.17774 13.1287 5.14124 13.1778 5.11533 13.2327C5.08942 13.2875 5.07462 13.3469 5.07179 13.4075C5.06896 13.468 5.07815 13.5286 5.09882 13.5856C5.1195 13.6426 5.15126 13.6949 5.19227 13.7396C6.30743 14.9583 7.7554 16.0965 9.37962 17.0293C11.2677 18.1135 13.236 18.8401 15.0716 19.1298C15.6141 19.2178 16.1627 19.2634 16.7123 19.2662C17.796 19.2662 18.7279 19.0646 19.4549 18.6666C19.654 18.7882 19.8785 18.862 20.1109 18.8822C20.3433 18.9024 20.5772 18.8685 20.7943 18.7831C21.0113 18.6977 21.2056 18.5631 21.362 18.39C21.5183 18.2169 21.6323 18.0099 21.6952 17.7852C21.758 17.5606 21.768 17.3245 21.7242 17.0953C21.6805 16.8662 21.5842 16.6504 21.443 16.4647C21.3018 16.2791 21.1195 16.1287 20.9103 16.0253C20.7012 15.922 20.471 15.8685 20.2377 15.8691H20.2359ZM20.2359 17.9626C20.1028 17.9626 19.9736 17.9176 19.8693 17.8351C19.8406 17.7954 19.8058 17.7604 19.7662 17.7315C19.6849 17.6256 19.6418 17.4954 19.644 17.362C19.6461 17.2285 19.6934 17.0998 19.778 16.9966C19.8626 16.8934 19.9797 16.8219 20.1101 16.7937C20.2405 16.7655 20.3767 16.7823 20.4964 16.8413C20.6161 16.9003 20.7123 16.9981 20.7693 17.1187C20.8264 17.2393 20.841 17.3757 20.8106 17.5057C20.7803 17.6357 20.707 17.7515 20.6024 17.8345C20.4979 17.9174 20.3684 17.9626 20.2349 17.9626H20.2359Z"
          fill="#1F1D25"/>
    <path d="M3.84762 15.8716C3.87433 14.875 4.42933 13.6685 5.42637 12.4422C6.5134 11.1086 8.08371 9.81722 9.84855 8.80238C11.4071 7.90706 12.9048 7.30706 14.4456 6.97847C14.5057 6.96675 14.5628 6.94317 14.6137 6.9091C14.6646 6.87504 14.7082 6.83118 14.7419 6.78008C14.7756 6.72898 14.7989 6.67167 14.8102 6.6115C14.8215 6.55133 14.8208 6.4895 14.8079 6.42963C14.7951 6.36976 14.7704 6.31305 14.7354 6.26281C14.7004 6.21257 14.6558 6.16981 14.6041 6.13703C14.5524 6.10425 14.4946 6.0821 14.4343 6.07189C14.3739 6.06167 14.3121 6.06359 14.2525 6.07753C12.6189 6.42581 11.0284 7.06191 9.3873 8.00363C5.44137 10.27 2.80746 13.5883 2.92746 16.1205C2.6272 16.319 2.40744 16.618 2.30755 16.9638C2.20766 17.3096 2.23417 17.6797 2.38232 18.0078C2.53048 18.3358 2.7906 18.6004 3.11609 18.7542C3.44158 18.9079 3.81117 18.9407 4.15864 18.8467C4.50612 18.7527 4.80877 18.538 5.01238 18.2412C5.216 17.9444 5.30726 17.5847 5.26984 17.2267C5.23241 16.8687 5.06873 16.5357 4.80812 16.2874C4.54752 16.0391 4.20702 15.8917 3.84762 15.8716V15.8716ZM3.76371 17.9627C3.64801 17.9619 3.53514 17.9268 3.43934 17.8619C3.34354 17.797 3.26909 17.7052 3.22539 17.5981C3.18169 17.4909 3.17069 17.3733 3.19377 17.2599C3.21685 17.1465 3.27299 17.0425 3.3551 16.961C3.43721 16.8794 3.54162 16.8241 3.65516 16.8018C3.7687 16.7795 3.8863 16.7914 3.99312 16.8358C4.09994 16.8803 4.1912 16.9554 4.2554 17.0517C4.3196 17.1479 4.35386 17.261 4.35387 17.3768C4.35312 17.5327 4.29057 17.6819 4.17994 17.7917C4.0693 17.9016 3.91961 17.9631 3.76371 17.9627V17.9627Z"
          fill="#1F1D25"/>
    <path d="M12.0094 4.51445C12.2536 4.51508 12.4943 4.45651 12.7108 4.34377C12.9274 4.23103 13.1135 4.06747 13.253 3.86711C14.0916 4.41508 14.8468 5.50773 15.4004 6.96648C16.0097 8.57852 16.3304 10.4999 16.3304 12.523C16.3304 14.2659 16.0871 15.9145 15.6272 17.3793C15.6088 17.4369 15.6021 17.4977 15.6074 17.558C15.6127 17.6182 15.63 17.6769 15.6582 17.7304C15.6863 17.7843 15.7248 17.8321 15.7714 17.871C15.8181 17.91 15.872 17.9393 15.93 17.9573C16.0468 17.9933 16.173 17.9818 16.2814 17.9253C16.3897 17.8688 16.4713 17.7718 16.5085 17.6554C16.9969 16.102 17.2552 14.3582 17.2552 12.523C17.2552 10.312 16.891 8.22133 16.2019 6.47617C15.5264 4.76617 14.6021 3.55117 13.5235 2.95305C13.5142 2.65579 13.4175 2.36785 13.2456 2.12517C13.0737 1.88249 12.8341 1.69581 12.5568 1.58844C12.2794 1.48107 11.9766 1.45776 11.6861 1.52142C11.3956 1.58508 11.1302 1.73288 10.9232 1.94639C10.7162 2.1599 10.5766 2.42966 10.5219 2.72199C10.4672 3.01433 10.4998 3.31629 10.6157 3.59021C10.7316 3.86412 10.9255 4.09784 11.1734 4.26221C11.4212 4.42658 11.712 4.51431 12.0094 4.51445V4.51445ZM12.0094 2.42102C12.1251 2.42185 12.238 2.45692 12.3338 2.52181C12.4296 2.5867 12.504 2.6785 12.5477 2.78563C12.5914 2.89277 12.6024 3.01045 12.5794 3.12383C12.5563 3.23721 12.5001 3.34122 12.418 3.42274C12.3359 3.50427 12.2315 3.55965 12.118 3.58192C12.0044 3.60419 11.8868 3.59234 11.78 3.54787C11.6732 3.5034 11.5819 3.4283 11.5177 3.33204C11.4535 3.23578 11.4193 3.12266 11.4193 3.00695C11.42 2.85105 11.4826 2.70181 11.5932 2.59196C11.7038 2.48212 11.8535 2.42064 12.0094 2.42102V2.42102Z"
          fill="#1F1D25"/>
    <path d="M11.7657 11.4082C11.4898 11.4672 11.2455 11.6264 11.0801 11.855C10.9146 12.0836 10.8397 12.3653 10.8698 12.6459C10.8998 12.9264 11.0327 13.1859 11.2429 13.3742C11.453 13.5625 11.7254 13.6664 12.0075 13.6657C12.0888 13.6656 12.1699 13.6569 12.2494 13.6399C12.3976 13.6098 12.5384 13.5506 12.6636 13.4657C12.7887 13.3808 12.8957 13.2719 12.9784 13.1452C13.0612 13.0186 13.1179 12.8768 13.1453 12.7281C13.1728 12.5794 13.1704 12.4267 13.1384 12.2789C13.1064 12.1311 13.0453 11.9911 12.9587 11.8671C12.8721 11.7431 12.7618 11.6375 12.6341 11.5565C12.5064 11.4755 12.3638 11.4207 12.2148 11.3952C12.0657 11.3697 11.913 11.3741 11.7657 11.4082V11.4082Z"
          fill="#1F1D25"/>
</svg>
