<svg width="24" height="24" viewBox="0 0 24 24" fill="none" xmlns="http://www.w3.org/2000/svg">
    <path d="M2.25 2.78828V21.2102C2.25012 21.2501 2.26204 21.2892 2.28427 21.3224C2.30649 21.3556 2.33803 21.3815 2.37492 21.3969C2.41182 21.4123 2.45243 21.4164 2.49166 21.4088C2.5309 21.4012 2.56701 21.3821 2.59547 21.3541L12.1875 11.9997L2.59547 2.64437C2.56701 2.61631 2.5309 2.59728 2.49166 2.58966C2.45243 2.58204 2.41182 2.58617 2.37492 2.60154C2.33803 2.61691 2.30649 2.64283 2.28427 2.67605C2.26204 2.70927 2.25012 2.74831 2.25 2.78828V2.78828Z"
          fill="#1F1D25"/>
    <path d="M16.2093 8.15639L4.18216 1.53014L4.17466 1.52592C3.96747 1.41342 3.7706 1.69373 3.94028 1.85686L13.3683 10.8719L16.2093 8.15639Z"
          fill="#1F1D25"/>
    <path d="M3.94083 22.1439C3.77021 22.307 3.96708 22.5873 4.17521 22.4748L4.18271 22.4706L16.209 15.8443L13.3679 13.1279L3.94083 22.1439Z"
          fill="#1F1D25"/>
    <path d="M21.0644 10.8282L17.7058 8.97852L14.5479 12.0001L17.7058 15.0202L21.0644 13.1719C21.978 12.6671 21.978 11.333 21.0644 10.8282Z"
          fill="#1F1D25"/>
</svg>
