<svg width="34" height="12" viewBox="0 0 34 12" fill="none" xmlns="http://www.w3.org/2000/svg">
    <path d="M14.4645 1.228L11.7345 11H9.42452L7.59052 4.042L5.67252 11L3.37652 11.014L0.744523 1.228H2.84452L4.56652 8.816L6.55452 1.228H8.73852L10.6145 8.774L12.3505 1.228H14.4645ZM16.1363 8.788C17.0323 8.04133 17.7463 7.42067 18.2783 6.926C18.8103 6.422 19.2537 5.89933 19.6083 5.358C19.963 4.81667 20.1403 4.28467 20.1403 3.762C20.1403 3.286 20.0283 2.91267 19.8043 2.642C19.5803 2.37133 19.235 2.236 18.7683 2.236C18.3017 2.236 17.9423 2.39467 17.6903 2.712C17.4383 3.02 17.3077 3.44467 17.2983 3.986H15.3943C15.4317 2.866 15.763 2.01667 16.3883 1.438C17.023 0.859333 17.8257 0.569999 18.7963 0.569999C19.8603 0.569999 20.677 0.854666 21.2463 1.424C21.8157 1.984 22.1003 2.726 22.1003 3.65C22.1003 4.378 21.9043 5.07333 21.5123 5.736C21.1203 6.39867 20.6723 6.97733 20.1683 7.472C19.6643 7.95733 19.0063 8.54533 18.1943 9.236H22.3243V10.86H15.4083V9.404L16.1363 8.788ZM30.5874 4.168C30.3634 3.75733 30.0554 3.44467 29.6634 3.23C29.2714 3.01533 28.814 2.908 28.2914 2.908C27.7127 2.908 27.1994 3.03867 26.7514 3.3C26.3034 3.56133 25.9534 3.93467 25.7014 4.42C25.4494 4.90533 25.3234 5.46533 25.3234 6.1C25.3234 6.75333 25.4494 7.32267 25.7014 7.808C25.9627 8.29333 26.322 8.66667 26.7794 8.928C27.2367 9.18933 27.7687 9.32 28.3754 9.32C29.122 9.32 29.7334 9.124 30.2094 8.732C30.6854 8.33067 30.9981 7.77533 31.1474 7.066H27.7874V5.568H33.0794V7.276C32.9487 7.95733 32.6687 8.58733 32.2394 9.166C31.81 9.74467 31.2547 10.2113 30.5734 10.566C29.9014 10.9113 29.1454 11.084 28.3054 11.084C27.3627 11.084 26.5087 10.874 25.7434 10.454C24.9874 10.0247 24.39 9.432 23.9514 8.676C23.522 7.92 23.3074 7.06133 23.3074 6.1C23.3074 5.13867 23.522 4.28 23.9514 3.524C24.39 2.75867 24.9874 2.166 25.7434 1.746C26.5087 1.31667 27.358 1.102 28.2914 1.102C29.3927 1.102 30.3494 1.37267 31.1614 1.914C31.9734 2.446 32.5334 3.19733 32.8414 4.168H30.5874Z"
          fill="#333333"/>
</svg>
