<svg width="24" height="24" viewBox="0 0 24 24" fill="none" xmlns="http://www.w3.org/2000/svg">
    <path d="M21.9564 12.6183C21.8326 11.0531 21.4051 9.89952 20.4826 9.92811C20.475 9.92818 20.4675 9.9301 20.4608 9.93372C20.4541 9.93733 20.4484 9.94253 20.4442 9.94885C20.4399 9.95518 20.4373 9.96244 20.4365 9.97002C20.4357 9.97759 20.4367 9.98525 20.4395 9.99233C20.6791 10.5825 20.8933 11.722 20.8694 12.7144C20.8699 12.7268 20.8654 12.7389 20.857 12.7481C20.8485 12.7572 20.8368 12.7626 20.8244 12.7631C20.8119 12.7636 20.7998 12.7591 20.7907 12.7507C20.7815 12.7423 20.7761 12.7305 20.7756 12.7181C20.673 11.7239 20.4428 10.7873 20.0153 9.93233C19.2116 8.32041 17.9302 6.99573 16.3457 6.13908C14.7613 5.28243 12.9512 4.93554 11.1623 5.14575C9.37349 5.35595 7.69307 6.11302 6.35041 7.31362C5.00775 8.51423 4.06826 10.0999 3.66015 11.8542C3.65206 11.8915 3.63278 11.9254 3.60489 11.9515C3.577 11.9775 3.54182 11.9945 3.50406 12L3.09859 12.0572C2.29234 12.1697 1.83765 13.6931 2.0814 15.4556C2.32515 17.2181 3.18296 18.5587 3.98921 18.4462L4.60984 18.3595C4.64559 18.3546 4.68198 18.3602 4.71466 18.3755C4.74734 18.3908 4.7749 18.4152 4.79406 18.4458C5.71496 19.8945 7.04158 21.0404 8.60882 21.7409C10.1761 22.4415 11.9147 22.6656 13.6083 22.3855C15.302 22.1053 16.8759 21.3333 18.1341 20.1655C19.3923 18.9977 20.2793 17.4856 20.6847 15.8175C20.694 15.778 20.7158 15.7426 20.7469 15.7166C20.778 15.6905 20.8167 15.6753 20.8572 15.6731L21.0634 15.6619C21.7736 15.5433 22.083 14.198 21.9564 12.6183ZM4.42937 12.6759C4.42363 12.666 4.42173 12.6543 4.42403 12.6431C4.42633 12.6318 4.43268 12.6218 4.44186 12.6149C4.45105 12.6081 4.46244 12.6048 4.47387 12.6058C4.4853 12.6067 4.49599 12.6118 4.5039 12.6201C4.95531 13.0889 5.45312 13.9162 5.59702 14.9573C5.7489 16.0378 5.49202 17.0761 5.16906 17.67C5.16345 17.6798 5.1545 17.6872 5.14386 17.6909C5.13322 17.6946 5.12159 17.6944 5.11111 17.6902C5.10063 17.6861 5.092 17.6783 5.08681 17.6683C5.08161 17.6583 5.08019 17.6467 5.08281 17.6358C5.27359 16.9589 5.32468 16.05 5.18921 15.0698C5.05796 14.1173 4.78093 13.2759 4.42937 12.6759ZM12.8092 17.8223C12.6302 17.822 12.4575 17.7557 12.3242 17.6361C12.191 17.5165 12.1065 17.352 12.0869 17.174C12.0712 17.0281 12.1002 16.8808 12.17 16.7517C12.2398 16.6226 12.3471 16.5177 12.4777 16.4508C12.6084 16.3839 12.7563 16.3582 12.9018 16.3771C13.0474 16.396 13.1838 16.4586 13.293 16.5567C13.4023 16.6547 13.4792 16.7836 13.5137 16.9262C13.5482 17.0689 13.5386 17.2187 13.4862 17.3558C13.4337 17.4929 13.341 17.6109 13.2201 17.6942C13.0993 17.7775 12.956 17.8222 12.8092 17.8223V17.8223ZM16.6455 17.6011C16.5033 17.608 16.3623 17.5727 16.2403 17.4996C16.1182 17.4264 16.0205 17.3188 15.9595 17.1903C15.8985 17.0617 15.877 16.918 15.8976 16.7772C15.9182 16.6364 15.98 16.5048 16.0753 16.3991C16.1705 16.2934 16.295 16.2183 16.4329 16.1832C16.5708 16.1481 16.716 16.1547 16.8502 16.202C16.9843 16.2494 17.1015 16.3354 17.1869 16.4492C17.2722 16.5631 17.322 16.6996 17.3298 16.8417C17.3397 17.0331 17.2731 17.2206 17.1448 17.363C17.0165 17.5054 16.8369 17.591 16.6455 17.6011V17.6011Z"
          fill="#1F1D25"/>
    <path d="M7.75873 3.28174C7.76141 3.28417 7.76308 3.28751 7.76342 3.29111V3.29111C7.76811 3.30049 7.7728 3.30518 7.77749 3.31455V3.31924C7.79927 3.37168 7.83699 3.41595 7.8853 3.4458C7.97905 3.51611 8.11967 3.5583 8.28842 3.58643C8.47322 3.61165 8.65998 3.61949 8.84624 3.60986C8.89168 3.60907 8.93705 3.60594 8.98218 3.60049C8.96343 3.58174 8.94468 3.5583 8.92593 3.53955H8.86499C8.68273 3.54587 8.50034 3.53172 8.32124 3.49736C8.17939 3.47554 8.04458 3.42097 7.92749 3.33799C7.90332 3.31853 7.88132 3.29653 7.86186 3.27236C7.85248 3.23704 7.85248 3.19988 7.86186 3.16455C7.8853 3.05674 7.97436 2.93955 8.11967 2.81768C8.27702 2.68932 8.44843 2.57924 8.63061 2.48955C8.6728 2.4708 8.7103 2.44736 8.75249 2.42861C8.75718 2.42393 8.76655 2.42393 8.77593 2.41924C8.73754 2.58073 8.73434 2.74859 8.76655 2.91143C8.87436 3.46924 9.3103 3.86299 9.85405 3.87705L10.0416 5.01611L10.6369 4.87549L10.4494 3.7833C10.9556 3.56768 11.2134 3.02861 11.1056 2.4708C11.0751 2.31161 11.013 2.16018 10.9228 2.02549C10.6744 1.98799 10.1916 1.98799 9.55405 2.12393C9.60562 2.10986 9.65249 2.09111 9.70405 2.07705C10.0341 1.98429 10.3712 1.91845 10.7119 1.88018C10.74 1.87549 10.7681 1.87549 10.7962 1.8708L10.9603 1.85674H10.9884C11.1573 1.84664 11.3267 1.85135 11.4947 1.8708C11.5921 1.8823 11.688 1.9043 11.7806 1.93643C11.752 1.98114 11.7373 2.03335 11.7384 2.08643C11.7389 2.14726 11.7586 2.20638 11.7949 2.25525C11.8311 2.30412 11.8819 2.34021 11.94 2.3583V2.3583C11.9102 2.40425 11.8773 2.4481 11.8416 2.48955C11.7997 2.53675 11.7543 2.58063 11.7056 2.6208C11.6541 2.66299 11.5978 2.70518 11.5416 2.74736L11.2369 2.92549L11.2228 2.9958C11.2264 2.99531 11.2297 2.99366 11.2322 2.99111L11.6259 2.7708C11.6822 2.7333 11.7384 2.6958 11.7853 2.6583C11.8384 2.61826 11.8886 2.57439 11.9353 2.52705C11.9755 2.48566 12.0131 2.44183 12.0478 2.3958L12.0619 2.36768C12.1309 2.3593 12.1946 2.3262 12.2412 2.27449C12.2877 2.22279 12.3139 2.15598 12.315 2.08643C12.3152 2.04881 12.308 2.01151 12.2937 1.97671C12.2795 1.9419 12.2584 1.91028 12.2318 1.88368C12.2052 1.85708 12.1736 1.83603 12.1388 1.82175C12.104 1.80747 12.0667 1.80024 12.0291 1.80049C11.9835 1.80192 11.9387 1.81311 11.8978 1.8333C11.7781 1.76879 11.648 1.72594 11.5134 1.70674C11.2733 1.6677 11.0293 1.65825 10.7869 1.67861C10.7539 1.67941 10.721 1.68254 10.6884 1.68799C10.6575 1.69343 10.6261 1.69656 10.5947 1.69736C10.3366 1.52677 10.0217 1.46448 9.71812 1.52393C9.54273 1.55775 9.37699 1.62992 9.23275 1.73527C9.08851 1.84061 8.96933 1.97653 8.88374 2.1333C8.8228 2.15674 8.76186 2.18486 8.70561 2.21299C8.6728 2.22705 8.64468 2.24111 8.61186 2.25518C8.37617 2.36685 8.15693 2.51038 7.9603 2.68174C7.81499 2.81768 7.73061 2.94893 7.71186 3.0708C7.70121 3.13521 7.71279 3.20133 7.74467 3.2583C7.75038 3.26545 7.75511 3.27333 7.75873 3.28174V3.28174Z"
          fill="#1F1D25"/>
</svg>
