<svg width="78" height="40" viewBox="0 0 78 40" fill="none" xmlns="http://www.w3.org/2000/svg">
<g clipPath="url(#clip0_3005_10815)">
<path d="M11.8731 35.9953C14.1694 33.757 16.3836 31.4639 18.4157 28.915C18.3245 28.8602 18.2607 28.8237 18.197 28.778C17.9692 28.6044 17.7414 28.4308 17.4771 28.2298C15.4633 30.6052 13.2764 32.7978 10.9437 34.9356C10.2147 34.0677 9.50397 33.218 8.75678 32.3318C9.27617 31.8476 9.78645 31.3726 10.2785 30.8975C13.1124 28.1567 15.7731 25.2607 17.8963 21.9169C18.6708 20.6927 19.336 19.4137 19.8007 18.0342C20.6026 15.6497 20.3383 13.3383 19.1811 11.1457C17.5956 8.12173 15.0715 6.28541 11.7091 5.76467C6.67921 4.98812 1.6493 8.24963 0.182243 12.8541C0.136682 12.9912 0.0820093 13.1282 0 13.2652C0.0182243 12.2055 0.182243 11.164 0.473832 10.1499C0.856542 8.83433 1.38505 7.57357 2.15047 6.43159C4.69276 2.62192 8.22827 0.392758 12.8026 0.0455947C17.7596 -0.328977 21.778 1.61697 24.8944 5.4175C27.4185 8.48716 28.439 12.0684 28.1383 16.0517C27.8376 20.0167 26.4526 23.5888 24.4114 26.9508C22.507 30.0844 20.1561 32.8709 17.6138 35.4929C16.5568 36.58 15.4269 37.6032 14.297 38.6996C13.5589 37.8682 12.7297 36.9455 11.8731 35.9953ZM23.2269 11.0543C24.6028 15.1929 23.5002 18.9295 21.4956 22.5747C21.5867 22.6387 21.6778 22.7026 21.7598 22.7666C21.9238 22.8853 22.097 23.0132 22.3065 23.1685C24.4023 19.1853 25.4776 15.1381 23.8465 10.6798C23.6187 10.8168 23.4456 10.9173 23.2269 11.0543ZM3.03435 6.78789C5.71332 4.3212 8.82056 2.90513 12.4928 2.99649C16.2014 3.09699 19.2175 4.62268 21.4682 7.64666C21.6322 7.53703 21.7871 7.44567 21.9329 7.34518C18.0147 1.69919 8.8479 0.675971 3.03435 6.78789Z" fill="#00011D"/>
<path d="M18.9168 11.9495C18.2881 11.2918 17.6138 10.7162 16.7755 10.369C14.7435 9.53767 12.8026 9.72039 11.0348 10.9994C9.22149 12.315 8.41051 14.1604 8.63831 16.3987C8.7841 17.8331 9.42195 19.103 10.1327 20.3363C11.2262 22.2274 12.5839 23.9176 14.0509 25.5346C14.1238 25.6168 14.1876 25.6899 14.2514 25.7722C13.9142 26.4756 9.64065 30.8974 8.42873 31.811C8.31938 31.6831 8.19181 31.5552 8.09158 31.4181C6.0049 28.6956 4.09135 25.8727 2.5605 22.803C1.66751 21.0032 0.89298 19.1578 0.519382 17.157C-0.08202 13.9046 0.97499 11.2095 3.31681 8.99866C5.32149 7.10753 7.75443 6.10259 10.5154 6.21222C14.4063 6.36753 17.2037 8.31347 18.9259 11.8034C18.935 11.8308 18.9533 11.8582 18.9533 11.8856C18.9442 11.8947 18.935 11.913 18.9168 11.9495Z" fill="url(#paint0_linear_3005_10815)"/>
<path d="M49.0325 34.0494C49.0963 31.738 49.7979 30.0661 51.5292 28.9789C54.5271 27.0969 58.3815 28.6318 59.3292 32.0486C59.9853 34.3965 59.2654 36.8084 57.5341 38.2062C55.1467 40.1247 50.6909 39.6588 49.3696 35.7121C49.16 35.0817 49.1054 34.4057 49.0325 34.0494ZM51.1192 33.7296C51.1738 34.1042 51.2012 34.4879 51.2832 34.8533C51.5839 36.1049 52.5771 36.982 53.8255 37.1373C55.247 37.3109 56.4315 36.7353 57.0329 35.5568C57.3701 34.9081 57.4794 34.2047 57.4339 33.4738C57.3063 31.2355 55.6114 29.9199 53.4883 30.4041C52.0577 30.733 51.1192 32.0486 51.1192 33.7296Z" fill="#00011D"/>
<path d="M45.6701 37.1007C45.6701 36.3607 45.6701 35.6572 45.6701 34.8989C45.0049 34.8989 44.3671 34.8989 43.6745 34.8989C43.6745 34.2594 43.6745 33.6564 43.6745 33.0261C44.9867 33.0261 46.2988 33.0261 47.6383 33.0261C47.6383 34.835 47.6383 36.6073 47.6383 38.3797C45.579 39.9237 42.1801 39.7318 40.2939 37.8681C38.3257 35.9221 38.1526 32.3774 39.893 30.2122C41.8612 27.7546 45.4879 27.709 47.6383 29.1798C47.6383 29.9564 47.6383 30.7512 47.6383 31.6283C47.4743 31.4912 47.3467 31.3816 47.2192 31.2628C45.8068 30.0295 43.6472 29.865 42.1893 30.8791C41.0138 31.6922 40.5126 33.2545 40.9044 34.835C41.2234 36.114 42.3168 37.0459 43.6928 37.256C44.3671 37.3565 45.014 37.2925 45.6701 37.1007Z" fill="#00011D"/>
<path d="M39.5285 26.6586C38.9727 26.6586 38.4897 26.6586 37.9886 26.6586C37.4965 25.4892 37.0045 24.3289 36.4668 23.0682C35.9383 24.3198 35.4463 25.4801 34.9542 26.6495C34.453 26.6495 33.9792 26.6495 33.4325 26.6495C32.1841 23.6986 30.9266 20.7294 29.6509 17.7054C30.1886 17.7054 30.6624 17.7054 31.1636 17.7054C32.175 20.099 33.1865 22.4835 34.2252 24.9593C34.3255 24.7583 34.3893 24.6396 34.4439 24.5117C34.8266 23.5981 35.2002 22.6845 35.6012 21.7892C35.7288 21.4968 35.7196 21.2684 35.5921 20.9761C35.182 20.0442 34.7993 19.1032 34.4075 18.1622C34.3528 18.0252 34.3073 17.8881 34.2435 17.7054C34.7355 17.7054 35.1911 17.7054 35.665 17.7054C36.6673 20.099 37.6605 22.4926 38.6629 24.8862C38.6902 24.8862 38.7266 24.8954 38.754 24.8954C39.7654 22.5018 40.7678 20.1082 41.7883 17.6963C42.2713 17.6963 42.736 17.6963 43.301 17.6963C42.0344 20.7203 40.7769 23.6894 39.5285 26.6586Z" fill="#00011D"/>
<path d="M32.4848 31.546C31.8014 31.546 31.1727 31.546 30.4984 31.546C30.389 30.6142 30.6988 29.8468 31.3185 29.2164C32.4757 28.0287 34.5624 27.8369 35.9383 28.7687C37.1958 29.6184 37.6605 31.4273 36.886 32.8342C36.4759 33.5742 35.9383 34.2411 35.3916 34.8898C34.7264 35.6755 33.9974 36.4063 33.2138 37.256C34.6717 37.256 36.0386 37.256 37.4236 37.256C37.4236 37.9138 37.4236 38.4984 37.4236 39.1288C35.0909 39.1288 32.7855 39.1288 30.4073 39.1288C30.4073 38.6446 30.389 38.1787 30.4164 37.7128C30.4255 37.5666 30.5713 37.4295 30.6715 37.3016C31.9108 35.9039 33.1682 34.5243 34.3984 33.1174C34.6535 32.8251 34.8722 32.4779 35.0362 32.1307C35.3187 31.546 35.2002 30.8152 34.8084 30.4315C34.4257 30.0569 33.7514 29.9472 33.232 30.1756C32.6762 30.4315 32.4939 30.9248 32.4848 31.546Z" fill="#00011D"/>
<path d="M45.4241 26.6583C44.9138 26.6583 44.4855 26.6583 44.0208 26.6583C44.0208 23.68 44.0208 20.7109 44.0208 17.7143C44.1302 17.7051 44.2395 17.6869 44.3397 17.6777C44.6678 17.6777 45.0049 17.6777 45.3967 17.6777C45.3967 18.975 45.3967 20.2266 45.3967 21.5148C46.8729 21.5148 48.2944 21.5148 49.7524 21.5148C49.7524 20.2449 49.7524 19.0024 49.7524 17.7234C50.2353 17.7234 50.6818 17.7234 51.1465 17.7234C51.1465 20.7017 51.1465 23.6617 51.1465 26.6492C50.6909 26.6492 50.2626 26.6492 49.7706 26.6492C49.7706 25.3702 49.7706 24.1185 49.7706 22.8395C48.3035 22.8395 46.9003 22.8395 45.4241 22.8395C45.4241 24.1003 45.4241 25.3519 45.4241 26.6583Z" fill="#00011D"/>
<path d="M77.9544 18.8927C77.6628 19.1668 77.3621 19.4409 77.0341 19.7515C76.6696 19.3312 76.214 18.9293 75.6035 18.8744C75.0659 18.8196 74.5009 18.7831 73.9906 18.911C73.1705 19.112 73.0065 20.0621 73.6717 20.5737C74.0362 20.8569 74.4827 21.0396 74.9109 21.2406C75.4577 21.5056 76.0317 21.7066 76.5602 22.0081C77.681 22.6567 78.1002 23.5246 77.9088 24.694C77.7266 25.7812 77.0341 26.4755 75.7857 26.713C74.1911 27.0145 72.7696 26.6491 71.6215 25.4523C71.5121 25.3335 71.421 25.1965 71.3116 25.0503C71.6488 24.7214 71.9586 24.4199 72.3049 24.091C72.4142 24.2372 72.5145 24.3925 72.6238 24.5296C73.3163 25.3792 74.8107 25.7446 75.8313 25.3152C76.624 24.9772 76.8245 23.9175 76.132 23.3236C75.7037 22.9582 75.157 22.7298 74.6467 22.474C74.0909 22.1999 73.4894 22.0081 72.9518 21.7066C71.339 20.8204 71.6761 18.8288 72.8698 18.0522C74.1546 17.2026 76.9794 17.5041 77.9544 18.8927Z" fill="#00011D"/>
<path d="M59.311 17.7051C61.0149 17.7051 62.6734 17.7051 64.3773 17.7051C64.3773 18.0888 64.3773 18.4634 64.3773 18.8927C63.1745 18.8927 61.9626 18.8927 60.7234 18.8927C60.7234 19.7881 60.7234 20.6286 60.7234 21.5513C61.7713 21.5513 62.8191 21.5513 63.9035 21.5513C63.9035 21.9989 63.9035 22.3735 63.9035 22.7938C62.8465 22.7938 61.8077 22.7938 60.7325 22.7938C60.7325 23.6891 60.7325 24.5296 60.7325 25.434C61.9262 25.434 63.1472 25.434 64.3956 25.434C64.3956 25.8726 64.3956 26.238 64.3956 26.6491C62.7007 26.6491 61.0332 26.6491 59.3292 26.6491C59.311 23.68 59.311 20.7199 59.311 17.7051Z" fill="#00011D"/>
<path d="M52.8232 26.6494C52.8232 23.6528 52.8232 20.7019 52.8232 17.7236C54.518 17.7236 56.1856 17.7236 57.8987 17.7236C57.8987 18.0891 57.8987 18.4636 57.8987 18.8839C56.6958 18.8839 55.4839 18.8839 54.2447 18.8839C54.2447 19.7792 54.2447 20.6197 54.2447 21.5333C55.2835 21.5333 56.3314 21.5333 57.4157 21.5333C57.4157 21.9901 57.4157 22.3738 57.4157 22.8123C56.3405 22.8123 55.3017 22.8123 54.2356 22.8123C54.2356 23.7076 54.2356 24.5481 54.2356 25.4435C55.4657 25.4435 56.6685 25.4435 57.9078 25.4435C57.9078 25.8637 57.9078 26.2383 57.9078 26.6403C56.222 26.6494 54.5454 26.6494 52.8232 26.6494Z" fill="#00011D"/>
<path d="M70.3093 25.4343C70.3184 25.6353 70.3276 25.7541 70.3367 25.8729C70.3367 26.1104 70.3367 26.3571 70.3367 26.6403C68.815 26.6403 67.3206 26.6403 65.7988 26.6403C65.7988 23.6802 65.7988 20.7202 65.7988 17.7236C66.218 17.7236 66.6463 17.7236 67.1383 17.7236C67.1383 20.2634 67.1383 22.8215 67.1383 25.4343C68.2227 25.4343 69.2432 25.4343 70.3093 25.4343Z" fill="#00011D"/>
</g>
<defs>
<linearGradient id="paint0_linear_3005_10815" x1="9.6534" y1="6.2041" x2="9.6534" y2="31.811" gradientUnits="userSpaceOnUse">
<stop stopColor="#015641"/>
<stop offset="1" stopColor="#52D594"/>
</linearGradient>
<clipPath id="clip0_3005_10815">
<rect width="78" height="39.4671" fill="white"/>
</clipPath>
</defs>
</svg>
