<svg width="24" height="24" viewBox="0 0 24 24" fill="none" xmlns="http://www.w3.org/2000/svg">
    <path d="M10.8656 12.7495V10.4995H17.625L18 8.24955H10.8656V7.86892C10.8656 6.05533 11.6377 4.93642 14.9522 4.93642C16.3064 4.93642 17.8327 5.06252 19.7569 5.37799L20.25 2.09674C18.4582 1.68775 16.6251 1.48735 14.7872 1.49955C8.87156 1.49955 6.32812 3.5808 6.32812 7.42736V8.24955H3.75V10.4995H6.32812V12.7495H3.75V14.9995H6.32812V16.5717C6.32812 20.4183 8.87016 22.4995 14.7858 22.4995C16.6222 22.5111 18.4537 22.3101 20.2439 21.9005L19.748 18.6192C17.8238 18.9347 16.3045 19.0608 14.9503 19.0608C11.6363 19.0608 10.8656 18.1149 10.8656 15.8761V14.9995H16.8877L17.2566 12.7495H10.8656Z"
          fill="#1F1D25"/>
</svg>
