<svg width="24" height="24" viewBox="0 0 24 24" fill="none" xmlns="http://www.w3.org/2000/svg">
    <path d="M18.7392 9.51562C18.7017 8.71406 18.5845 7.89844 18.233 7.16719C18.0402 6.76258 17.7784 6.3946 17.4595 6.07969C17.1605 5.78359 16.825 5.52684 16.4611 5.31563C15.6595 4.8375 14.7033 4.51875 12.5048 3.8625C10.3064 3.20625 9 3 9 3V19.7953L12.7453 21C12.7453 21 12.75 11.6812 12.75 6.96094V6.78281C12.75 6.34687 13.1016 5.99531 13.5047 5.99531H13.5281C13.9266 5.99531 14.2547 6.34687 14.2547 6.78281V13.0312C14.7703 13.2797 15.6234 13.4672 16.2141 13.4578C16.606 13.4687 16.9939 13.3766 17.3391 13.1906C17.6953 12.9936 17.9929 12.7057 18.2016 12.3563C18.4343 11.9622 18.5917 11.5282 18.6656 11.0766C18.7533 10.5703 18.758 10.0406 18.7392 9.51562Z"
          fill="#1F1D25"/>
    <path d="M4.06269 16.7721C5.34707 16.3127 8.24863 15.3893 8.24863 15.3893V13.1768C8.24863 13.1768 4.66269 14.3393 3.03144 14.9158C2.62832 15.0611 2.22051 15.1924 1.82676 15.3611C1.36738 15.5533 0.917381 15.7689 0.509569 16.0549C0.326609 16.1719 0.177836 16.3353 0.0783186 16.5283C0.0316736 16.6275 0.00555351 16.7351 0.00152599 16.8447C-0.00250153 16.9542 0.0156466 17.0635 0.0548811 17.1658C0.148631 17.4049 0.326756 17.6018 0.528319 17.7564C0.893944 18.033 1.32988 18.2018 1.76582 18.3283C3.10125 18.7716 4.50283 18.9825 5.90957 18.9518C6.58926 18.9424 7.59707 18.8627 8.25332 18.7455V16.7768C8.25332 16.7768 7.73769 16.8939 6.31738 17.3627C6.10176 17.433 5.88613 17.5174 5.66113 17.5643C5.32811 17.6336 4.98879 17.6681 4.64863 17.6674C4.34394 17.6533 4.02988 17.6346 3.74394 17.5221C3.64082 17.4752 3.52832 17.4189 3.48613 17.3064C3.44863 17.2127 3.50019 17.1189 3.56582 17.0533C3.69707 16.9174 3.88457 16.8424 4.06269 16.7721Z"
          fill="#1F1D25"/>
    <path d="M24 16.2143C23.9953 15.933 23.8266 15.6893 23.6297 15.5111C23.2969 15.2158 22.8844 15.0283 22.4719 14.8783C22.2141 14.7893 22.0359 14.7236 21.7828 14.6439C20.6016 14.2596 19.35 14.1189 18.1125 14.1143C17.7375 14.1283 17.0297 14.1377 16.6594 14.1799C15.6328 14.2971 13.5047 14.9018 13.5047 14.9018V17.1893C13.5047 17.1893 16.6688 16.1768 18.0281 15.6986C18.4867 15.5499 18.9664 15.4771 19.4484 15.483C19.7531 15.4924 20.0672 15.5158 20.3578 15.6283C20.4609 15.6705 20.5687 15.7314 20.6156 15.8393C20.6578 15.9611 20.5734 16.0736 20.4797 16.1439C20.2594 16.3221 19.9781 16.3924 19.7203 16.4908C17.7984 17.1705 13.5 18.5861 13.5 18.5861V20.7893C13.5 20.7893 18.9937 18.933 21.5062 18.033C21.9234 17.8783 22.3453 17.7471 22.7438 17.5455C23.1141 17.358 23.4844 17.1424 23.7656 16.8283C23.9163 16.6592 23.9997 16.4407 24 16.2143V16.2143Z"
          fill="#1F1D25"/>
</svg>
