<svg width="24" height="24" viewBox="0 0 24 24" fill="none" xmlns="http://www.w3.org/2000/svg">
    <path d="M13.8424 5.75625L10.4463 3L13.8532 8.74875L13.8424 5.75625Z" fill="#1F1D25"/>
    <path d="M15.9108 3V12.1688H13.9608L10.575 6.6225L10.6659 12.1688H8.51766V6.15L6.51984 4.5C6.57328 4.5675 6.62672 4.635 6.675 4.70813C7.21078 5.49 7.47844 6.42375 7.47844 7.54875C7.47844 10.3144 5.83781 12.1669 3.35906 12.1669H0V12.1894L10.6927 21H24V9.64313L15.9108 3Z"
          fill="#1F1D25"/>
    <path d="M5.24449 7.61793C5.24449 5.98668 4.48371 5.08105 3.1173 5.08105H2.08887V10.0873H3.10699C4.49965 10.0873 5.24449 9.22106 5.24449 7.61793Z"
          fill="#1F1D25"/>
</svg>
