<svg width="24" height="24" viewBox="0 0 24 24" fill="none" xmlns="http://www.w3.org/2000/svg">
    <path d="M8.84961 11.9967C8.84942 12.6198 9.03401 13.2289 9.38003 13.747C9.72604 14.2652 10.2179 14.669 10.7935 14.9076C11.3691 15.1462 12.0025 15.2087 12.6136 15.0872C13.2247 14.9658 13.786 14.6659 14.2267 14.2254C14.6673 13.7849 14.9674 13.2236 15.089 12.6125C15.2106 12.0015 15.1483 11.3681 14.9099 10.7924C14.6715 10.2168 14.2678 9.72476 13.7498 9.37859C13.2317 9.03242 12.6227 8.84766 11.9996 8.84766C11.165 8.84988 10.3652 9.18234 9.77502 9.7724C9.18478 10.3625 8.85208 11.1621 8.84961 11.9967V11.9967Z"
          fill="#1F1D25"/>
    <path d="M22.3477 10.2089C22.3477 10.2089 22.3477 10.2089 22.3477 10.2112C22.2708 9.75334 22.1612 9.30155 22.0195 8.85938H22.0144C22.1582 9.30371 22.269 9.75808 22.3458 10.2188V10.2188C22.2687 9.75812 22.158 9.30378 22.0144 8.85938H14.73C15.623 9.65625 16.2 10.7423 16.2 12.0023C16.202 12.7407 16.0025 13.4657 15.623 14.0991L10.8281 22.4273C10.8284 22.4316 10.8284 22.4358 10.8281 22.44V22.4531V22.4409C11.2173 22.4825 11.6086 22.5022 12 22.5C12.3206 22.5 12.638 22.4817 12.9516 22.4531C13.4214 22.4107 13.8877 22.3364 14.3475 22.2309C19.0162 21.165 22.5 16.9875 22.5 11.9972C22.5001 11.3979 22.4491 10.7996 22.3477 10.2089V10.2089Z"
          fill="#1F1D25"/>
    <path d="M12.0001 16.1954C10.4251 16.1954 9.11263 15.3559 8.37716 14.0959L3.56262 5.76809L3.55606 5.75684C2.51717 7.16335 1.846 8.80705 1.60346 10.5387C1.36091 12.2704 1.55468 14.0353 2.16717 15.6731C2.77966 17.3109 3.79149 18.7698 5.1108 19.9174C6.43011 21.065 8.01513 21.865 9.72201 22.2446V22.2423L13.3637 15.9329C12.9283 16.1004 12.4666 16.1893 12.0001 16.1954V16.1954Z"
          fill="#1F1D25"/>
    <path d="M4.27949 4.90165L7.90527 11.1477C8.0935 10.1997 8.60438 9.34623 9.35097 8.73245C10.0976 8.11866 11.0338 7.7825 12.0003 7.78118H21.6176C21.287 7.05472 20.882 6.36448 20.4092 5.72149L20.4148 5.72524C20.8858 6.36706 21.2889 7.05607 21.6176 7.78118H21.6256C21.2971 7.0539 20.894 6.36269 20.4228 5.71868C20.417 5.71508 20.4115 5.711 20.4064 5.70649C19.4825 4.47145 18.2979 3.45516 16.9367 2.72993C15.5756 2.00469 14.0713 1.58833 12.5309 1.51046C10.9906 1.43259 9.45197 1.69512 8.02459 2.27939C6.59721 2.86365 5.31612 3.75529 4.27246 4.89087L4.27902 4.90212L4.27949 4.90165Z"
          fill="#1F1D25"/>
</svg>
