<svg width="24" height="24" viewBox="0 0 24 24" fill="none" xmlns="http://www.w3.org/2000/svg">
    <path d="M8.99902 21.7402V19.4902" stroke="#1F1D25" strokeWidth="2" stroke-miterlimit="10" strokeLinecap="round"/>
    <path d="M4.22656 19.7628L5.8175 18.1719" stroke="#1F1D25" strokeWidth="2" stroke-miterlimit="10"
          strokeLinecap="round"/>
    <path d="M2.24902 14.9902H4.49903" stroke="#1F1D25" strokeWidth="2" stroke-miterlimit="10" strokeLinecap="round"/>
    <path d="M12.5423 14.64L11.084 16.0982C11.0143 16.1679 10.9591 16.2506 10.9214 16.3416C10.8837 16.4326 10.8643 16.5301 10.8643 16.6286C10.8643 16.7271 10.8837 16.8247 10.9214 16.9157C10.9591 17.0067 11.0143 17.0894 11.084 17.159L13.2056 19.2801C13.3462 19.4207 13.5369 19.4996 13.7357 19.4996C13.9345 19.4996 14.1252 19.4207 14.2659 19.2801L15.7246 17.8218C15.742 17.8044 15.7559 17.7837 15.7653 17.761C15.7747 17.7382 15.7796 17.7138 15.7796 17.6892C15.7796 17.6645 15.7747 17.6401 15.7653 17.6174C15.7559 17.5946 15.742 17.5739 15.7246 17.5565L12.8076 14.64C12.7902 14.6225 12.7695 14.6087 12.7467 14.5993C12.724 14.5898 12.6996 14.585 12.6749 14.585C12.6503 14.585 12.6259 14.5898 12.6031 14.5993C12.5804 14.6087 12.5597 14.6225 12.5423 14.64V14.64Z"
          fill="#1F1D25"/>
    <path d="M6.17778 8.2757L4.7195 9.73445C4.57895 9.87509 4.5 10.0658 4.5 10.2646C4.5 10.4634 4.57895 10.6541 4.7195 10.7948L6.84059 12.9163C6.91024 12.986 6.99292 13.0413 7.08393 13.079C7.17493 13.1167 7.27248 13.1361 7.37098 13.1361C7.46949 13.1361 7.56703 13.1167 7.65803 13.079C7.74904 13.0413 7.83173 12.986 7.90137 12.9163L9.35965 11.458C9.37709 11.4406 9.39092 11.42 9.40035 11.3972C9.40979 11.3744 9.41464 11.35 9.41464 11.3254C9.41464 11.3008 9.40979 11.2764 9.40035 11.2536C9.39092 11.2308 9.37709 11.2101 9.35965 11.1927L6.44309 8.2757C6.42568 8.25826 6.405 8.24443 6.38223 8.235C6.35947 8.22556 6.33507 8.2207 6.31043 8.2207C6.28579 8.2207 6.26139 8.22556 6.23863 8.235C6.21587 8.24443 6.19519 8.25826 6.17778 8.2757V8.2757Z"
          fill="#1F1D25"/>
    <path d="M20.1028 3.90375C19.4761 3.27632 18.732 2.77853 17.9129 2.4388C17.0937 2.09908 16.2157 1.92409 15.3289 1.92383C14.4422 1.92357 13.564 2.09804 12.7447 2.43728C11.9254 2.77652 11.1809 3.27388 10.5539 3.90093L7.50421 6.95015C7.48678 6.96757 7.47295 6.98825 7.46351 7.01101C7.45408 7.03377 7.44922 7.05817 7.44922 7.08281C7.44922 7.10745 7.45408 7.13185 7.46351 7.15461C7.47295 7.17737 7.48678 7.19805 7.50421 7.21547L10.4212 10.132C10.4387 10.1495 10.4593 10.1633 10.4821 10.1727C10.5049 10.1822 10.5293 10.187 10.5539 10.187C10.5785 10.187 10.6029 10.1822 10.6257 10.1727C10.6485 10.1633 10.6691 10.1495 10.6866 10.132L13.7334 7.08281C13.9447 6.87159 14.1958 6.70454 14.4723 6.59142C14.7488 6.4783 15.045 6.42136 15.3438 6.42393C15.6425 6.42651 15.9377 6.48854 16.2122 6.60641C16.4867 6.72428 16.7349 6.89563 16.9425 7.11047C17.8003 7.99734 17.7614 9.41859 16.8891 10.2909L13.8684 13.3125C13.851 13.3299 13.8372 13.3506 13.8277 13.3734C13.8183 13.3961 13.8134 13.4205 13.8134 13.4452C13.8134 13.4698 13.8183 13.4942 13.8277 13.517C13.8372 13.5397 13.851 13.5604 13.8684 13.5778L16.785 16.4948C16.8024 16.5123 16.8231 16.5261 16.8458 16.5355C16.8686 16.545 16.893 16.5498 16.9176 16.5498C16.9423 16.5498 16.9667 16.545 16.9894 16.5355C17.0122 16.5261 17.0329 16.5123 17.0503 16.4948L20.0541 13.4911C22.6964 10.8502 22.7433 6.5475 20.1028 3.90375Z"
          fill="#1F1D25"/>
</svg>
