<svg width="24" height="24" viewBox="0 0 24 24" fill="none" xmlns="http://www.w3.org/2000/svg">
    <path d="M21.0314 7.23985L12.8484 3.19688C12.5844 3.06735 12.2941 3 12 3C11.7059 3 11.4156 3.06735 11.1516 3.19688L2.9686 7.23985C2.52797 7.45363 2.15649 7.78724 1.89675 8.20243C1.637 8.61762 1.4995 9.0976 1.5 9.58735V18.2409C1.5 19.6884 2.69156 20.8659 4.15641 20.8659H19.8436C21.3084 20.8659 22.5 19.6884 22.5 18.2409V9.58735C22.5005 9.0976 22.363 8.61762 22.1033 8.20243C21.8435 7.78724 21.472 7.45363 21.0314 7.23985V7.23985ZM11.8303 4.53844C11.8831 4.51254 11.9412 4.49907 12 4.49907C12.0588 4.49907 12.1169 4.51254 12.1697 4.53844L20.1094 8.46001L12.0469 12.4444C11.9941 12.4703 11.936 12.4838 11.8772 12.4838C11.8184 12.4838 11.7603 12.4703 11.7075 12.4444L3.76641 8.52235L11.8303 4.53844Z"
          fill="#1F1D25"/>
</svg>
