<svg width="24" height="24" viewBox="0 0 24 24" fill="none" xmlns="http://www.w3.org/2000/svg">
    <path d="M23.2504 6.00238C23.2512 5.42441 23.0851 4.85851 22.7719 4.37272C22.4588 3.88692 22.012 3.50192 21.4853 3.26401C20.9585 3.02609 20.3743 2.9454 19.8028 3.03162C19.2313 3.11784 18.6969 3.36731 18.2638 3.75004V3.75004C18.0293 3.95687 17.8283 4.1988 17.668 4.46722V4.47004C17.6427 4.51222 17.6188 4.55535 17.5954 4.59847L17.5841 4.62144C17.5644 4.65847 17.5461 4.69597 17.5283 4.73394C17.5227 4.74566 17.5175 4.75738 17.5124 4.7691C17.4969 4.80332 17.4819 4.83801 17.4679 4.87316C17.4618 4.88769 17.4561 4.90222 17.4505 4.91676C17.4379 4.94957 17.4257 4.98238 17.4139 5.01566L17.3971 5.06535C17.3868 5.09722 17.3769 5.12957 17.3675 5.16191C17.3619 5.18019 17.3568 5.19801 17.3521 5.21629C17.3432 5.24769 17.3357 5.27957 17.3282 5.31004C17.3235 5.32926 17.3188 5.34847 17.3146 5.36769C17.308 5.39957 17.3019 5.43191 17.2963 5.46144C17.2925 5.48113 17.2888 5.50082 17.2855 5.52051C17.2804 5.55332 17.2761 5.5866 17.2719 5.61988C17.2696 5.6391 17.2668 5.65832 17.2644 5.67801C17.2607 5.7141 17.2583 5.75019 17.2555 5.78676C17.2555 5.80363 17.2527 5.82051 17.2518 5.83738C17.2489 5.89082 17.2471 5.94426 17.2471 5.99863C17.2471 6.04551 17.2471 6.09238 17.2508 6.13644V6.16644C17.2533 6.21051 17.2566 6.25457 17.2607 6.29863L17.2635 6.32113C17.2677 6.36097 17.2724 6.40035 17.2785 6.43926C17.2785 6.44722 17.2785 6.45566 17.2818 6.46363C17.2883 6.50629 17.2963 6.54847 17.3047 6.59066C17.3047 6.60097 17.3089 6.61082 17.3108 6.62113C17.3193 6.66144 17.3286 6.70176 17.3389 6.7416C17.3389 6.74488 17.3389 6.74769 17.3389 6.75051C17.3497 6.79222 17.3614 6.83301 17.3741 6.87379L17.3839 6.90566C17.3966 6.94551 17.4097 6.98441 17.4238 7.02332C17.4266 7.03176 17.4299 7.04019 17.4332 7.04863C17.4458 7.08191 17.4589 7.11519 17.4725 7.14801C17.4763 7.15785 17.48 7.16722 17.4843 7.1766C17.5002 7.21363 17.5166 7.25066 17.5339 7.28722L17.5494 7.31863C17.5658 7.35144 17.5822 7.38426 17.5996 7.4166C17.8443 7.87134 18.2016 8.25564 18.6374 8.53269V8.53269C18.7518 8.60577 18.8711 8.67077 18.9946 8.72722L19.0129 8.73566C19.096 8.77316 19.1808 8.80691 19.2674 8.83691L19.3119 8.85191L19.3822 8.87394C19.4033 8.88051 19.4244 8.88613 19.446 8.89222L19.536 8.91566L19.6171 8.93441L19.671 8.94519L19.7568 8.96066L19.8008 8.96769C19.843 8.97379 19.8857 8.97941 19.9283 8.9841L19.9644 8.98738C19.9986 8.99019 20.0333 8.99301 20.068 8.99488L20.1083 8.99722C20.1552 8.99722 20.1993 9.00097 20.2452 9.00097C20.2996 9.00097 20.353 9.00097 20.4064 8.99629L20.4571 8.99254C20.4936 8.98972 20.5297 8.98738 20.5658 8.98363L20.6244 8.97613C20.6572 8.97191 20.6905 8.96769 20.7233 8.96254L20.7824 8.95176C20.8143 8.94613 20.8466 8.94004 20.8761 8.93347L20.9338 8.91988C20.9657 8.91238 20.9975 8.90488 21.0275 8.89597C21.0458 8.89129 21.0636 8.88613 21.0819 8.88051C21.1143 8.87113 21.1466 8.86129 21.1785 8.85097L21.2282 8.8341C21.2614 8.82238 21.2943 8.81019 21.3271 8.79754L21.3707 8.78019C21.4058 8.76613 21.4405 8.75113 21.4747 8.73566L21.5099 8.71972C21.5479 8.70191 21.5854 8.68363 21.6224 8.66394L21.6454 8.65269C21.6885 8.62926 21.7316 8.60582 21.7738 8.58004H21.7766C22.0472 8.42098 22.2914 8.22077 22.5004 7.9866V7.9866C22.9844 7.43903 23.2512 6.7332 23.2504 6.00238V6.00238Z"
          fill="#1F1D25"/>
    <path d="M17.4084 9.49359L12.4603 13.342C12.3287 13.4444 12.1667 13.4999 12 13.4999C11.8333 13.4999 11.6713 13.4444 11.5397 13.342L4.78969 8.09203C4.71038 8.03214 4.64377 7.95709 4.59372 7.87123C4.54367 7.78537 4.51118 7.69042 4.49815 7.5919C4.48511 7.49338 4.49179 7.39325 4.51778 7.29733C4.54378 7.20142 4.58858 7.11162 4.64958 7.03316C4.71058 6.95471 4.78656 6.88916 4.87312 6.84032C4.95967 6.79149 5.05506 6.76034 5.15376 6.74869C5.25245 6.73704 5.35248 6.74513 5.44802 6.77247C5.54357 6.79981 5.63272 6.84587 5.71031 6.90797L12 11.7998L16.4166 8.36484C15.9892 7.67351 15.7574 6.87922 15.7457 6.06656C15.7341 5.25389 15.9431 4.45329 16.3505 3.75H4.125C3.42904 3.75074 2.76179 4.02755 2.26967 4.51967C1.77755 5.01179 1.50074 5.67904 1.5 6.375V17.625C1.50074 18.321 1.77755 18.9882 2.26967 19.4803C2.76179 19.9725 3.42904 20.2493 4.125 20.25H19.875C20.571 20.2493 21.2382 19.9725 21.7303 19.4803C22.2225 18.9882 22.4993 18.321 22.5 17.625V9.89953C21.7105 10.3569 20.8004 10.563 19.8909 10.4904C18.9814 10.4179 18.1155 10.0702 17.4084 9.49359V9.49359Z"
          fill="#1F1D25"/>
</svg>
