<svg width="24" height="24" viewBox="0 0 24 24" fill="none" xmlns="http://www.w3.org/2000/svg">
    <path d="M2.25798 5.31279C2.02717 5.44417 1.83538 5.63447 1.70221 5.86424C1.56904 6.09402 1.49926 6.35503 1.50001 6.6206V20.5312C1.49917 20.7904 1.5655 21.0454 1.69253 21.2713C1.81956 21.4972 2.00296 21.6863 2.22484 21.8203C2.44673 21.9542 2.69953 22.0284 2.95861 22.0355C3.21769 22.0427 3.4742 21.9826 3.70313 21.8611C3.72329 21.8503 3.74298 21.839 3.7622 21.8264L7.70626 19.2459C7.75863 19.2118 7.80164 19.165 7.83136 19.11C7.86107 19.055 7.87656 18.9934 7.87641 18.9309V2.17732C7.87661 2.10901 7.85813 2.04194 7.82299 1.98336C7.78785 1.92478 7.73738 1.87692 7.67702 1.84493C7.61666 1.81294 7.54871 1.79804 7.4805 1.80185C7.4123 1.80566 7.34643 1.82803 7.29001 1.86654L2.25798 5.31279Z"
          fill="#1F1D25"/>
    <path d="M9.95438 1.84233C9.89783 1.80557 9.83243 1.78475 9.76505 1.78204C9.69767 1.77933 9.6308 1.79485 9.5715 1.82695C9.51219 1.85905 9.46264 1.90655 9.42806 1.96444C9.39348 2.02234 9.37515 2.08848 9.375 2.15592V18.9165C9.37485 18.9791 9.39034 19.0406 9.42006 19.0957C9.44978 19.1507 9.49278 19.1974 9.54516 19.2315L14.0452 22.1575C14.1017 22.1944 14.1672 22.2153 14.2347 22.2181C14.3022 22.2208 14.3692 22.2053 14.4286 22.1731C14.488 22.1409 14.5376 22.0933 14.5722 22.0353C14.6067 21.9773 14.625 21.911 14.625 21.8434V5.09358C14.6252 5.03092 14.6096 4.96923 14.5798 4.91412C14.55 4.85901 14.5069 4.81225 14.4544 4.77811L9.95438 1.84233Z"
          fill="#1F1D25"/>
    <path d="M21.7748 2.17855C21.5538 2.04326 21.3011 1.96827 21.0421 1.96103C20.783 1.95379 20.5266 2.01457 20.2983 2.1373C20.2781 2.14768 20.2585 2.15926 20.2397 2.17199L16.2952 4.75012C16.2428 4.78427 16.1998 4.83098 16.1701 4.886C16.1403 4.94101 16.1249 5.00259 16.125 5.06512V21.8211C16.1248 21.8894 16.1432 21.9566 16.1784 22.0153C16.2135 22.0739 16.2641 22.1218 16.3245 22.1538C16.3849 22.1858 16.453 22.2007 16.5213 22.1968C16.5895 22.193 16.6555 22.1705 16.7119 22.1318L21.7308 18.6884C21.9644 18.5581 22.1589 18.3677 22.2941 18.1369C22.4294 17.9061 22.5005 17.6434 22.5 17.3759V3.5009C22.5031 3.23672 22.438 2.97622 22.3109 2.74457C22.1839 2.51293 21.9993 2.31797 21.7748 2.17855V2.17855Z"
          fill="#1F1D25"/>
</svg>
