<svg width="24" height="24" viewBox="0 0 24 24" fill="none" xmlns="http://www.w3.org/2000/svg">
    <path d="M12 18C12.8284 18 13.5 17.3284 13.5 16.5C13.5 15.6716 12.8284 15 12 15C11.1716 15 10.5 15.6716 10.5 16.5C10.5 17.3284 11.1716 18 12 18Z"
          fill="#1F1D25"/>
    <path d="M4.67684 1.5C4.25894 1.49992 3.84929 1.61622 3.49377 1.83587C3.13826 2.05552 2.85094 2.36984 2.66402 2.74359L1.2109 5.64984C1.0689 5.93563 0.988977 6.24823 0.976374 6.5671C0.963771 6.88597 1.01878 7.2039 1.13777 7.5H14.1784C14.2101 7.50003 14.2414 7.49201 14.2692 7.47668C14.297 7.46135 14.3204 7.43921 14.3373 7.41234L17.8764 1.78734C17.8942 1.75903 17.9041 1.72646 17.9051 1.69302C17.9061 1.65958 17.8981 1.62649 17.882 1.59717C17.8659 1.56785 17.8422 1.54338 17.8134 1.5263C17.7847 1.50921 17.7519 1.50013 17.7184 1.5H4.67684Z"
          fill="#1F1D25"/>
    <path d="M22.7892 5.65145L21.3361 2.7452C21.1863 2.44331 20.9703 2.17916 20.7042 1.9725C20.438 1.76584 20.1286 1.62201 19.799 1.55176L16.0546 7.5002L13.9687 10.8321C12.6936 10.3891 11.3063 10.3891 10.0312 10.8321L8.93809 9.08832C8.92124 9.06137 8.89782 9.03914 8.87002 9.02372C8.84222 9.00831 8.81097 9.00021 8.77918 9.0002H2.39715C2.36352 9.00025 2.33052 9.00935 2.30161 9.02654C2.27271 9.04374 2.24896 9.06839 2.23286 9.09791C2.21675 9.12744 2.20888 9.16075 2.21008 9.19436C2.21127 9.22797 2.22149 9.26064 2.23965 9.28895L6.11621 15.3232C5.94156 16.1938 5.96235 17.0924 6.17707 17.954C6.3918 18.8157 6.7951 19.6189 7.35789 20.3058C7.92067 20.9927 8.62891 21.5461 9.4315 21.9261C10.2341 22.3061 11.111 22.5032 11.999 22.5032C12.887 22.5032 13.764 22.3061 14.5665 21.9261C15.3691 21.5461 16.0774 20.9927 16.6402 20.3058C17.2029 19.6189 17.6063 18.8157 17.821 17.954C18.0357 17.0924 18.0565 16.1938 17.8818 15.3232L22.6696 7.8752C22.8798 7.54639 23.0013 7.16876 23.0223 6.77906C23.0432 6.38937 22.9629 6.00089 22.7892 5.65145V5.65145ZM12.1954 19.4941C11.5867 19.5339 10.9803 19.3871 10.4571 19.0735C9.93392 18.7598 9.51879 18.294 9.26708 17.7384C9.01537 17.1827 8.93904 16.5635 9.04827 15.9633C9.15751 15.3631 9.44711 14.8105 9.87847 14.3792C10.3098 13.9478 10.8624 13.6582 11.4626 13.549C12.0628 13.4397 12.682 13.5161 13.2376 13.7678C13.7933 14.0195 14.2591 14.4346 14.5728 14.9578C14.8864 15.481 15.0332 16.0874 14.9934 16.6961C14.9452 17.4223 14.6349 18.1062 14.1204 18.6208C13.6059 19.1354 12.922 19.4457 12.1959 19.4941H12.1954Z"
          fill="#1F1D25"/>
</svg>
