<svg width="24" height="24" viewBox="0 0 24 24" fill="none" xmlns="http://www.w3.org/2000/svg">
    <path d="M12.7502 21.75H11.2502C10.8524 21.75 10.4709 21.592 10.1896 21.3107C9.90828 21.0294 9.75025 20.6478 9.75025 20.25L9.75259 16.2272C9.75264 16.1943 9.74401 16.1619 9.72758 16.1333C9.71114 16.1048 9.68747 16.0811 9.65896 16.0646C9.63045 16.0481 9.5981 16.0394 9.56516 16.0394C9.53222 16.0394 9.49987 16.0481 9.47134 16.0645L5.98665 18.083C5.64775 18.2786 5.24501 18.3316 4.86702 18.2304C4.48902 18.1291 4.16673 17.8818 3.97103 17.543L3.19759 16.2005L3.19478 16.1958C3.00435 15.857 2.95444 15.4571 3.05577 15.0819C3.1571 14.7068 3.40158 14.3863 3.73665 14.1895L7.234 12.1622C7.26241 12.1457 7.286 12.122 7.30239 12.0936C7.31879 12.0651 7.32742 12.0328 7.32742 12C7.32742 11.9672 7.31879 11.9349 7.30239 11.9064C7.286 11.878 7.26241 11.8543 7.234 11.8378L3.73994 9.81234C3.5717 9.71587 3.42418 9.58712 3.30585 9.43348C3.18752 9.27983 3.10071 9.10432 3.0504 8.91703C3.00009 8.72974 2.98728 8.53435 3.0127 8.3421C3.03812 8.14984 3.10127 7.9645 3.19853 7.79672L3.96915 6.45844C4.06653 6.28925 4.19651 6.14106 4.35156 6.02246C4.50661 5.90385 4.68366 5.8172 4.87244 5.7675C5.05906 5.71742 5.25378 5.70488 5.44529 5.73063C5.6368 5.75638 5.82129 5.8199 5.98806 5.9175L9.47134 7.93313C9.49987 7.94959 9.53222 7.95826 9.56516 7.95825C9.5981 7.95823 9.63045 7.94955 9.65896 7.93306C9.68747 7.91657 9.71114 7.89286 9.72758 7.86432C9.74401 7.83577 9.75264 7.80341 9.75259 7.77047L9.75025 3.75C9.75025 3.35218 9.90828 2.97064 10.1896 2.68934C10.4709 2.40804 10.8524 2.25 11.2502 2.25H12.7502C13.1481 2.25 13.5296 2.40804 13.8109 2.68934C14.0922 2.97064 14.2502 3.35218 14.2502 3.75V7.76813C14.2502 7.80106 14.2588 7.83343 14.2753 7.86197C14.2917 7.89051 14.3154 7.91422 14.3439 7.93071C14.3724 7.9472 14.4047 7.95589 14.4377 7.9559C14.4706 7.95591 14.503 7.94725 14.5315 7.93078L18.0162 5.91234C18.3552 5.71707 18.7578 5.66426 19.1357 5.7655C19.5136 5.86673 19.8358 6.11375 20.0318 6.45234L20.8048 7.79484L20.8076 7.79906C21.0002 8.13816 21.0509 8.53966 20.9487 8.91601C20.8465 9.29236 20.5996 9.61304 20.262 9.80813L16.7684 11.8331C16.74 11.8496 16.7164 11.8733 16.7 11.9017C16.6836 11.9302 16.675 11.9625 16.675 11.9953C16.675 12.0282 16.6836 12.0604 16.7 12.0889C16.7164 12.1174 16.74 12.141 16.7684 12.1575L20.262 14.1825C20.4302 14.279 20.5777 14.4077 20.6961 14.5614C20.8144 14.715 20.9012 14.8905 20.9516 15.0778C21.0019 15.265 21.0148 15.4604 20.9894 15.6527C20.9641 15.8449 20.901 16.0303 20.8038 16.1981L20.0332 17.5364C19.9358 17.7056 19.8059 17.8538 19.6508 17.9724C19.4958 18.091 19.3187 18.1776 19.1299 18.2273C18.9433 18.2774 18.7486 18.29 18.5571 18.2642C18.3656 18.2385 18.1811 18.1749 18.0143 18.0773L14.531 16.0617C14.5025 16.0453 14.4702 16.0366 14.4373 16.0366C14.4044 16.0366 14.3721 16.0452 14.3436 16.0617C14.3151 16.0781 14.2914 16.1017 14.275 16.1302C14.2585 16.1587 14.2498 16.191 14.2498 16.2239L14.2502 20.25C14.2502 20.6478 14.0922 21.0294 13.8109 21.3107C13.5296 21.592 13.1481 21.75 12.7502 21.75Z"
          fill="#1F1D25"/>
</svg>
