<svg width="24" height="24" viewBox="0 0 24 24" fill="none" xmlns="http://www.w3.org/2000/svg">
    <path d="M2.25 8.25V8.28094C2.24889 8.4742 2.17911 8.66078 2.05312 8.80734V8.80969C1.8 9.10875 1.5 9.64406 1.5 10.5C1.5 11.2758 1.74844 11.8233 2.0475 12.1833C2.17871 12.343 2.2503 12.5433 2.25 12.75V12.75C2.25 13.1478 2.40804 13.5294 2.68934 13.8107C2.97064 14.092 3.35218 14.25 3.75 14.25H4.125C4.22446 14.25 4.31984 14.2105 4.39016 14.1402C4.46049 14.0698 4.5 13.9745 4.5 13.875V7.125C4.5 7.02554 4.46049 6.93016 4.39016 6.85983C4.31984 6.78951 4.22446 6.75 4.125 6.75H3.75C3.35218 6.75 2.97064 6.90804 2.68934 7.18934C2.40804 7.47064 2.25 7.85218 2.25 8.25V8.25Z"
          fill="#1F1D25"/>
    <path d="M21.1964 8.7445L21.1528 8.73653C21.1099 8.72835 21.0712 8.70548 21.0434 8.67185C21.0156 8.63822 21.0004 8.59595 21.0004 8.55231V2.90622C21.0004 2.31372 20.6071 1.78122 20.0212 1.57872C19.4625 1.38606 18.8803 1.5431 18.5362 1.97856C17.8043 2.85261 16.9997 3.66315 16.1311 4.40153C15.0234 5.33903 13.9636 6.007 12.9904 6.38481C12.9195 6.41187 12.8584 6.45983 12.8153 6.52236C12.7722 6.58488 12.7491 6.65903 12.749 6.73497V14.0156C12.7491 14.1622 12.7922 14.3056 12.873 14.4279C12.9537 14.5503 13.0685 14.6464 13.2032 14.7042C14.1098 15.0928 15.0895 15.7275 16.1095 16.5923C16.9846 17.3374 17.7951 18.1553 18.532 19.0373C18.6501 19.1854 18.8008 19.3043 18.9723 19.3845C19.1439 19.4648 19.3317 19.5043 19.5211 19.5C19.6875 19.4992 19.8527 19.4717 20.0104 19.4184C20.6118 19.2187 21.0004 18.7054 21.0004 18.1125V12.4467C21.0005 12.4024 21.0162 12.3596 21.0447 12.3258C21.0733 12.292 21.1129 12.2694 21.1565 12.262L21.1964 12.2554C21.6473 12.1331 22.5004 11.6095 22.5004 10.5C22.5004 9.39044 21.6473 8.86685 21.1964 8.7445Z"
          fill="#1F1D25"/>
    <path d="M11.25 15V7.125C11.25 7.02554 11.2105 6.93016 11.1402 6.85983C11.0698 6.78951 10.9745 6.75 10.875 6.75H6.375C6.27554 6.75 6.18016 6.78951 6.10983 6.85983C6.03951 6.93016 6 7.02554 6 7.125V21.375C6 21.6734 6.11853 21.9595 6.3295 22.1705C6.54048 22.3815 6.82663 22.5 7.125 22.5H9.58359C9.8173 22.502 10.0483 22.4504 10.259 22.3492C10.4697 22.2481 10.6544 22.1 10.7991 21.9164C10.9473 21.7263 11.0471 21.503 11.0896 21.2658C11.1322 21.0285 11.1163 20.7844 11.0433 20.5547C10.9673 20.3119 10.8731 20.0391 10.7728 19.7489C10.402 18.6755 9.91312 18.0112 9.78281 16.4995C10.1748 16.491 10.5479 16.3292 10.8222 16.0489C11.0964 15.7686 11.25 15.3921 11.25 15Z"
          fill="#1F1D25"/>
</svg>
