<svg width="24" height="24" viewBox="0 0 24 24" fill="none" xmlns="http://www.w3.org/2000/svg">
    <path d="M20.25 18.75L4.5 3" stroke="#1F1D25" strokeWidth="2" stroke-miterlimit="10" strokeLinecap="round"/>
    <path d="M18.7499 11.2495V9.77054C18.7499 9.36694 18.4396 9.02054 18.036 9.00038C17.9346 8.99549 17.8333 9.01125 17.7381 9.04669C17.643 9.08212 17.556 9.13651 17.4825 9.20655C17.409 9.27658 17.3505 9.36081 17.3105 9.45413C17.2706 9.54745 17.2499 9.64792 17.2499 9.74945V11.2495C17.2501 11.6338 17.208 12.0171 17.1243 12.3923C17.1209 12.4076 17.1214 12.4235 17.1257 12.4386C17.1301 12.4536 17.1381 12.4674 17.1491 12.4785L18.2081 13.5374C18.2192 13.5485 18.2329 13.5567 18.248 13.5611C18.2631 13.5655 18.279 13.5661 18.2944 13.5627C18.3098 13.5594 18.324 13.5522 18.3359 13.5419C18.3477 13.5316 18.3568 13.5184 18.3623 13.5037C18.6194 12.78 18.7506 12.0175 18.7499 11.2495V11.2495Z"
          fill="#1F1D25"/>
    <path d="M12 16.4994C10.609 16.495 9.27621 15.9404 8.29261 14.9568C7.309 13.9732 6.75445 12.6405 6.75 11.2494V9.77054C6.75 9.36694 6.43969 9.02054 6.0361 9.00038C5.93469 8.99549 5.83334 9.01125 5.73821 9.04669C5.64307 9.08212 5.55611 9.13651 5.48261 9.20655C5.40911 9.27658 5.3506 9.36081 5.31062 9.45413C5.27063 9.54745 5.25001 9.64792 5.25 9.74944V11.2494C5.25 14.7182 7.87969 17.5832 11.25 17.9577V20.2494H9.0211C8.6175 20.2494 8.2711 20.5598 8.25094 20.9633C8.24606 21.0648 8.26181 21.1661 8.29725 21.2612C8.33269 21.3564 8.38707 21.4433 8.45711 21.5168C8.52714 21.5903 8.61138 21.6488 8.70469 21.6888C8.79801 21.7288 8.89848 21.7494 9.00001 21.7494H14.9789C15.3825 21.7494 15.7289 21.4391 15.7491 21.0355C15.754 20.9341 15.7382 20.8328 15.7028 20.7376C15.6673 20.6425 15.6129 20.5556 15.5429 20.4821C15.4729 20.4086 15.3886 20.35 15.2953 20.3101C15.202 20.2701 15.1015 20.2495 15 20.2494H12.75V17.9577C13.6037 17.8627 14.4312 17.6046 15.1875 17.1974C15.2132 17.1835 15.2352 17.1637 15.2519 17.1397C15.2686 17.1157 15.2794 17.0882 15.2835 17.0593C15.2877 17.0304 15.285 17.0009 15.2758 16.9732C15.2665 16.9455 15.2509 16.9204 15.2302 16.8998L14.3677 16.0377C14.3471 16.0172 14.3207 16.0036 14.2921 15.9988C14.2634 15.9939 14.234 15.998 14.2078 16.0105C13.5166 16.3334 12.7629 16.5003 12 16.4994V16.4994Z"
          fill="#1F1D25"/>
    <path d="M12.0539 2.25014C11.4171 2.23846 10.7879 2.38983 10.2262 2.68987C9.6644 2.9899 9.18871 3.42864 8.84432 3.96436C8.82109 4.00043 8.81093 4.04337 8.81554 4.08602C8.82014 4.12868 8.83924 4.16846 8.86963 4.19873L15.5906 10.922C15.6037 10.9351 15.6204 10.944 15.6386 10.9475C15.6568 10.9511 15.6756 10.9492 15.6927 10.9421C15.7098 10.935 15.7244 10.9229 15.7347 10.9075C15.745 10.8921 15.7504 10.874 15.7504 10.8555V6.0428C15.7504 3.98452 14.1098 2.27827 12.0539 2.25014Z"
          fill="#1F1D25"/>
    <path d="M8.40984 10.0785C8.39671 10.0655 8.37999 10.0566 8.36182 10.053C8.34364 10.0495 8.32481 10.0514 8.30771 10.0585C8.29061 10.0656 8.276 10.0776 8.26573 10.093C8.25546 10.1085 8.24999 10.1266 8.25 10.1451V11.2035C8.25068 12.2027 8.6457 13.1612 9.34922 13.8707C9.81056 14.3504 10.3933 14.6961 11.0355 14.871C11.6776 15.0459 12.3552 15.0435 12.9961 14.864C13.0119 14.8595 13.0262 14.851 13.0377 14.8393C13.0492 14.8275 13.0573 14.813 13.0614 14.7971C13.0655 14.7812 13.0653 14.7645 13.0609 14.7487C13.0566 14.7329 13.0481 14.7185 13.0364 14.707L8.40984 10.0785Z"
          fill="#1F1D25"/>
</svg>
