<svg width="24" height="24" viewBox="0 0 24 24" fill="none" xmlns="http://www.w3.org/2000/svg">
    <path d="M12.375 22.5006C9.49077 22.5006 6.72467 21.3548 4.68521 19.3154C2.64576 17.2759 1.5 14.5098 1.5 11.6256C1.5 7.21935 4.03125 3.26873 7.95047 1.56295C8.0886 1.50275 8.24165 1.48555 8.3897 1.51359C8.53774 1.54163 8.6739 1.61362 8.78045 1.72016C8.88699 1.8267 8.95897 1.96287 8.98701 2.11091C9.01506 2.25895 8.99786 2.41201 8.93766 2.55014C8.48766 3.58326 8.25 4.90654 8.25 6.3756C8.25 11.545 12.4556 15.7506 17.625 15.7506C19.0941 15.7506 20.4173 15.5129 21.4505 15.0629C21.5886 15.0027 21.7417 14.9855 21.8897 15.0136C22.0377 15.0416 22.1739 15.1136 22.2804 15.2202C22.387 15.3267 22.459 15.4629 22.487 15.6109C22.5151 15.759 22.4979 15.912 22.4377 16.0501C20.7319 19.9694 16.7813 22.5006 12.375 22.5006Z"
          fill="#1F1D25"/>
</svg>
