<svg width="24" height="24" viewBox="0 0 24 24" fill="none" xmlns="http://www.w3.org/2000/svg">
    <path d="M19.7738 1.75194C19.6254 1.6376 19.4525 1.55921 19.2687 1.52294C19.0849 1.48666 18.8952 1.49349 18.7145 1.54288L9.37134 4.05444C9.04715 4.14151 8.76109 4.33385 8.55813 4.60122C8.35517 4.86858 8.24681 5.19581 8.25009 5.53147V16.1252C8.25009 16.4412 8.04571 16.714 7.72931 16.8204L7.72368 16.8227L5.28618 17.6665C4.35384 17.9782 3.75009 18.844 3.75009 19.871C3.74667 20.2887 3.84383 20.7012 4.03335 21.0734C4.22288 21.4457 4.4992 21.7669 4.83899 22.0099C5.27656 22.3278 5.80331 22.4994 6.34415 22.5002C6.62709 22.4997 6.90809 22.4533 7.17618 22.3629L7.19399 22.3568L8.21774 21.9846C8.66183 21.8363 9.04838 21.5528 9.32318 21.1738C9.59799 20.7947 9.74727 20.3392 9.75009 19.871V9.9335C9.75009 9.59179 9.97368 9.31429 10.3201 9.2271L10.3299 9.22429L18.5157 7.03804C18.5434 7.03089 18.5723 7.03017 18.6003 7.03591C18.6283 7.04165 18.6546 7.05371 18.6772 7.07116C18.6998 7.08862 18.7181 7.11101 18.7307 7.13663C18.7434 7.16224 18.75 7.19041 18.7501 7.21897V13.8719C18.7501 14.1883 18.5509 14.4523 18.2293 14.5601L18.2176 14.5643L15.8321 15.4132C15.3682 15.5658 14.9649 15.862 14.6805 16.259C14.3961 16.656 14.2453 17.1331 14.2501 17.6215C14.2459 18.0405 14.3427 18.4543 14.5322 18.828C14.7217 19.2017 14.9985 19.5242 15.339 19.7683C15.6724 20.0094 16.0589 20.1665 16.4659 20.2265C16.8729 20.2864 17.2884 20.2475 17.6771 20.1129L17.694 20.1073L18.7177 19.7346C19.1618 19.5864 19.5483 19.303 19.8231 18.924C20.0979 18.5451 20.2472 18.0896 20.2501 17.6215V2.71897C20.2511 2.5319 20.2086 2.34715 20.126 2.17932C20.0433 2.01149 19.9228 1.86518 19.7738 1.75194V1.75194Z"
          fill="#1F1D25"/>
</svg>
