<svg width="24" height="24" viewBox="0 0 24 24" fill="none" xmlns="http://www.w3.org/2000/svg">
    <path d="M8.61704 22.4987C8.07195 22.4978 7.54108 22.3247 7.10016 22.0042C6.75984 21.7583 6.48268 21.4352 6.29143 21.0615C6.10019 20.6877 6.00031 20.2739 6.00001 19.854C5.99878 19.3605 6.15259 18.879 6.43973 18.4776C6.72687 18.0761 7.13283 17.775 7.60032 17.6167L9.98438 16.8142C10.1356 16.7626 10.2668 16.6647 10.3594 16.5344C10.4519 16.404 10.5011 16.2479 10.5 16.0881V4.31123C10.4993 3.977 10.6099 3.65205 10.8144 3.38766C11.0189 3.12327 11.3056 2.93448 11.6292 2.85107L16.71 1.53201C16.8624 1.49251 17.0218 1.48843 17.1761 1.52008C17.3303 1.55173 17.4752 1.61827 17.5998 1.71461C17.7243 1.81095 17.8251 1.93452 17.8945 2.07586C17.9639 2.21719 18 2.37254 18 2.52998V5.23701C18.0009 5.57227 17.8898 5.89822 17.6842 6.1631C17.4787 6.42798 17.1906 6.61661 16.8656 6.69904L12.5695 7.78326C12.4055 7.82595 12.2604 7.92217 12.1572 8.05667C12.054 8.19117 11.9987 8.35626 12 8.52576V19.8737C12.0013 20.3475 11.8536 20.8098 11.5779 21.1951C11.3022 21.5804 10.9123 21.8694 10.4634 22.0211L9.45704 22.36C9.18645 22.4516 8.90272 22.4985 8.61704 22.4987V22.4987Z"
          fill="#1F1D25"/>
</svg>
