<svg width="24" height="24" viewBox="0 0 24 24" fill="none" xmlns="http://www.w3.org/2000/svg">
    <path d="M12.1359 2.25042C6.65243 2.17636 2.17587 6.65292 2.24993 12.1364C2.32305 17.3953 6.60509 21.6773 11.864 21.7504C17.3484 21.8254 21.824 17.3489 21.749 11.8654C21.6768 6.60557 17.3948 2.32354 12.1359 2.25042ZM16.4531 8.21479L12.5981 16.9579C12.3735 17.4487 11.624 17.286 11.624 16.7442V12.5629C11.624 12.5132 11.6042 12.4655 11.5691 12.4303C11.5339 12.3952 11.4862 12.3754 11.4365 12.3754H7.25618C6.71618 12.3754 6.55305 11.6315 7.04196 11.4065L15.7856 7.54729C15.879 7.50415 15.9834 7.4907 16.0847 7.50876C16.186 7.52682 16.2793 7.57551 16.3521 7.64827C16.4248 7.72103 16.4735 7.81436 16.4916 7.91566C16.5096 8.01697 16.4962 8.12137 16.4531 8.21479V8.21479Z"
          fill="#1F1D25"/>
</svg>
