<svg width="24" height="24" viewBox="0 0 24 24" fill="none" xmlns="http://www.w3.org/2000/svg">
    <path d="M12.7497 21.7497C12.6495 21.7498 12.5504 21.7297 12.4581 21.6908C12.3658 21.6519 12.2822 21.5949 12.2123 21.5231C12.1424 21.4514 12.0876 21.3664 12.051 21.2731C12.0145 21.1798 11.9971 21.0802 11.9997 20.98V12.3808C11.9997 12.2814 11.9602 12.186 11.8899 12.1157C11.8195 12.0453 11.7242 12.0058 11.6247 12.0058H3.01892C2.86118 12.0077 2.70672 11.9607 2.57672 11.8713C2.44673 11.782 2.34756 11.6546 2.29283 11.5066C2.2305 11.3302 2.23638 11.1368 2.30932 10.9645C2.38226 10.7921 2.51699 10.6533 2.68705 10.5752L20.687 2.31817C20.8261 2.25445 20.9813 2.23477 21.1319 2.26179C21.2825 2.2888 21.4212 2.36121 21.5294 2.4693C21.6377 2.57738 21.7103 2.71599 21.7375 2.86651C21.7647 3.01704 21.7453 3.17229 21.6817 3.31145L13.4317 21.3114C13.372 21.4422 13.276 21.553 13.155 21.6307C13.0341 21.7084 12.8934 21.7497 12.7497 21.7497Z"
          fill="#1F1D25"/>
</svg>
