<svg width="24" height="24" viewBox="0 0 24 24" fill="none" xmlns="http://www.w3.org/2000/svg">
    <path d="M21.0001 21.7501C20.9016 21.7503 20.804 21.7309 20.713 21.6932C20.622 21.6554 20.5394 21.6001 20.4699 21.5303L2.46994 3.53025C2.33522 3.38845 2.26123 3.19964 2.26373 3.00407C2.26624 2.8085 2.34504 2.62164 2.48334 2.48334C2.62164 2.34504 2.8085 2.26624 3.00407 2.26373C3.19964 2.26123 3.38845 2.33522 3.53025 2.46994L21.5302 20.4699C21.6351 20.5748 21.7064 20.7084 21.7354 20.8539C21.7643 20.9993 21.7494 21.1501 21.6927 21.2871C21.6359 21.4241 21.5399 21.5412 21.4166 21.6236C21.2933 21.706 21.1484 21.75 21.0001 21.7501V21.7501Z"
          fill="#1F1D25"/>
    <path d="M20.6284 15.9989C20.5506 15.9052 20.4742 15.8114 20.3992 15.7209C19.368 14.4736 18.7441 13.7208 18.7441 10.1897C18.7441 8.36156 18.3067 6.86156 17.4447 5.73656C16.8091 4.90547 15.9498 4.275 14.8173 3.80906C14.8028 3.80096 14.7897 3.79032 14.7789 3.77766C14.3716 2.41359 13.2569 1.5 11.9997 1.5C10.7425 1.5 9.62827 2.41359 9.22093 3.77625C9.21006 3.78845 9.19722 3.79875 9.18296 3.80672C8.82825 3.95178 8.48534 4.12417 8.15733 4.32234C8.10886 4.3519 8.06772 4.39208 8.03703 4.43985C8.00635 4.48762 7.98691 4.54173 7.98018 4.59811C7.97345 4.65449 7.97962 4.71166 7.99821 4.76531C8.0168 4.81895 8.04732 4.86768 8.08749 4.90781L20.3584 17.1769C20.4136 17.2321 20.4847 17.2688 20.5617 17.2817C20.6387 17.2946 20.7179 17.2831 20.7881 17.2489C20.8583 17.2147 20.916 17.1594 20.9533 17.0908C20.9905 17.0222 21.0055 16.9436 20.9959 16.8661C20.9598 16.5476 20.8321 16.2464 20.6284 15.9989Z"
          fill="#1F1D25"/>
    <path d="M5.25697 10.1879C5.25697 13.7204 4.634 14.4733 3.60181 15.7192C3.52681 15.8097 3.4504 15.9015 3.37259 15.9972C3.17159 16.2396 3.04424 16.5345 3.00561 16.847C2.96698 17.1595 3.01869 17.4766 3.15462 17.7606C3.44384 18.37 4.06025 18.7483 4.76384 18.7483H14.6629C14.7371 18.7483 14.8097 18.7264 14.8714 18.6852C14.9331 18.6439 14.9812 18.5854 15.0096 18.5168C15.038 18.4482 15.0455 18.3728 15.031 18.3C15.0165 18.2272 14.9807 18.1604 14.9282 18.1079L5.92822 9.10794C5.87761 9.0575 5.81364 9.02256 5.74384 9.00725C5.67404 8.99193 5.60132 8.99688 5.53424 9.02151C5.46716 9.04613 5.40852 9.08941 5.36521 9.14625C5.3219 9.20308 5.29573 9.27111 5.28978 9.34232C5.2679 9.61388 5.25697 9.89576 5.25697 10.1879Z"
          fill="#1F1D25"/>
    <path d="M11.9999 22.5C12.6773 22.4994 13.3419 22.3156 13.9232 21.9679C14.5045 21.6202 14.9809 21.1217 15.3018 20.5252C15.3169 20.4966 15.3244 20.4646 15.3235 20.4322C15.3226 20.3999 15.3133 20.3684 15.2966 20.3407C15.2799 20.313 15.2563 20.2901 15.2282 20.2742C15.2 20.2583 15.1682 20.25 15.1359 20.25H8.86492C8.83254 20.2499 8.80068 20.2582 8.77245 20.274C8.74422 20.2899 8.72057 20.3128 8.70382 20.3405C8.68706 20.3682 8.67777 20.3997 8.67684 20.4321C8.67591 20.4645 8.68337 20.4965 8.69851 20.5252C9.01939 21.1216 9.49569 21.6201 10.0769 21.9678C10.6581 22.3155 11.3226 22.4994 11.9999 22.5Z"
          fill="#1F1D25"/>
</svg>
