<svg width="24" height="24" viewBox="0 0 24 24" fill="none" xmlns="http://www.w3.org/2000/svg">
    <path d="M12.1359 2.25042C6.65243 2.17636 2.17587 6.65292 2.24993 12.1364C2.32305 17.3953 6.60509 21.6773 11.864 21.7504C17.3484 21.8254 21.824 17.3489 21.749 11.8654C21.6768 6.60557 17.3948 2.32354 12.1359 2.25042ZM20.1093 11.2467L15.7462 11.242C15.7248 11.2419 15.7042 11.2346 15.6875 11.2213C15.6709 11.2079 15.6594 11.1892 15.6548 11.1684C15.4683 10.3544 15.0156 9.62578 14.3685 9.09792C14.3521 9.08459 14.3406 9.06607 14.336 9.04538C14.3314 9.0247 14.3339 9.00306 14.3432 8.98401L16.2801 5.07323C16.2859 5.06137 16.2941 5.05088 16.3042 5.04242C16.3144 5.03396 16.3262 5.02774 16.3389 5.02415C16.3516 5.02057 16.3649 5.01971 16.3779 5.02162C16.391 5.02353 16.4035 5.02818 16.4146 5.03526C17.4655 5.70211 18.352 6.59783 19.008 7.65548C19.6641 8.71313 20.0726 9.90535 20.2031 11.1431C20.2044 11.1562 20.203 11.1694 20.199 11.182C20.1949 11.1945 20.1882 11.206 20.1793 11.2158C20.1705 11.2256 20.1597 11.2334 20.1476 11.2387C20.1355 11.244 20.1225 11.2467 20.1093 11.2467ZM9.7593 12.2057C9.7171 11.7451 9.81788 11.2827 10.0479 10.8814C10.2779 10.4802 10.626 10.1595 11.0448 9.96319C11.4636 9.76686 11.9328 9.70436 12.3884 9.78421C12.8439 9.86406 13.2638 10.0824 13.5909 10.4094C13.918 10.7365 14.1363 11.1564 14.2161 11.612C14.296 12.0676 14.2335 12.5367 14.0372 12.9555C13.8408 13.3743 13.5202 13.7224 13.1189 13.9524C12.7176 14.1825 12.2552 14.2832 11.7946 14.241C11.271 14.1931 10.7807 13.9632 10.4089 13.5914C10.0371 13.2196 9.80728 12.7293 9.7593 12.2057V12.2057ZM7.7179 5.07323L9.65618 8.98401C9.66545 9.00306 9.668 9.0247 9.6634 9.04538C9.65881 9.06607 9.64734 9.08459 9.63087 9.09792C8.98339 9.62564 8.53043 10.3542 8.34368 11.1684C8.33901 11.1896 8.32711 11.2086 8.31 11.222C8.2929 11.2354 8.27167 11.2425 8.24993 11.242L3.8868 11.2467C3.87362 11.2467 3.86057 11.244 3.8485 11.2387C3.83643 11.2334 3.82562 11.2256 3.81677 11.2158C3.80793 11.206 3.80124 11.1945 3.79715 11.182C3.79307 11.1694 3.79167 11.1562 3.79305 11.1431C3.92354 9.90535 4.33205 8.71313 4.98807 7.65548C5.64408 6.59783 6.53064 5.70211 7.58149 5.03526C7.59269 5.02785 7.60535 5.02294 7.61861 5.02085C7.63187 5.01876 7.64542 5.01954 7.65835 5.02314C7.67129 5.02674 7.6833 5.03307 7.69357 5.04171C7.70384 5.05036 7.71214 5.0611 7.7179 5.07323V5.07323ZM7.70055 18.9173L10.3401 15.4443C10.353 15.4274 10.3714 15.4154 10.3921 15.4102C10.4128 15.4051 10.4346 15.4072 10.454 15.4162C10.9399 15.6367 11.4673 15.7508 12.0009 15.7508C12.5345 15.7508 13.0619 15.6367 13.5477 15.4162C13.5671 15.4072 13.5889 15.4051 13.6096 15.4102C13.6303 15.4154 13.6487 15.4274 13.6616 15.4443L16.3012 18.9173C16.3092 18.9277 16.3149 18.9397 16.3179 18.9524C16.321 18.9652 16.3213 18.9785 16.3189 18.9914C16.3166 19.0043 16.3115 19.0165 16.3041 19.0273C16.2967 19.0382 16.287 19.0473 16.2759 19.0542C14.9875 19.8366 13.5091 20.2504 12.0018 20.2504C10.4945 20.2504 9.01607 19.8366 7.72774 19.0542C7.71642 19.0475 7.70664 19.0384 7.69903 19.0277C7.69143 19.0169 7.68617 19.0047 7.68361 18.9918C7.68104 18.9789 7.68123 18.9656 7.68415 18.9527C7.68707 18.9399 7.69266 18.9278 7.70055 18.9173V18.9173Z"
          fill="#1F1D25"/>
</svg>
