<svg width="24" height="24" viewBox="0 0 24 24" fill="none" xmlns="http://www.w3.org/2000/svg">
    <path d="M20.5781 7.79506C19.703 6.26834 18.3534 5.41334 16.567 5.25303C15.6211 5.16865 14.7389 5.411 13.8844 5.64584C13.2211 5.82819 12.5944 6.00022 12 6.00022C11.4056 6.00022 10.7812 5.82772 10.1222 5.64537C9.26531 5.411 8.37937 5.16444 7.43016 5.2535C5.72437 5.41334 4.35937 6.2899 3.47812 7.7885C2.66344 9.17647 2.25 11.0983 2.25 13.5002C2.25 15.394 2.95312 17.7419 4.125 19.7815C4.72594 20.8244 6.32812 23.2502 8.21062 23.2502C9.65297 23.2502 10.4208 22.8077 10.9814 22.4847C11.3705 22.2607 11.6053 22.1252 11.9981 22.1252C12.3909 22.1252 12.6258 22.2607 13.0148 22.4847C13.5773 22.8077 14.3437 23.2502 15.7875 23.2502C17.6705 23.2502 19.2722 20.824 19.8731 19.7815C21.0483 17.7424 21.7481 15.3944 21.7481 13.5002C21.75 11.036 21.3666 9.1699 20.5781 7.79506ZM10.125 16.5002C9.50391 16.5002 9 15.4929 9 14.2502C9 13.0076 9.50391 12.0002 10.125 12.0002C10.7461 12.0002 11.25 13.0076 11.25 14.2502C11.25 15.4929 10.7461 16.5002 10.125 16.5002ZM13.875 16.5002C13.2539 16.5002 12.75 15.4929 12.75 14.2502C12.75 13.0076 13.2539 12.0002 13.875 12.0002C14.4961 12.0002 15 13.0076 15 14.2502C15 15.4929 14.4961 16.5002 13.875 16.5002Z"
          fill="#1F1D25"/>
    <path d="M12.4265 5.24634C13.0434 5.16431 14.2012 4.87931 15.1842 3.89681C15.9174 3.16186 16.38 2.20024 16.4967 1.16868C16.5034 1.11362 16.4978 1.05777 16.4803 1.00514C16.4627 0.952517 16.4338 0.90443 16.3954 0.864347C16.3571 0.824265 16.3104 0.793184 16.2586 0.773346C16.2068 0.753507 16.1512 0.745404 16.0959 0.74962C15.5001 0.794152 14.3728 1.02478 13.343 2.05509C12.5863 2.79868 12.1115 3.78212 12 4.83712C11.9942 4.89381 12.0014 4.95107 12.0211 5.00455C12.0407 5.05804 12.0723 5.10634 12.1134 5.14578C12.1546 5.18523 12.2041 5.21479 12.2584 5.23221C12.3126 5.24964 12.3701 5.25447 12.4265 5.24634Z"
          fill="#1F1D25"/>
</svg>
