<svg width="24" height="24" viewBox="0 0 24 24" fill="none" xmlns="http://www.w3.org/2000/svg">
    <path d="M15.9375 22.5H4.96875C3.58594 22.5 2.39438 22.133 1.52203 21.4388C0.526406 20.6457 0 19.4696 0 18.0375C0 16.7878 0.4725 15.7032 1.36594 14.9011C2.08031 14.2599 3.06141 13.8132 4.13156 13.643C4.13437 13.643 4.13531 13.643 4.13578 13.6407C4.43766 11.8125 5.25281 10.2614 6.49406 9.15565C7.7016 8.08467 9.26095 7.49536 10.875 7.50003C12.292 7.50003 13.6162 7.94018 14.7052 8.77362C15.5561 9.43317 16.2346 10.289 16.6828 11.2678C16.7313 11.3742 16.804 11.4677 16.8951 11.5409C16.9862 11.6142 17.0931 11.6651 17.2073 11.6897C18.4261 11.9527 19.4761 12.5002 20.2622 13.2835C21.2344 14.2552 21.75 15.5489 21.75 17.025C21.75 18.5649 21.1345 19.9721 20.0156 20.9869C18.9427 21.9628 17.4938 22.5 15.9375 22.5Z"
          fill="#1F1D25"/>
    <path d="M18.1827 10.3913C18.7498 10.5595 19.2964 10.7908 19.812 11.0808C19.8369 11.0948 19.8646 11.1029 19.8931 11.1045C19.9216 11.1062 19.9501 11.1013 19.9764 11.0903C20.0027 11.0792 20.0261 11.0623 20.0449 11.0409C20.0637 11.0194 20.0774 10.994 20.0848 10.9664C20.1978 10.5593 20.2535 10.1383 20.2503 9.7158C20.232 7.25814 18.2122 5.25236 15.7545 5.25001C14.8305 5.24768 13.9284 5.53145 13.1722 6.06236H13.1694C13.1451 6.07956 13.1261 6.10325 13.1147 6.13072C13.1033 6.15819 13.0998 6.18832 13.1047 6.21767C13.1096 6.24701 13.1226 6.27439 13.1424 6.29666C13.1621 6.31894 13.1877 6.33521 13.2162 6.34361C14.0849 6.60943 14.899 7.02853 15.62 7.58111C16.4862 8.25061 17.2087 9.08773 17.7444 10.0425C17.8399 10.211 17.997 10.336 18.1827 10.3913V10.3913Z"
          fill="#1F1D25"/>
    <path d="M23.25 10.5H21.75C21.5511 10.5 21.3603 10.421 21.2197 10.2803C21.079 10.1397 21 9.94891 21 9.75C21 9.55109 21.079 9.36032 21.2197 9.21967C21.3603 9.07902 21.5511 9 21.75 9H23.25C23.4489 9 23.6397 9.07902 23.7803 9.21967C23.921 9.36032 24 9.55109 24 9.75C24 9.94891 23.921 10.1397 23.7803 10.2803C23.6397 10.421 23.4489 10.5 23.25 10.5Z"
          fill="#1F1D25"/>
    <path d="M15.75 4.5C15.5511 4.5 15.3603 4.42098 15.2197 4.28033C15.079 4.13968 15 3.94891 15 3.75V2.25C15 2.05109 15.079 1.86032 15.2197 1.71967C15.3603 1.57902 15.5511 1.5 15.75 1.5C15.9489 1.5 16.1397 1.57902 16.2803 1.71967C16.421 1.86032 16.5 2.05109 16.5 2.25V3.75C16.5 3.94891 16.421 4.13968 16.2803 4.28033C16.1397 4.42098 15.9489 4.5 15.75 4.5Z"
          fill="#1F1D25"/>
    <path d="M11.5069 6.25741C11.4084 6.25757 11.3109 6.23823 11.2199 6.2005C11.1289 6.16276 11.0463 6.10739 10.9768 6.03757L9.91599 4.97726C9.77532 4.83659 9.69629 4.6458 9.69629 4.44686C9.69629 4.24793 9.77532 4.05714 9.91599 3.91647C10.0567 3.7758 10.2474 3.69678 10.4464 3.69678C10.6453 3.69678 10.8361 3.7758 10.9768 3.91647L12.0371 4.97726C12.1419 5.08214 12.2133 5.21575 12.2422 5.36119C12.2711 5.50663 12.2563 5.65738 12.1995 5.79438C12.1428 5.93138 12.0467 6.04849 11.9234 6.13091C11.8002 6.21332 11.6552 6.25735 11.5069 6.25741Z"
          fill="#1F1D25"/>
    <path d="M19.9928 6.25741C19.8445 6.25735 19.6996 6.21332 19.5763 6.13091C19.453 6.04849 19.357 5.93138 19.3002 5.79438C19.2435 5.65738 19.2286 5.50663 19.2576 5.36119C19.2865 5.21575 19.3578 5.08214 19.4627 4.97726L20.523 3.91647C20.6636 3.7758 20.8544 3.69678 21.0534 3.69678C21.2523 3.69678 21.4431 3.7758 21.5838 3.91647C21.7244 4.05714 21.8034 4.24793 21.8034 4.44686C21.8034 4.6458 21.7244 4.83659 21.5838 4.97726L20.523 6.03757C20.4535 6.10739 20.3709 6.16276 20.2799 6.2005C20.1889 6.23823 20.0913 6.25757 19.9928 6.25741V6.25741Z"
          fill="#1F1D25"/>
</svg>
