<svg width="24" height="24" viewBox="0 0 24 24" fill="none" xmlns="http://www.w3.org/2000/svg">
    <path d="M22.9874 8.56641C22.7272 7.94813 22.295 7.50234 21.7372 7.27781L21.7297 7.275C21.4758 7.17556 21.2055 7.12467 20.9329 7.125H20.9029C19.626 7.14422 18.3224 8.22937 17.6596 9.82547C17.1735 10.9927 17.1177 12.248 17.5105 13.1836C17.7702 13.8023 18.2033 14.2481 18.7635 14.4726L18.7696 14.475C19.0235 14.5744 19.2938 14.6252 19.5664 14.625C20.8555 14.625 22.1727 13.5398 22.8477 11.9226C23.3277 10.7569 23.3807 9.5025 22.9874 8.56641Z"
          fill="#1F1D25"/>
    <path d="M17.8848 15.4505C17.1484 15.008 16.4523 14.5894 15.9977 13.8375C14.7433 11.7563 13.9858 10.5 11.9997 10.5C10.0136 10.5 9.25422 11.7563 7.99703 13.8375C7.54141 14.5903 6.84391 15.0094 6.10516 15.4537C5.25813 15.9628 4.38297 16.4887 4.00516 17.5237C3.85828 17.8969 3.78429 18.2947 3.78719 18.6956C3.78719 20.3808 5.09969 21.7519 6.71219 21.7519C7.54422 21.7519 8.42969 21.4636 9.36672 21.1584C10.2677 20.865 11.1991 20.5617 12.0044 20.5617C12.8097 20.5617 13.7388 20.865 14.6364 21.1584C15.5716 21.4617 16.4528 21.75 17.2872 21.75C18.8973 21.75 20.2075 20.3789 20.2075 18.6937C20.2088 18.2925 20.1332 17.8947 19.9848 17.5219C19.607 16.4859 18.7314 15.9595 17.8848 15.4505Z"
          fill="#1F1D25"/>
    <path d="M7.03102 8.85234C7.58883 9.55219 8.29665 9.9375 9.02415 9.9375C9.12346 9.9375 9.22264 9.93013 9.32087 9.91547C10.8382 9.69234 11.7837 7.84078 11.4734 5.69672C11.3435 4.79531 10.9967 3.95578 10.4998 3.33328C9.9429 2.63484 9.23415 2.25 8.50712 2.25C8.4078 2.25 8.30862 2.25737 8.2104 2.27203C6.69305 2.49516 5.74758 4.34672 6.05789 6.49078C6.18727 7.39078 6.53414 8.22938 7.03102 8.85234Z"
          fill="#1F1D25"/>
    <path d="M14.6791 9.91543C14.7774 9.93009 14.8766 9.93746 14.9759 9.93746C15.7038 9.93746 16.4112 9.55215 16.969 8.85231C17.4654 8.22934 17.8104 7.39074 17.9417 6.4898C18.252 4.34668 17.3065 2.49512 15.7891 2.27105C15.6909 2.25639 15.5917 2.24903 15.4924 2.24902C14.7654 2.24996 14.0566 2.6348 13.4998 3.33324C13.0029 3.95574 12.656 4.79527 12.5266 5.69762C12.2163 7.84074 13.1618 9.6923 14.6791 9.91543Z"
          fill="#1F1D25"/>
    <path d="M5.23097 14.475L5.23753 14.4727C5.79675 14.2481 6.22941 13.8028 6.48863 13.1845C6.88144 12.247 6.82613 10.9931 6.34097 9.82594C5.66925 8.21063 4.35254 7.125 3.06488 7.125C2.7922 7.12461 2.52188 7.17549 2.26801 7.275L2.26144 7.27735C1.70363 7.5 1.27098 7.94719 1.01176 8.56547C0.618946 9.50297 0.674259 10.7569 1.15941 11.9241C1.83113 13.5394 3.14785 14.625 4.4355 14.625C4.70771 14.6252 4.97754 14.5743 5.23097 14.475V14.475Z"
          fill="#1F1D25"/>
</svg>
