<svg width="24" height="24" viewBox="0 0 24 24" fill="none" xmlns="http://www.w3.org/2000/svg">
    <path d="M16.8103 6.05957L4.05422 18.8471L3.28125 20.7183L5.1525 19.9454L17.94 7.18926L16.8103 6.05957Z"
          stroke="#1F1D25" strokeWidth="2" strokeLinecap="round" strokeLinejoin="round"/>
    <path d="M19.3622 3.50795L18.8096 4.06014L19.9393 5.18983L20.4919 4.63717C20.6369 4.49205 20.7184 4.29529 20.7184 4.09014C20.7184 3.88499 20.6369 3.68823 20.4919 3.54311L20.4568 3.50795C20.3849 3.43608 20.2996 3.37907 20.2057 3.34017C20.1118 3.30127 20.0111 3.28125 19.9095 3.28125C19.8079 3.28125 19.7072 3.30127 19.6133 3.34017C19.5194 3.37907 19.4341 3.43608 19.3622 3.50795Z"
          stroke="#1F1D25" strokeWidth="2" strokeLinecap="round" strokeLinejoin="round"/>
</svg>
