<svg width="24" height="24" viewBox="0 0 24 24" fill="none" xmlns="http://www.w3.org/2000/svg">
    <path d="M15.7498 12C14.7861 12 13.8542 11.5697 13.1248 10.7888C12.4156 10.027 11.9825 9.01125 11.9061 7.92938C11.8245 6.77531 12.1766 5.71406 12.897 4.94063C13.6175 4.16719 14.6248 3.75 15.7498 3.75C16.8669 3.75 17.877 4.17469 18.5952 4.94625C19.3203 5.72531 19.6733 6.78469 19.5917 7.92891C19.5134 9.01219 19.0808 10.0275 18.373 10.7883C17.6455 11.5697 16.7141 12 15.7498 12Z"
          fill="#1F1D25"/>
    <path d="M21.9293 20.25H9.57066C9.37196 20.2511 9.17567 20.2065 8.99688 20.1198C8.8181 20.0331 8.66159 19.9065 8.53941 19.7498C8.4098 19.58 8.3203 19.383 8.2776 19.1736C8.2349 18.9643 8.24011 18.748 8.29285 18.5409C8.68753 16.9561 9.66535 15.6417 11.1203 14.7403C12.4118 13.9406 14.0557 13.5 15.7497 13.5C17.4771 13.5 19.0778 13.9219 20.3768 14.7211C21.835 15.6178 22.8143 16.9397 23.2071 18.5438C23.2592 18.751 23.2638 18.9673 23.2206 19.1765C23.1774 19.3857 23.0876 19.5825 22.9577 19.7522C22.8356 19.9082 22.6795 20.0341 22.5012 20.1204C22.323 20.2067 22.1273 20.251 21.9293 20.25V20.25Z"
          fill="#1F1D25"/>
    <path d="M6.89092 12.1875C5.24139 12.1875 3.79108 10.6538 3.65655 8.76891C3.58998 7.80328 3.89092 6.91031 4.5003 6.25547C5.10311 5.60719 5.95342 5.25 6.89092 5.25C7.82842 5.25 8.67217 5.60906 9.27827 6.26109C9.89233 6.92109 10.1923 7.81219 10.122 8.76984C9.98748 10.6542 8.53764 12.1875 6.89092 12.1875Z"
          fill="#1F1D25"/>
    <path d="M9.96838 13.6618C9.14385 13.2587 8.0737 13.0571 6.89104 13.0571C5.5101 13.0571 4.16901 13.4171 3.11432 14.0706C1.91854 14.8126 1.11417 15.8931 0.789322 17.1976C0.741783 17.3852 0.737287 17.5812 0.776169 17.7708C0.815051 17.9604 0.896305 18.1388 1.01385 18.2926C1.12539 18.4358 1.26828 18.5515 1.43154 18.6308C1.5948 18.7101 1.77407 18.7509 1.95557 18.7501H7.1587C7.24652 18.7501 7.33155 18.7193 7.39896 18.663C7.46638 18.6067 7.5119 18.5285 7.5276 18.4421C7.53276 18.4126 7.53932 18.3831 7.54682 18.354C7.94432 16.7575 8.87573 15.4084 10.252 14.4249C10.3026 14.3885 10.3433 14.3399 10.3704 14.2837C10.3975 14.2275 10.4102 14.1654 10.4073 14.1031C10.4044 14.0408 10.3859 13.9802 10.3536 13.9268C10.3214 13.8734 10.2763 13.8289 10.2224 13.7973C10.1489 13.7542 10.0645 13.7087 9.96838 13.6618Z"
          fill="#1F1D25"/>
</svg>
