<svg width="24" height="24" viewBox="0 0 24 24" fill="none" xmlns="http://www.w3.org/2000/svg">
    <path d="M12.1359 2.25042C6.65243 2.17636 2.17587 6.65292 2.24993 12.1364C2.32305 17.3953 6.60509 21.6773 11.864 21.7504C17.3484 21.8254 21.824 17.3489 21.749 11.8654C21.6768 6.60557 17.3948 2.32354 12.1359 2.25042ZM11.9634 9.38057C11.9732 9.32432 11.984 9.26807 11.9966 9.21229C12.115 8.66486 12.3788 8.15947 12.7602 7.74932C13.3645 7.10573 14.2209 6.75042 15.172 6.75042C15.5721 6.74877 15.9695 6.81633 16.3466 6.9501C16.8154 7.11702 17.2376 7.39343 17.5781 7.75636C18.0789 8.29767 18.377 8.99558 18.4218 9.73167C18.4348 9.90956 18.4348 10.0882 18.4218 10.266V10.266C18.3857 10.7702 18.2553 11.2631 18.0374 11.7192C18.0137 11.7689 17.9888 11.8181 17.9629 11.8668C17.9109 11.9639 17.8551 12.059 17.7951 12.1509C17.6757 12.3343 17.5403 12.5069 17.3906 12.6665C16.7756 13.3228 15.9881 13.6851 15.1729 13.6851C14.8672 13.6849 14.5637 13.6345 14.2743 13.536C14.1771 13.503 14.0817 13.465 13.9884 13.4221C13.5977 13.2399 13.2463 12.9832 12.9538 12.6665C12.3451 12.0062 11.9811 11.1571 11.9226 10.2609C11.9141 10.1396 11.9113 10.0196 11.9141 9.90089C11.9178 9.72679 11.9342 9.55319 11.9634 9.38151V9.38057ZM4.94477 10.5215C4.96758 10.187 5.05014 9.85936 5.18852 9.55401C5.22756 9.46897 5.27106 9.38604 5.31884 9.30557C5.41439 9.14428 5.52742 8.994 5.65587 8.85745C5.84615 8.65445 6.0677 8.48322 6.31212 8.35026C6.43419 8.28355 6.56129 8.2265 6.69227 8.17964C7.19417 8.0041 7.73376 7.96543 8.25555 8.06761C8.80845 8.17454 9.31342 8.45344 9.69837 8.86448C10.1551 9.35756 10.4126 10.0027 10.4207 10.6748C10.4231 10.7737 10.4207 10.8731 10.4137 10.9739C10.3851 11.3598 10.2899 11.7379 10.1324 12.0914C10.057 12.2615 9.96716 12.425 9.86384 12.5798C9.66512 12.8801 9.41505 13.143 9.12509 13.3565C9.05477 13.4067 8.98165 13.4535 8.90618 13.5004C8.75775 13.5888 8.60068 13.6619 8.43743 13.7184C8.19332 13.8037 7.93663 13.8474 7.67805 13.8478C7.63446 13.8478 7.59087 13.8478 7.54774 13.844C7.46163 13.8393 7.37586 13.8296 7.29087 13.8149C7.2063 13.8002 7.12259 13.781 7.04009 13.7573C6.91616 13.7215 6.79518 13.6762 6.67821 13.6218C6.63884 13.6035 6.6004 13.5843 6.56196 13.5642C5.71821 13.1193 5.08212 12.1973 4.95743 11.121C4.9518 11.0718 4.94712 11.0226 4.94384 10.9729C4.93325 10.8226 4.93357 10.6718 4.94477 10.5215V10.5215ZM7.47227 18.8934C6.2242 18.0707 5.22116 16.9266 4.56884 15.5817C4.54753 15.5387 4.54353 15.4891 4.55766 15.4432C4.57178 15.3974 4.60296 15.3587 4.64477 15.3351C5.51571 14.8453 6.62805 14.5785 7.67899 14.5785C8.47587 14.5785 9.11805 14.6723 9.68009 14.8542C9.7438 14.8751 9.80073 14.9128 9.84493 14.9633C9.88913 15.0137 9.91899 15.0751 9.93139 15.1411C9.94379 15.207 9.93828 15.275 9.91543 15.3381C9.89258 15.4012 9.85324 15.4569 9.80149 15.4996C8.70696 16.3903 8.00149 17.4937 7.67009 18.816C7.66513 18.8363 7.65538 18.855 7.64166 18.8707C7.62794 18.8863 7.61065 18.8985 7.59126 18.9061C7.57186 18.9136 7.55093 18.9165 7.53022 18.9142C7.50951 18.912 7.48964 18.9049 7.47227 18.8934V18.8934ZM11.9999 20.2504C10.9446 20.2515 9.89893 20.049 8.92024 19.6542C8.88025 19.6377 8.84719 19.6078 8.82669 19.5697C8.80619 19.5316 8.79949 19.4876 8.80774 19.4451C8.82649 19.349 8.84712 19.2614 8.8654 19.1882C9.19915 17.8556 10.026 16.7507 11.256 15.9923C12.3477 15.3196 13.7404 14.9493 15.171 14.9493C16.6316 14.9493 17.9835 15.3046 19.0841 15.9764C19.1122 15.9939 19.1323 16.0216 19.1403 16.0537C19.1482 16.0858 19.1434 16.1198 19.1268 16.1484C18.401 17.3953 17.361 18.4303 16.1105 19.15C14.86 19.8697 13.4427 20.2492 11.9999 20.2504V20.2504Z"
          fill="#1F1D25"/>
    <path d="M7.54691 13.8411C7.4608 13.8364 7.37503 13.8267 7.29004 13.812C7.37503 13.8267 7.4608 13.8364 7.54691 13.8411V13.8411Z"
          fill="#1F1D25"/>
    <path d="M6.31164 8.3501C6.06723 8.48306 5.84568 8.65429 5.65539 8.85728C5.52694 8.99384 5.41392 9.14412 5.31836 9.30541C5.41392 9.14412 5.52694 8.99384 5.65539 8.85728C5.84568 8.65429 6.06723 8.48306 6.31164 8.3501V8.3501Z"
          fill="#1F1D25"/>
    <path d="M10.1328 12.0884C10.2903 11.7349 10.3855 11.3569 10.4141 10.9709C10.4211 10.8702 10.4234 10.7708 10.4211 10.6719C10.4236 10.7703 10.4212 10.87 10.4141 10.9709C10.3855 11.3569 10.2903 11.7349 10.1328 12.0884V12.0884Z"
          fill="#1F1D25"/>
    <path d="M6.31152 8.34982C6.43359 8.28311 6.5607 8.22606 6.69168 8.1792C6.5607 8.22606 6.43359 8.28311 6.31152 8.34982V8.34982Z"
          fill="#1F1D25"/>
    <path d="M7.04156 13.7546C6.91764 13.7188 6.79665 13.6735 6.67969 13.6191C6.79665 13.6735 6.91764 13.7188 7.04156 13.7546V13.7546Z"
          fill="#1F1D25"/>
    <path d="M4.95801 11.1177C5.0827 12.1958 5.7202 13.116 6.56254 13.5608C5.71832 13.116 5.0827 12.1939 4.95801 11.1177Z"
          fill="#1F1D25"/>
    <path d="M11.9226 10.2653C11.9811 11.1615 12.3451 12.0106 12.9538 12.6709C13.2463 12.9876 13.5977 13.2443 13.9884 13.4265C13.5977 13.2443 13.2463 12.9876 12.9538 12.6709C12.3451 12.0106 11.9811 11.1615 11.9226 10.2653C11.9141 10.144 11.9113 10.024 11.9141 9.90527C11.9113 10.0225 11.9141 10.1425 11.9226 10.2653Z"
          fill="#1F1D25"/>
    <path d="M14.2732 13.5387C14.176 13.5057 14.0806 13.4677 13.9873 13.4248C14.0806 13.4677 14.176 13.5057 14.2732 13.5387V13.5387Z"
          fill="#1F1D25"/>
    <path d="M11.9971 9.21297C12.1155 8.66554 12.3793 8.16015 12.7607 7.75C12.3793 8.16015 12.1155 8.66554 11.9971 9.21297V9.21297Z"
          fill="#1F1D25"/>
    <path d="M17.5781 7.75596C18.0789 8.29727 18.377 8.99518 18.4218 9.73127C18.377 8.99518 18.0789 8.29727 17.5781 7.75596C17.2376 7.39303 16.8155 7.11662 16.3467 6.94971C16.8155 7.11662 17.2376 7.39303 17.5781 7.75596Z"
          fill="#1F1D25"/>
    <path d="M18.4215 10.2656C18.3854 10.7698 18.255 11.2627 18.0371 11.7188C18.255 11.2627 18.3854 10.7698 18.4215 10.2656V10.2656Z"
          fill="#1F1D25"/>
    <path d="M11.9141 9.90353C11.9177 9.72848 11.9343 9.55394 11.9637 9.38135C11.9343 9.55394 11.9177 9.72848 11.9141 9.90353V9.90353Z"
          fill="#1F1D25"/>
    <path d="M17.9618 11.8667C17.9097 11.9637 17.8539 12.0589 17.7939 12.1508C17.8539 12.0589 17.9097 11.9637 17.9618 11.8667Z"
          fill="#1F1D25"/>
    <path d="M9.6977 8.86182C10.1545 9.3549 10.4119 10 10.42 10.6721C10.4119 10 10.1545 9.3549 9.6977 8.86182C9.31275 8.45078 8.80778 8.17188 8.25488 8.06494C8.80778 8.17188 9.31275 8.45078 9.6977 8.86182V8.86182Z"
          fill="#1F1D25"/>
    <path d="M8.90625 13.5C8.75782 13.5884 8.60075 13.6614 8.4375 13.718C8.60075 13.6614 8.75782 13.5884 8.90625 13.5V13.5Z"
          fill="#1F1D25"/>
    <path d="M4.94531 10.5217C4.96812 10.1872 5.05068 9.85955 5.18906 9.5542C5.05068 9.85955 4.96812 10.1872 4.94531 10.5217V10.5217Z"
          fill="#1F1D25"/>
    <path d="M9.12562 13.354C9.05484 13.4065 8.98172 13.4534 8.90625 13.5003C8.98172 13.4534 9.05484 13.4065 9.12562 13.354Z"
          fill="#1F1D25"/>
    <path d="M10.1329 12.0889C10.0574 12.2591 9.96758 12.4225 9.86426 12.5773C9.96758 12.4225 10.0574 12.2591 10.1329 12.0889V12.0889Z"
          fill="#1F1D25"/>
    <path d="M5.18848 9.55361C5.22751 9.46857 5.27101 9.38564 5.31879 9.30518C5.27101 9.38564 5.22751 9.46857 5.18848 9.55361V9.55361Z"
          fill="#1F1D25"/>
    <path d="M9.12598 13.3544C9.41594 13.1409 9.66601 12.8779 9.86473 12.5776C9.66601 12.8779 9.41594 13.1409 9.12598 13.3544Z"
          fill="#1F1D25"/>
</svg>
