<svg width="24" height="24" viewBox="0 0 24 24" fill="none" xmlns="http://www.w3.org/2000/svg">
    <path d="M3.09871 16.7344C2.95394 16.7344 2.81224 16.6926 2.69072 16.6139C2.5692 16.5352 2.47304 16.4231 2.41387 16.2909C1.69784 14.6918 1.39337 12.9389 1.52821 11.1919C1.66306 9.44498 2.23292 7.75956 3.18588 6.28923C4.13884 4.8189 5.4446 3.61042 6.98416 2.77392C8.52372 1.93741 10.2481 1.49947 12.0003 1.5C12.1992 1.5 12.39 1.57902 12.5306 1.71967C12.6713 1.86032 12.7503 2.05109 12.7503 2.25V12C12.7503 12.1448 12.7084 12.2866 12.6296 12.4081C12.5509 12.5296 12.4386 12.6257 12.3064 12.6848L3.40481 16.6669C3.3087 16.7108 3.20437 16.7338 3.09871 16.7344V16.7344Z"
          fill="#1F1D25"/>
    <path d="M14.6998 3.19596C14.6454 3.18493 14.5892 3.18611 14.5354 3.1994C14.4815 3.2127 14.4312 3.23779 14.3882 3.27285C14.3452 3.30792 14.3105 3.35209 14.2867 3.40218C14.2628 3.45227 14.2504 3.50703 14.2502 3.56252V12C14.2498 12.4343 14.124 12.8592 13.8878 13.2236C13.6517 13.588 13.3152 13.8764 12.919 14.0541L4.83444 17.6719C4.78433 17.6943 4.73974 17.7274 4.70382 17.7688C4.66789 17.8103 4.64151 17.8592 4.62654 17.912C4.61156 17.9648 4.60836 18.0202 4.61715 18.0744C4.62594 18.1286 4.64651 18.1801 4.67741 18.2255C5.29612 19.1355 6.06412 19.9343 6.94897 20.5885C8.62545 21.8356 10.6607 22.5062 12.7502 22.5C18.1263 22.5 22.5002 18.1261 22.5002 12.75C22.5002 8.04143 19.1449 4.10158 14.6998 3.19596Z"
          fill="#1F1D25"/>
</svg>
