<svg width="24" height="24" viewBox="0 0 24 24" fill="none" xmlns="http://www.w3.org/2000/svg">
    <path d="M15.75 4.49971C15.7499 3.79016 15.5486 3.0952 15.1693 2.49553C14.79 1.89585 14.2484 1.41609 13.6074 1.11196C12.9663 0.807824 12.2521 0.691803 11.5478 0.777371C10.8434 0.862938 10.1778 1.14658 9.62818 1.59536C9.07859 2.04413 8.66759 2.63962 8.44293 3.31266C8.21828 3.9857 8.18917 4.70866 8.359 5.39758C8.52884 6.0865 8.89063 6.7131 9.40237 7.2046C9.91411 7.6961 10.5548 8.03233 11.25 8.17424V21.4478C11.2501 21.6471 11.2898 21.8443 11.3667 22.0281L11.8388 23.1531C11.8546 23.1821 11.8779 23.2062 11.9063 23.2231C11.9346 23.2399 11.967 23.2488 12 23.2488C12.033 23.2488 12.0654 23.2399 12.0937 23.2231C12.1221 23.2062 12.1454 23.1821 12.1613 23.1531L12.6333 22.0281C12.7102 21.8443 12.7499 21.6471 12.75 21.4478V8.17424C13.5964 8.00029 14.357 7.53983 14.9035 6.87048C15.4499 6.20112 15.7489 5.36381 15.75 4.49971ZM13.125 4.49971C12.9025 4.49971 12.685 4.43373 12.5 4.31011C12.315 4.18649 12.1708 4.01079 12.0856 3.80522C12.0005 3.59966 11.9782 3.37346 12.0216 3.15523C12.065 2.937 12.1722 2.73654 12.3295 2.57921C12.4868 2.42188 12.6873 2.31473 12.9055 2.27132C13.1238 2.22791 13.35 2.25019 13.5555 2.33534C13.7611 2.42049 13.9368 2.56468 14.0604 2.74969C14.184 2.93469 14.25 3.1522 14.25 3.37471C14.25 3.67307 14.1315 3.95922 13.9205 4.1702C13.7095 4.38118 13.4234 4.49971 13.125 4.49971Z"
          fill="#1F1D25"/>
</svg>
