<svg width="24" height="24" viewBox="0 0 24 24" fill="none" xmlns="http://www.w3.org/2000/svg">
    <path d="M20.7104 3.17953C17.9738 2.09672 14.8735 1.5 11.9794 1.5C9.00007 1.5 5.89507 2.08734 3.23445 3.15281C2.28288 3.53859 2.11929 4.21875 2.28335 4.72594L2.47413 5.20312C2.51156 5.29657 2.56742 5.38153 2.63838 5.45293C2.70934 5.52434 2.79395 5.58072 2.88716 5.61873C2.98037 5.65675 3.08029 5.6756 3.18094 5.67418C3.2816 5.67276 3.38094 5.65109 3.47304 5.61047C3.97929 5.38734 4.59476 5.11641 4.73867 5.05828C6.80163 4.20188 9.3146 3.75 12.0001 3.75C14.694 3.75 17.0668 4.18312 19.2544 5.07422C19.4616 5.15859 19.9519 5.37516 20.4812 5.61141C20.5731 5.65246 20.6723 5.67459 20.773 5.67648C20.8736 5.67837 20.9736 5.65998 21.067 5.62241C21.1604 5.58483 21.2452 5.52884 21.3165 5.45778C21.3878 5.38671 21.4441 5.30202 21.4819 5.20875L21.6563 4.78125L21.6723 4.73906C21.834 4.26047 21.6788 3.56484 20.7104 3.17953Z"
          fill="#1F1D25"/>
    <path d="M19.1808 6.60281C17.0475 5.74359 14.4229 5.25 11.9798 5.25C9.51454 5.25162 7.07097 5.7108 4.77326 6.60422C4.74842 6.61406 4.6767 6.64547 4.57217 6.69234C4.48179 6.73285 4.40034 6.79085 4.3325 6.863C4.26466 6.93515 4.21178 7.02002 4.17692 7.11272C4.14205 7.20542 4.12589 7.3041 4.12937 7.40307C4.13284 7.50205 4.15589 7.59935 4.19717 7.68937C4.38467 8.09766 4.63873 8.65406 4.92373 9.27797C6.46639 12.6562 9.33842 18.9375 10.6533 21.6562C10.7751 21.9099 10.9663 22.1238 11.2047 22.2731C11.4432 22.4225 11.7191 22.5011 12.0005 22.5V22.5C12.2823 22.5011 12.5586 22.4221 12.7973 22.2723C13.036 22.1224 13.2272 21.9078 13.3486 21.6534L13.3514 21.6473L19.7873 7.69875C19.8299 7.60747 19.8536 7.50853 19.857 7.40786C19.8603 7.3072 19.8433 7.20689 19.8069 7.11297C19.7705 7.01905 19.7155 6.93346 19.6452 6.86134C19.5749 6.78922 19.4908 6.73205 19.3978 6.69328C19.2919 6.64875 19.2173 6.61781 19.1869 6.60562L19.1808 6.60281ZM9.09795 10.4967C8.7936 10.5166 8.49043 10.4432 8.22887 10.2863C7.96731 10.1294 7.75978 9.89656 7.63395 9.61873C7.50812 9.3409 7.46998 9.03131 7.5246 8.73125C7.57923 8.43118 7.72402 8.1549 7.93969 7.93924C8.15535 7.72357 8.43163 7.57878 8.7317 7.52415C9.03176 7.46953 9.34135 7.50767 9.61918 7.6335C9.89701 7.75933 10.1299 7.96686 10.2867 8.22842C10.4436 8.48998 10.517 8.79315 10.4972 9.0975C10.4735 9.46081 10.3185 9.80311 10.061 10.0606C9.80356 10.318 9.46126 10.473 9.09795 10.4967ZM12.0979 16.4967C11.7936 16.5166 11.4904 16.4432 11.2289 16.2863C10.9673 16.1294 10.7598 15.8966 10.6339 15.6187C10.5081 15.3409 10.47 15.0313 10.5246 14.7312C10.5792 14.4312 10.724 14.1549 10.9397 13.9392C11.1554 13.7236 11.4316 13.5788 11.7317 13.5242C12.0318 13.4695 12.3413 13.5077 12.6192 13.6335C12.897 13.7593 13.1299 13.9669 13.2867 14.2284C13.4436 14.49 13.517 14.7932 13.4972 15.0975C13.4735 15.4608 13.3185 15.8031 13.061 16.0606C12.8036 16.318 12.4613 16.473 12.0979 16.4967V16.4967ZM15.0979 11.2467C14.7936 11.2666 14.4904 11.1932 14.2289 11.0363C13.9673 10.8794 13.7598 10.6466 13.6339 10.3687C13.5081 10.0909 13.47 9.78131 13.5246 9.48125C13.5792 9.18118 13.724 8.9049 13.9397 8.68924C14.1554 8.47357 14.4316 8.32878 14.7317 8.27415C15.0318 8.21953 15.3413 8.25767 15.6192 8.3835C15.897 8.50933 16.1299 8.71686 16.2867 8.97842C16.4436 9.23998 16.517 9.54315 16.4972 9.8475C16.4735 10.2108 16.3185 10.5531 16.061 10.8106C15.8036 11.068 15.4613 11.223 15.0979 11.2467V11.2467Z"
          fill="#1F1D25"/>
</svg>
