<svg width="24" height="24" viewBox="0 0 24 24" fill="none" xmlns="http://www.w3.org/2000/svg">
    <g clipPath="url(#clip0)">
        <path d="M4.53937 13.4346C4.47765 13.3892 4.40353 13.3639 4.32698 13.3619C4.25043 13.36 4.17512 13.3815 4.11116 13.4236C4.04721 13.4657 3.99767 13.5264 3.96922 13.5975C3.94077 13.6686 3.93477 13.7467 3.95202 13.8213C4.78405 17.4968 8.07609 20.2493 11.9995 20.2493C12.8327 20.2495 13.6611 20.1231 14.4562 19.8743C14.5296 19.8517 14.5943 19.807 14.6415 19.7465C14.6887 19.6859 14.7162 19.6123 14.7202 19.5356C14.7243 19.459 14.7047 19.3829 14.6641 19.3177C14.6235 19.2525 14.5639 19.2014 14.4933 19.1712C12.7363 18.3967 11.0231 17.5265 9.3614 16.5644C7.6984 15.6095 6.08867 14.5647 4.53937 13.4346V13.4346Z"
              fill="#1F1D25"/>
        <path d="M23.0963 15.9145C22.8999 15.653 22.6693 15.3783 22.4072 15.0928C22.3216 14.9985 22.2131 14.9278 22.0923 14.8876C21.9714 14.8473 21.8422 14.8389 21.7171 14.863C21.592 14.8872 21.4753 14.9431 21.3781 15.0255C21.2809 15.1079 21.2066 15.2139 21.1622 15.3333C21.1622 15.3408 21.1571 15.3478 21.1543 15.3553C21.1075 15.4823 21.0966 15.6196 21.1226 15.7524C21.1487 15.8852 21.2107 16.0082 21.3019 16.1081C22.3679 17.28 22.5404 17.9133 22.4963 18.0469C22.4025 18.1514 21.6971 18.3698 19.7705 17.8814C19.4946 17.8114 19.1927 17.7261 18.8649 17.6255C18.6536 17.5605 18.4382 17.4903 18.2185 17.415C18.5636 17.0192 18.8703 16.5915 19.1344 16.1377C19.1424 16.1241 19.1508 16.1105 19.1588 16.0964C19.8744 14.8498 20.2506 13.4374 20.25 12C20.2502 11.7025 20.2346 11.4052 20.2032 11.1094C19.7546 6.97641 16.2469 3.75 12 3.75C10.1981 3.74899 8.44572 4.34008 7.01254 5.43234C6.14389 6.09349 5.41391 6.91919 4.86426 7.86234C4.85676 7.87594 4.84832 7.88953 4.84035 7.90313C4.57912 8.35823 4.36204 8.83729 4.19207 9.33375C4.01738 9.18156 3.84879 9.03047 3.68629 8.88047C3.43363 8.6461 3.20957 8.42906 3.01035 8.22422C1.62426 6.80578 1.45926 6.08625 1.50285 5.95313C1.5966 5.8486 2.23129 5.67797 3.78192 6.01453C3.91449 6.04368 4.05252 6.03589 4.18096 5.992C4.30941 5.94811 4.42334 5.86981 4.51035 5.76563L4.52723 5.745C4.6081 5.64781 4.66265 5.53147 4.68562 5.40713C4.7086 5.2828 4.69924 5.15465 4.65844 5.03497C4.61763 4.9153 4.54676 4.80812 4.45262 4.72371C4.35848 4.63931 4.24422 4.58051 4.12082 4.55297C3.75278 4.46958 3.38074 4.40496 3.00613 4.35938C1.56613 4.19391 0.623479 4.4775 0.203947 5.20313C0.0520723 5.46469 -0.0937089 5.91047 0.0764473 6.54375C0.328166 7.48406 1.22535 8.625 2.4952 9.82031C2.89973 10.2014 3.34176 10.5877 3.81332 10.9753C4.15645 11.2566 4.51645 11.5406 4.88676 11.8228C5.13395 12.0103 5.38629 12.1978 5.64379 12.3853C5.90129 12.5728 6.16223 12.7569 6.4266 12.9375C7.6177 13.763 8.87629 14.5556 10.1105 15.2667C10.5586 15.5248 11.0061 15.7748 11.453 16.0167C11.8999 16.2586 12.3432 16.49 12.7829 16.7109C13.8094 17.2266 14.8149 17.6916 15.7763 18.0905C16.1885 18.2617 16.5918 18.4205 16.9861 18.5667C17.5435 18.7739 18.0816 18.9563 18.5944 19.11L18.646 19.1255C19.8521 19.4845 20.8688 19.6734 21.6685 19.688H21.75C22.7644 19.688 23.4516 19.3889 23.7929 18.7973C24.2189 18.0652 23.9841 17.0948 23.0963 15.9145Z"
              fill="#1F1D25"/>
    </g>
    <defs>
        <clipPath id="clip0">
            <rect width="24" height="24" fill="white"/>
        </clipPath>
    </defs>
</svg>
