<svg width="24" height="24" viewBox="0 0 24 24" fill="none" xmlns="http://www.w3.org/2000/svg">
    <path d="M22.5605 10.7544L13.7073 5.45756C13.4882 5.3243 13.2374 5.25229 12.9811 5.24908C12.7247 5.24586 12.4722 5.31155 12.2499 5.43928C12.0087 5.57974 11.809 5.78152 11.671 6.02414C11.533 6.26677 11.4617 6.54158 11.4643 6.82069V10.5262L2.99304 5.45616C2.77402 5.32289 2.52323 5.25089 2.26687 5.24767C2.01051 5.24446 1.75799 5.31014 1.5357 5.43787C1.2945 5.57833 1.09476 5.78011 0.956781 6.02274C0.818798 6.26536 0.747481 6.54018 0.750073 6.81928V17.1787C0.747398 17.4578 0.818676 17.7328 0.956663 17.9755C1.09465 18.2182 1.29443 18.42 1.5357 18.5605C1.75799 18.6883 2.01051 18.7539 2.26687 18.7507C2.52323 18.7475 2.77402 18.6755 2.99304 18.5422L11.4643 13.4699V17.1768C11.4613 17.4563 11.5324 17.7316 11.6704 17.9747C11.8084 18.2177 12.0084 18.4199 12.2499 18.5605C12.4722 18.6883 12.7247 18.7539 12.9811 18.7507C13.2374 18.7475 13.4882 18.6755 13.7073 18.5422L22.5605 13.2454C22.771 13.1135 22.9445 12.9304 23.0648 12.7131C23.1851 12.4958 23.2482 12.2515 23.2482 12.0032C23.2482 11.7548 23.1851 11.5106 23.0648 11.2933C22.9445 11.076 22.771 10.8928 22.5605 10.761V10.7544Z"
          fill="#1F1D25"/>
</svg>
