<svg width="24" height="24" viewBox="0 0 24 24" fill="none" xmlns="http://www.w3.org/2000/svg">
    <path d="M1.43961 10.7564L10.2929 5.45951C10.5119 5.32625 10.7627 5.25425 11.0191 5.25103C11.2754 5.24781 11.5279 5.3135 11.7502 5.44123C11.9914 5.58169 12.1912 5.78347 12.3291 6.0261C12.4671 6.26872 12.5384 6.54354 12.5359 6.82264V10.5281L21.0071 5.45811C21.2261 5.32484 21.4769 5.25284 21.7333 5.24962C21.9896 5.24641 22.2422 5.3121 22.4644 5.43983C22.7056 5.58028 22.9054 5.78207 23.0434 6.02469C23.1813 6.26731 23.2527 6.54213 23.2501 6.82123V17.1806C23.2528 17.4598 23.1815 17.7347 23.0435 17.9775C22.9056 18.2202 22.7057 18.422 22.4644 18.5625C22.2422 18.6902 21.9896 18.7559 21.7333 18.7527C21.4769 18.7495 21.2261 18.6775 21.0071 18.5442L12.5359 13.4719V17.1787C12.5389 17.4582 12.4678 17.7336 12.3298 17.9766C12.1918 18.2197 11.9918 18.4219 11.7502 18.5625C11.5279 18.6902 11.2754 18.7559 11.0191 18.7527C10.7627 18.7495 10.5119 18.6775 10.2929 18.5442L1.43961 13.2473C1.22914 13.1155 1.05562 12.9323 0.935338 12.715C0.815056 12.4978 0.751953 12.2535 0.751953 12.0051C0.751953 11.7568 0.815056 11.5125 0.935338 11.2952C1.05562 11.0779 1.22914 10.8948 1.43961 10.763V10.7564Z"
          fill="#1F1D25"/>
</svg>
