<svg width="24" height="24" viewBox="0 0 24 24" fill="none" xmlns="http://www.w3.org/2000/svg">
    <path d="M12 21.7501C6.62391 21.7501 2.25 17.3687 2.25 11.9837C2.25 9.05637 3.52734 6.31184 5.75438 4.45793C5.85836 4.37085 5.9785 4.30513 6.10792 4.26454C6.23734 4.22396 6.37349 4.2093 6.50858 4.22141C6.64367 4.23352 6.77505 4.27216 6.89519 4.33512C7.01532 4.39807 7.12186 4.48411 7.2087 4.5883C7.29553 4.69249 7.36096 4.81279 7.40124 4.94231C7.44152 5.07182 7.45585 5.20801 7.44341 5.34307C7.43098 5.47814 7.39203 5.60942 7.32878 5.72941C7.26554 5.84939 7.17924 5.95572 7.07484 6.04231C5.31937 7.50481 4.3125 9.67043 4.3125 11.9837C4.3125 16.2315 7.76109 19.6876 12 19.6876C16.2389 19.6876 19.6875 16.2315 19.6875 11.9837C19.6874 10.8485 19.4358 9.72735 18.9509 8.70088C18.466 7.67441 17.7598 6.76808 16.883 6.047C16.7744 5.9622 16.6838 5.85651 16.6168 5.73615C16.5497 5.61579 16.5074 5.48321 16.4924 5.34624C16.4775 5.20927 16.4901 5.07068 16.5296 4.93867C16.569 4.80666 16.6346 4.6839 16.7223 4.57764C16.81 4.47138 16.9181 4.38377 17.0403 4.32C17.1624 4.25622 17.2961 4.21757 17.4334 4.20632C17.5707 4.19508 17.7089 4.21146 17.8398 4.25452C17.9707 4.29757 18.0916 4.36642 18.1955 4.457C19.307 5.37122 20.2023 6.52032 20.8169 7.82172C21.4314 9.12311 21.7501 10.5445 21.75 11.9837C21.75 17.3687 17.3761 21.7501 12 21.7501Z"
          fill="#1F1D25"/>
    <path d="M12 12.75C11.7265 12.75 11.4642 12.6414 11.2708 12.448C11.0774 12.2546 10.9688 11.9923 10.9688 11.7188V3.28125C10.9688 3.00775 11.0774 2.74544 11.2708 2.55205C11.4642 2.35865 11.7265 2.25 12 2.25C12.2735 2.25 12.5358 2.35865 12.7292 2.55205C12.9226 2.74544 13.0312 3.00775 13.0312 3.28125V11.7188C13.0312 11.9923 12.9226 12.2546 12.7292 12.448C12.5358 12.6414 12.2735 12.75 12 12.75Z"
          fill="#1F1D25"/>
</svg>
