<svg width="24" height="24" viewBox="0 0 24 24" fill="none" xmlns="http://www.w3.org/2000/svg">
    <path d="M22.8674 14.9738L13.858 1.7288C13.6515 1.42658 13.3743 1.17932 13.0506 1.00846C12.7269 0.837596 12.3664 0.748291 12.0003 0.748291C11.6343 0.748291 11.2738 0.837596 10.9501 1.00846C10.6263 1.17932 10.3492 1.42658 10.1427 1.7288L1.13329 14.9738C0.958614 15.2306 0.840077 15.5213 0.785427 15.8271C0.730777 16.1328 0.741243 16.4466 0.81614 16.748C0.891037 17.0494 1.02868 17.3316 1.22008 17.5762C1.41148 17.8208 1.65233 18.0222 1.92689 18.1674L10.9363 22.9838C11.2635 23.1592 11.629 23.251 12.0003 23.251C12.3716 23.251 12.7371 23.1592 13.0644 22.9838L22.0738 18.1674C22.3483 18.0222 22.5892 17.8208 22.7806 17.5762C22.972 17.3316 23.1096 17.0494 23.1845 16.748C23.2594 16.4466 23.2699 16.1328 23.2152 15.8271C23.1606 15.5213 23.042 15.2306 22.8674 14.9738V14.9738ZM2.65204 16.8957C2.55895 16.8453 2.47746 16.776 2.41287 16.6922C2.34827 16.6084 2.30199 16.5119 2.27704 16.4091C2.24921 16.3009 2.24472 16.188 2.26387 16.0779C2.28303 15.9679 2.32539 15.8631 2.38814 15.7707L10.9063 3.24661C11.0084 3.09614 11.2503 3.16598 11.2503 3.34645V20.8777C11.2503 21.1543 10.9438 21.3291 10.6939 21.1955L2.65204 16.8957Z"
          fill="#1F1D25"/>
</svg>
