<svg width="24" height="24" viewBox="0 0 24 24" fill="none" xmlns="http://www.w3.org/2000/svg">
    <path d="M20.25 12.7494C19.7849 12.7501 19.3314 12.8946 18.9516 13.1632C18.5719 13.4317 18.2845 13.8111 18.1289 14.2494H16.2905L14.9616 10.2623C14.9109 10.1103 14.8129 9.97863 14.682 9.88641C14.551 9.79419 14.394 9.74631 14.2339 9.74976C14.0738 9.75322 13.919 9.80784 13.7922 9.90563C13.6653 10.0034 13.5731 10.1392 13.5291 10.2932L11.4427 17.5944L8.98969 2.87569C8.96124 2.70575 8.87515 2.55079 8.74589 2.43686C8.61662 2.32293 8.45207 2.25699 8.27991 2.25011C8.10774 2.24323 7.93846 2.29585 7.80052 2.39911C7.66258 2.50237 7.56441 2.64997 7.5225 2.8171L4.66453 14.2494H2.25C2.05109 14.2494 1.86032 14.3285 1.71967 14.4691C1.57902 14.6098 1.5 14.8005 1.5 14.9994C1.5 15.1984 1.57902 15.3891 1.71967 15.5298C1.86032 15.6704 2.05109 15.7494 2.25 15.7494H5.25C5.41725 15.7494 5.57969 15.6935 5.7115 15.5906C5.84332 15.4876 5.93694 15.3436 5.9775 15.1813L8.10281 6.6796L10.5103 21.1227C10.5381 21.2909 10.6223 21.4446 10.749 21.5585C10.8758 21.6724 11.0376 21.7398 11.2078 21.7494C11.2219 21.7494 11.2359 21.7494 11.2505 21.7494C11.4133 21.7493 11.5717 21.6962 11.7017 21.5981C11.8316 21.5 11.9262 21.3623 11.9709 21.2057L14.3053 13.0363L15.0384 15.2366C15.0882 15.386 15.1837 15.5159 15.3114 15.6079C15.4391 15.6999 15.5926 15.7495 15.75 15.7494H18.1289C18.2664 16.1384 18.5082 16.482 18.8278 16.7428C19.1474 17.0036 19.5326 17.1715 19.9412 17.2281C20.3498 17.2848 20.7661 17.228 21.1446 17.0641C21.5231 16.9001 21.8493 16.6352 22.0874 16.2984C22.3256 15.9616 22.4665 15.5658 22.4949 15.1542C22.5233 14.7427 22.438 14.3313 22.2483 13.965C22.0587 13.5986 21.7719 13.2915 21.4195 13.0771C21.0671 12.8628 20.6625 12.7494 20.25 12.7494Z"
          fill="#1F1D25"/>
</svg>
