<svg width="24" height="24" viewBox="0 0 24 24" fill="none" xmlns="http://www.w3.org/2000/svg">
    <g clipPath="url(#clip0)">
        <path d="M12 13.6875C12.932 13.6875 13.6875 12.932 13.6875 12C13.6875 11.068 12.932 10.3125 12 10.3125C11.068 10.3125 10.3125 11.068 10.3125 12C10.3125 12.932 11.068 13.6875 12 13.6875Z"
              fill="#1F1D25"/>
        <path d="M8.91711 16.0202C8.77136 16.0203 8.62723 15.9896 8.49424 15.93C8.36125 15.8703 8.2424 15.7832 8.14554 15.6743C7.24593 14.6619 6.74902 13.3546 6.74902 12.0002C6.74902 10.6458 7.24593 9.33855 8.14554 8.32613C8.23476 8.22226 8.34378 8.13719 8.46623 8.07589C8.58868 8.01459 8.72211 7.97829 8.85874 7.96912C8.99536 7.95994 9.13245 7.97806 9.262 8.02243C9.39155 8.0668 9.51096 8.13653 9.61327 8.22754C9.71558 8.31855 9.79874 8.42903 9.8579 8.55253C9.91706 8.67603 9.95103 8.81007 9.95783 8.94683C9.96463 9.0836 9.94413 9.22035 9.89751 9.34911C9.8509 9.47786 9.7791 9.59605 9.68633 9.69676C9.12238 10.3316 8.8109 11.1513 8.8109 12.0004C8.8109 12.8496 9.12238 13.6693 9.68633 14.3041C9.81828 14.4527 9.90451 14.6362 9.93464 14.8326C9.96476 15.029 9.93751 15.2299 9.85616 15.4112C9.7748 15.5925 9.64281 15.7464 9.47605 15.8544C9.30929 15.9625 9.11487 16.02 8.91617 16.0202H8.91711Z"
              fill="#1F1D25"/>
        <path d="M15.082 16.0202C14.8833 16.02 14.6889 15.9625 14.5221 15.8544C14.3554 15.7464 14.2234 15.5925 14.142 15.4112C14.0607 15.2299 14.0334 15.029 14.0635 14.8326C14.0937 14.6362 14.1799 14.4527 14.3118 14.3041C14.8758 13.6693 15.1873 12.8496 15.1873 12.0004C15.1873 11.1513 14.8758 10.3316 14.3118 9.69676C14.2191 9.59604 14.1473 9.47786 14.1007 9.34911C14.054 9.22035 14.0335 9.0836 14.0403 8.94683C14.0471 8.81007 14.0811 8.67603 14.1403 8.55253C14.1994 8.42903 14.2826 8.31855 14.3849 8.22754C14.4872 8.13653 14.6066 8.0668 14.7362 8.02243C14.8657 7.97806 15.0028 7.95994 15.1394 7.96912C15.2761 7.97829 15.4095 8.01459 15.5319 8.07589C15.6544 8.13718 15.7634 8.22225 15.8526 8.32613C16.7523 9.33855 17.2492 10.6458 17.2492 12.0002C17.2492 13.3546 16.7523 14.6618 15.8526 15.6743C15.7559 15.7831 15.6372 15.8701 15.5044 15.9297C15.3715 15.9894 15.2276 16.0202 15.082 16.0202V16.0202Z"
              fill="#1F1D25"/>
        <path d="M6.5296 18.4088C6.38814 18.4089 6.24818 18.3799 6.11848 18.3234C5.98878 18.2669 5.87213 18.1843 5.77585 18.0807C4.23379 16.431 3.37598 14.2571 3.37598 11.9989C3.37598 9.74067 4.23379 7.56678 5.77585 5.91708C5.86815 5.81732 5.97925 5.73679 6.10278 5.68012C6.22631 5.62344 6.35982 5.59175 6.49564 5.58685C6.63146 5.58195 6.7669 5.60395 6.89419 5.65158C7.02148 5.69921 7.1381 5.77152 7.23734 5.86437C7.33659 5.95722 7.4165 6.06878 7.47249 6.19262C7.52847 6.31645 7.55943 6.45014 7.56357 6.58598C7.56772 6.72183 7.54497 6.85715 7.49664 6.98417C7.44831 7.11119 7.37534 7.22741 7.28194 7.32614C6.09723 8.59376 5.43822 10.2641 5.43822 11.9991C5.43822 13.7342 6.09723 15.4044 7.28194 16.6721C7.41881 16.8189 7.50985 17.0025 7.54388 17.2004C7.57792 17.3982 7.55347 17.6017 7.47354 17.7858C7.39361 17.97 7.26168 18.1268 7.09392 18.237C6.92616 18.3473 6.72987 18.4061 6.52913 18.4065L6.5296 18.4088Z"
              fill="#1F1D25"/>
        <path d="M17.4705 18.4089C17.2697 18.4086 17.0734 18.3497 16.9057 18.2395C16.7379 18.1292 16.606 17.9724 16.5261 17.7882C16.4461 17.6041 16.4217 17.4006 16.4557 17.2028C16.4898 17.005 16.5808 16.8214 16.7177 16.6745C17.9024 15.4069 18.5614 13.7366 18.5614 12.0015C18.5614 10.2665 17.9024 8.59621 16.7177 7.32858C16.6243 7.22985 16.5513 7.11364 16.503 6.98661C16.4546 6.85959 16.4319 6.72427 16.436 6.58842C16.4402 6.45258 16.4711 6.3189 16.5271 6.19506C16.5831 6.07122 16.663 5.95967 16.7623 5.86681C16.8615 5.77396 16.9781 5.70165 17.1054 5.65402C17.2327 5.60639 17.3681 5.5844 17.504 5.58929C17.6398 5.59419 17.7733 5.62589 17.8968 5.68256C18.0203 5.73923 18.1315 5.81976 18.2238 5.91952C19.7658 7.56923 20.6236 9.74311 20.6236 12.0013C20.6236 14.2595 19.7658 16.4334 18.2238 18.0831C18.1273 18.1863 18.0107 18.2684 17.8811 18.3245C17.7514 18.3805 17.6117 18.4093 17.4705 18.4089V18.4089Z"
              fill="#1F1D25"/>
        <path d="M20.1091 20.5315C19.9101 20.5314 19.7153 20.4738 19.5482 20.3655C19.3812 20.2571 19.2491 20.1028 19.1679 19.921C19.0867 19.7393 19.0598 19.5379 19.0905 19.3412C19.1212 19.1445 19.2081 18.9609 19.3409 18.8126C21.0132 16.9375 21.9374 14.5128 21.9374 12.0002C21.9374 9.48771 21.0132 7.06298 19.3409 5.18789C19.1643 4.98327 19.0751 4.71752 19.0925 4.44781C19.1099 4.1781 19.2325 3.926 19.4338 3.74575C19.6352 3.56551 19.8993 3.47152 20.1693 3.48401C20.4393 3.49651 20.6936 3.6145 20.8774 3.81258C22.8882 6.06584 23.9995 8.98024 23.9995 12.0002C23.9995 15.0202 22.8882 17.9346 20.8774 20.1879C20.7807 20.296 20.6623 20.3824 20.5299 20.4416C20.3976 20.5008 20.2542 20.5315 20.1091 20.5315V20.5315Z"
              fill="#1F1D25"/>
        <path d="M3.89029 20.5315C3.74509 20.5318 3.60147 20.5013 3.46889 20.4421C3.33631 20.3828 3.21777 20.2962 3.12108 20.1879C1.11032 17.9346 -0.000976562 15.0202 -0.000976562 12.0002C-0.000976563 8.98024 1.11032 6.06584 3.12108 3.81258C3.30494 3.6145 3.55923 3.49651 3.82921 3.48401C4.09918 3.47152 4.36328 3.56551 4.56466 3.74575C4.76604 3.926 4.88862 4.1781 4.906 4.44781C4.92339 4.71752 4.83421 4.98327 4.65764 5.18789C2.98527 7.06298 2.06107 9.48771 2.06107 12.0002C2.06107 14.5128 2.98527 16.9375 4.65764 18.8126C4.79033 18.9609 4.87729 19.1444 4.90801 19.341C4.93874 19.5376 4.91193 19.7389 4.83081 19.9206C4.74969 20.1023 4.61773 20.2567 4.45085 20.3651C4.28397 20.4735 4.08929 20.5313 3.89029 20.5315V20.5315Z"
              fill="#1F1D25"/>
    </g>
    <defs>
        <clipPath id="clip0">
            <rect width="24" height="24" fill="white"/>
        </clipPath>
    </defs>
</svg>
