<svg width="24" height="24" viewBox="0 0 24 24" fill="none" xmlns="http://www.w3.org/2000/svg">
    <path d="M21.3872 6.53276C20.6011 5.74854 19.5511 5.20104 18.3323 4.93901C18.2181 4.91442 18.1112 4.86347 18.0201 4.79022C17.929 4.71698 17.8563 4.62346 17.8078 4.51713C17.3596 3.53825 16.6811 2.68246 15.8302 2.02291C14.7412 1.18995 13.417 0.749789 12 0.749789C10.3853 0.744663 8.82521 1.334 7.61719 2.40541C6.48281 3.41604 5.69953 4.81198 5.34703 6.4287C5.31764 6.56555 5.25064 6.69148 5.15359 6.79234C5.05654 6.89321 4.93327 6.96499 4.79766 6.99963C3.62578 7.29495 3.12375 7.58744 2.49094 8.15088C1.59375 8.94963 1.125 10.0376 1.125 11.2873C1.125 12.7193 1.65141 13.8954 2.64703 14.6885C3.51938 15.3828 4.71094 15.7498 6.09375 15.7498H17.0625C18.6188 15.7498 20.0677 15.2126 21.1406 14.2367C22.2581 13.2218 22.875 11.8146 22.875 10.2748C22.875 8.79869 22.3594 7.50495 21.3872 6.53276Z"
          fill="#1F1D25"/>
    <path d="M5.24955 21.0003C5.11381 21.0002 4.98065 20.9633 4.86424 20.8934C4.74784 20.8236 4.65256 20.7235 4.58857 20.6038C4.52458 20.4841 4.49428 20.3493 4.50089 20.2137C4.5075 20.0782 4.55078 19.9469 4.62611 19.834L6.12611 17.584C6.18077 17.5021 6.25104 17.4317 6.33289 17.3769C6.41475 17.3222 6.50659 17.284 6.60318 17.2648C6.69977 17.2455 6.7992 17.2454 6.89582 17.2646C6.99243 17.2837 7.08433 17.3217 7.16626 17.3764C7.24819 17.431 7.31856 17.5013 7.37334 17.5831C7.42811 17.665 7.46623 17.7568 7.48551 17.8534C7.5048 17.95 7.50487 18.0495 7.48572 18.1461C7.46657 18.2427 7.42858 18.3346 7.37392 18.4165L5.87392 20.6665C5.80537 20.7692 5.71252 20.8535 5.60359 20.9117C5.49467 20.9699 5.37306 21.0003 5.24955 21.0003V21.0003Z"
          fill="#1F1D25"/>
    <path d="M7.50006 23.2502C7.36436 23.2501 7.23126 23.2131 7.11492 23.1433C6.99858 23.0734 6.90337 22.9733 6.83944 22.8536C6.77551 22.7339 6.74524 22.5991 6.75187 22.4636C6.7585 22.3281 6.80178 22.1969 6.87709 22.084L9.87709 17.584C9.93175 17.5021 10.002 17.4317 10.0839 17.3769C10.1657 17.3222 10.2576 17.284 10.3542 17.2648C10.4507 17.2455 10.5502 17.2454 10.6468 17.2646C10.7434 17.2837 10.8353 17.3217 10.9172 17.3764C10.9992 17.431 11.0695 17.5013 11.1243 17.5831C11.1791 17.665 11.2172 17.7568 11.2365 17.8534C11.2558 17.95 11.2558 18.0494 11.2367 18.1461C11.2176 18.2427 11.1796 18.3346 11.1249 18.4165L8.1249 22.9165C8.05631 23.0193 7.96338 23.1036 7.85437 23.1618C7.74536 23.22 7.62364 23.2504 7.50006 23.2502V23.2502Z"
          fill="#1F1D25"/>
    <path d="M12.7496 21C12.6138 20.9999 12.4806 20.963 12.3642 20.8932C12.2478 20.8234 12.1526 20.7233 12.0886 20.6036C12.0246 20.4839 11.9943 20.3491 12.0009 20.2135C12.0075 20.0779 12.0508 19.9467 12.1261 19.8338L13.6261 17.5838C13.7365 17.4183 13.9081 17.3035 14.1032 17.2645C14.2983 17.2256 14.5008 17.2657 14.6663 17.3761C14.8317 17.4865 14.9466 17.6581 14.9855 17.8532C15.0245 18.0483 14.9843 18.2508 14.8739 18.4163L13.3739 20.6663C13.3054 20.769 13.2125 20.8532 13.1036 20.9115C12.9947 20.9697 12.8731 21.0001 12.7496 21V21Z"
          fill="#1F1D25"/>
    <path d="M14.9996 23.25C14.8638 23.2499 14.7306 23.213 14.6142 23.1432C14.4978 23.0734 14.4026 22.9733 14.3386 22.8536C14.2746 22.7339 14.2443 22.5991 14.2509 22.4635C14.2575 22.3279 14.3008 22.1967 14.3761 22.0838L17.3761 17.5838C17.4865 17.4183 17.6581 17.3035 17.8532 17.2645C18.0483 17.2256 18.2508 17.2657 18.4163 17.3761C18.5817 17.4865 18.6966 17.6581 18.7355 17.8532C18.7745 18.0483 18.7343 18.2508 18.6239 18.4163L15.6239 22.9163C15.5554 23.019 15.4625 23.1032 15.3536 23.1615C15.2447 23.2197 15.1231 23.2501 14.9996 23.25V23.25Z"
          fill="#1F1D25"/>
</svg>
