<svg width="24" height="24" viewBox="0 0 24 24" fill="none" xmlns="http://www.w3.org/2000/svg">
    <path d="M17.8496 6.75083C15.0793 6.82817 12.8283 9.08099 12.75 11.8513C12.7104 13.237 13.2223 14.5818 14.1732 15.5905C14.1855 15.6036 14.1938 15.6199 14.1971 15.6375C14.2004 15.6551 14.1986 15.6733 14.1919 15.6899C14.1852 15.7066 14.1739 15.7209 14.1592 15.7313C14.1446 15.7417 14.1273 15.7476 14.1094 15.7485H9.89067C9.87244 15.7483 9.85465 15.7429 9.83948 15.7328C9.82431 15.7226 9.81242 15.7083 9.80526 15.6916C9.79809 15.6748 9.79597 15.6563 9.79915 15.6384C9.80234 15.6204 9.81068 15.6038 9.82317 15.5905C10.7754 14.5824 11.2886 13.2375 11.25 11.8513C11.1736 9.08099 8.9227 6.82817 6.15239 6.75083C5.45248 6.73127 4.75572 6.85177 4.10303 7.10524C3.45033 7.35871 2.85487 7.74004 2.3516 8.22685C1.84834 8.71365 1.44742 9.29611 1.17239 9.94001C0.897359 10.5839 0.753766 11.2763 0.750043 11.9765C0.738324 14.894 3.14067 17.2485 6.05817 17.2485H17.9419C20.8594 17.2485 23.2618 14.894 23.25 11.9765C23.2463 11.2764 23.1028 10.5842 22.8279 9.94046C22.553 9.29668 22.1522 8.71431 21.6491 8.22753C21.1461 7.74075 20.5508 7.35938 19.8984 7.10579C19.2459 6.85221 18.5493 6.73153 17.8496 6.75083V6.75083Z"
          fill="#1F1D25"/>
</svg>
