<svg width="24" height="24" viewBox="0 0 24 24" fill="none" xmlns="http://www.w3.org/2000/svg">
    <path d="M18.75 6.93726L17.76 5.78554C16.9206 4.9039 15.9106 4.20227 14.7914 3.72336C13.6722 3.24444 12.4673 2.99825 11.25 2.99976C6.28125 2.99976 2.25 7.03101 2.25 11.9998C2.25 16.9685 6.28125 20.9998 11.25 20.9998C13.1114 20.9996 14.927 20.4226 16.447 19.3481C17.967 18.2737 19.1166 16.7545 19.7377 14.9998"
          stroke="#1F1D25" strokeWidth="2" stroke-miterlimit="10" strokeLinecap="round"/>
    <path d="M21.7497 4.56642V9.74986C21.7497 9.94877 21.6707 10.1395 21.53 10.2802C21.3894 10.4208 21.1986 10.4999 20.9997 10.4999H15.8162C15.1478 10.4999 14.8131 9.6922 15.2856 9.2197L20.4695 4.03579C20.942 3.56236 21.7497 3.89798 21.7497 4.56642Z"
          fill="#1F1D25"/>
</svg>
