<svg width="24" height="24" viewBox="0 0 24 24" fill="none" xmlns="http://www.w3.org/2000/svg">
    <path d="M16.7611 10.497C17.2539 10.4983 17.742 10.4019 18.1973 10.2133C18.6525 10.0247 19.0659 9.74765 19.4133 9.3982L23.0227 5.79117C23.3081 5.5057 23.3344 5.04117 23.0625 4.74164C22.9943 4.66639 22.9114 4.60579 22.8191 4.56351C22.7267 4.52124 22.6267 4.49817 22.5251 4.49572C22.4235 4.49326 22.3225 4.51147 22.2282 4.54923C22.1339 4.58699 22.0482 4.64352 21.9764 4.71539L18.7594 7.93008C18.6514 8.03796 18.505 8.09856 18.3523 8.09856C18.1996 8.09856 18.0532 8.03796 17.9452 7.93008C17.7206 7.70602 17.7328 7.32727 17.9569 7.1032L21.1599 3.90024C21.2317 3.82843 21.2881 3.7428 21.3258 3.64853C21.3636 3.55426 21.3817 3.45331 21.3793 3.3518C21.3768 3.25029 21.3538 3.15034 21.3116 3.058C21.2693 2.96566 21.2088 2.88286 21.1336 2.81461C20.9979 2.6915 20.8209 2.62376 20.6377 2.62477C20.43 2.62491 20.2309 2.70753 20.0841 2.85445L16.8839 6.05414C16.7759 6.16203 16.6295 6.22263 16.4768 6.22263C16.3241 6.22263 16.1777 6.16203 16.0697 6.05414C15.8456 5.83008 15.8574 5.45133 16.0814 5.22727L19.2844 2.02524C19.3562 1.95343 19.4127 1.8678 19.4504 1.77353C19.4881 1.67926 19.5063 1.57831 19.5038 1.4768C19.5014 1.37529 19.4783 1.27534 19.4361 1.183C19.3939 1.09066 19.3333 1.00786 19.2581 0.939611C19.1224 0.816499 18.9454 0.748759 18.7622 0.749767C18.5545 0.750013 18.3555 0.832615 18.2086 0.979454L14.6016 4.58649C14.2521 4.934 13.975 5.3474 13.7864 5.80273C13.5978 6.25807 13.5014 6.74629 13.5028 7.23914V7.62492C13.5029 7.72356 13.4835 7.82123 13.4458 7.91237C13.4081 8.0035 13.3528 8.0863 13.283 8.15602L11.6138 9.8257C11.5964 9.84314 11.5757 9.85697 11.5529 9.8664C11.5301 9.87584 11.5058 9.8807 11.4811 9.8807C11.4565 9.8807 11.4321 9.87584 11.4093 9.8664C11.3865 9.85697 11.3659 9.84314 11.3485 9.8257L3.22595 1.70274C3.08577 1.56239 2.89568 1.48329 2.69732 1.48277C2.49895 1.48224 2.30845 1.56032 2.16752 1.69992C1.45736 2.40352 1.07814 3.3968 1.07814 4.57195C1.07345 6.51258 2.09345 8.74383 3.74017 10.3882L7.74564 14.3937C8.31494 14.9618 9.08635 15.2809 9.89064 15.281C10.147 15.2811 10.4024 15.2484 10.6505 15.1835C10.7128 15.1672 10.7769 15.1589 10.8413 15.1587C11.0295 15.1587 11.2109 15.2299 11.3489 15.3579L11.8828 15.851C12.0205 15.9917 12.0979 16.1806 12.0985 16.3774V16.6371C12.0971 17.2275 12.3291 17.7944 12.7439 18.2145L16.965 22.5068L16.9692 22.5115C17.4377 22.9799 18.0731 23.2431 18.7357 23.243C19.3982 23.243 20.0335 22.9798 20.502 22.5113C20.9704 22.0428 21.2336 21.4074 21.2335 20.7448C21.2335 20.0823 20.9702 19.447 20.5017 18.9785L14.1745 12.6513C14.1571 12.6339 14.1433 12.6132 14.1338 12.5905C14.1244 12.5677 14.1196 12.5433 14.1196 12.5187C14.1196 12.494 14.1244 12.4696 14.1338 12.4469C14.1433 12.4241 14.1571 12.4034 14.1745 12.386L15.8438 10.7168C15.9134 10.6471 15.9962 10.5918 16.0872 10.5541C16.1782 10.5163 16.2758 10.4969 16.3744 10.497H16.7611Z"
          fill="#1F1D25"/>
    <path d="M9.89027 16.7812C8.6895 16.7787 7.53811 16.3029 6.6859 15.457L6.03621 14.8073C5.96591 14.7371 5.87067 14.6978 5.77137 14.6978C5.67207 14.6978 5.57682 14.7371 5.50652 14.8073L1.52215 18.771C0.811992 19.4812 0.558398 20.5265 0.90996 21.5502C0.929637 21.6079 0.952965 21.6643 0.979804 21.719C1.45277 22.6874 2.37059 23.2499 3.37465 23.2499C3.71995 23.2508 4.06198 23.1831 4.38094 23.0508C4.69989 22.9185 4.98943 22.7243 5.23277 22.4793L10.5465 17.1402C10.5689 17.1174 10.586 17.09 10.5967 17.0599C10.6074 17.0298 10.6114 16.9977 10.6084 16.9659V16.9537C10.6063 16.9244 10.5983 16.8959 10.5849 16.8699C10.5715 16.8438 10.553 16.8207 10.5304 16.802C10.5079 16.7833 10.4818 16.7694 10.4537 16.7611C10.4256 16.7527 10.3961 16.7501 10.367 16.7535C10.2087 16.7711 10.0496 16.7803 9.89027 16.7812V16.7812Z"
          fill="#1F1D25"/>
</svg>
