<svg width="24" height="24" viewBox="0 0 24 24" fill="none" xmlns="http://www.w3.org/2000/svg">
    <path d="M12.6099 15.7317C12.4121 15.7463 12.2124 15.7537 12.0108 15.7537C11.7656 15.7537 11.5233 15.7424 11.2838 15.7213C10.0988 15.6163 8.95053 15.2564 7.91761 14.6663C6.88468 14.0761 5.9915 13.2697 5.29924 12.3023C5.28101 12.2763 5.25646 12.2553 5.22792 12.2414C5.19937 12.2275 5.16775 12.221 5.13603 12.2227C5.10431 12.2243 5.07352 12.234 5.04656 12.2508C5.0196 12.2676 4.99735 12.2909 4.9819 12.3187L1.6069 18.3843C1.47846 18.6187 1.4583 18.8999 1.59377 19.1287C1.66429 19.2421 1.76253 19.3357 1.87923 19.4007C1.99593 19.4656 2.12725 19.4998 2.2608 19.4999H5.91705C6.04441 19.4952 6.17073 19.5246 6.28296 19.585C6.39519 19.6454 6.48927 19.7346 6.55549 19.8435L8.36768 22.8749C8.43399 22.9874 8.52809 23.081 8.64095 23.1466C8.75381 23.2123 8.88165 23.2479 9.01221 23.2499C9.29065 23.2345 9.57893 23.0535 9.69471 22.7999L12.7936 15.996C12.807 15.9665 12.8125 15.934 12.8095 15.9016C12.8066 15.8693 12.7953 15.8383 12.7768 15.8117C12.7582 15.7851 12.7331 15.7637 12.7039 15.7496C12.6746 15.7356 12.6422 15.7294 12.6099 15.7317V15.7317Z"
          fill="#1F1D25"/>
    <path d="M22.3889 18.3697L19.0359 12.3149C19.0205 12.2874 18.9983 12.2643 18.9715 12.2477C18.9447 12.231 18.9141 12.2214 18.8826 12.2197C18.8511 12.2181 18.8197 12.2244 18.7913 12.238C18.7629 12.2517 18.7383 12.2724 18.72 12.298C17.7979 13.59 16.5237 14.5894 15.0492 15.1771C14.8682 15.2484 14.7217 15.387 14.6405 15.5638L12.9127 19.3654C12.8904 19.4139 12.8789 19.4667 12.8789 19.5201C12.8789 19.5734 12.8904 19.6262 12.9127 19.6747L14.3316 22.7961C14.4464 23.0497 14.7342 23.2349 15.0122 23.2504C15.1429 23.2471 15.2705 23.2105 15.3829 23.1438C15.4954 23.0772 15.5888 22.9828 15.6544 22.8697L17.4605 19.8426C17.596 19.6152 17.8416 19.499 18.1064 19.5004H21.7988C22.1114 19.5004 22.3481 19.3372 22.455 19.0316C22.4926 18.9231 22.5061 18.8077 22.4947 18.6934C22.4833 18.5791 22.4472 18.4687 22.3889 18.3697V18.3697Z"
          fill="#1F1D25"/>
    <path d="M12.0122 9.75C13.2551 9.75 14.2627 8.74264 14.2627 7.5C14.2627 6.25736 13.2551 5.25 12.0122 5.25C10.7693 5.25 9.76172 6.25736 9.76172 7.5C9.76172 8.74264 10.7693 9.75 12.0122 9.75Z"
          fill="#1F1D25"/>
    <path d="M12.0117 0.75C8.28891 0.75 5.26172 3.77766 5.26172 7.5C5.26172 11.2223 8.29031 14.25 12.0117 14.25C15.7331 14.25 18.7617 11.2219 18.7617 7.5C18.7617 3.77812 15.7341 0.75 12.0117 0.75ZM12.0117 11.25C11.27 11.25 10.545 11.0301 9.92833 10.618C9.31165 10.206 8.831 9.62029 8.54717 8.93506C8.26334 8.24984 8.18908 7.49584 8.33377 6.76841C8.47847 6.04098 8.83562 5.3728 9.36007 4.84835C9.88451 4.3239 10.5527 3.96675 11.2801 3.82206C12.0076 3.67736 12.7616 3.75162 13.4468 4.03545C14.132 4.31928 14.7177 4.79993 15.1297 5.41661C15.5418 6.0333 15.7617 6.75832 15.7617 7.5C15.7605 8.49418 15.365 9.44729 14.662 10.1503C13.959 10.8533 13.0059 11.2488 12.0117 11.25V11.25Z"
          fill="#1F1D25"/>
</svg>
