<svg width="24" height="24" viewBox="0 0 24 24" fill="none" xmlns="http://www.w3.org/2000/svg">
    <path d="M15.4145 7.34937C15.125 7.34953 14.8446 7.45004 14.621 7.63377C14.3973 7.81751 14.2443 8.0731 14.188 8.35701C14.1317 8.64092 14.1755 8.93557 14.3121 9.19076C14.4486 9.44596 14.6695 9.64591 14.9369 9.75655C15.2044 9.86719 15.5019 9.88167 15.7789 9.79752C16.0558 9.71338 16.295 9.53582 16.4557 9.29509C16.6164 9.05436 16.6887 8.76536 16.6602 8.47733C16.6317 8.18929 16.5042 7.92005 16.2995 7.71546C16.1834 7.59912 16.0454 7.50688 15.8935 7.44406C15.7416 7.38123 15.5788 7.34905 15.4145 7.34937V7.34937Z"
          fill="#1F1D25"/>
    <path d="M22.3802 2.34694C22.38 2.34555 22.38 2.34412 22.3802 2.34273C22.3406 2.16897 22.2531 2.00974 22.1278 1.88302C22.0025 1.7563 21.8443 1.66712 21.671 1.62554C20.2741 1.28476 18.0766 1.64804 15.6414 2.62304C13.1871 3.60741 10.8874 5.06054 9.33301 6.61773C8.83479 7.11329 8.37194 7.64319 7.94785 8.20351C6.90113 8.15663 5.9791 8.30569 5.20238 8.6446C2.49582 9.83569 1.72285 12.884 1.51707 14.1355C1.48729 14.3134 1.49895 14.4957 1.55114 14.6683C1.60333 14.8408 1.69464 14.9991 1.81796 15.1306C1.94129 15.2621 2.0933 15.3634 2.26217 15.4266C2.43105 15.4898 2.61222 15.5132 2.7916 15.4949H2.79769L5.81269 15.1659C5.81644 15.2043 5.82066 15.2394 5.82394 15.2718C5.86267 15.6392 6.02651 15.9821 6.28801 16.243L7.75941 17.7154C8.01997 17.9772 8.36281 18.1413 8.73019 18.1799L8.83097 18.1907L8.50285 21.2019C8.50285 21.2019 8.50285 21.2057 8.50285 21.208C8.48608 21.3702 8.50334 21.5341 8.55352 21.6892C8.6037 21.8444 8.68569 21.9873 8.79427 22.1089C8.90284 22.2306 9.0356 22.3282 9.18406 22.3956C9.33252 22.463 9.49341 22.4987 9.65644 22.5004C9.72161 22.5004 9.78668 22.4951 9.85097 22.4844C11.1096 22.2819 14.1564 21.5183 15.3443 18.7973C15.6803 18.0257 15.8289 17.1074 15.7872 16.0626C16.3501 15.6394 16.8819 15.1765 17.3786 14.6774C18.9457 13.1183 20.4035 10.8374 21.3775 8.41866C22.3474 6.01116 22.7125 3.79726 22.3802 2.34694ZM17.3618 10.5444C16.9766 10.93 16.4857 11.1927 15.9513 11.2992C15.4168 11.4057 14.8628 11.3513 14.3592 11.1429C13.8557 10.9345 13.4252 10.5814 13.1224 10.1283C12.8196 9.6752 12.6579 9.14247 12.6579 8.59749C12.6579 8.05251 12.8196 7.51978 13.1224 7.06668C13.4252 6.61359 13.8557 6.2605 14.3592 6.05207C14.8628 5.84365 15.4168 5.78926 15.9513 5.89579C16.4857 6.00232 16.9766 6.26498 17.3618 6.65054C17.6199 6.90482 17.8249 7.2079 17.9649 7.54215C18.1048 7.87639 18.1769 8.23513 18.1769 8.59749C18.1769 8.95985 18.1048 9.31859 17.9649 9.65284C17.8249 9.98708 17.6199 10.2902 17.3618 10.5444V10.5444Z"
          fill="#1F1D25"/>
    <path d="M7.59072 18.1146C7.40933 18.0921 7.22597 18.1366 7.07509 18.2397C6.77556 18.4446 6.47462 18.6471 6.17087 18.8444C5.55634 19.2438 4.82134 18.5425 5.1865 17.9069L5.75603 16.9225C5.83745 16.8034 5.88279 16.6633 5.88661 16.5191C5.89043 16.3749 5.85256 16.2326 5.77755 16.1094C5.70254 15.9861 5.59357 15.8871 5.46371 15.8242C5.33385 15.7614 5.18861 15.7373 5.0454 15.7549C4.41329 15.8348 3.82573 16.1227 3.37525 16.5733C3.20368 16.7453 2.68197 17.2675 2.40118 19.2574C2.32126 19.8289 2.27088 20.4042 2.25025 20.981C2.24768 21.0811 2.26518 21.1807 2.30172 21.2739C2.33827 21.3671 2.3931 21.4521 2.463 21.5238C2.53291 21.5955 2.61645 21.6524 2.70872 21.6913C2.80099 21.7302 2.90012 21.7502 3.00025 21.7502H3.019C3.59619 21.7297 4.17194 21.6797 4.744 21.6002C6.73478 21.3189 7.25697 20.7967 7.42853 20.6252C7.88119 20.1745 8.16843 19.5842 8.24368 18.9499C8.26778 18.7525 8.21254 18.5537 8.0901 18.3971C7.96766 18.2404 7.78804 18.1388 7.59072 18.1146Z"
          fill="#1F1D25"/>
</svg>
