<svg width="24" height="24" viewBox="0 0 24 24" fill="none" xmlns="http://www.w3.org/2000/svg">
    <path d="M20.1352 5.60109C20.0526 5.46973 19.9314 5.36718 19.7882 5.30757C19.645 5.24797 19.4868 5.23424 19.3355 5.26828C18.4617 5.46469 17.5983 5.69015 16.77 5.93484C15.1266 6.42187 13.5202 7.05609 11.7145 7.93125C10.8417 8.35547 10.4958 8.55703 9.46453 9.15609L9.25359 9.28125C7.70906 10.1719 6.5775 11.1562 5.79469 12.2948C4.93547 13.5417 4.5 15 4.5 16.6237C4.5 18.5334 5.23641 20.2378 6.57375 21.4223C7.92188 22.6181 9.79969 23.25 12 23.25C14.1919 23.25 16.073 22.5783 17.4375 21.308C18.7664 20.0728 19.5 18.3366 19.5 16.4194C19.5 15.2475 19.2098 14.2162 18.9295 13.2216C18.3394 11.1267 17.8298 9.31734 20.0878 6.46547C20.1841 6.34395 20.2403 6.19559 20.2488 6.0408C20.2573 5.88601 20.2176 5.7324 20.1352 5.60109V5.60109Z"
          fill="#1F1D25"/>
    <path d="M10.2653 5.60398C7.89628 4.31632 4.75565 3.78241 4.62299 3.76038C4.4504 3.73207 4.27333 3.76497 4.12243 3.85339C3.97152 3.94181 3.85626 4.08019 3.79659 4.2446C3.75027 4.37973 3.74236 4.52506 3.77372 4.66443C3.80509 4.80379 3.8745 4.93172 3.97424 5.03398C5.46674 6.61741 5.51456 8.25851 5.31721 9.93851C5.31207 9.98177 5.32061 10.0256 5.34163 10.0637C5.36265 10.1019 5.39509 10.1325 5.4344 10.1513V10.1513C5.47354 10.17 5.51753 10.1759 5.56022 10.1684C5.60291 10.1608 5.64217 10.1401 5.67253 10.1091C6.44081 9.33523 7.37737 8.63163 8.50378 7.98148L8.71378 7.8596C9.74971 7.25632 10.1355 7.03132 11.0622 6.58179L11.1883 6.52085C11.2175 6.50685 11.2426 6.48554 11.2611 6.45897C11.2796 6.43241 11.2909 6.4015 11.2939 6.36927C11.297 6.33703 11.2916 6.30456 11.2783 6.27502C11.2651 6.24548 11.2444 6.21987 11.2183 6.20069C10.9144 5.98066 10.596 5.7813 10.2653 5.60398V5.60398Z"
          fill="#1F1D25"/>
    <path d="M10.9808 4.28672C11.1421 4.37437 11.3132 4.47422 11.4918 4.58156C11.987 4.88519 12.4513 5.23672 12.8779 5.63109C12.9043 5.65574 12.9373 5.67222 12.9729 5.67854C13.0085 5.68486 13.0452 5.68075 13.0785 5.66672C14.1444 5.21642 15.2344 4.82521 16.3433 4.49484C16.5621 4.43016 16.7821 4.36766 17.0033 4.30734C17.0299 4.30003 17.0546 4.28693 17.0756 4.26898C17.0965 4.25104 17.1133 4.22868 17.1246 4.20352C17.1359 4.17836 17.1416 4.15101 17.1411 4.12342C17.1406 4.09582 17.1341 4.06868 17.1219 4.04391C16.7343 3.255 16.4343 2.68922 16.4118 2.6475C16.3479 2.52746 16.2525 2.42706 16.1359 2.35704C16.0193 2.28702 15.8859 2.25002 15.7499 2.25C15.6604 2.25 14.1899 2.26688 12.1466 3.24844C11.7223 3.45272 11.3094 3.67977 10.9096 3.92859C10.8814 3.9459 10.8584 3.97034 10.8427 3.99942C10.8271 4.02851 10.8194 4.06122 10.8204 4.09424C10.8215 4.12726 10.8312 4.15941 10.8487 4.18745C10.8661 4.21549 10.8907 4.23842 10.9199 4.25391L10.9808 4.28672Z"
          fill="#1F1D25"/>
    <path d="M9.81219 2.84966C10.1544 2.62607 10.5031 2.41747 10.8552 2.22575C10.869 2.21824 10.8807 2.20737 10.8892 2.19414C10.8977 2.18092 10.9027 2.16577 10.9039 2.15008C10.905 2.13439 10.9021 2.11868 10.8956 2.10438C10.8891 2.09008 10.879 2.07766 10.8664 2.06825C9.64766 1.15091 8.53532 0.802628 8.46876 0.78294C8.3202 0.737577 8.16121 0.739459 8.01377 0.788327C7.86633 0.837196 7.73769 0.930639 7.64563 1.05575C7.30106 1.53461 6.99868 2.04245 6.74188 2.57357C6.73582 2.58603 6.73259 2.59968 6.73243 2.61354C6.73227 2.6274 6.73519 2.64113 6.74097 2.65372C6.74675 2.66632 6.75526 2.67748 6.76587 2.6864C6.77649 2.69531 6.78895 2.70176 6.80235 2.70528C7.44032 2.87263 8.18048 3.09388 8.94032 3.37513C8.95406 3.38024 8.96881 3.38205 8.98339 3.38042C8.99796 3.37879 9.01195 3.37377 9.02422 3.36575L9.81219 2.84966Z"
          fill="#1F1D25"/>
</svg>
