<svg width="24" height="24" viewBox="0 0 24 24" fill="none" xmlns="http://www.w3.org/2000/svg">
    <path d="M19.4249 4.57564C18.4517 3.59275 17.2938 2.81184 16.0178 2.27779C14.7419 1.74374 13.3729 1.46706 11.9897 1.46365C10.6065 1.46025 9.23622 1.73018 7.95763 2.25795C6.67904 2.78572 5.51734 3.56091 4.53925 4.539C3.56116 5.51709 2.78596 6.6788 2.25819 7.95739C1.73043 9.23597 1.46049 10.6062 1.4639 11.9895C1.4673 13.3727 1.74398 14.7416 2.27803 16.0176C2.81209 17.2936 3.59299 18.4514 4.57588 19.4247C5.54915 20.4076 6.70703 21.1885 7.983 21.7226C9.25897 22.2566 10.6279 22.5333 12.0111 22.5367C13.3943 22.5401 14.7646 22.2702 16.0432 21.7424C17.3218 21.2146 18.4835 20.4394 19.4616 19.4613C20.4397 18.4832 21.2149 17.3215 21.7426 16.043C22.2704 14.7644 22.5403 13.3941 22.5369 12.0109C22.5335 10.6277 22.2569 9.25873 21.7228 7.98276C21.1887 6.70678 20.4078 5.5489 19.4249 4.57564V4.57564ZM8.62541 9.75017C8.84792 9.75017 9.06543 9.81615 9.25043 9.93977C9.43544 10.0634 9.57963 10.2391 9.66478 10.4447C9.74993 10.6502 9.77221 10.8764 9.7288 11.0946C9.68539 11.3129 9.57824 11.5133 9.42091 11.6707C9.26358 11.828 9.06312 11.9351 8.84489 11.9786C8.62666 12.022 8.40046 11.9997 8.1949 11.9145C7.98933 11.8294 7.81363 11.6852 7.69001 11.5002C7.56639 11.3152 7.50041 11.0977 7.50041 10.8752C7.50004 10.7273 7.52889 10.5809 7.58529 10.4442C7.6417 10.3076 7.72455 10.1834 7.82909 10.0788C7.93363 9.97431 8.0578 9.89146 8.19446 9.83505C8.33112 9.77865 8.47757 9.7498 8.62541 9.75017V9.75017ZM7.51588 16.7735C8.07838 14.8844 9.86901 13.5002 11.9981 13.5002C14.1271 13.5002 15.9178 14.8844 16.4845 16.7735C16.5003 16.8297 16.5028 16.8888 16.4918 16.9462C16.4807 17.0035 16.4564 17.0575 16.4208 17.1038C16.3852 17.1501 16.3393 17.1874 16.2867 17.2129C16.2341 17.2383 16.1763 17.251 16.1179 17.2502H7.88245C7.82404 17.251 7.76625 17.2383 7.71366 17.2129C7.66107 17.1874 7.61514 17.1501 7.57953 17.1038C7.54393 17.0575 7.51964 17.0035 7.50859 16.9462C7.49753 16.8888 7.50003 16.8297 7.51588 16.7735ZM15.3754 12.0002C15.1529 12.0002 14.9354 11.9342 14.7504 11.8106C14.5654 11.687 14.4212 11.5113 14.3361 11.3057C14.2509 11.1001 14.2286 10.8739 14.272 10.6557C14.3154 10.4375 14.4226 10.237 14.5799 10.0797C14.7373 9.92234 14.9377 9.8152 15.1559 9.77179C15.3742 9.72838 15.6004 9.75066 15.8059 9.83581C16.0115 9.92095 16.1872 10.0651 16.3108 10.2502C16.4344 10.4352 16.5004 10.6527 16.5004 10.8752C16.5008 11.023 16.4719 11.1695 16.4155 11.3061C16.3591 11.4428 16.2763 11.567 16.1717 11.6715C16.0672 11.776 15.943 11.8589 15.8064 11.9153C15.6697 11.9717 15.5233 12.0005 15.3754 12.0002V12.0002Z"
          fill="#1F1D25"/>
</svg>
