<svg width="24" height="24" viewBox="0 0 24 24" fill="none" xmlns="http://www.w3.org/2000/svg">
    <path d="M21.8409 5.61351L18.3862 2.15883C18.1778 1.94922 17.9299 1.78305 17.6568 1.66992C17.3837 1.55679 17.0909 1.49896 16.7953 1.49976H4.5C3.70435 1.49976 2.94129 1.81583 2.37868 2.37844C1.81607 2.94105 1.5 3.70411 1.5 4.49976V19.4998C1.5 20.2954 1.81607 21.0585 2.37868 21.6211C2.94129 22.1837 3.70435 22.4998 4.5 22.4998H19.5C20.2956 22.4998 21.0587 22.1837 21.6213 21.6211C22.1839 21.0585 22.5 20.2954 22.5 19.4998V7.20445C22.5008 6.90886 22.443 6.61605 22.3298 6.34296C22.2167 6.06987 22.0505 5.82194 21.8409 5.61351V5.61351ZM5.625 5.24976H13.875C13.9745 5.24976 14.0698 5.28927 14.1402 5.3596C14.2105 5.42992 14.25 5.52531 14.25 5.62476V7.87476C14.25 7.97422 14.2105 8.0696 14.1402 8.13993C14.0698 8.21026 13.9745 8.24976 13.875 8.24976H5.625C5.52554 8.24976 5.43016 8.21026 5.35983 8.13993C5.28951 8.0696 5.25 7.97422 5.25 7.87476V5.62476C5.25 5.52531 5.28951 5.42992 5.35983 5.3596C5.43016 5.28927 5.52554 5.24976 5.625 5.24976V5.24976ZM12.1758 20.2455C11.4199 20.281 10.671 20.087 10.0275 19.689C9.38395 19.2911 8.87586 18.7077 8.56997 18.0156C8.26409 17.3235 8.17473 16.5551 8.31363 15.8113C8.45254 15.0675 8.81321 14.3831 9.34826 13.848C9.8833 13.313 10.5677 12.9523 11.3115 12.8134C12.0553 12.6745 12.8238 12.7639 13.5158 13.0697C14.2079 13.3756 14.7913 13.8837 15.1893 14.5273C15.5873 15.1708 15.7813 15.9197 15.7458 16.6755C15.7014 17.608 15.311 18.4905 14.6509 19.1506C13.9907 19.8107 13.1083 20.2011 12.1758 20.2455V20.2455Z"
          fill="#1F1D25"/>
    <path d="M12 18.75C13.2426 18.75 14.25 17.7426 14.25 16.5C14.25 15.2574 13.2426 14.25 12 14.25C10.7574 14.25 9.75 15.2574 9.75 16.5C9.75 17.7426 10.7574 18.75 12 18.75Z"
          fill="#1F1D25"/>
</svg>
