<svg width="24" height="24" viewBox="0 0 24 24" fill="none" xmlns="http://www.w3.org/2000/svg">
    <path d="M12 17.2501C11.8694 17.2501 11.7412 17.216 11.6278 17.1512L5.0625 13.3989C5.00545 13.3659 4.94074 13.3486 4.87486 13.3486C4.80899 13.3487 4.74428 13.366 4.68726 13.399C4.63024 13.432 4.58291 13.4794 4.55003 13.5365C4.51716 13.5936 4.4999 13.6583 4.5 13.7242V17.2501C4.49989 17.384 4.53561 17.5154 4.60344 17.6308C4.67128 17.7462 4.76877 17.8414 4.88578 17.9064L11.6358 21.6564C11.7472 21.7183 11.8725 21.7507 12 21.7507C12.1275 21.7507 12.2528 21.7183 12.3642 21.6564L19.1142 17.9064C19.2312 17.8414 19.3287 17.7462 19.3966 17.6308C19.4644 17.5154 19.5001 17.384 19.5 17.2501V13.7242C19.5001 13.6583 19.4828 13.5936 19.45 13.5365C19.4171 13.4794 19.3698 13.432 19.3127 13.399C19.2557 13.366 19.191 13.3487 19.1251 13.3486C19.0593 13.3486 18.9945 13.3659 18.9375 13.3989L12.3722 17.1512C12.2588 17.216 12.1306 17.2501 12 17.2501Z"
          fill="#1F1D25"/>
    <path d="M23.2461 8.92965C23.2461 8.92965 23.2461 8.9259 23.2461 8.92449C23.234 8.80561 23.1937 8.69134 23.1284 8.59122C23.0632 8.49109 22.975 8.408 22.8711 8.34887L12.3711 2.34887C12.2578 2.28408 12.1295 2.25 11.999 2.25C11.8684 2.25 11.7401 2.28408 11.6268 2.34887L1.12676 8.34887C1.01201 8.41448 0.916631 8.50925 0.850296 8.62359C0.783961 8.73793 0.749023 8.86777 0.749023 8.99996C0.749023 9.13215 0.783961 9.26199 0.850296 9.37633C0.916631 9.49067 1.01201 9.58544 1.12676 9.65105L11.6268 15.6511C11.7401 15.7158 11.8684 15.7499 11.999 15.7499C12.1295 15.7499 12.2578 15.7158 12.3711 15.6511L21.6093 10.3725C21.6235 10.3642 21.6397 10.3599 21.6562 10.3599C21.6727 10.3599 21.6889 10.3643 21.7032 10.3726C21.7174 10.3808 21.7293 10.3927 21.7375 10.407C21.7457 10.4213 21.75 10.4375 21.7499 10.454V17.2289C21.7499 17.6325 22.0602 17.9789 22.4638 17.999C22.5652 18.0039 22.6665 17.9882 22.7617 17.9527C22.8568 17.9173 22.9438 17.8629 23.0173 17.7929C23.0908 17.7228 23.1493 17.6386 23.1893 17.5453C23.2293 17.4519 23.2499 17.3515 23.2499 17.25V8.99996C23.2498 8.97647 23.2486 8.95301 23.2461 8.92965V8.92965Z"
          fill="#1F1D25"/>
</svg>
