<svg width="24" height="24" viewBox="0 0 24 24" fill="none" xmlns="http://www.w3.org/2000/svg">
    <path d="M12 20.064C9.54609 20.064 6.77859 19.5197 4.59703 18.6108C3.79688 18.2738 3.11156 17.7286 2.55141 17.2983C2.52362 17.2771 2.49044 17.264 2.45562 17.2606C2.42081 17.2573 2.38574 17.2637 2.35438 17.2792C2.32302 17.2947 2.29663 17.3187 2.27818 17.3484C2.25974 17.3781 2.24998 17.4124 2.25 17.4474V18.0371C2.25 19.3529 3.35109 20.5318 5.35031 21.3568C7.13859 22.095 9.50016 22.5014 12 22.5014C14.4998 22.5014 16.8609 22.095 18.6497 21.3568C20.6489 20.5327 21.75 19.3529 21.75 18.0371V17.4474C21.75 17.4124 21.7403 17.3781 21.7218 17.3484C21.7034 17.3187 21.677 17.2947 21.6456 17.2792C21.6143 17.2637 21.5792 17.2573 21.5444 17.2606C21.5096 17.264 21.4764 17.2771 21.4486 17.2983C20.8884 17.7282 20.2031 18.2738 19.4025 18.6108C17.2209 19.5197 14.4539 20.064 12 20.064Z"
          fill="#1F1D25"/>
    <path d="M21.75 5.93016C21.712 4.63406 20.6166 3.47391 18.6562 2.65594C16.8628 1.91063 14.5003 1.5 12 1.5C9.49969 1.5 7.13719 1.91063 5.34797 2.65594C3.38953 3.47203 2.29406 4.62984 2.25422 5.92266L2.25 6.75C2.25 7.05047 2.49375 7.5225 2.93578 7.90922C3.4575 8.36531 4.23188 8.81531 5.17547 9.20906C7.18313 10.0481 9.73453 10.5469 12 10.5469C14.2655 10.5469 16.8169 10.0462 18.8245 9.20719C19.7681 8.81344 20.5425 8.36344 21.0642 7.90734C21.5062 7.52297 21.75 7.05094 21.75 6.75V5.93016Z"
          fill="#1F1D25"/>
    <path d="M19.4025 10.595C17.2214 11.5058 14.4539 12.0481 12 12.0481C9.5461 12.0481 6.7786 11.5058 4.59704 10.595C3.79689 10.2598 3.11157 9.71419 2.55142 9.28247C2.5235 9.26112 2.49015 9.24804 2.45517 9.24473C2.42018 9.24142 2.38497 9.24801 2.35354 9.26374C2.32212 9.27948 2.29575 9.30373 2.27745 9.33373C2.25914 9.36373 2.24963 9.39827 2.25001 9.43341V10.8762C2.25001 11.1767 2.49376 11.555 2.93579 11.9417C3.45751 12.3983 4.23189 12.8478 5.17548 13.242C7.18314 14.0797 9.73454 14.5794 12 14.5794C14.2655 14.5794 16.8169 14.0787 18.8245 13.2401C19.7681 12.8459 20.5425 12.3964 21.0642 11.9398C21.5063 11.5545 21.75 11.1767 21.75 10.8762V9.43341C21.75 9.39843 21.7403 9.36414 21.7218 9.33441C21.7034 9.30469 21.677 9.28072 21.6456 9.26521C21.6143 9.2497 21.5792 9.24328 21.5444 9.24666C21.5096 9.25004 21.4764 9.26309 21.4486 9.28434C20.8884 9.71419 20.2031 10.2598 19.4025 10.595Z"
          fill="#1F1D25"/>
    <path d="M19.4025 14.6265C17.2209 15.5363 14.4539 16.0796 12 16.0796C9.5461 16.0796 6.7786 15.5363 4.59703 14.6265C3.79688 14.2904 3.11157 13.7447 2.55141 13.314C2.52356 13.2927 2.49029 13.2796 2.45539 13.2762C2.42049 13.2729 2.38535 13.2794 2.35396 13.295C2.32257 13.3107 2.29619 13.3348 2.27781 13.3646C2.25944 13.3945 2.2498 13.4289 2.25 13.464V14.8608C2.25 15.1613 2.49375 15.5391 2.93532 15.9254C3.45703 16.3819 4.23188 16.8315 5.17547 17.2257C7.18313 18.0633 9.73406 18.564 12 18.564C14.2659 18.564 16.8169 18.0633 18.8245 17.2247C19.7681 16.8305 20.5425 16.381 21.0642 15.9244C21.5063 15.5377 21.75 15.1594 21.75 14.8608V13.464C21.75 13.429 21.7403 13.3947 21.7218 13.365C21.7034 13.3352 21.677 13.3113 21.6456 13.2958C21.6143 13.2803 21.5792 13.2738 21.5444 13.2772C21.5096 13.2806 21.4764 13.2936 21.4486 13.3149C20.8884 13.7447 20.2031 14.2904 19.4025 14.6265Z"
          fill="#1F1D25"/>
</svg>
