<svg width="24" height="24" viewBox="0 0 24 24" fill="none" xmlns="http://www.w3.org/2000/svg">
    <path d="M15.7497 15.7497H1.49972C1.36879 15.75 1.24007 15.716 1.12635 15.6512C1.01264 15.5863 0.917888 15.4927 0.851526 15.3799C0.785165 15.267 0.749504 15.1388 0.748091 15.0078C0.746677 14.8769 0.779559 14.7479 0.843468 14.6336L7.96847 1.88365C8.03354 1.7671 8.12854 1.67003 8.24365 1.60246C8.35877 1.53489 8.48983 1.49927 8.62331 1.49927C8.75679 1.49927 8.88786 1.53489 9.00297 1.60246C9.11809 1.67003 9.21308 1.7671 9.27816 1.88365L16.4032 14.6336C16.4669 14.7477 16.4998 14.8765 16.4985 15.0071C16.4973 15.1378 16.4618 15.2659 16.3958 15.3787C16.3298 15.4915 16.2354 15.585 16.1221 15.6501C16.0088 15.7152 15.8804 15.7495 15.7497 15.7497Z"
          fill="#1F1D25"/>
    <path d="M15.7502 7.5C15.2373 7.49989 14.7257 7.55203 14.2234 7.65563L17.7142 13.9027C17.9055 14.2451 18.004 14.6316 17.9998 15.0238C17.9957 15.416 17.8891 15.8004 17.6906 16.1387C17.4921 16.477 17.2086 16.7575 16.8682 16.9524C16.5278 17.1474 16.1424 17.25 15.7502 17.25H8.59375C9.00958 18.5723 9.78371 19.7534 10.8302 20.6624C11.8767 21.5713 13.1546 22.1724 14.522 22.3991C15.8895 22.6257 17.293 22.469 18.5767 21.9462C19.8605 21.4235 20.9743 20.5552 21.7944 19.4378C22.6146 18.3204 23.1091 16.9976 23.2229 15.6161C23.3368 14.2347 23.0656 12.8488 22.4395 11.6121C21.8134 10.3755 20.8568 9.33659 19.676 8.61069C18.4952 7.8848 17.1363 7.50034 15.7502 7.5Z"
          fill="#1F1D25"/>
</svg>
