<svg width="24" height="24" viewBox="0 0 24 24" fill="none" xmlns="http://www.w3.org/2000/svg">
    <path d="M17.625 8.25H12.75V15.0469C12.75 15.2458 12.671 15.4366 12.5303 15.5772C12.3897 15.7179 12.1989 15.7969 12 15.7969C11.8011 15.7969 11.6103 15.7179 11.4697 15.5772C11.329 15.4366 11.25 15.2458 11.25 15.0469V8.25H6.375C5.67904 8.25074 5.01179 8.52754 4.51967 9.01967C4.02755 9.51179 3.75074 10.179 3.75 10.875V19.875C3.75074 20.571 4.02755 21.2382 4.51967 21.7303C5.01179 22.2225 5.67904 22.4993 6.375 22.5H17.625C18.321 22.4993 18.9882 22.2225 19.4803 21.7303C19.9725 21.2382 20.2493 20.571 20.25 19.875V10.875C20.2493 10.179 19.9725 9.51179 19.4803 9.01967C18.9882 8.52754 18.321 8.25074 17.625 8.25Z"
          fill="#1F1D25"/>
    <path d="M12.7501 4.06043L15.2199 6.52981C15.3617 6.66452 15.5505 6.73852 15.7461 6.73601C15.9417 6.73351 16.1285 6.65471 16.2668 6.51641C16.4051 6.3781 16.4839 6.19125 16.4864 5.99568C16.4889 5.80011 16.4149 5.61129 16.2802 5.4695L12.5302 1.7195C12.3896 1.57895 12.1989 1.5 12.0001 1.5C11.8013 1.5 11.6106 1.57895 11.4699 1.7195L7.71994 5.4695C7.58522 5.61129 7.51123 5.80011 7.51373 5.99568C7.51624 6.19125 7.59504 6.3781 7.73334 6.51641C7.87164 6.65471 8.0585 6.73351 8.25407 6.73601C8.44964 6.73852 8.63845 6.66452 8.78025 6.52981L11.2501 4.06043V8.24965H12.7501V4.06043Z"
          fill="#1F1D25"/>
</svg>
