<svg width="24" height="24" viewBox="0 0 24 24" fill="none" xmlns="http://www.w3.org/2000/svg">
    <path d="M17.9999 15.7503C17.5959 15.7501 17.196 15.8318 16.8244 15.9906C16.4528 16.1493 16.1173 16.3817 15.838 16.6737L8.90054 12.7704C9.03493 12.2658 9.03493 11.7347 8.90054 11.2301L15.838 7.32681C16.3432 7.85057 17.022 8.17216 17.7473 8.23135C18.4726 8.29054 19.1946 8.08326 19.778 7.64835C20.3614 7.21343 20.7662 6.58072 20.9166 5.86875C21.067 5.15678 20.9527 4.41439 20.595 3.78068C20.2373 3.14696 19.6609 2.6654 18.9736 2.4262C18.2864 2.187 17.5355 2.20658 16.8616 2.48127C16.1878 2.75596 15.6372 3.26692 15.3131 3.91841C14.9889 4.56991 14.9134 5.31724 15.1007 6.02041L8.1632 9.92369C7.7488 9.49161 7.2146 9.1934 6.62933 9.06742C6.04405 8.94144 5.43447 8.99346 4.879 9.21678C4.32353 9.44009 3.84758 9.8245 3.51237 10.3205C3.17717 10.8166 2.99805 11.4016 2.99805 12.0003C2.99805 12.5989 3.17717 13.1839 3.51237 13.68C3.84758 14.176 4.32353 14.5604 4.879 14.7837C5.43447 15.007 6.04405 15.0591 6.62933 14.9331C7.2146 14.8071 7.7488 14.5089 8.1632 14.0768L15.1007 17.9801C14.9399 18.5857 14.9726 19.2264 15.1945 19.8124C15.4163 20.3983 15.816 20.9002 16.3376 21.2474C16.8591 21.5946 17.4763 21.7699 18.1025 21.7485C18.7287 21.7271 19.3325 21.5102 19.8291 21.1283C20.3258 20.7463 20.6904 20.2184 20.8717 19.6186C21.0531 19.0189 21.0421 18.3774 20.8404 17.7842C20.6386 17.191 20.2562 16.6759 19.7468 16.3111C19.2373 15.9463 18.6265 15.7502 17.9999 15.7503Z"
          fill="#1F1D25"/>
</svg>
