<svg width="24" height="24" viewBox="0 0 24 24" fill="none" xmlns="http://www.w3.org/2000/svg">
    <path d="M22.4561 5.21988C22.4455 5.05235 22.379 4.89321 22.2672 4.76794C22.1555 4.64267 22.0049 4.55852 21.8397 4.52895C17.785 3.80145 16.0923 3.27551 12.3086 1.56645C12.2115 1.52257 12.1062 1.49988 11.9997 1.49988C11.8931 1.49988 11.7878 1.52257 11.6907 1.56645C7.907 3.27551 6.21434 3.80145 2.15965 4.52895C1.9944 4.55852 1.84385 4.64267 1.7321 4.76794C1.62034 4.89321 1.55384 5.05235 1.54325 5.21988C1.36278 8.08442 1.74762 10.7535 2.6884 13.153C3.4588 15.1103 4.59894 16.9008 6.04653 18.4269C8.55294 21.0861 11.214 22.2411 11.7217 22.4455C11.9021 22.5185 12.1038 22.5185 12.2842 22.4455C12.7918 22.2411 15.4529 21.0861 17.9593 18.4269C19.4046 16.9003 20.5425 15.1097 21.3109 13.153C22.2517 10.7535 22.6365 8.08442 22.4561 5.21988ZM16.3154 8.74067L11.1217 14.7407C11.0549 14.818 10.973 14.8809 10.881 14.9255C10.7891 14.9701 10.6889 14.9954 10.5868 14.9999H10.5559C10.3596 14.9999 10.1711 14.923 10.0309 14.7857L7.72465 12.5263C7.65429 12.4573 7.5982 12.3752 7.55958 12.2846C7.52096 12.194 7.50057 12.0966 7.49957 11.9981C7.49755 11.7992 7.57463 11.6076 7.71387 11.4655C7.85311 11.3234 8.0431 11.2424 8.24203 11.2404C8.44097 11.2384 8.63256 11.3155 8.77465 11.4547L10.509 13.1558L15.1825 7.7591C15.3126 7.60868 15.4972 7.51612 15.6956 7.50179C15.894 7.48746 16.09 7.55253 16.2404 7.6827C16.3909 7.81286 16.4834 7.99745 16.4978 8.19586C16.5121 8.39426 16.447 8.59024 16.3168 8.74067H16.3154Z"
          fill="#1F1D25"/>
</svg>
