<svg width="24" height="24" viewBox="0 0 24 24" fill="none" xmlns="http://www.w3.org/2000/svg">
    <path d="M22.4561 5.21949C22.4456 5.05187 22.3792 4.89262 22.2674 4.76726C22.1557 4.6419 22.0051 4.55768 21.8397 4.52809C17.8071 3.80528 16.1102 3.23996 12.4685 1.60121C12.1047 1.46574 11.8793 1.46809 11.531 1.60121C7.88926 3.24184 6.19238 3.80434 2.15973 4.52809C1.9944 4.55768 1.8438 4.6419 1.73203 4.76726C1.62027 4.89262 1.55382 5.05187 1.54332 5.21949C1.36285 8.08356 1.74676 10.7507 2.6852 13.1484C3.45255 15.1035 4.58936 16.8925 6.03348 18.4176C8.12738 20.6409 10.4491 21.9389 11.6463 22.4301C11.8733 22.5227 12.1276 22.5227 12.3546 22.4301C13.6202 21.9182 15.8557 20.6573 17.966 18.4167C19.41 16.8919 20.5468 15.1032 21.3143 13.1484C22.2527 10.7512 22.6366 8.08356 22.4561 5.21949Z"
          fill="#1F1D25"/>
</svg>
