<svg width="24" height="24" viewBox="0 0 24 24" fill="none" xmlns="http://www.w3.org/2000/svg">
    <path d="M12.0004 4.5C13.551 4.5 14.8462 3.29156 15.0004 1.78125C15.0145 1.64062 14.8598 1.5 14.7192 1.5C14.6431 1.50008 14.5677 1.51438 14.497 1.54219C14.4876 1.54594 13.5079 1.92188 12.0004 1.92188C10.4929 1.92188 9.51135 1.54688 9.50385 1.54219C9.42397 1.5144 9.34 1.50014 9.25542 1.5H9.2526C9.21756 1.50186 9.18323 1.51061 9.15157 1.52576C9.11992 1.54091 9.09157 1.56216 9.06814 1.58829C9.04471 1.61441 9.02667 1.64491 9.01505 1.67802C9.00343 1.71113 8.99846 1.74621 9.00042 1.78125C9.15745 3.28875 10.4535 4.5 12.0004 4.5Z"
          fill="#1F1D25"/>
    <path d="M22.7481 4.21424L16.6877 2.09268C16.6617 2.08363 16.6341 2.08039 16.6068 2.08319C16.5794 2.086 16.553 2.09477 16.5295 2.10891C16.5059 2.12304 16.4857 2.14218 16.4704 2.16497C16.455 2.18777 16.4449 2.21365 16.4406 2.24081C16.2653 3.29131 15.723 4.24557 14.9103 4.93388C14.0976 5.62219 13.0671 5.99994 12.002 5.99994C10.937 5.99994 9.90649 5.62219 9.09377 4.93388C8.28104 4.24557 7.73879 3.29131 7.56345 2.24081C7.55933 2.2132 7.54911 2.18686 7.53352 2.16371C7.51794 2.14056 7.49738 2.12118 7.47335 2.10699C7.44932 2.0928 7.42242 2.08415 7.39462 2.08167C7.36683 2.0792 7.33883 2.08296 7.31267 2.09268L1.2522 4.21424C1.08257 4.27362 0.939903 4.39194 0.850171 4.54766C0.76044 4.70338 0.729609 4.88614 0.76329 5.06268L1.54282 9.18768C1.57282 9.34491 1.65234 9.48841 1.76974 9.59721C1.88714 9.70601 2.03627 9.7744 2.19532 9.79237L4.48657 10.0511C4.5801 10.0617 4.66625 10.107 4.7279 10.1781C4.78956 10.2492 4.82221 10.3409 4.81938 10.435L4.47579 21.7272C4.47124 21.8727 4.50914 22.0165 4.58489 22.1408C4.66064 22.2652 4.77095 22.3648 4.90235 22.4275C5.01159 22.4769 5.13031 22.5017 5.25017 22.5002H18.7502C18.87 22.5017 18.9887 22.4769 19.098 22.4275C19.2294 22.3648 19.3397 22.2652 19.4154 22.1408C19.4912 22.0165 19.5291 21.8727 19.5245 21.7272L19.1809 10.435C19.1781 10.3409 19.2108 10.2492 19.2724 10.1781C19.3341 10.107 19.4202 10.0617 19.5138 10.0511L21.805 9.79237C21.9641 9.7744 22.1132 9.70601 22.2306 9.59721C22.348 9.48841 22.4275 9.34491 22.4575 9.18768L23.237 5.06268C23.2707 4.88614 23.2399 4.70338 23.1502 4.54766C23.0604 4.39194 22.9178 4.27362 22.7481 4.21424Z"
          fill="#1F1D25"/>
</svg>
