<svg width="24" height="24" viewBox="0 0 24 24" fill="none" xmlns="http://www.w3.org/2000/svg">
    <path d="M9.75002 23.9999C9.513 24.0011 9.28125 23.93 9.08575 23.7959C8.89025 23.6619 8.74031 23.4714 8.65596 23.2499L6.78846 18.3937C6.75063 18.2958 6.69277 18.2069 6.61859 18.1328C6.5444 18.0586 6.45553 18.0007 6.35768 17.9629L1.50002 16.094C1.27874 16.009 1.08842 15.859 0.954167 15.6637C0.819915 15.4684 0.748047 15.2369 0.748047 14.9999C0.748047 14.7629 0.819915 14.5315 0.954167 14.3361C1.08842 14.1408 1.27874 13.9908 1.50002 13.9058L6.35627 12.0383C6.45413 12.0005 6.543 11.9427 6.61718 11.8685C6.69137 11.7943 6.74923 11.7054 6.78705 11.6076L8.65596 6.7499C8.74088 6.52862 8.89091 6.3383 9.08624 6.20405C9.28156 6.06979 9.51301 5.99792 9.75002 5.99792C9.98703 5.99792 10.2185 6.06979 10.4138 6.20405C10.6091 6.3383 10.7592 6.52862 10.8441 6.7499L12.7116 11.6062C12.7494 11.704 12.8073 11.7929 12.8814 11.8671C12.9556 11.9413 13.0445 11.9991 13.1424 12.0369L17.9705 13.8946C18.2008 13.98 18.3992 14.1342 18.5386 14.3363C18.6781 14.5385 18.7519 14.7787 18.75 15.0243C18.7464 15.2572 18.673 15.4836 18.5393 15.6743C18.4056 15.865 18.2177 16.0112 18 16.094L13.1438 17.9615C13.0459 17.9993 12.957 18.0572 12.8829 18.1313C12.8087 18.2055 12.7508 18.2944 12.713 18.3923L10.8441 23.2499C10.7597 23.4714 10.6098 23.6619 10.4143 23.7959C10.2188 23.93 9.98704 24.0011 9.75002 23.9999V23.9999Z"
          fill="#1F1D25"/>
    <path d="M4.12491 8.25011C3.98595 8.25011 3.85026 8.208 3.7357 8.12935C3.62115 8.05069 3.53311 7.93917 3.48319 7.80949L2.69288 5.75449C2.67575 5.70955 2.64931 5.66873 2.6153 5.63472C2.5813 5.60071 2.54048 5.57427 2.49554 5.55715L0.440537 4.76683C0.31087 4.7169 0.199373 4.62886 0.120733 4.5143C0.0420927 4.39975 0 4.26406 0 4.12511C0 3.98617 0.0420927 3.85048 0.120733 3.73592C0.199373 3.62137 0.31087 3.53333 0.440537 3.4834L2.49554 2.69308C2.54044 2.67588 2.58121 2.64941 2.61521 2.61541C2.64921 2.58141 2.67567 2.54064 2.69288 2.49574L3.47616 0.459021C3.52034 0.339116 3.59635 0.233515 3.69603 0.153569C3.79572 0.0736225 3.91531 0.022353 4.04194 0.00527075C4.19398 -0.013212 4.34784 0.0195905 4.47912 0.0984766C4.6104 0.177363 4.71158 0.297817 4.76663 0.440739L5.55694 2.49574C5.57415 2.54064 5.60061 2.58141 5.63461 2.61541C5.66861 2.64941 5.70939 2.67588 5.75429 2.69308L7.80929 3.4834C7.93895 3.53333 8.05045 3.62137 8.12909 3.73592C8.20773 3.85048 8.24982 3.98617 8.24982 4.12511C8.24982 4.26406 8.20773 4.39975 8.12909 4.5143C8.05045 4.62886 7.93895 4.7169 7.80929 4.76683L5.75429 5.55715C5.70934 5.57427 5.66853 5.60071 5.63452 5.63472C5.60051 5.66873 5.57407 5.70955 5.55694 5.75449L4.76663 7.80949C4.71671 7.93917 4.62867 8.05069 4.51412 8.12935C4.39957 8.208 4.26387 8.25011 4.12491 8.25011V8.25011Z"
          fill="#1F1D25"/>
    <path d="M18.7504 11.9999C18.5988 11.9999 18.4508 11.9539 18.3258 11.868C18.2009 11.7822 18.1049 11.6605 18.0505 11.519L16.9799 8.73601C16.9611 8.68697 16.9321 8.64243 16.895 8.60529C16.8579 8.56814 16.8133 8.53922 16.7643 8.52038L13.9813 7.44976C13.8399 7.39528 13.7184 7.29925 13.6326 7.17433C13.5469 7.0494 13.501 6.90143 13.501 6.74991C13.501 6.59839 13.5469 6.45043 13.6326 6.3255C13.7184 6.20058 13.8399 6.10455 13.9813 6.05007L16.7643 4.97945C16.8133 4.96061 16.8579 4.93168 16.895 4.89454C16.9321 4.85739 16.9611 4.81286 16.9799 4.76382L18.0426 2.00054C18.0911 1.86987 18.1741 1.75479 18.2828 1.66754C18.3915 1.5803 18.5218 1.52415 18.6599 1.50507C18.8258 1.48499 18.9937 1.52089 19.1369 1.60709C19.28 1.69328 19.3903 1.82483 19.4502 1.98085L20.5208 4.76382C20.5397 4.81286 20.5686 4.85739 20.6057 4.89454C20.6429 4.93168 20.6874 4.96061 20.7365 4.97945L23.5194 6.05007C23.6608 6.10455 23.7824 6.20058 23.8681 6.3255C23.9539 6.45043 23.9998 6.59839 23.9998 6.74991C23.9998 6.90143 23.9539 7.0494 23.8681 7.17433C23.7824 7.29925 23.6608 7.39528 23.5194 7.44976L20.7365 8.52038C20.6874 8.53922 20.6429 8.56814 20.6057 8.60529C20.5686 8.64243 20.5397 8.68697 20.5208 8.73601L19.4502 11.519C19.3958 11.6605 19.2999 11.7822 19.1749 11.868C19.05 11.9539 18.902 11.9999 18.7504 11.9999V11.9999Z"
          fill="#1F1D25"/>
</svg>
