<svg width="24" height="24" viewBox="0 0 24 24" fill="none" xmlns="http://www.w3.org/2000/svg">
    <path d="M19.9545 5.54274C17.8846 3.48516 15.096 2.31255 12.1777 2.27254C9.25932 2.23253 6.43965 3.32825 4.31407 5.32832C2.18849 7.32839 0.923398 10.0762 0.785934 12.9916C0.648469 15.907 1.64939 18.7617 3.57735 20.9529L3.58579 20.9623C3.60125 20.9787 3.61579 20.9956 3.63266 21.0115C3.66735 21.0509 3.70672 21.0954 3.75313 21.1418C3.93512 21.3352 4.15508 21.489 4.39925 21.5936C4.64341 21.6981 4.90652 21.7511 5.17211 21.7492C5.4377 21.7474 5.70005 21.6907 5.94273 21.5828C6.18542 21.4749 6.40322 21.3181 6.5825 21.1221C7.27234 20.3724 8.11022 19.7739 9.04317 19.3646C9.97612 18.9552 10.9839 18.7438 12.0027 18.7438C13.0215 18.7438 14.0292 18.9552 14.9622 19.3646C15.8951 19.7739 16.733 20.3724 17.4228 21.1221C17.6034 21.3191 17.823 21.4764 18.0676 21.5842C18.3121 21.6919 18.5764 21.7476 18.8437 21.7479C19.1109 21.7482 19.3753 21.6929 19.6201 21.5857C19.8649 21.4785 20.0848 21.3216 20.2658 21.1249L20.4163 20.9609L20.4247 20.9515C22.3243 18.8064 23.3336 16.0172 23.2465 13.1532C23.1594 10.2892 21.9824 7.56651 19.9559 5.54087L19.9545 5.54274ZM11.2498 5.99977C11.2498 5.80086 11.3289 5.61009 11.4695 5.46944C11.6102 5.32879 11.8009 5.24977 11.9998 5.24977C12.1988 5.24977 12.3895 5.32879 12.5302 5.46944C12.6708 5.61009 12.7498 5.80086 12.7498 5.99977V7.49977C12.7498 7.69868 12.6708 7.88945 12.5302 8.0301C12.3895 8.17075 12.1988 8.24977 11.9998 8.24977C11.8009 8.24977 11.6102 8.17075 11.4695 8.0301C11.3289 7.88945 11.2498 7.69868 11.2498 7.49977V5.99977ZM5.99985 14.2498H4.49985C4.30094 14.2498 4.11017 14.1708 3.96952 14.0301C3.82887 13.8895 3.74985 13.6987 3.74985 13.4998C3.74985 13.3009 3.82887 13.1101 3.96952 12.9694C4.11017 12.8288 4.30094 12.7498 4.49985 12.7498H5.99985C6.19876 12.7498 6.38953 12.8288 6.53018 12.9694C6.67083 13.1101 6.74985 13.3009 6.74985 13.4998C6.74985 13.6987 6.67083 13.8895 6.53018 14.0301C6.38953 14.1708 6.19876 14.2498 5.99985 14.2498V14.2498ZM8.28735 9.78727C8.14671 9.92782 7.95602 10.0068 7.75719 10.0068C7.55836 10.0068 7.36767 9.92782 7.22703 9.78727L6.16625 8.72696C6.02559 8.58629 5.94656 8.3955 5.94656 8.19657C5.94656 7.99763 6.02559 7.80685 6.16625 7.66618C6.30692 7.52551 6.49771 7.44648 6.69664 7.44648C6.89558 7.44648 7.08637 7.52551 7.22703 7.66618L8.28735 8.72696C8.42789 8.8676 8.50684 9.05829 8.50684 9.25712C8.50684 9.45594 8.42789 9.64663 8.28735 9.78727V9.78727ZM15.2858 10.8701L13.0592 14.4091C12.9681 14.5354 12.8573 14.6462 12.7311 14.7373C12.4263 14.9499 12.05 15.0337 11.6838 14.9706C11.3176 14.9075 10.991 14.7025 10.775 14.4001C10.5591 14.0977 10.471 13.7223 10.5301 13.3554C10.5891 12.9885 10.7905 12.6597 11.0905 12.4404L14.6295 10.2138C14.71 10.1578 14.8057 10.1277 14.9038 10.1277C15.0018 10.1277 15.0975 10.1578 15.178 10.2138C15.279 10.2868 15.3471 10.3968 15.3673 10.5197C15.3875 10.6427 15.3582 10.7686 15.2858 10.8701V10.8701ZM16.7727 9.78727C16.6309 9.92199 16.4421 9.99598 16.2465 9.99348C16.0509 9.99097 15.8641 9.91217 15.7258 9.77387C15.5875 9.63557 15.5086 9.44871 15.5061 9.25314C15.5036 9.05757 15.5776 8.86876 15.7123 8.72696L16.7727 7.66618C16.9133 7.52551 17.1041 7.44648 17.3031 7.44648C17.502 7.44648 17.6928 7.52551 17.8334 7.66618C17.9741 7.80685 18.0531 7.99763 18.0531 8.19657C18.0531 8.3955 17.9741 8.58629 17.8334 8.72696L16.7727 9.78727ZM19.4998 14.2498H17.9998C17.8009 14.2498 17.6102 14.1708 17.4695 14.0301C17.3289 13.8895 17.2498 13.6987 17.2498 13.4998C17.2498 13.3009 17.3289 13.1101 17.4695 12.9694C17.6102 12.8288 17.8009 12.7498 17.9998 12.7498H19.4998C19.6988 12.7498 19.8895 12.8288 20.0302 12.9694C20.1708 13.1101 20.2498 13.3009 20.2498 13.4998C20.2498 13.6987 20.1708 13.8895 20.0302 14.0301C19.8895 14.1708 19.6988 14.2498 19.4998 14.2498Z"
          fill="#1F1D25"/>
</svg>
