<svg width="24" height="24" viewBox="0 0 24 24" fill="none" xmlns="http://www.w3.org/2000/svg">
    <path d="M22.4998 20.9998H21.9373C21.8876 20.9998 21.8399 20.98 21.8047 20.9449C21.7696 20.9097 21.7498 20.862 21.7498 20.8123V12.8206C21.7502 12.7908 21.7436 12.7612 21.7303 12.7345C21.717 12.7078 21.6976 12.6846 21.6735 12.6669C21.6495 12.6492 21.6216 12.6375 21.5922 12.6328C21.5627 12.628 21.5326 12.6304 21.5042 12.6396C21.0741 12.7748 20.6274 12.8502 20.1767 12.8637C20.1214 12.8637 20.0689 12.8661 20.0173 12.8661C19.1505 12.8681 18.2976 12.648 17.54 12.2267C17.4826 12.1948 17.4181 12.178 17.3525 12.178C17.2869 12.178 17.2223 12.1948 17.165 12.2267C16.4076 12.648 15.5548 12.8681 14.6881 12.8661C13.8263 12.8673 12.9789 12.6445 12.229 12.2196C12.1712 12.1869 12.1059 12.1697 12.0394 12.1697C11.973 12.1697 11.9077 12.1869 11.8498 12.2196C11.0887 12.6461 10.2304 12.8689 9.35795 12.8665C8.49031 12.8671 7.6376 12.6409 6.88435 12.2103C6.82607 12.1771 6.76016 12.1597 6.6931 12.1597C6.62604 12.1597 6.56014 12.1771 6.50185 12.2103C5.74861 12.6409 4.89589 12.8671 4.02826 12.8665C3.97717 12.8665 3.9256 12.8665 3.87029 12.8642H3.86748C3.40097 12.8502 2.93884 12.7698 2.49498 12.6256C2.46687 12.6165 2.43701 12.6142 2.40784 12.6188C2.37867 12.6235 2.35101 12.6349 2.32711 12.6523C2.30321 12.6697 2.28375 12.6924 2.27032 12.7187C2.25689 12.7451 2.24987 12.7742 2.24982 12.8037V20.8123C2.24982 20.862 2.23007 20.9097 2.1949 20.9449C2.15974 20.98 2.11205 20.9998 2.06232 20.9998H1.52326C1.11826 20.9998 0.768572 21.3111 0.75076 21.7161C0.7462 21.8173 0.762196 21.9184 0.797782 22.0132C0.833367 22.1081 0.887804 22.1948 0.957807 22.268C1.02781 22.3412 1.11193 22.3995 1.20509 22.4394C1.29824 22.4792 1.3985 22.4998 1.49982 22.4998H22.4764C22.8814 22.4998 23.2311 22.1886 23.2489 21.7836C23.2534 21.6823 23.2374 21.5812 23.2019 21.4864C23.1663 21.3915 23.1118 21.3049 23.0418 21.2316C22.9718 21.1584 22.8877 21.1001 22.7946 21.0602C22.7014 21.0204 22.6011 20.9998 22.4998 20.9998V20.9998ZM10.4998 17.8123C10.4998 17.862 10.4801 17.9097 10.4449 17.9449C10.4097 17.98 10.3621 17.9998 10.3123 17.9998H6.18732C6.13759 17.9998 6.0899 17.98 6.05474 17.9449C6.01958 17.9097 5.99982 17.862 5.99982 17.8123V14.8123C5.99982 14.6631 6.05909 14.52 6.16457 14.4146C6.27006 14.3091 6.41314 14.2498 6.56232 14.2498H9.93732C10.0865 14.2498 10.2296 14.3091 10.3351 14.4146C10.4406 14.52 10.4998 14.6631 10.4998 14.8123V17.8123ZM17.8123 20.9998H14.4373C14.3876 20.9998 14.3399 20.98 14.3047 20.9449C14.2696 20.9097 14.2498 20.862 14.2498 20.8123V14.8123C14.2498 14.6631 14.3091 14.52 14.4146 14.4146C14.5201 14.3091 14.6631 14.2498 14.8123 14.2498H17.4373C17.5865 14.2498 17.7296 14.3091 17.8351 14.4146C17.9406 14.52 17.9998 14.6631 17.9998 14.8123V20.8123C17.9998 20.862 17.9801 20.9097 17.9449 20.9449C17.9097 20.98 17.8621 20.9998 17.8123 20.9998Z"
          fill="#1F1D25"/>
    <path d="M23.0896 7.98187L21.0777 3.36516C20.5508 2.23219 19.3476 1.5 18.0121 1.5H5.98631C4.65084 1.5 3.44756 2.23219 2.92068 3.36516L0.908809 7.98187C0.486934 8.89172 1.04428 9.82594 1.04475 9.82641L1.05787 9.8475C1.08084 9.88406 1.12162 9.94125 1.14647 9.97781C1.14881 9.98063 1.15068 9.98391 1.15303 9.98719L1.3874 10.2708C1.39617 10.2815 1.40556 10.2917 1.41553 10.3012L1.6499 10.5277L1.66959 10.5445C1.80723 10.6625 1.95446 10.7688 2.10975 10.8623V10.8647C2.61989 11.1737 3.2011 11.346 3.79725 11.3648C3.83568 11.3648 3.87412 11.3648 3.91303 11.3648C4.81503 11.3665 5.68416 11.0263 6.34537 10.4128L6.36084 10.3983C6.4299 10.3332 6.52119 10.297 6.61608 10.297C6.71096 10.297 6.80225 10.3332 6.87131 10.3983L6.88678 10.4128C7.55503 11.0253 8.42858 11.3651 9.33506 11.3651C10.2415 11.3651 11.1151 11.0253 11.7833 10.4128C11.8527 10.3486 11.9436 10.313 12.0381 10.313C12.1326 10.313 12.2236 10.3486 12.2929 10.4128V10.4128C12.9591 11.0234 13.8295 11.3629 14.7332 11.3649C15.6369 11.3669 16.5088 11.0312 17.1777 10.4236C17.246 10.3603 17.3356 10.3252 17.4287 10.3252C17.5218 10.3252 17.6115 10.3603 17.6797 10.4236C18.3494 11.0349 19.2251 11.371 20.1318 11.3648H20.2485C20.8297 11.3431 21.3952 11.1703 21.8891 10.8633V10.8633C21.9337 10.8366 21.9763 10.8084 22.0194 10.7803C22.3526 10.5557 22.6425 10.2729 22.8754 9.94547L22.9569 9.82219C22.9651 9.80969 22.9726 9.79656 22.9794 9.78281C23.0572 9.62437 23.4744 8.80969 23.0896 7.98187Z"
          fill="#1F1D25"/>
</svg>
