<svg width="24" height="24" viewBox="0 0 24 24" fill="none" xmlns="http://www.w3.org/2000/svg">
    <path d="M12 5.53125C11.7265 5.53125 11.4642 5.4226 11.2708 5.2292C11.0774 5.03581 10.9688 4.7735 10.9688 4.5V2.25C10.9688 1.9765 11.0774 1.71419 11.2708 1.5208C11.4642 1.3274 11.7265 1.21875 12 1.21875C12.2735 1.21875 12.5358 1.3274 12.7292 1.5208C12.9226 1.71419 13.0312 1.9765 13.0312 2.25V4.5C13.0312 4.7735 12.9226 5.03581 12.7292 5.2292C12.5358 5.4226 12.2735 5.53125 12 5.53125Z"
          fill="#1F1D25"/>
    <path d="M12 22.7812C11.7265 22.7812 11.4642 22.6726 11.2708 22.4792C11.0774 22.2858 10.9688 22.0235 10.9688 21.75V19.5C10.9688 19.2265 11.0774 18.9642 11.2708 18.7708C11.4642 18.5774 11.7265 18.4688 12 18.4688C12.2735 18.4688 12.5358 18.5774 12.7292 18.7708C12.9226 18.9642 13.0312 19.2265 13.0312 19.5V21.75C13.0312 22.0235 12.9226 22.2858 12.7292 22.4792C12.5358 22.6726 12.2735 22.7812 12 22.7812Z"
          fill="#1F1D25"/>
    <path d="M17.3036 7.72784C17.0997 7.72781 16.9003 7.66733 16.7308 7.55404C16.5612 7.44076 16.4291 7.27974 16.351 7.09136C16.273 6.90298 16.2525 6.69568 16.2922 6.49567C16.3319 6.29567 16.4301 6.11192 16.5742 5.96768L18.1652 4.37673C18.3594 4.18754 18.6203 4.08247 18.8915 4.08425C19.1626 4.08604 19.4222 4.19454 19.6139 4.38628C19.8056 4.57801 19.9141 4.83754 19.9159 5.10869C19.9177 5.37984 19.8126 5.64078 19.6234 5.83502L18.0325 7.42596C17.9369 7.5218 17.8232 7.5978 17.6982 7.64961C17.5731 7.70141 17.439 7.728 17.3036 7.72784V7.72784Z"
          fill="#1F1D25"/>
    <path d="M5.10534 19.926C4.90137 19.926 4.70199 19.8655 4.53241 19.7521C4.36283 19.6388 4.23067 19.4777 4.15265 19.2893C4.07462 19.1008 4.05424 18.8934 4.09408 18.6934C4.13391 18.4933 4.23217 18.3096 4.37644 18.1654L5.96737 16.5745C6.06266 16.4766 6.17643 16.3987 6.30208 16.3452C6.42773 16.2917 6.56276 16.2637 6.69933 16.2628C6.83589 16.2619 6.97128 16.2881 7.09762 16.34C7.22397 16.3918 7.33875 16.4682 7.43532 16.5648C7.53189 16.6614 7.60832 16.7762 7.66016 16.9025C7.71201 17.0288 7.73825 17.1642 7.73735 17.3008C7.73645 17.4374 7.70843 17.5724 7.65492 17.698C7.60142 17.8237 7.52349 17.9375 7.42566 18.0328L5.83472 19.6237C5.73905 19.7196 5.62537 19.7958 5.5002 19.8476C5.37503 19.8995 5.24084 19.9262 5.10534 19.926V19.926Z"
          fill="#1F1D25"/>
    <path d="M21.75 13.0312H19.5C19.2265 13.0312 18.9642 12.9226 18.7708 12.7292C18.5774 12.5358 18.4688 12.2735 18.4688 12C18.4688 11.7265 18.5774 11.4642 18.7708 11.2708C18.9642 11.0774 19.2265 10.9688 19.5 10.9688H21.75C22.0235 10.9688 22.2858 11.0774 22.4792 11.2708C22.6726 11.4642 22.7812 11.7265 22.7812 12C22.7812 12.2735 22.6726 12.5358 22.4792 12.7292C22.2858 12.9226 22.0235 13.0312 21.75 13.0312Z"
          fill="#1F1D25"/>
    <path d="M4.5 13.0312H2.25C1.9765 13.0312 1.71419 12.9226 1.5208 12.7292C1.3274 12.5358 1.21875 12.2735 1.21875 12C1.21875 11.7265 1.3274 11.4642 1.5208 11.2708C1.71419 11.0774 1.9765 10.9688 2.25 10.9688H4.5C4.7735 10.9688 5.03581 11.0774 5.2292 11.2708C5.4226 11.4642 5.53125 11.7265 5.53125 12C5.53125 12.2735 5.4226 12.5358 5.2292 12.7292C5.03581 12.9226 4.7735 13.0312 4.5 13.0312Z"
          fill="#1F1D25"/>
    <path d="M18.8941 19.9257C18.7586 19.9258 18.6244 19.8992 18.4992 19.8473C18.374 19.7954 18.2604 19.7193 18.1647 19.6233L16.5738 18.0324C16.3846 17.8382 16.2795 17.5772 16.2813 17.3061C16.2831 17.0349 16.3916 16.7754 16.5833 16.5837C16.775 16.3919 17.0346 16.2834 17.3057 16.2816C17.5769 16.2799 17.8378 16.3849 18.032 16.5741L19.623 18.1651C19.7672 18.3093 19.8655 18.493 19.9053 18.693C19.9452 18.8931 19.9248 19.1004 19.8468 19.2889C19.7687 19.4774 19.6366 19.6385 19.467 19.7518C19.2974 19.8651 19.098 19.9257 18.8941 19.9257V19.9257Z"
          fill="#1F1D25"/>
    <path d="M6.69633 7.72783C6.56092 7.72809 6.4268 7.70156 6.3017 7.64975C6.1766 7.59793 6.06299 7.52188 5.96742 7.42595L4.37649 5.83502C4.1873 5.64077 4.08222 5.37983 4.08401 5.10869C4.08579 4.83754 4.1943 4.57801 4.38603 4.38627C4.57776 4.19454 4.8373 4.08604 5.10844 4.08425C5.37959 4.08247 5.64053 4.18754 5.83477 4.37673L7.4257 5.96767C7.56983 6.11192 7.66796 6.29566 7.70769 6.49567C7.74742 6.69568 7.72696 6.90297 7.6489 7.09136C7.57083 7.27974 7.43867 7.44075 7.26912 7.55404C7.09957 7.66732 6.90024 7.7278 6.69633 7.72783V7.72783Z"
          fill="#1F1D25"/>
    <path d="M12 16.7812C11.0544 16.7812 10.13 16.5008 9.34368 15.9754C8.55741 15.45 7.94458 14.7033 7.5827 13.8296C7.22082 12.956 7.12614 11.9946 7.31062 11.0672C7.49511 10.1397 7.95048 9.28775 8.61915 8.61908C9.28781 7.95042 10.1398 7.49505 11.0672 7.31056C11.9947 7.12608 12.956 7.22076 13.8297 7.58264C14.7034 7.94452 15.4501 8.55735 15.9755 9.34362C16.5008 10.1299 16.7812 11.0543 16.7812 11.9999C16.7797 13.2675 16.2755 14.4828 15.3792 15.3791C14.4829 16.2755 13.2676 16.7797 12 16.7812V16.7812Z"
          fill="#1F1D25"/>
</svg>
