<svg width="24" height="24" viewBox="0 0 24 24" fill="none" xmlns="http://www.w3.org/2000/svg">
    <path d="M5.04161 11.7187C4.94218 11.5465 4.77843 11.4209 4.58637 11.3694C4.3943 11.3178 4.18964 11.3447 4.01739 11.4441L1.68723 12.788C1.46909 12.913 1.27855 13.0809 1.12709 13.2816C0.975627 13.4823 0.866394 13.7116 0.805976 13.9556C0.689717 14.4395 0.7662 14.9497 1.01926 15.3783L1.22363 15.7317C1.47244 16.1619 1.88186 16.4758 2.36195 16.6043C2.84203 16.7328 3.3535 16.6654 3.78395 16.417L6.11223 15.075C6.1976 15.0258 6.27245 14.9603 6.33248 14.8821C6.39252 14.804 6.43657 14.7148 6.46212 14.6197C6.48768 14.5245 6.49423 14.4252 6.48141 14.3276C6.46858 14.2299 6.43664 14.1357 6.38739 14.0503L5.04161 11.7187Z"
          fill="#1F1D25"/>
    <path d="M17.9454 20.6623L13.5335 11.9061C13.5228 11.8847 13.5207 11.86 13.5275 11.8371C13.5344 11.8142 13.5498 11.7948 13.5706 11.7828L13.9596 11.5583C14.045 11.5091 14.1198 11.4435 14.1797 11.3653C14.2397 11.2872 14.2837 11.198 14.3092 11.1028C14.3348 11.0077 14.3413 10.9084 14.3284 10.8108C14.3155 10.7131 14.2836 10.6189 14.2343 10.5336L12.0063 6.67438C11.9571 6.58901 11.8916 6.51417 11.8135 6.45413C11.7354 6.39409 11.6462 6.35004 11.551 6.32449C11.4559 6.29894 11.3566 6.29238 11.2589 6.30521C11.1612 6.31803 11.067 6.34998 10.9817 6.39922L6.93259 8.7336C6.71884 8.85606 6.53151 9.01971 6.38145 9.21507C6.23139 9.41043 6.12158 9.63363 6.05837 9.87172C6.01538 10.0204 5.99376 10.1744 5.99415 10.3292C5.99697 10.6855 6.4254 11.3933 6.84353 12.1236C7.29306 12.9088 7.7454 13.7117 8.07822 13.9119C8.29009 14.0394 8.66415 14.1416 8.97869 14.1416H9.01806L5.29994 22.1853C5.25851 22.2747 5.23512 22.3715 5.23109 22.4699C5.22707 22.5684 5.2425 22.6667 5.27649 22.7592C5.31048 22.8517 5.36237 22.9366 5.42919 23.0091C5.49602 23.0815 5.57647 23.1401 5.66594 23.1814C5.75541 23.2227 5.85215 23.246 5.95063 23.25C6.04911 23.2539 6.14739 23.2384 6.23987 23.2043C6.33234 23.1702 6.41719 23.1182 6.48956 23.0513C6.56194 22.9844 6.62041 22.9039 6.66165 22.8144L11.0529 13.3152C11.0852 13.2449 11.1386 13.1864 11.2057 13.1478L12.1062 12.6284C12.1172 12.6221 12.1295 12.6181 12.1421 12.6167C12.1548 12.6153 12.1676 12.6164 12.1798 12.6201C12.192 12.6238 12.2033 12.6299 12.2131 12.6381C12.2228 12.6463 12.2308 12.6564 12.2365 12.6678L16.6057 21.3397C16.6952 21.5173 16.8516 21.6522 17.0406 21.7145C17.2295 21.7768 17.4354 21.7615 17.6131 21.672C17.7907 21.5825 17.9255 21.4261 17.9879 21.2372C18.0502 21.0483 18.0349 20.8423 17.9454 20.6647V20.6623Z"
          fill="#1F1D25"/>
    <path d="M22.9783 5.42512L20.8165 1.68731C20.567 1.25772 20.1575 0.944439 19.6775 0.816008C19.1976 0.687576 18.6864 0.75445 18.2557 1.002L13.8804 3.52294C13.6666 3.64531 13.4792 3.80894 13.3291 4.00431C13.179 4.19969 13.0693 4.42292 13.0061 4.66106C12.944 4.86184 12.9237 5.07323 12.9466 5.28216C13.0282 5.87372 13.556 6.70716 14.1846 7.80825C14.8211 8.92059 15.5397 10.1745 15.9157 10.4459C16.2335 10.6706 16.6131 10.7912 17.0022 10.7914C17.3301 10.7915 17.6522 10.7052 17.936 10.5411L22.3122 8.01872C22.5299 7.89399 22.7202 7.72655 22.8715 7.52646C23.0229 7.32637 23.1322 7.09776 23.193 6.85434C23.3101 6.36815 23.2331 5.85545 22.9783 5.42512V5.42512Z"
          fill="#1F1D25"/>
</svg>
