<svg width="24" height="24" viewBox="0 0 24 24" fill="none" xmlns="http://www.w3.org/2000/svg">
    <path d="M13.7152 19.1144L8.0902 4.11444C8.0165 3.91786 7.88456 3.74845 7.71201 3.62886C7.53946 3.50927 7.33452 3.44519 7.12458 3.44519C6.91463 3.44519 6.70969 3.50927 6.53714 3.62886C6.36459 3.74845 6.23265 3.91786 6.15895 4.11444L0.53395 19.1144C0.440916 19.3699 0.452504 19.6517 0.566195 19.8986C0.679885 20.1456 0.88648 20.3376 1.14104 20.433C1.3956 20.5284 1.67753 20.5195 1.92551 20.4081C2.17348 20.2967 2.36745 20.0919 2.4652 19.8382L4.1602 15.3185C4.16688 15.3006 4.17884 15.2852 4.19451 15.2743C4.21017 15.2634 4.22878 15.2576 4.24786 15.2576H10.0013C10.0204 15.2576 10.039 15.2634 10.0546 15.2743C10.0703 15.2852 10.0823 15.3006 10.089 15.3185L11.7839 19.8382C11.8817 20.0919 12.0757 20.2967 12.3236 20.4081C12.5716 20.5195 12.8536 20.5284 13.1081 20.433C13.3627 20.3376 13.5693 20.1456 13.683 19.8986C13.7966 19.6517 13.8082 19.3699 13.7152 19.1144V19.1144ZM5.00395 13.0676L7.03692 7.64647C7.04367 7.62868 7.05566 7.61337 7.07132 7.60256C7.08698 7.59176 7.10555 7.58597 7.12458 7.58597C7.1436 7.58597 7.16217 7.59176 7.17783 7.60256C7.19349 7.61337 7.20548 7.62868 7.21223 7.64647L9.2452 13.0685C9.25049 13.0827 9.25228 13.0979 9.25041 13.1129C9.24854 13.1279 9.24306 13.1423 9.23445 13.1547C9.22584 13.1671 9.21435 13.1773 9.20095 13.1843C9.18756 13.1914 9.17267 13.195 9.15754 13.1951H5.09161C5.07648 13.195 5.06159 13.1914 5.0482 13.1843C5.0348 13.1773 5.02331 13.1671 5.0147 13.1547C5.00609 13.1423 5.00061 13.1279 4.99874 13.1129C4.99687 13.0979 4.99866 13.0827 5.00395 13.0685V13.0676Z"
          fill="#1F1D25"/>
    <path d="M18.7861 7.94544C16.8305 7.93138 15.0792 9.06435 14.333 10.8236C14.2261 11.0753 14.2235 11.3592 14.3259 11.6128C14.4283 11.8665 14.6273 12.069 14.8791 12.1759C15.1308 12.2828 15.4147 12.2854 15.6683 12.1829C15.9219 12.0805 16.1245 11.8816 16.2314 11.6298C16.6477 10.6506 17.6269 10.0154 18.7308 10.0079C20.2458 9.99763 21.4688 11.2501 21.4688 12.7665C21.4688 12.7848 21.4617 12.8023 21.449 12.8154C21.4363 12.8286 21.419 12.8362 21.4008 12.8368C20.3733 12.8654 19.1545 12.9339 18.067 13.0618C15.5006 13.3637 13.9688 14.7629 13.9688 16.8048C13.9688 17.8918 14.3794 18.8673 15.1252 19.5554C15.825 20.2 16.7812 20.5548 17.8125 20.5548C19.2656 20.5548 20.5167 20.1798 21.4659 19.4664H21.4688C21.4682 19.6018 21.4943 19.736 21.5455 19.8614C21.5968 19.9867 21.6723 20.1007 21.7676 20.1969C21.863 20.2931 21.9764 20.3695 22.1012 20.4219C22.2261 20.4742 22.3601 20.5015 22.4955 20.5021C22.631 20.5027 22.7652 20.4766 22.8905 20.4253C23.0159 20.374 23.1299 20.2985 23.2261 20.2032C23.3222 20.1078 23.3987 19.9945 23.451 19.8696C23.5034 19.7447 23.5307 19.6107 23.5312 19.4753V12.7722C23.5312 10.1387 21.4219 7.96466 18.7861 7.94544ZM17.8125 18.4923C16.9908 18.4923 16.0312 18.0503 16.0312 16.8048C16.0312 16.3047 16.2108 15.9545 16.6139 15.669C17.0062 15.3911 17.6077 15.1928 18.308 15.1103C19.298 14.9936 20.4089 14.9293 21.3614 14.9008C21.3741 14.9007 21.3867 14.9033 21.3984 14.9083C21.4101 14.9133 21.4206 14.9206 21.4294 14.9299C21.4382 14.9391 21.445 14.95 21.4494 14.9619C21.4538 14.9738 21.4558 14.9865 21.4552 14.9992C21.3281 17.3486 20.1309 18.4923 17.8125 18.4923Z"
          fill="#1F1D25"/>
</svg>
