<svg width="24" height="24" viewBox="0 0 24 24" fill="none" xmlns="http://www.w3.org/2000/svg">
    <path d="M15 13.4615V3.79682C15 2.15057 13.6927 0.777137 12.0469 0.752293C11.6491 0.746582 11.2542 0.819934 10.885 0.968093C10.5158 1.11625 10.1798 1.33626 9.89631 1.61536C9.61285 1.89446 9.38765 2.22708 9.23379 2.59391C9.07992 2.96075 9.00046 3.3545 9 3.75229V13.4615C8.99989 13.5194 8.98638 13.5765 8.96052 13.6283C8.93466 13.6801 8.89715 13.7252 8.85094 13.7601C8.19734 14.2568 7.66756 14.898 7.30308 15.6336C6.93859 16.3691 6.74929 17.179 6.75 18C6.75 19.3923 7.30313 20.7277 8.28769 21.7123C9.27226 22.6968 10.6076 23.25 12 23.25C13.3924 23.25 14.7277 22.6968 15.7123 21.7123C16.6969 20.7277 17.25 19.3923 17.25 18C17.2507 17.179 17.0614 16.3691 16.6969 15.6336C16.3324 14.898 15.8027 14.2568 15.1491 13.7601C15.1029 13.7252 15.0653 13.6801 15.0395 13.6283C15.0136 13.5765 15.0001 13.5194 15 13.4615V13.4615ZM11.9095 20.25C11.4225 20.2298 10.9552 20.0521 10.5778 19.7435C10.2005 19.4349 9.93363 19.0121 9.81733 18.5387C9.70102 18.0654 9.74158 17.567 9.93292 17.1187C10.1243 16.6704 10.456 16.2963 10.8783 16.0528C10.9922 15.987 11.0868 15.8924 11.1526 15.7786C11.2184 15.6647 11.2531 15.5355 11.2533 15.404V5.27104C11.2533 4.86745 11.5636 4.52104 11.9672 4.50089C12.0683 4.49646 12.1693 4.51255 12.2641 4.54819C12.3588 4.58384 12.4454 4.6383 12.5185 4.70829C12.5917 4.77828 12.6499 4.86235 12.6897 4.95544C12.7294 5.04853 12.75 5.14871 12.75 5.24995V15.4021C12.7509 15.535 12.7866 15.6652 12.8537 15.7799C12.9207 15.8946 13.0167 15.9897 13.132 16.0556C13.5671 16.3079 13.9051 16.6987 14.092 17.1656C14.2789 17.6326 14.304 18.1486 14.1633 18.6315C14.0226 19.1143 13.7241 19.5361 13.3156 19.8295C12.9071 20.1228 12.412 20.2709 11.9095 20.25V20.25Z"
          fill="#1F1D25"/>
</svg>
