<svg width="24" height="24" viewBox="0 0 24 24" fill="none" xmlns="http://www.w3.org/2000/svg">
    <path d="M1.87219 8.34375L8.62969 8.63062C8.84578 8.6475 9.75 8.68781 9.75 9.84375C9.75 10.9594 8.85188 11.0311 8.61844 11.0569L1.87219 11.3438C1.27828 11.3377 0.75 10.6669 0.75 9.84375C0.75 9.02063 1.27828 8.34984 1.87219 8.34375ZM8.50266 14.5153L3.49922 14.9062C2.90625 14.9062 2.25 14.1239 2.25 13.3181V13.3027C2.25 12.5372 2.77219 11.9137 3.41625 11.9062L8.49984 11.9869C9.75 12.1406 9.75 12.8981 9.75 13.2244C9.75 14.2969 8.72812 14.4966 8.50266 14.5153ZM4.22578 1.5L8.415 1.91859C9.5625 1.96219 9.75 2.72719 9.75 3.20625C9.75 4.06828 9.12141 4.35938 8.49984 4.35938L4.23422 4.5C3.55219 4.48969 3 3.82078 3 3C3 2.17922 3.5475 1.51594 4.22578 1.5ZM2.61516 4.85156L8.54016 5.14313C8.98031 5.17266 9.75 5.28375 9.75 6.37875C9.75 6.94125 9.54609 7.57969 8.57812 7.66922L2.61516 7.85156C1.99922 7.84453 1.5 7.21875 1.5 6.37875C1.5 5.53875 1.99922 4.85859 2.61516 4.85156Z"
          fill="#1F1D25"/>
    <path d="M17.4687 13.0857L17.4219 13.1795C17.4897 13.0358 17.6006 12.9168 17.7392 12.8391C17.6306 12.8985 17.5379 12.983 17.4687 13.0857V13.0857Z"
          fill="#1F1D25"/>
    <path d="M9.18436 21.5334C9.62639 22.1564 10.359 22.5 11.2497 22.5C11.389 22.5 11.5255 22.4611 11.644 22.3879C11.7625 22.3146 11.8582 22.2098 11.9204 22.0852C12.0611 21.8011 12.6353 20.9602 13.2419 20.0742C14.0856 18.84 15.1333 17.3048 15.8308 16.0988L15.8369 16.0884C16.7969 14.4248 17.2595 13.5131 17.4222 13.1822L17.469 13.0884C17.5386 12.9862 17.6317 12.9021 17.7404 12.8433C17.8486 12.7835 17.9699 12.7514 18.0934 12.75H19.2803C20.3331 12.7498 21.3427 12.3313 22.0871 11.5868C22.8315 10.8422 23.2497 9.83252 23.2497 8.77969V6.97031C23.2497 5.9174 22.8314 4.90761 22.087 4.16304C21.3425 3.41848 20.3327 3.00012 19.2798 3H16.9928C16.8331 2.99962 16.677 2.95253 16.5437 2.86453C15.4684 2.16234 13.4369 1.5 11.2497 1.5C10.9004 1.5 10.5845 1.50656 10.2995 1.51781C10.2316 1.52023 10.1656 1.54105 10.1087 1.57804C10.0517 1.61504 10.0058 1.66682 9.97597 1.72785C9.94612 1.78889 9.93342 1.85688 9.93922 1.92458C9.94502 1.99227 9.9691 2.05712 10.0089 2.11219L10.0136 2.11875C10.4153 2.69953 10.4997 3.32812 10.4997 3.75C10.5004 4.14976 10.4175 4.54526 10.2564 4.91109C10.2105 5.01489 10.1868 5.12713 10.1868 5.24063C10.1868 5.35412 10.2105 5.46636 10.2564 5.57016C10.4167 5.94325 10.4994 6.34508 10.4994 6.75117C10.4994 7.15726 10.4167 7.5591 10.2564 7.93219C10.2107 8.03555 10.1871 8.14731 10.1871 8.26031C10.1871 8.37332 10.2107 8.48507 10.2564 8.58844C10.4159 8.95507 10.4983 9.35063 10.4983 9.75047C10.4983 10.1503 10.4159 10.5459 10.2564 10.9125C10.2084 11.0209 10.1836 11.1381 10.1836 11.2566C10.1836 11.3751 10.2084 11.4923 10.2564 11.6006C10.4235 11.9769 10.5065 12.3852 10.4997 12.7969C10.4997 13.1812 10.4059 13.7953 10.1247 14.2584C10.0679 14.3541 10.0335 14.4614 10.0243 14.5722C10.015 14.6831 10.0311 14.7945 10.0712 14.8983C10.089 14.9452 10.1069 14.9948 10.1242 15.0469C10.1803 15.2219 10.1941 15.4078 10.1645 15.5892C10.0239 16.4963 9.71123 17.2908 9.37982 18.128C9.23545 18.4927 9.08592 18.8695 8.94764 19.2656C8.65982 20.0887 8.74607 20.9156 9.18436 21.5334Z"
          fill="#1F1D25"/>
</svg>
