<svg width="24" height="24" viewBox="0 0 24 24" fill="none" xmlns="http://www.w3.org/2000/svg">
    <path d="M4.4996 19.4988C4.37177 19.4987 4.24608 19.4659 4.13446 19.4036C4.02284 19.3413 3.929 19.2515 3.86184 19.1428C3.79469 19.034 3.75644 18.9099 3.75075 18.7822C3.74505 18.6545 3.77208 18.5274 3.82929 18.4131L4.95429 16.1631C5.0433 15.9852 5.19934 15.85 5.38808 15.7871C5.57682 15.7243 5.7828 15.739 5.9607 15.828C6.1386 15.917 6.27386 16.073 6.33671 16.2618C6.39957 16.4505 6.38487 16.6565 6.29586 16.8344L5.17085 19.0844C5.1085 19.209 5.01267 19.3138 4.89411 19.3869C4.77554 19.4601 4.63894 19.4989 4.4996 19.4988Z"
          fill="#1F1D25"/>
    <path d="M5.6246 22.4987C5.49677 22.4987 5.37108 22.4659 5.25946 22.4036C5.14784 22.3413 5.054 22.2515 4.98684 22.1428C4.91969 22.034 4.88144 21.9099 4.87575 21.7822C4.87005 21.6545 4.89708 21.5274 4.95429 21.4131L5.70428 19.9131C5.7933 19.7352 5.94934 19.6 6.13807 19.5371C6.23153 19.506 6.33019 19.4936 6.42844 19.5006C6.52669 19.5076 6.6226 19.5339 6.71069 19.578C6.79878 19.622 6.87732 19.683 6.94184 19.7575C7.00635 19.8319 7.05558 19.9183 7.0867 20.0118C7.11782 20.1052 7.13023 20.2039 7.12322 20.3021C7.11621 20.4004 7.08992 20.4963 7.04584 20.5844L6.29585 22.0844C6.23349 22.209 6.13766 22.3137 6.0191 22.3869C5.90054 22.4601 5.76393 22.4988 5.6246 22.4987Z"
          fill="#1F1D25"/>
    <path d="M17.6246 19.4988C17.4968 19.4987 17.3711 19.4659 17.2595 19.4036C17.1478 19.3413 17.054 19.2515 16.9868 19.1428C16.9197 19.034 16.8814 18.9099 16.8757 18.7822C16.87 18.6545 16.8971 18.5274 16.9543 18.4131L18.0793 16.1631C18.1683 15.9852 18.3243 15.85 18.5131 15.7871C18.7018 15.7243 18.9078 15.739 19.0857 15.828C19.2636 15.917 19.3989 16.073 19.4617 16.2618C19.5246 16.4505 19.5099 16.6565 19.4209 16.8344L18.2959 19.0844C18.2335 19.209 18.1377 19.3138 18.0191 19.3869C17.9005 19.4601 17.7639 19.4989 17.6246 19.4988Z"
          fill="#1F1D25"/>
    <path d="M18.7496 22.4988C18.6218 22.4987 18.4961 22.4659 18.3845 22.4036C18.2728 22.3413 18.179 22.2515 18.1118 22.1428C18.0447 22.034 18.0064 21.9099 18.0007 21.7822C17.995 21.6545 18.0221 21.5274 18.0793 21.4131L18.8293 19.9131C18.9183 19.7352 19.0743 19.6 19.2631 19.5371C19.4518 19.4743 19.6578 19.489 19.8357 19.578C20.0136 19.667 20.1489 19.823 20.2117 20.0118C20.2746 20.2005 20.2599 20.4065 20.1709 20.5844L19.4209 22.0844C19.3585 22.209 19.2627 22.3138 19.1441 22.3869C19.0255 22.4601 18.8889 22.4989 18.7496 22.4988Z"
          fill="#1F1D25"/>
    <path d="M19.0237 6.41602C18.7103 4.93043 17.9281 3.58472 16.7925 2.57696C15.9502 1.82348 14.9418 1.2797 13.8495 0.98996C12.7572 0.700221 11.6118 0.67272 10.5068 0.909702C9.40185 1.14668 8.36851 1.64144 7.49105 2.35363C6.6136 3.06582 5.91686 3.97529 5.45766 5.0079C2.83594 5.16259 0.75 7.34181 0.75 9.99868C0.75 12.7559 2.99578 14.9988 5.75625 14.9988H8.86453L8.26031 18.6256C8.24241 18.733 8.24812 18.843 8.27705 18.948C8.30597 19.053 8.35742 19.1505 8.42782 19.2336C8.49821 19.3167 8.58586 19.3835 8.68467 19.4293C8.78348 19.4751 8.89109 19.4988 9 19.4988H10.5V22.4988C10.5003 22.6575 10.5508 22.812 10.6445 22.9401C10.7381 23.0682 10.8699 23.1633 11.021 23.2117C11.172 23.2602 11.3346 23.2595 11.4852 23.2097C11.6359 23.1599 11.7669 23.0637 11.8594 22.9348L15.6094 17.6848C15.6894 17.5727 15.7371 17.4408 15.7471 17.3034C15.7571 17.166 15.7291 17.0286 15.6662 16.9061C15.6032 16.7836 15.5078 16.6808 15.3903 16.6089C15.2727 16.5371 15.1377 16.499 15 16.4988H13.7105L14.0855 14.9988H18.953C20.0821 14.9943 21.164 14.545 21.9641 13.7482C22.7642 12.9515 23.2181 11.8715 23.2275 10.7424C23.2368 9.61327 22.8007 8.52597 22.0139 7.71613C21.227 6.9063 20.1527 6.43918 19.0237 6.41602V6.41602Z"
          fill="#1F1D25"/>
</svg>
