<svg width="24" height="24" viewBox="0 0 24 24" fill="none" xmlns="http://www.w3.org/2000/svg">
    <path d="M21 2.25H3C2.17157 2.25 1.5 2.92157 1.5 3.75V4.5C1.5 5.32843 2.17157 6 3 6H21C21.8284 6 22.5 5.32843 22.5 4.5V3.75C22.5 2.92157 21.8284 2.25 21 2.25Z"
          fill="#1F1D25"/>
    <path d="M3.48933 7.49988C3.43663 7.4996 3.38447 7.51042 3.33623 7.53165C3.288 7.55288 3.24478 7.58404 3.2094 7.6231C3.17402 7.66215 3.14726 7.70822 3.13088 7.75831C3.1145 7.8084 3.10886 7.86138 3.11433 7.91379L4.34761 19.7525C4.34736 19.756 4.34736 19.7594 4.34761 19.7629C4.41205 20.3104 4.6753 20.8153 5.08739 21.1816C5.49948 21.5479 6.03173 21.7501 6.58308 21.7499H17.4154C17.9666 21.7499 18.4986 21.5475 18.9105 21.1813C19.3224 20.815 19.5855 20.3103 19.65 19.7629V19.753L20.8814 7.91379C20.8868 7.86138 20.8812 7.8084 20.8648 7.75831C20.8484 7.70822 20.8217 7.66215 20.7863 7.6231C20.7509 7.58404 20.7077 7.55288 20.6595 7.53165C20.6112 7.51042 20.5591 7.4996 20.5064 7.49988H3.48933ZM15.1546 15.9697C15.2259 16.039 15.2828 16.1218 15.3218 16.2132C15.3608 16.3046 15.3813 16.4029 15.382 16.5023C15.3827 16.6017 15.3636 16.7003 15.3259 16.7923C15.2882 16.8842 15.2325 16.9678 15.1622 17.0381C15.0919 17.1084 15.0083 17.164 14.9163 17.2017C14.8243 17.2393 14.7258 17.2584 14.6264 17.2576C14.5269 17.2569 14.4287 17.2364 14.3373 17.1973C14.2458 17.1582 14.1631 17.1014 14.0939 17.03L11.9995 14.9357L9.90464 17.03C9.76334 17.1673 9.57369 17.2435 9.37669 17.2421C9.17968 17.2407 8.99113 17.1619 8.85179 17.0226C8.71245 16.8833 8.6335 16.6948 8.63202 16.4978C8.63054 16.3008 8.70663 16.1111 8.84386 15.9697L10.9387 13.8749L8.84386 11.78C8.70663 11.6387 8.63054 11.449 8.63202 11.252C8.6335 11.055 8.71245 10.8665 8.85179 10.7272C8.99113 10.5879 9.17968 10.509 9.37669 10.5077C9.57369 10.5063 9.76334 10.5824 9.90464 10.7197L11.9995 12.8141L14.0939 10.7197C14.2352 10.5824 14.4248 10.5063 14.6218 10.5077C14.8188 10.509 15.0074 10.5879 15.1467 10.7272C15.2861 10.8665 15.365 11.055 15.3665 11.252C15.368 11.449 15.2919 11.6387 15.1546 11.78L13.0598 13.8749L15.1546 15.9697Z"
          fill="#1F1D25"/>
</svg>
