<svg width="24" height="24" viewBox="0 0 24 24" fill="none" xmlns="http://www.w3.org/2000/svg">
    <path d="M20.9934 18H3.00656C2.40831 17.9993 1.83478 17.7613 1.41175 17.3382C0.988728 16.9152 0.750744 16.3417 0.75 15.7434V6.00656C0.750744 5.40831 0.988728 4.83478 1.41175 4.41175C1.83478 3.98873 2.40831 3.75074 3.00656 3.75H20.9934C21.5917 3.75074 22.1652 3.98873 22.5882 4.41175C23.0113 4.83478 23.2493 5.40831 23.25 6.00656V15.7434C23.2493 16.3417 23.0113 16.9152 22.5882 17.3382C22.1652 17.7613 21.5917 17.9993 20.9934 18V18Z"
          fill="#1F1D25"/>
    <path d="M6 19.5H18" stroke="#1F1D25" strokeWidth="2" stroke-miterlimit="10" strokeLinecap="round"/>
</svg>
