<svg width="24" height="24" viewBox="0 0 24 24" fill="none" xmlns="http://www.w3.org/2000/svg">
    <path d="M19.4246 5.32556C17.7122 3.60305 15.4518 2.53295 13.0342 2.30025C12.9606 2.29259 12.8908 2.26357 12.8335 2.21676C12.7762 2.16995 12.7339 2.1074 12.7117 2.03681C12.6674 1.88225 12.574 1.7463 12.4456 1.64952C12.3173 1.55274 12.1609 1.5004 12.0001 1.5004C11.8393 1.5004 11.6829 1.55274 11.5545 1.64952C11.4262 1.7463 11.3328 1.88225 11.2885 2.03681C11.2663 2.1074 11.224 2.16995 11.1667 2.21676C11.1094 2.26357 11.0396 2.29259 10.966 2.30025C8.37666 2.5565 5.97466 3.76506 4.22571 5.69164C2.47676 7.61823 1.50545 10.1256 1.5001 12.7276C1.49807 12.8557 1.52805 12.9822 1.58731 13.0957C1.64658 13.2093 1.73325 13.3062 1.83947 13.3778C1.98364 13.472 2.15585 13.5137 2.32717 13.496C2.49849 13.4782 2.65848 13.4021 2.78025 13.2803C3.23589 12.8248 3.85362 12.5687 4.49787 12.5681C5.14213 12.5676 5.76027 12.8227 6.21666 13.2774C6.28563 13.3477 6.3678 13.4036 6.45845 13.442C6.5491 13.4804 6.64644 13.5005 6.74489 13.5012C6.84333 13.5018 6.94093 13.483 7.03208 13.4458C7.12323 13.4086 7.20614 13.3538 7.27603 13.2845C7.77421 12.7887 8.43383 12.4882 9.13487 12.4377C9.83591 12.3872 10.5318 12.59 11.0959 13.0093V13.0093C11.1438 13.0453 11.1827 13.092 11.2094 13.1456C11.2362 13.1992 11.2501 13.2583 11.2501 13.3182V20.2285C11.2501 20.6317 10.9407 20.9785 10.5381 20.9992C10.4365 21.0043 10.335 20.9887 10.2396 20.9534C10.1442 20.9181 10.0571 20.8638 9.98336 20.7937C9.90965 20.7236 9.85097 20.6393 9.81087 20.5459C9.77077 20.4524 9.75009 20.3518 9.7501 20.2501C9.75011 20.1504 9.73027 20.0518 9.69173 19.9599C9.6532 19.868 9.59673 19.7847 9.52564 19.7149C9.45455 19.6451 9.37026 19.5901 9.27769 19.5532C9.18512 19.5164 9.08613 19.4983 8.9865 19.5001C8.56463 19.5076 8.24119 19.8803 8.25057 20.3017C8.26457 20.8841 8.50368 21.4385 8.91771 21.8484C9.33173 22.2583 9.88847 22.4919 10.471 22.5001C11.731 22.516 12.7501 21.4721 12.7501 20.2121V13.3182C12.7501 13.2583 12.764 13.1992 12.7908 13.1456C12.8175 13.092 12.8564 13.0453 12.9043 13.0093V13.0093C13.4676 12.5906 14.1623 12.3877 14.8624 12.4375C15.5624 12.4872 16.2215 12.7862 16.7199 13.2803C16.8606 13.4208 17.0513 13.4997 17.2501 13.4997C17.4489 13.4997 17.6396 13.4208 17.7803 13.2803C18.2365 12.8244 18.8551 12.5683 19.5001 12.5683C20.1451 12.5683 20.7637 12.8244 21.2199 13.2803C21.3382 13.3985 21.4925 13.4738 21.6585 13.4943C21.8244 13.5148 21.9925 13.4792 22.1359 13.3932C22.249 13.3232 22.3421 13.225 22.4059 13.1083C22.4698 12.9915 22.5022 12.8602 22.5001 12.7271C22.5008 11.3516 22.2294 9.98945 21.7016 8.71918C21.1738 7.44891 20.3999 6.29558 19.4246 5.32556V5.32556Z"
          fill="#1F1D25"/>
</svg>
