<svg width="24" height="24" viewBox="0 0 24 24" fill="none" xmlns="http://www.w3.org/2000/svg">
    <path d="M21.75 18.0213C21.54 18.0212 21.3324 17.9769 21.1406 17.8915C21.096 17.8717 21.0535 17.8475 21.0136 17.8193L17.1366 15.0902C16.9399 14.9518 16.7795 14.7682 16.6687 14.5547C16.5579 14.3413 16.5001 14.1044 16.5 13.864V10.1421C16.5001 9.90163 16.5579 9.66472 16.6687 9.45131C16.7795 9.2379 16.9399 9.05425 17.1366 8.91584L21.0136 6.18677C21.0535 6.15858 21.096 6.1344 21.1406 6.11459C21.369 6.01305 21.6191 5.97019 21.8683 5.9899C22.1174 6.00961 22.3577 6.09126 22.5673 6.22744C22.7769 6.36361 22.9491 6.55 23.0683 6.76966C23.1875 6.98931 23.25 7.23528 23.25 7.48521V16.5208C23.25 16.9187 23.092 17.3002 22.8107 17.5815C22.5294 17.8628 22.1478 18.0208 21.75 18.0208V18.0213Z"
          fill="#1F1D25"/>
    <path d="M12.5625 18.75H3.9375C3.09239 18.7491 2.28214 18.413 1.68456 17.8154C1.08697 17.2179 0.750869 16.4076 0.75 15.5625V8.4375C0.750869 7.59239 1.08697 6.78214 1.68456 6.18456C2.28214 5.58697 3.09239 5.25087 3.9375 5.25H12.585C13.4241 5.25099 14.2286 5.58477 14.8219 6.1781C15.4152 6.77144 15.749 7.57589 15.75 8.415V15.5625C15.7491 16.4076 15.413 17.2179 14.8154 17.8154C14.2179 18.413 13.4076 18.7491 12.5625 18.75V18.75Z"
          fill="#1F1D25"/>
</svg>
