<svg width="24" height="24" viewBox="0 0 24 24" fill="none" xmlns="http://www.w3.org/2000/svg">
    <path d="M15.7502 8.41501C15.7502 7.57559 15.4168 6.77056 14.8232 6.17701C14.2297 5.58346 13.4246 5.25 12.5852 5.25H8.87273C8.83566 5.25006 8.79945 5.26111 8.76866 5.28175C8.73787 5.30238 8.71388 5.33168 8.69974 5.36594C8.68559 5.4002 8.68192 5.43789 8.68918 5.47424C8.69644 5.51058 8.71431 5.54396 8.74054 5.57016L15.4301 12.2597C15.4563 12.2859 15.4897 12.3038 15.526 12.3111C15.5624 12.3183 15.6 12.3146 15.6343 12.3005C15.6686 12.2864 15.6979 12.2624 15.7185 12.2316C15.7391 12.2008 15.7502 12.1646 15.7502 12.1275V8.41501Z"
          fill="#1F1D25"/>
    <path d="M0.75 8.43771V15.5627C0.75 16.4081 1.08582 17.2188 1.6836 17.8166C2.28137 18.4144 3.09212 18.7502 3.9375 18.7502H12.5625C13.2942 18.7509 14.0037 18.4985 14.5706 18.0358C14.5916 18.0194 14.6088 17.9986 14.6211 17.975C14.6334 17.9513 14.6405 17.9253 14.642 17.8987C14.6434 17.8721 14.6392 17.8455 14.6296 17.8206C14.6199 17.7958 14.6051 17.7733 14.5861 17.7546L2.55047 5.71896C2.52106 5.68944 2.48265 5.67055 2.44131 5.66529C2.39997 5.66003 2.35806 5.66869 2.32219 5.6899C1.84349 5.97129 1.44661 6.37286 1.17085 6.85482C0.895086 7.33679 0.750014 7.88243 0.75 8.43771V8.43771Z"
          fill="#1F1D25"/>
    <path d="M21.75 18.0181C21.54 18.0179 21.3324 17.9737 21.1406 17.8882C21.096 17.8684 21.0535 17.8442 21.0136 17.816L17.1366 15.087C16.9399 14.9486 16.7795 14.7649 16.6687 14.5515C16.5579 14.3381 16.5001 14.1012 16.5 13.8607V10.1389C16.5001 9.8984 16.5579 9.66148 16.6687 9.44807C16.7795 9.23466 16.9399 9.05101 17.1366 8.9126L21.0136 6.18354C21.0535 6.15534 21.096 6.13116 21.1406 6.11135C21.369 6.00982 21.6191 5.96696 21.8683 5.98667C22.1174 6.00637 22.3577 6.08803 22.5673 6.2242C22.7769 6.36038 22.9491 6.54676 23.0683 6.76642C23.1875 6.98608 23.25 7.23205 23.25 7.48198V16.5176C23.25 16.9154 23.092 17.297 22.8107 17.5783C22.5294 17.8596 22.1478 18.0176 21.75 18.0176V18.0181Z"
          fill="#1F1D25"/>
    <path d="M19.5 19.5L3.75 3.75" stroke="#1F1D25" strokeWidth="2" stroke-miterlimit="10" strokeLinecap="round"/>
</svg>
