<svg width="24" height="24" viewBox="0 0 24 24" fill="none" xmlns="http://www.w3.org/2000/svg">
    <path d="M10.875 19.5C10.6354 19.5 10.402 19.4231 10.2094 19.2806C10.1987 19.2732 10.1883 19.2652 10.1784 19.2567L5.895 15.75H2.625C2.32663 15.75 2.04048 15.6315 1.8295 15.4205C1.61853 15.2095 1.5 14.9234 1.5 14.625V9.375C1.5 9.07663 1.61853 8.79048 1.8295 8.5795C2.04048 8.36853 2.32663 8.25 2.625 8.25H5.89453L10.1775 4.74328C10.1874 4.7348 10.1977 4.72682 10.2084 4.71937C10.376 4.59615 10.5744 4.52178 10.7817 4.50452C10.9889 4.48726 11.1969 4.5278 11.3825 4.62163C11.5681 4.71545 11.7241 4.8589 11.8331 5.03602C11.9421 5.21315 11.9999 5.41702 12 5.625V18.375C12 18.6734 11.8815 18.9595 11.6705 19.1705C11.4595 19.3815 11.1734 19.5 10.875 19.5Z"
          fill="#1F1D25"/>
    <path d="M14.9998 15.7498C14.8719 15.7498 14.746 15.717 14.6343 15.6546C14.5225 15.5922 14.4286 15.5022 14.3615 15.3932C14.2944 15.2843 14.2562 15.16 14.2507 15.0321C14.2452 14.9042 14.2725 14.7771 14.33 14.6628C14.7748 13.7782 15.0003 12.8815 15.0003 11.9998C15.0003 11.0914 14.7819 10.2214 14.3323 9.34057C14.2462 9.16389 14.2329 8.96047 14.2952 8.77406C14.3576 8.58766 14.4906 8.43318 14.6657 8.34385C14.8407 8.25453 15.0439 8.23751 15.2314 8.29645C15.4189 8.35539 15.5758 8.48558 15.6683 8.65901C16.2275 9.75541 16.4998 10.8485 16.4998 11.9998C16.4998 13.1182 16.2186 14.2409 15.6701 15.3368C15.6077 15.461 15.5119 15.5654 15.3935 15.6383C15.2752 15.7113 15.1389 15.7498 14.9998 15.7498Z"
          fill="#1F1D25"/>
    <path d="M17.2502 18C17.1185 18 16.9891 17.9654 16.8751 17.8996C16.7611 17.8338 16.6664 17.7391 16.6005 17.6251C16.5347 17.511 16.5 17.3817 16.5 17.25C16.5 17.1184 16.5346 16.989 16.6005 16.875C17.4869 15.3323 18.0002 14.0395 18.0002 12C18.0002 9.92952 17.4878 8.64562 16.6024 7.1278C16.5052 6.95616 16.4796 6.75318 16.5311 6.5628C16.5826 6.37242 16.7069 6.20997 16.8773 6.11062C17.0476 6.01127 17.2503 5.98301 17.4413 6.03196C17.6323 6.08092 17.7964 6.20314 17.898 6.37218C18.887 8.06765 19.5002 9.60046 19.5002 12C19.5002 14.3639 18.888 15.9042 17.9003 17.625C17.8344 17.7391 17.7397 17.8338 17.6255 17.8997C17.5114 17.9655 17.3819 18.0001 17.2502 18V18Z"
          fill="#1F1D25"/>
    <path d="M19.5001 20.2498C19.365 20.2497 19.2325 20.2131 19.1165 20.144C19.0005 20.0748 18.9053 19.9756 18.8411 19.8568C18.7768 19.738 18.7458 19.6041 18.7513 19.4691C18.7568 19.3342 18.7987 19.2032 18.8724 19.0901C20.1493 17.1312 21.0001 15.176 21.0001 11.9998C21.0001 8.88261 20.1479 6.90823 18.8677 4.90339C18.8147 4.82029 18.7786 4.72756 18.7615 4.6305C18.7443 4.53344 18.7464 4.43395 18.7677 4.33771C18.789 4.24148 18.829 4.15037 18.8855 4.0696C18.942 3.98883 19.0139 3.91998 19.097 3.86698C19.1801 3.81398 19.2728 3.77787 19.3699 3.76071C19.4669 3.74354 19.5664 3.74566 19.6626 3.76695C19.7589 3.78823 19.85 3.82826 19.9308 3.88476C20.0115 3.94125 20.0804 4.0131 20.1334 4.0962C21.5537 6.32277 22.5001 8.51886 22.5001 11.9998C22.5001 15.035 21.8129 17.3262 20.1282 19.9095C20.0601 20.014 19.967 20.0998 19.8573 20.1592C19.7476 20.2187 19.6248 20.2498 19.5001 20.2498V20.2498Z"
          fill="#1F1D25"/>
</svg>
