<svg width="24" height="24" viewBox="0 0 24 24" fill="none" xmlns="http://www.w3.org/2000/svg">
    <path d="M19.5 20.25L3 3.75" stroke="#1F1D25" strokeWidth="2" stroke-miterlimit="10" strokeLinecap="round"/>
    <path d="M11.4061 4.63389C11.219 4.53294 11.007 4.48736 10.7949 4.50246C10.5828 4.51757 10.3794 4.59275 10.2085 4.7192L10.1775 4.74311L8.84067 5.83764C8.80012 5.87082 8.76696 5.91213 8.74335 5.95891C8.71974 6.00569 8.70619 6.0569 8.70359 6.10923C8.70098 6.16157 8.70937 6.21387 8.72822 6.26276C8.74707 6.31166 8.77596 6.35606 8.81302 6.3931L11.3597 8.93982C11.4122 8.99232 11.479 9.02809 11.5518 9.04258C11.6246 9.05707 11.7 9.04965 11.7686 9.02124C11.8371 8.99283 11.8957 8.94472 11.9369 8.883C11.9781 8.82128 12.0001 8.74872 12 8.67451V5.65154C12.0021 5.4441 11.948 5.23996 11.8435 5.06078C11.7389 4.88161 11.5878 4.73409 11.4061 4.63389V4.63389Z"
          fill="#1F1D25"/>
    <path d="M11.7811 15.7167L4.53234 8.46984C4.39176 8.32917 4.20106 8.25009 4.00219 8.25H2.625C2.32663 8.25 2.04048 8.36853 1.8295 8.5795C1.61853 8.79048 1.5 9.07663 1.5 9.375V14.625C1.5 14.9234 1.61853 15.2095 1.8295 15.4205C2.04048 15.6315 2.32663 15.75 2.625 15.75H5.895L10.2075 19.2802C10.3806 19.4086 10.5871 19.4844 10.8022 19.4985C11.0172 19.5125 11.2318 19.4642 11.4202 19.3594C11.5981 19.258 11.7456 19.1108 11.8476 18.9332C11.9495 18.7556 12.0021 18.554 12 18.3492V16.2464C12 16.0478 11.9213 15.8573 11.7811 15.7167V15.7167Z"
          fill="#1F1D25"/>
    <path d="M16.5004 12.0002C16.5004 10.849 16.228 9.75632 15.6683 8.65944C15.624 8.57104 15.5625 8.49228 15.4876 8.42771C15.4126 8.36314 15.3257 8.31404 15.2317 8.28323C15.1377 8.25241 15.0385 8.2405 14.9399 8.24817C14.8413 8.25584 14.7451 8.28295 14.657 8.32793C14.5689 8.37291 14.4906 8.43487 14.4265 8.51025C14.3625 8.58563 14.314 8.67294 14.2838 8.76714C14.2536 8.86135 14.2424 8.9606 14.2507 9.05917C14.2591 9.15773 14.2868 9.25368 14.3324 9.34147C14.7819 10.2218 15.0004 11.0918 15.0004 12.0002C15.0004 12.1252 14.9955 12.2523 14.9858 12.3813C14.9818 12.4351 14.9895 12.4891 15.0082 12.5397C15.027 12.5902 15.0565 12.6361 15.0946 12.6743L15.7677 13.3474C15.8163 13.3961 15.8774 13.4305 15.9443 13.4469C16.0112 13.4632 16.0812 13.4608 16.1468 13.4399C16.2124 13.419 16.271 13.3805 16.3162 13.3286C16.3613 13.2766 16.3913 13.2132 16.4029 13.1454C16.4674 12.7671 16.5 12.384 16.5004 12.0002V12.0002Z"
          fill="#1F1D25"/>
    <path d="M19.4999 12C19.4999 9.60093 18.8868 8.06765 17.8978 6.37218C17.7962 6.20314 17.6321 6.08092 17.4411 6.03196C17.25 5.98301 17.0474 6.01127 16.877 6.11062C16.7067 6.20997 16.5823 6.37242 16.5309 6.5628C16.4794 6.75318 16.505 6.95616 16.6021 7.12781C17.4876 8.64562 17.9999 9.92953 17.9999 12C17.9999 13.117 17.8457 14.01 17.5607 14.843C17.5378 14.9094 17.534 14.9809 17.5498 15.0493C17.5655 15.1178 17.6002 15.1804 17.6498 15.2302L18.2343 15.8156C18.2785 15.8599 18.3331 15.8924 18.393 15.9101C18.453 15.9279 18.5164 15.9304 18.5776 15.9174C18.6387 15.9044 18.6957 15.8763 18.7432 15.8357C18.7908 15.7951 18.8274 15.7432 18.8498 15.6848C19.2656 14.6138 19.4999 13.4653 19.4999 12Z"
          fill="#1F1D25"/>
    <path d="M22.5001 12.0002C22.5001 8.51973 21.5536 6.32316 20.1324 4.0966C20.0254 3.92877 19.856 3.81033 19.6617 3.76735C19.4673 3.72436 19.2638 3.76034 19.096 3.86738C18.9282 3.97442 18.8097 4.14375 18.7667 4.33811C18.7237 4.53248 18.7597 4.73596 18.8668 4.90379C20.1479 6.90863 21.0001 8.88301 21.0001 12.0002C21.0001 14.1654 20.6049 15.7629 19.9486 17.1813C19.9165 17.2508 19.9064 17.3285 19.9197 17.4039C19.9331 17.4793 19.9692 17.5489 20.0232 17.6032L20.5819 18.1619C20.6242 18.2049 20.6761 18.237 20.7334 18.2556C20.7907 18.2742 20.8517 18.2787 20.9111 18.2688C20.9705 18.2588 21.0266 18.2347 21.0748 18.1985C21.1229 18.1623 21.1616 18.115 21.1876 18.0607C22.1063 16.1674 22.5001 14.2971 22.5001 12.0002Z"
          fill="#1F1D25"/>
</svg>
