<svg width="24" height="24" viewBox="0 0 24 24" fill="none" xmlns="http://www.w3.org/2000/svg">
    <path d="M13.875 19.5088C13.6352 19.5087 13.4017 19.4316 13.2089 19.289L13.178 19.2651L8.89078 15.7495H5.625C5.32663 15.7495 5.04048 15.6309 4.8295 15.42C4.61853 15.209 4.5 14.9228 4.5 14.6245V9.37494C4.5 9.07657 4.61853 8.79043 4.8295 8.57945C5.04048 8.36847 5.32663 8.24994 5.625 8.24994H8.88984L13.177 4.73432L13.208 4.71041C13.3756 4.587 13.5741 4.51251 13.7815 4.49522C13.989 4.47793 14.1971 4.51852 14.3828 4.61248C14.5686 4.70643 14.7246 4.85007 14.8335 5.02741C14.9425 5.20475 15.0001 5.40884 15 5.61697V18.3829C15 18.6813 14.8815 18.9674 14.6705 19.1784C14.4595 19.3894 14.1734 19.5079 13.875 19.5079V19.5088Z"
          fill="#1F1D25"/>
    <path d="M17.9996 15.7502C17.8717 15.7502 17.7459 15.7174 17.6342 15.655C17.5226 15.5926 17.4287 15.5027 17.3616 15.3938C17.2944 15.2849 17.2563 15.1607 17.2507 15.0329C17.2451 14.9051 17.2724 14.778 17.3298 14.6637C17.7746 13.7777 18.0001 12.8824 18.0001 12.0002C18.0001 11.0927 17.7816 10.2227 17.3321 9.34103C17.246 9.16435 17.2326 8.96093 17.295 8.77452C17.3573 8.58812 17.4903 8.43363 17.6654 8.34431C17.8405 8.25499 18.0437 8.23797 18.2312 8.29691C18.4187 8.35584 18.5755 8.48604 18.668 8.65946C19.2277 9.75775 19.4996 10.8504 19.4996 12.0002C19.4996 13.1173 19.2184 14.2399 18.6699 15.3368C18.6075 15.4611 18.5118 15.5656 18.3934 15.6386C18.275 15.7116 18.1387 15.7503 17.9996 15.7502Z"
          fill="#1F1D25"/>
</svg>
