<svg width="24" height="24" viewBox="0 0 24 24" fill="none" xmlns="http://www.w3.org/2000/svg">
    <path d="M12.375 19.5088C12.1352 19.5087 11.9017 19.4316 11.7089 19.289L11.678 19.2651L7.39078 15.7495H4.125C3.82663 15.7495 3.54048 15.6309 3.3295 15.42C3.11853 15.209 3 14.9228 3 14.6245V9.37494C3 9.07657 3.11853 8.79043 3.3295 8.57945C3.54048 8.36847 3.82663 8.24994 4.125 8.24994H7.38984L11.677 4.73432L11.708 4.71041C11.8756 4.587 12.0741 4.51251 12.2815 4.49522C12.489 4.47793 12.6971 4.51852 12.8828 4.61248C13.0686 4.70643 13.2246 4.85007 13.3335 5.02741C13.4425 5.20475 13.5001 5.40884 13.5 5.61697V18.3829C13.5 18.6813 13.3815 18.9674 13.1705 19.1784C12.9595 19.3894 12.6734 19.5079 12.375 19.5079V19.5088Z"
          fill="#1F1D25"/>
    <path d="M16.4996 15.7498C16.3717 15.7498 16.2459 15.717 16.1342 15.6546C16.0226 15.5922 15.9287 15.5023 15.8616 15.3934C15.7944 15.2845 15.7563 15.1603 15.7507 15.0325C15.7451 14.9047 15.7724 14.7776 15.8298 14.6633C16.2746 13.7773 16.5001 12.882 16.5001 11.9998C16.5001 11.0923 16.2816 10.2223 15.8321 9.3406C15.746 9.16392 15.7326 8.9605 15.795 8.77409C15.8573 8.58769 15.9903 8.43321 16.1654 8.34388C16.3405 8.25456 16.5437 8.23754 16.7312 8.29648C16.9187 8.35542 17.0755 8.48561 17.168 8.65904C17.7277 9.75732 17.9996 10.85 17.9996 11.9998C17.9996 13.1168 17.7184 14.2395 17.1699 15.3364C17.1075 15.4607 17.0118 15.5652 16.8934 15.6382C16.775 15.7112 16.6387 15.7498 16.4996 15.7498Z"
          fill="#1F1D25"/>
    <path d="M18.7497 18.0002C18.618 18.0003 18.4885 17.9657 18.3744 17.8999C18.2603 17.8341 18.1656 17.7395 18.0997 17.6254C18.0338 17.5114 17.9991 17.382 17.999 17.2503C17.999 17.1186 18.0337 16.9892 18.0995 16.8752C18.984 15.3306 19.4997 14.0369 19.4997 12.0002C19.4997 9.93205 18.9868 8.64768 18.1014 7.12752C18.01 6.95612 17.9887 6.75594 18.0419 6.56913C18.0951 6.38232 18.2188 6.22345 18.3868 6.12596C18.5548 6.02847 18.7541 5.99997 18.9427 6.04645C19.1313 6.09294 19.2945 6.21078 19.3979 6.37518C20.3865 8.07018 20.9997 9.60393 20.9997 12.0002C20.9997 14.3608 20.3875 15.902 19.4003 17.6252C19.3344 17.7393 19.2395 17.8341 19.1253 17.9C19.0111 17.9658 18.8815 18.0004 18.7497 18.0002Z"
          fill="#1F1D25"/>
</svg>
