<svg width="24" height="24" viewBox="0 0 24 24" fill="none" xmlns="http://www.w3.org/2000/svg">
    <path d="M14.6512 22.4956L12.0065 17.1519L9.91493 14.48C9.60547 13.9562 9.4426 13.3588 9.44336 12.7503V6.73346H10.1723C10.6696 6.73346 11.1465 6.931 11.4981 7.28263C11.8497 7.63426 12.0473 8.11118 12.0473 8.60846V17.1496"
          fill="#1F1D25"/>
    <path d="M14.6512 22.4956L12.0065 17.1519L9.91493 14.48C9.60547 13.9562 9.4426 13.3588 9.44336 12.7503V6.73346H10.1723C10.6696 6.73346 11.1465 6.931 11.4981 7.28263C11.8497 7.63426 12.0473 8.11118 12.0473 8.60846V17.1496"
          stroke="#1F1D25" strokeWidth="2" strokeLinecap="round" strokeLinejoin="round"/>
    <path d="M5.9707 13.6775V10.2055C5.9707 10.2055 7.70507 6.73346 9.44273 6.73346" stroke="#1F1D25" strokeWidth="2"
          strokeLinecap="round" strokeLinejoin="round"/>
    <path d="M17.2542 13.6771C17.083 13.6771 16.9157 13.6263 16.7733 13.5313L13.9547 11.7187C13.8153 11.6287 13.7006 11.5053 13.6212 11.3596C13.5417 11.2139 13.5001 11.0507 13.5 10.8847V9.7738C13.4999 9.72628 13.5127 9.67962 13.5368 9.63871C13.561 9.5978 13.5957 9.56415 13.6374 9.54128C13.6791 9.51842 13.7261 9.50718 13.7736 9.50875C13.8211 9.51032 13.8673 9.52464 13.9073 9.55021L17.7347 12.0866C17.8898 12.19 18.0075 12.3406 18.0704 12.516C18.1333 12.6915 18.138 12.8825 18.0839 13.0609C18.0298 13.2393 17.9198 13.3955 17.77 13.5065C17.6202 13.6175 17.4387 13.6773 17.2523 13.6771H17.2542Z"
          fill="#1F1D25"/>
    <path d="M8.05869 23.1317C7.92379 23.1318 7.79071 23.1005 7.67003 23.0402C7.54935 22.9799 7.44441 22.8923 7.36354 22.7843C7.07572 22.4009 7.17604 21.979 7.53697 21.5693L10.3471 18.0696C10.3858 18.0406 10.4301 18.0201 10.4772 18.0092C10.5243 17.9983 10.5732 17.9974 10.6207 18.0065C10.6681 18.0156 10.7132 18.0345 10.7529 18.062C10.7927 18.0895 10.8263 18.125 10.8515 18.1662C10.9246 18.2852 11.0099 18.431 11.0948 18.5923C11.3404 19.0587 11.376 19.3474 11.016 19.797C10.641 20.2657 8.57854 22.9582 8.57854 22.9582C8.45573 23.0979 8.23963 23.1317 8.05869 23.1317Z"
          fill="#1F1D25"/>
    <path d="M12.0468 4.99734C13.0057 4.99734 13.783 4.22 13.783 3.26109C13.783 2.30219 13.0057 1.52484 12.0468 1.52484C11.0879 1.52484 10.3105 2.30219 10.3105 3.26109C10.3105 4.22 11.0879 4.99734 12.0468 4.99734Z"
          fill="#1F1D25" stroke="#1F1D25" strokeWidth="2" strokeLinecap="round" strokeLinejoin="round"/>
</svg>
