<svg width="24" height="24" viewBox="0 0 24 24" fill="none" xmlns="http://www.w3.org/2000/svg">
    <path d="M16.2495 14.2641C15.0826 13.2267 13.5755 12.6537 12.0141 12.6537C10.4528 12.6537 8.9457 13.2267 7.77873 14.2641C7.68013 14.3494 7.59945 14.4535 7.5414 14.5702C7.48335 14.687 7.44908 14.8141 7.44057 14.9443C7.43207 15.0744 7.4495 15.2049 7.49186 15.3282C7.53422 15.4516 7.60065 15.5652 7.68732 15.6627C7.77398 15.7601 7.87913 15.8394 7.99668 15.8958C8.11422 15.9523 8.24181 15.9848 8.37204 15.9915C8.50226 15.9983 8.63253 15.9791 8.75527 15.935C8.878 15.891 8.99077 15.823 9.08702 15.735C9.89356 15.0182 10.9351 14.6223 12.0141 14.6223C13.0932 14.6223 14.1347 15.0182 14.9412 15.735C15.1364 15.9085 15.3925 15.9974 15.6532 15.982C15.9139 15.9667 16.1578 15.8484 16.3313 15.6532C16.5048 15.458 16.5937 15.2019 16.5783 14.9412C16.563 14.6806 16.4447 14.4366 16.2495 14.2631V14.2641Z"
          fill="#1F1D25"/>
    <path d="M12.0135 8.61103C9.37059 8.60739 6.82577 9.61191 4.89789 11.4198C4.80029 11.5072 4.72112 11.6133 4.66503 11.7317C4.60894 11.8501 4.57707 11.9786 4.57127 12.1095C4.56548 12.2404 4.58589 12.3712 4.63129 12.4941C4.6767 12.617 4.74619 12.7296 4.83569 12.8254C4.9252 12.9211 5.03291 12.998 5.15252 13.0515C5.27213 13.105 5.40123 13.1342 5.53224 13.1371C5.66324 13.1401 5.79353 13.1169 5.91546 13.0689C6.03738 13.0209 6.14849 12.949 6.24227 12.8575C7.80765 11.3939 9.87057 10.5798 12.0135 10.5798C14.1565 10.5798 16.2194 11.3939 17.7848 12.8575C17.8785 12.949 17.9897 13.0209 18.1116 13.0689C18.2335 13.1169 18.3638 13.1401 18.4948 13.1371C18.6258 13.1342 18.7549 13.105 18.8745 13.0515C18.9941 12.998 19.1018 12.9211 19.1913 12.8254C19.2809 12.7296 19.3503 12.617 19.3957 12.4941C19.4412 12.3712 19.4616 12.2404 19.4558 12.1095C19.45 11.9786 19.4181 11.8501 19.362 11.7317C19.3059 11.6133 19.2268 11.5072 19.1291 11.4198C17.2013 9.61191 14.6565 8.60739 12.0135 8.61103V8.61103Z"
          fill="#1F1D25"/>
    <path d="M21.6567 8.24328C19.0027 5.87533 15.5703 4.56665 12.0135 4.56665C8.45677 4.56665 5.02435 5.87533 2.37041 8.24328C2.27067 8.32848 2.18896 8.43276 2.13009 8.54998C2.07122 8.66721 2.03637 8.79502 2.0276 8.9259C2.01882 9.05679 2.03629 9.1881 2.07899 9.31214C2.12168 9.43618 2.18874 9.55043 2.27621 9.64818C2.36369 9.74593 2.46982 9.82522 2.58837 9.88137C2.70692 9.93753 2.8355 9.96942 2.96655 9.97518C3.0976 9.98094 3.22848 9.96045 3.3515 9.91491C3.47452 9.86937 3.5872 9.7997 3.68291 9.71C5.97586 7.66502 8.94091 6.5349 12.0133 6.5349C15.0857 6.5349 18.0507 7.66502 20.3437 9.71C20.5383 9.88404 20.7941 9.97365 21.0548 9.9591C21.3155 9.94455 21.5597 9.82704 21.7338 9.63242C21.9078 9.43779 21.9974 9.182 21.9829 8.92131C21.9683 8.66062 21.8508 8.41639 21.6562 8.24234L21.6567 8.24328Z"
          fill="#1F1D25"/>
    <path d="M12.0127 19.9409C12.8411 19.9409 13.5127 19.2693 13.5127 18.4409C13.5127 17.6125 12.8411 16.9409 12.0127 16.9409C11.1843 16.9409 10.5127 17.6125 10.5127 18.4409C10.5127 19.2693 11.1843 19.9409 12.0127 19.9409Z"
          fill="#1F1D25"/>
</svg>
