<svg width="24" height="24" viewBox="0 0 24 24" fill="none" xmlns="http://www.w3.org/2000/svg">
    <path d="M11.9883 5.25C13.438 5.25 14.6133 4.07475 14.6133 2.625C14.6133 1.17525 13.438 0 11.9883 0C10.5385 0 9.36328 1.17525 9.36328 2.625C9.36328 4.07475 10.5385 5.25 11.9883 5.25Z"
          fill="#1F1D25"/>
    <path d="M18.4982 13.0263L18.014 11.4133C18.014 11.4133 18.014 11.41 18.014 11.4082L16.9612 7.89911H16.9589L16.8412 7.50302C16.712 7.06869 16.4461 6.68769 16.0829 6.41673C15.7197 6.14577 15.2787 5.99935 14.8256 5.99927H9.20057C8.74739 5.99913 8.3063 6.14546 7.94306 6.41645C7.57983 6.68744 7.31391 7.06857 7.18495 7.50302L7.06729 7.89911H7.06448L6.01166 11.4082C6.01166 11.4082 6.01166 11.4115 6.01166 11.4133L5.52557 13.0263C5.37932 13.5133 5.63338 14.0416 6.11479 14.2047C6.23405 14.2453 6.36027 14.2615 6.48591 14.2522C6.61155 14.2429 6.73403 14.2084 6.84604 14.1508C6.95805 14.0931 7.05729 14.0135 7.13783 13.9166C7.21836 13.8197 7.27855 13.7076 7.31479 13.5869L8.51385 9.59083L8.61557 9.25192C8.64527 9.1691 8.70316 9.09935 8.77909 9.0549C8.85503 9.01044 8.94418 8.9941 9.03094 9.00874C9.11771 9.02338 9.19656 9.06806 9.25371 9.13497C9.31086 9.20188 9.34265 9.28675 9.34354 9.37474C9.34352 9.4001 9.34084 9.42539 9.33557 9.45021V9.45021L7.28573 16.2841C7.25211 16.3961 7.24515 16.5144 7.26538 16.6295C7.28561 16.7447 7.33248 16.8535 7.40224 16.9473C7.47201 17.0411 7.56274 17.1173 7.6672 17.1698C7.77166 17.2223 7.88694 17.2497 8.00385 17.2497H9.36323V22.6258C9.36323 23.3974 9.85682 23.9997 10.4882 23.9997C11.1196 23.9997 11.6132 23.3974 11.6132 22.6258V17.2497H12.3632V22.6258C12.3632 23.3974 12.8568 23.9997 13.4882 23.9997C14.1196 23.9997 14.6132 23.3974 14.6132 22.6258V17.2497H16.0195C16.1364 17.2498 16.2518 17.2225 16.3563 17.17C16.4608 17.1175 16.5516 17.0413 16.6214 16.9475C16.6912 16.8537 16.7381 16.7448 16.7584 16.6296C16.7787 16.5144 16.7717 16.3961 16.7381 16.2841L14.6878 9.44927C14.6826 9.42476 14.6801 9.39978 14.6803 9.37474C14.6807 9.28648 14.7123 9.20122 14.7695 9.13396C14.8266 9.0667 14.9057 9.02175 14.9927 9.00702C15.0797 8.9923 15.1691 9.00873 15.2452 9.05344C15.3213 9.09815 15.3792 9.16827 15.4087 9.25145L15.5104 9.59036L16.709 13.5865C16.7454 13.7069 16.8057 13.8188 16.8862 13.9155C16.9668 14.0122 17.066 14.0917 17.178 14.1492C17.2899 14.2067 17.4123 14.2411 17.5378 14.2503C17.6633 14.2596 17.7894 14.2434 17.9085 14.2029C18.3899 14.0416 18.644 13.5133 18.4982 13.0263Z"
          fill="#1F1D25"/>
</svg>
